<svg xmlns="http://www.w3.org/2000/svg" xmlns:xlink="http://www.w3.org/1999/xlink" width="229.892" height="200" viewBox="0 0 229.892 200">
  <defs>
    <clipPath id="clip-path">
      <rect id="矩形_22" data-name="矩形 22" width="229.892" height="200" transform="translate(229.892 200) rotate(180)" fill="none"/>
    </clipPath>
  </defs>
  <g id="组_4836" data-name="组 4836" transform="translate(-733.73 -355.04)">
    <g id="组_4834" data-name="组 4834" transform="translate(733.73 355.04)">
      <g id="组_4833" data-name="组 4833" clip-path="url(#clip-path)">
        <path id="路径_32" data-name="路径 32" d="M816.865,488.207l115.326,66.584V421.623L816.865,355.04Z" transform="translate(-701.919 -355.04)" fill="#3d3fea"/>
        <path id="路径_33" data-name="路径 33" d="M848.781,488.207,733.455,554.791V421.623L848.781,355.04Z" transform="translate(-733.835 -355.04)" fill="#172d72"/>
        <path id="路径_34" data-name="路径 34" d="M964.108,517.937,848.781,451.353,733.455,517.937l115.327,66.584Z" transform="translate(-733.835 -318.186)" fill="#00aeef"/>
      </g>
    </g>
    <g id="组_4835" data-name="组 4835" transform="translate(795.98 407.589)">
      <path id="路径_35" data-name="路径 35" d="M831.448,445.475l-52.7-30.424V475.9l52.7,30.424Z" transform="translate(-778.753 -384.627)" fill="#3d3fea"/>
      <path id="路径_36" data-name="路径 36" d="M816.865,445.475l52.7-30.424V475.9l-52.7,30.424Z" transform="translate(-764.169 -384.627)" fill="#172d72"/>
      <path id="路径_37" data-name="路径 37" d="M778.753,423.47l52.7,30.424,52.7-30.424-52.7-30.424Z" transform="translate(-778.753 -393.046)" fill="#00aeef"/>
    </g>
  </g>
</svg>
