<svg xmlns="http://www.w3.org/2000/svg" xmlns:xlink="http://www.w3.org/1999/xlink" width="414" height="150" viewBox="0 0 414 150">
  <defs>
    <clipPath id="clip-path">
      <rect id="矩形_64" data-name="矩形 64" width="127.235" height="110.691" fill="none"/>
    </clipPath>
    <clipPath id="clip-path-2">
      <rect id="矩形_65" data-name="矩形 65" width="105.784" height="92.029" transform="translate(105.784 92.029) rotate(180)" fill="none"/>
    </clipPath>
  </defs>
  <g id="组_5096" data-name="组 5096" transform="translate(0 -4296)">
    <g id="组_5095" data-name="组 5095">
      <rect id="矩形_104" data-name="矩形 104" width="414" height="150" transform="translate(0 4296)" fill="#061b48"/>
      <g id="组_5083" data-name="组 5083" transform="translate(-146 352)">
        <g id="组_4884" data-name="组 4884" transform="translate(146 3944)">
          <g id="组_4883" data-name="组 4883" clip-path="url(#clip-path)">
            <path id="路径_74" data-name="路径 74" d="M62.915,37.448-.913.6V74.3L62.915,111.15Z" transform="translate(0.703 -0.459)" fill="#3d3fea"/>
            <path id="路径_75" data-name="路径 75" d="M275.87,37.448,339.7.6V74.3L275.87,111.15Z" transform="translate(-212.253 -0.459)" fill="#172d72"/>
            <path id="路径_76" data-name="路径 76" d="M-.913-122.353,62.915-85.5l63.828-36.851L62.915-159.2Z" transform="translate(0.703 122.491)" fill="#00aeef"/>
          </g>
        </g>
        <g id="组_4888" data-name="组 4888" transform="translate(454.216 4001.345)">
          <g id="组_4886" data-name="组 4886" transform="translate(0 0)">
            <g id="组_4885" data-name="组 4885" clip-path="url(#clip-path-2)">
              <path id="路径_77" data-name="路径 77" d="M984.865,396.626l53.067,30.638V365.988l-53.067-30.638Z" transform="translate(-931.973 -335.349)" fill="#3d3fea"/>
              <path id="路径_78" data-name="路径 78" d="M954.522,396.626l-53.067,30.638V365.988l53.067-30.638Z" transform="translate(-901.63 -335.349)" fill="#172d72"/>
              <path id="路径_79" data-name="路径 79" d="M1007.589,462.3l-53.067-30.638L901.455,462.3l53.067,30.638Z" transform="translate(-901.63 -370.387)" fill="#00aeef"/>
            </g>
          </g>
          <g id="组_4887" data-name="组 4887" transform="translate(28.644 24.181)">
            <path id="路径_80" data-name="路径 80" d="M971,409.36l-24.248-14v28l24.248,14Z" transform="translate(-946.753 -381.361)" fill="#3d3fea"/>
            <path id="路径_81" data-name="路径 81" d="M984.865,409.36l24.248-14v28l-24.248,14Z" transform="translate(-960.617 -381.361)" fill="#172d72"/>
            <path id="路径_82" data-name="路径 82" d="M946.753,387.356l24.248,14,24.248-14-24.248-14Z" transform="translate(-946.753 -373.356)" fill="#00aeef"/>
          </g>
        </g>
      </g>
    </g>
    <g id="组_5094" data-name="组 5094" transform="translate(-399.393 3589.982)">
      <g id="组_5084" data-name="组 5084" transform="translate(476.393 774.637)">
        <path id="路径_227" data-name="路径 227" d="M482.647,834.092c.063-.456.11-.911.157-1.367l1.524.2c-.047.408-.094.786-.141,1.162h5.924v1.4h-6.144c-.079.361-.157.707-.22,1.053h4.431v9.1h2.247v1.367H476.393v-1.367h2.169v-9.1h3.645c.078-.361.157-.707.22-1.053h-5.735v-1.4Zm4.054,4.856v-1.084h-6.663v1.084Zm0,2.216v-1.037h-6.663v1.037Zm0,2.231v-1.053h-6.663v1.053Zm0,2.247v-1.053h-6.663v1.053Z" transform="translate(-476.393 -832.647)" fill="#fff"/>
        <path id="路径_228" data-name="路径 228" d="M547.686,834.4v1.43H541.5a11.747,11.747,0,0,1-.487,1.65h5.94v10.936H545.5v-.66h-9.664v.66h-1.445V837.48H539.5a9.929,9.929,0,0,0,.472-1.65h-6.364V834.4ZM537.63,846.374v-7.527h-1.792v7.527Zm4.635-5.892v-1.634h-3.237v1.634Zm0,2.923V841.77h-3.237V843.4Zm0,2.97v-1.7h-3.237v1.7Zm3.237,0v-7.527h-1.839v7.527Z" transform="translate(-513.213 -833.725)" fill="#fff"/>
        <path id="路径_229" data-name="路径 229" d="M591.948,836.8V832.81h1.461V836.8h1.461v1.414H593.41v4.761c.566-.251,1.116-.5,1.666-.786v1.493a27.855,27.855,0,0,1-4.494,1.759l-.377-1.477c.6-.126,1.178-.283,1.744-.456v-5.3h-1.587V836.8Zm6.883-2.153h1.979a10.829,10.829,0,0,0,.55-2.011l1.477.2a10.551,10.551,0,0,1-.566,1.807h1.949v5.578H595.4v-5.578h2.027c-.22-.6-.44-1.163-.691-1.681l1.493-.251C598.438,833.281,598.642,833.926,598.831,834.648Zm4.824,12.6h-1.43v-.565h-4.777v.565h-1.43v-6.159h7.637Zm-4.463-11.376h-2.5v3.143h2.5Zm-.456,2.5-.943.251a17.9,17.9,0,0,0-.66-1.964l.927-.3A15.024,15.024,0,0,1,598.736,838.372Zm3.488,4.934v-1.021h-4.777v1.021Zm0,2.169v-1.037h-4.777v1.037Zm.707-9.6h-2.577v3.143h2.577Zm-.472.66a10.629,10.629,0,0,1-.739,2.137l-.927-.33a10.9,10.9,0,0,0,.675-2.058Z" transform="translate(-549.636 -832.59)" fill="#fff"/>
        <path id="路径_230" data-name="路径 230" d="M651.54,839.014v-5.892h1.508v5.892h9.365v1.446h-5q.967,3.441,5.2,5.421l-.88,1.414q-4.785-2.521-5.767-6.835h-2.922v5.2q1.626-.424,3.253-.99l.377,1.414a50.324,50.324,0,0,1-5.075,1.4l-.456-1.383a.727.727,0,0,0,.393-.676V840.46h-3.064v-1.446Zm9.3-4.792a16.483,16.483,0,0,1-5.641,3.8l-.9-1.194a15.621,15.621,0,0,0,5.531-3.63Z" transform="translate(-587.137 -832.902)" fill="#fff"/>
        <path id="路径_231" data-name="路径 231" d="M705.355,847.32l-.33-1.43a8.717,8.717,0,0,0,1.241.094c.377,0,.566-.22.566-.628v-3.315c-.613.22-1.225.424-1.823.612l-.377-1.508a20.616,20.616,0,0,0,2.2-.6V837.28h-1.886v-1.43h1.886v-2.844h1.461v2.844h1.178v1.43h-1.178V840q.754-.33,1.508-.707v1.477c-.5.251-1.006.471-1.508.692v4.274c0,1.053-.5,1.587-1.508,1.587Zm6.9-14.315h1.367v7.574q-.071,4.761-2.907,6.976l-1.116-.99a6.519,6.519,0,0,0,2.608-5.028,10.968,10.968,0,0,1-2.106,2l-.8-1.351a10.363,10.363,0,0,0,2.954-2.42Zm-.016,5.609-1.132.582a30.684,30.684,0,0,0-1.382-3.441l1.225-.581C711.389,836.211,711.829,837.358,712.238,838.615Zm6.709-3.237a16.845,16.845,0,0,1-1.839,3.441l-1.068-.77v1.242a16.562,16.562,0,0,1,3.048,2.4l-.833,1.3a16.19,16.19,0,0,0-2.215-2.2v4.415c0,.44.141.676.424.676h.519a.647.647,0,0,0,.566-.3,6.826,6.826,0,0,0,.267-2.09l1.336.424a6.2,6.2,0,0,1-.613,2.844,1.768,1.768,0,0,1-1.289.425h-1.21q-1.414,0-1.414-1.7V832.99h1.414v4.871a13.022,13.022,0,0,0,1.618-3.127Z" transform="translate(-623.277 -832.817)" fill="#fff"/>
        <path id="路径_232" data-name="路径 232" d="M767.2,833.05v2.592h2.97v1.383H767.2V839.6h2.4v5.987a12.172,12.172,0,0,0,3.127-2.278c-.189-.55-.345-1.147-.5-1.791a23.474,23.474,0,0,1-.456-2.781l-2.043.377-.22-1.367,2.137-.377q-.141-1.956-.141-4.337h1.446c.016,1.54.063,2.891.141,4.07l4.054-.723.2,1.367-4.164.739a19.473,19.473,0,0,0,.377,2.592l.236,1.021a19.286,19.286,0,0,0,1.98-3.221l1.163.786a21.757,21.757,0,0,1-2.64,4.023,5.759,5.759,0,0,0,.409.88c.409.692.723,1.053.943,1.053.251,0,.5-.739.754-2.2l1.21.66c-.393,2.137-.974,3.206-1.728,3.206q-.943,0-1.933-1.414a6,6,0,0,1-.66-1.116,11.05,11.05,0,0,1-3.441,2.262l-.848-1.147a.169.169,0,0,1,.11-.047h-3.992v1.084H763.7V839.6h2.058V833.05Zm.99,11.408v-3.472h-3.064v3.472Zm8.265-9.019-1.1.754a17.608,17.608,0,0,0-1.728-2.184l1.069-.66A18.539,18.539,0,0,1,776.457,835.438Z" transform="translate(-661.289 -832.846)" fill="#fff"/>
        <path id="路径_233" data-name="路径 233" d="M825.071,863.233a2.144,2.144,0,0,1,.393,1.3,3.264,3.264,0,0,1-.707,2.09,3.548,3.548,0,0,1-1.886,1.226v-.974a2.437,2.437,0,0,0,1.069-.739,1.814,1.814,0,0,0,.393-1.1,1.215,1.215,0,0,1-.377.047,1.1,1.1,0,0,1-.817-.33,1.138,1.138,0,0,1-.33-.833,1.114,1.114,0,0,1,.346-.864,1.2,1.2,0,0,1,.9-.314A1.277,1.277,0,0,1,825.071,863.233Z" transform="translate(-699.329 -851.967)" fill="#fff"/>
        <path id="路径_234" data-name="路径 234" d="M879.4,838.46v-3.74c-.754.094-1.54.189-2.357.267l-.267-1.336a31.264,31.264,0,0,0,5.814-.927l.472,1.273c-.692.173-1.43.329-2.216.487v3.975h2.106v1.414h-2.106v.629c.754.628,1.54,1.336,2.325,2.121L882.3,843.9q-.849-1.178-1.461-1.886v5.28H879.4v-5.2a14.078,14.078,0,0,1-2.231,3.253l-.581-1.493a10.992,10.992,0,0,0,2.656-3.975H876.9V838.46Zm-.377-.833-1.116.5a15.345,15.345,0,0,0-1.006-2.482l1.226-.408A17.843,17.843,0,0,1,879.019,837.628Zm4.148-2.341a13.472,13.472,0,0,1-.88,2.812l-1.178-.424a13.423,13.423,0,0,0,.817-2.718Zm.283-.629v-1.336h6.914v1.257a5.912,5.912,0,0,1-1.854,2.828,18.832,18.832,0,0,0,2.624,1.006l-.707,1.273a13.7,13.7,0,0,1-3.19-1.367,14.693,14.693,0,0,1-3.425,1.336l-.723-1.257a14.581,14.581,0,0,0,2.876-1.021,6.347,6.347,0,0,1-1.839-2.719Zm2.97,8.642v-1.367H883.7V840.55h2.719v-1.414H887.9v1.414h2.734v1.383H887.9V843.3h3.142v1.4H887.9v2.577H886.42V844.7H883.2v-1.4Zm2.451-8.642H885.54a4.054,4.054,0,0,0,1.634,1.98A5.894,5.894,0,0,0,888.871,834.658Z" transform="translate(-733.936 -832.647)" fill="#fff"/>
        <path id="路径_235" data-name="路径 235" d="M936.927,834.894a21.016,21.016,0,0,0-.927-2l1.446-.393c.408.88.739,1.665.99,2.389H940.7v1.43h-3.693V837.6c0,.251-.016.487-.016.722h3a68.27,68.27,0,0,1-.22,7.259q-.235,1.368-2.027,1.367c-.22,0-.581-.032-1.116-.078l-.33-1.289a12.163,12.163,0,0,0,1.225.079.827.827,0,0,0,.9-.754,51.736,51.736,0,0,0,.157-5.2h-1.65c-.22,3.3-.88,5.767-2.011,7.432l-1.163-1.022q1.815-2.64,1.855-8.516v-1.273H934.1v-1.43Zm4.07,4.981-.911-1.115a13.471,13.471,0,0,0,2.467-6.144l1.461.252a18.52,18.52,0,0,1-.472,2.043h4.384v1.445h-1.053a13.916,13.916,0,0,1-1.775,6.521,10.444,10.444,0,0,0,3.394,3.064l-.848,1.257a10.414,10.414,0,0,1-3.394-3.1,12.481,12.481,0,0,1-3.551,3l-.848-1.367A9.975,9.975,0,0,0,943.4,842.8a19.208,19.208,0,0,1-1.681-3.85A11.155,11.155,0,0,1,941,839.874Zm1.571-2.4a19.53,19.53,0,0,0,1.634,4.007,12.878,12.878,0,0,0,1.272-5.123h-2.42C942.9,836.747,942.741,837.125,942.568,837.47Z" transform="translate(-770.728 -832.505)" fill="#fff"/>
        <path id="路径_236" data-name="路径 236" d="M995.758,840.337c-.094.252-.173.487-.267.739H998.7v1.21a5.877,5.877,0,0,1-1.508,2.5c.644.283,1.273.6,1.87.911l-.8,1.163a20.265,20.265,0,0,0-2.215-1.147,13.366,13.366,0,0,1-3.9,1.618l-.692-1.226a13.5,13.5,0,0,0,3.048-1.068c-.644-.267-1.336-.534-2.058-.817.377-.66.723-1.273,1.021-1.87h-1.65v-1.272h2.216c.126-.314.236-.629.33-.911Zm-.943-4.557v-2.891h1.367v2.891h2.734v1.3h-2.734v.078c.833.346,1.681.754,2.546,1.21l-.786,1.178c-.692-.55-1.273-.99-1.76-1.3v1.76h-1.367v-2.656a7.449,7.449,0,0,1-2.593,2.97l-.738-1.21a6.652,6.652,0,0,0,2.341-2.027h-1.98v-1.3Zm-.628-.754-1.069.487A14.1,14.1,0,0,0,992.1,833.5l1.179-.393A13.487,13.487,0,0,1,994.186,835.026Zm3.174,7.322h-2.435q-.33.66-.708,1.273c.55.189,1.084.377,1.6.6A5.541,5.541,0,0,0,997.36,842.348Zm1.477-8.752a11.315,11.315,0,0,1-1.194,1.964l-1.037-.534a9.963,9.963,0,0,0,1.178-1.933Zm1.572,5.83a14.692,14.692,0,0,1-.786,1.571l-.943-1.163a20.39,20.39,0,0,0,1.791-6.976l1.461.251c-.094.723-.188,1.4-.314,2.043h3.991v1.43h-.911a16.81,16.81,0,0,1-1.414,6.553,9.51,9.51,0,0,0,2.766,3.048l-.833,1.21a10.187,10.187,0,0,1-2.656-2.923,10.6,10.6,0,0,1-2.766,2.907l-.77-1.241a8.731,8.731,0,0,0,2.781-3.033A22.111,22.111,0,0,1,1000.409,839.426Zm.723-2.137a21.228,21.228,0,0,0,1.351,4.29,16.419,16.419,0,0,0,.864-5h-2.027Q1001.225,836.959,1001.131,837.289Z" transform="translate(-807.86 -832.732)" fill="#fff"/>
        <path id="路径_237" data-name="路径 237" d="M1049.343,847.349l-.314-1.414a7.274,7.274,0,0,0,1.147.11c.346,0,.534-.2.534-.613v-3.378c-.566.2-1.116.392-1.665.581l-.377-1.477a19,19,0,0,0,2.042-.6v-3.253h-1.76v-1.43h1.76v-2.844h1.446v2.844h1.383v1.43h-1.383v2.687c.44-.2.9-.424,1.336-.659V840.8c-.456.22-.9.44-1.336.644v4.353c0,1.037-.5,1.556-1.477,1.556Zm4.416.157-1.163-1.037a17.128,17.128,0,0,0,1.6-7.825v-5.122h8.5v4.07h-2.86v1.571h3.237v1.367h-3.237v1.619h2.53v5.342h-1.383v-.676h-3.724v.676h-1.383v-5.342h2.514v-1.619h-2.828A18.69,18.69,0,0,1,1053.758,847.506Zm1.886-9.915v1.053c0,.173-.016.346-.016.519h2.766v-1.571Zm0-2.7v1.367h5.609v-1.367Zm5.342,10.606v-2.027h-3.724v2.027Z" transform="translate(-844.681 -832.846)" fill="#fff"/>
        <path id="路径_238" data-name="路径 238" d="M1113.418,838.2v1.445h-3.535a42.057,42.057,0,0,1-1.461,4.73,22.17,22.17,0,0,0,3.143-.927q-.542-1.155-1.084-2.168l1.257-.613a45.352,45.352,0,0,1,2.074,4.369l-1.289.659-.408-1.005a36.286,36.286,0,0,1-5.343,1.367l-.361-1.414a.755.755,0,0,0,.314-.126,20.9,20.9,0,0,0,1.713-4.871h-2.011V838.2Zm-.566-4.243v1.43h-5.845v-1.43Zm4.18-.927v3.048h3.394c0,5.122-.079,8.281-.22,9.475q-.259,1.791-2.4,1.791c-.252,0-.692-.031-1.32-.063l-.346-1.32c.566.047,1.052.079,1.461.079.692,0,1.084-.377,1.21-1.132.094-.738.141-3.205.173-7.385h-1.948v.142q-.07,6.788-3.268,9.915l-1.116-.99q2.852-2.781,2.907-8.925v-.142h-2v-1.445h2v-3.048Z" transform="translate(-881.842 -832.846)" fill="#fff"/>
        <path id="路径_239" data-name="路径 239" d="M1171.537,837.211l-1.225.88c-.157-.314-.33-.644-.519-.974q-2.451.377-5.892.566l-.408-1.241a2.155,2.155,0,0,0,.676-.378,13.442,13.442,0,0,0,2.2-3.205l1.43.424a11.518,11.518,0,0,1-2.215,3.1c1.1-.063,2.294-.189,3.567-.346-.283-.44-.582-.88-.9-1.336l1.147-.723A28.873,28.873,0,0,1,1171.537,837.211Zm-5.688,10.2H1164.4v-9.066h6.128v7.322c0,1.084-.519,1.634-1.525,1.634h-1.225l-.362-1.4,1.116.063c.361,0,.55-.2.55-.613v-.88h-3.237Zm3.237-7.762h-3.237v1.21h3.237Zm-3.237,3.583h3.237v-1.147h-3.237Zm7.479-3.394c-1.1,0-1.634-.6-1.634-1.791v-5.107h1.477v1.854a36.541,36.541,0,0,0,3.959-.786l.487,1.32c-1.289.3-2.765.581-4.447.833v1.571c0,.5.188.77.566.77h1.87a.6.6,0,0,0,.534-.236,4,4,0,0,0,.251-1.6l1.4.456a4.414,4.414,0,0,1-.629,2.357,1.951,1.951,0,0,1-1.273.361Zm-.157,5.547c0,.283.172.424.55.424h1.9a.664.664,0,0,0,.55-.22,4.207,4.207,0,0,0,.267-1.6l1.351.44a4.348,4.348,0,0,1-.613,2.357,1.893,1.893,0,0,1-1.272.361H1173.3c-1.069,0-1.6-.487-1.6-1.429v-5.327h1.477v1.728a22.047,22.047,0,0,0,3.959-.77l.487,1.336a27.238,27.238,0,0,1-4.447.786Z" transform="translate(-918.577 -832.732)" fill="#fff"/>
        <path id="路径_240" data-name="路径 240" d="M615.555,917.515v.95H613v8.1h-1.168v-8.1h-2.555v-.95Z" transform="translate(-561.91 -887.213)" fill="#fff"/>
        <path id="路径_241" data-name="路径 241" d="M640.581,915.517a.937.937,0,0,1,1.155,0,.728.728,0,0,1,0,1.04.938.938,0,0,1-1.155,0,.728.728,0,0,1,0-1.04Zm1.155,2.587v7.049h-1.168V918.1Z" transform="translate(-581.916 -885.799)" fill="#fff"/>
        <path id="路径_242" data-name="路径 242" d="M667.356,924.43a3.783,3.783,0,0,1-1.624,1.579,5.508,5.508,0,0,1-2.575.559h-2.876v-9.052h2.876a5.616,5.616,0,0,1,2.575.546,3.711,3.711,0,0,1,1.624,1.566,5.5,5.5,0,0,1,0,4.8Zm-1.579.173a3.416,3.416,0,0,0,.937-2.568,3.451,3.451,0,0,0-.931-2.574,3.711,3.711,0,0,0-2.715-.918H661.45v6.972h1.618A3.73,3.73,0,0,0,665.777,924.6Z" transform="translate(-594.735 -887.213)" fill="#fff"/>
        <path id="路径_243" data-name="路径 243" d="M702.687,922.677a2.177,2.177,0,0,1,.52,1.451,2.254,2.254,0,0,1-.751,1.772,3.175,3.175,0,0,1-2.176.668h-3.364v-9.052h3.312a3.105,3.105,0,0,1,2.067.6,2.324,2.324,0,0,1,.237,3.069,2.123,2.123,0,0,1-1.2.693A2.368,2.368,0,0,1,702.687,922.677Zm-4.6-1.194h1.952a1.945,1.945,0,0,0,1.316-.4,1.406,1.406,0,0,0,.456-1.117,1.383,1.383,0,0,0-.449-1.091,2.025,2.025,0,0,0-1.374-.4h-1.9Zm3.409,3.685a1.638,1.638,0,0,0-.012-2.382,2.206,2.206,0,0,0-1.445-.43h-1.952v3.236h1.978A2.17,2.17,0,0,0,701.493,925.168Z" transform="translate(-618.311 -887.213)" fill="#fff"/>
        <path id="路径_244" data-name="路径 244" d="M755.191,918.231h-4.648v3.03a2.169,2.169,0,0,1,.924-.693,3.344,3.344,0,0,1,1.323-.257,2.921,2.921,0,0,1,1.6.4,2.447,2.447,0,0,1,.937,1.065,3.5,3.5,0,0,1,.3,1.47,3.322,3.322,0,0,1-.783,2.285,2.906,2.906,0,0,1-2.3.886,3.288,3.288,0,0,1-2.221-.739,2.8,2.8,0,0,1-.963-1.983h1.156a2.03,2.03,0,0,0,.661,1.239,1.961,1.961,0,0,0,1.316.443,1.844,1.844,0,0,0,1.49-.591,2.321,2.321,0,0,0,.5-1.553,2.009,2.009,0,0,0-.514-1.464,1.935,1.935,0,0,0-1.451-.526,2.3,2.3,0,0,0-1.168.289,1.918,1.918,0,0,0-.757.777h-1.13v-5.123h5.726Z" transform="translate(-652.063 -887.005)" fill="#fff"/>
        <path id="路径_245" data-name="路径 245" d="M782.04,939.056v1.374h-1.412v-1.374Z" transform="translate(-672.184 -901.076)" fill="#fff"/>
        <path id="路径_246" data-name="路径 246" d="M798.566,921.752a6.665,6.665,0,0,1,.719-3.383,3.165,3.165,0,0,1,4.988.007,8.281,8.281,0,0,1,0,6.779,3.16,3.16,0,0,1-4.988,0A6.729,6.729,0,0,1,798.566,921.752Zm5.278,0a8.969,8.969,0,0,0-.161-1.849,2.3,2.3,0,0,0-.61-1.188,2.1,2.1,0,0,0-2.581,0,2.3,2.3,0,0,0-.61,1.188,8.972,8.972,0,0,0-.16,1.849,9.149,9.149,0,0,0,.16,1.869,2.341,2.341,0,0,0,.61,1.2,2.077,2.077,0,0,0,2.581,0,2.341,2.341,0,0,0,.61-1.2A9.146,9.146,0,0,0,803.844,921.752Z" transform="translate(-683.728 -886.982)" fill="#fff"/>
        <path id="路径_247" data-name="路径 247" d="M853.848,919.4a4.1,4.1,0,0,0,0,.8c-3.2.655-3.621.77-3.891.925a7.057,7.057,0,0,0-.3-.873c.269-.052.565-.36.95-.835a14.989,14.989,0,0,0,1.3-1.734,7.434,7.434,0,0,0-2.041.385,6.834,6.834,0,0,0-.3-.912c.231-.051.449-.347.732-.783a19.76,19.76,0,0,0,1.708-3.583l.9.411a22.294,22.294,0,0,1-2.055,3.8l1.605-.154q.443-.713.809-1.425l.8.488a26.724,26.724,0,0,1-2.761,3.955Zm.193,3.031-4.2,1.245-.192-.925c1.053-.244,2.671-.706,4.25-1.13Zm7.012-3.056a10.331,10.331,0,0,1-2.517,2.671c.4.937.886,1.464,1.438,1.464.347,0,.488-.308.539-1.438a2.057,2.057,0,0,0,.707.5c-.167,1.438-.462,1.862-1.336,1.862-.911,0-1.592-.68-2.118-1.836a15.075,15.075,0,0,1-3.352,1.644,3.7,3.7,0,0,0-.591-.783,13.792,13.792,0,0,0,3.621-1.695,17.86,17.86,0,0,1-.629-2.825l-2.44.475-.166-.86,2.491-.462c-.065-.552-.115-1.13-.154-1.721l-1.9.3-.167-.86,2.016-.3c-.051-.9-.077-1.824-.09-2.787h.938c0,.925.013,1.8.051,2.645l3.069-.449.154.834-3.172.488c.051.591.1,1.143.167,1.682l3.2-.6.167.835-3.262.616a18.839,18.839,0,0,0,.526,2.427,9.245,9.245,0,0,0,2.016-2.2Zm-1.285-4.713a10.031,10.031,0,0,0-1.836-1.156l.54-.527a8.911,8.911,0,0,1,1.849,1.092Z" transform="translate(-716.553 -884.128)" fill="#fff"/>
        <path id="路径_248" data-name="路径 248" d="M907.9,923.3v.95h-11.39v-.95h4.777v-9.965H902.3v3.929h4.8v.963h-4.8V923.3Z" transform="translate(-746.759 -884.523)" fill="#fff"/>
        <path id="路径_249" data-name="路径 249" d="M952.966,918.145a8.72,8.72,0,0,1-2.491,3.878,10.615,10.615,0,0,0,4.032,1.592,3.346,3.346,0,0,0-.591.848,10.69,10.69,0,0,1-4.174-1.836,12.208,12.208,0,0,1-3.955,1.824,4.126,4.126,0,0,0-.5-.822,10.615,10.615,0,0,0,3.7-1.618,9.521,9.521,0,0,1-1.913-2.5,10.613,10.613,0,0,1-3.75,3.917,3.454,3.454,0,0,0-.706-.732,10.6,10.6,0,0,0,4.6-6.177h-1.785c-.809,0-1.245.077-1.361.218-.065-.205-.218-.68-.321-.9.18-.052.321-.231.462-.514a10.326,10.326,0,0,0,.86-2.273l1,.193a12.956,12.956,0,0,1-.925,2.35h2.312a20.275,20.275,0,0,0,.539-2.941l1.066.154c-.141.988-.308,1.913-.514,2.786h5.535l-.013.925h-5.778c-.141.462-.3.925-.449,1.361h4.3l.18-.051Zm-5.3.655a7.916,7.916,0,0,0,2.055,2.646,7.631,7.631,0,0,0,1.964-2.646Zm4.751-3.583a23.048,23.048,0,0,0-1.618-1.888l.732-.462c.552.565,1.3,1.361,1.656,1.824Z" transform="translate(-776.432 -884.082)" fill="#fff"/>
        <path id="路径_250" data-name="路径 250" d="M994.092,915.647a15.585,15.585,0,0,1-1.348,2.337h2.8v-1.721h.95v1.721h3.84v4.109c0,.514-.116.783-.514.925a6.879,6.879,0,0,1-2.17.154,3.3,3.3,0,0,0-.308-.86c.822.026,1.567.013,1.759.013.218-.013.283-.064.283-.244v-3.2h-2.89v5.624h-.95v-5.624H992.82v4.431h-.95V919.1a10.007,10.007,0,0,1-1.862,1.669,4.733,4.733,0,0,0-.565-.8,11.361,11.361,0,0,0,3.6-4.328h-3.223v-.925h3.634a14.83,14.83,0,0,0,.68-1.964l.989.231c-.18.578-.4,1.156-.617,1.733h6.536v.925Z" transform="translate(-806.567 -884.152)" fill="#fff"/>
        <path id="路径_251" data-name="路径 251" d="M1043.46,913.191c-.128.167-.257.347-.372.514a14.812,14.812,0,0,0,5.316,3.313,3.987,3.987,0,0,0-.667.848,16.74,16.74,0,0,1-5.2-3.518,14.5,14.5,0,0,1-2.889,2.4h5.932v.886h-6.1v-.783a16.66,16.66,0,0,1-2.119,1.143,4.138,4.138,0,0,0-.694-.809,13.668,13.668,0,0,0,5.881-4.392Zm-6.189,6.01h10.543v.925h-5.6a20.506,20.506,0,0,1-2.62,2.915l5.83-.437a18.862,18.862,0,0,0-1.49-1.541l.809-.437a16.673,16.673,0,0,1,2.915,3.352l-.847.526a10.736,10.736,0,0,0-.706-1.053c-6.78.552-7.5.6-7.974.783-.065-.205-.219-.706-.321-.989a2.26,2.26,0,0,0,.95-.668,16.752,16.752,0,0,0,2.157-2.453h-3.647Z" transform="translate(-836.958 -884.174)" fill="#fff"/>
      </g>
      <g id="组_5093" data-name="组 5093" transform="translate(560.385 742.585)">
        <g id="组_5087" data-name="组 5087" transform="translate(58.56)">
          <g id="组_5085" data-name="组 5085">
            <path id="路径_252" data-name="路径 252" d="M876.316,745.777v6.384l5.529,3.192,5.529-3.192v-6.384l-5.529-3.192Z" transform="translate(-876.316 -742.585)" fill="#e30c34"/>
            <path id="路径_253" data-name="路径 253" d="M885.189,748.564l-3.672,2.12v2.12l1.837-1.06v4.268l1.836,1.058h0v-6.387l1.836-1.06Z" transform="translate(-879.663 -746.433)" fill="#fff"/>
            <path id="路径_254" data-name="路径 254" d="M897,755.591v4.255l1.843-1.064v-4.256Z" transform="translate(-889.626 -750.27)" fill="#fff"/>
          </g>
          <g id="组_5086" data-name="组 5086" transform="translate(12.901 3.196)">
            <path id="路径_255" data-name="路径 255" d="M915.749,757.919h-1.31v-5.275h-1.93v-1.092h5.1v1.092h-1.86Z" transform="translate(-912.509 -751.552)" fill="#fff"/>
            <path id="路径_256" data-name="路径 256" d="M929.682,752.644h-1.223v-1.092h1.223Zm0,5.275h-1.223V753.2h1.223Z" transform="translate(-922.774 -751.552)" fill="#fff"/>
            <path id="路径_257" data-name="路径 257" d="M935.663,751.552h2.489a2.364,2.364,0,0,1,2.009.734,4.236,4.236,0,0,1,0,4.891,2.378,2.378,0,0,1-2.009.742h-2.489Zm2.489,5.275c.987,0,1.476-.69,1.476-2.087s-.489-2.1-1.476-2.1h-1.179v4.184Z" transform="translate(-927.41 -751.552)" fill="#fff"/>
            <path id="路径_258" data-name="路径 258" d="M956.528,757.919h-2.865v-6.367H956.5c1.677,0,2.079,1.092,2.079,1.677a1.474,1.474,0,0,1-.873,1.31,1.768,1.768,0,0,1,1.057,1.546C958.763,756.845,958.318,757.919,956.528,757.919Zm-1.555-3.834H956.4c.6,0,.926-.253.926-.716s-.323-.725-.926-.725h-1.424Zm0,2.742h1.563c.638,0,.969-.288.969-.821s-.332-.83-.969-.83h-1.563Z" transform="translate(-938.994 -751.552)" fill="#fff"/>
          </g>
        </g>
        <g id="组_5092" data-name="组 5092" transform="translate(0 0.011)">
          <g id="组_5088" data-name="组 5088" transform="translate(15.932 3.105)">
            <path id="路径_259" data-name="路径 259" d="M808.975,756.066h0l-.014.022a2.415,2.415,0,0,1-.828.79,2.214,2.214,0,0,1-1.133.328,2.263,2.263,0,0,1-1.715-.782,2.646,2.646,0,0,1-.686-1.87,2.6,2.6,0,0,1,.709-1.773,2.3,2.3,0,0,1,3.646.351l.014.021h.013l.564-.348a3.123,3.123,0,0,0-.931-.989,2.9,2.9,0,0,0-1.613-.488,2.83,2.83,0,0,0-2.154.917,3.238,3.238,0,0,0-.9,2.34,3.382,3.382,0,0,0,.9,2.347,2.813,2.813,0,0,0,2.132.967H807a2.95,2.95,0,0,0,2.541-1.484Z" transform="translate(-787.111 -751.328)" fill="#fff"/>
            <path id="路径_260" data-name="路径 260" d="M823.351,751.556h-.765l-2.845,6.368h.908l.879-2.117h0l.311-.661h0l1.145-2.688,1.122,2.688h-1.611l-.294.661h2.166l.887,2.117h.8Z" transform="translate(-797.279 -751.475)" fill="#fff"/>
            <path id="路径_261" data-name="路径 261" d="M842.559,752.154a2.283,2.283,0,0,0-1.58-.575h-2.061v6.36h.751v-2.491h0v-.669h0v-2.514h1.342a1.491,1.491,0,0,1,.979.34,1.092,1.092,0,0,1,.445.843,1.118,1.118,0,0,1-.4.97,1.412,1.412,0,0,1-.984.361h-.778v.669h.9a2.014,2.014,0,0,0,1.4-.534,1.751,1.751,0,0,0,.6-1.323A1.8,1.8,0,0,0,842.559,752.154Z" transform="translate(-809.621 -751.489)" fill="#fff"/>
            <rect id="矩形_170" data-name="矩形 170" width="0.751" height="0.751" transform="translate(4.977 0.207)" fill="#fff"/>
            <rect id="矩形_171" data-name="矩形 171" width="0.751" height="4.571" transform="translate(4.977 1.889)" fill="#fff"/>
            <path id="路径_262" data-name="路径 262" d="M793.615,760.136v-1.963a2.5,2.5,0,0,0-2.51-2.484,2.363,2.363,0,0,0-1.679.756,2.423,2.423,0,0,0-.681,1.72,2.471,2.471,0,0,0,.739,1.786,2.294,2.294,0,0,0,1.763.706,2.34,2.34,0,0,0,1.658-.744v.312m0,0a1.429,1.429,0,0,1-.489,1.079,1.638,1.638,0,0,1-1.146.467,1.68,1.68,0,0,1-1.021-.341,1.564,1.564,0,0,1-.541-.636l-.575.332a2.212,2.212,0,0,0,.6.726,2.466,2.466,0,0,0,1.462.515l.107,0a2.467,2.467,0,0,0,1.57-.558,1.843,1.843,0,0,0,.744-1.5v-.178m-.727-1.915a1.761,1.761,0,0,1-.507,1.22,1.551,1.551,0,0,1-1.177.505,1.647,1.647,0,0,1-1.218-.506,1.7,1.7,0,0,1-.523-1.228,1.73,1.73,0,0,1,.475-1.244,1.643,1.643,0,0,1,1.179-.57l.091,0a1.542,1.542,0,0,1,1.174.524A1.719,1.719,0,0,1,792.889,758.221Z" transform="translate(-777.332 -754.134)" fill="#fff"/>
            <path id="路径_263" data-name="路径 263" d="M760.366,752.154a2.283,2.283,0,0,0-1.58-.575h-2.061v6.36h.751v-2.491h0v-.669h0v-2.514h1.342a1.491,1.491,0,0,1,.979.34,1.091,1.091,0,0,1,.445.843,1.118,1.118,0,0,1-.4.97,1.412,1.412,0,0,1-.984.361h-.777v.669h.9a2.012,2.012,0,0,0,1.4-.534,1.748,1.748,0,0,0,.6-1.323A1.8,1.8,0,0,0,760.366,752.154Z" transform="translate(-756.725 -751.489)" fill="#fff"/>
            <path id="路径_264" data-name="路径 264" d="M777.266,755.843a2.029,2.029,0,0,0-1.5.615,2.1,2.1,0,0,0-.6,1.528v2.687h.724v-2.752a1.316,1.316,0,0,1,.407-.971,1.333,1.333,0,0,1,.971-.407,1.3,1.3,0,0,1,.955.407,1.321,1.321,0,0,1,.416.971v2.752h.724v-2.687a2.1,2.1,0,0,0-.6-1.528A2.02,2.02,0,0,0,777.266,755.843Z" transform="translate(-768.591 -754.234)" fill="#fff"/>
          </g>
          <g id="组_5091" data-name="组 5091">
            <rect id="矩形_172" data-name="矩形 172" width="12.746" height="12.746" rx="3.725" fill="#fff"/>
            <g id="组_5090" data-name="组 5090" transform="translate(1.062 1.062)">
              <rect id="矩形_173" data-name="矩形 173" width="10.621" height="10.621" fill="none"/>
              <g id="组_5089" data-name="组 5089" transform="translate(1.062)">
                <path id="路径_265" data-name="路径 265" d="M723.3,750.138l-4.668-1.313a.506.506,0,0,0-.442.081.491.491,0,0,0-.2.4v8.483a.491.491,0,0,0,.192.39.5.5,0,0,0,.311.107.515.515,0,0,0,.118-.014l4.668-1.1h0a.5.5,0,0,0,.387-.483v-6.074A.5.5,0,0,0,723.3,750.138Z" transform="translate(-717.987 -747.662)" fill="#172d72"/>
                <path id="路径_266" data-name="路径 266" d="M729.259,747.771a.5.5,0,0,0-.365-.477l-5.942-1.678a.505.505,0,0,0-.442.081.49.49,0,0,0-.2.4v6.437a.492.492,0,0,0,.192.39.507.507,0,0,0,.311.107.521.521,0,0,0,.119-.014l5.949-1.412a.5.5,0,0,0,.386-.484Z" transform="translate(-720.768 -745.597)" fill="#00aeef"/>
                <path id="路径_267" data-name="路径 267" d="M726.079,750.629l-3.77-1.06v5.519a.492.492,0,0,0,.192.39.506.506,0,0,0,.311.107.525.525,0,0,0,.119-.014l3.514-.834v-3.63A.5.5,0,0,0,726.079,750.629Z" transform="translate(-720.768 -748.153)" fill="#3d3fea"/>
              </g>
            </g>
          </g>
        </g>
      </g>
    </g>
  </g>
</svg>
