<svg xmlns="http://www.w3.org/2000/svg" xmlns:xlink="http://www.w3.org/1999/xlink" viewBox="0 0 1487.51 841.26"><defs><style>.cls-1{fill:none;}.cls-2{isolation:isolate;}.cls-3{fill:#fff;}.cls-4{opacity:0.25;}.cls-5{fill:#3db76a;}.cls-6{fill:#fa3237;}.cls-7{fill:#ffc63a;}.cls-8{fill:#64ffff;}.cls-9{clip-path:url(#clip-path);}</style><clipPath id="clip-path"><path class="cls-1" d="M322.06,275.82a41.77,41.77,0,1,1,.24-41.63l59.36-34.27a110.3,110.3,0,0,0-206,54.87h0a110.29,110.29,0,0,0,205.71,55.3Z"/></clipPath></defs><g id="图层_2" data-name="图层 2"><g id="图层_1-2" data-name="图层 1"><g id="PingCAP_DevCon_2021" data-name="PingCAP DevCon 2021" class="cls-2"><g class="cls-2"><path class="cls-3" d="M18,815.1H0V727.62H38.64c18.24,0,28.2,9.6,28.2,27.12,0,17.76-10.32,29.16-26.4,29.16H18Zm16.8-46.2c9.6,0,14-4.2,14-13.08s-4.44-13.2-14-13.2H18V768.9Z"/><path class="cls-3" d="M108.84,742.62H92v-15h16.8Zm0,72.48H92V750.3h16.8Z"/><path class="cls-3" d="M153.84,750.3v9.36c4.8-7.2,10.68-10.44,19.44-10.44,13.8,0,21.72,8.16,21.72,22.44V815.1H178.2v-40c0-7.68-3.6-11.64-10.8-11.64-8.16,0-13.56,5-13.56,12.72V815.1H137V750.3Z"/><path class="cls-3" d="M280.44,750.3v67c0,15.24-11.28,24-30.84,24-17.16,0-28.44-7.08-28.68-18.36h17.4c1.32,4.92,5.52,7.56,11.88,7.56,8.4,0,14.28-5.4,14.28-13.2V808.5c-6.24,7.08-10.8,9.36-18.36,9.36-16,0-26.52-13.44-26.52-33.6s11.52-35,26.88-35c7.44,0,13,3.36,18,11v-10ZM236.4,784c0,11.76,5.52,19.8,13.44,19.8,8.76,0,14.88-8,14.88-19.8,0-12-6.24-20.76-14.64-20.76C241.92,763.26,236.4,771.78,236.4,784Z"/><path class="cls-3" d="M345.72,741.54c-14.16,0-22.68,11.52-22.68,30.84,0,19.08,8.16,30.36,22.08,30.36,11.16,0,18.23-6.36,19.31-17.52H382c-1.08,20-15.6,32.64-37.31,32.64-24.36,0-39.6-17.64-39.6-45.72,0-28.32,15.36-46,40.08-46,20.39,0,34.91,11.4,36.47,31.08H364.43C363.47,752.82,360.71,741.54,345.72,741.54Z"/><path class="cls-3" d="M424.2,797.46l-5.88,17.64H400L431,727.62H451l30.23,87.48H462.71L457,797.46Zm16.44-49.2-11.4,34.2H452Z"/><path class="cls-3" d="M522,815.1H504V727.62h38.63c18.24,0,28.2,9.6,28.2,27.12,0,17.76-10.32,29.16-26.4,29.16H522Zm16.8-46.2c9.6,0,14-4.2,14-13.08s-4.44-13.2-14-13.2H522V768.9Z"/><path class="cls-3" d="M642.59,727.62h34.2c13.44,0,21.72,3,27.6,10.08,7,8.28,10.68,20.16,10.68,33.6s-3.72,25.44-10.68,33.6c-5.88,7.08-14.28,10.2-27.6,10.2h-34.2Zm34.2,72.48c13.56,0,20.28-9.48,20.28-28.68s-6.72-28.8-20.28-28.8h-16.2V800.1Z"/><path class="cls-3" d="M797,785.1a28.48,28.48,0,0,1-.12,2.88H753.47c.36,8.76,2.16,17,13.44,17,6.12,0,10.8-3,12.84-8.16h16.56c-3.72,12.72-15.48,21-30,21-18.36,0-29.64-12.72-29.64-33.48,0-21.72,11.4-35.16,30-35.16C779.63,749.22,797,756.42,797,785.1Zm-30.6-23c-7.44,0-11.64,4.92-12.72,14.76h25.8C778.79,767.34,774.23,762.06,766.43,762.06Z"/><path class="cls-3" d="M837.71,815.1,815,750.3h17.76l14,47.4,13.08-47.4h17.76l-22.32,64.8Z"/><path class="cls-3" d="M936.35,741.54c-14.16,0-22.68,11.52-22.68,30.84,0,19.08,8.16,30.36,22.08,30.36,11.16,0,18.24-6.36,19.32-17.52h17.52c-1.08,20-15.6,32.64-37.32,32.64-24.36,0-39.6-17.64-39.6-45.72,0-28.32,15.36-46,40.08-46,20.4,0,34.92,11.4,36.48,31.08H955.07C954.11,752.82,951.35,741.54,936.35,741.54Z"/><path class="cls-3" d="M1058.27,784c0,20.76-12.36,33.84-32,33.84-19.92,0-32-13-32-34.32s12.12-34.32,31.92-34.32C1046.39,749.22,1058.27,762.06,1058.27,784Zm-47.28-.48c0,12.36,6.12,20.76,15.24,20.76s15.24-8.4,15.24-20.52c0-12.72-6-21-15.24-21S1011,771.18,1011,783.54Z"/><path class="cls-3" d="M1099.67,750.3v9.36c4.8-7.2,10.68-10.44,19.44-10.44,13.8,0,21.72,8.16,21.72,22.44V815.1H1124v-40c0-7.68-3.6-11.64-10.8-11.64-8.16,0-13.56,5-13.56,12.72V815.1h-16.8V750.3Z"/><path class="cls-3" d="M1231.43,800.1h36v15h-57.84c.84-15.72,5.4-23.16,19.68-33.12,18.84-13.2,21.72-17,21.72-26.4,0-8.52-4.56-13.68-12-13.68-7.68,0-12.12,5.52-12.12,15v2.76h-16.08c-.12-1.32-.12-2.28-.12-3,0-18,10.32-28.44,28-28.44,17.88,0,29.16,10.56,29.16,27C1267.79,780.66,1238.63,784.86,1231.43,800.1Z"/><path class="cls-3" d="M1288.19,773.1c0-26.88,6.6-44.88,29.28-44.88,22.92,0,29.28,18.36,29.28,45.36,0,23.88-5.64,44.28-29.28,44.28C1294.07,817.86,1288.19,797.82,1288.19,773.1Zm29.28-31.32c-8.64,0-12.48,7.08-12.48,31.2,0,25.32,4.68,30.48,12.48,30.48,7.56,0,12.48-4.92,12.48-30.24C1330,748.86,1325.15,741.78,1317.47,741.78Z"/><path class="cls-3" d="M1388.87,800.1h36v15H1367c.84-15.72,5.4-23.16,19.68-33.12,18.84-13.2,21.72-17,21.72-26.4,0-8.52-4.56-13.68-12-13.68-7.68,0-12.12,5.52-12.12,15v2.76h-16.08c-.12-1.32-.12-2.28-.12-3,0-18,10.32-28.44,28-28.44,17.88,0,29.16,10.56,29.16,27C1425.23,780.66,1396.07,784.86,1388.87,800.1Z"/><path class="cls-3" d="M1450.31,756.42V745.26c14.64,0,23.4-5.16,26-15.24h11.16V815.1h-16.8V756.42Z"/></g></g><g id="组_36" data-name="组 36" class="cls-4"><path id="路径_36" data-name="路径 36" class="cls-3" d="M950,665.1h-.22c-73.31-.13-142.6-23.52-200.42-67.63-57.82,43.78-127.12,66.92-200.46,66.92h-.23A330,330,0,0,1,314,566.66C184.65,436.89,185,226.11,314.79,96.8A330,330,0,0,1,549.29,0h.61c73.35.14,142.63,23.49,200.41,67.54C808.07,23.81,877.22.69,950.36.69c89,0,172.63,34.68,235.38,97.64,129.31,129.79,128.94,340.58-.83,469.88C1122.22,630.69,1038.8,665.1,950,665.1ZM749.39,594.69l.67.51c57.57,44.16,126.64,67.56,199.76,67.69H950c88.18,0,171-34.18,233.32-96.25,128.91-128.43,129.28-337.82.83-466.75-62.34-62.55-145.37-97-233.82-97C877.42,2.9,808.48,26,751,69.81l-.67.51-.67-.51C692.11,25.72,623,2.34,549.89,2.21h-.61A327.79,327.79,0,0,0,316.34,98.37c-128.9,128.44-129.27,337.82-.82,466.74a327.91,327.91,0,0,0,233.2,97.07h.22c73.13,0,142.22-23.16,199.79-67Z"/><path id="路径_37" data-name="路径 37" class="cls-3" d="M950.15,636.42h-.29c-67.25-.13-130.77-21.64-183.68-62.22l-16.72-12.83-16.77,12.76c-52.88,40.25-116.38,61.54-183.63,61.57h-.3a301.55,301.55,0,0,1-214.48-89.28C216.13,427.85,216.47,235.27,335,117.13A301.48,301.48,0,0,1,549.29,28.69h.52c67.31.12,130.85,21.61,183.72,62.13l16.73,12.82L767,90.88c52.85-40.24,116.26-61.5,183.35-61.5a301.52,301.52,0,0,1,215.06,89.2c118.14,118.59,117.8,311.17-.76,429.31C1107.42,604.94,1031.24,636.38,950.15,636.42ZM749.46,558.59l18.06,13.85c52.53,40.29,115.59,61.65,182.35,61.77h.29c80.49,0,156.12-31.25,212.95-87.89,117.7-117.27,118-308.46.75-426.19a299.41,299.41,0,0,0-213.5-88.55c-66.6,0-129.54,21.11-182,61.05l-18.1,13.78L732.19,92.58C679.7,52.34,616.63,31,549.8,30.89h-.52a299.37,299.37,0,0,0-212.69,87.8c-117.7,117.28-118,308.46-.75,426.17a299.39,299.39,0,0,0,212.93,88.63h.3c66.75,0,129.79-21.16,182.28-61.12Z"/><path id="路径_38" data-name="路径 38" class="cls-3" d="M950.23,607.73h-.17c-61-.11-118.55-19.58-166.42-56.3l-34.12-26.16-34.21,26C667.49,587.71,610,607,549.15,607H549A273.23,273.23,0,0,1,354.6,526.17c-107-107.37-106.68-281.75.68-388.73a273.06,273.06,0,0,1,194-80.07h.41c61,.11,118.54,19.55,166.38,56.22l34.12,26.15,34.2-26c47.82-36.4,105.21-55.64,166-55.64a273.1,273.1,0,0,1,194.74,80.76c107,107.39,106.67,281.78-.69,388.75A273.56,273.56,0,0,1,950.23,607.73Zm-200.7-85.24L785,549.68c47.49,36.42,104.58,55.73,165.08,55.84h.18A271.37,271.37,0,0,0,1142.86,526c106.5-106.11,106.8-279.1.68-385.62A270.88,270.88,0,0,0,950.36,60.27c-60.27,0-117.2,19.09-164.63,55.19l-35.54,27.06-35.45-27.18C667.28,79,610.21,59.69,549.69,59.58h-.41A270.82,270.82,0,0,0,356.84,139c-106.5,106.11-106.8,279.1-.68,385.6A271.07,271.07,0,0,0,549,604.81h.19c60.39,0,117.38-19.16,164.82-55.27Z"/><path id="路径_39" data-name="路径 39" class="cls-3" d="M950.39,579.05h-.29c-54.64-.1-106.17-17.53-149-50.38l-51.5-39.5-51.66,39.31c-42.75,32.54-94.16,49.78-148.67,49.86H549a244.75,244.75,0,0,1-174.09-72.42c-95.81-96.16-95.54-252.34.61-348.15A244.56,244.56,0,0,1,549.28,86.06h.28c54.71.1,106.26,17.5,149.07,50.3l51.5,39.47,51.64-39.3c42.78-32.57,94.16-49.78,148.6-49.78a244.55,244.55,0,0,1,174.42,72.33c95.82,96.17,95.54,252.36-.61,348.17A245.15,245.15,0,0,1,950.39,579.05Zm-200.8-92.66,52.84,40.53c42.46,32.56,93.52,49.82,147.68,49.92h.28a242.93,242.93,0,0,0,172.23-71.16c95.3-94.95,95.57-249.74.61-345A242.38,242.38,0,0,0,950.37,89c-54,0-104.87,17.06-147.26,49.33l-53,40.33-52.83-40.5c-42.42-32.51-93.51-49.75-147.74-49.85h-.28a242.34,242.34,0,0,0-172.2,71.07c-95.29,94.95-95.56,249.73-.61,345A242.57,242.57,0,0,0,549,576.13h.26c54-.08,105-17.16,147.33-49.41Z"/><path id="路径_40" data-name="路径 40" class="cls-3" d="M950,550.35a216.08,216.08,0,0,1-153.68-64l-45.49-45.63L596.14,285.47A66.12,66.12,0,1,0,596,379l30.63-30.28,106.88,107.2-30.76,30.41a217.51,217.51,0,0,1-307.48-.65c-84.65-85-84.41-222.94.54-307.59a216.05,216.05,0,0,1,153.51-63.34h.4a216,216,0,0,1,153.69,63.89l200.24,201a66.13,66.13,0,1,0,.11-93.57l-30.2,29.9-107-107.1L797,178.71c84.9-84.61,222.85-84.33,307.51.61s84.41,223-.54,307.6A216.51,216.51,0,0,1,950,550.35ZM549.3,263.82a68,68,0,0,1,48.4,20.1L752.41,439.2l45.49,45.63a215.31,215.31,0,0,0,304.47.54c84.09-83.79,84.33-220.38.54-304.48s-220.35-84.36-304.39-.61h0l-28.84,28.55,103.86,104,28.64-28.36a68.32,68.32,0,1,1-.19,96.62l-.07-.07L701.82,180.19A213.88,213.88,0,0,0,549.68,117h-.39a213.87,213.87,0,0,0-152,62.7C313.24,263.45,313,400,396.8,484.12a215.29,215.29,0,0,0,304.36.65l29.19-28.86L626.59,351.82l-29.07,28.73A68.33,68.33,0,1,1,549.3,263.82Z"/><path id="路径_41" data-name="路径 41" class="cls-3" d="M950.12,521.67h-.07a187.52,187.52,0,0,1-133.39-55.54L771.17,420.5,616.46,265.23a94.78,94.78,0,1,0-9.08,141.88l20.8-16.19,66.2,66.4-25.3,20.82a188.89,188.89,0,0,1-253.53-12.71c-73.48-73.75-73.27-193.54.47-267a187.57,187.57,0,0,1,133.27-55h.4a187.42,187.42,0,0,1,133.37,55.45L883.24,399.77a94.76,94.76,0,1,0,9.39-142.1l-20.75,16-.69-.69L805.6,207.34l25.49-20.83a189.05,189.05,0,0,1,253.06,13.07c73.49,73.76,73.27,193.54-.47,267A188,188,0,0,1,950.12,521.67Zm-.06-2.2h.06a185.91,185.91,0,0,0,132-54.43c72.89-72.62,73.1-191,.47-263.91a186.88,186.88,0,0,0-250.1-12.92l-23.6,19.29,63.18,63.25,19.21-14.83a97.17,97.17,0,0,1,127.85,8.46,97,97,0,0,1-137.45,137L681.5,200.44a185.26,185.26,0,0,0-131.82-54.8h-.39A185.32,185.32,0,0,0,417.58,200c-72.89,72.63-73.09,191-.47,263.9a186.67,186.67,0,0,0,250.56,12.58l23.43-19.28L628,393.85l-19.26,15A97,97,0,1,1,618,263.67l154.7,155.27,45.49,45.63a185.43,185.43,0,0,0,131.85,54.9Z"/><path id="路径_42" data-name="路径 42" class="cls-3" d="M950.11,493h0A159.14,159.14,0,0,1,837,445.89l-45.49-45.64L636.79,245A123.48,123.48,0,1,0,625,429.74l.77-.6,26,26.08-.94.77c-28.84,23.74-64.08,36.28-101.92,36.28a159,159,0,0,1-113-47.1c-62.32-62.54-62.14-164.13.4-226.45a159.07,159.07,0,0,1,113-46.61h.4a158.9,158.9,0,0,1,113,47L862.92,420A123.45,123.45,0,1,0,875.11,235l-.77.6-26-26.07.94-.77a160.38,160.38,0,0,1,214.59,11.11c62.32,62.55,62.15,164.14-.4,226.46A159.58,159.58,0,0,1,950.11,493ZM549.4,206.45a125,125,0,0,1,89,37l154.7,155.26,45.49,45.64a157.93,157.93,0,0,0,223.34.39c61.68-61.45,61.86-161.64.4-223.34a158.18,158.18,0,0,0-210.69-11.72l22.94,23a125.86,125.86,0,0,1,164.93,11.51,125.71,125.71,0,0,1-178.1,177.45L661.17,220.68a156.72,156.72,0,0,0-111.49-46.36h-.39a156.82,156.82,0,0,0-111.46,46c-61.68,61.47-61.86,161.65-.39,223.34a156.75,156.75,0,0,0,111.48,46.45c36.91,0,71.32-12.1,99.58-35l-22.91-23A125.71,125.71,0,1,1,549.4,206.45Z"/></g><g id="组_38" data-name="组 38"><g id="组_37" data-name="组 37"><circle id="椭圆_10" data-name="椭圆 10" class="cls-5" cx="1213.55" cy="254.79" r="32.02"/><path id="路径_43" data-name="路径 43" class="cls-6" d="M1213.55,144.52a110.28,110.28,0,1,0,110.28,110.27A110.27,110.27,0,0,0,1213.55,144.52Zm0,173.8A63.52,63.52,0,0,1,1150,254.8h0a63.52,63.52,0,0,1,63.52-63.52h0a63.53,63.53,0,0,1,63.53,63.52h0a63.53,63.53,0,0,1-63.52,63.53Z"/><circle id="椭圆_11" data-name="椭圆 11" class="cls-3" cx="1247.27" cy="221.34" r="11.32"/><path id="路径_44" data-name="路径 44" class="cls-7" d="M1213.26,254.79h-31.72a32,32,0,0,0,31.72,32Z"/><path id="路径_45" data-name="路径 45" class="cls-7" d="M1103.28,254.5H1150a63.52,63.52,0,0,1,63.52-63.23h0V144.52h0A110.27,110.27,0,0,0,1103.28,254.5Z"/></g><path id="路径_46" data-name="路径 46" class="cls-3" d="M1213.56,394c-76.92,0-139.5-62.58-139.5-139.5S1136.64,115,1213.56,115s139.5,62.58,139.5,139.5S1290.48,394,1213.56,394Zm0-275.69c-75.1,0-136.19,61.1-136.19,136.19s61.09,136.19,136.19,136.19,136.2-61.1,136.2-136.19S1288.66,118.31,1213.56,118.31Z"/></g><g id="组_41" data-name="组 41"><g id="组_40" data-name="组 40"><g id="组_39" data-name="组 39"><path id="路径_47" data-name="路径 47" class="cls-7" d="M621.3,254.5a55.13,55.13,0,0,1,110.26,0H786.7a110.27,110.27,0,0,0-220.54,0Z"/></g><path id="路径_48" data-name="路径 48" class="cls-5" d="M731.58,254.5a55.13,55.13,0,0,0,110.26,0H897a110.27,110.27,0,0,1-220.54,0Z"/><path id="路径_49" data-name="路径 49" class="cls-6" d="M676.43,199.65h.17V144.51h-.17a110.28,110.28,0,0,0-110.27,110H621.3A55.14,55.14,0,0,1,676.43,199.65Z"/><path id="路径_50" data-name="路径 50" class="cls-8" d="M732,254.66v-.16H676.88v.16a110.28,110.28,0,0,0,110,110.27V309.79A55.14,55.14,0,0,1,732,254.66Z"/></g><path id="路径_51" data-name="路径 51" class="cls-3" d="M760.67,254.5h-3.31a81.05,81.05,0,0,0-162.1,0H592a84.36,84.36,0,0,1,168.72,0Z"/><path id="路径_52" data-name="路径 52" class="cls-3" d="M786.59,394c-76.92,0-139.5-62.58-139.5-139.5h3.3c0,75.1,61.1,136.19,136.19,136.19s136.2-61.1,136.2-136.19h3.3C926.08,331.42,863.51,394,786.59,394Z"/></g><g id="组_46" data-name="组 46"><g id="组_45" data-name="组 45"><path id="路径_53" data-name="路径 53" class="cls-5" d="M322.06,275.82a41.77,41.77,0,1,1,.24-41.63l59.36-34.27a110.3,110.3,0,0,0-206,54.87h0a110.29,110.29,0,0,0,205.71,55.3Z"/><g id="组_44" data-name="组 44"><g class="cls-9"><g id="组_43" data-name="组 43"><g id="组_42" data-name="组 42"><path id="路径_54" data-name="路径 54" class="cls-7" d="M175.86,254.5H286.14V144.22A110.29,110.29,0,0,0,175.86,254.5Z"/><path id="路径_55" data-name="路径 55" class="cls-8" d="M396.42,254.5H286.14V364.78A110.29,110.29,0,0,0,396.42,254.5Z"/></g></g></g></g></g><path id="路径_57" data-name="路径 57" class="cls-3" d="M286.14,394c-76.92,0-139.5-62.58-139.5-139.5S209.22,115,286.14,115a140,140,0,0,1,121.05,70.12l-2.87,1.65a136.63,136.63,0,0,0-118.18-68.46C211,118.31,150,179.41,150,254.5S211,390.69,286.14,390.69A136.82,136.82,0,0,0,403.76,323.2l2.86,1.67A140.13,140.13,0,0,1,286.14,394Z"/></g><g id="组_53" data-name="组 53"><g id="组_48" data-name="组 48"><path id="路径_58" data-name="路径 58" class="cls-3" d="M274,503H249.49v46.65h-8.38V503h-31c-1.55,17.2-7.17,34.3-27.35,47a37.45,37.45,0,0,0-6.51-6.07c18.31-11.25,23.93-26,25.48-40.91H175.93V495h26.14c.11-1.66.11-3.09.11-4.75V463.83H180V456h90.54v7.83H249.49V495H274ZM241.11,495V463.83H210.45V495Z"/><path id="路径_59" data-name="路径 59" class="cls-3" d="M340,488.86s0,2.64-.11,3.75c-.77,36.06-1.54,48.19-4.3,52a8.48,8.48,0,0,1-6.5,3.53,68.38,68.38,0,0,1-11.8,0,22.23,22.23,0,0,0-2.21-7.61c4.52.44,8.6.55,10.37.55a3.32,3.32,0,0,0,3.2-1.54c1.87-2.43,2.64-13,3.3-43.23H317.08v.77c0,18.09-2.2,36.72-16.76,52.27a31.2,31.2,0,0,0-6.06-5.29c13.34-14.23,15-31.54,15-47.09V474.19h-13v-7.61h48.63v7.61H317.08v14.67ZM319.73,465.7a102.5,102.5,0,0,0-5.62-15l7.05-2.1a94.72,94.72,0,0,1,6,14.67Zm68.93,11.14c-2.76,17.75-7.28,32.2-14.12,44.11,6,9.38,13.46,16.76,23.16,21.29a33,33,0,0,0-5.74,7,59.22,59.22,0,0,1-22.39-20.95c-6.61,8.71-15.21,15.77-26.13,21.4a34.73,34.73,0,0,0-4.75-7.17,63.56,63.56,0,0,0,26.47-21.84c-4.52-8.93-7.94-19.3-10.7-30.66a85.18,85.18,0,0,1-7.94,13.68,57.48,57.48,0,0,0-6.4-6.18c8.94-11.58,15-30,18.42-48.85l8.27,1.32c-1.32,6.51-2.75,13-4.52,19.19H396.7v7.61Zm-28.79,0a4.6,4.6,0,0,0-.44,1.1c2.32,12.9,5.63,24.7,10.48,34.74,5.18-9.93,8.49-21.73,10.59-35.84Z"/></g><g id="组_49" data-name="组 49"><path id="路径_60" data-name="路径 60" class="cls-3" d="M657.28,528.78c2.2,1.43,4.52,3.53,8.38,6,7.28,4.63,16.87,5.51,29.78,5.51a384.52,384.52,0,0,0,41.13-2.31c-.88,2.31-2.31,6.61-2.42,9.15-7.83.44-28,1.21-38.93,1.21-14.45,0-23.6-1.32-31.65-6.17-4.53-3.09-8.28-7-10.7-7-3.42,0-8.39,7-13.35,14.56l-6.06-7.83c5.62-6.73,11.14-11.91,15.88-13.9V493.5H635v-7.61h22.27Zm-2.76-54.59c-3-5.4-9.7-14-15.33-20.18l6.29-4c5.62,6,12.57,14.12,15.77,19.52Zm43.78,43H664.78v-7.83h33.53V494.48h-17c-5.29,0-9,.56-9.93,1.55-.44-1.77-1.87-5.63-2.75-7.83,2-.44,3.75-3.31,6-7.28a139.21,139.21,0,0,0,6.4-13.46H665.66v-7.27h18.09a106.31,106.31,0,0,0,3.75-11.36l8.49,2.31c-1,3-2.09,6.07-3.31,9.05h38.38v7.28H689.71a176.05,176.05,0,0,1-9.49,19.3h18.09V473.42h8.27v13.35H728l-.11,7.72H706.58v14.88H733v7.83H706.58v20.07h-8.27Z"/><path id="路径_61" data-name="路径 61" class="cls-3" d="M776.6,508.49V539.7c0,4.41-1.1,6.62-3.64,7.94s-6.62,1.65-13,1.54a26.86,26.86,0,0,0-2.31-7.72,89.62,89.62,0,0,0,9.48.11c1.33,0,1.88-.44,1.88-1.87V510.92l-12.35,4-2.1-7.83c4-1.1,9-2.65,14.44-4.3V478.5H756v-7.61h13V448.83h7.61v22.05h11v7.61h-11v21.95l9.7-3.09,1.21,7.5Zm66.94,3.64c-2.32,8.27-5.74,14.89-10.92,20.07,8.27,3.64,15.88,7.5,21.29,11.25l-5.4,6.29c-5.4-3.86-13.46-8.17-22.28-12.25-8.71,5.85-20.4,9.49-36.17,11.8a25.39,25.39,0,0,0-3.53-7.06c13.56-1.43,23.71-4.08,31.32-8.27a234.18,234.18,0,0,0-22.5-8.16c2.86-3.75,6.17-8.6,9.37-13.67H788.18v-7.06H808.8a102.08,102.08,0,0,0,5.73-11.58l7.61,1.54c-1.43,3.2-3.2,6.62-5.07,10h39.7v7.06Zm12-19.08H789.61v-7.17h36.83a122.11,122.11,0,0,0,9.27-17.09l7.72,2.1c-3,5.07-6.07,10.7-9,15h21.18Zm-2.76-25.59H793.47V460.3h25.14a84,84,0,0,0-5.07-9.38l7.61-1.32a80.5,80.5,0,0,1,6.07,10.7H852.8Zm-43.45,18.09a70.46,70.46,0,0,0-7.94-14.34l6.18-2.53a65.69,65.69,0,0,1,8.27,13.9Zm3.75,26.58a108.64,108.64,0,0,1-6.62,10.26c6,1.87,12.24,4.08,18.42,6.61a36.13,36.13,0,0,0,10.26-16.87Z"/></g><g id="组_50" data-name="组 50"><path id="路径_62" data-name="路径 62" class="cls-3" d="M1150.09,488.09c-3,8.49-6.29,18.08-9.27,23.93l-6.17-1.55c1.87-4.08,4.08-10.14,6.06-16.1H1129v43.12c0,4.42-.88,6.73-4,7.94-3.2,1.44-8,1.55-15.66,1.55a29.52,29.52,0,0,0-2.53-7.83c5.62.11,10.7.11,12.13,0,1.65,0,2.1-.44,2.1-1.77v-43H1103V487h26.8c-6.07-4.63-14.56-10.7-21.29-15.11l4.52-5.18c3,1.88,6.4,4.08,9.82,6.51A88.76,88.76,0,0,0,1135,459.08h-29.55V451.8h34.84l1.44-.44,5,3.42A104.77,104.77,0,0,1,1128.59,477c3.86,2.75,7.5,5.18,9.92,7.28l-2.1,2.75h7.39l1.21-.33Zm29.88,18.2c0,13.78-3.53,30.21-31.1,40.36a28.05,28.05,0,0,0-5.07-6c25.81-8.6,28.45-23.38,28.45-34.51V484.33H1180Zm23.93-54.92v7.27H1182c-1.32,3.86-2.65,7.83-4,11.14h21.5v51.84h-7.94V477.28h-30.33v44.45h-7.61v-52h16.55c1-3.42,2-7.5,2.76-11.14h-23.27v-7.28Zm-20.29,72.45c6.84,5.19,15.88,12.79,20.29,17.54l-5.62,5.62c-4.19-4.85-13.12-12.68-20.07-18.2Z"/><path id="路径_63" data-name="路径 63" class="cls-3" d="M1278.23,471c-1.21,41.58-4.08,65.4-48.2,76.21a26.69,26.69,0,0,0-4.63-7.06c41.8-9.48,43.34-30.44,44.34-69.15Zm31.54-18.41v62.53h-8.6V460.74h-53.05v54.37h-8.38V452.58Zm-24.93,53.15V533c0,3.31,1.1,3.86,6.51,3.86h18.31c5.29,0,6.06-2.1,6.61-16.87a24.34,24.34,0,0,0,7.5,3.31c-1,17.09-3.52,21.17-13.45,21.17h-19.63c-10.59,0-13.9-2.31-13.9-11.36V505.73Z"/></g><g id="组_51" data-name="组 51"><rect id="矩形_24" data-name="矩形 24" class="cls-3" x="513.76" y="470.94" width="4.41" height="56.68" transform="translate(-201.92 511.08) rotate(-45)"/><rect id="矩形_25" data-name="矩形 25" class="cls-3" x="487.62" y="497.08" width="56.68" height="4.41" transform="translate(-201.92 511.08) rotate(-45)"/></g><g id="组_52" data-name="组 52"><rect id="矩形_26" data-name="矩形 26" class="cls-3" x="977.04" y="470.94" width="4.41" height="56.68" transform="translate(-66.23 838.67) rotate(-45)"/><rect id="矩形_27" data-name="矩形 27" class="cls-3" x="950.9" y="497.08" width="56.68" height="4.41" transform="translate(-66.23 838.67) rotate(-45)"/></g></g></g></g></svg>