<?xml version="1.0" encoding="utf-8"?>
<!-- Generator: Adobe Illustrator 25.1.0, SVG Export Plug-In . SVG Version: 6.00 Build 0)  -->
<svg version="1.1" xmlns="http://www.w3.org/2000/svg" xmlns:xlink="http://www.w3.org/1999/xlink" x="0px" y="0px"
	 viewBox="0 0 1480.4 867.9" style="enable-background:new 0 0 1480.4 867.9;" xml:space="preserve">
<style type="text/css">
	.st0{display:none;}
	.st1{display:inline;fill:#051853;}
	.st2{enable-background:new    ;}
	.st3{fill:#FFFFFF;}
	.st4{opacity:0.2;}
	.st5{fill:#3DB76A;}
	.st6{fill:#FA3237;}
	.st7{fill:#FFC63A;}
	.st8{fill:#64FFFF;}
	.st9{clip-path:url(#SVGID_2_);}
</style>
<g id="图层_2" class="st0">
	<rect class="st1" width="1480.4" height="867.9"/>
</g>
<g id="图层_1">
	<g>
		<g class="st2">
			<path class="st3" d="M52.5,842.5H35.5v-82.9h36.6c17.3,0,26.7,9.1,26.7,25.7c0,16.8-9.8,27.6-25,27.6H52.5V842.5z M68.5,798.7
				c9.1,0,13.3-4,13.3-12.4c0-8.5-4.2-12.5-13.3-12.5H52.5v24.9H68.5z"/>
			<path class="st3" d="M138.6,773.8h-15.9v-14.2h15.9V773.8z M138.6,842.5h-15.9v-61.4h15.9V842.5z"/>
			<path class="st3" d="M181.3,781.1v8.9c4.5-6.8,10.1-9.9,18.4-9.9c13.1,0,20.6,7.7,20.6,21.3v41.2h-15.9v-37.9
				c0-7.3-3.4-11-10.2-11c-7.7,0-12.8,4.8-12.8,12.1v36.8h-15.9v-61.4H181.3z"/>
			<path class="st3" d="M301.2,781.1v63.4c0,14.4-10.7,22.7-29.2,22.7c-16.3,0-26.9-6.7-27.2-17.4h16.5c1.3,4.7,5.2,7.2,11.3,7.2
				c8,0,13.5-5.1,13.5-12.5v-8.3c-5.9,6.7-10.2,8.9-17.4,8.9c-15.1,0-25.1-12.7-25.1-31.8c0-19,10.9-33.2,25.5-33.2
				c7,0,12.3,3.2,17.1,10.5v-9.4H301.2z M259.5,813c0,11.1,5.2,18.8,12.7,18.8c8.3,0,14.1-7.6,14.1-18.8c0-11.4-5.9-19.7-13.9-19.7
				C264.7,793.4,259.5,801.4,259.5,813z"/>
			<path class="st3" d="M363.1,772.8c-13.4,0-21.5,10.9-21.5,29.2c0,18.1,7.7,28.8,20.9,28.8c10.6,0,17.3-6,18.3-16.6h16.6
				c-1,19-14.8,30.9-35.4,30.9c-23.1,0-37.5-16.7-37.5-43.3c0-26.8,14.6-43.5,38-43.5c19.3,0,33.1,10.8,34.6,29.4h-16.3
				C379.9,783.5,377.3,772.8,363.1,772.8z"/>
			<path class="st3" d="M437.4,825.8l-5.6,16.7h-17.4l29.4-82.9h18.9l28.7,82.9h-17.5l-5.5-16.7H437.4z M453,779.2l-10.8,32.4h21.6
				L453,779.2z"/>
			<path class="st3" d="M530.1,842.5H513v-82.9h36.6c17.3,0,26.7,9.1,26.7,25.7c0,16.8-9.8,27.6-25,27.6h-21.3V842.5z M546,798.7
				c9.1,0,13.3-4,13.3-12.4c0-8.5-4.2-12.5-13.3-12.5h-15.9v24.9H546z"/>
			<path class="st3" d="M644.4,759.6h32.4c12.7,0,20.6,2.8,26.2,9.6c6.6,7.8,10.1,19.1,10.1,31.8c0,12.8-3.5,24.1-10.1,31.8
				c-5.6,6.7-13.5,9.7-26.2,9.7h-32.4V759.6z M676.8,828.3c12.8,0,19.2-9,19.2-27.2c0-18.3-6.4-27.3-19.2-27.3h-15.3v54.5H676.8z"/>
			<path class="st3" d="M790.7,814.1c0,0.8,0,1.4-0.1,2.7h-41.2c0.3,8.3,2,16.1,12.7,16.1c5.8,0,10.2-2.8,12.2-7.7H790
				c-3.5,12.1-14.7,19.9-28.4,19.9c-17.4,0-28.1-12.1-28.1-31.7c0-20.6,10.8-33.3,28.4-33.3C774.2,780.1,790.7,786.9,790.7,814.1z
				 M761.7,792.2c-7,0-11,4.7-12.1,14h24.4C773.4,797.2,769.1,792.2,761.7,792.2z"/>
			<path class="st3" d="M829.2,842.5l-21.5-61.4h16.8l13.3,44.9l12.4-44.9h16.8L846,842.5H829.2z"/>
			<path class="st3" d="M922.7,772.8c-13.4,0-21.5,10.9-21.5,29.2c0,18.1,7.7,28.8,20.9,28.8c10.6,0,17.3-6,18.3-16.6H957
				c-1,19-14.8,30.9-35.4,30.9c-23.1,0-37.5-16.7-37.5-43.3c0-26.8,14.6-43.5,38-43.5c19.3,0,33.1,10.8,34.6,29.4h-16.3
				C939.5,783.5,936.9,772.8,922.7,772.8z"/>
			<path class="st3" d="M1038.2,813c0,19.7-11.7,32.1-30.4,32.1c-18.9,0-30.4-12.3-30.4-32.5c0-20.1,11.5-32.5,30.2-32.5
				C1027,780.1,1038.2,792.2,1038.2,813z M993.4,812.6c0,11.7,5.8,19.7,14.4,19.7c8.5,0,14.4-8,14.4-19.4c0-12.1-5.7-19.9-14.4-19.9
				C999.2,792.9,993.4,800.9,993.4,812.6z"/>
			<path class="st3" d="M1077.4,781.1v8.9c4.5-6.8,10.1-9.9,18.4-9.9c13.1,0,20.6,7.7,20.6,21.3v41.2h-15.9v-37.9
				c0-7.3-3.4-11-10.2-11c-7.7,0-12.8,4.8-12.8,12.1v36.8h-15.9v-61.4H1077.4z"/>
			<path class="st3" d="M1202.3,828.3h34.1v14.2h-54.8c0.8-14.9,5.1-21.9,18.6-31.4c17.9-12.5,20.6-16.1,20.6-25
				c0-8.1-4.3-13-11.4-13c-7.3,0-11.5,5.2-11.5,14.2v2.6h-15.2c-0.1-1.3-0.1-2.2-0.1-2.8c0-17.1,9.8-26.9,26.5-26.9
				c16.9,0,27.6,10,27.6,25.6C1236.7,809.9,1209.1,813.8,1202.3,828.3z"/>
			<path class="st3" d="M1256.1,802.7c0-25.5,6.3-42.5,27.7-42.5c21.7,0,27.7,17.4,27.7,43c0,22.6-5.3,42-27.7,42
				C1261.6,845.1,1256.1,826.1,1256.1,802.7z M1283.8,773c-8.2,0-11.8,6.7-11.8,29.6c0,24,4.4,28.9,11.8,28.9
				c7.2,0,11.8-4.7,11.8-28.7C1295.6,779.7,1291.1,773,1283.8,773z"/>
			<path class="st3" d="M1351.5,828.3h34.1v14.2h-54.8c0.8-14.9,5.1-21.9,18.6-31.4c17.9-12.5,20.6-16.1,20.6-25
				c0-8.1-4.3-13-11.4-13c-7.3,0-11.5,5.2-11.5,14.2v2.6h-15.2c-0.1-1.3-0.1-2.2-0.1-2.8c0-17.1,9.8-26.9,26.5-26.9
				c16.9,0,27.6,10,27.6,25.6C1385.9,809.9,1358.3,813.8,1351.5,828.3z"/>
			<path class="st3" d="M1409.7,786.9v-10.6c13.9,0,22.2-4.9,24.7-14.4h10.6v80.6H1429v-55.6H1409.7z"/>
		</g>
		<g id="组_36" transform="translate(786.607 147.601)" class="st4">
			<path id="路径_36" class="st3" d="M199.2,668.6H199c-90-0.2-175-28.9-245.9-83c-71,53.7-156,82.1-246,82.1h-0.3
				c-108.9-0.2-211.2-42.8-288.1-119.9c-158.7-159.2-158.2-417.9,1-576.6c76.9-76.6,179.1-118.8,287.8-118.8h0.8
				c90,0.2,175,28.8,245.9,82.9c70.9-53.7,155.7-82,245.5-82c109.3,0,211.8,42.5,288.8,119.8c158.7,159.3,158.2,417.9-1,576.6
				C410.5,626.3,308.2,668.6,199.2,668.6z M-47,582.2l0.8,0.6C24.5,637,109.3,665.7,199,665.8h0.3c108.2,0,209.9-41.9,286.3-118.1
				c158.2-157.6,158.6-414.6,1-572.8c-76.5-76.7-178.4-119-286.9-119C110.2-144,25.6-115.6-45-61.9l-0.8,0.6l-0.8-0.6
				c-70.6-54.1-155.3-82.8-245.1-83h-0.7c-108,0-209.5,41.9-285.8,118c-158.2,157.6-158.6,414.6-1,572.7
				c76.4,76.6,178,118.9,286.2,119.1h0.3c89.7,0,174.5-28.4,245.2-82.2L-47,582.2z"/>
			<path id="路径_37" class="st3" d="M199.4,633.4H199c-82.5-0.2-160.5-26.6-225.4-76.4l-20.5-15.7l-20.6,15.7
				c-64.9,49.4-142.8,75.5-225.3,75.6h-0.4c-98.8,0.1-193.6-39.4-263.2-109.6c-145-145.5-144.6-381.8,0.9-526.8
				c70.2-70,163.6-108.5,262.9-108.5h0.6c82.6,0.2,160.6,26.5,225.5,76.2l20.5,15.7l20.6-15.7c64.9-49.4,142.7-75.5,225-75.5
				c99.8,0,193.5,38.9,263.9,109.5c145,145.5,144.6,381.8-0.9,526.8C392.4,594.7,298.9,633.3,199.4,633.4z M-46.9,537.9l22.2,17
				c64.5,49.4,141.8,75.6,223.8,75.8h0.4c98.8,0,191.6-38.3,261.3-107.8c144.4-143.9,144.8-378.5,0.9-523
				c-69.8-70.1-162.9-108.7-262-108.7c-81.7,0-159,25.9-223.3,74.9L-45.9-17l-22.2-17c-64.4-49.4-141.8-75.5-223.8-75.7h-0.6
				c-98.6,0-191.3,38.3-261,107.7c-144.4,143.9-144.8,378.5-0.9,523c69.1,69.7,163.2,108.9,261.3,108.8h0.4
				c81.9,0,159.3-26,223.7-75L-46.9,537.9z"/>
			<path id="路径_38" class="st3" d="M199.5,598.2h-0.2c-74.8-0.1-145.5-24-204.2-69.1L-46.8,497l-42,32
				c-58.7,44.7-129.2,68.3-203.9,68.4h-0.2c-89.6,0.1-175.4-35.6-238.5-99.2c-131.3-131.8-130.9-345.7,0.8-477
				c63.6-63.4,148.1-98.3,238.1-98.3h0.5c74.9,0.1,145.5,24,204.2,69L-46,23.9L-4-8.1c58.7-44.7,129.1-68.3,203.7-68.3
				c90.4,0,175.3,35.2,239,99.1c131.3,131.8,130.9,345.8-0.8,477C374.2,563.1,289.6,598.1,199.5,598.2z M-46.8,493.6l43.5,33.4
				C55,571.6,125,595.3,199.3,595.4h0.2c89.3-0.1,173.3-34.7,236.4-97.6c130.7-130.2,131.1-342.5,0.8-473.2
				c-63.2-63.4-147.4-98.3-237.1-98.3c-74,0-143.8,23.4-202,67.7L-46,27.3L-89.5-6.1C-147.7-50.7-217.7-74.4-292-74.5h-0.5
				c-89.2,0-173.1,34.6-236.2,97.5c-130.7,130.2-131.1,342.5-0.8,473.2c62.6,63.1,147.8,98.5,236.6,98.4h0.2
				c74.1-0.1,144-23.5,202.2-67.8L-46.8,493.6z"/>
			<path id="路径_39" class="st3" d="M199.7,563h-0.3c-67.1-0.1-130.3-21.5-182.9-61.8l-63.2-48.5l-63.4,48.2
				c-52.5,39.9-115.5,61.1-182.4,61.2h-0.3c-80.2,0.1-157.1-31.9-213.6-88.9c-117.6-118-117.2-309.7,0.8-427.2
				c56.5-56.6,133.3-88.2,213.2-88h0.3c67.1,0.1,130.4,21.5,182.9,61.7L-46,68.2l63.4-48.2c52.5-40,115.6-61.1,182.3-61.1
				c80.4-0.3,157.5,31.7,214,88.8c117.6,118,117.2,309.7-0.8,427.2C356.1,531.5,280.3,562.8,199.7,563z M-46.7,449.3L18.1,499
				c52.1,40,114.8,61.1,181.2,61.3h0.3c79.9-0.1,155-31.1,211.3-87.3C528,356.4,528.3,166.5,411.8,49.5
				C355.7-7,279.3-38.7,199.7-38.4C133.5-38.4,71-17.5,19,22.1l-65,49.5l-64.8-49.7c-52.1-39.9-114.7-61-181.3-61.2h-0.3
				c-79.2-0.2-155.3,31.1-211.3,87.2c-116.9,116.5-117.3,306.5-0.7,423.4c56,56.5,132.2,88.2,211.7,88.1h0.3
				c66.3-0.1,128.8-21.1,180.8-60.6L-46.7,449.3z"/>
			<path id="路径_40" class="st3" d="M199.2,527.8c-70.8,0.1-138.7-28.2-188.6-78.5l-55.8-56L-235,202.7
				c-15.2-15.3-35.9-23.9-57.5-23.9c-21.5-0.1-42.1,8.5-57.3,23.7c-15.3,15.2-23.9,35.8-23.8,57.3c-0.1,21.5,8.4,42.2,23.6,57.4
				c15.2,15.3,35.9,23.9,57.5,23.9c21.5,0.1,42.1-8.5,57.3-23.7l37.6-37.2l131.1,131.6l-37.7,37.3c-50.3,50.1-117.3,77.7-188.7,77.7
				c-70.8,0.1-138.7-28.2-188.6-78.5c-103.9-104.2-103.6-273.6,0.7-377.4C-431,21-363.1-7-292.5-6.8h0.5
				c70.8-0.1,138.7,28.1,188.6,78.4l245.7,246.6c15.2,15.3,35.9,23.8,57.4,23.8c21.5,0.1,42.1-8.5,57.3-23.7
				c31.7-31.7,31.8-83,0.2-114.8c-31.7-31.7-83-31.8-114.8-0.2l-37.1,36.7L-25.9,108.7l37.3-37C115.6-32.1,284.9-31.8,388.8,72.5
				c103.9,104.3,103.6,273.6-0.7,377.5C337.7,500.1,270.7,527.8,199.2,527.8z M-292.5,176.1c22.3,0,43.7,8.8,59.4,24.7l189.8,190.5
				l55.8,56c49.3,49.8,116.6,77.8,186.7,77.7c70.7,0,137.1-27.4,186.9-77c103.2-102.8,103.5-270.4,0.7-373.6
				C284-28.8,116.5-29.2,13.3,73.6l0,0l-35.4,35l127.5,127.6l35.1-34.8c32.8-32.6,85.9-32.5,118.6,0.2
				c32.6,32.8,32.5,85.9-0.2,118.6c-15.7,15.7-37,24.5-59.2,24.4c-22.3,0-43.7-8.8-59.4-24.7l-0.1-0.1L-105.3,73.5
				C-154.7,23.7-221.9-4.2-292-4.1h-0.5c-69.9-0.2-137,27.5-186.5,76.9c-103.2,102.8-103.5,270.4-0.7,373.6
				c49.4,49.8,116.6,77.8,186.7,77.7c70.7,0,137-27.3,186.8-76.9l35.8-35.4l-127.3-127.7l-35.7,35.3c-15.7,15.7-37,24.5-59.2,24.4
				c-22.3,0-43.7-8.8-59.4-24.7c-15.7-15.7-24.5-37.1-24.4-59.3c0-22.2,8.8-43.6,24.6-59.2C-336,184.9-314.7,176.1-292.5,176.1z"/>
			<path id="路径_41" class="st3" d="M199.4,492.5L199.4,492.5c-61.6,0.1-120.5-24.5-163.8-68.1l-55.8-56l-189.8-190.5
				c-21.8-21.9-51.4-34.3-82.4-34.2c-30.8-0.1-60.4,12.1-82.2,33.9c-21.9,21.7-34.2,51.3-34.2,82.2c-0.1,30.9,12.1,60.5,33.9,82.3
				c21.8,22,51.4,34.3,82.4,34.2c25.8,0.1,51-8.5,71.3-24.4l25.5-19.9l81.2,81.5l-31,25.6c-41.6,34-93.7,52.6-147.4,52.5
				c-61.5,0.1-120.4-24.5-163.7-68.1C-546.8,333-546.5,186-456,95.9c43.3-43.4,102.2-67.7,163.5-67.5h0.5
				c61.5-0.1,120.4,24.4,163.7,68L117.3,343c21.8,22,51.4,34.3,82.4,34.2c30.8,0.1,60.4-12.1,82.2-33.9
				c45.4-45.4,45.6-119,0.3-164.5c-21.8-22-51.5-34.3-82.4-34.2c-25.7-0.1-50.6,8.3-70.9,24l-25.5,19.7l-0.8-0.8L22,106.8l31.3-25.6
				c41.6-34,92.2-52,146.4-52c61.6-0.2,120.8,24.3,164.2,68.1c90.2,90.5,89.9,237.5-0.6,327.7C319.8,468.4,260.8,492.7,199.4,492.5z
				 M199.3,489.8L199.3,489.8c60.8,0.2,119.1-23.8,162.1-66.8c89.4-89.1,89.7-234.4,0.6-323.8C319,56,260.6,31.8,199.7,32
				C146.2,32,96.2,49.7,55,83.4l-29,23.7l77.5,77.6l23.6-18.2c20.8-16.1,46.3-24.7,72.6-24.6c31.7-0.1,62,12.5,84.3,35
				c46.3,46.6,46.2,121.9-0.3,168.4c-22.3,22.3-52.5,34.8-84.1,34.7c-31.6,0.1-62-12.6-84.3-35L-130.3,98.4
				C-173,55.2-231.3,31-292,31.1h-0.5c-60.6-0.2-118.8,23.8-161.6,66.7c-89.4,89.1-89.7,234.4-0.6,323.8
				c42.8,43.2,101,67.4,161.7,67.4c53.1,0.1,104.6-18.3,145.7-51.9l28.8-23.7l-77.4-77.7l-23.6,18.4c-20.8,16.3-46.5,25-73,24.9
				c-31.6,0.1-62-12.6-84.3-35c-22.3-22.3-34.8-52.7-34.7-84.2c0-31.6,12.5-61.9,35-84.1c22.3-22.3,52.6-34.8,84.1-34.7
				c31.6,0,62,12.6,84.3,35l189.8,190.5l55.8,56C80.3,465.6,138.5,489.9,199.3,489.8z"/>
			<path id="路径_42" class="st3" d="M199.4,457.4L199.4,457.4c-52.1,0-102.1-20.8-138.8-57.8l-55.8-56L-185.1,153
				c-28.4-28.6-67-44.6-107.2-44.6c-40.2-0.1-78.7,15.8-107.1,44.2c-28.6,28.3-44.6,66.9-44.5,107.1c-0.2,40.2,15.7,78.8,44.2,107.2
				c28.4,28.6,67,44.6,107.3,44.6c33.7,0.2,66.4-11,93-31.8l0.9-0.7l31.9,32l-1.1,0.9c-35.4,29.1-78.6,44.5-125.1,44.5
				c-52.1,0-102.1-20.8-138.7-57.8c-76.5-76.8-76.3-201.4,0.5-277.9c36.8-36.8,86.7-57.4,138.7-57.2h0.5
				c52.1-0.1,102,20.7,138.7,57.7L92.4,367.8c28.4,28.6,67,44.6,107.3,44.6c40.1,0.1,78.7-15.8,107.1-44.2
				c59.2-59,59.4-155.1,0.4-214.3c-28.4-28.6-67-44.7-107.3-44.5c-33.4-0.1-66,10.9-92.4,31.4l-0.9,0.7l-31.9-32l1.2-0.9
				c35-28.7,78.9-44.3,124.1-44.1c52.3-0.2,102.4,20.6,139.2,57.7c76.5,76.8,76.3,201.4-0.5,277.9
				C301.5,436.9,251.5,457.5,199.4,457.4z M-292.4,105.7c41-0.1,80.3,16.3,109.1,45.4L6.6,341.6l55.8,56c36.2,36.5,85.5,57,136.9,57
				c51.4,0.2,100.8-20.2,137.2-56.5c75.7-75.4,75.9-198.4,0.5-274.1C300.7,87.5,251.2,67,199.7,67.2c-44.1-0.2-86.9,14.8-121.2,42.5
				l28.2,28.2c26.8-20.4,59.5-31.3,93.1-31.2c41-0.1,80.4,16.2,109.3,45.3c60,60.2,59.9,158.1-0.4,218.1
				c-28.9,28.9-68.1,45.1-109,45c-41,0.1-80.3-16.3-109.2-45.4l-245.6-246.5c-36.2-36.5-85.4-57-136.8-56.9h-0.5
				c-51.3-0.2-100.5,20.1-136.8,56.4c-75.7,75.4-75.9,198.4-0.5,274.1c36.2,36.5,85.4,57,136.8,57c45.3,0,87.5-14.8,122.2-43
				l-28.1-28.2c-26.9,20.7-59.8,31.8-93.7,31.6c-41,0.1-80.3-16.3-109.2-45.4c-28.9-28.9-45.1-68.2-44.9-109.1
				c-0.1-40.9,16.3-80.2,45.3-109C-372.5,121.8-333.2,105.6-292.4,105.7z"/>
		</g>
		<g id="组_38" transform="translate(1838.058 288.719)">
			<g id="组_37" transform="translate(35.848 36.219)">
				<circle id="椭圆_10" class="st5" cx="-564.7" cy="-12.3" r="39.3"/>
				<path id="路径_43" class="st6" d="M-564.7-147.6C-639.4-147.6-700-87-700-12.3c0,74.7,60.6,135.3,135.3,135.3
					c74.7,0,135.3-60.6,135.3-135.3C-429.4-87-489.9-147.6-564.7-147.6z M-564.7,65.7c-43,0-77.9-34.9-77.9-77.9c0,0,0,0,0,0
					c0-43,34.9-77.9,77.9-78c0,0,0,0,0,0c43,0,77.9,34.9,78,77.9c0,0,0,0,0,0C-486.7,30.8-521.6,65.7-564.7,65.7
					C-564.7,65.7-564.7,65.7-564.7,65.7z"/>
				<circle id="椭圆_11" class="st3" cx="-523.3" cy="-53.3" r="13.9"/>
				<path id="路径_44" class="st7" d="M-565-12.3H-604v0c0,21.6,17.4,39.1,38.9,39.3V-12.3z"/>
				<path id="路径_45" class="st7" d="M-700-12.6h57.4c0.2-42.9,35-77.6,77.9-77.6h0v-57.4h0C-639.3-147.6-699.8-87.2-700-12.6z"
					/>
			</g>
			<path id="路径_46" class="st3" d="M-528.8,194.8C-623.2,194.8-700,118-700,23.6s76.8-171.2,171.2-171.2s171.2,76.8,171.2,171.2
				S-434.4,194.8-528.8,194.8z M-528.8-143.5c-92.2,0-167.1,75-167.1,167.1s75,167.1,167.1,167.1s167.1-75,167.1-167.1
				S-436.7-143.5-528.8-143.5L-528.8-143.5z"/>
		</g>
		<g id="组_41" transform="translate(1214.8 324.938)">
			<g id="组_40">
				<g id="组_39">
					<path id="路径_47" class="st7" d="M-632.3-12.6c0.2-37.2,30.4-67.3,67.7-67.3c37.2,0,67.5,30.1,67.7,67.3h67.7
						c-0.2-74.6-60.7-135-135.3-135c-74.6,0-135.1,60.4-135.3,135H-632.3z"/>
				</g>
				<path id="路径_48" class="st5" d="M-497-12.6c0.2,37.2,30.4,67.3,67.7,67.3c37.2,0,67.5-30.1,67.7-67.3h67.7
					c-0.2,74.6-60.7,135-135.3,135c-74.6,0-135.1-60.4-135.3-135H-497z"/>
				<path id="路径_49" class="st6" d="M-564.7-79.9c0.1,0,0.1,0,0.2,0v-67.7h-0.2c-74.6,0-135.1,60.4-135.3,135h67.7
					C-632.1-49.9-601.9-79.9-564.7-79.9z"/>
				<path id="路径_50" class="st8" d="M-496.5-12.4c0-0.1,0-0.1,0-0.2h-67.7c0,0.1,0,0.1,0,0.2c0,74.6,60.4,135.1,135,135.3V55.2
					C-466.4,55-496.5,24.8-496.5-12.4z"/>
			</g>
			<path id="路径_51" class="st3" d="M-461.3-12.6h-4.1c-0.1-54.9-44.6-99.4-99.5-99.5c-54.9,0.1-99.4,44.6-99.5,99.5h-4.1
				c0.1-57.1,46.4-103.5,103.5-103.5C-507.7-116.1-461.4-69.8-461.3-12.6z"/>
			<path id="路径_52" class="st3" d="M-429.5,158.5c-94.4,0-171.2-76.8-171.2-171.2h4.1c0,92.2,75,167.1,167.1,167.1
				s167.1-75,167.1-167.1h4.1C-258.3,81.7-335.1,158.5-429.5,158.5z"/>
		</g>
		<g id="组_46" transform="translate(700 288.719)">
			<g id="组_45" transform="translate(35.661 36.219)">
				<path id="路径_53" class="st5" d="M-520.4,13.5c-9.2,15.8-26,25.5-44.3,25.4c-28.3,0-51.3-22.9-51.3-51.3
					c0-28.3,22.9-51.3,51.3-51.3c18.5,0,35.5,9.9,44.6,26l72.8-42c-24.1-42.1-68.9-68-117.4-68C-639.4-147.6-700-87-700-12.3
					c0,74.7,60.6,135.3,135.3,135.3c48.3,0,92.9-25.7,117.1-67.5L-520.4,13.5z"/>
				<g id="组_44">
					<g>
						<defs>
							<path id="SVGID_1_" d="M-520.4,13.5c-9.2,15.8-26,25.5-44.3,25.4c-28.3,0-51.3-22.9-51.3-51.3c0-28.3,22.9-51.3,51.3-51.3
								c18.5,0,35.5,9.9,44.6,26l72.8-42c-24.1-42.1-68.9-68-117.4-68C-639.4-147.6-700-87-700-12.3c0,74.7,60.6,135.3,135.3,135.3
								c48.3,0,92.9-25.7,117.1-67.5L-520.4,13.5z"/>
						</defs>
						<clipPath id="SVGID_2_">
							<use xlink:href="#SVGID_1_"  style="overflow:visible;"/>
						</clipPath>
						<g id="组_43" class="st9">
							<g id="组_42" transform="translate(0.199 -0.359)">
								<path id="路径_54" class="st7" d="M-700-12.3h135.3v-135.3C-639.4-147.6-700-87-700-12.3C-700-12.3-700-12.3-700-12.3z"/>
								<path id="路径_55" class="st8" d="M-429.4-12.3h-135.3V123C-489.9,123-429.4,62.5-429.4-12.3
									C-429.4-12.3-429.4-12.3-429.4-12.3z"/>
							</g>
						</g>
					</g>
				</g>
			</g>
			<path id="路径_57" class="st3" d="M-528.8,194.8C-623.2,194.8-700,118-700,23.6s76.8-171.2,171.2-171.2
				c61.3,0.1,117.9,32.9,148.5,86l-3.5,2c-29.9-51.9-85.2-83.9-145-84c-92.2,0-167.1,75-167.1,167.1s75,167.1,167.1,167.1
				c59.4-0.1,114.3-31.6,144.3-82.8l3.5,2C-411.8,162.4-468,194.6-528.8,194.8z"/>
		</g>
		<g id="组_53" transform="translate(735.941 698.092)">
			<g id="组_48">
				<path id="路径_58" class="st3" d="M-579.7-80.9h-30v57.2H-620v-57.2h-38c-1.9,21.1-8.8,42.1-33.6,57.7c-2.4-2.8-5-5.3-8-7.4
					c22.5-13.8,29.4-31.9,31.3-50.2H-700v-9.7h32.1c0.1-2,0.1-3.8,0.1-5.8v-32.5H-695v-9.6h111.1v9.6h-25.8v38.3h30L-579.7-80.9z
					 M-620-90.6v-38.3h-37.6v38.3H-620z"/>
				<path id="路径_59" class="st3" d="M-498.6-98.2c0,0,0,3.2-0.1,4.6c-0.9,44.3-1.9,59.1-5.3,63.9c-2.2,2.8-4.5,3.9-8,4.3
					c-4.8,0.4-9.7,0.4-14.5,0c-0.3-3.3-1.2-6.4-2.7-9.3c5.5,0.5,10.6,0.7,12.7,0.7c1.6,0.2,3.1-0.6,3.9-1.9c2.3-3,3.2-16,4.1-53
					h-18.3v0.9c0,22.2-2.7,45.1-20.6,64.1c-2.2-2.5-4.7-4.7-7.4-6.5c16.4-17.5,18.4-38.7,18.4-57.8v-28h-16v-9.3h59.7v9.3h-34.1v18
					L-498.6-98.2z M-523.5-126.6c-1.2-5-4.3-12.7-6.9-18.4l8.7-2.6c2.9,5.8,5.4,11.8,7.3,18L-523.5-126.6z M-439-113
					c-3.4,21.8-8.9,39.5-17.3,54.1c7.3,11.5,16.5,20.6,28.4,26.1c-2.7,2.5-5.1,5.5-7,8.7c-11.3-6-20.7-14.9-27.5-25.7
					c-8.1,10.7-18.7,19.4-32.1,26.3c-1.6-3.2-3.5-6.1-5.8-8.8c14.1-6.5,24.6-15.4,32.5-26.8c-5.5-11-9.7-23.7-13.1-37.6
					c-2.7,5.9-6,11.5-9.7,16.8c-2.4-2.7-5-5.3-7.8-7.6c11-14.2,18.4-36.8,22.6-60l10.2,1.6c-1.6,8-3.4,16-5.5,23.5h42.2v9.3
					L-439-113z M-474.3-113c-0.2,0.4-0.4,0.9-0.5,1.4c2.8,15.8,6.9,30.3,12.9,42.6c6.4-12.2,10.4-26.7,13-44H-474.3z"/>
			</g>
			<g id="组_49" transform="translate(561.44 0.271)">
				<path id="路径_60" class="st3" d="M-670.8-49.5c2.7,1.8,5.5,4.3,10.3,7.3c8.9,5.7,20.7,6.8,36.5,6.8c16.9,0,33.7-1,50.5-2.8
					c-1.1,2.8-2.8,8.1-3,11.2c-9.6,0.5-34.4,1.5-47.8,1.5c-17.7,0-29-1.6-38.8-7.6c-5.5-3.8-10.2-8.5-13.1-8.5
					c-4.2,0-10.3,8.5-16.4,17.9l-7.4-9.6c6.9-8.3,13.7-14.6,19.5-17.1v-42.4h-17.6v-9.3h27.3V-49.5z M-674.2-116.5
					c-3.7-6.6-11.9-17.2-18.8-24.8l7.7-4.9c6.9,7.3,15.4,17.3,19.4,24L-674.2-116.5z M-620.4-63.7h-41.1v-9.6h41.1v-18.3h-20.8
					c-6.5,0-11.1,0.7-12.2,1.9c-0.5-2.2-2.3-6.9-3.4-9.6c2.4-0.5,4.6-4.1,7.3-8.9c2.9-5.4,5.5-10.9,7.8-16.5h-18.8v-8.9h22.2
					c1.8-4.6,3.3-9.2,4.6-13.9l10.4,2.8c-1.2,3.7-2.6,7.4-4.1,11.1h47.1v8.9H-631c-3.4,8.1-7.3,16-11.6,23.7h22.2v-16.4h10.1v16.4
					h26.3l-0.1,9.5h-26.1v18.3h32.5v9.6h-32.5v24.6h-10.1V-63.7z"/>
				<path id="路径_61" class="st3" d="M-524.4-74.4v38.3c0,5.4-1.4,8.1-4.5,9.7s-8.1,2-16,1.9c-0.5-3.3-1.4-6.5-2.8-9.5
					c5.4,0.3,10.3,0.3,11.6,0.1c1.6,0,2.3-0.5,2.3-2.3v-35.3l-15.2,4.9l-2.6-9.6c4.9-1.4,11.1-3.2,17.7-5.3v-29.8h-16v-9.3h16v-27.1
					h9.3v27.1h13.5v9.3h-13.5v26.9l11.9-3.8l1.5,9.2L-524.4-74.4z M-442.2-69.9c-2.8,10.1-7,18.3-13.4,24.6
					c10.2,4.5,19.5,9.2,26.1,13.8l-6.6,7.7c-6.6-4.7-16.5-10-27.3-15c-10.7,7.2-25,11.6-44.4,14.5c-1-3.1-2.4-6-4.3-8.7
					c16.6-1.8,29.1-5,38.4-10.1c-9-3.8-18.2-7.2-27.6-10c3.5-4.6,7.6-10.6,11.5-16.8h-20.3v-8.7h25.3c2.6-4.6,5-9.3,7-14.2l9.3,1.9
					c-1.8,3.9-3.9,8.1-6.2,12.3h48.7v8.7L-442.2-69.9z M-427.5-93.3h-80.9v-8.8h45.2c4.3-6.7,8.1-13.7,11.4-21l9.5,2.6
					c-3.7,6.2-7.4,13.1-11.1,18.4h26L-427.5-93.3z M-430.8-124.7h-72.8v-8.8h30.9c-1.8-4-3.9-7.8-6.2-11.5l9.3-1.6
					c2.8,4.2,5.3,8.6,7.4,13.1h31.4L-430.8-124.7z M-484.2-102.5c-2.5-6.2-5.8-12.1-9.7-17.6l7.6-3.1c4.1,5.3,8.4,12.5,10.2,17.1
					L-484.2-102.5z M-479.6-69.9c-2.5,4.3-5.2,8.5-8.1,12.6c7.3,2.3,15,5,22.6,8.1c6-5.4,10-12.2,12.6-20.7L-479.6-69.9z"/>
			</g>
			<g id="组_50" transform="translate(1137.617 3.383)">
				<path id="路径_62" class="st3" d="M-642.2-102.5c-3.7,10.4-7.7,22.2-11.4,29.4l-7.6-1.9c2.3-5,5-12.5,7.4-19.8h-14.3v52.9
					c0,5.4-1.1,8.3-4.9,9.7c-3.9,1.8-9.9,1.9-19.2,1.9c-0.6-3.3-1.6-6.6-3.1-9.6c6.9,0.1,13.1,0.1,14.9,0c2,0,2.6-0.5,2.6-2.2v-52.8
					H-700v-9.1h32.9c-7.4-5.7-17.9-13.1-26.1-18.5l5.5-6.4c3.7,2.3,7.8,5,12,8c5.6-5.2,10.5-11,14.9-17.3H-697v-8.9h42.8l1.8-0.5
					l6.1,4.2c-6.1,10-13.6,19.2-22.2,27.2c4.7,3.4,9.2,6.4,12.2,8.9l-2.6,3.4h9.1l1.5-0.4L-642.2-102.5z M-605.5-80.2
					c0,16.9-4.3,37.1-38.2,49.5c-1.7-2.7-3.8-5.2-6.2-7.3c31.7-10.6,34.9-28.7,34.9-42.4v-26.8h9.5L-605.5-80.2z M-576.2-147.6v8.9
					h-26.9c-1.6,4.7-3.2,9.6-4.9,13.7h26.4v63.6h-9.7v-54.4h-37.2v54.5h-9.3V-125h20.3c1.2-4.2,2.4-9.2,3.4-13.7h-28.6v-8.9H-576.2z
					 M-601.1-58.7c8.4,6.4,19.5,15.7,24.9,21.5l-6.9,6.9c-5.1-6-16.1-15.6-24.6-22.3L-601.1-58.7z"/>
				<path id="路径_63" class="st3" d="M-485-123.5c-1.5,51-5,80.3-59.1,93.5c-1.4-3.2-3.3-6.1-5.7-8.7
					c51.3-11.6,53.2-37.4,54.4-84.9H-485z M-446.3-146.1v76.7h-10.6v-66.7h-65.1v66.7h-10.3v-76.7L-446.3-146.1z M-476.9-80.9v33.4
					c0,4.1,1.4,4.7,8,4.7h22.5c6.5,0,7.4-2.6,8.1-20.7c2.8,1.9,5.9,3.2,9.2,4.1c-1.2,21-4.3,26-16.5,26h-24.1
					c-13,0-17.1-2.8-17.1-13.9v-33.6L-476.9-80.9z"/>
			</g>
			<g id="组_51" transform="translate(390.753 35.675)">
				
					<rect id="矩形_24" x="-676.2" y="-155.9" transform="matrix(0.7071 -0.7071 0.7071 0.7071 -111.6339 -511.6992)" class="st3" width="5.4" height="69.6"/>
				
					<rect id="矩形_25" x="-708.3" y="-123.8" transform="matrix(0.7071 -0.7071 0.7071 0.7071 -111.6381 -511.6992)" class="st3" width="69.6" height="5.4"/>
			</g>
			<g id="组_52" transform="translate(959.258 35.675)">
				
					<rect id="矩形_26" x="-676.2" y="-155.9" transform="matrix(0.7071 -0.7071 0.7071 0.7071 -111.6339 -511.6992)" class="st3" width="5.4" height="69.6"/>
				
					<rect id="矩形_27" x="-708.3" y="-123.8" transform="matrix(0.7071 -0.7071 0.7071 0.7071 -111.6381 -511.6992)" class="st3" width="69.6" height="5.4"/>
			</g>
		</g>
	</g>
</g>
</svg>
