<?xml version="1.0" encoding="utf-8"?>
<!-- Generator: Adobe Illustrator 25.1.0, SVG Export Plug-In . SVG Version: 6.00 Build 0)  -->
<svg version="1.1" id="图层_1" xmlns="http://www.w3.org/2000/svg" xmlns:xlink="http://www.w3.org/1999/xlink" x="0px" y="0px"
	 viewBox="0 0 162 162" style="enable-background:new 0 0 162 162;" xml:space="preserve">
<style type="text/css">
	.st0{fill:#3DB76A;}
	.st1{enable-background:new    ;}
	.st2{fill:#FFFFFF;}
</style>
<g id="组_4389" transform="translate(-2661 -2318)">
	<rect id="矩形_3990" x="2661" y="2318" class="st0" width="162" height="162"/>
	<g class="st1">
		<path class="st2" d="M2701.3,2451.2c1.7-3.7,3.2-8.4,4.5-14l2.1,0.6c-1.1,5-2.6,9.5-4.3,13.4h9.2v2h-25.3v-2H2701.3z
			 M2699.1,2433.6c-0.4-1.5-0.9-2.9-1.4-4.1l2.3-0.4c0.4,1.3,0.9,2.8,1.3,4.5h10.5v2h-23.4v-2H2699.1z M2697.6,2449.8l-2.2,0.5
			c-0.8-4.3-1.9-8.4-3.2-12.3l2.1-0.7C2695.6,2441,2696.7,2445.1,2697.6,2449.8z"/>
		<path class="st2" d="M2715.8,2452c0.6-0.2,0.9-0.6,0.9-1.1v-20.7h10.5v13h-8.5v8.1c2.5-0.7,4.6-1.5,6.6-2.2c-0.6-1-1.1-2-1.8-2.9
			l1.5-1c1.8,2.7,3.1,5.1,4,7.1l-1.5,1.1c-0.4-0.9-0.8-1.8-1.3-2.7c-2.8,1.2-6,2.2-9.7,3.1L2715.8,2452z M2725.4,2432.1h-6.6v3.7
			h6.6V2432.1z M2718.7,2441.4h6.6v-3.9h-6.6V2441.4z M2734.7,2450.9l-0.5-2l2.4,0.1c0.8,0,1.2-0.4,1.2-1.1v-15.7h-5.1v22.6h-2
			v-24.5h9.1v18.1c0,1.7-0.8,2.6-2.5,2.6H2734.7z"/>
		<path class="st2" d="M2752.8,2442.4c-1.1,0.5-2.1,1-3.2,1.5v8.3c0,1.7-0.8,2.5-2.4,2.5h-2.6l-0.4-1.9c0.8,0.1,1.6,0.1,2.4,0.1
			s1.1-0.4,1.1-1.2v-7.1c-1.3,0.5-2.6,0.9-4,1.3l-0.5-2c1.5-0.4,3-0.8,4.5-1.3v-6.5h-4.1v-1.9h4.1v-5.1h2v5.1h3.1v1.9h-3.1v5.7
			c1.1-0.5,2.2-1,3.2-1.5V2442.4z M2756.3,2454.8h-1.9v-24.5h12.3c0,3.1-0.2,5.2-0.5,6.2c-0.3,1-1.4,1.5-3.2,1.5h-2l-0.6-1.8
			c0.4,0,1,0,1.7,0s1.2-0.1,1.5-0.1c0.3-0.1,0.6-0.3,0.8-0.6c0.2-0.5,0.3-1.7,0.4-3.4h-8.5v8.2h10.6v1.7c-0.6,3-1.5,5.5-3,7.6
			c1.3,1.3,3,2.5,5,3.6l-1.3,1.5c-1.8-1.2-3.4-2.4-4.7-3.7c-1.3,1.5-3,2.8-4.9,3.8l-1-1.8c1.8-0.9,3.3-2,4.5-3.4
			c-1.9-2.3-3.1-4.8-3.6-7.5h-1.6V2454.8z M2762.6,2448.2c1.1-1.7,1.9-3.7,2.4-6h-5.3C2760.1,2444.3,2761,2446.3,2762.6,2448.2z"/>
		<path class="st2" d="M2779.9,2454.7h-2v-9.9c-1.7,0.6-3.6,1.1-5.5,1.5l-1.1-1.9c4.8-1,8.9-2.3,12.1-3.9c-1.2-1-2.9-2.2-5-3.4
			l1.7-1.1c2.1,1.3,3.8,2.5,5,3.5c2.9-1.7,4.9-3.7,6.2-6H2781c-1.9,1.8-4.3,3.3-7.3,4.7l-1.3-1.7c4.8-2,8-4.6,9.7-7.5l2.2,0.3
			c-0.4,0.8-1,1.6-1.5,2.4h10.9v1.8c-2,3.8-5.6,7-10.9,9.4h11.7v11.8h-2v-1.7h-12.5V2454.7z M2792.5,2444.8h-12.5v6.3h12.5V2444.8z"
			/>
	</g>
	<g id="组_4384" transform="translate(0.888 5)">
		<rect x="2711.4" y="2367" class="st2" width="59" height="3"/>
		<g id="组_4386">
			<g id="组_4384-2" transform="translate(0 1.385)">
				<polygon class="st2" points="2712.6,2353.4 2709.6,2353.4 2709.6,2336.1 2726.7,2336.1 2726.7,2339.1 2712.6,2339.1 				"/>
				<polygon class="st2" points="2772.1,2353.3 2769.1,2353.3 2769.1,2339.2 2754.7,2339.2 2754.7,2336.2 2772.1,2336.2 				"/>
			</g>
			<g id="组_4385" transform="translate(5481.683 4735.614) rotate(180)">
				<polygon class="st2" points="2709.6,2336.1 2726.7,2336.1 2726.7,2339.1 2712.6,2339.1 2712.6,2353.4 2709.6,2353.4 				"/>
				<polygon class="st2" points="2754.7,2336.2 2772.1,2336.2 2772.1,2353.3 2769.1,2353.3 2769.1,2339.2 2754.7,2339.2 				"/>
			</g>
		</g>
	</g>
</g>
</svg>
