<svg xmlns="http://www.w3.org/2000/svg" width="366.53" height="200" viewBox="0 0 366.53 200">
  <g id="undraw_Add_tasks_re_s5yj" transform="translate(0.002 0)">
    <path id="路径_37" data-name="路径 37" d="M964.545,685.9c.035-.105,3.431-10.614-2.58-19.991l-.614.393c5.819,9.077,2.536,19.266,2.5,19.367Z" transform="translate(-646.376 -487.208)" fill="#e4e4e4"/>
    <path id="路径_38" data-name="路径 38" d="M950.523,651.347a4.78,4.78,0,0,0,9.354-1.973c-.545-2.583-5.163-9.011-7.746-8.467S949.978,648.764,950.523,651.347Z" transform="translate(-639.231 -471.301)" fill="#e4e4e4"/>
    <path id="路径_39" data-name="路径 39" d="M950.245,691.245c2.305,2.491,6.429,2.423,6.429,2.423s.386-4.106-1.919-6.6-6.429-2.423-6.429-2.423S947.94,688.754,950.245,691.245Z" transform="translate(-638.082 -499.118)" fill="#e4e4e4"/>
    <path id="路径_40" data-name="路径 40" d="M1036.35,640.5c.083-.248,8.1-25.048-6.088-47.177l-1.448.928c13.732,21.422,5.984,45.465,5.9,45.705Z" transform="translate(-689.247 -441.08)" fill="#3f3d56"/>
    <path id="路径_41" data-name="路径 41" d="M1003.257,558.965a11.28,11.28,0,0,0,22.074-4.655c-1.286-6.1-12.184-21.266-18.28-19.981S1001.972,552.87,1003.257,558.965Z" transform="translate(-672.387 -403.543)" fill="#3f3d56"/>
    <path id="路径_42" data-name="路径 42" d="M1002.6,653.121c5.44,5.879,15.172,5.719,15.172,5.719s.912-9.691-4.528-15.569-15.172-5.719-15.172-5.719S997.161,647.242,1002.6,653.121Z" transform="translate(-669.676 -469.189)" fill="#3f3d56"/>
    <path id="路径_43" data-name="路径 43" d="M560.684,667.235,555.365,665l-3.649-26.664h-48.59l-3.955,26.555-4.759,2.379a1.13,1.13,0,0,0,.505,2.141h65.327a1.13,1.13,0,0,0,.438-2.171Z" transform="translate(-349.239 -469.685)" fill="#e6e6e6"/>
    <path id="路径_44" data-name="路径 44" d="M489.837,581.138H251.151a4.729,4.729,0,0,1-4.718-4.729V542.751H494.555v33.658a4.729,4.729,0,0,1-4.718,4.729Z" transform="translate(-192.045 -408.943)" fill="#ccc"/>
    <path id="路径_45" data-name="路径 45" d="M494.425,325.368H245.835V181.353a5.707,5.707,0,0,1,5.7-5.7H488.724a5.707,5.707,0,0,1,5.7,5.7Z" transform="translate(-191.665 -175.653)" fill="#3f3d56"/>
    <path id="路径_46" data-name="路径 46" d="M497.806,204.328h-218.9a4.4,4.4,0,0,0-4.392,4.4V328.743a4.4,4.4,0,0,0,4.392,4.4h218.9a4.4,4.4,0,0,0,4.392-4.4V208.724A4.4,4.4,0,0,0,497.806,204.328Z" transform="translate(-209.892 -193.876)" fill="#fff"/>
    <path id="路径_47" data-name="路径 47" d="M317.709,204.328V333.139h-38.8a4.4,4.4,0,0,1-4.392-4.4V208.724a4.4,4.4,0,0,1,4.392-4.4Z" transform="translate(-209.892 -193.876)" fill="#f0f0f0"/>
    <path id="路径_48" data-name="路径 48" d="M280.465,382.716a3.064,3.064,0,0,0-3.741,2.843l-10.444,3.079,4.324,3.65,9.255-3.484a3.081,3.081,0,0,0,.606-6.088Z" transform="translate(-204.658 -307.192)" fill="#ffb6b6"/>
    <path id="路径_49" data-name="路径 49" d="M181.838,408.69a4.357,4.357,0,0,1-1.388-8.484l21.164-7.144,16.509-6.014,2.026,7.091-14.574,9.6-22.826,4.852A4.385,4.385,0,0,1,181.838,408.69Z" transform="translate(-148.23 -309.994)" fill="#6c63ff"/>
    <path id="路径_50" data-name="路径 50" d="M128.54,518.809h2.971l1.414-11.462h-4.386Z" transform="translate(-81.687 -322.418)" fill="#ffb6b6"/>
    <path id="路径_51" data-name="路径 51" d="M223.68,711.783h5.852a3.73,3.73,0,0,1,3.729,3.729v.121H223.68Z" transform="translate(-177.586 -516.363)" fill="#2f2e41"/>
    <path id="路径_52" data-name="路径 52" d="M66.032,518.809H69l1.414-11.462H66.032Z" transform="translate(-41.964 -322.418)" fill="#ffb6b6"/>
    <path id="路径_53" data-name="路径 53" d="M161.172,711.783h5.852a3.73,3.73,0,0,1,3.729,3.729v.121h-9.582Z" transform="translate(-137.862 -516.363)" fill="#2f2e41"/>
    <path id="路径_54" data-name="路径 54" d="M160.213,525.829a15.959,15.959,0,0,0-.848,10.042l-.848,56.856h6.526l3.654-31.268,6.06-20.6,6.544,16V590.2l6.3-.377L191,554.43l-3.878-25.208Z" transform="translate(-136.174 -398.189)" fill="#2f2e41"/>
    <path id="路径_55" data-name="路径 55" d="M185.567,396.442l-5.575-1.7-1.454-2.909h-7.161l-1.807,3.151s-7.272,2.666-7.514,15.513-1.212,33.449-1.212,33.449l28.672,4.088Z" transform="translate(-137.653 -313.037)" fill="#6c63ff"/>
    <path id="路径_56" data-name="路径 56" d="M238.5,513.372a3.064,3.064,0,0,0-2-4.25l-.84-10.856-4.469,3.47,1.483,9.777a3.081,3.081,0,0,0,5.829,1.859Z" transform="translate(-182.36 -380.673)" fill="#ffb6b6"/>
    <path id="路径_57" data-name="路径 57" d="M219.24,447.741l-6.363-16.252V408.153a4.356,4.356,0,0,1,8.683-.5l2.588,22.187,2.45,17.4Z" transform="translate(-170.72 -320.638)" fill="#6c63ff"/>
    <circle id="椭圆_55" data-name="椭圆 55" cx="7.156" cy="7.156" r="7.156" transform="translate(31.522 60.714)" fill="#ffb9b9"/>
    <path id="路径_58" data-name="路径 58" d="M185.038,341.324c-.335.43-.794.818-.868,1.358a6.9,6.9,0,0,0,.137,1.2,1.6,1.6,0,0,1-1.5,1.6,1.774,1.774,0,0,0-1.142-.653,1.054,1.054,0,0,0-1.085.627c-.212.6.279,1.21.358,1.842a3.81,3.81,0,0,1-.223,1.373,11.559,11.559,0,0,1-.548,2.168,1.737,1.737,0,0,1-1.758,1.108,1.767,1.767,0,0,1-1.2-1.326c-.172-.6-.164-1.245-.289-1.861-.4-2-2.128-3.484-2.8-5.411-.866-2.469.174-5.293,1.967-7.2a5.86,5.86,0,0,1,2.73-1.767,24.192,24.192,0,0,1,3.445-.2,24.075,24.075,0,0,0,3.57-.945,4.943,4.943,0,0,1,3.606.153A22.771,22.771,0,0,1,191.443,335a4.209,4.209,0,0,0,2.765.74l-1.17.512a3.758,3.758,0,0,0,1.576.863,2.726,2.726,0,0,1-1.68.59,1.919,1.919,0,0,0,1.209.929,5.549,5.549,0,0,1-2.809.75c-.479-.046-.936-.216-1.409-.3a8.284,8.284,0,0,0-3.049.2c-.529.1-1.177.2-1.444.707C185.21,340.413,185.38,340.885,185.038,341.324Z" transform="translate(-145.892 -275.629)" fill="#2f2e41"/>
    <circle id="椭圆_56" data-name="椭圆 56" cx="11.416" cy="11.416" r="11.416" transform="translate(74.798 63)" fill="#6c63ff"/>
    <path id="路径_59" data-name="路径 59" d="M231.454,194.623H225.29v-6.165h-1.37v6.165h-6.165v1.37h6.165v6.165h1.37v-6.165h6.164Z" transform="translate(-137.957 -120.458)" fill="#fff"/>
    <path id="路径_60" data-name="路径 60" d="M598.159,245.661a1.329,1.329,0,0,0-1.328,1.328v22.234a1.329,1.329,0,0,0,1.328,1.328h89.632a1.329,1.329,0,0,0,1.328-1.328V246.989a1.329,1.329,0,0,0-1.328-1.328Z" transform="translate(-414.723 -220.143)" fill="#fff"/>
    <path id="路径_61" data-name="路径 61" d="M598.159,245.661a1.329,1.329,0,0,0-1.328,1.328v22.234a1.329,1.329,0,0,0,1.328,1.328h89.632a1.329,1.329,0,0,0,1.328-1.328V246.989a1.329,1.329,0,0,0-1.328-1.328Z" transform="translate(-414.723 -220.143)" fill="#e6e6e6"/>
    <path id="路径_62" data-name="路径 62" d="M600.93,271.661h89.3v-21.9h-89.3Z" transform="translate(-417.327 -222.747)" fill="#fff"/>
    <path id="路径_63" data-name="路径 63" d="M626.759,267.053a1.162,1.162,0,0,0,0,2.324h68.99a1.162,1.162,0,0,0,0-2.324Z" transform="translate(-433.003 -233.737)" fill="#e4e4e4"/>
    <path id="路径_64" data-name="路径 64" d="M626.759,286.178a1.162,1.162,0,0,0,0,2.324h68.99a1.162,1.162,0,1,0,.005-2.324Z" transform="translate(-433.003 -245.892)" fill="#e4e4e4"/>
    <path id="路径_65" data-name="路径 65" d="M427.159,349.161a1.329,1.329,0,0,0-1.328,1.328v22.234a1.329,1.329,0,0,0,1.328,1.328h89.632a1.33,1.33,0,0,0,1.328-1.328V350.489a1.329,1.329,0,0,0-1.328-1.328Z" transform="translate(-306.053 -285.917)" fill="#fff"/>
    <path id="路径_66" data-name="路径 66" d="M427.159,349.161a1.329,1.329,0,0,0-1.328,1.328v22.234a1.329,1.329,0,0,0,1.328,1.328h89.632a1.33,1.33,0,0,0,1.328-1.328V350.489a1.329,1.329,0,0,0-1.328-1.328Z" transform="translate(-306.053 -285.917)" fill="#e6e6e6"/>
    <path id="路径_67" data-name="路径 67" d="M429.93,375.161h89.3v-21.9h-89.3Z" transform="translate(-308.657 -288.522)" fill="#fff"/>
    <path id="路径_68" data-name="路径 68" d="M455.759,370.553a1.162,1.162,0,0,0,0,2.324h68.99a1.162,1.162,0,1,0,0-2.324Z" transform="translate(-324.333 -299.511)" fill="#e4e4e4"/>
    <path id="路径_69" data-name="路径 69" d="M455.759,389.678a1.162,1.162,0,0,0,0,2.324h68.99a1.162,1.162,0,1,0,.005-2.324Z" transform="translate(-324.333 -311.666)" fill="#e4e4e4"/>
    <path id="路径_70" data-name="路径 70" d="M723.837,493.69a2.747,2.747,0,0,0,2.334-3.506l7.944-5.674-4.734-1.823-6.818,5.668a2.762,2.762,0,0,0,1.274,5.335Z" transform="translate(-493.476 -370.773)" fill="#ffb7b7"/>
    <path id="路径_71" data-name="路径 71" d="M736.716,449.014l-2.635-4.5.056-.064,10.632-12.1,8.255-14.078,7.169.914.106,2.167-.021.032L748.888,438.5l-.012.01Z" transform="translate(-501.945 -329.834)" fill="#3f3d56"/>
    <path id="路径_72" data-name="路径 72" d="M730.036,508.651h-4.054l-1.929-15.637h5.983Z" transform="translate(-460.137 -313.31)" fill="#ffb7b7"/>
    <path id="路径_73" data-name="路径 73" d="M817.732,713.188H804.661v-.165a5.088,5.088,0,0,1,5.088-5.088h7.984Z" transform="translate(-546.798 -513.917)" fill="#2f2e41"/>
    <path id="路径_74" data-name="路径 74" d="M637.873,506.611l-3.943-.941,1.755-15.657,5.82,1.389Z" transform="translate(-402.863 -311.402)" fill="#ffb7b7"/>
    <path id="路径_75" data-name="路径 75" d="M720.055,709.961l-12.714-3.036.038-.161a5.088,5.088,0,0,1,6.13-3.767h0l7.765,1.854Z" transform="translate(-484.952 -510.691)" fill="#2f2e41"/>
    <path id="路径_76" data-name="路径 76" d="M785.191,370.815v-6.824a9.144,9.144,0,0,1,18.288,0v6.824a1.23,1.23,0,0,1-1.228,1.228H786.419A1.23,1.23,0,0,1,785.191,370.815Z" transform="translate(-534.426 -289.53)" fill="#2f2e41"/>
    <circle id="椭圆_57" data-name="椭圆 57" cx="6.704" cy="6.704" r="6.704" transform="translate(250.949 69.001)" fill="#ffb7b7"/>
    <path id="路径_77" data-name="路径 77" d="M779.256,368.82a7.242,7.242,0,0,1,7.233-7.233h1.365a7.241,7.241,0,0,1,7.233,7.233v.136H792.2l-.984-2.755-.2,2.755h-1.491l-.5-1.39-.1,1.39h-9.681Z" transform="translate(-530.654 -293.813)" fill="#2f2e41"/>
    <path id="路径_78" data-name="路径 78" d="M782.412,434.829l-17.069-.65-.954-11.167a6.5,6.5,0,0,1-.035-5.216,5.221,5.221,0,0,1,2.883-2.491l3.735-4.511a5.084,5.084,0,0,1,3.948-1.84l9.7.066c.234-.141,1.653-.862,4.451.351,3.035,1.316,2.33,5.886,2.323,5.932l-.007.043-.033.028-6.455,5.436Z" transform="translate(-520.849 -323.74)" fill="#3f3d56"/>
    <path id="路径_79" data-name="路径 79" d="M646.389,299.694l-8.074,14.721-6.121,66.972,6.916,2.112,12.242-52.39,14.208,50.9,8.291.207-5.645-58.743-4.933-22.743Z" transform="translate(-401.76 -190.455)" fill="#2f2e41"/>
    <path id="路径_80" data-name="路径 80" d="M610.012,445.3a1.329,1.329,0,0,0-1.673.854l-6.856,21.15a1.329,1.329,0,0,0,.854,1.673l85.264,27.64a1.329,1.329,0,0,0,1.673-.854l6.856-21.15a1.329,1.329,0,0,0-.854-1.673Z" transform="translate(-417.638 -346.971)" fill="#fff"/>
    <path id="路径_81" data-name="路径 81" d="M610.012,445.3a1.329,1.329,0,0,0-1.673.854l-6.856,21.15a1.329,1.329,0,0,0,.854,1.673l85.264,27.64a1.329,1.329,0,0,0,1.673-.854l6.856-21.15a1.329,1.329,0,0,0-.854-1.673Z" transform="translate(-417.638 -346.971)" fill="#e6e6e6"/>
    <path id="路径_82" data-name="路径 82" d="M605.635,470.284l84.948,27.537,6.754-20.835L612.388,449.45Z" transform="translate(-420.317 -349.65)" fill="#fff"/>
    <path id="路径_83" data-name="路径 83" d="M642.677,474.39a1.162,1.162,0,0,0-.717,2.211l65.628,21.275a1.162,1.162,0,0,0,.717-2.21h0Z" transform="translate(-442.892 -365.464)" fill="#6c63ff"/>
    <path id="路径_84" data-name="路径 84" d="M636.78,492.584a1.162,1.162,0,1,0-.717,2.211l65.628,21.275a1.162,1.162,0,1,0,.721-2.209l0,0Z" transform="translate(-439.144 -377.026)" fill="#6c63ff"/>
    <path id="路径_85" data-name="路径 85" d="M819.484,517.28a2.747,2.747,0,0,0-.145-4.21l3.152-9.239-4.91,1.276-2.241,8.578a2.762,2.762,0,0,0,4.143,3.6Z" transform="translate(-553.282 -384.21)" fill="#ffb7b7"/>
    <path id="路径_86" data-name="路径 86" d="M823.1,459.226l-4.764-2.124,1.6-16.117-1.49-16.252L824.8,421.3l1.348,1.7v.039l.714,20.55,0,.016Z" transform="translate(-555.487 -331.762)" fill="#3f3d56"/>
    <path id="路径_87" data-name="路径 87" d="M665.914,722.407H416.8a.571.571,0,0,1-.561-.413.557.557,0,0,1,.538-.7H665.869a.589.589,0,0,1,.589.435.557.557,0,0,1-.544.678Z" transform="translate(-299.943 -522.407)" fill="#ccc"/>
    <path id="路径_88" data-name="路径 88" d="M181.066,722.407H97.8a.571.571,0,0,1-.561-.413.557.557,0,0,1,.538-.7h83.247a.589.589,0,0,1,.589.435.557.557,0,0,1-.544.678Z" transform="translate(-97.219 -522.407)" fill="#ccc"/>
  </g>
</svg>
