<svg xmlns="http://www.w3.org/2000/svg" width="387.944" height="207.946" viewBox="0 0 387.944 207.946">
  <g id="组_54" data-name="组 54" transform="translate(-1085.577 -120.153)">
    <g id="undraw_subscribe_vspl" transform="translate(1085.577 120.153)">
      <path id="路径_110" data-name="路径 110" d="M604.206,387.837h-.072L562.581,405.58,505.73,429.856a1.834,1.834,0,0,1-1.4.007l-58.654-24.334L403.1,387.866l-.065-.029h-.072a2.536,2.536,0,0,0-2.534,2.534V500.4a2.536,2.536,0,0,0,2.534,2.534H604.206a2.536,2.536,0,0,0,2.534-2.534V390.371A2.536,2.536,0,0,0,604.206,387.837Z" transform="translate(-338.587 -317.737)" fill="#fff"/>
      <path id="路径_111" data-name="路径 111" d="M608.757,264.987a.361.361,0,0,1-.207-.065l-100.1-69.713a1.815,1.815,0,0,0-2.073,0L407,264.921a.362.362,0,0,1-.416-.593l99.379-69.708a2.542,2.542,0,0,1,2.9,0l100.1,69.712a.362.362,0,0,1-.207.659Z" transform="translate(-342.415 -194.163)" fill="#3f3d56"/>
      <path id="路径_112" data-name="路径 112" d="M194.121,78.6,288.956,8.319,384.51,83.6l-90.668,53.749-49.225-11.22Z" transform="translate(-123.859 -5.308)" fill="#e6e6e6"/>
      <path id="路径_113" data-name="路径 113" d="M488.236,642.987H441.385a2.189,2.189,0,1,1,0-4.378h46.851a2.189,2.189,0,1,1,0,4.378Z" transform="translate(-363.322 -477.742)" fill="#6c63ff"/>
      <path id="路径_114" data-name="路径 114" d="M458.194,616.987H441.385a2.189,2.189,0,1,1,0-4.378h16.809a2.189,2.189,0,1,1,0,4.378Z" transform="translate(-363.322 -461.153)" fill="#6c63ff"/>
      <path id="路径_115" data-name="路径 115" d="M584.455,323.306a2.738,2.738,0,0,1-1.038-.2l-58.488-24.268V222.871a2.537,2.537,0,0,1,2.534-2.534h112.2a2.537,2.537,0,0,1,2.534,2.534v76.017l-.11.047-56.565,24.156A2.756,2.756,0,0,1,584.455,323.306Z" transform="translate(-418.024 -210.863)" fill="#fff"/>
      <path id="路径_116" data-name="路径 116" d="M584.136,323.168a2.921,2.921,0,0,1-1.107-.217l-58.6-24.315V222.552a2.718,2.718,0,0,1,2.715-2.715h112.2a2.718,2.718,0,0,1,2.715,2.715v76.136l-56.785,24.25A2.935,2.935,0,0,1,584.136,323.168Zm-58.983-25.015L583.3,322.282a2.214,2.214,0,0,0,1.69-.01l56.344-24.062V222.552a1.993,1.993,0,0,0-1.991-1.991h-112.2a1.993,1.993,0,0,0-1.991,1.991Z" transform="translate(-417.705 -210.544)" fill="#3f3d56"/>
      <path id="路径_117" data-name="路径 117" d="M604.206,387.837h-.072L562.581,405.58,505.73,429.856a1.834,1.834,0,0,1-1.4.007l-58.654-24.334L403.1,387.866l-.065-.029h-.072a2.536,2.536,0,0,0-2.534,2.534V500.4a2.536,2.536,0,0,0,2.534,2.534H604.206a2.536,2.536,0,0,0,2.534-2.534V390.371A2.536,2.536,0,0,0,604.206,387.837Zm1.81,112.566a1.811,1.811,0,0,1-1.81,1.81H402.962a1.811,1.811,0,0,1-1.81-1.81V390.371a1.814,1.814,0,0,1,1.741-1.81l42.779,17.75,58.375,24.222a2.577,2.577,0,0,0,1.969-.011l56.565-24.156,41.7-17.8a1.816,1.816,0,0,1,1.737,1.81Z" transform="translate(-338.587 -317.737)" fill="#3f3d56"/>
      <path id="路径_118" data-name="路径 118" d="M588.942,288.58H549.127a2.9,2.9,0,1,1,0-5.791h39.814a2.9,2.9,0,0,1,0,5.791Z" transform="translate(-431.616 -250.711)" fill="#6c63ff"/>
      <path id="路径_119" data-name="路径 119" d="M568.31,254.58H549.127a2.9,2.9,0,1,1,0-5.791H568.31a2.9,2.9,0,1,1,0,5.791Z" transform="translate(-431.616 -229.017)" fill="#6c63ff"/>
      <path id="路径_120" data-name="路径 120" d="M656.9,368.58H596.1a2.9,2.9,0,1,1,0-5.791H656.9a2.9,2.9,0,1,1,0,5.791Z" transform="translate(-461.585 -301.755)" fill="#ccc"/>
      <path id="路径_121" data-name="路径 121" d="M656.9,405.58H596.1a2.9,2.9,0,1,1,0-5.791H656.9a2.9,2.9,0,1,1,0,5.791Z" transform="translate(-461.585 -325.363)" fill="#ccc"/>
      <path id="路径_122" data-name="路径 122" d="M264.918,383.005a1.632,1.632,0,0,1-1.6-1.309L262,375.131a13.392,13.392,0,1,1,26.261-5.267l1.317,6.565a1.63,1.63,0,0,1-1.276,1.917l-23.067,4.627a1.631,1.631,0,0,1-.321.032Z" transform="translate(-250.096 -299.403)" fill="#2f2e41"/>
      <path id="路径_123" data-name="路径 123" d="M143.325,472.923h-4.138l-1.968-15.96h6.107Z" transform="translate(-87.553 -291.565)" fill="#a0616a"/>
      <path id="路径_124" data-name="路径 124" d="M125.633,497.791h7.98v5.025h-13A5.025,5.025,0,0,1,125.633,497.791Z" transform="translate(-76.954 -317.616)" fill="#2f2e41"/>
      <path id="路径_125" data-name="路径 125" d="M28.252,470.838l-3.81-1.614,4.411-15.465,5.623,2.382Z" transform="translate(-15.595 -289.522)" fill="#a0616a"/>
      <path id="路径_126" data-name="路径 126" d="M5.025,0H13V5.025H0A5.025,5.025,0,0,1,5.025,0Z" transform="matrix(0.921, 0.39, -0.39, 0.921, 1.96, 175.5)" fill="#2f2e41"/>
      <circle id="椭圆_60" data-name="椭圆 60" cx="8.89" cy="8.89" r="8.89" transform="translate(16.528 64.177)" fill="#a0616a"/>
      <path id="路径_127" data-name="路径 127" d="M287.573,456.877l-.091-.3c-2.422-7.874-4.926-16.013-7.434-23.753l-.068-.209.154-.157c3.892-3.959,11.183-5.538,16.96-3.672,5.814,1.877,9.821,7.142,9.32,12.246a13.078,13.078,0,0,0,2.327,8.648l.232.337-.363.189a65.828,65.828,0,0,1-20.731,6.622Z" transform="translate(-261.735 -343.369)" fill="#3f3d56"/>
      <path id="路径_128" data-name="路径 128" d="M259.679,558.5a1.8,1.8,0,0,1-.9-.244l-4.8-2.773a1.8,1.8,0,0,1-.735-2.333l10.671-25.319,8.155-36.928,14.862-5.4.135.062c15.934,7.319,14.7,59.781,14.293,70.224a1.812,1.812,0,0,1-1.65,1.729l-4.469.584a1.826,1.826,0,0,1-1.958-1.5l-9.124-40.775a.362.362,0,0,0-.3-.314.354.354,0,0,0-.377.178l-22.218,41.883a1.8,1.8,0,0,1-1.1.863,1.82,1.82,0,0,1-.479.065Z" transform="translate(-244.562 -380.047)" fill="#2f2e41"/>
      <path id="路径_129" data-name="路径 129" d="M275.083,559.59a3.394,3.394,0,0,0-1.4-5.012l.243-7.752-4.675-1.3-.189,10.952a3.412,3.412,0,0,0,6.022,3.109Z" transform="translate(-254.629 -418.352)" fill="#a0616a"/>
      <path id="路径_130" data-name="路径 130" d="M264,483.841h-.274a1.8,1.8,0,0,1-1.782-1.667c-.448-5.774-1.825-25.44-.716-36.1a7.516,7.516,0,0,1,8.754-6.3l.285.063,0,.292c-.1,14.029-.1,27.975-.089,41.463a1.809,1.809,0,0,1-1.413,1.77A23.347,23.347,0,0,1,264,483.841Z" transform="translate(-249.503 -350.797)" fill="#6c63ff"/>
      <path id="路径_131" data-name="路径 131" d="M279.689,495.5a4.916,4.916,0,0,1-4.858-4.319l.394-32.377-6.435-16.277a9.557,9.557,0,0,1,6.148-10.158l1.72-.645a2.637,2.637,0,0,1,3.4,1.553l6.636,17.916,0,.026c.46,7.13,2.537,42.619-1.6,43.678a22.846,22.846,0,0,1-5.353.6Z" transform="translate(-254.546 -345.633)" fill="#6c63ff"/>
      <path id="路径_132" data-name="路径 132" d="M393.945,524.259a3.394,3.394,0,0,1-1.6-4.953l-4.479-6.332,3.184-3.66,6.2,9.031a3.412,3.412,0,0,1-3.308,5.915Z" transform="translate(-330.574 -395.245)" fill="#a0616a"/>
      <path id="路径_133" data-name="路径 133" d="M349.774,462.622a1.461,1.461,0,0,1-1.175-.654l-.024-.036c-7.411-11.217-15.074-22.815-22.841-34.378l-.084-.125.107-.105a6.912,6.912,0,0,1,5.1-1.849,6.812,6.812,0,0,1,5.034,2.361c6.787,8.258,16.474,25.4,19.281,30.454a1.434,1.434,0,0,1-.447,1.893,22.958,22.958,0,0,1-4.4,2.342A1.384,1.384,0,0,1,349.774,462.622Z" transform="translate(-290.875 -341.745)" fill="#6c63ff"/>
      <path id="路径_134" data-name="路径 134" d="M337.822,484.1c-4.439,0-20.321-30.578-23.46-36.709l-.027-.074-3.472-18.759a2.636,2.636,0,0,1,2.123-3.074l1.808-.327a9.557,9.557,0,0,1,10.482,5.576l4.537,19.07,15.17,25.775A4.919,4.919,0,0,1,343,481.838a22.835,22.835,0,0,1-4.906,2.225.966.966,0,0,1-.273.038Z" transform="translate(-281.411 -341.448)" fill="#6c63ff"/>
      <path id="路径_135" data-name="路径 135" d="M287.288,376.467H269.371V374.3a9.059,9.059,0,0,1,9.049-9.049h1.448a9.059,9.059,0,0,1,9.049,9.049v.543A1.63,1.63,0,0,1,287.288,376.467Z" transform="translate(-254.965 -303.323)" fill="#2f2e41"/>
    </g>
    <g id="undraw_newspaper_k72w" transform="translate(1305.789 188.094)">
      <path id="路径_89" data-name="路径 89" d="M466.315,516.709H364.5l.046-10.795c.116-27.315,21.918-49.822,49.229-50.287q.443-.007.887-.008h0a51.075,51.075,0,0,1,51.16,49.319Z" transform="translate(-330.072 -384.454)" fill="#6c63ff"/>
      <rect id="矩形_3103" data-name="矩形 3103" width="167.732" height="0.42" transform="translate(0 132.255)" fill="#2f2e41"/>
      <path id="路径_90" data-name="路径 90" d="M398.287,371l4.486,3.263,4.486,38.337h10.6l-3.671-43.64-14.682-5.71Z" transform="translate(-314.675 -287.028)" fill="#2f2e41"/>
      <path id="路径_91" data-name="路径 91" d="M508.907,424.575s-1.224,13.867,3.671,14.275,23.655-4.078,23.655-4.078l8.973,31.812,13.459-6.933s-8.157-35.89-13.051-37.93S524.4,415.6,524.4,415.6l-11.827,2.039Z" transform="translate(-444.056 -352.838)" fill="#2f2e41"/>
      <path id="路径_92" data-name="路径 92" d="M644.119,710.906s-2.447,9.38-.816,10.2a29.494,29.494,0,0,1,2.855,1.631V721.1s2.039,2.039,2.039,3.671,11.012,2.039,11.012,0-.408-4.486-2.447-5.71-4.486-8.157-4.486-8.157Z" transform="translate(-549.903 -586.149)" fill="#2f2e41"/>
      <path id="路径_93" data-name="路径 93" d="M505.14,500.976l.816,7.749,2.855,4.894,6.933-7.749-5.3-8.565Z" transform="translate(-399.097 -392.94)" fill="#2f2e41"/>
      <path id="路径_94" data-name="路径 94" d="M712.165,650.684s1.5-5.135,2.994-4.607,7.2,5.83,7.2,5.83l4.078,2.447s8.157.816,5.71,3.263-11.42,5.71-15.5,4.078-4.894-2.039-4.894-2.039l-1.224.816-4.894-1.224.816-8.565S707.679,654.354,712.165,650.684Z" transform="translate(-599.597 -534.899)" fill="#2f2e41"/>
      <circle id="椭圆_58" data-name="椭圆 58" cx="9.38" cy="9.38" r="9.38" transform="translate(69.337 1.996)" fill="#9f616a"/>
      <path id="路径_95" data-name="路径 95" d="M537.9,187.017s.816,8.565-1.631,8.565.408,10.6,6.933,10.6,8.973-12.643,8.973-12.643a6.139,6.139,0,0,1-3.671-6.933C549.315,181.307,537.9,187.017,537.9,187.017Z" transform="translate(-465.092 -170.134)" fill="#9f616a"/>
      <path id="路径_96" data-name="路径 96" d="M491.944,223.6l-3.429,1.469-9.305,3.937a1.889,1.889,0,0,0-1.141,1.951l3.513,31.226s-3.671,7.749,2.039,8.157l.816,2.855,6.526-7.749,24.471-.816.408-39.561-11.2-4.424S503.121,229.067,491.944,223.6Z" transform="translate(-419.79 -198.809)" fill="#3f3d56"/>
      <path id="路径_97" data-name="路径 97" d="M462.91,264.207l-1.507-.431a1.243,1.243,0,0,0-1.568,1l-4,25.088a8.712,8.712,0,0,0,.851,5.441c1.236,2.34,3.8,4.462,9.079,1.938l3.671-26.51Z" transform="translate(-402.138 -232.847)" fill="#3f3d56"/>
      <path id="路径_98" data-name="路径 98" d="M635.7,238.809l4.894.816,13.459,18.761,1.224,3.263,7.749-2.447s-.408,3.671,3.671,3.263c0,0-4.894,13.459-15.09,9.38s-13.459-16.314-13.459-16.314Z" transform="translate(-544.339 -213.158)" fill="#3f3d56"/>
      <path id="路径_99" data-name="路径 99" d="M390.257,133.573,371.9,126.232l-.816,2.447,8.565,7.341Z" transform="translate(-293.186 -99.765)" fill="#ccc"/>
      <path id="路径_100" data-name="路径 100" d="M526.946,128.436c.346-.093.4-.552.409-.911a4.763,4.763,0,0,1,3.055-4.447,5.136,5.136,0,0,1,2.165-.119,8.2,8.2,0,0,1,2.932.978,4.574,4.574,0,0,0,1.491.675c.358.054,1.91.506,2.267.569.785.14,1.514.842,2.267.58.72-.25.88-1.183.9-1.945.04-1.737-1.279-4.141-2.44-5.433a6.059,6.059,0,0,0-3.505-1.668,23.338,23.338,0,0,0-4.584-.279,14.567,14.567,0,0,0-6.081,1.1,5.894,5.894,0,0,0-3.534,4.76c-.019.432.026.866-.01,1.3a19.08,19.08,0,0,1-.909,3.023,5.532,5.532,0,0,0,.772,4.421c.695,1.022,3.473,1.95,3.433,3.186.5-.52-.682-1.044-.18-1.564a1.237,1.237,0,0,0,.368-1.511l-.533-2.08a1.877,1.877,0,0,1-.046-1.157C525.75,126.494,526.368,128.591,526.946,128.436Z" transform="translate(-453.876 -116.462)" fill="#2f2e41"/>
      <path id="路径_101" data-name="路径 101" d="M341.924,111.8l-7.749,30.18,30.181,10.6L381.893,137.9,392.9,104.862l-17.945,13.051Z" transform="translate(-264.022 -82.882)" fill="#f2f2f2"/>
      <rect id="矩形_3104" data-name="矩形 3104" width="0.408" height="30.37" transform="matrix(0.255, -0.967, 0.967, 0.255, 79.276, 32.577)" fill="#e6e6e6"/>
      <rect id="矩形_3105" data-name="矩形 3105" width="0.408" height="30.37" transform="matrix(0.255, -0.967, 0.967, 0.255, 78.461, 34.617)" fill="#e6e6e6"/>
      <rect id="矩形_3106" data-name="矩形 3106" width="0.408" height="30.37" transform="matrix(0.255, -0.967, 0.967, 0.255, 78.053, 36.656)" fill="#e6e6e6"/>
      <rect id="矩形_3107" data-name="矩形 3107" width="0.408" height="30.37" transform="matrix(0.255, -0.967, 0.967, 0.255, 77.645, 38.695)" fill="#e6e6e6"/>
      <rect id="矩形_3108" data-name="矩形 3108" width="0.408" height="30.37" transform="matrix(0.255, -0.967, 0.967, 0.255, 77.237, 40.734)" fill="#e6e6e6"/>
      <rect id="矩形_3109" data-name="矩形 3109" width="0.408" height="30.37" transform="matrix(0.255, -0.967, 0.967, 0.255, 76.829, 42.773)" fill="#e6e6e6"/>
      <rect id="矩形_3110" data-name="矩形 3110" width="0.408" height="30.37" transform="matrix(0.255, -0.967, 0.967, 0.255, 76.422, 44.813)" fill="#e6e6e6"/>
      <rect id="矩形_3111" data-name="矩形 3111" width="0.408" height="30.37" transform="matrix(0.255, -0.967, 0.967, 0.255, 76.014, 46.852)" fill="#e6e6e6"/>
      <rect id="矩形_3112" data-name="矩形 3112" width="0.408" height="30.37" transform="matrix(0.255, -0.967, 0.967, 0.255, 75.606, 48.891)" fill="#e6e6e6"/>
      <path id="路径_102" data-name="路径 102" d="M512.35,348.534s9.173-5.479,13.251-1.808-11.828,8.973-11.828,8.973Z" transform="translate(-446.884 -297.42)" fill="#9f616a"/>
      <path id="路径_103" data-name="路径 103" d="M462.528,355.977l11.828-4.486s-2.039,7.749,2.039,8.157l-5.71,6.933S459.265,366.581,462.528,355.977Z" transform="translate(-407.058 -302.185)" fill="#3f3d56"/>
      <path id="路径_104" data-name="路径 104" d="M398.515,255.6l15.694,5.29-3.714,8.1L394.8,263.7Z" transform="translate(-311.921 -201.977)" fill="#e6e6e6"/>
      <path id="路径_105" data-name="路径 105" d="M531.153,140.062l11.828-8.973L539.717,142.1l-12.235,8.973Z" transform="translate(-416.749 -103.603)" fill="#ccc"/>
      <rect id="矩形_3113" data-name="矩形 3113" width="14.846" height="0.408" transform="matrix(0.797, -0.604, 0.604, 0.797, 108.571, 51.386)" fill="#e6e6e6"/>
      <rect id="矩形_3114" data-name="矩形 3114" width="14.846" height="0.408" transform="matrix(0.797, -0.604, 0.604, 0.797, 107.756, 55.872)" fill="#e6e6e6"/>
      <path id="路径_106" data-name="路径 106" d="M766.717,319.667s10.2-6.118,3.671-8.565-6.526,6.933-6.526,6.933S763.454,320.075,766.717,319.667Z" transform="translate(-645.584 -269.953)" fill="#9f616a"/>
      <path id="路径_107" data-name="路径 107" d="M290.87,171.888l-.408,15.906,6.322-1.8-5.1.173Z" transform="translate(-229.486 -135.837)" opacity="0.1"/>
      <path id="路径_108" data-name="路径 108" d="M279.46,676.845c1.275,4.713,5.642,7.632,5.642,7.632s2.3-4.722,1.025-9.435-5.642-7.632-5.642-7.632S278.185,672.132,279.46,676.845Z" transform="translate(-262.58 -551.783)" fill="#8985a8"/>
      <path id="路径_109" data-name="路径 109" d="M256.927,693.635c3.5,3.406,3.926,8.641,3.926,8.641s-5.245-.286-8.743-3.692-3.926-8.641-3.926-8.641S253.429,690.229,256.927,693.635Z" transform="translate(-238.174 -569.586)" fill="#3f3d56"/>
      <rect id="矩形_3115" data-name="矩形 3115" width="6.298" height="6.298" transform="translate(131.415 79.563)" fill="#f2f2f2"/>
      <rect id="矩形_3116" data-name="矩形 3116" width="6.298" height="6.298" transform="translate(106.224 8.187)" fill="#f2f2f2"/>
      <circle id="椭圆_59" data-name="椭圆 59" cx="3.149" cy="3.149" r="3.149" transform="translate(30.23 65.707)" fill="#f2f2f2"/>
    </g>
  </g>
</svg>
