<?xml version="1.0" encoding="utf-8"?>
<!-- Generator: Adobe Illustrator 25.1.0, SVG Export Plug-In . SVG Version: 6.00 Build 0)  -->
<svg version="1.1" id="图层_1" xmlns="http://www.w3.org/2000/svg" xmlns:xlink="http://www.w3.org/1999/xlink" x="0px" y="0px"
	 viewBox="0 0 336 1309.8" style="enable-background:new 0 0 336 1309.8;" xml:space="preserve">
<style type="text/css">
	.st0{enable-background:new    ;}
	.st1{fill:#3D3FEA;}
	.st2{fill:#30323E;}
	.st3{fill:#4E4E4E;}
</style>
<g class="st0">
	<path class="st1" d="M5.6,71c5.2-4.3,9.3-7.9,12.4-10.6c3-2.8,5.6-5.7,7.6-8.7s3.1-6,3.1-8.9c0-2.2-0.5-3.9-1.5-5.1
		c-1-1.2-2.5-1.8-4.6-1.8c-2,0-3.6,0.8-4.8,2.3c-1.1,1.5-1.7,3.7-1.7,6.4H3C3.1,40,4,36.2,5.9,33.2c1.8-3,4.3-5.3,7.3-6.7
		c3-1.4,6.4-2.2,10-2.2c6.3,0,11.1,1.6,14.4,4.9c3.2,3.3,4.8,7.5,4.8,12.7c0,5.7-1.9,11-5.8,15.9c-3.9,4.9-8.9,9.6-14.9,14.3h21.6
		v11.1H3.1V73C4.9,71.6,5.8,70.9,5.6,71z"/>
	<path class="st1" d="M54.6,32.3c3.5-5.3,9.3-7.9,17.2-7.9c7.9,0,13.6,2.6,17.2,7.9c3.5,5.3,5.3,12.5,5.3,21.7
		c0,9.3-1.8,16.6-5.3,21.8c-3.5,5.3-9.3,7.9-17.2,7.9c-7.9,0-13.6-2.6-17.2-7.9c-3.5-5.3-5.3-12.6-5.3-21.8
		C49.3,44.8,51.1,37.6,54.6,32.3z M79,41.6c-1.2-2.9-3.6-4.4-7.3-4.4c-3.7,0-6.1,1.5-7.3,4.4c-1.2,2.9-1.8,7.1-1.8,12.4
		c0,3.6,0.2,6.6,0.6,9c0.4,2.4,1.3,4.3,2.6,5.8c1.3,1.5,3.2,2.2,5.8,2.2s4.5-0.7,5.8-2.2c1.3-1.5,2.2-3.4,2.6-5.8
		c0.4-2.4,0.6-5.4,0.6-9C80.8,48.6,80.2,44.5,79,41.6z"/>
	<path class="st1" d="M103.4,71c5.2-4.3,9.3-7.9,12.4-10.6c3-2.8,5.6-5.7,7.6-8.7s3.1-6,3.1-8.9c0-2.2-0.5-3.9-1.5-5.1
		c-1-1.2-2.5-1.8-4.6-1.8c-2,0-3.6,0.8-4.8,2.3c-1.1,1.5-1.7,3.7-1.7,6.4h-13.2c0.1-4.5,1.1-8.3,2.9-11.4c1.8-3,4.3-5.3,7.3-6.7
		c3-1.4,6.4-2.2,10-2.2c6.3,0,11.1,1.6,14.4,4.9c3.2,3.3,4.8,7.5,4.8,12.7c0,5.7-1.9,11-5.8,15.9c-3.9,4.9-8.9,9.6-14.9,14.3h21.6
		v11.1H101V73C102.8,71.6,103.6,70.9,103.4,71z"/>
	<path class="st1" d="M145.7,38.3V25.6h22.2V84h-14.2V38.3H145.7z"/>
</g>
<g class="st0">
	<path class="st2" d="M8.6,136.1v8.4h1.9v1.7H8.6v2.8h-2v-2.8H0.3v-2l6.3-8.1H8.6z M2.1,144.6h4.5v-5.8H6.5L2.1,144.6z"/>
	<path class="st2" d="M20.6,151l-1.4-1.3c1.1-1.6,1.7-3.6,1.7-6v-8.8h10.9v14.1c0,1.2-0.6,1.8-1.8,1.8h-2.3l-0.5-1.8
		c0.8,0.1,1.5,0.1,2.2,0.1c0.4,0,0.5-0.3,0.5-0.7v-3h-7.2C22.4,147.6,21.7,149.5,20.6,151z M29.8,136.6h-7.1v2.5h7.1V136.6z
		 M22.7,143.5h7.1v-2.7h-7.1V143.5z"/>
</g>
<g class="st0">
	<path class="st3" d="M15.1,168.8v1.1H8.7c-0.1,0.7-0.3,1.4-0.6,2h6.1v10.9h-1.1v-0.8H2.9v0.8H1.8V172h5.2c0.3-0.7,0.5-1.3,0.6-2
		H0.9v-1.1H15.1z M5.1,181.1v-8H2.9v8H5.1z M9.8,175v-2H6.2v2H9.8z M9.8,178v-2H6.2v2H9.8z M9.8,181.1v-2H6.2v2H9.8z M13.2,181.1v-8
		h-2.3v8H13.2z"/>
	<path class="st3" d="M24.2,168.3c-0.2,0.8-0.5,1.5-0.8,2.2h7.1v10.7c0,1-0.5,1.6-1.5,1.6h-2.4l-0.3-1.2l2.3,0
		c0.4,0,0.7-0.2,0.7-0.7v-9.3H18.9v11.2h-1.2v-12.3h4.4c0.4-0.8,0.7-1.6,0.8-2.4L24.2,168.3z M27,173.9v5.6h-5.9v-5.6H27z M25.9,175
		h-3.7v3.4h3.7V175z"/>
	<path class="st3" d="M40.4,168.3c2,2.2,4.4,4,7,5.3l-0.6,1.1c-2.7-1.4-4.9-3.2-6.8-5.4c-1.7,2.1-4,3.9-6.9,5.4l-0.6-1.1
		c2.8-1.4,5.2-3.2,7.1-5.3H40.4z M41,172.5v3.6h4.4v1.1H41v3.9h5.5v1.1H33.2v-1.1h2.4v-6.3h1.1v6.3h3.1v-8.6H41z"/>
	<path class="st3" d="M54.9,168.4v12.7h2.3v-12.7h1.2v12.7h4.8v1.1H48.9v-1.1h4.8v-12.7H54.9z M52.5,178.7l-1.1,0.3
		c-0.6-2.6-1.3-5-2.2-7.4l1-0.3C51.1,173.4,51.9,175.9,52.5,178.7z M62.7,171.6c-0.6,2.8-1.4,5.2-2.4,7.3l-1-0.4
		c0.9-1.9,1.7-4.3,2.4-7.2L62.7,171.6z"/>
	<path class="st3" d="M69.6,180.6c-1.4,0.6-3,1-4.8,1.4l-0.1-1.1c1.9-0.3,3.5-0.8,4.9-1.3V180.6z M68.7,168.6
		c-0.8,2-1.7,3.6-2.5,4.8c0.8-0.1,1.5-0.2,2.3-0.3c0.3-0.5,0.6-1.1,1-1.7l1,0.4c-1.5,2.6-2.7,4.5-3.7,5.6c1.2-0.2,2.3-0.5,3.5-0.8v1
		c-1.7,0.5-3.3,0.8-4.9,1l-0.3-1c0.2-0.1,0.4-0.2,0.5-0.3c0.6-0.6,1.4-1.6,2.3-3.1c-0.9,0.1-1.9,0.3-2.8,0.4l-0.3-1.1
		c0.2-0.1,0.3-0.2,0.5-0.4c0.9-1.4,1.7-3.1,2.4-4.9L68.7,168.6z M70.4,169.9v-1.1h7v0.7c-0.3,1.4-0.5,2.7-0.8,3.7h2v0.6
		c-0.3,2.2-1.1,4.1-2.2,5.6c0.8,0.9,1.8,1.7,2.9,2.4l-0.7,1c-1.1-0.7-2.1-1.6-2.9-2.5c-1,1-2.1,1.9-3.5,2.5l-0.6-1.1
		c1.3-0.7,2.5-1.5,3.4-2.4c-1-1.3-1.7-2.8-2.2-4.4c-0.5,3.4-1.5,6-3.2,7.8l-0.8-0.8c2.1-2.3,3.1-6.1,3.2-11.3v-0.9H70.4z
		 M77.5,174.3h-2.2c0.3-1,0.6-2.4,0.9-4.3h-3.1v0.9c0,0.6,0,1.2,0,1.7c0.4,2.3,1.3,4.4,2.6,6.1C76.6,177.4,77.2,175.9,77.5,174.3z"
		/>
	<path class="st3" d="M84.2,182.9h-1.1v-8c-0.5,1.6-1.2,3.1-2,4.4l-0.5-1.2c1.1-1.7,2-3.6,2.4-5.7h-2.2v-1.1h2.2v-3.1h1.1v3.1h1.9
		v1.1h-1.9v1c0.8,0.9,1.5,1.9,2.3,3l-0.6,1c-0.7-1.1-1.2-2-1.7-2.7V182.9z M86.2,182.8l-0.6-1c3.8-1.2,6.6-3.6,8.5-7.1l1,0.5
		c-0.8,1.4-1.7,2.7-2.7,3.7c1.2,1,2.1,2,2.9,3l-0.8,0.8c-0.7-1-1.6-2-2.8-3.2C90.1,181,88.3,182.1,86.2,182.8z M90.5,170
		c-0.2-0.6-0.5-1.1-0.8-1.6l1.2-0.2c0.2,0.5,0.5,1.1,0.7,1.8h3.6v1h-4.4c-0.9,1.6-1.6,2.7-2.3,3.3c1-0.1,2-0.1,3-0.2
		c0.4-0.6,0.8-1.2,1.1-1.8l0.9,0.5c-1.6,3.2-3.9,5.3-7,6.5l-0.6-1c1.9-0.7,3.6-1.8,4.9-3.2c-1.1,0.1-2.3,0.1-3.6,0.2l-0.2-0.9
		c0.1,0,0.2-0.1,0.2-0.1c0.6-0.4,1.5-1.5,2.5-3.2h-3.1v-1H90.5z"/>
	<path class="st3" d="M99.6,173.5c-0.4,2.8-1.1,5.1-1.9,7.1l-1-0.6c0.8-2,1.4-4.3,1.8-6.7L99.6,173.5z M102.5,182.4
		c-1.1,0-1.7-0.5-1.7-1.6v-9.2h1.2v8.9c0,0.5,0.3,0.7,0.9,0.7h3c0.4,0,0.7-0.2,0.8-0.5c0.2-0.4,0.3-1.5,0.4-3.4l1.1,0.4
		c-0.1,2.2-0.4,3.5-0.7,4c-0.3,0.4-0.8,0.6-1.4,0.6H102.5z M106.4,172.3l-1,0.7c-0.8-1.2-2-2.6-3.4-4.1l1-0.6
		C104.5,169.8,105.6,171.2,106.4,172.3z M111.4,179.4l-1.1,0.5c-0.8-2.5-1.7-4.8-2.7-6.8l1.1-0.4
		C109.8,174.8,110.7,177.1,111.4,179.4z"/>
	<path class="st3" d="M114.7,172.6v-4.1h1.2v4.1h2v1.1h-2v5.6c0.7-0.2,1.4-0.4,2-0.7v1.2c-1.6,0.6-3.2,1.1-5,1.5l-0.3-1.2
		c0.7-0.1,1.4-0.3,2.1-0.4v-5.9h-1.9v-1.1H114.7z M118.7,174.8v-1.1c1.9-1.1,3.7-2.3,5.3-3.6h-5.2v-1.1h6.8v1
		c-1.5,1.3-3.2,2.5-5.1,3.7h6.1c-0.1,3.7-0.3,6.1-0.5,7.2c-0.3,1.1-1,1.6-2.2,1.7c-0.5,0-1,0-1.5,0l-0.3-1.1c0.6,0,1.1,0.1,1.7,0.1
		c0.6,0,1.1-0.3,1.3-0.9c0.2-0.5,0.4-2.5,0.4-5.9h-1.2c-0.4,1.9-1,3.5-1.7,4.6c-0.8,1.2-2.1,2.3-3.7,3.2l-0.7-0.9
		c1.5-0.8,2.7-1.8,3.5-2.8c0.7-1,1.2-2.4,1.6-4.1h-1.3c-0.6,2-1.6,3.6-3.1,4.7l-0.7-0.9c1.3-1,2.2-2.3,2.7-3.8H118.7z"/>
	<path class="st3" d="M133.5,180.4c-1.1,0.9-2.4,1.7-4.1,2.2l-0.6-0.9c1.7-0.6,3.1-1.2,4-2L133.5,180.4z M141.3,168.7v4.6h-5
		c0.1,0.3,0.3,0.6,0.4,0.9h6.3v1H129v-1h6.6c-0.2-0.3-0.3-0.6-0.5-0.9h-4.3v-4.6H141.3z M141.1,176v3.2h-4.4v2.3
		c0,0.9-0.4,1.3-1.2,1.3h-1.9l-0.2-1.1c0.6,0,1.2,0.1,1.8,0.1c0.3,0,0.5-0.2,0.5-0.6v-2H131V176H141.1z M140.2,170.5v-0.9h-8.3v0.9
		H140.2z M140.2,171.4h-8.3v1h8.3V171.4z M140,176.9h-7.9v1.4h7.9V176.9z M143.3,181.6l-0.4,1.1c-1.5-0.8-3-1.5-4.5-2l0.5-0.9
		C140.3,180.2,141.8,180.8,143.3,181.6z"/>
	<path class="st3" d="M150.5,181.9h-1.1V181h-2.9v1.4h-1.1V171h1.5c0.3-0.9,0.5-1.8,0.7-2.8l1.2,0.2c-0.2,0.9-0.4,1.8-0.8,2.6h2.6
		V181.9z M149.3,175.4v-3.3h-2.9v3.3H149.3z M149.3,179.9v-3.5h-2.9v3.5H149.3z M158.5,180.8c-0.2,1.2-0.9,1.8-2.2,1.8
		c-0.3,0-0.9,0-1.6-0.1l-0.3-1.1c0.7,0,1.2,0,1.7,0c0.8,0,1.2-0.4,1.3-1.2c0.1-0.9,0.2-3.7,0.2-8.3h-4.4c-0.4,1-1,1.9-1.6,2.7
		l-0.7-0.9c1.1-1.6,1.9-3.5,2.3-5.8l1.1,0.1c-0.2,0.9-0.4,1.8-0.7,2.7h5.1C158.7,176.3,158.7,179.6,158.5,180.8z M155.9,178.2
		l-0.9,0.6c-0.7-1.1-1.5-2.2-2.6-3.6l0.9-0.6C154.4,176,155.3,177.2,155.9,178.2z"/>
	<path class="st3" d="M175,169.9v1.1h-4v10.3h-1.3V171h-4v-1.1H175z"/>
	<path class="st3" d="M178,170.2c0.2,0.2,0.3,0.4,0.3,0.7c0,0.3-0.1,0.5-0.3,0.7c-0.2,0.2-0.4,0.3-0.7,0.3s-0.5-0.1-0.7-0.3
		c-0.2-0.2-0.3-0.4-0.3-0.7c0-0.3,0.1-0.5,0.3-0.7c0.2-0.2,0.4-0.3,0.7-0.3S177.8,170,178,170.2z M177.9,173v8.3h-1.3V173H177.9z"/>
	<path class="st3" d="M184.6,169.9c1.8,0,3.2,0.5,4.1,1.6c0.8,1,1.3,2.4,1.3,4.1c0,1.8-0.5,3.2-1.4,4.1c-1,1-2.3,1.6-4.1,1.6h-4
		v-11.4H184.6z M181.8,180.1h2.4c1.5,0,2.6-0.4,3.4-1.2c0.7-0.8,1.1-1.9,1.1-3.4c0-1.5-0.3-2.7-1-3.4c-0.7-0.8-1.8-1.2-3.3-1.2h-2.6
		V180.1z"/>
	<path class="st3" d="M196.9,169.9c1.1,0,1.9,0.3,2.5,0.8c0.6,0.5,0.9,1.2,0.9,2.1c0,0.6-0.2,1.2-0.5,1.7c-0.4,0.4-0.8,0.7-1.4,0.9
		c0.8,0.1,1.3,0.4,1.7,0.9c0.4,0.5,0.6,1.1,0.6,1.9c0,1.1-0.4,2-1.2,2.5c-0.7,0.4-1.6,0.7-2.8,0.7h-5.1v-11.4H196.9z M193.1,174.8
		h3.5c0.8,0,1.4-0.2,1.8-0.5c0.4-0.3,0.6-0.8,0.6-1.5c0-0.6-0.2-1.1-0.6-1.4c-0.4-0.3-1-0.5-1.8-0.5h-3.5V174.8z M193.1,180.2h3.7
		c0.8,0,1.4-0.2,1.9-0.4c0.6-0.4,0.8-0.9,0.8-1.6s-0.3-1.3-0.7-1.6c-0.5-0.4-1.1-0.5-2-0.5h-3.7V180.2z"/>
	<path class="st3" d="M215.1,169.9v1.2h-5.6l-0.4,3.8h0.1c0.3-0.4,0.7-0.7,1.2-0.9c0.4-0.2,0.9-0.3,1.5-0.3c1.1,0,2,0.3,2.6,1
		c0.7,0.7,1,1.7,1,2.9c0,1.2-0.4,2.1-1.2,2.8c-0.8,0.7-1.7,1-2.8,1c-1,0-1.9-0.3-2.6-0.8c-0.8-0.6-1.2-1.4-1.3-2.5h1.3
		c0.1,0.7,0.4,1.3,0.9,1.7c0.4,0.3,1,0.5,1.7,0.5c0.8,0,1.5-0.3,2-0.8c0.5-0.5,0.8-1.2,0.8-2c0-0.9-0.3-1.6-0.7-2.1
		c-0.5-0.5-1.1-0.8-2-0.8c-0.5,0-1,0.1-1.5,0.4c-0.4,0.2-0.8,0.6-1,1h-1.2l0.6-6.3H215.1z"/>
	<path class="st3" d="M219.2,179.7c0.2,0.2,0.3,0.4,0.3,0.7c0,0.3-0.1,0.5-0.3,0.7c-0.2,0.2-0.4,0.3-0.7,0.3c-0.3,0-0.5-0.1-0.7-0.3
		c-0.2-0.2-0.3-0.4-0.3-0.7c0-0.3,0.1-0.5,0.3-0.7c0.2-0.2,0.4-0.3,0.7-0.3C218.8,179.4,219,179.5,219.2,179.7z"/>
	<path class="st3" d="M228.5,171.4c0.6,1,0.9,2.4,0.9,4.1c0,1.7-0.3,3.1-0.9,4.1c-0.7,1.2-1.7,1.8-3.1,1.8c-1.4,0-2.4-0.6-3.1-1.8
		c-0.6-1-0.9-2.4-0.9-4.1c0-1.7,0.3-3.1,0.9-4.1c0.7-1.2,1.7-1.8,3.1-1.8C226.8,169.6,227.8,170.2,228.5,171.4z M223.2,172.4
		c-0.3,0.8-0.5,1.8-0.5,3.2c0,1.3,0.2,2.4,0.5,3.2c0.4,1.1,1.2,1.6,2.2,1.6c1,0,1.8-0.6,2.2-1.6c0.3-0.8,0.5-1.8,0.5-3.2
		c0-1.3-0.2-2.4-0.5-3.2c-0.4-1.1-1.2-1.6-2.2-1.6C224.4,170.7,223.6,171.3,223.2,172.4z"/>
	<path class="st3" d="M244,168.3c2,2.2,4.4,4,7,5.3l-0.6,1.1c-2.7-1.4-4.9-3.2-6.8-5.4c-1.7,2.1-4,3.9-6.9,5.4l-0.6-1.1
		c2.8-1.4,5.2-3.2,7.1-5.3H244z M244.6,172.5v3.6h4.4v1.1h-4.4v3.9h5.5v1.1h-13.3v-1.1h2.4v-6.3h1.1v6.3h3.1v-8.6H244.6z"/>
	<path class="st3" d="M258.4,168.4v12.7h2.3v-12.7h1.2v12.7h4.8v1.1h-14.2v-1.1h4.8v-12.7H258.4z M256.1,178.7L255,179
		c-0.6-2.6-1.3-5-2.2-7.4l1-0.3C254.7,173.4,255.4,175.9,256.1,178.7z M266.2,171.6c-0.6,2.8-1.4,5.2-2.4,7.3l-1-0.4
		c0.9-1.9,1.7-4.3,2.4-7.2L266.2,171.6z"/>
	<path class="st3" d="M273.3,168.4v4.2h0.9v1.1h-3.8v0.8c0,0.5,0,1,0,1.4h3.1v6.8h-1.1v-5.7h-2c-0.2,2.4-0.6,4.2-1.3,5.5l-0.9-0.8
		c0.7-1.5,1.1-4,1.1-7.3v-5.9h1.1v3.9h1.7v-4.2H273.3z M276.2,175.7c-0.1,3-0.6,5.3-1.6,7.1l-0.8-0.8c0.8-1.5,1.2-3.6,1.3-6.3v-6.4
		c2.5,0,4.8-0.4,6.8-1l0.6,1c-1.9,0.5-4,0.9-6.3,1v2.5h5.9v1c-0.4,2.2-1.1,4.1-2.1,5.6c0.8,1.1,1.7,1.9,2.9,2.4l-0.6,1
		c-1.2-0.6-2.2-1.5-3-2.5c-0.9,1-1.9,1.9-3.2,2.5l-0.6-1c1.2-0.7,2.2-1.5,3-2.5c-0.9-1.5-1.6-3.3-1.9-5.5h-0.5V175.7z M279.4,178.4
		c0.8-1.3,1.4-2.8,1.6-4.5h-3.2C278.1,175.7,278.7,177.2,279.4,178.4z"/>
	<path class="st3" d="M298.3,170.7c0.8,0.7,1.3,1.6,1.5,2.8h-1.3c-0.2-0.9-0.6-1.5-1.2-2c-0.6-0.5-1.4-0.7-2.4-0.7
		c-1.2,0-2.2,0.4-3,1.3c-0.7,0.9-1.1,2-1.1,3.5c0,1.4,0.4,2.6,1.1,3.4c0.8,0.9,1.9,1.3,3.4,1.3c0.6,0,1.2-0.1,1.8-0.3
		c0.6-0.2,1-0.4,1.4-0.6v-2.9h-3.6v-1.1h4.9v4.7c-0.5,0.4-1.2,0.8-2,1c-0.8,0.3-1.7,0.4-2.7,0.4c-1.8,0-3.2-0.6-4.2-1.7
		c-0.9-1.1-1.4-2.5-1.4-4.2c0-1.7,0.4-3.1,1.4-4.2c1-1.2,2.3-1.8,4-1.8C296.3,169.6,297.5,170,298.3,170.7z"/>
	<path class="st3" d="M306.8,169.9l4.5,11.4h-1.4l-1.2-3.2h-5.2l-1.2,3.2h-1.4l4.5-11.4H306.8z M308.3,177l-2.2-5.7h-0.1l-2.2,5.7
		H308.3z"/>
</g>
<g class="st0">
	<path class="st3" d="M3.1,200.7l1.1,0.2L3.3,204h2.8c0.3-1.2,0.6-2.5,0.8-3.9l1.2,0.1c-0.2,1.3-0.5,2.6-0.8,3.8h7.5v1.1H7
		c-0.2,0.6-0.4,1.2-0.6,1.8H13v1c-0.4,1.4-1.3,2.6-2.6,3.7c1.3,0.8,2.9,1.5,4.7,2.1l-0.6,1.1c-2-0.8-3.7-1.6-5.1-2.4
		c-1.3,0.9-2.9,1.8-4.9,2.5l-0.6-1.1c1.8-0.7,3.3-1.4,4.5-2.2c-1.2-1-2.1-2-2.7-3.1c-1.2,2.5-2.7,4.5-4.5,6l-0.6-1.1
		c2.3-2,4-4.8,5.2-8.4h-4L3.1,200.7z M9.3,211c1.2-0.9,2-1.9,2.4-3H6.6C7.2,209.1,8.1,210.1,9.3,211z M13.6,202.9l-0.8,0.8
		c-0.7-0.8-1.6-1.7-2.8-2.7l0.8-0.8C11.9,201.1,12.9,202,13.6,202.9z"/>
	<path class="st3" d="M21.8,200.4v4.2h0.9v1.1h-3.8v0.8c0,0.5,0,1,0,1.4H22v6.8h-1.1v-5.7h-2c-0.2,2.4-0.6,4.2-1.3,5.5l-0.9-0.8
		c0.7-1.5,1.1-4,1.1-7.3v-5.9h1.1v3.9h1.7v-4.2H21.8z M24.7,207.7c-0.1,3-0.6,5.3-1.6,7.1l-0.8-0.8c0.8-1.5,1.2-3.6,1.3-6.3v-6.4
		c2.5,0,4.8-0.4,6.8-1l0.6,1c-1.9,0.5-4,0.9-6.3,1v2.5h5.9v1c-0.4,2.2-1.1,4.1-2.1,5.6c0.8,1.1,1.7,1.9,2.9,2.4l-0.6,1
		c-1.2-0.6-2.2-1.5-3-2.5c-0.9,1-1.9,1.9-3.2,2.5l-0.6-1c1.2-0.7,2.2-1.5,3-2.5c-0.9-1.5-1.6-3.3-1.9-5.5h-0.5V207.7z M27.8,210.4
		c0.8-1.3,1.4-2.8,1.6-4.5h-3.2C26.6,207.7,27.1,209.2,27.8,210.4z"/>
</g>
<g class="st0">
	<path class="st2" d="M8.7,265c0.7,0.6,1.1,1.5,1.1,2.4c0,0.6-0.1,1.2-0.4,1.7c-0.3,0.5-0.8,0.8-1.4,1.1v0c0.6,0.2,1.1,0.5,1.5,1.1
		c0.5,0.6,0.7,1.3,0.7,2.1c0,1.2-0.4,2.1-1.3,2.8c-0.8,0.7-2,1.1-3.6,1.1c-1.5,0-2.7-0.4-3.6-1.1c-0.8-0.7-1.3-1.6-1.3-2.8
		c0-0.8,0.2-1.5,0.7-2.1c0.4-0.6,0.9-0.9,1.5-1.1v0c-0.6-0.3-1.1-0.6-1.4-1.1c-0.3-0.5-0.4-1-0.4-1.7c0-1,0.4-1.8,1.1-2.4
		c0.8-0.7,1.9-1.1,3.3-1.1C6.8,263.9,7.9,264.3,8.7,265z M3.3,271.7c-0.5,0.4-0.7,1-0.7,1.7c0,0.6,0.2,1.2,0.7,1.6
		c0.5,0.4,1.1,0.6,2,0.6c0.9,0,1.5-0.2,2.1-0.6c0.5-0.4,0.7-0.9,0.7-1.5c0-0.7-0.2-1.2-0.7-1.6c-0.5-0.5-1.2-0.7-2.1-0.7
		C4.5,271.1,3.8,271.3,3.3,271.7z M3.6,266.2C3.2,266.5,3,267,3,267.5c0,0.6,0.2,1.1,0.5,1.4c0.4,0.4,1,0.6,1.9,0.6
		c0.9,0,1.5-0.2,1.9-0.6c0.3-0.3,0.5-0.8,0.5-1.4c0-0.5-0.2-1-0.6-1.3c-0.5-0.4-1.1-0.6-1.8-0.6C4.6,265.6,4,265.8,3.6,266.2z"/>
	<path class="st2" d="M20.6,279l-1.4-1.3c1.1-1.6,1.7-3.6,1.7-6v-8.8h10.9v14.1c0,1.2-0.6,1.8-1.8,1.8h-2.3l-0.5-1.8
		c0.8,0.1,1.5,0.1,2.2,0.1c0.4,0,0.5-0.3,0.5-0.7v-3h-7.2C22.4,275.6,21.7,277.5,20.6,279z M29.8,264.6h-7.1v2.5h7.1V264.6z
		 M22.7,271.5h7.1v-2.7h-7.1V271.5z"/>
</g>
<g class="st0">
	<path class="st3" d="M9.6,297.6v1.1h-4V309H4.3v-10.3h-4v-1.1H9.6z"/>
	<path class="st3" d="M12.6,297.9c0.2,0.2,0.3,0.4,0.3,0.7c0,0.3-0.1,0.5-0.3,0.7c-0.2,0.2-0.4,0.3-0.7,0.3s-0.5-0.1-0.7-0.3
		c-0.2-0.2-0.3-0.4-0.3-0.7c0-0.3,0.1-0.5,0.3-0.7c0.2-0.2,0.4-0.3,0.7-0.3S12.4,297.7,12.6,297.9z M12.6,300.7v8.3h-1.3v-8.3H12.6z
		"/>
	<path class="st3" d="M19.2,297.6c1.8,0,3.2,0.5,4.1,1.6c0.8,1,1.3,2.4,1.3,4.1c0,1.8-0.5,3.2-1.4,4.1c-1,1-2.3,1.6-4.1,1.6h-4
		v-11.4H19.2z M16.5,307.9h2.4c1.5,0,2.6-0.4,3.4-1.2c0.7-0.8,1.1-1.9,1.1-3.4c0-1.5-0.3-2.7-1-3.4c-0.7-0.8-1.8-1.2-3.3-1.2h-2.6
		V307.9z"/>
	<path class="st3" d="M31.6,297.6c1.1,0,1.9,0.3,2.5,0.8c0.6,0.5,0.9,1.2,0.9,2.1c0,0.6-0.2,1.2-0.5,1.7c-0.4,0.4-0.8,0.7-1.4,0.9
		c0.8,0.1,1.3,0.4,1.7,0.9c0.4,0.5,0.6,1.1,0.6,1.9c0,1.1-0.4,2-1.2,2.5c-0.7,0.4-1.6,0.7-2.8,0.7h-5.1v-11.4H31.6z M27.8,302.6h3.5
		c0.8,0,1.4-0.2,1.8-0.5c0.4-0.3,0.6-0.8,0.6-1.5c0-0.6-0.2-1.1-0.6-1.4c-0.4-0.3-1-0.5-1.8-0.5h-3.5V302.6z M27.8,307.9h3.6
		c0.8,0,1.4-0.2,1.9-0.4c0.6-0.4,0.8-0.9,0.8-1.6s-0.3-1.3-0.7-1.6c-0.5-0.4-1.1-0.5-2-0.5h-3.6V307.9z"/>
	<path class="st3" d="M50,310.3c-1,0-1.8-0.1-2.5-0.3c-0.6-0.2-1.2-0.6-1.7-1.2c-0.2-0.3-0.4-0.4-0.6-0.4c-0.4,0-1,0.7-1.9,2.2
		l-0.9-0.8c0.8-1.3,1.6-2.2,2.3-2.4v-4.9h-2.3v-1.1h3.4v6c0.1,0.1,0.3,0.2,0.4,0.4c0.4,0.5,0.8,0.8,1.2,1c0.5,0.2,1.2,0.4,2.1,0.4
		c0.8,0,1.9,0,3.1,0c0.8,0,1.5,0,2.3,0c0.8,0,1.4,0,1.8-0.1l-0.3,1.2h-3.7C51.9,310.3,51,310.3,50,310.3z M46.2,298.7l-0.8,0.8
		c-0.6-0.8-1.5-1.6-2.7-2.5l0.8-0.8C44.6,297,45.5,297.8,46.2,298.7z M49.5,297.6c0.2-0.6,0.4-1.2,0.6-1.8l1.1,0.3
		c-0.2,0.5-0.4,1-0.5,1.5h5.6v1.1h-6.1c-0.5,1.1-1,2-1.6,2.9h2.6v-1.9h1.1v1.9h3.5v1.1h-3.5v1.9h4.2v1.1h-4.2v3h-1.1v-3h-4.4v-1.1
		h4.4v-1.9h-3.7l-0.3-1.1c0.6-0.8,1.2-1.7,1.8-2.9h-2.1v-1.1H49.5z"/>
	<path class="st3" d="M61.9,296.4c-0.7,2-1.5,3.6-2.3,4.8c0.7-0.1,1.3-0.2,2-0.3c0.3-0.5,0.6-1.1,0.9-1.7l1.1,0.4
		c-1.4,2.6-2.5,4.4-3.4,5.5c1-0.2,1.9-0.5,2.9-0.8v1c-1.5,0.5-2.9,0.8-4.3,1l-0.3-1.1c0.2-0.1,0.4-0.2,0.5-0.3
		c0.6-0.6,1.3-1.6,2.1-3c-0.8,0.1-1.6,0.3-2.5,0.4l-0.3-1.1c0.2-0.1,0.3-0.2,0.5-0.4c0.8-1.4,1.5-3.1,2-4.9L61.9,296.4z M63.2,308.3
		c-1.4,0.6-3,1-4.7,1.4l-0.1-1.1c1.9-0.3,3.5-0.8,4.9-1.4V308.3z M67.9,305.2c0-0.4,0.1-0.7,0.1-1.1v-3h1.1v3c0,0.4,0,0.7-0.1,1.1
		h3.7v1.1h-3.9c-0.1,0.3-0.2,0.5-0.3,0.8c1.6,0.7,3,1.6,4.3,2.6l-0.6,1c-1.3-1.1-2.7-2-4.1-2.7c-0.1,0.2-0.2,0.3-0.3,0.4
		c-0.8,1-2,1.7-3.8,2.3l-0.6-1c1.7-0.5,2.9-1.2,3.6-2.1c0.3-0.4,0.5-0.8,0.7-1.3h-4.2v-1.1H67.9z M66.5,304.2L66,305
		c-0.8-0.7-1.6-1.2-2.4-1.6l0.5-0.8C65,303,65.8,303.5,66.5,304.2z M67.6,296.9v-1.1h1.1v1.1h3.4v1h-3.4v1.5h3.7v0.7
		c-0.2,1-0.5,2-0.9,3l-1.1-0.3c0.3-0.7,0.6-1.5,0.8-2.4h-7.3v-1.1h3.7V298h-3.2v-1H67.6z M67.6,302.4l-0.5,0.8
		c-0.7-0.6-1.5-1.2-2.2-1.5l0.5-0.8C66.2,301.3,66.9,301.8,67.6,302.4z"/>
	<path class="st3" d="M86.4,298.3c0.7,0.6,1,1.4,1,2.4s-0.4,1.9-1.1,2.7c-0.4,0.4-1.2,1-2.4,1.8c-1.5,1-2.3,1.9-2.5,2.6h6v1.2h-7.6
		c0-1,0.4-2,1.1-2.8c0.4-0.5,1.3-1.2,2.5-2c0.9-0.6,1.5-1.1,1.8-1.4c0.6-0.6,0.9-1.3,0.9-2c0-0.7-0.2-1.2-0.6-1.6s-1-0.6-1.7-0.6
		c-0.8,0-1.4,0.3-1.8,0.8c-0.4,0.5-0.7,1.3-0.7,2.3h-1.3c0-1.3,0.4-2.3,1.1-3.1c0.7-0.8,1.6-1.2,2.8-1.2
		C84.8,297.3,85.7,297.7,86.4,298.3z"/>
	<path class="st3" d="M96.3,299.2c0.6,1,0.9,2.4,0.9,4.1c0,1.7-0.3,3.1-0.9,4.1c-0.7,1.2-1.7,1.8-3.1,1.8c-1.4,0-2.4-0.6-3.1-1.8
		c-0.6-1-0.9-2.4-0.9-4.1c0-1.7,0.3-3.1,0.9-4.1c0.7-1.2,1.7-1.8,3.1-1.8C94.5,297.3,95.6,297.9,96.3,299.2z M91,300.1
		c-0.3,0.8-0.5,1.8-0.5,3.2c0,1.3,0.2,2.4,0.5,3.2c0.4,1.1,1.2,1.6,2.2,1.6s1.8-0.6,2.2-1.6c0.3-0.8,0.5-1.8,0.5-3.2
		c0-1.3-0.2-2.4-0.5-3.2c-0.4-1.1-1.2-1.6-2.2-1.6S91.4,299,91,300.1z"/>
	<path class="st3" d="M111.8,295.9c1.3,2.2,3.6,4.1,6.9,5.8l-0.7,1c-3-1.6-5.3-3.5-6.7-5.8c-1.8,2.5-4,4.5-6.7,5.9l-0.7-1
		c3-1.5,5.3-3.5,6.9-5.9H111.8z M111.9,300.7v9.9h-1.2v-9.9H111.9z"/>
	<path class="st3" d="M122.4,310.6l-0.9-0.8c1.1-1.4,1.6-3.3,1.6-5.5v-7.8h9.2v12.5c0,0.9-0.5,1.4-1.4,1.4h-2.1l-0.3-1.1
		c0.7,0,1.4,0.1,2,0.1c0.4,0,0.6-0.2,0.6-0.7v-3.2h-6.9C124.1,307.6,123.5,309.3,122.4,310.6z M131.2,297.7h-6.8v2.8h6.8V297.7z
		 M124.3,304.4h6.8v-2.9h-6.8V304.4z"/>
	<path class="st3" d="M136.6,305.8l-0.7-0.9c2-1.6,3.6-3.5,4.7-5.7h-4.1v-1.1h4.7c0.3-0.7,0.6-1.5,0.8-2.3l1.2,0.1
		c-0.2,0.7-0.5,1.5-0.8,2.1h8.1v1.1h-8.6c-0.6,1.3-1.4,2.4-2.2,3.5v7.9h-1.1v-6.6C137.9,304.7,137.3,305.3,136.6,305.8z
		 M144.7,303.4v-3h1.2v3h3.8v1.1h-3.8v4.4h4.5v1.1h-10v-1.1h4.3v-4.4h-3.7v-1.1H144.7z"/>
	<path class="st3" d="M155.1,305c-0.5,0.8-1.2,1.6-2,2.2l-0.8-0.6c0.7-0.6,1.3-1.2,1.9-2L155.1,305z M164.9,296.5v4.1h-5v0.9h5.6
		v0.8h-5.6v1h6.5v0.9h-14.1v-0.9h6.5v-1h-5.5v-0.8h5.5v-0.9h-4.9v-4.1H164.9z M158.8,307.1v-1.3h1.1v1.3h4.6v0.9h-4.6v1.3h6.2v1
		h-13.6v-1h6.3V308h-4.5v-0.9H158.8z M158.8,297.4h-4v2.3h2.4c-0.4-0.5-0.8-1.1-1.4-1.6l0.6-0.6c0.5,0.5,1,1.1,1.4,1.6l-0.6,0.6h1.6
		V297.4z M158.1,306.3l-0.9,0.3c-0.2-0.6-0.5-1.2-0.8-1.8l0.9-0.3C157.6,305.2,157.9,305.8,158.1,306.3z M163.8,297.4h-4v2.3h1.6
		l-0.6-0.6c0.5-0.5,0.9-1,1.3-1.5l0.7,0.5c-0.4,0.6-0.9,1.2-1.3,1.6h2.3V297.4z M162.2,306.4l-0.9,0.3c-0.3-0.7-0.6-1.3-0.9-1.9
		l0.9-0.3C161.7,305.2,162,305.8,162.2,306.4z M166.4,306.7l-0.7,0.7c-0.5-0.7-1.3-1.3-2.2-2.1l0.7-0.7
		C165,305.3,165.8,306,166.4,306.7z"/>
	<path class="st3" d="M174.4,301.6c0.2-1.1,0.3-2.3,0.4-3.7H169v-1.1h12.6v1.1H176c-0.1,1.4-0.2,2.6-0.4,3.7h6.6v1.1h-5.9
		c1.1,3,3.2,5.4,6.4,7l-0.7,0.9c-3.3-1.8-5.5-4.3-6.6-7.6c-0.3,1.1-0.6,2-1,2.8c-1.1,1.9-2.9,3.5-5.5,4.9l-0.7-0.9
		c2.4-1.2,4.1-2.7,5.1-4.4c0.4-0.7,0.8-1.6,1-2.6h-5.6v-1.1H174.4z"/>
	<path class="st3" d="M188.4,300.3v2.4h1.8v1h-1.8v2.2c0.8-0.2,1.5-0.3,2.2-0.5v1.1c-0.7,0.2-1.5,0.4-2.2,0.5v3.5h-1.1v-3.3
		c-1,0.2-2,0.3-3.1,0.5l-0.1-1.1c1.2-0.1,2.2-0.3,3.3-0.5v-2.4h-2.7l-0.2-1c0.4-1,0.9-2.2,1.3-3.6H184V298h1.9
		c0.2-0.7,0.3-1.4,0.4-2.1l1.1,0.2c-0.1,0.7-0.3,1.3-0.4,2h3.2v1.1h-3.5c-0.4,1.4-0.8,2.6-1.2,3.6h1.8v-2.4H188.4z M194.8,296
		c0.8,2,2.1,3.7,4,5.1l-0.7,1c-1.7-1.3-3-3-3.8-5c-1,2.2-2.4,3.9-3.9,5.1l-0.6-1c1.7-1.3,3.1-3.1,4-5.2H194.8z M193.2,310.4
		c-1,0-1.5-0.6-1.5-1.7v-6.9h1.1v2.8c1.3-0.6,2.5-1.3,3.7-2.3l0.7,0.9c-1.6,1.1-3,2-4.4,2.5v2.7c0,0.6,0.2,0.8,0.8,0.8h2.4
		c0.4,0,0.7-0.1,0.8-0.4c0.2-0.3,0.4-1.1,0.4-2.5l1.1,0.4c-0.1,1.7-0.4,2.7-0.7,3.1c-0.3,0.3-0.8,0.5-1.4,0.5H193.2z"/>
	<path class="st3" d="M213.9,310.6h-1.2v-0.7h-10.8v0.7h-1.2v-13.9h13.2V310.6z M212.7,308.8v-11h-10.8v11H212.7z M211.3,299.2v1
		h-3.4v2.3h2.9v1h-2.9v2.5h3.8v1.1h-8.8v-1.1h3.8v-2.5h-2.9v-1h2.9v-2.3h-3.4v-1H211.3z M210.8,305.7l-0.9,0.4
		c-0.3-0.7-0.7-1.3-1.1-1.9l0.9-0.3C210.2,304.5,210.5,305,210.8,305.7z"/>
	<path class="st3" d="M224.1,297.6h5.6v1.1h-2.8c-0.2,0.8-0.4,1.7-0.8,2.4h3.9v1.1h-11.5v2.4c-0.1,2.5-0.6,4.5-1.7,6l-0.9-0.8
		c0.9-1.2,1.4-3,1.5-5.2v-3.5h3.3l-0.7-2.4h-2.9v-1.1h5.9c-0.2-0.6-0.5-1.2-0.8-1.6l1.2-0.2C223.6,296.3,223.9,296.9,224.1,297.6z
		 M225,301.1c0.4-0.8,0.6-1.6,0.8-2.4h-4.7l0.7,2.4H225z"/>
	<path class="st3" d="M236.1,303.5c-0.1,0.3-0.2,0.6-0.3,0.9h3.3v0.9c-0.4,1.1-0.9,2-1.8,2.7c0.8,0.4,1.5,0.7,2.2,1.1L239,310
		c-0.7-0.4-1.5-0.8-2.5-1.3c-1.1,0.7-2.4,1.3-4,1.8l-0.5-1c1.3-0.4,2.4-0.8,3.4-1.3c-0.7-0.3-1.4-0.6-2.2-0.9c0.4-0.7,0.8-1.4,1.1-2
		h-1.9v-1h2.3c0.1-0.4,0.3-0.7,0.4-1L236.1,303.5z M235.5,299v-3.1h1.1v3.1h2.9v1h-2.9v0.2c0.9,0.4,1.8,0.9,2.7,1.5l-0.6,0.9
		c-0.8-0.6-1.5-1.2-2.1-1.5v2.1h-1.1v-3c-0.5,1.3-1.5,2.4-2.9,3.3l-0.6-0.9c1.2-0.7,2.1-1.5,2.6-2.4h-2.3v-1H235.5z M234.6,298.2
		l-0.8,0.4c-0.3-0.8-0.7-1.5-1.1-2.1l0.9-0.3C234,296.9,234.3,297.5,234.6,298.2z M238.1,305.4h-2.8c-0.3,0.5-0.5,1.1-0.9,1.5
		c0.6,0.2,1.2,0.4,1.8,0.7C237.1,307,237.7,306.2,238.1,305.4z M239.3,296.6c-0.3,0.7-0.7,1.4-1.2,2.1l-0.8-0.4
		c0.5-0.7,0.9-1.4,1.2-2L239.3,296.6z M241.1,302.1c-0.3,0.7-0.6,1.4-0.9,2l-0.7-0.9c0.9-1.8,1.6-4.2,1.9-7.3l1.1,0.2
		c-0.1,0.8-0.2,1.6-0.4,2.3h4.2v1.1h-1c-0.1,2.7-0.6,5-1.5,6.9c0.8,1.4,1.8,2.5,3,3.3l-0.6,0.9c-1.1-0.8-2.1-1.9-2.9-3.2
		c-0.8,1.3-1.8,2.4-3,3.2l-0.6-1c1.2-0.9,2.2-2,3-3.3C242,305.1,241.5,303.7,241.1,302.1z M241.6,300.3c0.4,1.9,0.9,3.5,1.6,4.8
		c0.6-1.6,1-3.5,1-5.7h-2.4L241.6,300.3z"/>
	<path class="st3" d="M248.6,310.5l-0.2-1.1c0.4,0,0.8,0.1,1.2,0.1c0.4,0,0.6-0.2,0.6-0.7v-3.9c-0.6,0.2-1.3,0.5-1.9,0.7l-0.3-1.1
		c0.7-0.2,1.5-0.4,2.2-0.7v-3.6h-1.9V299h1.9v-3h1.1v3h1.5v1.1h-1.5v3.2c0.5-0.2,1-0.5,1.5-0.7v1.1c-0.5,0.3-1,0.5-1.5,0.7v4.7
		c0,0.9-0.4,1.4-1.3,1.4H248.6z M252.8,310.6l-0.9-0.8c1.1-2.1,1.7-4.9,1.7-8.2v-5h8.4v3.9h-3v1.9h3.4v1h-3.4v2h2.7v5.2h-1.1v-0.8
		h-4.3v0.8h-1.1v-5.2h2.7v-2h-3.3C254.5,306.1,253.9,308.5,252.8,310.6z M254.8,300.5v1.1c0,0.3,0,0.5,0,0.8h3.2v-1.9H254.8z
		 M254.8,297.6v1.8h6.2v-1.8H254.8z M260.7,308.8v-2.4h-4.3v2.4H260.7z"/>
	<path class="st3" d="M272.7,297.3h5.8v1.1h-11.9v3.6c-0.1,3.5-0.6,6.4-1.6,8.5l-0.9-0.8c0.9-1.8,1.3-4.4,1.4-7.6v-4.8h6
		c-0.3-0.5-0.5-0.9-0.8-1.3l1.3-0.2C272.1,296.3,272.4,296.8,272.7,297.3z M271.9,299.2c-0.1,0.4-0.3,0.9-0.4,1.3h6.2v1h-6.6
		c-0.4,1-0.9,1.9-1.4,2.7h3v-1.9h1.2v1.9h3.6v1h-3.6v1.8h4.8v1.1h-4.8v2.5h-1.2v-2.5h-5.8V307h5.8v-1.8h-4.2l-0.2-1
		c0.6-0.8,1.2-1.7,1.7-2.8h-2.4v-1h2.8c0.2-0.5,0.4-1,0.5-1.5L271.9,299.2z"/>
	<path class="st3" d="M283.6,302.3l-0.8,0.8c-0.6-0.7-1.5-1.5-2.5-2.4l0.8-0.8C282,300.7,282.9,301.5,283.6,302.3z M283.7,304.6
		c-0.6,2-1.3,4-2.1,5.8l-1.1-0.5c0.8-1.9,1.5-3.7,2.1-5.7L283.7,304.6z M283.9,298.2l-0.8,0.8c-0.6-0.7-1.4-1.3-2.5-2.1l0.8-0.8
		C282.4,296.8,283.2,297.5,283.9,298.2z M286.6,303.3c-0.1,2.1-0.3,3.6-0.6,4.6c-0.4,1-1,1.9-1.9,2.6l-0.7-0.9
		c0.8-0.6,1.3-1.4,1.6-2.2c0.3-0.8,0.5-2.2,0.5-4.1H286.6z M284.6,301.6c0.1,0,0.2-0.1,0.2-0.1c0.6-0.4,1.4-1.4,2.3-2.9h-2.8v-1h4.5
		c-0.2-0.6-0.5-1.1-0.7-1.6l1.2-0.2c0.3,0.5,0.5,1.2,0.7,1.8h4.2v1h-5.8c-0.8,1.3-1.4,2.3-2,2.9c1.8-0.1,3.7-0.3,5.5-0.5
		c-0.4-0.5-0.7-0.9-1.1-1.4l0.9-0.6c1.1,1.3,1.9,2.4,2.5,3.4l-0.9,0.7c-0.2-0.4-0.5-0.8-0.7-1.2c-2.4,0.3-4.9,0.5-7.7,0.6
		L284.6,301.6z M289.3,303.3v6.9h-1.2v-6.9H289.3z M292.3,310.4c-0.9,0-1.4-0.4-1.4-1.2v-5.8h1.1v5.6c0,0.2,0.1,0.4,0.3,0.4h0.7
		c0.3,0,0.4-0.2,0.5-0.6c0.1-0.4,0.1-1,0.1-1.9l1,0.4c0,1.4-0.1,2.3-0.3,2.6c-0.2,0.3-0.6,0.5-1.2,0.5H292.3z"/>
	<path class="st3" d="M300.6,296.5c-0.9,1.8-2.3,3.3-4.3,4.7l-0.3-1.2c1.7-1.2,2.9-2.5,3.6-4L300.6,296.5z M301.4,300.2
		c-0.5,0.9-1,1.8-1.7,2.6v7.8h-1.1v-6.7c-0.6,0.6-1.3,1.1-2.1,1.7l-0.3-1.2c2-1.4,3.4-2.9,4.3-4.7L301.4,300.2z M310.5,301v1.1h-2.6
		v7c0,0.9-0.5,1.4-1.6,1.4H304l-0.2-1.1c0.8,0,1.5,0.1,2.2,0.1c0.5,0,0.8-0.2,0.8-0.6v-6.7h-5V301H310.5z M309.8,296.9v1.1h-7.7
		v-1.1H309.8z"/>
	<path class="st3" d="M314.6,302.4c-0.1,3.4-0.6,6.1-1.7,8.2l-0.9-0.8c0.9-1.8,1.4-4.2,1.4-7.4v-5.2h6.2c-0.2-0.4-0.4-0.8-0.6-1.1
		l1.2-0.2c0.2,0.4,0.4,0.8,0.6,1.3h5.5v1.1h-11.7v1.8h2.7v-1.3h1.1v1.3h4.2v-1.3h1.1v1.3h2.5v1.1h-2.5v2.5h-6.5v-2.5h-2.7V302.4z
		 M324.9,304.7v0.8c-0.9,1.1-2,2-3.3,2.8c1.4,0.6,3.1,1,5,1.3l-0.5,1c-2.2-0.4-4.1-0.9-5.6-1.7c-1.6,0.8-3.5,1.3-5.6,1.7l-0.5-1
		c1.9-0.3,3.5-0.7,5-1.3c-1.2-0.7-2.2-1.6-2.9-2.6h-1v-1H324.9z M320.4,307.8c1.1-0.6,2.1-1.3,2.9-2.1h-5.7
		C318.4,306.6,319.3,307.3,320.4,307.8z M318.4,302.7h4.2v-1.5h-4.2V302.7z"/>
</g>
<g class="st0">
	<path class="st3" d="M1,342.7l-0.3-1.1c0.5,0,0.9,0.1,1.3,0.1c0.4,0,0.7-0.2,0.7-0.6v-3.8c-0.6,0.2-1.2,0.4-1.8,0.6l-0.3-1.2
		c0.7-0.2,1.4-0.4,2-0.6v-3.7H1v-1.1h1.7v-3h1.1v3h1.4v1.1H3.9v3.3c0.5-0.3,1-0.5,1.6-0.8v1.2c-0.5,0.3-1,0.5-1.6,0.8v4.6
		c0,0.9-0.5,1.3-1.4,1.3H1z M9.4,328.2v14.7H8.3v-3.5H5.2v-1.1h3.2v-2.8H6.1v-1.1h2.3v-2.7H5.8v-1h2.5v-2.6H9.4z M12.5,328.2v2.6
		h2.7v1h-2.7v2.7h2.4v1.1h-2.4v2.8h2.8v1.1h-2.8v3.5h-1.1v-14.7H12.5z"/>
	<path class="st3" d="M21.3,328.8c-0.9,1.8-2.3,3.3-4.3,4.7l-0.3-1.2c1.7-1.2,2.9-2.5,3.6-4L21.3,328.8z M22.1,332.5
		c-0.5,0.9-1,1.8-1.7,2.6v7.8h-1.1v-6.7c-0.6,0.6-1.3,1.1-2.1,1.7l-0.3-1.2c2-1.4,3.4-2.9,4.3-4.7L22.1,332.5z M31.2,333.3v1.1h-2.6
		v7c0,0.9-0.5,1.4-1.6,1.4h-2.4l-0.2-1.1c0.8,0,1.5,0.1,2.2,0.1c0.5,0,0.8-0.2,0.8-0.6v-6.7h-5v-1.1H31.2z M30.5,329.2v1.1h-7.7
		v-1.1H30.5z"/>
	<path class="st3" d="M34.9,331.1v-2.9H36v2.9h1.7v1.1H36v1.2c0.6,0.8,1.3,1.6,1.9,2.6l-0.6,1c-0.5-1-0.9-1.7-1.3-2.3v8.2h-1.1v-8
		c-0.5,1.5-1.1,2.9-1.8,4.1l-0.5-1.3c1.1-1.6,1.8-3.4,2.3-5.4h-2v-1.1H34.9z M42.2,335.7c-0.2-0.5-0.4-1-0.6-1.5l1.1-0.2
		c0.2,0.5,0.4,1.1,0.6,1.7h3.8v1.1h-5.3c0,0.5-0.1,1-0.2,1.5h4.4c0,2.3-0.2,3.7-0.7,4.1c-0.2,0.2-0.5,0.3-0.9,0.4
		c-0.3,0-0.7,0.1-1,0.1h-0.9l-0.3-1h1.4c0.4,0,0.7-0.1,0.9-0.3c0.2-0.2,0.3-0.9,0.4-2.2h-3.6c-0.6,1.6-1.6,2.9-3.2,3.7l-0.6-1
		c2-1.1,3-2.8,3.2-5.2h-2.5v-1.1H42.2z M42.1,329.6c-0.2-0.5-0.4-0.9-0.6-1.3l1.2-0.2c0.2,0.4,0.4,0.9,0.6,1.5h3.6v1h-1.6
		c-0.1,0.6-0.3,1.3-0.6,1.9h2.2v2.4h-1.1v-1.4h-6.4v1.5h-1.1v-2.5h2.3c-0.2-0.7-0.4-1.3-0.6-1.9h-1.6v-1H42.1z M44.1,330.6h-3
		c0.2,0.6,0.4,1.2,0.6,1.9h1.9C43.8,331.9,44,331.3,44.1,330.6z"/>
	<path class="st3" d="M55.8,328.2v4.9h5.9v1.1h-5.9v6.9h7.3v1.1H48.9v-1.1h5.8v-12.9H55.8z"/>
	<path class="st3" d="M65,342.7l-0.3-1.1c0.5,0,0.9,0.1,1.3,0.1c0.4,0,0.7-0.2,0.7-0.6v-3.8c-0.6,0.2-1.2,0.4-1.8,0.6l-0.3-1.2
		c0.7-0.2,1.4-0.4,2-0.6v-3.7H65v-1.1h1.7v-3h1.1v3h1.4v1.1h-1.4v3.3c0.5-0.3,1-0.5,1.6-0.8v1.2c-0.5,0.3-1,0.5-1.6,0.8v4.6
		c0,0.9-0.5,1.3-1.4,1.3H65z M73.4,328.2v14.7h-1.1v-3.5h-3.2v-1.1h3.2v-2.8h-2.3v-1.1h2.3v-2.7h-2.5v-1h2.5v-2.6H73.4z M76.5,328.2
		v2.6h2.7v1h-2.7v2.7h2.4v1.1h-2.4v2.8h2.8v1.1h-2.8v3.5h-1.1v-14.7H76.5z"/>
	<path class="st3" d="M85.3,328.8c-0.9,1.8-2.3,3.3-4.3,4.7l-0.3-1.2c1.7-1.2,2.9-2.5,3.6-4L85.3,328.8z M86.1,332.5
		c-0.5,0.9-1,1.8-1.7,2.6v7.8h-1.1v-6.7c-0.6,0.6-1.3,1.1-2.1,1.7l-0.3-1.2c2-1.4,3.4-2.9,4.3-4.7L86.1,332.5z M95.2,333.3v1.1h-2.6
		v7c0,0.9-0.5,1.4-1.6,1.4h-2.4l-0.2-1.1c0.8,0,1.5,0.1,2.2,0.1c0.5,0,0.8-0.2,0.8-0.6v-6.7h-5v-1.1H95.2z M94.5,329.2v1.1h-7.7
		v-1.1H94.5z"/>
	<path class="st3" d="M97.9,331.9l-1-0.6c1-1,1.8-2,2.2-3.2l1.1,0.2c-0.1,0.4-0.3,0.7-0.4,1h4.3v1h-2.6c0.4,0.5,0.7,0.9,1,1.3
		l-1,0.4c-0.3-0.6-0.7-1.2-1.2-1.7h-1C98.8,330.9,98.4,331.5,97.9,331.9z M98.2,333.5v-1.1h11.7v3.6h-5.2v1.6h5.8
		c0,1.9-0.1,3.1-0.4,3.6c-0.3,0.5-0.8,0.8-1.7,0.8c-0.7,0-1.3,0-2,0l-0.3-1.1c0.7,0,1.4,0,2.1,0c0.5,0,0.8-0.2,0.9-0.5
		c0.1-0.3,0.1-0.9,0.1-1.8h-4.6v4.2h-1.1v-4.2h0c-1.1,1.5-3,2.8-5.9,3.9l-0.7-1.1c2.6-0.8,4.3-1.8,5.3-2.9h-4.4l0.7-3.6h5v-1.5H98.2
		z M99.6,336.1l-0.4,1.6h4.3v-1.6H99.6z M104.7,332l-1-0.6c0.9-1,1.5-2.1,2-3.2l1.1,0.2c-0.1,0.3-0.2,0.6-0.4,0.9h4.7v1h-2.9
		c0.4,0.5,0.7,1,1,1.4l-1,0.4c-0.3-0.6-0.7-1.2-1.2-1.8h-1.1C105.6,330.9,105.2,331.5,104.7,332z M108.7,335v-1.5h-4v1.5H108.7z"/>
	<path class="st3" d="M127.2,334.8v1.2h-14.4v-1.2H127.2z"/>
</g>
<g class="st0">
	<path class="st1" d="M5.6,452c5.2-4.3,9.3-7.9,12.4-10.6c3-2.8,5.6-5.7,7.6-8.7s3.1-6,3.1-8.9c0-2.2-0.5-3.9-1.5-5.1
		c-1-1.2-2.5-1.8-4.6-1.8c-2,0-3.6,0.8-4.8,2.3c-1.1,1.5-1.7,3.7-1.7,6.4H3c0.1-4.5,1.1-8.3,2.9-11.4c1.8-3,4.3-5.3,7.3-6.7
		c3-1.4,6.4-2.2,10-2.2c6.3,0,11.1,1.6,14.4,4.9c3.2,3.3,4.8,7.5,4.8,12.7c0,5.7-1.9,11-5.8,15.9c-3.9,4.9-8.9,9.6-14.9,14.3h21.6
		v11.1H3.1V454C4.9,452.6,5.8,451.9,5.6,452z"/>
	<path class="st1" d="M54.6,413.3c3.5-5.3,9.3-7.9,17.2-7.9c7.9,0,13.6,2.6,17.2,7.9c3.5,5.3,5.3,12.5,5.3,21.7
		c0,9.3-1.8,16.6-5.3,21.8c-3.5,5.3-9.3,7.9-17.2,7.9c-7.9,0-13.6-2.6-17.2-7.9c-3.5-5.3-5.3-12.6-5.3-21.8
		C49.3,425.8,51.1,418.6,54.6,413.3z M79,422.6c-1.2-2.9-3.6-4.4-7.3-4.4c-3.7,0-6.1,1.5-7.3,4.4c-1.2,2.9-1.8,7.1-1.8,12.4
		c0,3.6,0.2,6.6,0.6,9c0.4,2.4,1.3,4.3,2.6,5.8c1.3,1.5,3.2,2.2,5.8,2.2s4.5-0.7,5.8-2.2c1.3-1.5,2.2-3.4,2.6-5.8
		c0.4-2.4,0.6-5.4,0.6-9C80.8,429.6,80.2,425.5,79,422.6z"/>
	<path class="st1" d="M103.4,452c5.2-4.3,9.3-7.9,12.4-10.6c3-2.8,5.6-5.7,7.6-8.7s3.1-6,3.1-8.9c0-2.2-0.5-3.9-1.5-5.1
		c-1-1.2-2.5-1.8-4.6-1.8c-2,0-3.6,0.8-4.8,2.3c-1.1,1.5-1.7,3.7-1.7,6.4h-13.2c0.1-4.5,1.1-8.3,2.9-11.4c1.8-3,4.3-5.3,7.3-6.7
		c3-1.4,6.4-2.2,10-2.2c6.3,0,11.1,1.6,14.4,4.9c3.2,3.3,4.8,7.5,4.8,12.7c0,5.7-1.9,11-5.8,15.9c-3.9,4.9-8.9,9.6-14.9,14.3h21.6
		v11.1H101V454C102.8,452.6,103.6,451.9,103.4,452z"/>
	<path class="st1" d="M152.4,413.3c3.5-5.3,9.3-7.9,17.2-7.9c7.9,0,13.6,2.6,17.2,7.9c3.5,5.3,5.3,12.5,5.3,21.7
		c0,9.3-1.8,16.6-5.3,21.8c-3.5,5.3-9.3,7.9-17.2,7.9c-7.9,0-13.6-2.6-17.2-7.9c-3.5-5.3-5.3-12.6-5.3-21.8
		C147.1,425.8,148.9,418.6,152.4,413.3z M176.9,422.6c-1.2-2.9-3.6-4.4-7.3-4.4c-3.7,0-6.1,1.5-7.3,4.4c-1.2,2.9-1.8,7.1-1.8,12.4
		c0,3.6,0.2,6.6,0.6,9c0.4,2.4,1.3,4.3,2.6,5.8c1.3,1.5,3.2,2.2,5.8,2.2c2.6,0,4.5-0.7,5.8-2.2c1.3-1.5,2.2-3.4,2.6-5.8
		c0.4-2.4,0.6-5.4,0.6-9C178.6,429.6,178.1,425.5,176.9,422.6z"/>
</g>
<g class="st0">
	<path class="st1" d="M5.6,930c5.2-4.3,9.3-7.9,12.4-10.6c3-2.8,5.6-5.7,7.6-8.7s3.1-6,3.1-8.9c0-2.2-0.5-3.9-1.5-5.1
		c-1-1.2-2.5-1.8-4.6-1.8c-2,0-3.6,0.8-4.8,2.3c-1.1,1.5-1.7,3.7-1.7,6.4H3c0.1-4.5,1.1-8.3,2.9-11.4c1.8-3,4.3-5.3,7.3-6.7
		c3-1.4,6.4-2.2,10-2.2c6.3,0,11.1,1.6,14.4,4.9c3.2,3.3,4.8,7.5,4.8,12.7c0,5.7-1.9,11-5.8,15.9c-3.9,4.9-8.9,9.6-14.9,14.3h21.6
		v11.1H3.1V932C4.9,930.6,5.8,929.9,5.6,930z"/>
	<path class="st1" d="M54.6,891.3c3.5-5.3,9.3-7.9,17.2-7.9c7.9,0,13.6,2.6,17.2,7.9c3.5,5.3,5.3,12.5,5.3,21.7
		c0,9.3-1.8,16.6-5.3,21.8c-3.5,5.3-9.3,7.9-17.2,7.9c-7.9,0-13.6-2.6-17.2-7.9c-3.5-5.3-5.3-12.6-5.3-21.8
		C49.3,903.8,51.1,896.6,54.6,891.3z M79,900.6c-1.2-2.9-3.6-4.4-7.3-4.4c-3.7,0-6.1,1.5-7.3,4.4c-1.2,2.9-1.8,7.1-1.8,12.4
		c0,3.6,0.2,6.6,0.6,9c0.4,2.4,1.3,4.3,2.6,5.8c1.3,1.5,3.2,2.2,5.8,2.2s4.5-0.7,5.8-2.2c1.3-1.5,2.2-3.4,2.6-5.8
		c0.4-2.4,0.6-5.4,0.6-9C80.8,907.6,80.2,903.5,79,900.6z"/>
	<path class="st1" d="M100,897.3v-12.7h22.2V943h-14.2v-45.7H100z"/>
	<path class="st1" d="M153.6,932.2c2.8,0,4.8-1.3,6-3.8c1.2-2.5,1.8-6.6,1.8-12.2c-1.2,1.7-2.8,2.9-4.8,3.8c-2,0.9-4.3,1.4-6.8,1.4
		c-3.4,0-6.5-0.7-9.1-2.1c-2.7-1.4-4.8-3.5-6.3-6.3s-2.3-6.2-2.3-10.2c0-3.9,0.8-7.4,2.4-10.3c1.6-2.9,3.9-5.2,7-6.8
		c3-1.6,6.6-2.4,10.7-2.4c7.9,0,13.4,2.5,16.6,7.4c3.1,4.9,4.7,12.1,4.7,21.7c0,6.9-0.6,12.7-1.9,17.2c-1.3,4.5-3.4,7.9-6.3,10.3
		c-3,2.3-7,3.5-12.1,3.5c-4.1,0-7.5-0.8-10.4-2.4c-2.9-1.6-5-3.7-6.6-6.3c-1.5-2.6-2.4-5.5-2.6-8.6h12.6
		C147,930.1,149.5,932.2,153.6,932.2z M158.2,908.6c1.3-1.4,2-3.2,2-5.6c0-2.6-0.7-4.5-2.1-5.9c-1.4-1.4-3.3-2.1-5.6-2.1
		c-2.3,0-4.2,0.7-5.6,2.1c-1.4,1.4-2,3.3-2,5.8c0,2.3,0.7,4.1,2,5.6s3.3,2.1,5.9,2.1C155.1,910.6,156.9,909.9,158.2,908.6z"/>
</g>
<g class="st0">
	<path class="st2" d="M9.5,517.1v1.9H3.3L3,522.5H3c0.4-0.4,0.8-0.7,1.4-0.9c0.5-0.2,1-0.3,1.6-0.3c1.2,0,2.2,0.4,3,1.2
		c0.8,0.8,1.2,1.9,1.2,3.3c0,1.3-0.5,2.4-1.5,3.3c-0.9,0.8-2,1.1-3.3,1.1c-1.2,0-2.2-0.3-3-1c-0.9-0.7-1.4-1.7-1.5-2.8h2.1
		c0.1,0.7,0.4,1.2,0.8,1.6c0.4,0.3,1,0.5,1.7,0.5c0.8,0,1.4-0.2,1.9-0.7c0.5-0.5,0.8-1.1,0.8-1.9c0-0.9-0.2-1.5-0.7-2
		c-0.4-0.5-1.1-0.7-1.9-0.7c-0.6,0-1,0.1-1.4,0.3c-0.4,0.2-0.8,0.5-1,1H1l0.7-7.2H9.5z"/>
	<path class="st2" d="M20.6,532l-1.4-1.3c1.1-1.6,1.7-3.6,1.7-6v-8.8h10.9v14.1c0,1.2-0.6,1.8-1.8,1.8h-2.3l-0.5-1.8
		c0.8,0.1,1.5,0.1,2.2,0.1c0.4,0,0.5-0.3,0.5-0.7v-3h-7.2C22.4,528.6,21.7,530.5,20.6,532z M29.8,517.6h-7.1v2.5h7.1V517.6z
		 M22.7,524.5h7.1v-2.7h-7.1V524.5z"/>
</g>
<g class="st0">
	<path class="st3" d="M9.6,550.6v1.1h-4V562H4.3v-10.3h-4v-1.1H9.6z"/>
	<path class="st3" d="M12.6,550.9c0.2,0.2,0.3,0.4,0.3,0.7c0,0.3-0.1,0.5-0.3,0.7c-0.2,0.2-0.4,0.3-0.7,0.3s-0.5-0.1-0.7-0.3
		c-0.2-0.2-0.3-0.4-0.3-0.7c0-0.3,0.1-0.5,0.3-0.7c0.2-0.2,0.4-0.3,0.7-0.3S12.4,550.7,12.6,550.9z M12.6,553.7v8.3h-1.3v-8.3H12.6z
		"/>
	<path class="st3" d="M19.2,550.6c1.8,0,3.2,0.5,4.1,1.6c0.8,1,1.3,2.4,1.3,4.1c0,1.8-0.5,3.2-1.4,4.1c-1,1-2.3,1.6-4.1,1.6h-4
		v-11.4H19.2z M16.5,560.9h2.4c1.5,0,2.6-0.4,3.4-1.2c0.7-0.8,1.1-1.9,1.1-3.4c0-1.5-0.3-2.7-1-3.4c-0.7-0.8-1.8-1.2-3.3-1.2h-2.6
		V560.9z"/>
	<path class="st3" d="M31.6,550.6c1.1,0,1.9,0.3,2.5,0.8c0.6,0.5,0.9,1.2,0.9,2.1c0,0.6-0.2,1.2-0.5,1.7c-0.4,0.4-0.8,0.7-1.4,0.9
		c0.8,0.1,1.3,0.4,1.7,0.9c0.4,0.5,0.6,1.1,0.6,1.9c0,1.1-0.4,2-1.2,2.5c-0.7,0.4-1.6,0.7-2.8,0.7h-5.1v-11.4H31.6z M27.8,555.6h3.5
		c0.8,0,1.4-0.2,1.8-0.5c0.4-0.3,0.6-0.8,0.6-1.5c0-0.6-0.2-1.1-0.6-1.4c-0.4-0.3-1-0.5-1.8-0.5h-3.5V555.6z M27.8,560.9h3.6
		c0.8,0,1.4-0.2,1.9-0.4c0.6-0.4,0.8-0.9,0.8-1.6s-0.3-1.3-0.7-1.6c-0.5-0.4-1.1-0.5-2-0.5h-3.6V560.9z"/>
	<path class="st3" d="M48.8,550.6v7.8h1.9v1.1h-1.9v2.6h-1.2v-2.6h-5.7v-1.2l5.8-7.6H48.8z M42.9,558.3h4.6v-6.1h0L42.9,558.3z"/>
	<path class="st3" d="M53.9,560.4c0.2,0.2,0.3,0.4,0.3,0.7c0,0.3-0.1,0.5-0.3,0.7c-0.2,0.2-0.4,0.3-0.7,0.3c-0.3,0-0.5-0.1-0.7-0.3
		c-0.2-0.2-0.3-0.4-0.3-0.7c0-0.3,0.1-0.5,0.3-0.7c0.2-0.2,0.4-0.3,0.7-0.3C53.4,560.1,53.7,560.2,53.9,560.4z"/>
	<path class="st3" d="M63.2,552.2c0.6,1,0.9,2.4,0.9,4.1c0,1.7-0.3,3.1-0.9,4.1c-0.7,1.2-1.7,1.8-3.1,1.8c-1.4,0-2.4-0.6-3.1-1.8
		c-0.6-1-0.9-2.4-0.9-4.1c0-1.7,0.3-3.1,0.9-4.1c0.7-1.2,1.7-1.8,3.1-1.8C61.4,550.3,62.5,550.9,63.2,552.2z M57.9,553.1
		c-0.3,0.8-0.5,1.8-0.5,3.2c0,1.3,0.2,2.4,0.5,3.2c0.4,1.1,1.2,1.6,2.2,1.6s1.8-0.6,2.2-1.6c0.3-0.8,0.5-1.8,0.5-3.2
		c0-1.3-0.2-2.4-0.5-3.2c-0.4-1.1-1.2-1.6-2.2-1.6S58.3,552,57.9,553.1z"/>
	<path class="st3" d="M78.6,549c2,2.2,4.4,4,7,5.3l-0.6,1.1c-2.7-1.4-4.9-3.2-6.8-5.4c-1.7,2.1-4,3.9-6.9,5.4l-0.6-1.1
		c2.8-1.4,5.2-3.2,7.1-5.3H78.6z M79.3,553.2v3.6h4.4v1.1h-4.4v3.9h5.5v1.1H71.5v-1.1h2.4v-6.3H75v6.3h3.1v-8.6H79.3z"/>
	<path class="st3" d="M93.1,549.1v12.7h2.3v-12.7h1.2v12.7h4.8v1.1H87.1v-1.1h4.8v-12.7H93.1z M90.7,559.4l-1.1,0.3
		c-0.6-2.6-1.3-5-2.2-7.4l1-0.3C89.3,554.1,90.1,556.6,90.7,559.4z M100.9,552.3c-0.6,2.8-1.4,5.2-2.4,7.3l-1-0.4
		c0.9-1.9,1.7-4.3,2.4-7.2L100.9,552.3z"/>
	<path class="st3" d="M108,549.1v4.2h0.9v1.1h-3.8v0.8c0,0.5,0,1,0,1.4h3.1v6.8H107v-5.7h-2c-0.2,2.4-0.6,4.2-1.3,5.5l-0.9-0.8
		c0.7-1.5,1.1-4,1.1-7.3v-5.9h1.1v3.9h1.7v-4.2H108z M110.9,556.4c-0.1,3-0.6,5.3-1.6,7.1l-0.8-0.8c0.8-1.5,1.2-3.6,1.3-6.3v-6.4
		c2.5,0,4.8-0.4,6.8-1l0.6,1c-1.9,0.5-4,0.9-6.3,1v2.5h5.9v1c-0.4,2.2-1.1,4.1-2.1,5.6c0.8,1.1,1.7,1.9,2.9,2.4l-0.6,1
		c-1.2-0.6-2.2-1.5-3-2.5c-0.9,1-1.9,1.9-3.2,2.5l-0.6-1c1.2-0.7,2.2-1.5,3-2.5c-0.9-1.5-1.6-3.3-1.9-5.5h-0.5V556.4z M114,559.1
		c0.8-1.3,1.4-2.8,1.6-4.5h-3.2C112.8,556.4,113.3,557.9,114,559.1z"/>
	<path class="st3" d="M133,551.4c0.8,0.7,1.3,1.6,1.5,2.8h-1.3c-0.2-0.9-0.6-1.5-1.2-2c-0.6-0.5-1.4-0.7-2.4-0.7
		c-1.2,0-2.2,0.4-3,1.3c-0.7,0.9-1.1,2-1.1,3.5c0,1.4,0.4,2.6,1.1,3.4c0.8,0.9,1.9,1.3,3.4,1.3c0.6,0,1.2-0.1,1.8-0.3
		c0.6-0.2,1-0.4,1.4-0.6v-2.9h-3.6v-1.1h4.9v4.7c-0.5,0.4-1.2,0.8-2,1c-0.8,0.3-1.7,0.4-2.7,0.4c-1.8,0-3.2-0.6-4.2-1.7
		c-0.9-1.1-1.4-2.5-1.4-4.2c0-1.7,0.4-3.1,1.4-4.2c1-1.2,2.3-1.8,4-1.8C131,550.3,132.1,550.7,133,551.4z"/>
	<path class="st3" d="M141.5,550.6L146,562h-1.4l-1.2-3.2h-5.2l-1.2,3.2h-1.4l4.5-11.4H141.5z M143,557.7l-2.2-5.7h-0.1l-2.2,5.7
		H143z"/>
	<path class="st3" d="M154.5,549.4l1.1,0.2l-0.9,3.2h2.8c0.3-1.2,0.6-2.5,0.8-3.9l1.2,0.1c-0.2,1.3-0.5,2.6-0.8,3.8h7.5v1.1h-7.8
		c-0.2,0.6-0.4,1.2-0.6,1.8h6.5v1c-0.4,1.4-1.3,2.6-2.6,3.7c1.3,0.8,2.9,1.5,4.7,2.1l-0.6,1.1c-2-0.8-3.7-1.6-5.1-2.4
		c-1.3,0.9-2.9,1.8-4.9,2.5l-0.6-1.1c1.8-0.7,3.3-1.4,4.5-2.2c-1.2-1-2.1-2-2.7-3.1c-1.2,2.5-2.7,4.5-4.5,6l-0.6-1.1
		c2.3-2,4-4.8,5.2-8.4h-4L154.5,549.4z M160.7,559.7c1.2-0.9,2-1.9,2.4-3H158C158.5,557.8,159.4,558.8,160.7,559.7z M165,551.6
		l-0.8,0.8c-0.7-0.8-1.6-1.7-2.8-2.7l0.8-0.8C163.3,549.8,164.2,550.7,165,551.6z"/>
	<path class="st3" d="M173.1,549.1v4.2h0.9v1.1h-3.8v0.8c0,0.5,0,1,0,1.4h3.1v6.8h-1.1v-5.7h-2c-0.2,2.4-0.6,4.2-1.3,5.5l-0.9-0.8
		c0.7-1.5,1.1-4,1.1-7.3v-5.9h1.1v3.9h1.7v-4.2H173.1z M176,556.4c-0.1,3-0.6,5.3-1.6,7.1l-0.8-0.8c0.8-1.5,1.2-3.6,1.3-6.3v-6.4
		c2.5,0,4.8-0.4,6.8-1l0.6,1c-1.9,0.5-4,0.9-6.3,1v2.5h5.9v1c-0.4,2.2-1.1,4.1-2.1,5.6c0.8,1.1,1.7,1.9,2.9,2.4l-0.6,1
		c-1.2-0.6-2.2-1.5-3-2.5c-0.9,1-1.9,1.9-3.2,2.5l-0.6-1c1.2-0.7,2.2-1.5,3-2.5c-0.9-1.5-1.6-3.3-1.9-5.5H176V556.4z M179.2,559.1
		c0.8-1.3,1.4-2.8,1.6-4.5h-3.2C177.9,556.4,178.5,557.9,179.2,559.1z"/>
</g>
<g class="st0">
	<path class="st2" d="M8.9,616.6c0.8,1.1,1.2,2.6,1.2,4.6c0,2.1-0.5,3.8-1.3,5.1c-0.9,1.3-2.1,1.9-3.5,1.9c-2.5,0-4-1.2-4.3-3.5H3
		c0.3,1.2,1,1.8,2.2,1.8c0.8,0,1.5-0.4,2.1-1.3c0.5-0.8,0.7-1.8,0.7-3v-0.2H8c-0.4,0.5-0.8,0.9-1.4,1.2c-0.5,0.2-1.1,0.4-1.7,0.4
		c-1.3,0-2.3-0.4-3-1.2c-0.8-0.8-1.1-1.8-1.1-3.1c0-1.3,0.4-2.4,1.3-3.2c0.9-0.8,1.9-1.3,3.2-1.3C6.8,614.9,8,615.5,8.9,616.6z
		 M3.5,617.4c-0.5,0.5-0.7,1.2-0.7,1.9c0,0.8,0.2,1.4,0.7,1.9c0.4,0.5,1,0.7,1.8,0.7c0.8,0,1.4-0.3,1.8-0.7c0.4-0.5,0.7-1.1,0.7-2
		s-0.2-1.5-0.7-1.9c-0.5-0.5-1.1-0.7-1.8-0.7C4.6,616.6,4,616.9,3.5,617.4z"/>
	<path class="st2" d="M20.6,630l-1.4-1.3c1.1-1.6,1.7-3.6,1.7-6v-8.8h10.9v14.1c0,1.2-0.6,1.8-1.8,1.8h-2.3l-0.5-1.8
		c0.8,0.1,1.5,0.1,2.2,0.1c0.4,0,0.5-0.3,0.5-0.7v-3h-7.2C22.4,626.6,21.7,628.5,20.6,630z M29.8,615.6h-7.1v2.5h7.1V615.6z
		 M22.7,622.5h7.1v-2.7h-7.1V622.5z"/>
</g>
<g class="st0">
	<path class="st3" d="M9.6,648.6v1.1h-4V660H4.3v-10.3h-4v-1.1H9.6z"/>
	<path class="st3" d="M12.6,648.9c0.2,0.2,0.3,0.4,0.3,0.7c0,0.3-0.1,0.5-0.3,0.7c-0.2,0.2-0.4,0.3-0.7,0.3s-0.5-0.1-0.7-0.3
		c-0.2-0.2-0.3-0.4-0.3-0.7c0-0.3,0.1-0.5,0.3-0.7c0.2-0.2,0.4-0.3,0.7-0.3S12.4,648.7,12.6,648.9z M12.6,651.7v8.3h-1.3v-8.3H12.6z
		"/>
	<path class="st3" d="M19.2,648.6c1.8,0,3.2,0.5,4.1,1.6c0.8,1,1.3,2.4,1.3,4.1c0,1.8-0.5,3.2-1.4,4.1c-1,1-2.3,1.6-4.1,1.6h-4
		v-11.4H19.2z M16.5,658.9h2.4c1.5,0,2.6-0.4,3.4-1.2c0.7-0.8,1.1-1.9,1.1-3.4c0-1.5-0.3-2.7-1-3.4c-0.7-0.8-1.8-1.2-3.3-1.2h-2.6
		V658.9z"/>
	<path class="st3" d="M31.6,648.6c1.1,0,1.9,0.3,2.5,0.8c0.6,0.5,0.9,1.2,0.9,2.1c0,0.6-0.2,1.2-0.5,1.7c-0.4,0.4-0.8,0.7-1.4,0.9
		c0.8,0.1,1.3,0.4,1.7,0.9c0.4,0.5,0.6,1.1,0.6,1.9c0,1.1-0.4,2-1.2,2.5c-0.7,0.4-1.6,0.7-2.8,0.7h-5.1v-11.4H31.6z M27.8,653.6h3.5
		c0.8,0,1.4-0.2,1.8-0.5c0.4-0.3,0.6-0.8,0.6-1.5c0-0.6-0.2-1.1-0.6-1.4c-0.4-0.3-1-0.5-1.8-0.5h-3.5V653.6z M27.8,658.9h3.6
		c0.8,0,1.4-0.2,1.9-0.4c0.6-0.4,0.8-0.9,0.8-1.6s-0.3-1.3-0.7-1.6c-0.5-0.4-1.1-0.5-2-0.5h-3.6V658.9z"/>
	<path class="st3" d="M50,661.3c-1,0-1.9-0.1-2.5-0.3c-0.6-0.2-1.2-0.6-1.7-1.2c-0.2-0.3-0.4-0.4-0.6-0.4c-0.4,0-1,0.7-1.9,2.2
		l-0.9-0.8c0.8-1.3,1.6-2.2,2.3-2.4v-4.9h-2.3v-1.1h3.3v6c0.1,0.1,0.3,0.2,0.4,0.4c0.4,0.5,0.8,0.8,1.2,1c0.5,0.2,1.2,0.4,2.2,0.4
		c0.8,0,1.9,0,3.2,0c0.7,0,1.5,0,2.3,0c0.8,0,1.4,0,1.8-0.1l-0.3,1.2h-3.6C52,661.3,51,661.3,50,661.3z M46.3,649.7l-0.8,0.8
		c-0.7-0.8-1.6-1.6-2.8-2.5l0.8-0.8C44.6,648,45.5,648.8,46.3,649.7z M51.8,649.9c0.8-0.4,1.6-0.9,2.3-1.5H47v-1h8.7v0.8
		c-1,0.8-2,1.6-3.1,2.2l0.3,0.2H56v7.2c0,0.8-0.4,1.2-1.3,1.2h-1.3l-0.3-1l1.3,0c0.4,0,0.6-0.2,0.6-0.5v-1.2h-2.7v2.8h-1.1v-2.8
		h-2.7v2.8h-1.1v-8.5h4c-0.6-0.4-1.3-0.9-2.1-1.3l0.7-0.7C50.6,649.1,51.3,649.5,51.8,649.9z M51.1,651.6h-2.7v1.4h2.7V651.6z
		 M48.4,655.5h2.7V654h-2.7V655.5z M54.9,651.6h-2.7v1.4h2.7V651.6z M52.2,655.5h2.7V654h-2.7V655.5z"/>
	<path class="st3" d="M66.2,661.3c-1.1,0-2-0.1-2.6-0.3c-0.7-0.2-1.3-0.6-1.8-1.2c-0.2-0.3-0.4-0.4-0.7-0.4c-0.4,0-1,0.7-1.9,2.2
		l-0.9-0.8c0.9-1.4,1.6-2.2,2.3-2.5v-4.8h-2.3v-1.1h3.4v6c0.1,0.1,0.3,0.2,0.4,0.4c0.4,0.4,0.8,0.8,1.3,1c0.5,0.2,1.3,0.3,2.3,0.4
		c0.9,0,2,0,3.3,0c0.7,0,1.4,0,2.1,0c0.7,0,1.3,0,1.7-0.1l-0.3,1.2h-3.4C68.2,661.3,67.3,661.3,66.2,661.3z M62.2,649.7l-0.8,0.8
		c-0.7-0.8-1.6-1.7-2.7-2.6l0.8-0.8C60.5,648,61.4,648.8,62.2,649.7z M66.4,659.2l-0.3-1.1c0.7,0,1.5,0.1,2.1,0.1
		c0.4,0,0.7-0.2,0.7-0.7v-6.8h-6.1v-1.1H69V647h1.2v2.6h2.4v1.1h-2.4v7.1c0,0.9-0.5,1.4-1.5,1.4H66.4z M67,655.2l-0.9,0.6
		c-0.6-1-1.3-2-2.3-3.2l0.9-0.6C65.7,653.3,66.5,654.3,67,655.2z"/>
	<path class="st3" d="M75.4,649.3v-1.1h12.2v1.1h-5.5v10.1h6.5v1.1H74.3v-1.1h6.6v-10.1H75.4z"/>
	<path class="st3" d="M90.3,654.7l-0.4-1.2c1.6-1.9,2.7-4.2,3.4-6.7l1.1,0.5c-0.4,1.2-0.8,2.4-1.4,3.5v10.9h-1.1v-9
		C91.4,653.3,90.9,654,90.3,654.7z M99.3,649c-0.2-0.6-0.5-1.2-0.8-1.9l1.1-0.3c0.3,0.7,0.6,1.3,0.8,1.9l-0.6,0.2h5v1.1H94.4V649
		H99.3z M103.7,661.6h-1.1v-0.9h-5.9v0.9h-1.1V656h8.2V661.6z M103.4,651.4v1h-7.6v-1H103.4z M103.4,653.7v1.1h-7.6v-1.1H103.4z
		 M102.6,659.6v-2.5h-5.9v2.5H102.6z"/>
	<path class="st3" d="M109.5,652.9h1.7c0.5-0.9,0.9-1.8,1.2-2.8l1.1,0.4c-0.3,0.9-0.7,1.7-1.1,2.4h1.9v1.1h-8v-1.1h2.2
		c-0.3-0.8-0.6-1.6-1-2.3l1.1-0.4C108.8,650.9,109.2,651.8,109.5,652.9z M109.8,648.5c-0.2-0.5-0.4-1-0.6-1.4l1.2-0.2
		c0.2,0.5,0.4,1,0.5,1.6h3.3v1.1h-7.6v-1.1H109.8z M113.6,661.5h-1.1v-0.9h-4.1v0.9h-1.1v-6h6.4V661.5z M112.4,659.5v-3h-4.1v3
		H112.4z M120.3,647.6v0.9c-0.5,1.7-1,3.2-1.6,4.7c1.2,1.5,1.8,2.8,1.8,3.7c0,1-0.2,1.7-0.6,2.1c-0.4,0.4-1.3,0.6-2.6,0.6l-0.4-1.2
		c0.4,0,0.8,0.1,1.1,0.1c0.6,0,0.9-0.1,1.1-0.3c0.2-0.2,0.2-0.6,0.3-1.2c0-0.9-0.7-2.2-1.9-3.7c0.5-1.3,1.1-2.8,1.6-4.5h-2.9v12.9
		H115v-14H120.3z"/>
	<path class="st3" d="M136.6,656l-0.5,1c-0.9-0.3-1.6-0.6-2.3-0.9v3.1h-1.1v-2.8h-6.4v2.8h-1.1v-3.2c-0.7,0.4-1.5,0.7-2.4,1l-0.6-1
		c1.7-0.5,3-1,3.9-1.7h-3.5v-0.9h4.4v-1h-2v-0.8h2v-1h-2.4v-0.9h2.4v-0.9h-3v1.6H123v-2.6h6c-0.2-0.3-0.4-0.6-0.6-0.9l1.2-0.2
		c0.2,0.3,0.4,0.7,0.6,1.1h5.8v2.6h-1.1v-1.6h-3v0.9h2.4v0.9h-2.4v1h2.1v0.8h-2.1v1h4.4v0.9h-3.6C133.6,655,134.9,655.5,136.6,656z
		 M129.9,656.9c-0.2,1.7-0.6,2.8-1.2,3.4c-0.7,0.7-2.3,1.2-4.8,1.4l-0.4-1c2.2-0.1,3.6-0.5,4.3-1.1c0.6-0.6,1-1.5,1.1-2.8
		L129.9,656.9z M131.5,654.3h-4.1c-0.4,0.4-0.8,0.7-1.2,1.1h6.6C132.2,655,131.8,654.7,131.5,654.3z M128.2,648.8v0.9h2.6v-0.9
		H128.2z M130.7,650.6h-2.6v1h2.6V650.6z M130.7,653.4v-1h-2.6v1H130.7z M135.3,660.8l-0.6,0.9c-1.6-0.8-3.2-1.5-4.8-2l0.6-0.8
		C132.3,659.4,133.9,660.1,135.3,660.8z"/>
	<path class="st3" d="M140.3,652.9v-1.1h10.4v1.1h-4.7v2.8h4.1v1.1h-4.1v3.4h6.1v1.1h-13.3v-1.1h6.1v-3.4h-4.2v-1.1h4.2v-2.8H140.3z
		 M151.9,651.7h-1.2v-2h-10.6v2.1h-1.2v-3.2h6c-0.2-0.5-0.4-1-0.7-1.4l1.2-0.2c0.2,0.5,0.4,1,0.6,1.6h5.7V651.7z M150.6,659.4
		l-0.9,0.6c-0.4-0.7-1-1.5-1.8-2.4l0.9-0.5C149.6,658,150.2,658.8,150.6,659.4z"/>
	<path class="st3" d="M154.5,648.9v-1.1h5.5v1.1h-2.5c-0.2,1.3-0.6,2.5-1,3.6h3v7.3h-2.8v1.3h-1.1v-6.7c-0.3,0.6-0.7,1.2-1.1,1.7
		l-0.6-1c1.2-1.8,2.1-3.9,2.5-6.2H154.5z M158.4,658.8v-5.2h-1.7v5.2H158.4z M163.3,654.3c-0.1,3.3-1.1,5.7-2.9,7.3l-0.8-0.8
		c1.6-1.4,2.5-3.5,2.6-6.5h-1.7v-1.1h1.8v-4.4h-1.4v-1.1h7.6v1.1h-1.5v4.4h1.9v1.1h-1.9v7.2h-1.1v-7.2H163.3z M163.3,648.8v4.4h2.5
		v-4.4H163.3z"/>
	<path class="st3" d="M176.9,652.8v1.2l0,0.9h4.1v5.1c0,0.3,0.2,0.4,0.5,0.4h1.2c0.4,0,0.6-0.2,0.7-0.6c0.1-0.6,0.1-1.3,0.1-2
		l1.1,0.3c-0.1,1.3-0.2,2.1-0.3,2.4c-0.2,0.7-0.7,1-1.6,1h-1.4c-1,0-1.4-0.4-1.4-1.3V656h-3.2c-0.2,1.2-0.7,2.1-1.3,2.9
		c-0.9,1.1-2.4,2-4.4,2.7l-0.6-1c2-0.6,3.4-1.4,4.2-2.4c0.4-0.6,0.7-1.4,0.9-2.2h-4v-1.1h4.2c0-0.3,0-0.6,0.1-0.9v-1.2H176.9z
		 M178.1,648.4h5.9v3.2h-1.2v-2.1H172v2.1h-1.2v-3.2h6c-0.2-0.5-0.4-1-0.7-1.4l1.3-0.2C177.7,647.3,177.9,647.9,178.1,648.4z
		 M176.5,651c-1.3,1.2-3,2.3-4.9,3.1l-0.5-1c1.9-0.7,3.5-1.7,4.8-2.9L176.5,651z M183.6,653.3l-0.6,1c-1.5-1.3-3-2.3-4.6-3.1
		l0.6-0.9C180.7,651.1,182.2,652.1,183.6,653.3z"/>
	<path class="st3" d="M188.3,656.4c-0.2,2-0.7,3.7-1.5,5.2l-0.8-0.8c0.9-1.6,1.3-3.6,1.3-5.8v-6.6c1.9-0.2,3.4-0.7,4.5-1.3l0.8,0.9
		c-1.2,0.6-2.6,1.1-4.2,1.3v1.9h4.1v5.3H188.3z M188.4,654.9c0,0.1,0,0.2,0,0.4h3.1v-3.2h-3V654.9z M194.9,655.4
		c0,2.8-0.4,4.8-1.1,6.2l-1-0.5c0.7-1.4,1.1-3.3,1.1-5.7v-7.2c2.3-0.1,4.2-0.5,5.7-1.1l0.6,1c-1.6,0.6-3.3,1-5.3,1.1l0,2.8h5.8v1.1
		h-1.8v8.6h-1.1V653h-2.9V655.4z"/>
	<path class="st3" d="M208.2,647.9c-0.8,1.3-1.5,2.4-2.3,3.3c-0.8,0.9-1.9,1.8-3.2,2.7l-0.6-1c1.1-0.6,2.1-1.4,3-2.4
		c0.8-0.9,1.5-1.9,2.1-3.2L208.2,647.9z M204.5,654.4v-1.1h9.6c0,2-0.1,3.6-0.3,4.9c-0.2,1.2-0.4,2.1-0.8,2.6
		c-0.4,0.5-0.9,0.7-1.7,0.8h-2.9l-0.3-1.1c0.9,0,1.8,0,2.6,0c0.9,0,1.4-0.4,1.7-1.1c0.3-0.8,0.5-2.4,0.5-4.9h-4
		c-0.4,1.7-0.9,3.1-1.6,4.2c-0.8,1.2-2,2.2-3.7,3.1l-0.7-1c1.5-0.8,2.6-1.7,3.3-2.6c0.7-0.9,1.2-2.1,1.5-3.6H204.5z M216.7,652.9
		l-0.8,0.9c-2.5-1.6-4.2-3.7-5.2-6.2l1-0.6C212.7,649.5,214.3,651.5,216.7,652.9z"/>
	<path class="st3" d="M227,651.1v2h4.5v5.4c0,1-0.5,1.5-1.5,1.5h-1.5l-0.3-1.1l1.4,0c0.5,0,0.8-0.2,0.8-0.7v-4.1H227v7.4h-1.1v-7.4
		h-3.4v5.9h-1.1v-6.1c-0.8,0.8-1.7,1.6-2.6,2.3l-0.7-1c2-1.5,3.6-3.2,4.8-5.2h-4.3V649h4.9c0.4-0.7,0.6-1.4,0.9-2.1l1.2,0.1
		c-0.2,0.7-0.5,1.4-0.8,2h7.8v1.1h-8.3c-0.6,1.1-1.2,2-2,3h3.8v-2H227z"/>
	<path class="st3" d="M241.5,653.6v1.1h-2.8v4.2c1.2-0.2,2.3-0.5,3.4-0.8v1.1c-2.3,0.6-4.8,1-7.5,1.4l-0.3-1.1
		c1.1-0.1,2.1-0.3,3.1-0.4v-4.4h-2.8v-1.1H241.5z M242.3,649.8c0-0.9-0.1-1.9-0.1-2.8h1.2c0,1,0,1.9,0.1,2.8h4.9v1.1h-4.9
		c0.2,2.7,0.6,4.9,1.2,6.7c0.7,1.8,1.3,2.7,1.8,2.7c0.3,0,0.7-1,1-2.8l1,0.5c-0.5,2.3-1.1,3.5-2,3.5c-1.4-0.1-2.6-1.9-3.6-5.3
		c-0.4-1.5-0.6-3.3-0.7-5.3h-7.9v-1.1H242.3z M247.4,649.1l-1,0.5c-0.5-0.8-1-1.5-1.5-2.1l1-0.5
		C246.4,647.7,246.9,648.4,247.4,649.1z"/>
	<path class="st3" d="M254.3,654.5c-0.1,0.3-0.2,0.6-0.3,0.9h3.3v0.9c-0.4,1.1-0.9,2-1.8,2.7c0.8,0.4,1.5,0.7,2.2,1.1l-0.6,0.9
		c-0.7-0.4-1.5-0.8-2.5-1.3c-1.1,0.7-2.4,1.3-4,1.8l-0.5-1c1.3-0.4,2.4-0.8,3.4-1.3c-0.7-0.3-1.4-0.6-2.2-0.9c0.4-0.7,0.8-1.4,1.1-2
		h-1.9v-1h2.3c0.1-0.4,0.3-0.7,0.4-1L254.3,654.5z M253.6,650v-3.1h1.1v3.1h2.9v1h-2.9v0.2c0.9,0.4,1.8,0.9,2.7,1.5l-0.6,0.9
		c-0.8-0.6-1.5-1.2-2.1-1.5v2.1h-1.1v-3c-0.5,1.3-1.5,2.4-2.9,3.3l-0.6-0.9c1.2-0.7,2.1-1.5,2.6-2.4h-2.3v-1H253.6z M252.8,649.2
		l-0.8,0.4c-0.3-0.8-0.7-1.5-1.1-2.1l0.9-0.3C252.1,647.9,252.5,648.5,252.8,649.2z M256.3,656.4h-2.8c-0.3,0.5-0.5,1.1-0.9,1.5
		c0.6,0.2,1.2,0.4,1.8,0.7C255.3,658,255.9,657.2,256.3,656.4z M257.5,647.6c-0.3,0.7-0.7,1.4-1.2,2.1l-0.8-0.4
		c0.5-0.7,0.9-1.4,1.2-2L257.5,647.6z M259.2,653.1c-0.3,0.7-0.6,1.4-0.9,2l-0.7-0.9c0.9-1.8,1.6-4.2,1.9-7.3l1.1,0.2
		c-0.1,0.8-0.2,1.6-0.4,2.3h4.2v1.1h-1c-0.1,2.7-0.6,5-1.5,6.9c0.8,1.4,1.8,2.5,3,3.3l-0.6,0.9c-1.1-0.8-2.1-1.9-2.9-3.2
		c-0.8,1.3-1.8,2.4-3,3.2l-0.6-1c1.2-0.9,2.2-2,3-3.3C260.2,656.1,259.7,654.7,259.2,653.1z M259.8,651.3c0.4,1.9,0.9,3.5,1.6,4.8
		c0.6-1.6,1-3.5,1-5.7H260L259.8,651.3z"/>
	<path class="st3" d="M266.7,661.5l-0.2-1.1c0.4,0,0.8,0.1,1.2,0.1c0.4,0,0.6-0.2,0.6-0.7v-3.9c-0.6,0.2-1.3,0.5-1.9,0.7l-0.3-1.1
		c0.7-0.2,1.5-0.4,2.2-0.7v-3.6h-1.9V650h1.9v-3h1.1v3h1.5v1.1h-1.5v3.2c0.5-0.2,1-0.5,1.5-0.7v1.1c-0.5,0.3-1,0.5-1.5,0.7v4.7
		c0,0.9-0.4,1.4-1.3,1.4H266.7z M271,661.6l-0.9-0.8c1.1-2.1,1.7-4.9,1.7-8.2v-5h8.4v3.9h-3v1.9h3.4v1h-3.4v2h2.7v5.2h-1.1v-0.8
		h-4.3v0.8h-1.1v-5.2h2.7v-2h-3.3C272.7,657.1,272,659.5,271,661.6z M272.9,651.5v1.1c0,0.3,0,0.5,0,0.8h3.2v-1.9H272.9z
		 M272.9,648.6v1.8h6.2v-1.8H272.9z M278.9,659.8v-2.4h-4.3v2.4H278.9z"/>
	<path class="st3" d="M290.8,648.3h5.8v1.1h-11.9v3.6c-0.1,3.5-0.6,6.4-1.6,8.5l-0.9-0.8c0.9-1.8,1.3-4.4,1.4-7.6v-4.8h6
		c-0.3-0.5-0.5-0.9-0.8-1.3l1.3-0.2C290.3,647.3,290.6,647.8,290.8,648.3z M290.1,650.2c-0.1,0.4-0.3,0.9-0.4,1.3h6.2v1h-6.6
		c-0.4,1-0.9,1.9-1.4,2.7h3v-1.9h1.2v1.9h3.6v1h-3.6v1.8h4.8v1.1h-4.8v2.5h-1.2v-2.5H285V658h5.8v-1.8h-4.2l-0.2-1
		c0.6-0.8,1.2-1.7,1.7-2.8h-2.4v-1h2.8c0.2-0.5,0.4-1,0.5-1.5L290.1,650.2z"/>
	<path class="st3" d="M300.9,653c-0.1,3.5-0.8,6.3-2.1,8.5l-0.8-0.8c1.1-1.8,1.7-4.4,1.8-7.6v-5c4.2,0,8-0.4,11.4-1l0.6,1
		c-3.2,0.5-6.9,0.8-10.9,0.9v1.6h5.3c0.1-0.5,0.1-1,0.2-1.5l1.2,0.1c0,0.4-0.1,0.9-0.2,1.3h5.1v1.1h-5.3c-0.1,0.5-0.2,1-0.3,1.5h4.1
		v5.4h-1.1v-4.4h-6.3v4.4h-1.1v-5.5h3.2c0.1-0.5,0.2-1,0.3-1.5h-5.2V653z M307.6,654.9c-0.2,1.9-0.8,3.3-1.7,4.3
		c-1,1-2.5,1.8-4.5,2.4l-0.6-1.1c1.9-0.5,3.3-1.1,4.2-2c0.9-0.9,1.4-2.1,1.6-3.7L307.6,654.9z M312.5,660.6l-0.6,1
		c-1.6-1.1-3.2-1.9-4.8-2.5l0.6-0.9C309.5,658.9,311.1,659.7,312.5,660.6z"/>
	<path class="st3" d="M328.6,652v0.9h-14.3V652H328.6z M327,653.6v4.1h-5v0.9h5.4v0.8H322v0.9h6.6v0.9h-14.3v-0.9h6.6v-0.9h-5.4
		v-0.8h5.4v-0.9h-5v-4.1H327z M326.7,647.2v4h-10.5v-4H326.7z M320.9,655.3v-1H317v1H320.9z M320.9,656H317v1h3.9V656z M325.6,648.8
		v-0.9h-8.2v0.9H325.6z M325.6,649.5h-8.2v0.9h8.2V649.5z M322,655.3h3.9v-1H322V655.3z M325.9,656H322v1h3.9V656z"/>
</g>
<g class="st0">
	<path class="st3" d="M6.4,680.1v1.1H4c-0.2,1.3-0.5,2.5-0.9,3.6H6v7.3H3.2v1.2H2.1v-6.3c-0.3,0.5-0.6,1-0.8,1.4l-0.7-1.1
		c1.2-1.8,1.9-3.9,2.3-6.2H1.1v-1.1H6.4z M5,691.1v-5.2H3.2v5.2H5z M6.9,693.8l-0.8-0.8c0.8-1.2,1.2-2.6,1.2-4.4v-5.2
		c-0.2,0.2-0.5,0.4-0.7,0.6l-0.7-0.8c1.3-1,2.3-2.4,3.1-4.1l1.1,0.2c-0.2,0.3-0.3,0.7-0.5,1h3.9v0.8c-0.5,0.7-1,1.3-1.4,1.8h2.7v9.6
		c0,0.7-0.4,1.1-1.2,1.1h-1.2l-0.3-1c0.4,0,0.8,0.1,1.1,0.1c0.3,0,0.5-0.2,0.5-0.5v-2.1h-2.1v3.5h-1v-3.5H8.3
		C8.1,691.6,7.7,692.8,6.9,693.8z M12.1,681.4H9c-0.4,0.6-0.8,1.1-1.3,1.6h3C11.3,682.5,11.7,682,12.1,681.4z M8.4,688.6
		c0,0.1,0,0.3,0,0.4h2.1v-2H8.4V688.6z M8.4,684v2h2.1v-2H8.4z M13.6,684h-2.1v2h2.1V684z M13.6,687h-2.1v2h2.1V687z"/>
	<path class="st3" d="M20.2,684.1v7c0.6-0.5,1.2-1,1.9-1.6l0.3,1.2c-1,0.9-2,1.8-3.2,2.5l-0.4-1c0.2-0.2,0.4-0.4,0.4-0.7v-6.2h-2.4
		v-1.1H20.2z M21.3,681.8l-0.8,0.8c-0.7-0.8-1.6-1.6-2.8-2.5l0.8-0.8C19.7,680.2,20.6,681,21.3,681.8z M27.2,679.3
		c0,1.3,0,2.6-0.1,3.8c0.8,4.1,2.3,7.4,4.4,9.8l-0.8,1c-1.7-2.2-3-4.9-3.9-8c-0.1,0.4-0.2,0.9-0.2,1.3c-0.6,2.8-2,5-4.1,6.8
		l-0.8-0.9c1.9-1.6,3.1-3.5,3.7-5.9c0.4-2,0.7-4.5,0.7-7.7H27.2z"/>
	<path class="st3" d="M34.1,682.4c0,1.6-0.2,3.1-0.5,4.6l-0.9-0.3c0.3-1.4,0.5-2.8,0.6-4.4L34.1,682.4z M36.1,679.3v14.6h-1.2v-14.6
		H36.1z M38.1,684.7c0.5-1.4,0.9-2.9,0.9-4.5l1,0.1c0,0.7-0.1,1.3-0.2,1.9h2.3v-3h1.2v3h3.5v1.1h-3.5v3.9h3.2v1.1h-3.2v3.9h3.9v1.1
		h-9.7v-1.1h4.6v-3.9h-3.7v-1.1h3.7v-3.9h-2.5c-0.3,1.2-0.7,2.3-1.3,3.2l-0.8-0.8c0.2-0.4,0.3-0.7,0.5-1l-0.8,0.2
		c-0.2-1-0.5-1.9-0.9-2.8l0.8-0.3C37.6,682.7,37.9,683.6,38.1,684.7z"/>
	<path class="st3" d="M52.1,684.1v7.1c0.5-0.4,1.1-1,1.6-1.6l0.3,1.2c-0.9,0.9-1.9,1.7-3,2.5l-0.4-1c0.2-0.2,0.4-0.4,0.4-0.7v-6.4
		h-2.4v-1.1H52.1z M53.3,681.8l-0.8,0.8c-0.7-0.8-1.6-1.6-2.8-2.5l0.8-0.8C51.7,680.2,52.6,681,53.3,681.8z M62.9,679.9v1.1h-3.8v6
		h4.3v1.1h-4.3v5.7H58v-5.7h-4.2v-1.1H58v-6h-3.8v-1.1H62.9z M56.7,686l-1,0.3c-0.3-1.4-0.8-2.7-1.3-4l1-0.3
		C55.9,683.1,56.4,684.4,56.7,686z M62.5,682.1c-0.3,1.6-0.8,2.9-1.3,4.1l-1-0.3c0.5-1.1,0.9-2.4,1.2-4L62.5,682.1z"/>
	<path class="st3" d="M67.7,685.8l-0.8,0.8c-0.5-0.7-1.3-1.5-2.2-2.3l0.8-0.7C66.3,684.2,67.1,685,67.7,685.8z M67.9,688.2
		c-0.6,2-1.3,3.8-2,5.5l-1.1-0.4c0.8-1.8,1.5-3.6,2.1-5.5L67.9,688.2z M68,681.7l-0.8,0.8c-0.5-0.7-1.3-1.4-2.3-2.1l0.8-0.8
		C66.6,680.2,67.4,681,68,681.7z M71.8,682.1v5.1c0,1.8-0.3,3.3-0.9,4.4c-0.5,1-1.4,1.8-2.6,2.4l-0.6-1c1.2-0.5,2-1.3,2.4-2.2
		c0.4-0.9,0.7-2.1,0.7-3.6v-5.1H71.8z M74,689.8h-1V681h-3.3v8.9h-1V680H74V689.8z M74.7,693.1l-0.8,0.8c-0.6-0.8-1.4-1.7-2.4-2.7
		l0.7-0.7C73.3,691.4,74.1,692.2,74.7,693.1z M76.3,680.6v10h-1v-10H76.3z M75.7,693.8l-0.2-1.1c0.6,0,1.1,0.1,1.6,0.1
		c0.4,0,0.6-0.2,0.6-0.6v-12.8h1.1v13.1c0,0.9-0.4,1.4-1.3,1.4H75.7z"/>
</g>
<g class="st0">
	<path class="st2" d="M5.8,743.1V756H3.7v-10.3c-0.8,0.7-1.7,1.2-2.9,1.6v-2.1c0.6-0.1,1.2-0.4,1.8-0.8c0.6-0.4,1.2-0.8,1.6-1.3H5.8
		z"/>
	<path class="st2" d="M16.1,744c0.8,0.7,1.2,1.6,1.2,2.8c0,1.1-0.4,2.1-1.3,3c-0.5,0.5-1.4,1.2-2.7,2.1c-1.3,0.9-2.1,1.6-2.4,2.3
		h6.3v1.9h-9c0-1.3,0.4-2.4,1.3-3.4c0.5-0.5,1.5-1.3,3-2.4c0.8-0.6,1.4-1.1,1.8-1.4c0.6-0.6,0.8-1.3,0.8-2c0-0.7-0.2-1.2-0.6-1.6
		c-0.4-0.3-0.9-0.5-1.7-0.5c-0.8,0-1.4,0.3-1.8,0.8c-0.4,0.5-0.6,1.3-0.6,2.3H8.4c0-1.4,0.4-2.6,1.3-3.5c0.8-0.9,2-1.4,3.3-1.4
		C14.2,742.9,15.2,743.3,16.1,744z"/>
	<path class="st2" d="M27.9,758l-1.4-1.3c1.1-1.6,1.7-3.6,1.7-6v-8.8h10.9v14.1c0,1.2-0.6,1.8-1.8,1.8H35l-0.5-1.8
		c0.8,0.1,1.5,0.1,2.2,0.1c0.4,0,0.5-0.3,0.5-0.7v-3H30C29.7,754.6,29.1,756.5,27.9,758z M37.2,743.6h-7.1v2.5h7.1V743.6z
		 M30.1,750.5h7.1v-2.7h-7.1V750.5z"/>
</g>
<g class="st0">
	<path class="st3" d="M9.6,776.6v1.1h-4V788H4.3v-10.3h-4v-1.1H9.6z"/>
	<path class="st3" d="M12.6,776.9c0.2,0.2,0.3,0.4,0.3,0.7c0,0.3-0.1,0.5-0.3,0.7c-0.2,0.2-0.4,0.3-0.7,0.3s-0.5-0.1-0.7-0.3
		c-0.2-0.2-0.3-0.4-0.3-0.7c0-0.3,0.1-0.5,0.3-0.7c0.2-0.2,0.4-0.3,0.7-0.3S12.4,776.7,12.6,776.9z M12.6,779.7v8.3h-1.3v-8.3H12.6z
		"/>
	<path class="st3" d="M19.2,776.6c1.8,0,3.2,0.5,4.1,1.6c0.8,1,1.3,2.4,1.3,4.1c0,1.8-0.5,3.2-1.4,4.1c-1,1-2.3,1.6-4.1,1.6h-4
		v-11.4H19.2z M16.5,786.9h2.4c1.5,0,2.6-0.4,3.4-1.2c0.7-0.8,1.1-1.9,1.1-3.4c0-1.5-0.3-2.7-1-3.4c-0.7-0.8-1.8-1.2-3.3-1.2h-2.6
		V786.9z"/>
	<path class="st3" d="M31.6,776.6c1.1,0,1.9,0.3,2.5,0.8c0.6,0.5,0.9,1.2,0.9,2.1c0,0.6-0.2,1.2-0.5,1.7c-0.4,0.4-0.8,0.7-1.4,0.9
		c0.8,0.1,1.3,0.4,1.7,0.9c0.4,0.5,0.6,1.1,0.6,1.9c0,1.1-0.4,2-1.2,2.5c-0.7,0.4-1.6,0.7-2.8,0.7h-5.1v-11.4H31.6z M27.8,781.6h3.5
		c0.8,0,1.4-0.2,1.8-0.5c0.4-0.3,0.6-0.8,0.6-1.5c0-0.6-0.2-1.1-0.6-1.4c-0.4-0.3-1-0.5-1.8-0.5h-3.5V781.6z M27.8,786.9h3.6
		c0.8,0,1.4-0.2,1.9-0.4c0.6-0.4,0.8-0.9,0.8-1.6s-0.3-1.3-0.7-1.6c-0.5-0.4-1.1-0.5-2-0.5h-3.6V786.9z"/>
	<path class="st3" d="M50,789.3c-1,0-1.9-0.1-2.5-0.3c-0.6-0.2-1.2-0.6-1.7-1.2c-0.2-0.3-0.4-0.4-0.6-0.4c-0.4,0-1,0.7-1.9,2.2
		l-0.9-0.8c0.8-1.3,1.6-2.2,2.3-2.4v-4.9h-2.3v-1.1h3.3v6c0.1,0.1,0.3,0.2,0.4,0.4c0.4,0.5,0.8,0.8,1.2,1c0.5,0.2,1.2,0.4,2.2,0.4
		c0.8,0,1.9,0,3.2,0c0.7,0,1.5,0,2.3,0c0.8,0,1.4,0,1.8-0.1l-0.3,1.2h-3.6C52,789.3,51,789.3,50,789.3z M46.3,777.7l-0.8,0.8
		c-0.7-0.8-1.6-1.6-2.8-2.5l0.8-0.8C44.6,776,45.5,776.8,46.3,777.7z M51.8,777.9c0.8-0.4,1.6-0.9,2.3-1.5H47v-1h8.7v0.8
		c-1,0.8-2,1.6-3.1,2.2l0.3,0.2H56v7.2c0,0.8-0.4,1.2-1.3,1.2h-1.3l-0.3-1l1.3,0c0.4,0,0.6-0.2,0.6-0.5v-1.2h-2.7v2.8h-1.1v-2.8
		h-2.7v2.8h-1.1v-8.5h4c-0.6-0.4-1.3-0.9-2.1-1.3l0.7-0.7C50.6,777.1,51.3,777.5,51.8,777.9z M51.1,779.6h-2.7v1.4h2.7V779.6z
		 M48.4,783.5h2.7V782h-2.7V783.5z M54.9,779.6h-2.7v1.4h2.7V779.6z M52.2,783.5h2.7V782h-2.7V783.5z"/>
	<path class="st3" d="M66.2,789.3c-1.1,0-2-0.1-2.6-0.3c-0.7-0.2-1.3-0.6-1.8-1.2c-0.2-0.3-0.4-0.4-0.7-0.4c-0.4,0-1,0.7-1.9,2.2
		l-0.9-0.8c0.9-1.4,1.6-2.2,2.3-2.5v-4.8h-2.3v-1.1h3.4v6c0.1,0.1,0.3,0.2,0.4,0.4c0.4,0.4,0.8,0.8,1.3,1c0.5,0.2,1.3,0.3,2.3,0.4
		c0.9,0,2,0,3.3,0c0.7,0,1.4,0,2.1,0c0.7,0,1.3,0,1.7-0.1l-0.3,1.2h-3.4C68.2,789.3,67.3,789.3,66.2,789.3z M62.2,777.7l-0.8,0.8
		c-0.7-0.8-1.6-1.7-2.7-2.6l0.8-0.8C60.5,776,61.4,776.8,62.2,777.7z M66.4,787.2l-0.3-1.1c0.7,0,1.5,0.1,2.1,0.1
		c0.4,0,0.7-0.2,0.7-0.7v-6.8h-6.1v-1.1H69V775h1.2v2.6h2.4v1.1h-2.4v7.1c0,0.9-0.5,1.4-1.5,1.4H66.4z M67,783.2l-0.9,0.6
		c-0.6-1-1.3-2-2.3-3.2l0.9-0.6C65.7,781.3,66.5,782.3,67,783.2z"/>
	<path class="st3" d="M74.3,782.7l-0.4-1.2c1.6-1.9,2.7-4.2,3.4-6.7l1.1,0.5c-0.4,1.2-0.8,2.4-1.4,3.5v10.9h-1.1v-9
		C75.4,781.3,74.9,782,74.3,782.7z M83.3,777c-0.2-0.6-0.5-1.2-0.8-1.9l1.1-0.3c0.3,0.7,0.6,1.3,0.8,1.9l-0.6,0.2h5v1.1H78.4V777
		H83.3z M87.7,789.6h-1.1v-0.9h-5.9v0.9h-1.1V784h8.2V789.6z M87.4,779.4v1h-7.6v-1H87.4z M87.4,781.7v1.1h-7.6v-1.1H87.4z
		 M86.6,787.6v-2.5h-5.9v2.5H86.6z"/>
	<path class="st3" d="M98,789.3c-1,0-1.9-0.1-2.5-0.3c-0.6-0.2-1.2-0.6-1.7-1.2c-0.2-0.3-0.4-0.4-0.6-0.4c-0.4,0-1,0.7-1.9,2.2
		l-0.9-0.8c0.8-1.3,1.6-2.2,2.3-2.4v-4.9h-2.3v-1.1h3.3v6c0.1,0.1,0.3,0.2,0.4,0.4c0.4,0.5,0.8,0.8,1.2,1c0.5,0.2,1.2,0.4,2.2,0.4
		c0.8,0,1.9,0,3.2,0c0.7,0,1.5,0,2.3,0c0.8,0,1.4,0,1.8-0.1l-0.3,1.2h-3.6C100,789.3,99,789.3,98,789.3z M94.3,777.7l-0.8,0.8
		c-0.7-0.8-1.6-1.6-2.8-2.5l0.8-0.8C92.6,776,93.5,776.8,94.3,777.7z M99.8,777.9c0.8-0.4,1.6-0.9,2.3-1.5H95v-1h8.7v0.8
		c-1,0.8-2,1.6-3.1,2.2l0.3,0.2h3.2v7.2c0,0.8-0.4,1.2-1.3,1.2h-1.3l-0.3-1l1.3,0c0.4,0,0.6-0.2,0.6-0.5v-1.2h-2.7v2.8h-1.1v-2.8
		h-2.7v2.8h-1.1v-8.5h4c-0.6-0.4-1.3-0.9-2.1-1.3l0.7-0.7C98.6,777.1,99.3,777.5,99.8,777.9z M99.1,779.6h-2.7v1.4h2.7V779.6z
		 M96.4,783.5h2.7V782h-2.7V783.5z M102.9,779.6h-2.7v1.4h2.7V779.6z M100.2,783.5h2.7V782h-2.7V783.5z"/>
	<path class="st3" d="M111.3,775.6v0.9c-0.4,1.5-0.9,3-1.5,4.5c0.9,1.4,1.4,2.7,1.5,3.8c0,0.7-0.2,1.2-0.5,1.6
		c-0.4,0.4-1.2,0.6-2.3,0.6l-0.4-1.2c0.3,0,0.5,0.1,0.6,0.1c0.5,0,0.9-0.1,1.1-0.3c0.2-0.2,0.3-0.4,0.3-0.8c0-1.1-0.5-2.3-1.5-3.6
		c0.7-1.7,1.2-3.2,1.5-4.5h-2.4v13h-1.1v-14.1H111.3z M120.5,782.3v1.1h-2.7v4.3c0,0.4,0.1,0.6,0.5,0.6h0.7c0.2,0,0.4-0.1,0.4-0.2
		c0.2-0.1,0.3-0.8,0.3-2.1l1.1,0.4c-0.1,1.4-0.3,2.3-0.5,2.6c-0.2,0.2-0.6,0.4-1.1,0.4H118c-0.4,0-0.7-0.1-0.9-0.4
		c-0.2-0.3-0.3-0.6-0.3-1v-4.6h-1.5c-0.1,1.7-0.4,2.9-0.8,3.7c-0.5,1-1.4,1.8-2.7,2.4l-0.7-0.9c1.1-0.6,1.9-1.2,2.4-2
		c0.4-0.7,0.7-1.8,0.8-3.2h-2.2v-1.1H120.5z M120.4,779.6h-1.1v-2.2H113v2.2h-1.1v-3.2h3.6c-0.2-0.5-0.4-0.9-0.6-1.3l1.2-0.2
		c0.2,0.4,0.4,1,0.6,1.5h3.7V779.6z M119.2,779.4v1h-6.1v-1H119.2z"/>
	<path class="st3" d="M128.2,775.9c-0.8,1.3-1.5,2.4-2.3,3.3c-0.8,0.9-1.9,1.8-3.2,2.7l-0.6-1c1.1-0.6,2.1-1.4,3-2.4
		c0.8-0.9,1.5-1.9,2.1-3.2L128.2,775.9z M124.5,782.4v-1.1h9.6c0,2-0.1,3.6-0.3,4.9c-0.2,1.2-0.4,2.1-0.8,2.6
		c-0.4,0.5-0.9,0.7-1.7,0.8h-2.9l-0.3-1.1c0.9,0,1.8,0,2.6,0c0.9,0,1.4-0.4,1.7-1.1c0.3-0.8,0.5-2.4,0.5-4.9h-4
		c-0.4,1.7-0.9,3.1-1.6,4.2c-0.8,1.2-2,2.2-3.7,3.1l-0.7-1c1.5-0.8,2.6-1.7,3.3-2.6c0.7-0.9,1.2-2.1,1.5-3.6H124.5z M136.7,780.9
		l-0.8,0.9c-2.5-1.6-4.2-3.7-5.2-6.2l1-0.6C132.7,777.5,134.3,779.5,136.7,780.9z"/>
	<path class="st3" d="M147,779.1v2h4.5v5.4c0,1-0.5,1.5-1.5,1.5h-1.5l-0.3-1.1l1.4,0c0.5,0,0.8-0.2,0.8-0.7v-4.1H147v7.4h-1.1v-7.4
		h-3.4v5.9h-1.1v-6.1c-0.8,0.8-1.7,1.6-2.6,2.3l-0.7-1c2-1.5,3.6-3.2,4.8-5.2h-4.3V777h4.9c0.4-0.7,0.6-1.4,0.9-2.1l1.2,0.1
		c-0.2,0.7-0.5,1.4-0.8,2h7.8v1.1h-8.3c-0.6,1.1-1.2,2-2,3h3.8v-2H147z"/>
	<path class="st3" d="M161.5,781.6v1.1h-2.8v4.2c1.2-0.2,2.3-0.5,3.4-0.8v1.1c-2.3,0.6-4.8,1-7.5,1.4l-0.3-1.1
		c1.1-0.1,2.1-0.3,3.1-0.4v-4.4h-2.8v-1.1H161.5z M162.3,777.8c0-0.9-0.1-1.9-0.1-2.8h1.2c0,1,0,1.9,0.1,2.8h4.9v1.1h-4.9
		c0.2,2.7,0.6,4.9,1.2,6.7c0.7,1.8,1.3,2.7,1.8,2.7c0.3,0,0.7-1,1-2.8l1,0.5c-0.5,2.3-1.1,3.5-2,3.5c-1.4-0.1-2.6-1.9-3.6-5.3
		c-0.4-1.5-0.6-3.3-0.7-5.3h-7.9v-1.1H162.3z M167.4,777.1l-1,0.5c-0.5-0.8-1-1.5-1.5-2.1l1-0.5
		C166.4,775.7,166.9,776.4,167.4,777.1z"/>
	<path class="st3" d="M174.3,782.5c-0.1,0.3-0.2,0.6-0.3,0.9h3.3v0.9c-0.4,1.1-0.9,2-1.8,2.7c0.8,0.4,1.5,0.7,2.2,1.1l-0.6,0.9
		c-0.7-0.4-1.5-0.8-2.5-1.3c-1.1,0.7-2.4,1.3-4,1.8l-0.5-1c1.3-0.4,2.4-0.8,3.4-1.3c-0.7-0.3-1.4-0.6-2.2-0.9c0.4-0.7,0.8-1.4,1.1-2
		h-1.9v-1h2.3c0.1-0.4,0.3-0.7,0.4-1L174.3,782.5z M173.6,778v-3.1h1.1v3.1h2.9v1h-2.9v0.2c0.9,0.4,1.8,0.9,2.7,1.5l-0.6,0.9
		c-0.8-0.6-1.5-1.2-2.1-1.5v2.1h-1.1v-3c-0.5,1.3-1.5,2.4-2.9,3.3l-0.6-0.9c1.2-0.7,2.1-1.5,2.6-2.4h-2.3v-1H173.6z M172.8,777.2
		l-0.8,0.4c-0.3-0.8-0.7-1.5-1.1-2.1l0.9-0.3C172.1,775.9,172.5,776.5,172.8,777.2z M176.3,784.4h-2.8c-0.3,0.5-0.5,1.1-0.9,1.5
		c0.6,0.2,1.2,0.4,1.8,0.7C175.3,786,175.9,785.2,176.3,784.4z M177.5,775.6c-0.3,0.7-0.7,1.4-1.2,2.1l-0.8-0.4
		c0.5-0.7,0.9-1.4,1.2-2L177.5,775.6z M179.2,781.1c-0.3,0.7-0.6,1.4-0.9,2l-0.7-0.9c0.9-1.8,1.6-4.2,1.9-7.3l1.1,0.2
		c-0.1,0.8-0.2,1.6-0.4,2.3h4.2v1.1h-1c-0.1,2.7-0.6,5-1.5,6.9c0.8,1.4,1.8,2.5,3,3.3l-0.6,0.9c-1.1-0.8-2.1-1.9-2.9-3.2
		c-0.8,1.3-1.8,2.4-3,3.2l-0.6-1c1.2-0.9,2.2-2,3-3.3C180.2,784.1,179.7,782.7,179.2,781.1z M179.8,779.3c0.4,1.9,0.9,3.5,1.6,4.8
		c0.6-1.6,1-3.5,1-5.7H180L179.8,779.3z"/>
	<path class="st3" d="M186.7,789.5l-0.2-1.1c0.4,0,0.8,0.1,1.2,0.1c0.4,0,0.6-0.2,0.6-0.7v-3.9c-0.6,0.2-1.3,0.5-1.9,0.7l-0.3-1.1
		c0.7-0.2,1.5-0.4,2.2-0.7v-3.6h-1.9V778h1.9v-3h1.1v3h1.5v1.1h-1.5v3.2c0.5-0.2,1-0.5,1.5-0.7v1.1c-0.5,0.3-1,0.5-1.5,0.7v4.7
		c0,0.9-0.4,1.4-1.3,1.4H186.7z M191,789.6l-0.9-0.8c1.1-2.1,1.7-4.9,1.7-8.2v-5h8.4v3.9h-3v1.9h3.4v1h-3.4v2h2.7v5.2h-1.1v-0.8
		h-4.3v0.8h-1.1v-5.2h2.7v-2h-3.3C192.7,785.1,192,787.5,191,789.6z M192.9,779.5v1.1c0,0.3,0,0.5,0,0.8h3.2v-1.9H192.9z
		 M192.9,776.6v1.8h6.2v-1.8H192.9z M198.9,787.8v-2.4h-4.3v2.4H198.9z"/>
	<path class="st3" d="M210.8,776.3h5.8v1.1h-11.9v3.6c-0.1,3.5-0.6,6.4-1.6,8.5l-0.9-0.8c0.9-1.8,1.3-4.4,1.4-7.6v-4.8h6
		c-0.3-0.5-0.5-0.9-0.8-1.3l1.3-0.2C210.3,775.3,210.6,775.8,210.8,776.3z M210.1,778.2c-0.1,0.4-0.3,0.9-0.4,1.3h6.2v1h-6.6
		c-0.4,1-0.9,1.9-1.4,2.7h3v-1.9h1.2v1.9h3.6v1h-3.6v1.8h4.8v1.1h-4.8v2.5h-1.2v-2.5H205V786h5.8v-1.8h-4.2l-0.2-1
		c0.6-0.8,1.2-1.7,1.7-2.8h-2.4v-1h2.8c0.2-0.5,0.4-1,0.5-1.5L210.1,778.2z"/>
	<path class="st3" d="M219.6,778.1c0,1.6-0.2,3.1-0.5,4.6l-0.9-0.3c0.3-1.4,0.5-2.8,0.6-4.4L219.6,778.1z M221.5,775v14.6h-1.2V775
		H221.5z M223.6,780.4c0.5-1.4,0.9-2.9,0.9-4.5l1,0.1c0,0.7-0.1,1.3-0.2,1.9h2.3v-3h1.2v3h3.5v1.1h-3.5v3.9h3.2v1.1h-3.2v3.9h3.9
		v1.1h-9.7V788h4.6v-3.9H224V783h3.7v-3.9h-2.5c-0.3,1.2-0.7,2.3-1.3,3.2l-0.8-0.8c0.2-0.4,0.3-0.7,0.5-1l-0.8,0.2
		c-0.2-1-0.5-1.9-0.9-2.8l0.8-0.3C223,778.5,223.3,779.4,223.6,780.4z"/>
	<path class="st3" d="M242.2,779.4l-0.9,0.7c-0.2-0.4-0.4-0.7-0.6-1.1c-1.7,0.3-3.8,0.5-6.1,0.6l-0.3-1c0.2-0.1,0.4-0.2,0.5-0.3
		c1-1,1.8-2.2,2.5-3.5l1.1,0.3c-0.7,1.4-1.5,2.5-2.4,3.4c1.3-0.1,2.8-0.2,4.3-0.4c-0.3-0.5-0.7-1.1-1.1-1.6l0.9-0.6
		C240.9,777.4,241.7,778.5,242.2,779.4z M236.3,789.6h-1.1v-9h5.9v7.5c0,0.9-0.4,1.4-1.3,1.4h-1.3l-0.3-1.1l1.2,0
		c0.4,0,0.6-0.2,0.6-0.6v-1.3h-3.7V789.6z M240,781.6h-3.7v1.6h3.7V781.6z M236.3,785.6h3.7v-1.5h-3.7V785.6z M244.1,781.9
		c-1,0-1.5-0.5-1.5-1.6V775h1.1v2.1c1.8-0.3,3.2-0.6,4.3-0.8l0.4,1c-1.3,0.3-2.9,0.6-4.7,0.9v2c0,0.5,0.2,0.8,0.6,0.8h2.1
		c0.3,0,0.5-0.1,0.7-0.3c0.2-0.2,0.3-0.8,0.3-1.8l1.1,0.3c-0.1,1.3-0.3,2.1-0.6,2.4c-0.3,0.2-0.7,0.4-1.2,0.4H244.1z M243.8,787.8
		c0,0.3,0.2,0.5,0.6,0.5h2.2c0.3,0,0.6-0.1,0.7-0.2c0.2-0.2,0.3-0.8,0.4-1.8l1,0.3c-0.1,1.3-0.3,2.1-0.6,2.4
		c-0.3,0.2-0.7,0.4-1.2,0.4h-2.7c-1,0-1.4-0.4-1.4-1.3v-5.6h1.1v2c1.6-0.2,3-0.4,4.3-0.8l0.4,1c-1.4,0.4-3,0.7-4.7,0.8V787.8z"/>
	<path class="st3" d="M259.3,784.5v1.1h-9v-1.1H259.3z M254.2,775l-0.2,2.1h9.7v1.1h-9.8l-0.3,2.6h9c0,4.4-0.3,6.9-0.9,7.6
		c-0.6,0.7-1.9,1-3.8,1c-0.5,0-1,0-1.6-0.1l-0.3-1.1c0.8,0.1,1.3,0.1,1.6,0.1c1.8,0,2.9-0.3,3.2-0.9c0.4-0.7,0.6-2.5,0.6-5.6h-9.1
		l0.8-7L254.2,775z"/>
	<path class="st3" d="M269.6,776.1v-1.2h1.1v1.2h5.5v-1.2h1.1v1.2h2.8v1h-2.8v5.3h3.1v1h-3.3c0.8,1,2,1.7,3.6,2.3l-0.5,1
		c-2-0.8-3.4-1.9-4.2-3.2h-5c-0.8,1.3-2.2,2.4-4,3.3l-0.6-1c1.6-0.6,2.8-1.4,3.5-2.3h-3.3v-1h3.1v-5.3h-2.8v-1H269.6z M274,784v1.3
		h3.2v1H274v1.7h5.5v1.1h-12.2V788h5.6v-1.7h-3.3v-1h3.3V784H274z M276.2,778.3v-1.2h-5.5v1.2H276.2z M276.2,780.3v-1.1h-5.5v1.1
		H276.2z M276.2,782.4v-1.2h-5.5v1.2H276.2z"/>
	<path class="st3" d="M282.4,776.9v-1.1h5.4v1.1h-2.4c-0.2,1.3-0.5,2.5-0.9,3.6h3v8.5h-1v-1h-1.7v1.2h-1v-7
		c-0.3,0.7-0.7,1.3-1.1,1.9l-0.6-1c1.2-1.8,1.9-3.9,2.3-6.2H282.4z M286.4,787.1v-5.5h-1.7v5.5H286.4z M294.9,776.3h1.1v5.2h-3v6
		h2.3v-4.6h1.1v6.7h-1.1v-1.1h-5.6v1.1h-1.1v-6.7h1.1v4.6h2.2v-6h-3v-5.2h1.1v4.2h1.9V775h1.1v5.5h1.9V776.3z"/>
	<path class="st3" d="M306.2,779.4l-0.9,0.7c-0.2-0.4-0.4-0.7-0.6-1.1c-1.7,0.3-3.8,0.5-6.1,0.6l-0.3-1c0.2-0.1,0.4-0.2,0.5-0.3
		c1-1,1.8-2.2,2.5-3.5l1.1,0.3c-0.7,1.4-1.5,2.5-2.4,3.4c1.3-0.1,2.8-0.2,4.3-0.4c-0.3-0.5-0.7-1.1-1.1-1.6l0.9-0.6
		C304.9,777.4,305.7,778.5,306.2,779.4z M300.3,789.6h-1.1v-9h5.9v7.5c0,0.9-0.4,1.4-1.3,1.4h-1.3l-0.3-1.1l1.2,0
		c0.4,0,0.6-0.2,0.6-0.6v-1.3h-3.7V789.6z M304,781.6h-3.7v1.6h3.7V781.6z M300.3,785.6h3.7v-1.5h-3.7V785.6z M308.1,781.9
		c-1,0-1.5-0.5-1.5-1.6V775h1.1v2.1c1.8-0.3,3.2-0.6,4.3-0.8l0.4,1c-1.3,0.3-2.9,0.6-4.7,0.9v2c0,0.5,0.2,0.8,0.6,0.8h2.1
		c0.3,0,0.5-0.1,0.7-0.3c0.2-0.2,0.3-0.8,0.3-1.8l1.1,0.3c-0.1,1.3-0.3,2.1-0.6,2.4c-0.3,0.2-0.7,0.4-1.2,0.4H308.1z M307.8,787.8
		c0,0.3,0.2,0.5,0.6,0.5h2.2c0.3,0,0.6-0.1,0.7-0.2c0.2-0.2,0.3-0.8,0.4-1.8l1,0.3c-0.1,1.3-0.3,2.1-0.6,2.4
		c-0.3,0.2-0.7,0.4-1.2,0.4h-2.7c-1,0-1.4-0.4-1.4-1.3v-5.6h1.1v2c1.6-0.2,3-0.4,4.3-0.8l0.4,1c-1.4,0.4-3,0.7-4.7,0.8V787.8z"/>
	<path class="st3" d="M321.3,775v1.6c0,0.6,0,1.1-0.1,1.6h6.1c-0.1,2.8-0.2,5-0.3,6.7c-0.2,1.7-0.4,2.9-0.8,3.5c-0.4,0.6-1,1-1.8,1
		h-2.1l-0.3-1.1c0.6,0,1.3,0,1.8,0c0.9,0,1.5-0.6,1.8-1.7c0.3-1.2,0.5-3.7,0.6-7.4h-5.1c-0.2,2.3-0.7,4.2-1.4,5.7
		c-1,2-2.5,3.5-4.6,4.6l-0.6-1c2.1-1.1,3.6-2.6,4.4-4.5c0.5-1.3,0.9-2.9,1.1-4.8h-4.7v-1.1h4.8c0-0.5,0-1.1,0.1-1.6V775H321.3z"/>
</g>
<g class="st0">
	<path class="st3" d="M15.1,807.9v1.1h-4.3v2.5h3.6v8.6c0,1.1-0.5,1.6-1.4,1.6h-1.6l-0.3-1.1l1.6,0c0.4,0,0.6-0.3,0.6-0.8v-7.2h-2.5
		c0,0.4-0.1,0.9-0.1,1.3c0.7,1.1,1.5,2.4,2.2,3.8l-0.7,1.1c-0.7-1.5-1.2-2.7-1.7-3.6c-0.4,1.9-1.1,3.3-2.1,4.4l-0.8-0.8
		c1.3-1.3,2-3.4,2.2-6.1H6.3c0,0.5-0.1,1.1-0.2,1.6c0.6,0.8,1.2,1.7,1.9,2.7l-0.7,1c-0.6-1.1-1-2-1.4-2.6c-0.4,1.6-1,2.9-1.9,3.9
		l-0.9-0.8c1.2-1.3,1.9-3.2,2.1-5.7H2.8v9.1H1.7v-10.2h3.5v-2.5H0.9v-1.1H15.1z M9.7,811.6v-2.5H6.3v2.5H9.7z"/>
	<path class="st3" d="M16.9,809.9v-1.1h4.9v1.1H20v7.2c0.7-0.2,1.3-0.5,2-0.7v1.2c-1.4,0.6-3,1.1-4.9,1.6l-0.3-1.1
		c0.7-0.2,1.4-0.4,2.1-0.5v-7.6H16.9z M27.3,812.8v2.8c-0.1,1.7-0.5,3.1-1.4,4.1c-0.8,0.9-2.2,1.7-4.1,2.2l-0.6-1
		c1.9-0.5,3.2-1.2,3.9-2c0.7-0.9,1-2,1.1-3.4v-2.8H27.3z M31.3,807.9v1.1h-3.8c-0.1,0.6-0.2,1.2-0.3,1.7h3.4v7.5h-1.1v-6.5h-5.1v6.5
		h-1.1v-7.5H26c0.2-0.5,0.3-1.1,0.4-1.7h-3.9v-1.1H31.3z M31.5,821.2l-0.8,0.8c-0.8-0.9-1.9-1.9-3.3-3l0.8-0.7
		C29.5,819.2,30.6,820.2,31.5,821.2z"/>
	<path class="st3" d="M36.1,812.1v7.1c0.5-0.4,1.1-1,1.6-1.6l0.3,1.2c-0.9,0.9-1.9,1.7-3,2.5l-0.4-1c0.2-0.2,0.4-0.4,0.4-0.7v-6.4
		h-2.4v-1.1H36.1z M37.3,809.8l-0.8,0.8c-0.7-0.8-1.6-1.6-2.8-2.5l0.8-0.8C35.7,808.2,36.6,809,37.3,809.8z M46.9,807.9v1.1h-3.8v6
		h4.3v1.1h-4.3v5.7H42v-5.7h-4.2v-1.1H42v-6h-3.8v-1.1H46.9z M40.7,814l-1,0.3c-0.3-1.4-0.8-2.7-1.3-4l1-0.3
		C39.9,811.1,40.4,812.4,40.7,814z M46.5,810.1c-0.3,1.6-0.8,2.9-1.3,4.1l-1-0.3c0.5-1.1,0.9-2.4,1.2-4L46.5,810.1z"/>
	<path class="st3" d="M51.7,813.8l-0.8,0.8c-0.5-0.7-1.3-1.5-2.2-2.3l0.8-0.7C50.3,812.2,51.1,813,51.7,813.8z M51.9,816.2
		c-0.6,2-1.3,3.8-2,5.5l-1.1-0.4c0.8-1.8,1.5-3.6,2.1-5.5L51.9,816.2z M52,809.7l-0.8,0.8c-0.5-0.7-1.3-1.4-2.3-2.1l0.8-0.8
		C50.6,808.2,51.4,809,52,809.7z M55.8,810.1v5.1c0,1.8-0.3,3.3-0.9,4.4c-0.5,1-1.4,1.8-2.6,2.4l-0.6-1c1.2-0.5,2-1.3,2.4-2.2
		c0.4-0.9,0.7-2.1,0.7-3.6v-5.1H55.8z M58,817.8h-1V809h-3.3v8.9h-1V808H58V817.8z M58.7,821.1l-0.8,0.8c-0.6-0.8-1.4-1.7-2.4-2.7
		l0.7-0.7C57.3,819.4,58.1,820.2,58.7,821.1z M60.3,808.6v10h-1v-10H60.3z M59.7,821.8l-0.2-1.1c0.6,0,1.1,0.1,1.6,0.1
		c0.4,0,0.6-0.2,0.6-0.6v-12.8h1.1v13.1c0,0.9-0.4,1.4-1.3,1.4H59.7z"/>
</g>
<g>
	<g class="st0">
		<path class="st2" d="M8.9,997.6c0.8,1.1,1.2,2.6,1.2,4.6c0,2.1-0.5,3.8-1.3,5.1c-0.9,1.3-2.1,1.9-3.5,1.9c-2.5,0-4-1.2-4.3-3.5H3
			c0.3,1.2,1,1.8,2.2,1.8c0.8,0,1.5-0.4,2.1-1.3c0.5-0.8,0.7-1.8,0.7-3v-0.2H8c-0.4,0.5-0.8,0.9-1.4,1.2c-0.5,0.2-1.1,0.4-1.7,0.4
			c-1.3,0-2.3-0.4-3-1.2c-0.8-0.8-1.1-1.8-1.1-3.1c0-1.3,0.4-2.4,1.3-3.2c0.9-0.8,1.9-1.3,3.2-1.3C6.8,995.9,8,996.5,8.9,997.6z
			 M3.5,998.4c-0.5,0.5-0.7,1.2-0.7,1.9c0,0.8,0.2,1.4,0.7,1.9c0.4,0.5,1,0.7,1.8,0.7c0.8,0,1.4-0.3,1.8-0.7c0.4-0.5,0.7-1.1,0.7-2
			s-0.2-1.5-0.7-1.9c-0.5-0.5-1.1-0.7-1.8-0.7C4.6,997.6,4,997.9,3.5,998.4z"/>
		<path class="st2" d="M20.6,1011l-1.4-1.3c1.1-1.6,1.7-3.6,1.7-6v-8.8h10.9v14.1c0,1.2-0.6,1.8-1.8,1.8h-2.3l-0.5-1.8
			c0.8,0.1,1.5,0.1,2.2,0.1c0.4,0,0.5-0.3,0.5-0.7v-3h-7.2C22.4,1007.6,21.7,1009.5,20.6,1011z M29.8,996.6h-7.1v2.5h7.1V996.6z
			 M22.7,1003.5h7.1v-2.7h-7.1V1003.5z"/>
	</g>
	<g class="st0">
		<path class="st3" d="M15.2,1034.8v1.2H0.8v-1.2H15.2z"/>
		<path class="st3" d="M17,1036.3l-0.3-1.2c1.7-2,2.9-4.4,3.6-7l1,0.5c-0.4,1.3-0.9,2.6-1.6,3.8v10.5h-1.1v-8.6
			C18.1,1035,17.5,1035.7,17,1036.3z M25.2,1030.9v-2.8h1.1v2.8h4.4v1.1h-3.3c0.7,2.6,2,5,3.9,7.1l-0.8,0.9c-2-2.4-3.3-5-4-8h-0.2
			v6.4h2.5v1.1h-2.5v3.3h-1.1v-3.3h-2.4v-1.1h2.4v-6.4H25c-0.8,3.3-2.2,6.1-4.2,8.2l-0.6-1c1.8-1.9,3.1-4.3,3.8-7.2H21v-1.1H25.2z"
			/>
		<path class="st3" d="M38.6,1028.6c-0.6,1.3-1.3,2.6-2.1,3.8v10.5h-1.2v-9.1c-0.7,0.8-1.5,1.5-2.4,2.2l-0.4-1.2
			c2.3-2,3.9-4.2,4.9-6.7L38.6,1028.6z M41.9,1042.6c-1.1,0-1.7-0.6-1.7-1.7v-4.9c-0.7,0.4-1.4,0.7-2.1,1.1l-0.5-1.1
			c0.9-0.4,1.8-0.8,2.6-1.3v-6.4h1.2v5.7c1.7-1.1,3.2-2.4,4.4-3.8l0.8,0.9c-1.5,1.6-3.2,3-5.2,4.3v5.4c0,0.5,0.3,0.8,0.8,0.8h2.6
			c0.4,0,0.7-0.1,0.9-0.4c0.2-0.3,0.3-1.2,0.4-2.8l1.1,0.4c-0.1,1.8-0.3,3-0.6,3.3c-0.3,0.4-0.8,0.6-1.6,0.6H41.9z"/>
		<path class="st3" d="M52.8,1035.8c-0.1,0.3-0.2,0.6-0.3,0.9h3.3v0.9c-0.4,1.1-0.9,2-1.8,2.7c0.8,0.4,1.5,0.7,2.2,1.1l-0.6,0.9
			c-0.7-0.4-1.5-0.8-2.5-1.3c-1.1,0.7-2.4,1.3-4,1.8l-0.5-1c1.3-0.4,2.4-0.8,3.4-1.3c-0.7-0.3-1.4-0.6-2.2-0.9
			c0.4-0.7,0.8-1.4,1.1-2H49v-1h2.3c0.1-0.4,0.3-0.7,0.4-1L52.8,1035.8z M52.2,1031.3v-3.1h1.1v3.1h2.9v1h-2.9v0.2
			c0.9,0.4,1.8,0.9,2.7,1.5l-0.6,0.9c-0.8-0.6-1.5-1.2-2.1-1.5v2.1h-1.1v-3c-0.5,1.3-1.5,2.4-2.9,3.3l-0.6-0.9
			c1.2-0.7,2.1-1.5,2.6-2.4h-2.3v-1H52.2z M51.3,1030.5l-0.8,0.4c-0.3-0.8-0.7-1.5-1.1-2.1l0.9-0.3
			C50.7,1029.1,51,1029.8,51.3,1030.5z M54.8,1037.7h-2.8c-0.3,0.5-0.5,1.1-0.9,1.5c0.6,0.2,1.2,0.4,1.8,0.7
			C53.8,1039.2,54.4,1038.5,54.8,1037.7z M56,1028.8c-0.3,0.7-0.7,1.4-1.2,2.1l-0.8-0.4c0.5-0.7,0.9-1.4,1.2-2L56,1028.8z
			 M57.8,1034.3c-0.3,0.7-0.6,1.4-0.9,2l-0.7-0.9c0.9-1.8,1.6-4.2,1.9-7.3l1.1,0.2c-0.1,0.8-0.2,1.6-0.4,2.3H63v1.1h-1
			c-0.1,2.7-0.6,5-1.5,6.9c0.8,1.4,1.8,2.5,3,3.3l-0.6,0.9c-1.1-0.8-2.1-1.9-2.9-3.2c-0.8,1.3-1.8,2.4-3,3.2l-0.6-1
			c1.2-0.9,2.2-2,3-3.3C58.7,1037.3,58.2,1035.9,57.8,1034.3z M58.3,1032.6c0.4,1.9,0.9,3.5,1.6,4.8c0.6-1.6,1-3.5,1-5.7h-2.4
			L58.3,1032.6z"/>
		<path class="st3" d="M65.3,1042.7l-0.2-1.1c0.4,0,0.8,0.1,1.2,0.1c0.4,0,0.6-0.2,0.6-0.7v-3.9c-0.6,0.2-1.3,0.5-1.9,0.7l-0.3-1.1
			c0.7-0.2,1.5-0.4,2.2-0.7v-3.6h-1.9v-1.1h1.9v-3H68v3h1.5v1.1H68v3.2c0.5-0.2,1-0.5,1.5-0.7v1.1c-0.5,0.3-1,0.5-1.5,0.7v4.7
			c0,0.9-0.4,1.4-1.3,1.4H65.3z M69.5,1042.9l-0.9-0.8c1.1-2.1,1.7-4.9,1.7-8.2v-5h8.4v3.9h-3v1.9h3.4v1h-3.4v2h2.7v5.2h-1.1v-0.8
			h-4.3v0.8H72v-5.2h2.7v-2h-3.3C71.2,1038.4,70.6,1040.8,69.5,1042.9z M71.5,1032.7v1.1c0,0.3,0,0.5,0,0.8h3.2v-1.9H71.5z
			 M71.5,1029.9v1.8h6.2v-1.8H71.5z M77.4,1041.1v-2.4h-4.3v2.4H77.4z"/>
		<path class="st3" d="M90.9,1042.8l-0.3-1.2l2.1,0c0.4,0,0.6-0.2,0.6-0.7v-11H82.7v12.9h-1.2v-14h12.8v12.4c0,1-0.5,1.6-1.4,1.6
			H90.9z M92.1,1031.8v1.1h-8.2v-1.1H92.1z M91.2,1034.6v5.2h-6.4v-5.2H91.2z M90.1,1035.6h-4.2v3.1h4.2V1035.6z"/>
		<path class="st3" d="M104.7,1028.2v1.9h4.9v1.1h-4.9v2.2h6.4v1.1h-6.4v4.8h-1.2v-4.8h-6.7v-1.1h2.4v-4h1.2v4h3v-5.2H104.7z
			 M101.6,1036c-1,1.5-2.1,2.8-3.5,3.9l-0.7-0.9c1.4-1.1,2.5-2.3,3.4-3.7L101.6,1036z M109.8,1036.3c-2,4.4-5.9,6.7-11.6,6.7
			l-0.4-1.1c5.5,0,9.2-2,10.9-6.1L109.8,1036.3z"/>
		<path class="st3" d="M126.5,1028.9v1.1h-6v6h6.6v1.1h-6.6v5.7h-1.2v-5.7h-6.4v-1.1h6.4v-6h-5.8v-1.1H126.5z M117.2,1034.7
			l-1.1,0.5c-0.5-1.4-1.1-2.6-1.7-3.7l1.1-0.5C116.1,1032.2,116.7,1033.4,117.2,1034.7z M125.6,1031.5c-0.5,1.3-1.1,2.5-1.9,3.7
			l-1-0.5c0.8-1.2,1.4-2.5,1.9-3.7L125.6,1031.5z"/>
		<path class="st3" d="M129.3,1033.5c1.4-0.5,3.2-2.3,5.2-5.3l1.2,0.4c-1.4,2-2.9,3.7-4.3,4.9c3.1-0.1,6-0.3,8.7-0.6
			c-0.6-0.9-1.2-1.7-1.9-2.4l1-0.5c1.4,1.6,2.7,3.4,3.8,5.3l-1.1,0.5c-0.4-0.7-0.8-1.3-1.2-1.9c-3.4,0.3-7.1,0.5-11.3,0.7
			L129.3,1033.5z M141.3,1042.9h-1.2v-0.8h-8.4v0.8h-1.2v-6.7h10.7V1042.9z M140.2,1041v-3.7h-8.4v3.7H140.2z"/>
		<path class="st3" d="M159,1029.9v1.1h-4v10.3h-1.3V1031h-4v-1.1H159z"/>
		<path class="st3" d="M162,1030.2c0.2,0.2,0.3,0.4,0.3,0.7c0,0.3-0.1,0.5-0.3,0.7c-0.2,0.2-0.4,0.3-0.7,0.3s-0.5-0.1-0.7-0.3
			c-0.2-0.2-0.3-0.4-0.3-0.7c0-0.3,0.1-0.5,0.3-0.7c0.2-0.2,0.4-0.3,0.7-0.3S161.8,1030,162,1030.2z M161.9,1033v8.3h-1.3v-8.3
			H161.9z"/>
		<path class="st3" d="M168.6,1029.9c1.8,0,3.2,0.5,4.1,1.6c0.8,1,1.3,2.4,1.3,4.1c0,1.8-0.5,3.2-1.4,4.1c-1,1-2.3,1.6-4.1,1.6h-4
			v-11.4H168.6z M165.8,1040.1h2.4c1.5,0,2.6-0.4,3.4-1.2c0.7-0.8,1.1-1.9,1.1-3.4c0-1.5-0.3-2.7-1-3.4c-0.7-0.8-1.8-1.2-3.3-1.2
			h-2.6V1040.1z"/>
		<path class="st3" d="M180.9,1029.9c1.1,0,1.9,0.3,2.5,0.8c0.6,0.5,0.9,1.2,0.9,2.1c0,0.6-0.2,1.2-0.5,1.7
			c-0.4,0.4-0.8,0.7-1.4,0.9c0.8,0.1,1.3,0.4,1.7,0.9c0.4,0.5,0.6,1.1,0.6,1.9c0,1.1-0.4,2-1.2,2.5c-0.7,0.4-1.6,0.7-2.8,0.7h-5.1
			v-11.4H180.9z M177.1,1034.8h3.5c0.8,0,1.4-0.2,1.8-0.5c0.4-0.3,0.6-0.8,0.6-1.5c0-0.6-0.2-1.1-0.6-1.4c-0.4-0.3-1-0.5-1.8-0.5
			h-3.5V1034.8z M177.1,1040.2h3.7c0.8,0,1.4-0.2,1.9-0.4c0.6-0.4,0.8-0.9,0.8-1.6s-0.3-1.3-0.7-1.6c-0.5-0.4-1.1-0.5-2-0.5h-3.7
			V1040.2z"/>
		<path class="st3" d="M196,1029.9c1.8,0,3.2,0.5,4.1,1.6c0.8,1,1.3,2.4,1.3,4.1c0,1.8-0.5,3.2-1.4,4.1c-1,1-2.3,1.6-4.1,1.6h-4
			v-11.4H196z M193.2,1040.1h2.4c1.5,0,2.6-0.4,3.4-1.2c0.7-0.8,1.1-1.9,1.1-3.4c0-1.5-0.3-2.7-1-3.4c-0.7-0.8-1.8-1.2-3.3-1.2h-2.6
			V1040.1z"/>
		<path class="st3" d="M209.3,1033.7c0.5,0.5,0.7,1.3,0.7,2.3v5.3h-1.2v-1.4c-0.3,0.4-0.8,0.8-1.3,1.1c-0.6,0.3-1.3,0.5-2.1,0.5
			c-0.8,0-1.5-0.2-2-0.6c-0.5-0.4-0.8-1-0.8-1.7c0-0.9,0.4-1.6,1.1-2.1c0.7-0.4,1.6-0.7,2.9-0.7l2,0v-0.4c0-1.4-0.7-2.1-2.2-2.1
			c-0.6,0-1.1,0.1-1.5,0.4c-0.4,0.3-0.7,0.7-0.8,1.2l-1.3-0.1c0.2-0.9,0.6-1.5,1.3-1.9c0.6-0.4,1.4-0.6,2.4-0.6
			C207.9,1032.8,208.7,1033.1,209.3,1033.7z M206.8,1037.3c-1.9,0-2.8,0.6-2.8,1.8c0,0.4,0.1,0.7,0.5,0.9c0.3,0.2,0.7,0.4,1.2,0.4
			c0.8,0,1.5-0.3,2.1-0.8c0.6-0.5,0.9-1.1,0.9-1.7v-0.7L206.8,1037.3z"/>
		<path class="st3" d="M214.2,1033h2v1.1h-2v5.3c0,0.3,0,0.5,0.2,0.7c0.1,0.1,0.3,0.2,0.6,0.2h1.1v1.1h-1.2c-0.7,0-1.2-0.2-1.5-0.5
			c-0.3-0.3-0.4-0.8-0.4-1.4v-5.3h-1.7v-1.1h1.7v-2.1l1.3-0.5V1033z"/>
		<path class="st3" d="M223.9,1033.7c0.5,0.5,0.7,1.3,0.7,2.3v5.3h-1.2v-1.4c-0.3,0.4-0.8,0.8-1.3,1.1c-0.6,0.3-1.3,0.5-2.1,0.5
			c-0.8,0-1.5-0.2-2-0.6c-0.5-0.4-0.8-1-0.8-1.7c0-0.9,0.4-1.6,1.1-2.1c0.7-0.4,1.6-0.7,2.9-0.7l2,0v-0.4c0-1.4-0.7-2.1-2.2-2.1
			c-0.6,0-1.1,0.1-1.5,0.4c-0.4,0.3-0.7,0.7-0.8,1.2l-1.3-0.1c0.2-0.9,0.6-1.5,1.3-1.9c0.6-0.4,1.4-0.6,2.4-0.6
			C222.5,1032.8,223.3,1033.1,223.9,1033.7z M221.5,1037.3c-1.9,0-2.8,0.6-2.8,1.8c0,0.4,0.1,0.7,0.5,0.9c0.3,0.2,0.7,0.4,1.2,0.4
			c0.8,0,1.5-0.3,2.1-0.8c0.6-0.5,0.9-1.1,0.9-1.7v-0.7L221.5,1037.3z"/>
		<path class="st3" d="M233.8,1029.9l4.3,9.7h0l4.2-9.7h1.6v11.4h-1.3v-9.1h0l-4,9.1h-1.2l-4-9.1h0v9.1h-1.3v-11.4H233.8z"/>
		<path class="st3" d="M247.8,1030.2c0.2,0.2,0.3,0.4,0.3,0.7c0,0.3-0.1,0.5-0.3,0.7c-0.2,0.2-0.4,0.3-0.7,0.3
			c-0.3,0-0.5-0.1-0.7-0.3c-0.2-0.2-0.3-0.4-0.3-0.7c0-0.3,0.1-0.5,0.3-0.7c0.2-0.2,0.4-0.3,0.7-0.3
			C247.4,1029.9,247.6,1030,247.8,1030.2z M247.8,1033v8.3h-1.3v-8.3H247.8z"/>
		<path class="st3" d="M256.4,1034.4v-1.4h1.3v7.7c0,2.6-1.3,4-3.8,4c-1.1,0-2-0.2-2.6-0.7c-0.6-0.4-1-1.1-1.1-2h1.3
			c0.1,0.6,0.3,1,0.7,1.2c0.4,0.3,0.9,0.4,1.7,0.4c1.7,0,2.5-0.9,2.5-2.8v-1.5c-0.6,1.1-1.5,1.7-2.8,1.7c-1.2,0-2.1-0.4-2.7-1.2
			c-0.7-0.8-1-1.7-1-2.9c0-1.2,0.3-2.2,1-3c0.7-0.8,1.6-1.2,2.7-1.2C254.8,1032.8,255.8,1033.3,256.4,1034.4z M251.8,1034.7
			c-0.4,0.5-0.7,1.3-0.7,2.2c0,0.9,0.2,1.6,0.6,2.1c0.4,0.6,1.1,0.9,2,0.9c0.8,0,1.5-0.3,2-0.9c0.4-0.6,0.7-1.3,0.7-2.2
			c0-0.9-0.2-1.7-0.7-2.2c-0.5-0.6-1.1-0.9-1.9-0.9C252.9,1033.8,252.3,1034.1,251.8,1034.7z"/>
		<path class="st3" d="M264.4,1033v1.3c-0.4-0.1-0.8-0.2-1.2-0.2c-0.6,0-1.2,0.3-1.6,0.8c-0.4,0.5-0.7,1.2-0.7,2v4.4h-1.3v-8.3h1.3
			v1.4c0.2-0.5,0.5-0.9,0.9-1.1c0.4-0.4,0.9-0.5,1.5-0.5C263.7,1032.8,264.1,1032.8,264.4,1033z"/>
		<path class="st3" d="M271.7,1033.7c0.5,0.5,0.7,1.3,0.7,2.3v5.3h-1.2v-1.4c-0.3,0.4-0.8,0.8-1.3,1.1c-0.6,0.3-1.3,0.5-2.1,0.5
			c-0.8,0-1.5-0.2-2-0.6c-0.5-0.4-0.8-1-0.8-1.7c0-0.9,0.4-1.6,1.1-2.1c0.7-0.4,1.6-0.7,2.9-0.7l2,0v-0.4c0-1.4-0.7-2.1-2.2-2.1
			c-0.6,0-1.1,0.1-1.5,0.4c-0.4,0.3-0.7,0.7-0.8,1.2l-1.3-0.1c0.2-0.9,0.6-1.5,1.3-1.9c0.6-0.4,1.4-0.6,2.4-0.6
			C270.3,1032.8,271.1,1033.1,271.7,1033.7z M269.2,1037.3c-1.9,0-2.8,0.6-2.8,1.8c0,0.4,0.1,0.7,0.5,0.9c0.3,0.2,0.7,0.4,1.2,0.4
			c0.8,0,1.5-0.3,2.1-0.8c0.6-0.5,0.9-1.1,0.9-1.7v-0.7L269.2,1037.3z"/>
		<path class="st3" d="M276.6,1033h2v1.1h-2v5.3c0,0.3,0,0.5,0.2,0.7c0.1,0.1,0.3,0.2,0.6,0.2h1.1v1.1h-1.2c-0.7,0-1.2-0.2-1.5-0.5
			c-0.3-0.3-0.4-0.8-0.4-1.4v-5.3h-1.7v-1.1h1.7v-2.1l1.3-0.5V1033z"/>
		<path class="st3" d="M281.8,1030.2c0.2,0.2,0.3,0.4,0.3,0.7c0,0.3-0.1,0.5-0.3,0.7c-0.2,0.2-0.4,0.3-0.7,0.3s-0.5-0.1-0.7-0.3
			c-0.2-0.2-0.3-0.4-0.3-0.7c0-0.3,0.1-0.5,0.3-0.7c0.2-0.2,0.4-0.3,0.7-0.3S281.6,1030,281.8,1030.2z M281.8,1033v8.3h-1.3v-8.3
			H281.8z"/>
		<path class="st3" d="M290.8,1034.1c0.7,0.8,1.1,1.8,1.1,3.1c0,1.2-0.4,2.3-1,3.1c-0.8,0.9-1.7,1.3-3,1.3c-1.2,0-2.2-0.4-3-1.3
			c-0.7-0.8-1.1-1.8-1.1-3.1c0-1.2,0.4-2.3,1.1-3.1c0.7-0.9,1.7-1.3,3-1.3C289.1,1032.8,290.1,1033.2,290.8,1034.1z M285.8,1034.9
			c-0.4,0.6-0.7,1.4-0.7,2.3c0,0.9,0.2,1.7,0.7,2.3c0.5,0.7,1.2,1,2,1c0.9,0,1.6-0.3,2.1-1c0.4-0.6,0.7-1.4,0.7-2.3
			c0-0.9-0.2-1.7-0.7-2.3c-0.5-0.7-1.2-1-2.1-1C287,1033.9,286.3,1034.2,285.8,1034.9z"/>
		<path class="st3" d="M300.5,1036.2v5.1h-1.3v-5c0-1.6-0.7-2.4-2.2-2.4c-0.6,0-1.1,0.2-1.5,0.6c-0.4,0.4-0.7,1-0.7,1.8v5h-1.3v-8.3
			h1.3v1.2c0.3-0.5,0.7-0.8,1.1-1.1c0.4-0.3,0.9-0.4,1.5-0.4C299.5,1032.8,300.5,1033.9,300.5,1036.2z"/>
		<path class="st3" d="M311.6,1029.9v11.4h-1.3v-9.8c-0.7,0.7-1.6,1.2-2.7,1.6v-1.3c0.5-0.1,1.1-0.4,1.6-0.7c0.5-0.4,1-0.7,1.4-1.2
			H311.6z"/>
		<path class="st3" d="M316.1,1039.7c0.2,0.2,0.3,0.4,0.3,0.7c0,0.3-0.1,0.5-0.3,0.7c-0.2,0.2-0.4,0.3-0.7,0.3
			c-0.3,0-0.5-0.1-0.7-0.3c-0.2-0.2-0.3-0.4-0.3-0.7c0-0.3,0.1-0.5,0.3-0.7c0.2-0.2,0.4-0.3,0.7-0.3
			C315.6,1039.4,315.9,1039.5,316.1,1039.7z"/>
		<path class="st3" d="M325.4,1031.4c0.6,1,0.9,2.4,0.9,4.1c0,1.7-0.3,3.1-0.9,4.1c-0.7,1.2-1.7,1.8-3.1,1.8c-1.4,0-2.4-0.6-3.1-1.8
			c-0.6-1-0.9-2.4-0.9-4.1c0-1.7,0.3-3.1,0.9-4.1c0.7-1.2,1.7-1.8,3.1-1.8C323.6,1029.6,324.7,1030.2,325.4,1031.4z M320.1,1032.4
			c-0.3,0.8-0.5,1.8-0.5,3.2c0,1.3,0.2,2.4,0.5,3.2c0.4,1.1,1.2,1.6,2.2,1.6s1.8-0.6,2.2-1.6c0.3-0.8,0.5-1.8,0.5-3.2
			c0-1.3-0.2-2.4-0.5-3.2c-0.4-1.1-1.2-1.6-2.2-1.6S320.5,1031.3,320.1,1032.4z"/>
	</g>
	<g class="st0">
		<path class="st3" d="M9.4,1062.4c0.8,0.7,1.3,1.6,1.5,2.8H9.6c-0.2-0.9-0.6-1.5-1.2-2c-0.6-0.5-1.4-0.7-2.4-0.7
			c-1.2,0-2.2,0.4-3,1.3c-0.7,0.9-1.1,2-1.1,3.5c0,1.4,0.4,2.6,1.1,3.4c0.8,0.9,1.9,1.3,3.4,1.3c0.6,0,1.2-0.1,1.8-0.3
			c0.6-0.2,1-0.4,1.4-0.6v-2.9H6.1v-1.1h4.9v4.7c-0.5,0.4-1.2,0.8-2,1c-0.8,0.3-1.7,0.4-2.7,0.4c-1.8,0-3.2-0.6-4.2-1.7
			c-0.9-1.1-1.4-2.5-1.4-4.2c0-1.7,0.4-3.1,1.4-4.2c1-1.2,2.3-1.8,4-1.8C7.5,1061.3,8.6,1061.7,9.4,1062.4z"/>
		<path class="st3" d="M18,1061.6l4.5,11.4h-1.4l-1.2-3.2h-5.2l-1.2,3.2H12l4.5-11.4H18z M19.4,1068.7l-2.2-5.7h-0.1l-2.2,5.7H19.4z
			"/>
		<path class="st3" d="M30.9,1060.4l1.1,0.2l-0.9,3.2H34c0.3-1.2,0.6-2.5,0.8-3.9l1.2,0.1c-0.2,1.3-0.5,2.6-0.8,3.8h7.5v1.1h-7.8
			c-0.2,0.6-0.4,1.2-0.6,1.8h6.5v1c-0.4,1.4-1.3,2.6-2.6,3.7c1.3,0.8,2.9,1.5,4.7,2.1l-0.6,1.1c-2-0.8-3.7-1.6-5.1-2.4
			c-1.3,0.9-2.9,1.8-4.9,2.5l-0.6-1.1c1.8-0.7,3.3-1.4,4.5-2.2c-1.2-1-2.1-2-2.7-3.1c-1.2,2.5-2.7,4.5-4.5,6l-0.6-1.1
			c2.3-2,4-4.8,5.2-8.4h-4L30.9,1060.4z M37.2,1070.7c1.2-0.9,2-1.9,2.4-3h-5.2C35,1068.8,35.9,1069.8,37.2,1070.7z M41.4,1062.6
			l-0.8,0.8c-0.7-0.8-1.6-1.7-2.8-2.7l0.8-0.8C39.7,1060.8,40.7,1061.7,41.4,1062.6z"/>
		<path class="st3" d="M49.6,1060.1v4.2h0.9v1.1h-3.8v0.8c0,0.5,0,1,0,1.4h3.1v6.8h-1.1v-5.7h-2c-0.2,2.4-0.6,4.2-1.3,5.5l-0.9-0.8
			c0.7-1.5,1.1-4,1.1-7.3v-5.9h1.1v3.9h1.7v-4.2H49.6z M52.5,1067.4c-0.1,3-0.6,5.3-1.6,7.1l-0.8-0.8c0.8-1.5,1.2-3.6,1.3-6.3v-6.4
			c2.5,0,4.8-0.4,6.8-1l0.6,1c-1.9,0.5-4,0.9-6.3,1v2.5h5.9v1c-0.4,2.2-1.1,4.1-2.1,5.6c0.8,1.1,1.7,1.9,2.9,2.4l-0.6,1
			c-1.2-0.6-2.2-1.5-3-2.5c-0.9,1-1.9,1.9-3.2,2.5l-0.6-1c1.2-0.7,2.2-1.5,3-2.5c-0.9-1.5-1.6-3.3-1.9-5.5h-0.5V1067.4z
			 M55.6,1070.1c0.8-1.3,1.4-2.8,1.6-4.5h-3.2C54.4,1067.4,54.9,1068.9,55.6,1070.1z"/>
	</g>
	<g class="st0">
		<path class="st1" d="M5.6,1182c5.2-4.3,9.3-7.9,12.4-10.6c3-2.8,5.6-5.7,7.6-8.7s3.1-6,3.1-8.9c0-2.2-0.5-3.9-1.5-5.1
			c-1-1.2-2.5-1.8-4.6-1.8c-2,0-3.6,0.8-4.8,2.3c-1.1,1.5-1.7,3.7-1.7,6.4H3c0.1-4.5,1.1-8.3,2.9-11.4c1.8-3,4.3-5.3,7.3-6.7
			c3-1.4,6.4-2.2,10-2.2c6.3,0,11.1,1.6,14.4,4.9c3.2,3.3,4.8,7.5,4.8,12.7c0,5.7-1.9,11-5.8,15.9c-3.9,4.9-8.9,9.6-14.9,14.3h21.6
			v11.1H3.1V1184C4.9,1182.6,5.8,1181.9,5.6,1182z"/>
		<path class="st1" d="M54.6,1143.3c3.5-5.3,9.3-7.9,17.2-7.9c7.9,0,13.6,2.6,17.2,7.9c3.5,5.3,5.3,12.5,5.3,21.7
			c0,9.3-1.8,16.6-5.3,21.8c-3.5,5.3-9.3,7.9-17.2,7.9c-7.9,0-13.6-2.6-17.2-7.9c-3.5-5.3-5.3-12.6-5.3-21.8
			C49.3,1155.8,51.1,1148.6,54.6,1143.3z M79,1152.6c-1.2-2.9-3.6-4.4-7.3-4.4c-3.7,0-6.1,1.5-7.3,4.4c-1.2,2.9-1.8,7.1-1.8,12.4
			c0,3.6,0.2,6.6,0.6,9c0.4,2.4,1.3,4.3,2.6,5.8c1.3,1.5,3.2,2.2,5.8,2.2s4.5-0.7,5.8-2.2c1.3-1.5,2.2-3.4,2.6-5.8
			c0.4-2.4,0.6-5.4,0.6-9C80.8,1159.6,80.2,1155.5,79,1152.6z"/>
		<path class="st1" d="M100,1149.3v-12.7h22.2v58.4h-14.2v-45.7H100z"/>
		<path class="st1" d="M172.6,1148.5h-25v11c1.1-1.2,2.6-2.1,4.5-2.9c1.9-0.7,4-1.1,6.2-1.1c4,0,7.3,0.9,10,2.7
			c2.6,1.8,4.6,4.2,5.8,7c1.2,2.9,1.8,6,1.8,9.4c0,6.2-1.8,11.2-5.3,14.8c-3.5,3.7-8.5,5.5-14.9,5.5c-4.3,0-8-0.7-11.1-2.2
			c-3.1-1.5-5.6-3.5-7.3-6.1c-1.7-2.6-2.6-5.6-2.8-9H148c0.3,1.7,1.1,3,2.3,4.1c1.2,1.1,2.9,1.6,5,1.6c2.5,0,4.4-0.8,5.6-2.4
			c1.2-1.6,1.8-3.7,1.8-6.4c0-2.6-0.6-4.6-1.9-6c-1.3-1.4-3.1-2.1-5.6-2.1c-1.8,0-3.3,0.4-4.5,1.3c-1.2,0.9-1.9,2-2.3,3.5h-13.2
			v-34.8h37.4V1148.5z"/>
	</g>
	<g class="st0">
		<path class="st2" d="M8.6,1248.1v8.4h1.9v1.7H8.6v2.8h-2v-2.8H0.3v-2l6.3-8.1H8.6z M2.1,1256.6h4.5v-5.8H6.5L2.1,1256.6z"/>
		<path class="st2" d="M20.6,1263l-1.4-1.3c1.1-1.6,1.7-3.6,1.7-6v-8.8h10.9v14.1c0,1.2-0.6,1.8-1.8,1.8h-2.3l-0.5-1.8
			c0.8,0.1,1.5,0.1,2.2,0.1c0.4,0,0.5-0.3,0.5-0.7v-3h-7.2C22.4,1259.6,21.7,1261.5,20.6,1263z M29.8,1248.6h-7.1v2.5h7.1V1248.6z
			 M22.7,1255.5h7.1v-2.7h-7.1V1255.5z"/>
	</g>
	<g class="st0">
		<path class="st3" d="M14.5,1280.9v1.1h-6v6h6.6v1.1H8.5v5.7H7.3v-5.7H0.9v-1.1h6.4v-6H1.6v-1.1H14.5z M5.2,1286.7l-1.1,0.5
			c-0.5-1.4-1.1-2.6-1.7-3.7l1.1-0.5C4.1,1284.2,4.7,1285.4,5.2,1286.7z M13.6,1283.5c-0.5,1.3-1.1,2.5-1.9,3.7l-1-0.5
			c0.8-1.2,1.4-2.5,1.9-3.7L13.6,1283.5z"/>
		<path class="st3" d="M23.1,1291.5l0.2,1.1c-1.7,0.6-3.6,1.2-5.6,1.8l-0.3-1c0.3-0.1,0.4-0.4,0.4-0.7v-3.7h4.1v-1.9H17v-1h6v4h-4.1
			v2.9C20.2,1292.5,21.7,1292,23.1,1291.5z M22.4,1281h1v3.7h-6.2v-3.7h1v2.7h1.6v-3.4h1v3.4h1.6V1281z M24.3,1290.9
			c0.2-1,0.4-2.3,0.4-3.9v-6.2H29v12.2c0,0.3,0.1,0.4,0.4,0.4h0.4c0.2,0,0.3,0,0.4-0.1c0.1-0.1,0.2-0.3,0.2-0.5
			c0-0.4,0.1-1.3,0.1-2.9l0.9,0.3c0,1.2,0,2.1-0.1,2.8c-0.1,0.6-0.2,1-0.4,1.3c-0.2,0.2-0.5,0.3-1,0.3h-0.5c-1,0-1.5-0.5-1.5-1.4
			v-11.3h-2.2v5.2c0,1.7-0.2,3.2-0.4,4.3c-0.3,1.2-0.9,2.4-1.7,3.5l-0.8-0.8C23.5,1293.1,24,1292,24.3,1290.9z"/>
		<path class="st3" d="M33.9,1291.9l-0.8-0.9c0.9-1.1,1.7-2.5,2.3-4.3l1,0.2c-0.1,0.4-0.3,0.8-0.4,1.2h4v-1.3h1.2v1.3h5.3v1h-5.3
			v1.6h4.7v1h-4.7v1.6h6v1.1H33.7v-1.1H40v-1.6h-4.4v-1H40v-1.6h-4.4C35.1,1290.2,34.5,1291.1,33.9,1291.9z M45.5,1280.7v5.7H35.1
			v-5.7H45.5z M44.4,1283.1v-1.4h-8.1v1.4H44.4z M44.4,1284h-8.1v1.4h8.1V1284z"/>
		<path class="st3" d="M49.5,1294.9l-0.9-0.8c1.1-1.9,1.7-4.4,1.7-7.7v-5.5h12.4v1.1H51.5v4.6h11.4v1.1h-5c0.1,1,0.5,1.8,1.1,2.7
			c0.9-0.5,1.7-1.2,2.5-2.2l0.8,0.8c-0.8,0.9-1.7,1.6-2.7,2.2c0.9,1,2.2,1.9,3.8,2.8l-0.8,0.9c-3.5-1.9-5.4-4.3-5.7-7.1h-2.4v5.6
			c1.3-0.3,2.4-0.7,3.4-1.1l0.2,1.1c-1.4,0.5-3,1-4.9,1.4l-0.3-1c0.3-0.1,0.5-0.4,0.5-0.8v-5.2h-1.9
			C51.2,1290.6,50.6,1293,49.5,1294.9z M61.6,1283.7v1.1h-8.7v-1.1H61.6z"/>
		<path class="st3" d="M78.7,1280c-0.6,1.1-1.2,2.2-1.5,3.3c-0.5,1.4-0.7,2.8-0.7,4.2c0,1.4,0.2,2.8,0.7,4.2
			c0.4,1.1,0.9,2.2,1.5,3.3h-1.1c-0.7-1-1.2-2.1-1.6-3.3c-0.5-1.4-0.7-2.8-0.7-4.2c0-1.4,0.2-2.8,0.7-4.2c0.4-1.2,0.9-2.3,1.6-3.3
			H78.7z"/>
		<path class="st3" d="M86.5,1280.3v14.5h-1.2v-2.7c-1.3,0.6-2.7,1.1-4.2,1.5l-0.3-1.1c1.6-0.4,3.1-0.9,4.5-1.5v-5.1h-4.2v-1.1h4.2
			v-4.4H86.5z M90.7,1294.6c-1,0-1.5-0.5-1.5-1.6v-12.8h1.2v5.4c1.4-0.5,2.7-1.2,4-2.1l0.7,0.9c-1.7,1-3.2,1.8-4.7,2.3v6.1
			c0,0.4,0.2,0.7,0.6,0.7h2c0.4,0,0.6-0.1,0.8-0.4c0.1-0.3,0.2-1.2,0.3-2.9l1.1,0.4c-0.1,1.9-0.3,3-0.5,3.4
			c-0.3,0.4-0.7,0.6-1.4,0.6H90.7z"/>
		<path class="st3" d="M101.3,1290.8c-1,1.4-2.3,2.7-3.8,3.7l-0.7-0.9c1.5-1,2.7-2.2,3.7-3.5L101.3,1290.8z M104.5,1281.9h6.6v1.1
			H96.9v-1.1h6.5c-0.2-0.6-0.5-1.1-0.7-1.6l1.2-0.2C104.1,1280.7,104.3,1281.3,104.5,1281.9z M109.1,1284.6v4.5h-4.5v4.3
			c0,1-0.5,1.4-1.5,1.4h-1.7l-0.3-1.1c0.5,0,1.1,0.1,1.6,0.1c0.5,0,0.7-0.2,0.7-0.7v-4h-4.6v-4.5H109.1z M108,1285.7h-7.9v2.3h7.9
			V1285.7z M111.1,1293.7l-0.8,0.8c-0.9-1.2-2.1-2.4-3.6-3.7l0.8-0.8C108.9,1291.3,110.1,1292.5,111.1,1293.7z"/>
		<path class="st3" d="M114.4,1280c0.7,1,1.2,2.1,1.6,3.3c0.5,1.4,0.7,2.8,0.7,4.2c0,1.4-0.2,2.8-0.7,4.2c-0.4,1.2-1,2.3-1.6,3.3
			h-1.1c0.6-1.1,1.1-2.2,1.5-3.3c0.5-1.4,0.7-2.8,0.7-4.2c0-1.4-0.2-2.8-0.7-4.2c-0.4-1.2-0.9-2.3-1.5-3.3H114.4z"/>
		<path class="st3" d="M131.6,1284.5v-2.4c-0.8,0.1-1.6,0.2-2.4,0.3l-0.2-1.1c2.1-0.2,3.9-0.5,5.5-1l0.4,1.1
			c-0.7,0.2-1.4,0.4-2.2,0.5v2.6h2.2v1.1h-2.2v0.8c0.9,0.7,1.8,1.5,2.8,2.4l-0.7,1c-0.8-1-1.5-1.7-2.1-2.3v7.3h-1.2v-7.5
			c-0.6,1.6-1.5,3-2.6,4.3l-0.5-1.3c1.4-1.4,2.3-3,2.9-4.7H129v-1.1H131.6z M143.4,1290l-1.6,0.3v4.6h-1.2v-4.4l-5,0.8l-0.2-1.1
			l5.2-0.8v-9h1.2v8.9l1.4-0.2L143.4,1290z M139.4,1287.4l-0.8,0.8c-0.7-0.8-1.7-1.7-3-2.6l0.8-0.8
			C137.7,1285.6,138.6,1286.5,139.4,1287.4z M139.9,1283.6l-0.8,0.8c-0.7-0.8-1.7-1.6-2.9-2.5l0.8-0.8
			C138.1,1281.9,139.1,1282.7,139.9,1283.6z"/>
		<path class="st3" d="M145.2,1294.7l-0.2-1.1c0.4,0,0.8,0.1,1.2,0.1c0.4,0,0.7-0.2,0.7-0.7v-3.8c-0.6,0.3-1.3,0.5-2,0.7l-0.3-1.1
			c0.8-0.2,1.5-0.4,2.2-0.7v-3.8h-1.9v-1.1h1.9v-2.9h1.1v2.9h1.7v1.1h-1.7v3.3c0.6-0.3,1.2-0.6,1.7-0.9v1.1
			c-0.6,0.3-1.2,0.6-1.7,0.9v4.6c0,1-0.5,1.4-1.4,1.4H145.2z M154,1282.5v-2.3h1.1v2.3h3.9v1.1h-3.9v2.6h3.2v1
			c-0.6,1.8-1.5,3.3-2.8,4.5c1.1,0.8,2.4,1.5,3.9,2.2l-0.6,1c-1.6-0.7-3-1.5-4-2.4c-1.2,1-2.8,1.8-4.6,2.4l-0.5-1
			c1.7-0.6,3.1-1.3,4.3-2.2c-1.3-1.3-2.2-2.8-2.7-4.4h-0.8v-1.1h3.5v-2.6h-3.8v-1.1H154z M154.8,1291.1c1.1-1.1,1.9-2.3,2.4-3.8
			h-4.8C152.8,1288.7,153.6,1290,154.8,1291.1z"/>
		<path class="st3" d="M165.6,1291.4v3.4h-1.1v-8.4c-0.9,1.1-1.9,2.2-3.1,3.1l-0.8-1c2-1.6,3.6-3.4,4.7-5.5h-4.2v-1.1h4.8
			c0.3-0.6,0.5-1.2,0.7-1.9l1.2,0.1c-0.2,0.6-0.4,1.2-0.6,1.7h8v1.1h-8.4c-0.3,0.6-0.7,1.3-1,1.9h7.4v8.6c0,0.8-0.4,1.2-1.3,1.2
			h-1.8l-0.3-1.1c0.6,0,1.2,0.1,1.7,0.1c0.4,0,0.6-0.2,0.6-0.6v-1.8H165.6z M165.6,1287.7h6.4v-1.7h-6.4V1287.7z M165.6,1288.7v1.7
			h6.4v-1.7H165.6z"/>
		<path class="st3" d="M182.3,1280.8v0.9c-0.5,1.4-1.1,2.9-1.7,4.5c1,1.4,1.6,2.7,1.6,3.8c0,0.7-0.2,1.2-0.5,1.5
			c-0.4,0.4-1.2,0.6-2.4,0.6l-0.4-1.2c0.3,0,0.5,0.1,0.6,0.1c0.6,0,1-0.1,1.2-0.2c0.2-0.1,0.3-0.4,0.3-0.7c0-1.1-0.6-2.3-1.7-3.7
			c0.8-1.7,1.3-3.2,1.8-4.5h-2.6v12.9h-1.1v-14.1H182.3z M184.1,1287.7v5.5c1-0.3,1.9-0.7,2.9-1.1l0.3,1.1c-1.2,0.5-2.6,1-4.3,1.4
			l-0.3-1c0.2-0.1,0.4-0.2,0.4-0.4v-12.4h7v6.9h-3c0.2,0.9,0.5,1.8,1,2.6c0.8-0.4,1.5-1.1,2.2-1.9l0.8,0.8c-0.7,0.9-1.6,1.5-2.5,2
			c0.7,1,1.7,1.9,2.9,2.6l-0.6,1c-2.7-1.7-4.3-4-4.8-7H184.1z M188.9,1281.9h-4.7v1.8h4.7V1281.9z M184.1,1286.7h4.7v-1.8h-4.7
			V1286.7z"/>
		<path class="st3" d="M198.3,1280.8c-1.2,3.4-2.7,5.9-4.7,7.7l-0.9-0.8c2-1.8,3.5-4.3,4.5-7.3L198.3,1280.8z M205.9,1294.4
			l-1.1,0.5c-0.2-0.5-0.5-1.1-0.7-1.5c-2.8,0.4-6,0.8-9.5,1l-0.2-1.1c1.3-0.7,2.9-3.2,4.8-7.6l1.1,0.4c-1.4,3-2.8,5.4-4.1,7.2
			c2.6-0.2,5.1-0.4,7.3-0.8c-0.6-1.2-1.3-2.2-1.9-3.2l1-0.4C204,1290.6,205,1292.4,205.9,1294.4z M207.3,1287.5l-0.8,0.9
			c-2.4-2-4.1-4.6-5-7.7l1-0.5C203.4,1283.2,205,1285.7,207.3,1287.5z"/>
		<path class="st3" d="M219,1284v1h-9.8v-1H219z M218,1294.8l-0.3-1.1l2.2,0c0.5,0,0.7-0.3,0.7-1V1282h-10.9v-1.1h12v12.2
			c0,1.1-0.5,1.7-1.6,1.7H218z M217.4,1287v4.9h-7.1v-4.9H217.4z M216.3,1288.1h-4.8v2.9h4.8V1288.1z"/>
		<path class="st3" d="M237.9,1281.9l-0.7,0.7h2v1.1h-4.9c0.1,2,0.3,3.6,0.6,4.7c0.1,0.4,0.2,0.8,0.3,1.1c0.8-1.3,1.4-2.8,1.9-4.5
			l1,0.4c-0.6,2.1-1.5,3.9-2.5,5.3c0.2,0.5,0.5,1,0.7,1.3c0.5,0.8,1,1.2,1.3,1.2c0.3,0,0.6-0.8,0.8-2.5l1,0.6
			c-0.4,2.1-0.9,3.2-1.6,3.2c-0.7,0-1.4-0.5-2.2-1.4c-0.3-0.4-0.6-0.8-0.8-1.3c-1.1,1.3-2.4,2.3-3.9,3l-0.6-1c1.6-0.7,3-1.8,4.1-3.2
			c-0.2-0.6-0.4-1.2-0.6-1.9c-0.4-1.3-0.6-3-0.7-5h-5.5v2.7h3.9c0,2.7-0.2,4.5-0.4,5.2c-0.2,0.7-0.7,1-1.5,1.1c-0.4,0-0.8,0-1.4-0.1
			l-0.4-1c0.6,0,1.2,0,1.6,0c0.4,0,0.6-0.3,0.7-0.7c0.1-0.5,0.1-1.7,0.2-3.5h-2.8v0.5c-0.1,2.9-0.7,5.2-1.9,6.9l-0.9-0.8
			c1-1.5,1.6-3.5,1.6-6.1v-5.3h6.6c0-0.8,0-1.6,0-2.5h1.2c0,0.9,0,1.7,0,2.5h3c-0.5-0.6-1.1-1.2-1.9-1.8l0.7-0.7
			C236.7,1280.7,237.3,1281.3,237.9,1281.9z"/>
		<path class="st3" d="M248.7,1292.8c1-2.1,1.8-4.8,2.6-8l1.2,0.3c-0.7,2.9-1.5,5.4-2.5,7.7h5.2v1.1h-14.5v-1.1H248.7z
			 M247.5,1282.8c-0.3-0.9-0.5-1.6-0.8-2.4l1.3-0.2c0.3,0.8,0.5,1.6,0.7,2.6h6v1.1h-13.4v-1.1H247.5z M246.6,1292l-1.2,0.3
			c-0.5-2.4-1.1-4.8-1.8-7l1.2-0.4C245.5,1287,246.1,1289.3,246.6,1292z"/>
	</g>
</g>
</svg>
