<?xml version="1.0" encoding="utf-8"?>
<!-- Generator: Adobe Illustrator 25.1.0, SVG Export Plug-In . SVG Version: 6.00 Build 0)  -->
<svg version="1.1" id="图层_1" xmlns="http://www.w3.org/2000/svg" xmlns:xlink="http://www.w3.org/1999/xlink" x="0px" y="0px"
	 viewBox="0 0 896 723.6" style="enable-background:new 0 0 896 723.6;" xml:space="preserve">
<style type="text/css">
	.st0{enable-background:new    ;}
	.st1{fill:#3D3FEA;}
	.st2{fill:#30323E;}
	.st3{fill:#4E4E4E;}
	.st4{opacity:0.3;fill:none;stroke:#000431;enable-background:new    ;}
</style>
<g id="组_3267" transform="translate(-502 -208)">
	<g class="st0">
		<path class="st1" d="M618.1,263.6c5.2-4.3,9.3-7.9,12.4-10.6c3-2.8,5.6-5.7,7.6-8.7s3.1-6,3.1-8.9c0-2.2-0.5-3.9-1.5-5.1
			c-1-1.2-2.5-1.8-4.6-1.8c-2,0-3.6,0.8-4.8,2.3c-1.1,1.5-1.7,3.7-1.7,6.4h-13.2c0.1-4.5,1.1-8.3,2.9-11.4c1.8-3,4.3-5.3,7.3-6.7
			c3-1.4,6.4-2.2,10-2.2c6.3,0,11.1,1.6,14.4,4.9c3.2,3.3,4.8,7.5,4.8,12.7c0,5.7-1.9,11-5.8,15.9c-3.9,4.9-8.9,9.6-14.9,14.3h21.6
			v11.1h-40.2v-10.2C617.5,264.2,618.3,263.5,618.1,263.6z"/>
		<path class="st1" d="M667.1,224.9c3.5-5.3,9.3-7.9,17.2-7.9c7.9,0,13.6,2.6,17.2,7.9c3.5,5.3,5.3,12.5,5.3,21.7
			c0,9.3-1.8,16.6-5.3,21.8c-3.5,5.3-9.3,7.9-17.2,7.9c-7.9,0-13.6-2.6-17.2-7.9c-3.5-5.3-5.3-12.6-5.3-21.8
			C661.8,237.4,663.6,230.2,667.1,224.9z M691.6,234.1c-1.2-2.9-3.6-4.4-7.3-4.4c-3.7,0-6.1,1.5-7.3,4.4c-1.2,2.9-1.8,7.1-1.8,12.4
			c0,3.6,0.2,6.6,0.6,9c0.4,2.4,1.3,4.3,2.6,5.8c1.3,1.5,3.2,2.2,5.8,2.2s4.5-0.7,5.8-2.2c1.3-1.5,2.2-3.4,2.6-5.8
			c0.4-2.4,0.6-5.4,0.6-9C693.3,241.2,692.7,237.1,691.6,234.1z"/>
		<path class="st1" d="M716,263.6c5.2-4.3,9.3-7.9,12.4-10.6c3-2.8,5.6-5.7,7.6-8.7s3.1-6,3.1-8.9c0-2.2-0.5-3.9-1.5-5.1
			c-1-1.2-2.5-1.8-4.6-1.8c-2,0-3.6,0.8-4.8,2.3c-1.1,1.5-1.7,3.7-1.7,6.4h-13.2c0.1-4.5,1.1-8.3,2.9-11.4c1.8-3,4.3-5.3,7.3-6.7
			c3-1.4,6.4-2.2,10-2.2c6.3,0,11.1,1.6,14.4,4.9c3.2,3.3,4.8,7.5,4.8,12.7c0,5.7-1.9,11-5.8,15.9c-3.9,4.9-8.9,9.6-14.9,14.3h21.6
			v11.1h-40.2v-10.2C715.3,264.2,716.1,263.5,716,263.6z"/>
		<path class="st1" d="M758.2,230.9v-12.7h22.2v58.4h-14.2v-45.7H758.2z"/>
	</g>
	<g class="st0">
		<path class="st2" d="M950.1,220.7v8.4h1.9v1.7h-1.9v2.8h-2v-2.8h-6.2v-2l6.3-8.1H950.1z M943.6,229.2h4.5v-5.8H948L943.6,229.2z"
			/>
		<path class="st2" d="M962.1,235.6l-1.4-1.3c1.1-1.6,1.7-3.6,1.7-6v-8.8h10.9v14.1c0,1.2-0.6,1.8-1.8,1.8h-2.3l-0.5-1.8
			c0.8,0.1,1.5,0.1,2.2,0.1c0.4,0,0.5-0.3,0.5-0.7v-3h-7.2C963.9,232.1,963.2,234.1,962.1,235.6z M971.4,221.2h-7.1v2.5h7.1V221.2z
			 M964.2,228.1h7.1v-2.7h-7.1V228.1z"/>
	</g>
	<g class="st0">
		<path class="st3" d="M956.6,253.4v1.1h-6.4c-0.1,0.7-0.3,1.4-0.6,2h6.1v10.9h-1.1v-0.8h-10.3v0.8h-1.1v-10.9h5.2
			c0.3-0.7,0.5-1.3,0.6-2h-6.7v-1.1H956.6z M946.6,265.7v-8h-2.2v8H946.6z M951.4,259.6v-2h-3.6v2H951.4z M951.4,262.6v-2h-3.6v2
			H951.4z M951.4,265.7v-2h-3.6v2H951.4z M954.7,265.7v-8h-2.3v8H954.7z"/>
		<path class="st3" d="M965.7,252.9c-0.2,0.8-0.5,1.5-0.8,2.2h7.1v10.7c0,1-0.5,1.6-1.5,1.6h-2.4l-0.3-1.2l2.3,0
			c0.4,0,0.7-0.2,0.7-0.7v-9.3h-10.4v11.2h-1.2v-12.3h4.4c0.4-0.8,0.7-1.6,0.8-2.4L965.7,252.9z M968.5,258.5v5.6h-5.9v-5.6H968.5z
			 M967.4,259.6h-3.7v3.4h3.7V259.6z"/>
		<path class="st3" d="M981.9,252.8c2,2.2,4.4,4,7,5.3l-0.6,1.1c-2.7-1.4-4.9-3.2-6.8-5.4c-1.7,2.1-4,3.9-6.9,5.4l-0.6-1.1
			c2.8-1.4,5.2-3.2,7.1-5.3H981.9z M982.6,257.1v3.6h4.4v1.1h-4.4v3.9h5.5v1.1h-13.3v-1.1h2.4v-6.3h1.1v6.3h3.1v-8.6H982.6z"/>
		<path class="st3" d="M996.4,253v12.7h2.3V253h1.2v12.7h4.8v1.1h-14.2v-1.1h4.8V253H996.4z M994.1,263.3l-1.1,0.3
			c-0.6-2.6-1.3-5-2.2-7.4l1-0.3C992.6,258,993.4,260.5,994.1,263.3z M1004.2,256.2c-0.6,2.8-1.4,5.2-2.4,7.3l-1-0.4
			c0.9-1.9,1.7-4.3,2.4-7.2L1004.2,256.2z"/>
		<path class="st3" d="M1011.1,265.2c-1.4,0.6-3,1-4.8,1.4l-0.1-1.1c1.9-0.3,3.5-0.8,4.9-1.3V265.2z M1010.2,253.2
			c-0.8,2-1.7,3.6-2.5,4.8c0.8-0.1,1.5-0.2,2.3-0.3c0.3-0.5,0.6-1.1,1-1.7l1,0.4c-1.5,2.6-2.7,4.5-3.7,5.6c1.2-0.2,2.3-0.5,3.5-0.8
			v1c-1.7,0.5-3.3,0.8-4.9,1l-0.3-1c0.2-0.1,0.4-0.2,0.5-0.3c0.6-0.6,1.4-1.6,2.3-3.1c-0.9,0.1-1.9,0.3-2.8,0.4l-0.3-1.1
			c0.2-0.1,0.3-0.2,0.5-0.4c0.9-1.4,1.7-3.1,2.4-4.9L1010.2,253.2z M1011.9,254.5v-1.1h7v0.7c-0.3,1.4-0.5,2.7-0.8,3.7h2v0.6
			c-0.3,2.2-1.1,4.1-2.2,5.6c0.8,0.9,1.8,1.7,2.9,2.4l-0.7,1c-1.1-0.7-2.1-1.6-2.9-2.5c-1,1-2.1,1.9-3.5,2.5l-0.6-1.1
			c1.3-0.7,2.5-1.5,3.4-2.4c-1-1.3-1.7-2.8-2.2-4.4c-0.5,3.4-1.5,6-3.2,7.8l-0.8-0.8c2.1-2.3,3.1-6.1,3.2-11.3v-0.9H1011.9z
			 M1019.1,258.9h-2.2c0.3-1,0.6-2.4,0.9-4.3h-3.1v0.9c0,0.6,0,1.2,0,1.7c0.4,2.3,1.3,4.4,2.6,6.1
			C1018.1,262,1018.7,260.5,1019.1,258.9z"/>
		<path class="st3" d="M1025.7,267.5h-1.1v-8c-0.5,1.6-1.2,3.1-2,4.4l-0.5-1.2c1.1-1.7,2-3.6,2.4-5.7h-2.2v-1.1h2.2v-3.1h1.1v3.1
			h1.9v1.1h-1.9v1c0.8,0.9,1.5,1.9,2.3,3l-0.6,1c-0.7-1.1-1.2-2-1.7-2.7V267.5z M1027.7,267.4l-0.6-1c3.8-1.2,6.6-3.6,8.5-7.1l1,0.5
			c-0.8,1.4-1.7,2.7-2.7,3.7c1.2,1,2.1,2,2.9,3l-0.8,0.8c-0.7-1-1.6-2-2.8-3.2C1031.6,265.6,1029.8,266.7,1027.7,267.4z M1032,254.6
			c-0.2-0.6-0.5-1.1-0.8-1.6l1.2-0.2c0.2,0.5,0.5,1.1,0.7,1.8h3.6v1h-4.4c-0.9,1.6-1.6,2.7-2.3,3.3c1-0.1,2-0.1,3-0.2
			c0.4-0.6,0.8-1.2,1.1-1.8l0.9,0.5c-1.6,3.2-3.9,5.3-7,6.5l-0.6-1c1.9-0.7,3.6-1.8,4.9-3.2c-1.1,0.1-2.3,0.1-3.6,0.2l-0.2-0.9
			c0.1,0,0.2-0.1,0.2-0.1c0.6-0.4,1.5-1.5,2.5-3.2h-3.1v-1H1032z"/>
		<path class="st3" d="M1041.1,258.1c-0.4,2.8-1.1,5.1-1.9,7.1l-1-0.6c0.8-2,1.4-4.3,1.8-6.7L1041.1,258.1z M1044,266.9
			c-1.1,0-1.7-0.5-1.7-1.6v-9.2h1.2v8.9c0,0.5,0.3,0.7,0.9,0.7h3c0.4,0,0.7-0.2,0.8-0.5c0.2-0.4,0.3-1.5,0.4-3.4l1.1,0.4
			c-0.1,2.2-0.4,3.5-0.7,4c-0.3,0.4-0.8,0.6-1.4,0.6H1044z M1047.9,256.9l-1,0.7c-0.8-1.2-2-2.6-3.4-4.1l1-0.6
			C1046,254.4,1047.1,255.8,1047.9,256.9z M1053,264l-1.1,0.5c-0.8-2.5-1.7-4.8-2.7-6.8l1.1-0.4C1051.3,259.4,1052.2,261.6,1053,264
			z"/>
		<path class="st3" d="M1056.3,257.2v-4.1h1.2v4.1h2v1.1h-2v5.6c0.7-0.2,1.4-0.4,2-0.7v1.2c-1.6,0.6-3.2,1.1-5,1.5l-0.3-1.2
			c0.7-0.1,1.4-0.3,2.1-0.4v-5.9h-1.9v-1.1H1056.3z M1060.2,259.4v-1.1c1.9-1.1,3.7-2.3,5.3-3.6h-5.2v-1.1h6.8v1
			c-1.5,1.3-3.2,2.5-5.1,3.7h6.1c-0.1,3.7-0.3,6.1-0.5,7.2c-0.3,1.1-1,1.6-2.2,1.7c-0.5,0-1,0-1.5,0l-0.3-1.1c0.6,0,1.1,0.1,1.7,0.1
			c0.6,0,1.1-0.3,1.3-0.9c0.2-0.5,0.4-2.5,0.4-5.9h-1.2c-0.4,1.9-1,3.5-1.7,4.6c-0.8,1.2-2.1,2.3-3.7,3.2l-0.7-0.9
			c1.5-0.8,2.7-1.8,3.5-2.8c0.7-1,1.2-2.4,1.6-4.1h-1.3c-0.6,2-1.6,3.6-3.1,4.7l-0.7-0.9c1.3-1,2.2-2.3,2.7-3.8H1060.2z"/>
		<path class="st3" d="M1075,265c-1.1,0.9-2.4,1.7-4.1,2.2l-0.6-0.9c1.7-0.6,3.1-1.2,4-2L1075,265z M1082.8,253.3v4.6h-5
			c0.1,0.3,0.3,0.6,0.4,0.9h6.3v1h-14.1v-1h6.6c-0.2-0.3-0.3-0.6-0.5-0.9h-4.3v-4.6H1082.8z M1082.6,260.6v3.2h-4.4v2.3
			c0,0.9-0.4,1.3-1.2,1.3h-1.9l-0.2-1.1c0.6,0,1.2,0.1,1.8,0.1c0.3,0,0.5-0.2,0.5-0.6v-2h-4.6v-3.2H1082.6z M1081.7,255.1v-0.9h-8.3
			v0.9H1081.7z M1081.7,255.9h-8.3v1h8.3V255.9z M1081.5,261.5h-7.9v1.4h7.9V261.5z M1084.8,266.2l-0.4,1.1c-1.5-0.8-3-1.5-4.5-2
			l0.5-0.9C1081.9,264.8,1083.4,265.4,1084.8,266.2z"/>
		<path class="st3" d="M1092,266.5h-1.1v-0.9h-2.9v1.4h-1.1v-11.4h1.5c0.3-0.9,0.5-1.8,0.7-2.8l1.2,0.2c-0.2,0.9-0.4,1.8-0.8,2.6
			h2.6V266.5z M1090.9,259.9v-3.3h-2.9v3.3H1090.9z M1090.9,264.5V261h-2.9v3.5H1090.9z M1100,265.4c-0.2,1.2-0.9,1.8-2.2,1.8
			c-0.3,0-0.9,0-1.6-0.1l-0.3-1.1c0.7,0,1.2,0,1.7,0c0.8,0,1.2-0.4,1.3-1.2c0.1-0.9,0.2-3.7,0.2-8.3h-4.4c-0.4,1-1,1.9-1.6,2.7
			l-0.7-0.9c1.1-1.6,1.9-3.5,2.3-5.8l1.1,0.1c-0.2,0.9-0.4,1.8-0.7,2.7h5.1C1100.3,260.9,1100.2,264.2,1100,265.4z M1097.4,262.8
			l-0.9,0.6c-0.7-1.1-1.5-2.2-2.6-3.6l0.9-0.6C1095.9,260.6,1096.8,261.8,1097.4,262.8z"/>
		<path class="st3" d="M1116.5,254.4v1.1h-4v10.3h-1.3v-10.3h-4v-1.1H1116.5z"/>
		<path class="st3" d="M1119.5,254.7c0.2,0.2,0.3,0.4,0.3,0.7c0,0.3-0.1,0.5-0.3,0.7c-0.2,0.2-0.4,0.3-0.7,0.3s-0.5-0.1-0.7-0.3
			c-0.2-0.2-0.3-0.4-0.3-0.7c0-0.3,0.1-0.5,0.3-0.7c0.2-0.2,0.4-0.3,0.7-0.3S1119.3,254.6,1119.5,254.7z M1119.4,257.6v8.3h-1.3
			v-8.3H1119.4z"/>
		<path class="st3" d="M1126.1,254.4c1.8,0,3.2,0.5,4.1,1.6c0.8,1,1.3,2.4,1.3,4.1c0,1.8-0.5,3.2-1.4,4.1c-1,1-2.3,1.6-4.1,1.6h-4
			v-11.4H1126.1z M1123.3,264.7h2.4c1.5,0,2.6-0.4,3.4-1.2c0.7-0.8,1.1-1.9,1.1-3.4c0-1.5-0.3-2.7-1-3.4c-0.7-0.8-1.8-1.2-3.3-1.2
			h-2.6V264.7z"/>
		<path class="st3" d="M1138.4,254.4c1.1,0,1.9,0.3,2.5,0.8c0.6,0.5,0.9,1.2,0.9,2.1c0,0.6-0.2,1.2-0.5,1.7
			c-0.4,0.4-0.8,0.7-1.4,0.9c0.8,0.1,1.3,0.4,1.7,0.9c0.4,0.5,0.6,1.1,0.6,1.9c0,1.1-0.4,2-1.2,2.5c-0.7,0.4-1.6,0.7-2.8,0.7h-5.1
			v-11.4H1138.4z M1134.6,259.4h3.5c0.8,0,1.4-0.2,1.8-0.5c0.4-0.3,0.6-0.8,0.6-1.5c0-0.6-0.2-1.1-0.6-1.4c-0.4-0.3-1-0.5-1.8-0.5
			h-3.5V259.4z M1134.6,264.8h3.7c0.8,0,1.4-0.2,1.9-0.4c0.6-0.4,0.8-0.9,0.8-1.6s-0.3-1.3-0.7-1.6c-0.5-0.4-1.1-0.5-2-0.5h-3.7
			V264.8z"/>
		<path class="st3" d="M1156.6,254.4v1.2h-5.6l-0.4,3.8h0.1c0.3-0.4,0.7-0.7,1.2-0.9c0.4-0.2,0.9-0.3,1.5-0.3c1.1,0,2,0.3,2.6,1
			c0.7,0.7,1,1.7,1,2.9c0,1.2-0.4,2.1-1.2,2.8c-0.8,0.7-1.7,1-2.8,1c-1,0-1.9-0.3-2.6-0.8c-0.8-0.6-1.2-1.4-1.3-2.5h1.3
			c0.1,0.7,0.4,1.3,0.9,1.7c0.4,0.3,1,0.5,1.7,0.5c0.8,0,1.5-0.3,2-0.8c0.5-0.5,0.8-1.2,0.8-2c0-0.9-0.3-1.6-0.7-2.1
			c-0.5-0.5-1.1-0.8-2-0.8c-0.5,0-1,0.1-1.5,0.4c-0.4,0.2-0.8,0.6-1,1h-1.2l0.6-6.3H1156.6z"/>
		<path class="st3" d="M1160.7,264.3c0.2,0.2,0.3,0.4,0.3,0.7c0,0.3-0.1,0.5-0.3,0.7c-0.2,0.2-0.4,0.3-0.7,0.3
			c-0.3,0-0.5-0.1-0.7-0.3c-0.2-0.2-0.3-0.4-0.3-0.7c0-0.3,0.1-0.5,0.3-0.7c0.2-0.2,0.4-0.3,0.7-0.3
			C1160.3,264,1160.5,264.1,1160.7,264.3z"/>
		<path class="st3" d="M1170,256c0.6,1,0.9,2.4,0.9,4.1c0,1.7-0.3,3.1-0.9,4.1c-0.7,1.2-1.7,1.8-3.1,1.8c-1.4,0-2.4-0.6-3.1-1.8
			c-0.6-1-0.9-2.4-0.9-4.1c0-1.7,0.3-3.1,0.9-4.1c0.7-1.2,1.7-1.8,3.1-1.8C1168.3,254.2,1169.3,254.8,1170,256z M1164.7,257
			c-0.3,0.8-0.5,1.8-0.5,3.2c0,1.3,0.2,2.4,0.5,3.2c0.4,1.1,1.2,1.6,2.2,1.6c1,0,1.8-0.6,2.2-1.6c0.3-0.8,0.5-1.8,0.5-3.2
			c0-1.3-0.2-2.4-0.5-3.2c-0.4-1.1-1.2-1.6-2.2-1.6C1165.9,255.3,1165.2,255.9,1164.7,257z"/>
		<path class="st3" d="M1185.5,252.8c2,2.2,4.4,4,7,5.3l-0.6,1.1c-2.7-1.4-4.9-3.2-6.8-5.4c-1.7,2.1-4,3.9-6.9,5.4l-0.6-1.1
			c2.8-1.4,5.2-3.2,7.1-5.3H1185.5z M1186.1,257.1v3.6h4.4v1.1h-4.4v3.9h5.5v1.1h-13.3v-1.1h2.4v-6.3h1.1v6.3h3.1v-8.6H1186.1z"/>
		<path class="st3" d="M1199.9,253v12.7h2.3V253h1.2v12.7h4.8v1.1H1194v-1.1h4.8V253H1199.9z M1197.6,263.3l-1.1,0.3
			c-0.6-2.6-1.3-5-2.2-7.4l1-0.3C1196.2,258,1196.9,260.5,1197.6,263.3z M1207.7,256.2c-0.6,2.8-1.4,5.2-2.4,7.3l-1-0.4
			c0.9-1.9,1.7-4.3,2.4-7.2L1207.7,256.2z"/>
		<path class="st3" d="M1214.8,253v4.2h0.9v1.1h-3.8v0.8c0,0.5,0,1,0,1.4h3.1v6.8h-1.1v-5.7h-2c-0.2,2.4-0.6,4.2-1.3,5.5l-0.9-0.8
			c0.7-1.5,1.1-4,1.1-7.3v-5.9h1.1v3.9h1.7V253H1214.8z M1217.7,260.3c-0.1,3-0.6,5.3-1.6,7.1l-0.8-0.8c0.8-1.5,1.2-3.6,1.3-6.3
			v-6.4c2.5,0,4.8-0.4,6.8-1l0.6,1c-1.9,0.5-4,0.9-6.3,1v2.5h5.9v1c-0.4,2.2-1.1,4.1-2.1,5.6c0.8,1.1,1.7,1.9,2.9,2.4l-0.6,1
			c-1.2-0.6-2.2-1.5-3-2.5c-0.9,1-1.9,1.9-3.2,2.5l-0.6-1c1.2-0.7,2.2-1.5,3-2.5c-0.9-1.5-1.6-3.3-1.9-5.5h-0.5V260.3z M1220.9,263
			c0.8-1.3,1.4-2.8,1.6-4.5h-3.2C1219.7,260.3,1220.2,261.8,1220.9,263z"/>
		<path class="st3" d="M1239.8,255.3c0.8,0.7,1.3,1.6,1.5,2.8h-1.3c-0.2-0.9-0.6-1.5-1.2-2c-0.6-0.5-1.4-0.7-2.4-0.7
			c-1.2,0-2.2,0.4-3,1.3c-0.7,0.9-1.1,2-1.1,3.5c0,1.4,0.4,2.6,1.1,3.4c0.8,0.9,1.9,1.3,3.4,1.3c0.6,0,1.2-0.1,1.8-0.3
			c0.6-0.2,1-0.4,1.4-0.6v-2.9h-3.6V260h4.9v4.7c-0.5,0.4-1.2,0.8-2,1c-0.8,0.3-1.7,0.4-2.7,0.4c-1.8,0-3.2-0.6-4.2-1.7
			c-0.9-1.1-1.4-2.5-1.4-4.2c0-1.7,0.4-3.1,1.4-4.2c1-1.2,2.3-1.8,4-1.8C1237.8,254.2,1239,254.6,1239.8,255.3z"/>
		<path class="st3" d="M1248.4,254.4l4.5,11.4h-1.4l-1.2-3.2h-5.2l-1.2,3.2h-1.4l4.5-11.4H1248.4z M1249.8,261.6l-2.2-5.7h-0.1
			l-2.2,5.7H1249.8z"/>
		<path class="st3" d="M1261.3,253.3l1.1,0.2l-0.9,3.2h2.8c0.3-1.2,0.6-2.5,0.8-3.9l1.2,0.1c-0.2,1.3-0.5,2.6-0.8,3.8h7.5v1.1h-7.8
			c-0.2,0.6-0.4,1.2-0.6,1.8h6.5v1c-0.4,1.4-1.3,2.6-2.6,3.7c1.3,0.8,2.9,1.5,4.7,2.1l-0.6,1.1c-2-0.8-3.7-1.6-5.1-2.4
			c-1.3,0.9-2.9,1.8-4.9,2.5l-0.6-1.1c1.8-0.7,3.3-1.4,4.5-2.2c-1.2-1-2.1-2-2.7-3.1c-1.2,2.5-2.7,4.5-4.5,6l-0.6-1.1
			c2.3-2,4-4.8,5.2-8.4h-4L1261.3,253.3z M1267.5,263.6c1.2-0.9,2-1.9,2.4-3h-5.2C1265.3,261.7,1266.3,262.7,1267.5,263.6z
			 M1271.8,255.4l-0.8,0.8c-0.7-0.8-1.6-1.7-2.8-2.7l0.8-0.8C1270.1,253.7,1271.1,254.6,1271.8,255.4z"/>
		<path class="st3" d="M1280,253v4.2h0.9v1.1h-3.8v0.8c0,0.5,0,1,0,1.4h3.1v6.8h-1.1v-5.7h-2c-0.2,2.4-0.6,4.2-1.3,5.5l-0.9-0.8
			c0.7-1.5,1.1-4,1.1-7.3v-5.9h1.1v3.9h1.7V253H1280z M1282.9,260.3c-0.1,3-0.6,5.3-1.6,7.1l-0.8-0.8c0.8-1.5,1.2-3.6,1.3-6.3v-6.4
			c2.5,0,4.8-0.4,6.8-1l0.6,1c-1.9,0.5-4,0.9-6.3,1v2.5h5.9v1c-0.4,2.2-1.1,4.1-2.1,5.6c0.8,1.1,1.7,1.9,2.9,2.4l-0.6,1
			c-1.2-0.6-2.2-1.5-3-2.5c-0.9,1-1.9,1.9-3.2,2.5l-0.6-1c1.2-0.7,2.2-1.5,3-2.5c-0.9-1.5-1.6-3.3-1.9-5.5h-0.5V260.3z M1286,263
			c0.8-1.3,1.4-2.8,1.6-4.5h-3.2C1284.8,260.3,1285.3,261.8,1286,263z"/>
	</g>
	<g class="st0">
		<path class="st2" d="M950.2,311.6c0.7,0.6,1.1,1.5,1.1,2.4c0,0.6-0.1,1.2-0.4,1.7c-0.3,0.5-0.8,0.8-1.4,1.1v0
			c0.6,0.2,1.1,0.5,1.5,1.1c0.5,0.6,0.7,1.3,0.7,2.1c0,1.2-0.4,2.1-1.3,2.8c-0.8,0.7-2,1.1-3.6,1.1c-1.5,0-2.7-0.4-3.6-1.1
			c-0.8-0.7-1.3-1.6-1.3-2.8c0-0.8,0.2-1.5,0.7-2.1c0.4-0.6,0.9-0.9,1.5-1.1v0c-0.6-0.3-1.1-0.6-1.4-1.1c-0.3-0.5-0.4-1-0.4-1.7
			c0-1,0.4-1.8,1.1-2.4c0.8-0.7,1.9-1.1,3.3-1.1C948.3,310.5,949.4,310.8,950.2,311.6z M944.9,318.3c-0.5,0.4-0.7,1-0.7,1.7
			c0,0.6,0.2,1.2,0.7,1.6c0.5,0.4,1.1,0.6,2,0.6c0.9,0,1.5-0.2,2.1-0.6c0.5-0.4,0.7-0.9,0.7-1.5c0-0.7-0.2-1.2-0.7-1.6
			c-0.5-0.5-1.2-0.7-2.1-0.7C946,317.7,945.3,317.9,944.9,318.3z M945.1,312.8c-0.4,0.4-0.6,0.8-0.6,1.3c0,0.6,0.2,1.1,0.5,1.4
			c0.4,0.4,1,0.6,1.9,0.6c0.9,0,1.5-0.2,1.9-0.6c0.3-0.3,0.5-0.8,0.5-1.4c0-0.5-0.2-1-0.6-1.3c-0.5-0.4-1.1-0.6-1.8-0.6
			C946.2,312.2,945.6,312.4,945.1,312.8z"/>
		<path class="st2" d="M962.1,325.6l-1.4-1.3c1.1-1.6,1.7-3.6,1.7-6v-8.8h10.9v14.1c0,1.2-0.6,1.8-1.8,1.8h-2.3l-0.5-1.8
			c0.8,0.1,1.5,0.1,2.2,0.1c0.4,0,0.5-0.3,0.5-0.7v-3h-7.2C963.9,322.1,963.2,324.1,962.1,325.6z M971.4,311.2h-7.1v2.5h7.1V311.2z
			 M964.2,318.1h7.1v-2.7h-7.1V318.1z"/>
	</g>
	<g class="st0">
		<path class="st3" d="M951.2,344.2v1.1h-4v10.3h-1.3v-10.3h-4v-1.1H951.2z"/>
		<path class="st3" d="M954.2,344.5c0.2,0.2,0.3,0.4,0.3,0.7c0,0.3-0.1,0.5-0.3,0.7c-0.2,0.2-0.4,0.3-0.7,0.3s-0.5-0.1-0.7-0.3
			c-0.2-0.2-0.3-0.4-0.3-0.7c0-0.3,0.1-0.5,0.3-0.7c0.2-0.2,0.4-0.3,0.7-0.3S954,344.3,954.2,344.5z M954.1,347.3v8.3h-1.3v-8.3
			H954.1z"/>
		<path class="st3" d="M960.8,344.2c1.8,0,3.2,0.5,4.1,1.6c0.8,1,1.3,2.4,1.3,4.1c0,1.8-0.5,3.2-1.4,4.1c-1,1-2.3,1.6-4.1,1.6h-4
			v-11.4H960.8z M958,354.5h2.4c1.5,0,2.6-0.4,3.4-1.2c0.7-0.8,1.1-1.9,1.1-3.4c0-1.5-0.3-2.7-1-3.4c-0.7-0.8-1.8-1.2-3.3-1.2H958
			V354.5z"/>
		<path class="st3" d="M973.1,344.2c1.1,0,1.9,0.3,2.5,0.8c0.6,0.5,0.9,1.2,0.9,2.1c0,0.6-0.2,1.2-0.5,1.7c-0.4,0.4-0.8,0.7-1.4,0.9
			c0.8,0.1,1.3,0.4,1.7,0.9c0.4,0.5,0.6,1.1,0.6,1.9c0,1.1-0.4,2-1.2,2.5c-0.7,0.4-1.6,0.7-2.8,0.7H968v-11.4H973.1z M969.3,349.2
			h3.5c0.8,0,1.4-0.2,1.8-0.5c0.4-0.3,0.6-0.8,0.6-1.5c0-0.6-0.2-1.1-0.6-1.4c-0.4-0.3-1-0.5-1.8-0.5h-3.5V349.2z M969.3,354.5h3.6
			c0.8,0,1.4-0.2,1.9-0.4c0.6-0.4,0.8-0.9,0.8-1.6s-0.3-1.3-0.7-1.6c-0.5-0.4-1.1-0.5-2-0.5h-3.6V354.5z"/>
		<path class="st3" d="M991.5,356.9c-1,0-1.8-0.1-2.5-0.3c-0.6-0.2-1.2-0.6-1.7-1.2c-0.2-0.3-0.4-0.4-0.6-0.4c-0.4,0-1,0.7-1.9,2.2
			l-0.9-0.8c0.8-1.3,1.6-2.2,2.3-2.4v-4.9H984v-1.1h3.4v6c0.1,0.1,0.3,0.2,0.4,0.4c0.4,0.5,0.8,0.8,1.2,1c0.5,0.2,1.2,0.4,2.1,0.4
			c0.8,0,1.9,0,3.1,0c0.8,0,1.5,0,2.3,0c0.8,0,1.4,0,1.8-0.1l-0.3,1.2h-3.7C993.5,356.9,992.5,356.9,991.5,356.9z M987.7,345.3
			l-0.8,0.8c-0.6-0.8-1.5-1.6-2.7-2.5l0.8-0.8C986.1,343.6,987,344.4,987.7,345.3z M991,344.2c0.2-0.6,0.4-1.2,0.6-1.8l1.1,0.3
			c-0.2,0.5-0.4,1-0.5,1.5h5.6v1.1h-6.1c-0.5,1.1-1,2-1.6,2.9h2.6v-1.9h1.1v1.9h3.5v1.1h-3.5v1.9h4.2v1.1h-4.2v3h-1.1v-3h-4.4v-1.1
			h4.4v-1.9H989l-0.3-1.1c0.6-0.8,1.2-1.7,1.8-2.9h-2.1v-1.1H991z"/>
		<path class="st3" d="M1003.4,342.9c-0.7,2-1.5,3.6-2.3,4.8c0.7-0.1,1.3-0.2,2-0.3c0.3-0.5,0.6-1.1,0.9-1.7l1.1,0.4
			c-1.4,2.6-2.5,4.4-3.4,5.5c1-0.2,1.9-0.5,2.9-0.8v1c-1.5,0.5-2.9,0.8-4.3,1l-0.3-1.1c0.2-0.1,0.4-0.2,0.5-0.3
			c0.6-0.6,1.3-1.6,2.1-3c-0.8,0.1-1.6,0.3-2.5,0.4l-0.3-1.1c0.2-0.1,0.3-0.2,0.5-0.4c0.8-1.4,1.5-3.1,2-4.9L1003.4,342.9z
			 M1004.7,354.9c-1.4,0.6-3,1-4.7,1.4l-0.1-1.1c1.9-0.3,3.5-0.8,4.9-1.4V354.9z M1009.5,351.8c0-0.4,0.1-0.7,0.1-1.1v-3h1.1v3
			c0,0.4,0,0.7-0.1,1.1h3.7v1.1h-3.9c-0.1,0.3-0.2,0.5-0.3,0.8c1.6,0.7,3,1.6,4.3,2.6l-0.6,1c-1.3-1.1-2.7-2-4.1-2.7
			c-0.1,0.2-0.2,0.3-0.3,0.4c-0.8,1-2,1.7-3.8,2.3l-0.6-1c1.7-0.5,2.9-1.2,3.6-2.1c0.3-0.4,0.5-0.8,0.7-1.3h-4.2v-1.1H1009.5z
			 M1008.1,350.7l-0.5,0.8c-0.8-0.7-1.6-1.2-2.4-1.6l0.5-0.8C1006.5,349.6,1007.3,350.1,1008.1,350.7z M1009.1,343.5v-1.1h1.1v1.1
			h3.4v1h-3.4v1.5h3.7v0.7c-0.2,1-0.5,2-0.9,3l-1.1-0.3c0.3-0.7,0.6-1.5,0.8-2.4h-7.3V346h3.7v-1.5h-3.2v-1H1009.1z M1009.1,349
			l-0.5,0.8c-0.7-0.6-1.5-1.2-2.2-1.5l0.5-0.8C1007.7,347.9,1008.5,348.4,1009.1,349z"/>
		<path class="st3" d="M1027.9,344.8c0.7,0.6,1,1.4,1,2.4s-0.4,1.9-1.1,2.7c-0.4,0.4-1.2,1-2.4,1.8c-1.5,1-2.3,1.9-2.5,2.6h6v1.2
			h-7.6c0-1,0.4-2,1.1-2.8c0.4-0.5,1.3-1.2,2.5-2c0.9-0.6,1.5-1.1,1.8-1.4c0.6-0.6,0.9-1.3,0.9-2c0-0.7-0.2-1.2-0.6-1.6
			s-1-0.6-1.7-0.6c-0.8,0-1.4,0.3-1.8,0.8c-0.4,0.5-0.7,1.3-0.7,2.3h-1.3c0-1.3,0.4-2.3,1.1-3.1c0.7-0.8,1.6-1.2,2.8-1.2
			C1026.3,343.9,1027.2,344.2,1027.9,344.8z"/>
		<path class="st3" d="M1037.8,345.7c0.6,1,0.9,2.4,0.9,4.1c0,1.7-0.3,3.1-0.9,4.1c-0.7,1.2-1.7,1.8-3.1,1.8c-1.4,0-2.4-0.6-3.1-1.8
			c-0.6-1-0.9-2.4-0.9-4.1c0-1.7,0.3-3.1,0.9-4.1c0.7-1.2,1.7-1.8,3.1-1.8C1036.1,343.9,1037.1,344.5,1037.8,345.7z M1032.5,346.7
			c-0.3,0.8-0.5,1.8-0.5,3.2c0,1.3,0.2,2.4,0.5,3.2c0.4,1.1,1.2,1.6,2.2,1.6s1.8-0.6,2.2-1.6c0.3-0.8,0.5-1.8,0.5-3.2
			c0-1.3-0.2-2.4-0.5-3.2c-0.4-1.1-1.2-1.6-2.2-1.6S1032.9,345.6,1032.5,346.7z"/>
		<path class="st3" d="M1053.3,342.5c1.3,2.2,3.6,4.1,6.9,5.8l-0.7,1c-3-1.6-5.3-3.5-6.7-5.8c-1.8,2.5-4,4.5-6.7,5.9l-0.7-1
			c3-1.5,5.3-3.5,6.9-5.9H1053.3z M1053.4,347.3v9.9h-1.2v-9.9H1053.4z"/>
		<path class="st3" d="M1063.9,357.2l-0.9-0.8c1.1-1.4,1.6-3.3,1.6-5.5v-7.8h9.2v12.5c0,0.9-0.5,1.4-1.4,1.4h-2.1l-0.3-1.1
			c0.7,0,1.4,0.1,2,0.1c0.4,0,0.6-0.2,0.6-0.7v-3.2h-6.9C1065.6,354.2,1065,355.9,1063.9,357.2z M1072.7,344.3h-6.8v2.8h6.8V344.3z
			 M1065.8,351h6.8v-2.9h-6.8V351z"/>
		<path class="st3" d="M1078.1,352.4l-0.7-0.9c2-1.6,3.6-3.5,4.7-5.7h-4.1v-1.1h4.7c0.3-0.7,0.6-1.5,0.8-2.3l1.2,0.1
			c-0.2,0.7-0.5,1.5-0.8,2.1h8.1v1.1h-8.6c-0.6,1.3-1.4,2.4-2.2,3.5v7.9h-1.1v-6.6C1079.4,351.3,1078.8,351.9,1078.1,352.4z
			 M1086.2,350v-3h1.2v3h3.8v1.1h-3.8v4.4h4.5v1.1h-10v-1.1h4.3v-4.4h-3.7V350H1086.2z"/>
		<path class="st3" d="M1096.6,351.6c-0.5,0.8-1.2,1.6-2,2.2l-0.8-0.6c0.7-0.6,1.3-1.2,1.9-2L1096.6,351.6z M1106.4,343.1v4.1h-5
			v0.9h5.6v0.8h-5.6v1h6.5v0.9h-14.1V350h6.5v-1h-5.5v-0.8h5.5v-0.9h-4.9v-4.1H1106.4z M1100.3,353.7v-1.3h1.1v1.3h4.6v0.9h-4.6v1.3
			h6.2v1H1094v-1h6.3v-1.3h-4.5v-0.9H1100.3z M1100.4,344h-4v2.3h2.4c-0.4-0.5-0.8-1.1-1.4-1.6l0.6-0.6c0.5,0.5,1,1.1,1.4,1.6
			l-0.6,0.6h1.6V344z M1099.6,352.9l-0.9,0.3c-0.2-0.6-0.5-1.2-0.8-1.8l0.9-0.3C1099.2,351.8,1099.4,352.4,1099.6,352.9z
			 M1105.3,344h-4v2.3h1.6l-0.6-0.6c0.5-0.5,0.9-1,1.3-1.5l0.7,0.5c-0.4,0.6-0.9,1.2-1.3,1.6h2.3V344z M1103.7,353l-0.9,0.3
			c-0.3-0.7-0.6-1.3-0.9-1.9l0.9-0.3C1103.2,351.8,1103.5,352.4,1103.7,353z M1107.9,353.3l-0.7,0.7c-0.5-0.7-1.3-1.3-2.2-2.1
			l0.7-0.7C1106.6,351.9,1107.3,352.6,1107.9,353.3z"/>
		<path class="st3" d="M1115.9,348.2c0.2-1.1,0.3-2.3,0.4-3.7h-5.8v-1.1h12.6v1.1h-5.7c-0.1,1.4-0.2,2.6-0.4,3.7h6.6v1.1h-5.9
			c1.1,3,3.2,5.4,6.4,7l-0.7,0.9c-3.3-1.8-5.5-4.3-6.6-7.6c-0.3,1.1-0.6,2-1,2.8c-1.1,1.9-2.9,3.5-5.5,4.9l-0.7-0.9
			c2.4-1.2,4.1-2.7,5.1-4.4c0.4-0.7,0.8-1.6,1-2.6h-5.6v-1.1H1115.9z"/>
		<path class="st3" d="M1129.9,346.9v2.4h1.8v1h-1.8v2.2c0.8-0.2,1.5-0.3,2.2-0.5v1.1c-0.7,0.2-1.5,0.4-2.2,0.5v3.5h-1.1v-3.3
			c-1,0.2-2,0.3-3.1,0.5l-0.1-1.1c1.2-0.1,2.2-0.3,3.3-0.5v-2.4h-2.7l-0.2-1c0.4-1,0.9-2.2,1.3-3.6h-1.6v-1.1h1.9
			c0.2-0.7,0.3-1.4,0.4-2.1l1.1,0.2c-0.1,0.7-0.3,1.3-0.4,2h3.2v1.1h-3.5c-0.4,1.4-0.8,2.6-1.2,3.6h1.8v-2.4H1129.9z M1136.3,342.6
			c0.8,2,2.1,3.7,4,5.1l-0.7,1c-1.7-1.3-3-3-3.8-5c-1,2.2-2.4,3.9-3.9,5.1l-0.6-1c1.7-1.3,3.1-3.1,4-5.2H1136.3z M1134.8,357
			c-1,0-1.5-0.6-1.5-1.7v-6.9h1.1v2.8c1.3-0.6,2.5-1.3,3.7-2.3l0.7,0.9c-1.6,1.1-3,2-4.4,2.5v2.7c0,0.6,0.2,0.8,0.8,0.8h2.4
			c0.4,0,0.7-0.1,0.8-0.4c0.2-0.3,0.4-1.1,0.4-2.5l1.1,0.4c-0.1,1.7-0.4,2.7-0.7,3.1c-0.3,0.3-0.8,0.5-1.4,0.5H1134.8z"/>
		<path class="st3" d="M1155.4,357.2h-1.2v-0.7h-10.8v0.7h-1.2v-13.9h13.2V357.2z M1154.2,355.4v-11h-10.8v11H1154.2z M1152.8,345.8
			v1h-3.4v2.3h2.9v1h-2.9v2.5h3.8v1.1h-8.8v-1.1h3.8v-2.5h-2.9v-1h2.9v-2.3h-3.4v-1H1152.8z M1152.4,352.3l-0.9,0.4
			c-0.3-0.7-0.7-1.3-1.1-1.9l0.9-0.3C1151.7,351,1152.1,351.6,1152.4,352.3z"/>
		<path class="st3" d="M1165.6,344.2h5.6v1.1h-2.8c-0.2,0.8-0.4,1.7-0.8,2.4h3.9v1.1h-11.5v2.4c-0.1,2.5-0.6,4.5-1.7,6l-0.9-0.8
			c0.9-1.2,1.4-3,1.5-5.2v-3.5h3.3l-0.7-2.4h-2.9v-1.1h5.9c-0.2-0.6-0.5-1.2-0.8-1.6l1.2-0.2
			C1165.1,342.8,1165.4,343.5,1165.6,344.2z M1166.6,347.7c0.4-0.8,0.6-1.6,0.8-2.4h-4.7l0.7,2.4H1166.6z"/>
		<path class="st3" d="M1177.7,350.1c-0.1,0.3-0.2,0.6-0.3,0.9h3.3v0.9c-0.4,1.1-0.9,2-1.8,2.7c0.8,0.4,1.5,0.7,2.2,1.1l-0.6,0.9
			c-0.7-0.4-1.5-0.8-2.5-1.3c-1.1,0.7-2.4,1.3-4,1.8l-0.5-1c1.3-0.4,2.4-0.8,3.4-1.3c-0.7-0.3-1.4-0.6-2.2-0.9
			c0.4-0.7,0.8-1.4,1.1-2h-1.9v-1h2.3c0.1-0.4,0.3-0.7,0.4-1L1177.7,350.1z M1177,345.6v-3.1h1.1v3.1h2.9v1h-2.9v0.2
			c0.9,0.4,1.8,0.9,2.7,1.5l-0.6,0.9c-0.8-0.6-1.5-1.2-2.1-1.5v2.1h-1.1v-3c-0.5,1.3-1.5,2.4-2.9,3.3l-0.6-0.9
			c1.2-0.7,2.1-1.5,2.6-2.4h-2.3v-1H1177z M1176.1,344.8l-0.8,0.4c-0.3-0.8-0.7-1.5-1.1-2.1l0.9-0.3
			C1175.5,343.4,1175.8,344.1,1176.1,344.8z M1179.7,352h-2.8c-0.3,0.5-0.5,1.1-0.9,1.5c0.6,0.2,1.2,0.4,1.8,0.7
			C1178.7,353.6,1179.3,352.8,1179.7,352z M1180.8,343.2c-0.3,0.7-0.7,1.4-1.2,2.1l-0.8-0.4c0.5-0.7,0.9-1.4,1.2-2L1180.8,343.2z
			 M1182.6,348.6c-0.3,0.7-0.6,1.4-0.9,2l-0.7-0.9c0.9-1.8,1.6-4.2,1.9-7.3l1.1,0.2c-0.1,0.8-0.2,1.6-0.4,2.3h4.2v1.1h-1
			c-0.1,2.7-0.6,5-1.5,6.9c0.8,1.4,1.8,2.5,3,3.3l-0.6,0.9c-1.1-0.8-2.1-1.9-2.9-3.2c-0.8,1.3-1.8,2.4-3,3.2l-0.6-1
			c1.2-0.9,2.2-2,3-3.3C1183.6,351.7,1183,350.2,1182.6,348.6z M1183.2,346.9c0.4,1.9,0.9,3.5,1.6,4.8c0.6-1.6,1-3.5,1-5.7h-2.4
			L1183.2,346.9z"/>
		<path class="st3" d="M1190.1,357l-0.2-1.1c0.4,0,0.8,0.1,1.2,0.1c0.4,0,0.6-0.2,0.6-0.7v-3.9c-0.6,0.2-1.3,0.5-1.9,0.7l-0.3-1.1
			c0.7-0.2,1.5-0.4,2.2-0.7v-3.6h-1.9v-1.1h1.9v-3h1.1v3h1.5v1.1h-1.5v3.2c0.5-0.2,1-0.5,1.5-0.7v1.1c-0.5,0.3-1,0.5-1.5,0.7v4.7
			c0,0.9-0.4,1.4-1.3,1.4H1190.1z M1194.4,357.2l-0.9-0.8c1.1-2.1,1.7-4.9,1.7-8.2v-5h8.4v3.9h-3v1.9h3.4v1h-3.4v2h2.7v5.2h-1.1
			v-0.8h-4.3v0.8h-1.1v-5.2h2.7v-2h-3.3C1196.1,352.7,1195.4,355.1,1194.4,357.2z M1196.3,347v1.1c0,0.3,0,0.5,0,0.8h3.2V347H1196.3
			z M1196.3,344.2v1.8h6.2v-1.8H1196.3z M1202.2,355.4V353h-4.3v2.4H1202.2z"/>
		<path class="st3" d="M1214.2,343.9h5.8v1.1h-11.9v3.6c-0.1,3.5-0.6,6.4-1.6,8.5l-0.9-0.8c0.9-1.8,1.3-4.4,1.4-7.6v-4.8h6
			c-0.3-0.5-0.5-0.9-0.8-1.3l1.3-0.2C1213.7,342.8,1213.9,343.4,1214.2,343.9z M1213.4,345.8c-0.1,0.4-0.3,0.9-0.4,1.3h6.2v1h-6.6
			c-0.4,1-0.9,1.9-1.4,2.7h3v-1.9h1.2v1.9h3.6v1h-3.6v1.8h4.8v1.1h-4.8v2.5h-1.2v-2.5h-5.8v-1.1h5.8v-1.8h-4.2l-0.2-1
			c0.6-0.8,1.2-1.7,1.7-2.8h-2.4v-1h2.8c0.2-0.5,0.4-1,0.5-1.5L1213.4,345.8z"/>
		<path class="st3" d="M1225.1,348.9l-0.8,0.8c-0.6-0.7-1.5-1.5-2.5-2.4l0.8-0.8C1223.6,347.3,1224.4,348.1,1225.1,348.9z
			 M1225.2,351.2c-0.6,2-1.3,4-2.1,5.8l-1.1-0.5c0.8-1.9,1.5-3.7,2.1-5.7L1225.2,351.2z M1225.4,344.8l-0.8,0.8
			c-0.6-0.7-1.4-1.3-2.5-2.1l0.8-0.8C1223.9,343.4,1224.7,344.1,1225.4,344.8z M1228.2,349.9c-0.1,2.1-0.3,3.6-0.6,4.6
			c-0.4,1-1,1.9-1.9,2.6l-0.7-0.9c0.8-0.6,1.3-1.4,1.6-2.2c0.3-0.8,0.5-2.2,0.5-4.1H1228.2z M1226.1,348.2c0.1,0,0.2-0.1,0.2-0.1
			c0.6-0.4,1.4-1.4,2.3-2.9h-2.8v-1h4.5c-0.2-0.6-0.5-1.1-0.7-1.6l1.2-0.2c0.3,0.5,0.5,1.2,0.7,1.8h4.2v1h-5.8
			c-0.8,1.3-1.4,2.3-2,2.9c1.8-0.1,3.7-0.3,5.5-0.5c-0.4-0.5-0.7-0.9-1.1-1.4l0.9-0.6c1.1,1.3,1.9,2.4,2.5,3.4l-0.9,0.7
			c-0.2-0.4-0.5-0.8-0.7-1.2c-2.4,0.3-4.9,0.5-7.7,0.6L1226.1,348.2z M1230.8,349.9v6.9h-1.2v-6.9H1230.8z M1233.9,357
			c-0.9,0-1.4-0.4-1.4-1.2v-5.8h1.1v5.6c0,0.2,0.1,0.4,0.3,0.4h0.7c0.3,0,0.4-0.2,0.5-0.6c0.1-0.4,0.1-1,0.1-1.9l1,0.4
			c0,1.4-0.1,2.3-0.3,2.6c-0.2,0.3-0.6,0.5-1.2,0.5H1233.9z"/>
		<path class="st3" d="M1242.1,343.1c-0.9,1.8-2.3,3.3-4.3,4.7l-0.3-1.2c1.7-1.2,2.9-2.5,3.6-4L1242.1,343.1z M1242.9,346.8
			c-0.5,0.9-1,1.8-1.7,2.6v7.8h-1.1v-6.7c-0.6,0.6-1.3,1.1-2.1,1.7l-0.3-1.2c2-1.4,3.4-2.9,4.3-4.7L1242.9,346.8z M1252,347.6v1.1
			h-2.6v7c0,0.9-0.5,1.4-1.6,1.4h-2.4l-0.2-1.1c0.8,0,1.5,0.1,2.2,0.1c0.5,0,0.8-0.2,0.8-0.6v-6.7h-5v-1.1H1252z M1251.3,343.5v1.1
			h-7.7v-1.1H1251.3z"/>
		<path class="st3" d="M1256.1,349c-0.1,3.4-0.6,6.1-1.7,8.2l-0.9-0.8c0.9-1.8,1.4-4.2,1.4-7.4v-5.2h6.2c-0.2-0.4-0.4-0.8-0.6-1.1
			l1.2-0.2c0.2,0.4,0.4,0.8,0.6,1.3h5.5v1.1h-11.7v1.8h2.7v-1.3h1.1v1.3h4.2v-1.3h1.1v1.3h2.5v1.1h-2.5v2.5h-6.5v-2.5h-2.7V349z
			 M1266.4,351.3v0.8c-0.9,1.1-2,2-3.3,2.8c1.4,0.6,3.1,1,5,1.3l-0.5,1c-2.2-0.4-4.1-0.9-5.6-1.7c-1.6,0.8-3.5,1.3-5.6,1.7l-0.5-1
			c1.9-0.3,3.5-0.7,5-1.3c-1.2-0.7-2.2-1.6-2.9-2.6h-1v-1H1266.4z M1262,354.4c1.1-0.6,2.1-1.3,2.9-2.1h-5.7
			C1259.9,353.1,1260.9,353.8,1262,354.4z M1259.9,349.3h4.2v-1.5h-4.2V349.3z"/>
		<path class="st3" d="M1269.8,357l-0.3-1.1c0.5,0,0.9,0.1,1.3,0.1c0.4,0,0.7-0.2,0.7-0.6v-3.8c-0.6,0.2-1.2,0.4-1.8,0.6l-0.3-1.2
			c0.7-0.2,1.4-0.4,2-0.6v-3.7h-1.7v-1.1h1.7v-3h1.1v3h1.4v1.1h-1.4v3.3c0.5-0.3,1-0.5,1.6-0.8v1.2c-0.5,0.3-1,0.5-1.6,0.8v4.6
			c0,0.9-0.5,1.3-1.4,1.3H1269.8z M1278.3,342.5v14.7h-1.1v-3.5h-3.2v-1.1h3.2v-2.8h-2.3v-1.1h2.3v-2.7h-2.5v-1h2.5v-2.6H1278.3z
			 M1281.3,342.5v2.6h2.7v1h-2.7v2.7h2.4v1.1h-2.4v2.8h2.8v1.1h-2.8v3.5h-1.1v-14.7H1281.3z"/>
		<path class="st3" d="M1290.1,343.1c-0.9,1.8-2.3,3.3-4.3,4.7l-0.3-1.2c1.7-1.2,2.9-2.5,3.6-4L1290.1,343.1z M1290.9,346.8
			c-0.5,0.9-1,1.8-1.7,2.6v7.8h-1.1v-6.7c-0.6,0.6-1.3,1.1-2.1,1.7l-0.3-1.2c2-1.4,3.4-2.9,4.3-4.7L1290.9,346.8z M1300,347.6v1.1
			h-2.6v7c0,0.9-0.5,1.4-1.6,1.4h-2.4l-0.2-1.1c0.8,0,1.5,0.1,2.2,0.1c0.5,0,0.8-0.2,0.8-0.6v-6.7h-5v-1.1H1300z M1299.3,343.5v1.1
			h-7.7v-1.1H1299.3z"/>
		<path class="st3" d="M1303.7,345.4v-2.9h1.1v2.9h1.7v1.1h-1.7v1.2c0.6,0.8,1.3,1.6,1.9,2.6l-0.6,1c-0.5-1-0.9-1.7-1.3-2.3v8.2
			h-1.1v-8c-0.5,1.5-1.1,2.9-1.8,4.1l-0.5-1.3c1.1-1.6,1.8-3.4,2.3-5.4h-2v-1.1H1303.7z M1311,350.1c-0.2-0.5-0.4-1-0.6-1.5l1.1-0.2
			c0.2,0.5,0.4,1.1,0.6,1.7h3.8v1.1h-5.3c0,0.5-0.1,1-0.2,1.5h4.4c0,2.3-0.2,3.7-0.7,4.1c-0.2,0.2-0.5,0.3-0.9,0.4
			c-0.3,0-0.7,0.1-1,0.1h-0.9l-0.3-1h1.4c0.4,0,0.7-0.1,0.9-0.3c0.2-0.2,0.3-0.9,0.4-2.2h-3.6c-0.6,1.6-1.6,2.9-3.2,3.7l-0.6-1
			c2-1.1,3-2.8,3.2-5.2h-2.5v-1.1H1311z M1310.9,343.9c-0.2-0.5-0.4-0.9-0.6-1.3l1.2-0.2c0.2,0.4,0.4,0.9,0.6,1.5h3.6v1h-1.6
			c-0.1,0.6-0.3,1.3-0.6,1.9h2.2v2.4h-1.1v-1.4h-6.4v1.5h-1.1v-2.5h2.3c-0.2-0.7-0.4-1.3-0.6-1.9h-1.6v-1H1310.9z M1313,344.9h-3
			c0.2,0.6,0.4,1.2,0.6,1.9h1.9C1312.7,346.2,1312.9,345.6,1313,344.9z"/>
		<path class="st3" d="M1324.7,342.5v4.9h5.9v1.1h-5.9v6.9h7.3v1.1h-14.2v-1.1h5.8v-12.9H1324.7z"/>
		<path class="st3" d="M1333.8,357l-0.3-1.1c0.5,0,0.9,0.1,1.3,0.1c0.4,0,0.7-0.2,0.7-0.6v-3.8c-0.6,0.2-1.2,0.4-1.8,0.6l-0.3-1.2
			c0.7-0.2,1.4-0.4,2-0.6v-3.7h-1.7v-1.1h1.7v-3h1.1v3h1.4v1.1h-1.4v3.3c0.5-0.3,1-0.5,1.6-0.8v1.2c-0.5,0.3-1,0.5-1.6,0.8v4.6
			c0,0.9-0.5,1.3-1.4,1.3H1333.8z M1342.3,342.5v14.7h-1.1v-3.5h-3.2v-1.1h3.2v-2.8h-2.3v-1.1h2.3v-2.7h-2.5v-1h2.5v-2.6H1342.3z
			 M1345.3,342.5v2.6h2.7v1h-2.7v2.7h2.4v1.1h-2.4v2.8h2.8v1.1h-2.8v3.5h-1.1v-14.7H1345.3z"/>
		<path class="st3" d="M1354.1,343.1c-0.9,1.8-2.3,3.3-4.3,4.7l-0.3-1.2c1.7-1.2,2.9-2.5,3.6-4L1354.1,343.1z M1354.9,346.8
			c-0.5,0.9-1,1.8-1.7,2.6v7.8h-1.1v-6.7c-0.6,0.6-1.3,1.1-2.1,1.7l-0.3-1.2c2-1.4,3.4-2.9,4.3-4.7L1354.9,346.8z M1364,347.6v1.1
			h-2.6v7c0,0.9-0.5,1.4-1.6,1.4h-2.4l-0.2-1.1c0.8,0,1.5,0.1,2.2,0.1c0.5,0,0.8-0.2,0.8-0.6v-6.7h-5v-1.1H1364z M1363.3,343.5v1.1
			h-7.7v-1.1H1363.3z"/>
		<path class="st3" d="M1366.7,346.3l-1-0.6c1-1,1.8-2,2.2-3.2l1.1,0.2c-0.1,0.4-0.3,0.7-0.4,1h4.3v1h-2.6c0.4,0.5,0.7,0.9,1,1.3
			l-1,0.4c-0.3-0.6-0.7-1.2-1.2-1.7h-1C1367.6,345.2,1367.2,345.8,1366.7,346.3z M1367.1,347.8v-1.1h11.7v3.6h-5.2v1.6h5.8
			c0,1.9-0.1,3.1-0.4,3.6c-0.3,0.5-0.8,0.8-1.7,0.8c-0.7,0-1.3,0-2,0l-0.3-1.1c0.7,0,1.4,0,2.1,0c0.5,0,0.8-0.2,0.9-0.5
			c0.1-0.3,0.1-0.9,0.1-1.8h-4.6v4.2h-1.1V353h0c-1.1,1.5-3,2.8-5.9,3.9l-0.7-1.1c2.6-0.8,4.3-1.8,5.3-2.9h-4.4l0.7-3.6h5v-1.5
			H1367.1z M1368.4,350.4l-0.4,1.6h4.3v-1.6H1368.4z M1373.6,346.3l-1-0.6c0.9-1,1.5-2.1,2-3.2l1.1,0.2c-0.1,0.3-0.2,0.6-0.4,0.9
			h4.7v1h-2.9c0.4,0.5,0.7,1,1,1.4l-1,0.4c-0.3-0.6-0.7-1.2-1.2-1.8h-1.1C1374.4,345.2,1374,345.8,1373.6,346.3z M1377.5,349.3v-1.5
			h-4v1.5H1377.5z"/>
		<path class="st3" d="M1396,349.1v1.2h-14.4v-1.2H1396z"/>
	</g>
	<path id="路径_10994_1_" class="st4" d="M863,217.6v138"/>
	<g class="st0">
		<path class="st1" d="M618.1,786.6c5.2-4.3,9.3-7.9,12.4-10.6c3-2.8,5.6-5.7,7.6-8.7s3.1-6,3.1-8.9c0-2.2-0.5-3.9-1.5-5.1
			c-1-1.2-2.5-1.8-4.6-1.8c-2,0-3.6,0.8-4.8,2.3c-1.1,1.5-1.7,3.7-1.7,6.4h-13.2c0.1-4.5,1.1-8.3,2.9-11.4c1.8-3,4.3-5.3,7.3-6.7
			c3-1.4,6.4-2.2,10-2.2c6.3,0,11.1,1.6,14.4,4.9c3.2,3.3,4.8,7.5,4.8,12.7c0,5.7-1.9,11-5.8,15.9c-3.9,4.9-8.9,9.6-14.9,14.3h21.6
			v11.1h-40.2v-10.2C617.5,787.2,618.3,786.5,618.1,786.6z"/>
		<path class="st1" d="M667.1,747.9c3.5-5.3,9.3-7.9,17.2-7.9c7.9,0,13.6,2.6,17.2,7.9c3.5,5.3,5.3,12.5,5.3,21.7
			c0,9.3-1.8,16.6-5.3,21.8c-3.5,5.3-9.3,7.9-17.2,7.9c-7.9,0-13.6-2.6-17.2-7.9c-3.5-5.3-5.3-12.6-5.3-21.8
			C661.8,760.4,663.6,753.2,667.1,747.9z M691.6,757.1c-1.2-2.9-3.6-4.4-7.3-4.4c-3.7,0-6.1,1.5-7.3,4.4c-1.2,2.9-1.8,7.1-1.8,12.4
			c0,3.6,0.2,6.6,0.6,9c0.4,2.4,1.3,4.3,2.6,5.8c1.3,1.5,3.2,2.2,5.8,2.2s4.5-0.7,5.8-2.2c1.3-1.5,2.2-3.4,2.6-5.8
			c0.4-2.4,0.6-5.4,0.6-9C693.3,764.2,692.7,760.1,691.6,757.1z"/>
		<path class="st1" d="M712.5,753.9v-12.7h22.2v58.4h-14.2v-45.7H712.5z"/>
		<path class="st1" d="M766.1,788.8c2.8,0,4.8-1.3,6-3.8c1.2-2.5,1.8-6.6,1.8-12.2c-1.2,1.7-2.8,2.9-4.8,3.8c-2,0.9-4.3,1.4-6.8,1.4
			c-3.4,0-6.5-0.7-9.1-2.1c-2.7-1.4-4.8-3.5-6.3-6.3s-2.3-6.2-2.3-10.2c0-3.9,0.8-7.4,2.4-10.3c1.6-2.9,3.9-5.2,7-6.8
			c3-1.6,6.6-2.4,10.7-2.4c7.9,0,13.4,2.5,16.6,7.4c3.1,4.9,4.7,12.1,4.7,21.7c0,6.9-0.6,12.7-1.9,17.2c-1.3,4.5-3.4,7.9-6.3,10.3
			c-3,2.3-7,3.5-12.1,3.5c-4.1,0-7.5-0.8-10.4-2.4c-2.9-1.6-5-3.7-6.6-6.3c-1.5-2.6-2.4-5.5-2.6-8.6h12.6
			C759.6,786.7,762,788.8,766.1,788.8z M770.8,765.1c1.3-1.4,2-3.2,2-5.6c0-2.6-0.7-4.5-2.1-5.9c-1.4-1.4-3.3-2.1-5.6-2.1
			c-2.3,0-4.2,0.7-5.6,2.1c-1.4,1.4-2,3.3-2,5.8c0,2.3,0.7,4.1,2,5.6s3.3,2.1,5.9,2.1C767.6,767.2,769.4,766.5,770.8,765.1z"/>
	</g>
	<path id="路径_10996_1_" class="st4" d="M863,738.6v66.1"/>
	<g class="st0">
		<path class="st1" d="M618.1,468.6c5.2-4.3,9.3-7.9,12.4-10.6c3-2.8,5.6-5.7,7.6-8.7s3.1-6,3.1-8.9c0-2.2-0.5-3.9-1.5-5.1
			c-1-1.2-2.5-1.8-4.6-1.8c-2,0-3.6,0.8-4.8,2.3c-1.1,1.5-1.7,3.7-1.7,6.4h-13.2c0.1-4.5,1.1-8.3,2.9-11.4c1.8-3,4.3-5.3,7.3-6.7
			c3-1.4,6.4-2.2,10-2.2c6.3,0,11.1,1.6,14.4,4.9c3.2,3.3,4.8,7.5,4.8,12.7c0,5.7-1.9,11-5.8,15.9c-3.9,4.9-8.9,9.6-14.9,14.3h21.6
			v11.1h-40.2v-10.2C617.5,469.2,618.3,468.5,618.1,468.6z"/>
		<path class="st1" d="M667.1,429.9c3.5-5.3,9.3-7.9,17.2-7.9c7.9,0,13.6,2.6,17.2,7.9c3.5,5.3,5.3,12.5,5.3,21.7
			c0,9.3-1.8,16.6-5.3,21.8c-3.5,5.3-9.3,7.9-17.2,7.9c-7.9,0-13.6-2.6-17.2-7.9c-3.5-5.3-5.3-12.6-5.3-21.8
			C661.8,442.4,663.6,435.2,667.1,429.9z M691.6,439.1c-1.2-2.9-3.6-4.4-7.3-4.4c-3.7,0-6.1,1.5-7.3,4.4c-1.2,2.9-1.8,7.1-1.8,12.4
			c0,3.6,0.2,6.6,0.6,9c0.4,2.4,1.3,4.3,2.6,5.8c1.3,1.5,3.2,2.2,5.8,2.2s4.5-0.7,5.8-2.2c1.3-1.5,2.2-3.4,2.6-5.8
			c0.4-2.4,0.6-5.4,0.6-9C693.3,446.2,692.7,442.1,691.6,439.1z"/>
		<path class="st1" d="M716,468.6c5.2-4.3,9.3-7.9,12.4-10.6c3-2.8,5.6-5.7,7.6-8.7s3.1-6,3.1-8.9c0-2.2-0.5-3.9-1.5-5.1
			c-1-1.2-2.5-1.8-4.6-1.8c-2,0-3.6,0.8-4.8,2.3c-1.1,1.5-1.7,3.7-1.7,6.4h-13.2c0.1-4.5,1.1-8.3,2.9-11.4c1.8-3,4.3-5.3,7.3-6.7
			c3-1.4,6.4-2.2,10-2.2c6.3,0,11.1,1.6,14.4,4.9c3.2,3.3,4.8,7.5,4.8,12.7c0,5.7-1.9,11-5.8,15.9c-3.9,4.9-8.9,9.6-14.9,14.3h21.6
			v11.1h-40.2v-10.2C715.3,469.2,716.1,468.5,716,468.6z"/>
		<path class="st1" d="M765,429.9c3.5-5.3,9.3-7.9,17.2-7.9c7.9,0,13.6,2.6,17.2,7.9c3.5,5.3,5.3,12.5,5.3,21.7
			c0,9.3-1.8,16.6-5.3,21.8c-3.5,5.3-9.3,7.9-17.2,7.9c-7.9,0-13.6-2.6-17.2-7.9c-3.5-5.3-5.3-12.6-5.3-21.8
			C759.6,442.4,761.4,435.2,765,429.9z M789.4,439.1c-1.2-2.9-3.6-4.4-7.3-4.4c-3.7,0-6.1,1.5-7.3,4.4c-1.2,2.9-1.8,7.1-1.8,12.4
			c0,3.6,0.2,6.6,0.6,9c0.4,2.4,1.3,4.3,2.6,5.8c1.3,1.5,3.2,2.2,5.8,2.2s4.5-0.7,5.8-2.2c1.3-1.5,2.2-3.4,2.6-5.8
			c0.4-2.4,0.6-5.4,0.6-9C791.2,446.2,790.6,442.1,789.4,439.1z"/>
	</g>
	<g class="st0">
		<path class="st2" d="M951,425.7v1.9h-6.1l-0.4,3.5h0.1c0.4-0.4,0.8-0.7,1.4-0.9c0.5-0.2,1-0.3,1.6-0.3c1.2,0,2.2,0.4,3,1.2
			c0.8,0.8,1.2,1.9,1.2,3.3c0,1.3-0.5,2.4-1.5,3.3c-0.9,0.8-2,1.1-3.3,1.1c-1.2,0-2.2-0.3-3-1c-0.9-0.7-1.4-1.7-1.5-2.8h2.1
			c0.1,0.7,0.4,1.2,0.8,1.6c0.4,0.3,1,0.5,1.7,0.5c0.8,0,1.4-0.2,1.9-0.7c0.5-0.5,0.8-1.1,0.8-1.9c0-0.9-0.2-1.5-0.7-2
			c-0.4-0.5-1.1-0.7-1.9-0.7c-0.6,0-1,0.1-1.4,0.3c-0.4,0.2-0.8,0.5-1,1h-2l0.7-7.2H951z"/>
		<path class="st2" d="M962.1,440.6l-1.4-1.3c1.1-1.6,1.7-3.6,1.7-6v-8.8h10.9v14.1c0,1.2-0.6,1.8-1.8,1.8h-2.3l-0.5-1.8
			c0.8,0.1,1.5,0.1,2.2,0.1c0.4,0,0.5-0.3,0.5-0.7v-3h-7.2C963.9,437.1,963.2,439.1,962.1,440.6z M971.4,426.2h-7.1v2.5h7.1V426.2z
			 M964.2,433.1h7.1v-2.7h-7.1V433.1z"/>
	</g>
	<g class="st0">
		<path class="st3" d="M951.2,459.2v1.1h-4v10.3h-1.3v-10.3h-4v-1.1H951.2z"/>
		<path class="st3" d="M954.2,459.5c0.2,0.2,0.3,0.4,0.3,0.7c0,0.3-0.1,0.5-0.3,0.7c-0.2,0.2-0.4,0.3-0.7,0.3s-0.5-0.1-0.7-0.3
			c-0.2-0.2-0.3-0.4-0.3-0.7c0-0.3,0.1-0.5,0.3-0.7c0.2-0.2,0.4-0.3,0.7-0.3S954,459.3,954.2,459.5z M954.1,462.3v8.3h-1.3v-8.3
			H954.1z"/>
		<path class="st3" d="M960.8,459.2c1.8,0,3.2,0.5,4.1,1.6c0.8,1,1.3,2.4,1.3,4.1c0,1.8-0.5,3.2-1.4,4.1c-1,1-2.3,1.6-4.1,1.6h-4
			v-11.4H960.8z M958,469.5h2.4c1.5,0,2.6-0.4,3.4-1.2c0.7-0.8,1.1-1.9,1.1-3.4c0-1.5-0.3-2.7-1-3.4c-0.7-0.8-1.8-1.2-3.3-1.2H958
			V469.5z"/>
		<path class="st3" d="M973.1,459.2c1.1,0,1.9,0.3,2.5,0.8c0.6,0.5,0.9,1.2,0.9,2.1c0,0.6-0.2,1.2-0.5,1.7c-0.4,0.4-0.8,0.7-1.4,0.9
			c0.8,0.1,1.3,0.4,1.7,0.9c0.4,0.5,0.6,1.1,0.6,1.9c0,1.1-0.4,2-1.2,2.5c-0.7,0.4-1.6,0.7-2.8,0.7H968v-11.4H973.1z M969.3,464.2
			h3.5c0.8,0,1.4-0.2,1.8-0.5c0.4-0.3,0.6-0.8,0.6-1.5c0-0.6-0.2-1.1-0.6-1.4c-0.4-0.3-1-0.5-1.8-0.5h-3.5V464.2z M969.3,469.5h3.6
			c0.8,0,1.4-0.2,1.9-0.4c0.6-0.4,0.8-0.9,0.8-1.6s-0.3-1.3-0.7-1.6c-0.5-0.4-1.1-0.5-2-0.5h-3.6V469.5z"/>
		<path class="st3" d="M990.4,459.2v7.8h1.9v1.1h-1.9v2.6h-1.2V468h-5.7v-1.2l5.8-7.6H990.4z M984.5,466.9h4.6v-6.1h0L984.5,466.9z"
			/>
		<path class="st3" d="M995.4,469c0.2,0.2,0.3,0.4,0.3,0.7c0,0.3-0.1,0.5-0.3,0.7c-0.2,0.2-0.4,0.3-0.7,0.3c-0.3,0-0.5-0.1-0.7-0.3
			c-0.2-0.2-0.3-0.4-0.3-0.7c0-0.3,0.1-0.5,0.3-0.7c0.2-0.2,0.4-0.3,0.7-0.3C994.9,468.7,995.2,468.8,995.4,469z"/>
		<path class="st3" d="M1004.7,460.7c0.6,1,0.9,2.4,0.9,4.1c0,1.7-0.3,3.1-0.9,4.1c-0.7,1.2-1.7,1.8-3.1,1.8c-1.4,0-2.4-0.6-3.1-1.8
			c-0.6-1-0.9-2.4-0.9-4.1c0-1.7,0.3-3.1,0.9-4.1c0.7-1.2,1.7-1.8,3.1-1.8C1003,458.9,1004,459.5,1004.7,460.7z M999.4,461.7
			c-0.3,0.8-0.5,1.8-0.5,3.2c0,1.3,0.2,2.4,0.5,3.2c0.4,1.1,1.2,1.6,2.2,1.6s1.8-0.6,2.2-1.6c0.3-0.8,0.5-1.8,0.5-3.2
			c0-1.3-0.2-2.4-0.5-3.2c-0.4-1.1-1.2-1.6-2.2-1.6S999.8,460.6,999.4,461.7z"/>
		<path class="st3" d="M1020.1,457.6c2,2.2,4.4,4,7,5.3l-0.6,1.1c-2.7-1.4-4.9-3.2-6.8-5.4c-1.7,2.1-4,3.9-6.9,5.4l-0.6-1.1
			c2.8-1.4,5.2-3.2,7.1-5.3H1020.1z M1020.8,461.8v3.6h4.4v1.1h-4.4v3.9h5.5v1.1H1013v-1.1h2.4v-6.3h1.1v6.3h3.1v-8.6H1020.8z"/>
		<path class="st3" d="M1034.6,457.7v12.7h2.3v-12.7h1.2v12.7h4.8v1.1h-14.2v-1.1h4.8v-12.7H1034.6z M1032.3,468l-1.1,0.3
			c-0.6-2.6-1.3-5-2.2-7.4l1-0.3C1030.9,462.7,1031.6,465.2,1032.3,468z M1042.4,460.9c-0.6,2.8-1.4,5.2-2.4,7.3l-1-0.4
			c0.9-1.9,1.7-4.3,2.4-7.2L1042.4,460.9z"/>
		<path class="st3" d="M1049.5,457.7v4.2h0.9v1.1h-3.8v0.8c0,0.5,0,1,0,1.4h3.1v6.8h-1.1v-5.7h-2c-0.2,2.4-0.6,4.2-1.3,5.5l-0.9-0.8
			c0.7-1.5,1.1-4,1.1-7.3V458h1.1v3.9h1.7v-4.2H1049.5z M1052.4,465c-0.1,3-0.6,5.3-1.6,7.1l-0.8-0.8c0.8-1.5,1.2-3.6,1.3-6.3v-6.4
			c2.5,0,4.8-0.4,6.8-1l0.6,1c-1.9,0.5-4,0.9-6.3,1v2.5h5.9v1c-0.4,2.2-1.1,4.1-2.1,5.6c0.8,1.1,1.7,1.9,2.9,2.4l-0.6,1
			c-1.2-0.6-2.2-1.5-3-2.5c-0.9,1-1.9,1.9-3.2,2.5l-0.6-1c1.2-0.7,2.2-1.5,3-2.5c-0.9-1.5-1.6-3.3-1.9-5.5h-0.5V465z M1055.6,467.7
			c0.8-1.3,1.4-2.8,1.6-4.5h-3.2C1054.3,465,1054.9,466.5,1055.6,467.7z"/>
		<path class="st3" d="M1074.5,460c0.8,0.7,1.3,1.6,1.5,2.8h-1.3c-0.2-0.9-0.6-1.5-1.2-2c-0.6-0.5-1.4-0.7-2.4-0.7
			c-1.2,0-2.2,0.4-3,1.3c-0.7,0.9-1.1,2-1.1,3.5c0,1.4,0.4,2.6,1.1,3.4c0.8,0.9,1.9,1.3,3.4,1.3c0.6,0,1.2-0.1,1.8-0.3
			c0.6-0.2,1-0.4,1.4-0.6v-2.9h-3.6v-1.1h4.9v4.7c-0.5,0.4-1.2,0.8-2,1c-0.8,0.3-1.7,0.4-2.7,0.4c-1.8,0-3.2-0.6-4.2-1.7
			c-0.9-1.1-1.4-2.5-1.4-4.2c0-1.7,0.4-3.1,1.4-4.2c1-1.2,2.3-1.8,4-1.8C1072.5,458.9,1073.7,459.3,1074.5,460z"/>
		<path class="st3" d="M1083,459.2l4.5,11.4h-1.4l-1.2-3.2h-5.2l-1.2,3.2h-1.4l4.5-11.4H1083z M1084.5,466.3l-2.2-5.7h-0.1l-2.2,5.7
			H1084.5z"/>
		<path class="st3" d="M1096,458l1.1,0.2l-0.9,3.2h2.8c0.3-1.2,0.6-2.5,0.8-3.9l1.2,0.1c-0.2,1.3-0.5,2.6-0.8,3.8h7.5v1.1h-7.8
			c-0.2,0.6-0.4,1.2-0.6,1.8h6.5v1c-0.4,1.4-1.3,2.6-2.6,3.7c1.3,0.8,2.9,1.5,4.7,2.1l-0.6,1.1c-2-0.8-3.7-1.6-5.1-2.4
			c-1.3,0.9-2.9,1.8-4.9,2.5l-0.6-1.1c1.8-0.7,3.3-1.4,4.5-2.2c-1.2-1-2.1-2-2.7-3.1c-1.2,2.5-2.7,4.5-4.5,6l-0.6-1.1
			c2.3-2,4.1-4.8,5.2-8.4h-4L1096,458z M1102.2,468.3c1.2-0.9,2-1.9,2.4-3h-5.2C1100,466.4,1100.9,467.4,1102.2,468.3z
			 M1106.5,460.2l-0.8,0.8c-0.7-0.8-1.6-1.7-2.8-2.7l0.8-0.8C1104.8,458.4,1105.7,459.3,1106.5,460.2z"/>
		<path class="st3" d="M1114.6,457.7v4.2h0.9v1.1h-3.8v0.8c0,0.5,0,1,0,1.4h3.1v6.8h-1.1v-5.7h-2c-0.2,2.4-0.6,4.2-1.3,5.5l-0.9-0.8
			c0.7-1.5,1.1-4,1.1-7.3V458h1.1v3.9h1.7v-4.2H1114.6z M1117.5,465c-0.1,3-0.6,5.3-1.6,7.1l-0.8-0.8c0.8-1.5,1.2-3.6,1.3-6.3v-6.4
			c2.5,0,4.8-0.4,6.8-1l0.6,1c-1.9,0.5-4,0.9-6.3,1v2.5h5.9v1c-0.4,2.2-1.1,4.1-2.1,5.6c0.8,1.1,1.7,1.9,2.9,2.4l-0.6,1
			c-1.2-0.6-2.2-1.5-3-2.5c-0.9,1-1.9,1.9-3.2,2.5l-0.6-1c1.2-0.7,2.2-1.5,3-2.5c-0.9-1.5-1.6-3.3-1.9-5.5h-0.5V465z M1120.7,467.7
			c0.8-1.3,1.4-2.8,1.6-4.5h-3.2C1119.5,465,1120,466.5,1120.7,467.7z"/>
	</g>
	<g class="st0">
		<path class="st2" d="M950.4,530.2c0.8,1.1,1.2,2.6,1.2,4.6c0,2.1-0.5,3.8-1.3,5.1c-0.9,1.3-2.1,1.9-3.5,1.9c-2.5,0-4-1.2-4.3-3.5
			h2.1c0.3,1.2,1,1.8,2.2,1.8c0.8,0,1.5-0.4,2.1-1.3c0.5-0.8,0.7-1.8,0.7-3v-0.2h-0.1c-0.4,0.5-0.8,0.9-1.4,1.2
			c-0.5,0.2-1.1,0.4-1.7,0.4c-1.3,0-2.3-0.4-3-1.2c-0.8-0.8-1.1-1.8-1.1-3.1c0-1.3,0.4-2.4,1.3-3.2c0.9-0.8,1.9-1.3,3.2-1.3
			C948.3,528.5,949.6,529,950.4,530.2z M945,531c-0.5,0.5-0.7,1.2-0.7,1.9c0,0.8,0.2,1.4,0.7,1.9c0.4,0.5,1,0.7,1.8,0.7
			c0.8,0,1.4-0.3,1.8-0.7c0.4-0.5,0.7-1.1,0.7-2s-0.2-1.5-0.7-1.9c-0.5-0.5-1.1-0.7-1.8-0.7C946.1,530.2,945.5,530.5,945,531z"/>
		<path class="st2" d="M962.1,543.6l-1.4-1.3c1.1-1.6,1.7-3.6,1.7-6v-8.8h10.9v14.1c0,1.2-0.6,1.8-1.8,1.8h-2.3l-0.5-1.8
			c0.8,0.1,1.5,0.1,2.2,0.1c0.4,0,0.5-0.3,0.5-0.7v-3h-7.2C963.9,540.1,963.2,542.1,962.1,543.6z M971.4,529.2h-7.1v2.5h7.1V529.2z
			 M964.2,536.1h7.1v-2.7h-7.1V536.1z"/>
	</g>
	<g class="st0">
		<path class="st3" d="M951.2,562.2v1.1h-4v10.3h-1.3v-10.3h-4v-1.1H951.2z"/>
		<path class="st3" d="M954.2,562.5c0.2,0.2,0.3,0.4,0.3,0.7c0,0.3-0.1,0.5-0.3,0.7c-0.2,0.2-0.4,0.3-0.7,0.3s-0.5-0.1-0.7-0.3
			c-0.2-0.2-0.3-0.4-0.3-0.7c0-0.3,0.1-0.5,0.3-0.7c0.2-0.2,0.4-0.3,0.7-0.3S954,562.3,954.2,562.5z M954.1,565.3v8.3h-1.3v-8.3
			H954.1z"/>
		<path class="st3" d="M960.8,562.2c1.8,0,3.2,0.5,4.1,1.6c0.8,1,1.3,2.4,1.3,4.1c0,1.8-0.5,3.2-1.4,4.1c-1,1-2.3,1.6-4.1,1.6h-4
			v-11.4H960.8z M958,572.5h2.4c1.5,0,2.6-0.4,3.4-1.2c0.7-0.8,1.1-1.9,1.1-3.4c0-1.5-0.3-2.7-1-3.4c-0.7-0.8-1.8-1.2-3.3-1.2H958
			V572.5z"/>
		<path class="st3" d="M973.1,562.2c1.1,0,1.9,0.3,2.5,0.8c0.6,0.5,0.9,1.2,0.9,2.1c0,0.6-0.2,1.2-0.5,1.7c-0.4,0.4-0.8,0.7-1.4,0.9
			c0.8,0.1,1.3,0.4,1.7,0.9c0.4,0.5,0.6,1.1,0.6,1.9c0,1.1-0.4,2-1.2,2.5c-0.7,0.4-1.6,0.7-2.8,0.7H968v-11.4H973.1z M969.3,567.2
			h3.5c0.8,0,1.4-0.2,1.8-0.5c0.4-0.3,0.6-0.8,0.6-1.5c0-0.6-0.2-1.1-0.6-1.4c-0.4-0.3-1-0.5-1.8-0.5h-3.5V567.2z M969.3,572.5h3.6
			c0.8,0,1.4-0.2,1.9-0.4c0.6-0.4,0.8-0.9,0.8-1.6s-0.3-1.3-0.7-1.6c-0.5-0.4-1.1-0.5-2-0.5h-3.6V572.5z"/>
		<path class="st3" d="M991.5,574.9c-1,0-1.9-0.1-2.5-0.3c-0.6-0.2-1.2-0.6-1.7-1.2c-0.2-0.3-0.4-0.4-0.6-0.4c-0.4,0-1,0.7-1.9,2.2
			l-0.9-0.8c0.8-1.3,1.6-2.2,2.3-2.4v-4.9h-2.3v-1.1h3.3v6c0.1,0.1,0.3,0.2,0.4,0.4c0.4,0.5,0.8,0.8,1.2,1c0.5,0.2,1.2,0.4,2.2,0.4
			c0.8,0,1.9,0,3.2,0c0.7,0,1.5,0,2.3,0c0.8,0,1.4,0,1.8-0.1l-0.3,1.2h-3.6C993.5,574.9,992.5,574.9,991.5,574.9z M987.8,563.3
			l-0.8,0.8c-0.7-0.8-1.6-1.6-2.8-2.5l0.8-0.8C986.1,561.6,987,562.4,987.8,563.3z M993.3,563.5c0.8-0.4,1.6-0.9,2.3-1.5h-7.1v-1
			h8.7v0.8c-1,0.8-2,1.6-3.1,2.2l0.3,0.2h3.2v7.2c0,0.8-0.4,1.2-1.3,1.2h-1.3l-0.3-1l1.3,0c0.4,0,0.6-0.2,0.6-0.5V570h-2.7v2.8h-1.1
			V570H990v2.8h-1.1v-8.5h4c-0.6-0.4-1.3-0.9-2.1-1.3l0.7-0.7C992.2,562.7,992.8,563.1,993.3,563.5z M992.6,565.2H990v1.4h2.7V565.2
			z M990,569h2.7v-1.4H990V569z M996.4,565.2h-2.7v1.4h2.7V565.2z M993.7,569h2.7v-1.4h-2.7V569z"/>
		<path class="st3" d="M1007.7,574.9c-1.1,0-2-0.1-2.6-0.3c-0.7-0.2-1.3-0.6-1.8-1.2c-0.2-0.3-0.4-0.4-0.7-0.4c-0.4,0-1,0.7-1.9,2.2
			l-0.9-0.8c0.9-1.4,1.6-2.2,2.3-2.5v-4.8h-2.3v-1.1h3.4v6c0.1,0.1,0.3,0.2,0.4,0.4c0.4,0.4,0.8,0.8,1.3,1c0.5,0.2,1.3,0.3,2.3,0.4
			c0.9,0,2,0,3.3,0c0.7,0,1.4,0,2.1,0c0.7,0,1.3,0,1.7-0.1l-0.3,1.2h-3.4C1009.8,574.9,1008.8,574.9,1007.7,574.9z M1003.7,563.3
			l-0.8,0.8c-0.7-0.8-1.6-1.7-2.7-2.6l0.8-0.8C1002,561.6,1002.9,562.4,1003.7,563.3z M1007.9,572.8l-0.3-1.1c0.7,0,1.5,0.1,2.1,0.1
			c0.4,0,0.7-0.2,0.7-0.7v-6.8h-6.1v-1.1h6.1v-2.6h1.2v2.6h2.4v1.1h-2.4v7.1c0,0.9-0.5,1.4-1.5,1.4H1007.9z M1008.5,568.8l-0.9,0.6
			c-0.6-1-1.3-2-2.3-3.2l0.9-0.6C1007.2,566.9,1008,567.9,1008.5,568.8z"/>
		<path class="st3" d="M1016.9,562.8v-1.1h12.2v1.1h-5.5V573h6.5v1.1h-14.3V573h6.6v-10.1H1016.9z"/>
		<path class="st3" d="M1031.9,568.3l-0.4-1.2c1.6-1.9,2.7-4.2,3.4-6.7l1.1,0.5c-0.4,1.2-0.8,2.4-1.4,3.5v10.9h-1.1v-9
			C1033,566.9,1032.4,567.6,1031.9,568.3z M1040.9,562.6c-0.2-0.6-0.5-1.2-0.8-1.9l1.1-0.3c0.3,0.7,0.6,1.3,0.8,1.9l-0.6,0.2h5v1.1
			h-10.4v-1.1H1040.9z M1045.3,575.2h-1.1v-0.9h-5.9v0.9h-1.1v-5.6h8.2V575.2z M1045,565v1h-7.6v-1H1045z M1045,567.3v1.1h-7.6v-1.1
			H1045z M1044.1,573.2v-2.5h-5.9v2.5H1044.1z"/>
		<path class="st3" d="M1051.1,566.5h1.7c0.5-0.9,0.9-1.8,1.2-2.8l1.1,0.4c-0.3,0.9-0.7,1.7-1.1,2.4h1.9v1.1h-8v-1.1h2.2
			c-0.3-0.8-0.6-1.6-1-2.3l1.1-0.4C1050.4,564.5,1050.7,565.4,1051.1,566.5z M1051.3,562.1c-0.2-0.5-0.4-1-0.6-1.4l1.2-0.2
			c0.2,0.5,0.4,1,0.5,1.6h3.3v1.1h-7.6v-1.1H1051.3z M1055.1,575.1h-1.1v-0.9h-4.1v0.9h-1.1v-6h6.4V575.1z M1053.9,573.1v-3h-4.1v3
			H1053.9z M1061.8,561.2v0.9c-0.5,1.7-1,3.2-1.6,4.7c1.2,1.5,1.8,2.8,1.8,3.7c0,1-0.2,1.7-0.6,2.1c-0.4,0.4-1.3,0.6-2.6,0.6
			l-0.4-1.2c0.4,0,0.8,0.1,1.1,0.1c0.6,0,0.9-0.1,1.1-0.3c0.2-0.2,0.2-0.6,0.3-1.2c0-0.9-0.7-2.2-1.9-3.7c0.5-1.3,1.1-2.8,1.6-4.5
			h-2.9v12.9h-1.1v-14H1061.8z"/>
		<path class="st3" d="M1078.1,569.5l-0.5,1c-0.9-0.3-1.6-0.6-2.3-0.9v3.1h-1.1v-2.8h-6.4v2.8h-1.1v-3.2c-0.7,0.4-1.5,0.7-2.4,1
			l-0.6-1c1.7-0.5,3-1,3.9-1.7h-3.5v-0.9h4.4v-1h-2v-0.8h2v-1h-2.4v-0.9h2.4v-0.9h-3v1.6h-1.1v-2.6h6c-0.2-0.3-0.4-0.6-0.6-0.9
			l1.2-0.2c0.2,0.3,0.4,0.7,0.6,1.1h5.8v2.6h-1.1v-1.6h-3v0.9h2.4v0.9h-2.4v1h2.1v0.8h-2.1v1h4.4v0.9h-3.6
			C1075.1,568.6,1076.4,569.1,1078.1,569.5z M1071.4,570.5c-0.2,1.7-0.6,2.8-1.2,3.4c-0.7,0.7-2.3,1.2-4.8,1.4l-0.4-1
			c2.2-0.1,3.6-0.5,4.3-1.1c0.6-0.6,1-1.5,1.1-2.8L1071.4,570.5z M1073,567.9h-4.1c-0.4,0.4-0.8,0.7-1.2,1.1h6.6
			C1073.7,568.6,1073.3,568.2,1073,567.9z M1069.7,562.4v0.9h2.6v-0.9H1069.7z M1072.3,564.2h-2.6v1h2.6V564.2z M1072.3,566.9v-1
			h-2.6v1H1072.3z M1076.9,574.4l-0.6,0.9c-1.6-0.8-3.2-1.5-4.8-2l0.6-0.8C1073.8,573,1075.4,573.7,1076.9,574.4z"/>
		<path class="st3" d="M1081.8,566.5v-1.1h10.4v1.1h-4.7v2.8h4.1v1.1h-4.1v3.4h6.1v1.1h-13.3v-1.1h6.1v-3.4h-4.2v-1.1h4.2v-2.8
			H1081.8z M1093.4,565.3h-1.2v-2h-10.6v2.1h-1.2v-3.2h6c-0.2-0.5-0.4-1-0.7-1.4l1.2-0.2c0.2,0.5,0.4,1,0.6,1.6h5.7V565.3z
			 M1092.1,573l-0.9,0.6c-0.4-0.7-1-1.5-1.8-2.4l0.9-0.5C1091.1,571.6,1091.7,572.4,1092.1,573z"/>
		<path class="st3" d="M1096.1,562.5v-1.1h5.5v1.1h-2.5c-0.2,1.3-0.6,2.5-1,3.6h3v7.3h-2.8v1.3h-1.1v-6.7c-0.3,0.6-0.7,1.2-1.1,1.7
			l-0.6-1c1.2-1.8,2.1-3.9,2.5-6.2H1096.1z M1100,572.4v-5.2h-1.7v5.2H1100z M1104.8,567.9c-0.1,3.3-1.1,5.7-2.9,7.3l-0.8-0.8
			c1.6-1.4,2.5-3.5,2.6-6.5h-1.7v-1.1h1.8v-4.4h-1.4v-1.1h7.6v1.1h-1.5v4.4h1.9v1.1h-1.9v7.2h-1.1v-7.2H1104.8z M1104.8,562.4v4.4
			h2.5v-4.4H1104.8z"/>
		<path class="st3" d="M1118.4,566.4v1.2l0,0.9h4.1v5.1c0,0.3,0.2,0.4,0.5,0.4h1.2c0.4,0,0.6-0.2,0.7-0.6c0.1-0.6,0.1-1.3,0.1-2
			l1.1,0.3c-0.1,1.3-0.2,2.1-0.3,2.4c-0.2,0.7-0.7,1-1.6,1h-1.4c-1,0-1.4-0.4-1.4-1.3v-4.2h-3.2c-0.2,1.2-0.7,2.1-1.3,2.9
			c-0.9,1.1-2.4,2-4.4,2.7l-0.6-1c2-0.6,3.4-1.4,4.2-2.4c0.4-0.6,0.7-1.4,0.9-2.2h-4v-1.1h4.2c0-0.3,0-0.6,0.1-0.9v-1.2H1118.4z
			 M1119.6,562h5.9v3.2h-1.2v-2.1h-10.9v2.1h-1.2V562h6c-0.2-0.5-0.4-1-0.7-1.4l1.3-0.2C1119.2,560.9,1119.4,561.4,1119.6,562z
			 M1118,564.6c-1.3,1.2-3,2.3-4.9,3.1l-0.5-1c1.9-0.7,3.5-1.7,4.8-2.9L1118,564.6z M1125.1,566.9l-0.6,1c-1.5-1.3-3-2.3-4.6-3.1
			l0.6-0.9C1122.2,564.7,1123.8,565.7,1125.1,566.9z"/>
		<path class="st3" d="M1129.8,569.9c-0.2,2-0.7,3.7-1.5,5.2l-0.8-0.8c0.9-1.6,1.3-3.6,1.3-5.8v-6.6c1.9-0.2,3.4-0.7,4.5-1.3
			l0.8,0.9c-1.2,0.6-2.6,1.1-4.2,1.3v1.9h4.1v5.3H1129.8z M1129.9,568.5c0,0.1,0,0.2,0,0.4h3.1v-3.2h-3V568.5z M1136.4,568.9
			c0,2.8-0.4,4.8-1.1,6.2l-1-0.5c0.7-1.4,1.1-3.3,1.1-5.7v-7.2c2.3-0.1,4.2-0.5,5.7-1.1l0.6,1c-1.6,0.6-3.3,1-5.3,1.1l0,2.8h5.8v1.1
			h-1.8v8.6h-1.1v-8.6h-2.9V568.9z"/>
		<path class="st3" d="M1149.8,561.5c-0.8,1.3-1.5,2.4-2.3,3.3c-0.8,0.9-1.9,1.8-3.2,2.7l-0.6-1c1.1-0.6,2.1-1.4,3-2.4
			c0.8-0.9,1.5-1.9,2.1-3.2L1149.8,561.5z M1146.1,568v-1.1h9.6c0,2-0.1,3.6-0.3,4.9c-0.2,1.2-0.4,2.1-0.8,2.6
			c-0.4,0.5-0.9,0.7-1.7,0.8h-2.9l-0.3-1.1c0.9,0,1.8,0,2.6,0c0.9,0,1.4-0.4,1.7-1.1c0.3-0.8,0.5-2.4,0.5-4.9h-4
			c-0.4,1.7-0.9,3.1-1.6,4.2c-0.8,1.2-2,2.2-3.7,3.1l-0.7-1c1.5-0.8,2.6-1.7,3.3-2.6c0.7-0.9,1.2-2.1,1.5-3.6H1146.1z M1158.2,566.5
			l-0.8,0.9c-2.5-1.6-4.2-3.7-5.2-6.2l1-0.6C1154.2,563.1,1155.8,565.1,1158.2,566.5z"/>
		<path class="st3" d="M1168.5,564.7v2h4.5v5.4c0,1-0.5,1.5-1.5,1.5h-1.5l-0.3-1.1l1.4,0c0.5,0,0.8-0.2,0.8-0.7v-4.1h-3.4v7.4h-1.1
			v-7.4h-3.4v5.9h-1.1v-6.1c-0.8,0.8-1.7,1.6-2.6,2.3l-0.7-1c2-1.5,3.6-3.2,4.8-5.2h-4.3v-1.1h4.9c0.4-0.7,0.6-1.4,0.9-2.1l1.2,0.1
			c-0.2,0.7-0.5,1.4-0.8,2h7.8v1.1h-8.3c-0.6,1.1-1.2,2-2,3h3.8v-2H1168.5z"/>
		<path class="st3" d="M1183,567.2v1.1h-2.8v4.2c1.2-0.2,2.3-0.5,3.4-0.8v1.1c-2.3,0.6-4.8,1-7.5,1.4l-0.3-1.1
			c1.1-0.1,2.1-0.3,3.1-0.4v-4.4h-2.8v-1.1H1183z M1183.8,563.4c0-0.9-0.1-1.9-0.1-2.8h1.2c0,1,0,1.9,0.1,2.8h4.9v1.1h-4.9
			c0.2,2.7,0.6,4.9,1.2,6.7c0.7,1.8,1.3,2.7,1.8,2.7c0.3,0,0.7-1,1-2.8l1,0.5c-0.5,2.3-1.1,3.5-2,3.5c-1.4-0.1-2.6-1.9-3.6-5.3
			c-0.4-1.5-0.6-3.3-0.7-5.3h-7.9v-1.1H1183.8z M1188.9,562.7l-1,0.5c-0.5-0.8-1-1.5-1.5-2.1l1-0.5
			C1187.9,561.3,1188.4,562,1188.9,562.7z"/>
		<path class="st3" d="M1195.8,568.1c-0.1,0.3-0.2,0.6-0.3,0.9h3.3v0.9c-0.4,1.1-0.9,2-1.8,2.7c0.8,0.4,1.5,0.7,2.2,1.1l-0.6,0.9
			c-0.7-0.4-1.5-0.8-2.5-1.3c-1.1,0.7-2.4,1.3-4,1.8l-0.5-1c1.3-0.4,2.4-0.8,3.4-1.3c-0.7-0.3-1.4-0.6-2.2-0.9
			c0.4-0.7,0.8-1.4,1.1-2h-1.9v-1h2.3c0.1-0.4,0.3-0.7,0.4-1L1195.8,568.1z M1195.2,563.6v-3.1h1.1v3.1h2.9v1h-2.9v0.2
			c0.9,0.4,1.8,0.9,2.7,1.5l-0.6,0.9c-0.8-0.6-1.5-1.2-2.1-1.5v2.1h-1.1v-3c-0.5,1.3-1.5,2.4-2.9,3.3l-0.6-0.9
			c1.2-0.7,2.1-1.5,2.6-2.4h-2.3v-1H1195.2z M1194.3,562.8l-0.8,0.4c-0.3-0.8-0.7-1.5-1.1-2.1l0.9-0.3
			C1193.7,561.4,1194,562.1,1194.3,562.8z M1197.8,570h-2.8c-0.3,0.5-0.5,1.1-0.9,1.5c0.6,0.2,1.2,0.4,1.8,0.7
			C1196.8,571.6,1197.4,570.8,1197.8,570z M1199,561.2c-0.3,0.7-0.7,1.4-1.2,2.1l-0.8-0.4c0.5-0.7,0.9-1.4,1.2-2L1199,561.2z
			 M1200.7,566.6c-0.3,0.7-0.6,1.4-0.9,2l-0.7-0.9c0.9-1.8,1.6-4.2,1.9-7.3l1.1,0.2c-0.1,0.8-0.2,1.6-0.4,2.3h4.2v1.1h-1
			c-0.1,2.7-0.6,5-1.5,6.9c0.8,1.4,1.8,2.5,3,3.3l-0.6,0.9c-1.1-0.8-2.1-1.9-2.9-3.2c-0.8,1.3-1.8,2.4-3,3.2l-0.6-1
			c1.2-0.9,2.2-2,3-3.3C1201.7,569.7,1201.2,568.2,1200.7,566.6z M1201.3,564.9c0.4,1.9,0.9,3.5,1.6,4.8c0.6-1.6,1-3.5,1-5.7h-2.4
			L1201.3,564.9z"/>
		<path class="st3" d="M1208.2,575l-0.2-1.1c0.4,0,0.8,0.1,1.2,0.1c0.4,0,0.6-0.2,0.6-0.7v-3.9c-0.6,0.2-1.3,0.5-1.9,0.7l-0.3-1.1
			c0.7-0.2,1.5-0.4,2.2-0.7v-3.6h-1.9v-1.1h1.9v-3h1.1v3h1.5v1.1h-1.5v3.2c0.5-0.2,1-0.5,1.5-0.7v1.1c-0.5,0.3-1,0.5-1.5,0.7v4.7
			c0,0.9-0.4,1.4-1.3,1.4H1208.2z M1212.5,575.2l-0.9-0.8c1.1-2.1,1.7-4.9,1.7-8.2v-5h8.4v3.9h-3v1.9h3.4v1h-3.4v2h2.7v5.2h-1.1
			v-0.8h-4.3v0.8h-1.1v-5.2h2.7v-2h-3.3C1214.2,570.7,1213.6,573.1,1212.5,575.2z M1214.5,565v1.1c0,0.3,0,0.5,0,0.8h3.2V565H1214.5
			z M1214.5,562.2v1.8h6.2v-1.8H1214.5z M1220.4,573.4V571h-4.3v2.4H1220.4z"/>
		<path class="st3" d="M1232.3,561.9h5.8v1.1h-11.9v3.6c-0.1,3.5-0.6,6.4-1.6,8.5l-0.9-0.8c0.9-1.8,1.3-4.4,1.4-7.6v-4.8h6
			c-0.3-0.5-0.5-0.9-0.8-1.3l1.3-0.2C1231.8,560.8,1232.1,561.4,1232.3,561.9z M1231.6,563.8c-0.1,0.4-0.3,0.9-0.4,1.3h6.2v1h-6.6
			c-0.4,1-0.9,1.9-1.4,2.7h3v-1.9h1.2v1.9h3.6v1h-3.6v1.8h4.8v1.1h-4.8v2.5h-1.2v-2.5h-5.8v-1.1h5.8v-1.8h-4.2l-0.2-1
			c0.6-0.8,1.2-1.7,1.7-2.8h-2.4v-1h2.8c0.2-0.5,0.4-1,0.5-1.5L1231.6,563.8z"/>
		<path class="st3" d="M1242.5,566.6c-0.1,3.5-0.8,6.3-2.1,8.5l-0.8-0.8c1.1-1.8,1.7-4.4,1.8-7.6v-5c4.2,0,8-0.4,11.4-1l0.6,1
			c-3.2,0.5-6.9,0.8-10.9,0.9v1.6h5.3c0.1-0.5,0.1-1,0.2-1.5l1.2,0.1c0,0.4-0.1,0.9-0.2,1.3h5.1v1.1h-5.3c-0.1,0.5-0.2,1-0.3,1.5
			h4.1v5.4h-1.1v-4.4h-6.3v4.4h-1.1v-5.5h3.2c0.1-0.5,0.2-1,0.3-1.5h-5.2V566.6z M1249.2,568.5c-0.2,1.9-0.8,3.3-1.7,4.3
			c-1,1-2.5,1.8-4.5,2.4l-0.6-1.1c1.9-0.5,3.3-1.1,4.2-2c0.9-0.9,1.4-2.1,1.6-3.7L1249.2,568.5z M1254.1,574.2l-0.6,1
			c-1.6-1.1-3.2-1.9-4.8-2.5l0.6-0.9C1251,572.5,1252.6,573.3,1254.1,574.2z"/>
		<path class="st3" d="M1270.2,565.6v0.9h-14.3v-0.9H1270.2z M1268.6,567.2v4.1h-5v0.9h5.4v0.8h-5.4v0.9h6.6v0.9h-14.3v-0.9h6.6V573
			h-5.4v-0.8h5.4v-0.9h-5v-4.1H1268.6z M1268.2,560.8v4h-10.5v-4H1268.2z M1262.4,568.9v-1h-3.9v1H1262.4z M1262.4,569.6h-3.9v1h3.9
			V569.6z M1267.1,562.4v-0.9h-8.2v0.9H1267.1z M1267.1,563.1h-8.2v0.9h8.2V563.1z M1263.5,568.9h3.9v-1h-3.9V568.9z M1267.5,569.6
			h-3.9v1h3.9V569.6z"/>
		<path class="st3" d="M1277.4,561.4v1.1h-2.4c-0.2,1.3-0.5,2.5-0.9,3.6h2.9v7.3h-2.8v1.2h-1.1v-6.3c-0.3,0.5-0.6,1-0.8,1.4
			l-0.7-1.1c1.2-1.8,1.9-3.9,2.3-6.2h-1.8v-1.1H1277.4z M1275.9,572.4v-5.2h-1.7v5.2H1275.9z M1277.9,575.1l-0.8-0.8
			c0.8-1.2,1.2-2.6,1.2-4.4v-5.2c-0.2,0.2-0.5,0.4-0.7,0.6l-0.7-0.8c1.3-1,2.3-2.4,3.1-4.1l1.1,0.2c-0.2,0.3-0.3,0.7-0.5,1h3.9v0.8
			c-0.5,0.7-1,1.3-1.4,1.8h2.7v9.6c0,0.7-0.4,1.1-1.2,1.1h-1.2l-0.3-1c0.4,0,0.8,0.1,1.1,0.1c0.3,0,0.5-0.2,0.5-0.5v-2.1h-2.1v3.5
			h-1v-3.5h-2.2C1279.1,572.9,1278.6,574.1,1277.9,575.1z M1283.1,562.7h-3.1c-0.4,0.6-0.8,1.1-1.3,1.6h3
			C1282.2,563.8,1282.7,563.3,1283.1,562.7z M1279.4,569.9c0,0.1,0,0.3,0,0.4h2.1v-2h-2.1V569.9z M1279.4,565.3v2h2.1v-2H1279.4z
			 M1284.6,565.3h-2.1v2h2.1V565.3z M1284.6,568.3h-2.1v2h2.1V568.3z"/>
		<path class="st3" d="M1291.2,565.4v7c0.6-0.5,1.2-1,1.9-1.6l0.3,1.2c-1,0.9-2,1.8-3.2,2.5l-0.4-1c0.2-0.2,0.4-0.4,0.4-0.7v-6.2
			h-2.4v-1.1H1291.2z M1292.3,563.1l-0.8,0.8c-0.7-0.8-1.6-1.6-2.8-2.5l0.8-0.8C1290.7,561.5,1291.6,562.3,1292.3,563.1z
			 M1298.2,560.6c0,1.3,0,2.6-0.1,3.8c0.8,4.1,2.3,7.4,4.4,9.8l-0.8,1c-1.7-2.2-3-4.9-3.9-8c-0.1,0.4-0.2,0.9-0.2,1.3
			c-0.6,2.8-2,5-4.1,6.8l-0.8-0.9c1.9-1.6,3.1-3.5,3.7-5.9c0.4-2,0.7-4.5,0.7-7.7H1298.2z"/>
		<path class="st3" d="M1305.1,563.7c0,1.6-0.2,3.1-0.5,4.6l-0.9-0.3c0.3-1.4,0.5-2.8,0.6-4.4L1305.1,563.7z M1307.1,560.6v14.6
			h-1.2v-14.6H1307.1z M1309.1,566c0.5-1.4,0.9-2.9,0.9-4.5l1,0.1c0,0.7-0.1,1.3-0.2,1.9h2.3v-3h1.2v3h3.5v1.1h-3.5v3.9h3.2v1.1
			h-3.2v3.9h3.9v1.1h-9.7v-1.1h4.6v-3.9h-3.7v-1.1h3.7v-3.9h-2.5c-0.3,1.2-0.7,2.3-1.3,3.2l-0.8-0.8c0.2-0.4,0.3-0.7,0.5-1l-0.8,0.2
			c-0.2-1-0.5-1.9-0.9-2.8l0.8-0.3C1308.5,564,1308.8,564.9,1309.1,566z"/>
		<path class="st3" d="M1323.1,565.4v7.1c0.5-0.4,1.1-1,1.6-1.6l0.3,1.2c-0.9,0.9-1.9,1.7-3,2.5l-0.4-1c0.2-0.2,0.4-0.4,0.4-0.7
			v-6.4h-2.4v-1.1H1323.1z M1324.3,563.1l-0.8,0.8c-0.7-0.8-1.6-1.6-2.8-2.5l0.8-0.8C1322.7,561.5,1323.6,562.3,1324.3,563.1z
			 M1333.9,561.2v1.1h-3.8v6h4.3v1.1h-4.3v5.7h-1.1v-5.7h-4.2v-1.1h4.2v-6h-3.8v-1.1H1333.9z M1327.7,567.3l-1,0.3
			c-0.3-1.4-0.8-2.7-1.3-4l1-0.3C1326.9,564.4,1327.3,565.7,1327.7,567.3z M1333.4,563.4c-0.3,1.6-0.8,2.9-1.3,4.1l-1-0.3
			c0.5-1.1,0.9-2.4,1.2-4L1333.4,563.4z"/>
		<path class="st3" d="M1338.6,567.1l-0.8,0.8c-0.5-0.7-1.3-1.5-2.2-2.3l0.8-0.7C1337.3,565.6,1338.1,566.3,1338.6,567.1z
			 M1338.8,569.5c-0.6,2-1.3,3.8-2,5.5l-1.1-0.4c0.8-1.8,1.5-3.6,2.1-5.5L1338.8,569.5z M1339,563l-0.8,0.8
			c-0.5-0.7-1.3-1.4-2.3-2.1l0.8-0.8C1337.6,561.6,1338.4,562.3,1339,563z M1342.8,563.4v5.1c0,1.8-0.3,3.3-0.9,4.4
			c-0.5,1-1.4,1.8-2.6,2.4l-0.6-1c1.2-0.5,2-1.3,2.4-2.2c0.4-0.9,0.7-2.1,0.7-3.6v-5.1H1342.8z M1345,571.1h-1v-8.8h-3.3v8.9h-1
			v-9.9h5.4V571.1z M1345.7,574.4l-0.8,0.8c-0.6-0.8-1.4-1.7-2.4-2.7l0.7-0.7C1344.2,572.7,1345,573.6,1345.7,574.4z M1347.2,561.9
			v10h-1v-10H1347.2z M1346.7,575.1l-0.2-1.1c0.6,0,1.1,0.1,1.6,0.1c0.4,0,0.6-0.2,0.6-0.6v-12.8h1.1v13.1c0,0.9-0.4,1.4-1.3,1.4
			H1346.7z"/>
	</g>
	<g class="st0">
		<path class="st2" d="M947.3,631.7v12.9h-2.1v-10.3c-0.8,0.7-1.7,1.2-2.9,1.6v-2.1c0.6-0.1,1.2-0.4,1.8-0.8
			c0.6-0.4,1.2-0.8,1.6-1.3H947.3z"/>
		<path class="st2" d="M957.6,632.6c0.8,0.7,1.2,1.6,1.2,2.8c0,1.1-0.4,2.1-1.3,3c-0.5,0.5-1.4,1.2-2.7,2.1
			c-1.3,0.9-2.1,1.6-2.4,2.3h6.3v1.9h-9c0-1.3,0.4-2.4,1.3-3.4c0.5-0.5,1.5-1.3,3-2.4c0.8-0.6,1.4-1.1,1.8-1.4
			c0.6-0.6,0.8-1.3,0.8-2c0-0.7-0.2-1.2-0.6-1.6c-0.4-0.3-0.9-0.5-1.7-0.5c-0.8,0-1.4,0.3-1.8,0.8c-0.4,0.5-0.6,1.3-0.6,2.3h-2.1
			c0-1.4,0.4-2.6,1.3-3.5c0.8-0.9,2-1.4,3.3-1.4C955.7,631.5,956.8,631.8,957.6,632.6z"/>
		<path class="st2" d="M969.5,646.6l-1.4-1.3c1.1-1.6,1.7-3.6,1.7-6v-8.8h10.9v14.1c0,1.2-0.6,1.8-1.8,1.8h-2.3l-0.5-1.8
			c0.8,0.1,1.5,0.1,2.2,0.1c0.4,0,0.5-0.3,0.5-0.7v-3h-7.2C971.3,643.1,970.6,645.1,969.5,646.6z M978.7,632.2h-7.1v2.5h7.1V632.2z
			 M971.6,639.1h7.1v-2.7h-7.1V639.1z"/>
	</g>
	<g class="st0">
		<path class="st3" d="M951.2,665.2v1.1h-4v10.3h-1.3v-10.3h-4v-1.1H951.2z"/>
		<path class="st3" d="M954.2,665.5c0.2,0.2,0.3,0.4,0.3,0.7c0,0.3-0.1,0.5-0.3,0.7c-0.2,0.2-0.4,0.3-0.7,0.3s-0.5-0.1-0.7-0.3
			c-0.2-0.2-0.3-0.4-0.3-0.7c0-0.3,0.1-0.5,0.3-0.7c0.2-0.2,0.4-0.3,0.7-0.3S954,665.3,954.2,665.5z M954.1,668.3v8.3h-1.3v-8.3
			H954.1z"/>
		<path class="st3" d="M960.8,665.2c1.8,0,3.2,0.5,4.1,1.6c0.8,1,1.3,2.4,1.3,4.1c0,1.8-0.5,3.2-1.4,4.1c-1,1-2.3,1.6-4.1,1.6h-4
			v-11.4H960.8z M958,675.5h2.4c1.5,0,2.6-0.4,3.4-1.2c0.7-0.8,1.1-1.9,1.1-3.4c0-1.5-0.3-2.7-1-3.4c-0.7-0.8-1.8-1.2-3.3-1.2H958
			V675.5z"/>
		<path class="st3" d="M973.1,665.2c1.1,0,1.9,0.3,2.5,0.8c0.6,0.5,0.9,1.2,0.9,2.1c0,0.6-0.2,1.2-0.5,1.7c-0.4,0.4-0.8,0.7-1.4,0.9
			c0.8,0.1,1.3,0.4,1.7,0.9c0.4,0.5,0.6,1.1,0.6,1.9c0,1.1-0.4,2-1.2,2.5c-0.7,0.4-1.6,0.7-2.8,0.7H968v-11.4H973.1z M969.3,670.2
			h3.5c0.8,0,1.4-0.2,1.8-0.5c0.4-0.3,0.6-0.8,0.6-1.5c0-0.6-0.2-1.1-0.6-1.4c-0.4-0.3-1-0.5-1.8-0.5h-3.5V670.2z M969.3,675.5h3.6
			c0.8,0,1.4-0.2,1.9-0.4c0.6-0.4,0.8-0.9,0.8-1.6s-0.3-1.3-0.7-1.6c-0.5-0.4-1.1-0.5-2-0.5h-3.6V675.5z"/>
		<path class="st3" d="M991.5,677.9c-1,0-1.9-0.1-2.5-0.3c-0.6-0.2-1.2-0.6-1.7-1.2c-0.2-0.3-0.4-0.4-0.6-0.4c-0.4,0-1,0.7-1.9,2.2
			l-0.9-0.8c0.8-1.3,1.6-2.2,2.3-2.4v-4.9h-2.3v-1.1h3.3v6c0.1,0.1,0.3,0.2,0.4,0.4c0.4,0.5,0.8,0.8,1.2,1c0.5,0.2,1.2,0.4,2.2,0.4
			c0.8,0,1.9,0,3.2,0c0.7,0,1.5,0,2.3,0c0.8,0,1.4,0,1.8-0.1l-0.3,1.2h-3.6C993.5,677.9,992.5,677.9,991.5,677.9z M987.8,666.3
			l-0.8,0.8c-0.7-0.8-1.6-1.6-2.8-2.5l0.8-0.8C986.1,664.6,987,665.4,987.8,666.3z M993.3,666.5c0.8-0.4,1.6-0.9,2.3-1.5h-7.1v-1
			h8.7v0.8c-1,0.8-2,1.6-3.1,2.2l0.3,0.2h3.2v7.2c0,0.8-0.4,1.2-1.3,1.2h-1.3l-0.3-1l1.3,0c0.4,0,0.6-0.2,0.6-0.5V673h-2.7v2.8h-1.1
			V673H990v2.8h-1.1v-8.5h4c-0.6-0.4-1.3-0.9-2.1-1.3l0.7-0.7C992.2,665.7,992.8,666.1,993.3,666.5z M992.6,668.2H990v1.4h2.7V668.2
			z M990,672h2.7v-1.4H990V672z M996.4,668.2h-2.7v1.4h2.7V668.2z M993.7,672h2.7v-1.4h-2.7V672z"/>
		<path class="st3" d="M1007.7,677.9c-1.1,0-2-0.1-2.6-0.3c-0.7-0.2-1.3-0.6-1.8-1.2c-0.2-0.3-0.4-0.4-0.7-0.4c-0.4,0-1,0.7-1.9,2.2
			l-0.9-0.8c0.9-1.4,1.6-2.2,2.3-2.5v-4.8h-2.3v-1.1h3.4v6c0.1,0.1,0.3,0.2,0.4,0.4c0.4,0.4,0.8,0.8,1.3,1c0.5,0.2,1.3,0.3,2.3,0.4
			c0.9,0,2,0,3.3,0c0.7,0,1.4,0,2.1,0c0.7,0,1.3,0,1.7-0.1l-0.3,1.2h-3.4C1009.8,677.9,1008.8,677.9,1007.7,677.9z M1003.7,666.3
			l-0.8,0.8c-0.7-0.8-1.6-1.7-2.7-2.6l0.8-0.8C1002,664.6,1002.9,665.4,1003.7,666.3z M1007.9,675.8l-0.3-1.1c0.7,0,1.5,0.1,2.1,0.1
			c0.4,0,0.7-0.2,0.7-0.7v-6.8h-6.1v-1.1h6.1v-2.6h1.2v2.6h2.4v1.1h-2.4v7.1c0,0.9-0.5,1.4-1.5,1.4H1007.9z M1008.5,671.8l-0.9,0.6
			c-0.6-1-1.3-2-2.3-3.2l0.9-0.6C1007.2,669.9,1008,670.9,1008.5,671.8z"/>
		<path class="st3" d="M1015.9,671.3l-0.4-1.2c1.6-1.9,2.7-4.2,3.4-6.7l1.1,0.5c-0.4,1.2-0.8,2.4-1.4,3.5v10.9h-1.1v-9
			C1017,669.9,1016.4,670.6,1015.9,671.3z M1024.9,665.6c-0.2-0.6-0.5-1.2-0.8-1.9l1.1-0.3c0.3,0.7,0.6,1.3,0.8,1.9l-0.6,0.2h5v1.1
			h-10.4v-1.1H1024.9z M1029.3,678.2h-1.1v-0.9h-5.9v0.9h-1.1v-5.6h8.2V678.2z M1029,668v1h-7.6v-1H1029z M1029,670.3v1.1h-7.6v-1.1
			H1029z M1028.1,676.2v-2.5h-5.9v2.5H1028.1z"/>
		<path class="st3" d="M1039.5,677.9c-1,0-1.9-0.1-2.5-0.3c-0.6-0.2-1.2-0.6-1.7-1.2c-0.2-0.3-0.4-0.4-0.6-0.4c-0.4,0-1,0.7-1.9,2.2
			l-0.9-0.8c0.8-1.3,1.6-2.2,2.3-2.4v-4.9h-2.3v-1.1h3.3v6c0.1,0.1,0.3,0.2,0.4,0.4c0.4,0.5,0.8,0.8,1.2,1c0.5,0.2,1.2,0.4,2.2,0.4
			c0.8,0,1.9,0,3.2,0c0.7,0,1.5,0,2.3,0c0.8,0,1.4,0,1.8-0.1l-0.3,1.2h-3.6C1041.5,677.9,1040.5,677.9,1039.5,677.9z M1035.8,666.3
			l-0.8,0.8c-0.7-0.8-1.6-1.6-2.8-2.5l0.8-0.8C1034.1,664.6,1035,665.4,1035.8,666.3z M1041.3,666.5c0.8-0.4,1.6-0.9,2.3-1.5h-7.1
			v-1h8.7v0.8c-1,0.8-2,1.6-3.1,2.2l0.3,0.2h3.2v7.2c0,0.8-0.4,1.2-1.3,1.2h-1.3l-0.3-1l1.3,0c0.4,0,0.6-0.2,0.6-0.5V673h-2.7v2.8
			h-1.1V673h-2.7v2.8h-1.1v-8.5h4c-0.6-0.4-1.3-0.9-2.1-1.3l0.7-0.7C1040.2,665.7,1040.8,666.1,1041.3,666.5z M1040.6,668.2h-2.7
			v1.4h2.7V668.2z M1038,672h2.7v-1.4h-2.7V672z M1044.4,668.2h-2.7v1.4h2.7V668.2z M1041.7,672h2.7v-1.4h-2.7V672z"/>
		<path class="st3" d="M1052.9,664.2v0.9c-0.4,1.5-0.9,3-1.5,4.5c0.9,1.4,1.4,2.7,1.5,3.8c0,0.7-0.2,1.2-0.5,1.6
			c-0.4,0.4-1.2,0.6-2.3,0.6l-0.4-1.2c0.3,0,0.5,0.1,0.6,0.1c0.5,0,0.9-0.1,1.1-0.3c0.2-0.2,0.3-0.4,0.3-0.8c0-1.1-0.5-2.3-1.5-3.6
			c0.7-1.7,1.2-3.2,1.5-4.5h-2.4v13h-1.1v-14.1H1052.9z M1062.1,670.8v1.1h-2.7v4.3c0,0.4,0.1,0.6,0.5,0.6h0.7
			c0.2,0,0.4-0.1,0.4-0.2c0.2-0.1,0.3-0.8,0.3-2.1l1.1,0.4c-0.1,1.4-0.3,2.3-0.5,2.6c-0.2,0.2-0.6,0.4-1.1,0.4h-1.3
			c-0.4,0-0.7-0.1-0.9-0.4c-0.2-0.3-0.3-0.6-0.3-1v-4.6h-1.5c-0.1,1.7-0.4,2.9-0.8,3.7c-0.5,1-1.4,1.8-2.7,2.4l-0.7-0.9
			c1.1-0.6,1.9-1.2,2.4-2c0.4-0.7,0.7-1.8,0.8-3.2h-2.2v-1.1H1062.1z M1061.9,668.2h-1.1V666h-6.2v2.2h-1.1V665h3.6
			c-0.2-0.5-0.4-0.9-0.6-1.3l1.2-0.2c0.2,0.4,0.4,1,0.6,1.5h3.7V668.2z M1060.7,668v1h-6.1v-1H1060.7z"/>
		<path class="st3" d="M1069.8,664.5c-0.8,1.3-1.5,2.4-2.3,3.3c-0.8,0.9-1.9,1.8-3.2,2.7l-0.6-1c1.1-0.6,2.1-1.4,3-2.4
			c0.8-0.9,1.5-1.9,2.1-3.2L1069.8,664.5z M1066.1,671v-1.1h9.6c0,2-0.1,3.6-0.3,4.9c-0.2,1.2-0.4,2.1-0.8,2.6
			c-0.4,0.5-0.9,0.7-1.7,0.8h-2.9l-0.3-1.1c0.9,0,1.8,0,2.6,0c0.9,0,1.4-0.4,1.7-1.1c0.3-0.8,0.5-2.4,0.5-4.9h-4
			c-0.4,1.7-0.9,3.1-1.6,4.2c-0.8,1.2-2,2.2-3.7,3.1l-0.7-1c1.5-0.8,2.6-1.7,3.3-2.6c0.7-0.9,1.2-2.1,1.5-3.6H1066.1z M1078.2,669.5
			l-0.8,0.9c-2.5-1.6-4.2-3.7-5.2-6.2l1-0.6C1074.2,666.1,1075.8,668.1,1078.2,669.5z"/>
		<path class="st3" d="M1088.5,667.7v2h4.5v5.4c0,1-0.5,1.5-1.5,1.5h-1.5l-0.3-1.1l1.4,0c0.5,0,0.8-0.2,0.8-0.7v-4.1h-3.4v7.4h-1.1
			v-7.4h-3.4v5.9h-1.1v-6.1c-0.8,0.8-1.7,1.6-2.6,2.3l-0.7-1c2-1.5,3.6-3.2,4.8-5.2h-4.3v-1.1h4.9c0.4-0.7,0.6-1.4,0.9-2.1l1.2,0.1
			c-0.2,0.7-0.5,1.4-0.8,2h7.8v1.1h-8.3c-0.6,1.1-1.2,2-2,3h3.8v-2H1088.5z"/>
		<path class="st3" d="M1103,670.2v1.1h-2.8v4.2c1.2-0.2,2.3-0.5,3.4-0.8v1.1c-2.3,0.6-4.8,1-7.5,1.4l-0.3-1.1
			c1.1-0.1,2.1-0.3,3.1-0.4v-4.4h-2.8v-1.1H1103z M1103.8,666.4c0-0.9-0.1-1.9-0.1-2.8h1.2c0,1,0,1.9,0.1,2.8h4.9v1.1h-4.9
			c0.2,2.7,0.6,4.9,1.2,6.7c0.7,1.8,1.3,2.7,1.8,2.7c0.3,0,0.7-1,1-2.8l1,0.5c-0.5,2.3-1.1,3.5-2,3.5c-1.4-0.1-2.6-1.9-3.6-5.3
			c-0.4-1.5-0.6-3.3-0.7-5.3h-7.9v-1.1H1103.8z M1108.9,665.7l-1,0.5c-0.5-0.8-1-1.5-1.5-2.1l1-0.5
			C1107.9,664.3,1108.4,665,1108.9,665.7z"/>
		<path class="st3" d="M1115.8,671.1c-0.1,0.3-0.2,0.6-0.3,0.9h3.3v0.9c-0.4,1.1-0.9,2-1.8,2.7c0.8,0.4,1.5,0.7,2.2,1.1l-0.6,0.9
			c-0.7-0.4-1.5-0.8-2.5-1.3c-1.1,0.7-2.4,1.3-4,1.8l-0.5-1c1.3-0.4,2.4-0.8,3.4-1.3c-0.7-0.3-1.4-0.6-2.2-0.9
			c0.4-0.7,0.8-1.4,1.1-2h-1.9v-1h2.3c0.1-0.4,0.3-0.7,0.4-1L1115.8,671.1z M1115.2,666.6v-3.1h1.1v3.1h2.9v1h-2.9v0.2
			c0.9,0.4,1.8,0.9,2.7,1.5l-0.6,0.9c-0.8-0.6-1.5-1.2-2.1-1.5v2.1h-1.1v-3c-0.5,1.3-1.5,2.4-2.9,3.3l-0.6-0.9
			c1.2-0.7,2.1-1.5,2.6-2.4h-2.3v-1H1115.2z M1114.3,665.8l-0.8,0.4c-0.3-0.8-0.7-1.5-1.1-2.1l0.9-0.3
			C1113.7,664.4,1114,665.1,1114.3,665.8z M1117.8,673h-2.8c-0.3,0.5-0.5,1.1-0.9,1.5c0.6,0.2,1.2,0.4,1.8,0.7
			C1116.8,674.6,1117.4,673.8,1117.8,673z M1119,664.2c-0.3,0.7-0.7,1.4-1.2,2.1l-0.8-0.4c0.5-0.7,0.9-1.4,1.2-2L1119,664.2z
			 M1120.7,669.6c-0.3,0.7-0.6,1.4-0.9,2l-0.7-0.9c0.9-1.8,1.6-4.2,1.9-7.3l1.1,0.2c-0.1,0.8-0.2,1.6-0.4,2.3h4.2v1.1h-1
			c-0.1,2.7-0.6,5-1.5,6.9c0.8,1.4,1.8,2.5,3,3.3l-0.6,0.9c-1.1-0.8-2.1-1.9-2.9-3.2c-0.8,1.3-1.8,2.4-3,3.2l-0.6-1
			c1.2-0.9,2.2-2,3-3.3C1121.7,672.7,1121.2,671.2,1120.7,669.6z M1121.3,667.9c0.4,1.9,0.9,3.5,1.6,4.8c0.6-1.6,1-3.5,1-5.7h-2.4
			L1121.3,667.9z"/>
		<path class="st3" d="M1128.2,678l-0.2-1.1c0.4,0,0.8,0.1,1.2,0.1c0.4,0,0.6-0.2,0.6-0.7v-3.9c-0.6,0.2-1.3,0.5-1.9,0.7l-0.3-1.1
			c0.7-0.2,1.5-0.4,2.2-0.7v-3.6h-1.9v-1.1h1.9v-3h1.1v3h1.5v1.1h-1.5v3.2c0.5-0.2,1-0.5,1.5-0.7v1.1c-0.5,0.3-1,0.5-1.5,0.7v4.7
			c0,0.9-0.4,1.4-1.3,1.4H1128.2z M1132.5,678.2l-0.9-0.8c1.1-2.1,1.7-4.9,1.7-8.2v-5h8.4v3.9h-3v1.9h3.4v1h-3.4v2h2.7v5.2h-1.1
			v-0.8h-4.3v0.8h-1.1v-5.2h2.7v-2h-3.3C1134.2,673.7,1133.6,676.1,1132.5,678.2z M1134.5,668v1.1c0,0.3,0,0.5,0,0.8h3.2V668H1134.5
			z M1134.5,665.2v1.8h6.2v-1.8H1134.5z M1140.4,676.4V674h-4.3v2.4H1140.4z"/>
		<path class="st3" d="M1152.3,664.9h5.8v1.1h-11.9v3.6c-0.1,3.5-0.6,6.4-1.6,8.5l-0.9-0.8c0.9-1.8,1.3-4.4,1.4-7.6v-4.8h6
			c-0.3-0.5-0.5-0.9-0.8-1.3l1.3-0.2C1151.8,663.8,1152.1,664.4,1152.3,664.9z M1151.6,666.8c-0.1,0.4-0.3,0.9-0.4,1.3h6.2v1h-6.6
			c-0.4,1-0.9,1.9-1.4,2.7h3v-1.9h1.2v1.9h3.6v1h-3.6v1.8h4.8v1.1h-4.8v2.5h-1.2v-2.5h-5.8v-1.1h5.8v-1.8h-4.2l-0.2-1
			c0.6-0.8,1.2-1.7,1.7-2.8h-2.4v-1h2.8c0.2-0.5,0.4-1,0.5-1.5L1151.6,666.8z"/>
		<path class="st3" d="M1161.1,666.7c0,1.6-0.2,3.1-0.5,4.6l-0.9-0.3c0.3-1.4,0.5-2.8,0.6-4.4L1161.1,666.7z M1163.1,663.6v14.6
			h-1.2v-14.6H1163.1z M1165.1,669c0.5-1.4,0.9-2.9,0.9-4.5l1,0.1c0,0.7-0.1,1.3-0.2,1.9h2.3v-3h1.2v3h3.5v1.1h-3.5v3.9h3.2v1.1
			h-3.2v3.9h3.9v1.1h-9.7v-1.1h4.6v-3.9h-3.7v-1.1h3.7v-3.9h-2.5c-0.3,1.2-0.7,2.3-1.3,3.2l-0.8-0.8c0.2-0.4,0.3-0.7,0.5-1l-0.8,0.2
			c-0.2-1-0.5-1.9-0.9-2.8l0.8-0.3C1164.5,667,1164.8,667.9,1165.1,669z"/>
		<path class="st3" d="M1183.7,668l-0.9,0.7c-0.2-0.4-0.4-0.7-0.6-1.1c-1.7,0.3-3.8,0.5-6.1,0.6l-0.3-1c0.2-0.1,0.4-0.2,0.5-0.3
			c1-1,1.8-2.2,2.5-3.5l1.1,0.3c-0.7,1.4-1.5,2.5-2.4,3.4c1.3-0.1,2.8-0.2,4.3-0.4c-0.3-0.5-0.7-1.1-1.1-1.6l0.9-0.6
			C1182.5,665.9,1183.2,667.1,1183.7,668z M1177.8,678.2h-1.1v-9h5.9v7.5c0,0.9-0.4,1.4-1.3,1.4h-1.3l-0.3-1.1l1.2,0
			c0.4,0,0.6-0.2,0.6-0.6v-1.3h-3.7V678.2z M1181.5,670.2h-3.7v1.6h3.7V670.2z M1177.8,674.2h3.7v-1.5h-3.7V674.2z M1185.6,670.5
			c-1,0-1.5-0.5-1.5-1.6v-5.4h1.1v2.1c1.8-0.3,3.2-0.6,4.3-0.8l0.4,1c-1.3,0.3-2.9,0.6-4.7,0.9v2c0,0.5,0.2,0.8,0.6,0.8h2.1
			c0.3,0,0.5-0.1,0.7-0.3c0.2-0.2,0.3-0.8,0.3-1.8l1.1,0.3c-0.1,1.3-0.3,2.1-0.6,2.4c-0.3,0.2-0.7,0.4-1.2,0.4H1185.6z
			 M1185.3,676.4c0,0.3,0.2,0.5,0.6,0.5h2.2c0.3,0,0.6-0.1,0.7-0.2c0.2-0.2,0.3-0.8,0.4-1.8l1,0.3c-0.1,1.3-0.3,2.1-0.6,2.4
			c-0.3,0.2-0.7,0.4-1.2,0.4h-2.7c-1,0-1.4-0.4-1.4-1.3v-5.6h1.1v2c1.6-0.2,3-0.4,4.3-0.8l0.4,1c-1.4,0.4-3,0.7-4.7,0.8V676.4z"/>
		<path class="st3" d="M1200.8,673.1v1.1h-9v-1.1H1200.8z M1195.7,663.5l-0.2,2.1h9.7v1.1h-9.8l-0.3,2.6h9c0,4.4-0.3,6.9-0.9,7.6
			c-0.6,0.7-1.9,1-3.8,1c-0.5,0-1,0-1.6-0.1l-0.3-1.1c0.8,0.1,1.3,0.1,1.6,0.1c1.8,0,2.9-0.3,3.2-0.9c0.4-0.7,0.6-2.5,0.6-5.6h-9.1
			l0.8-7L1195.7,663.5z"/>
		<path class="st3" d="M1211.1,664.7v-1.2h1.1v1.2h5.5v-1.2h1.1v1.2h2.8v1h-2.8v5.3h3.1v1h-3.3c0.8,1,2,1.7,3.6,2.3l-0.5,1
			c-2-0.8-3.4-1.9-4.2-3.2h-5c-0.8,1.3-2.2,2.4-4,3.3l-0.6-1c1.6-0.6,2.8-1.4,3.5-2.3h-3.3v-1h3.1v-5.3h-2.8v-1H1211.1z
			 M1215.5,672.6v1.3h3.2v1h-3.2v1.7h5.5v1.1h-12.2v-1.1h5.6v-1.7h-3.3v-1h3.3v-1.3H1215.5z M1217.7,666.9v-1.2h-5.5v1.2H1217.7z
			 M1217.7,668.9v-1.1h-5.5v1.1H1217.7z M1217.7,671v-1.2h-5.5v1.2H1217.7z"/>
		<path class="st3" d="M1223.9,665.5v-1.1h5.4v1.1h-2.4c-0.2,1.3-0.5,2.5-0.9,3.6h3v8.5h-1v-1h-1.7v1.2h-1v-7
			c-0.3,0.7-0.7,1.3-1.1,1.9l-0.6-1c1.2-1.8,1.9-3.9,2.3-6.2H1223.9z M1228,675.7v-5.5h-1.7v5.5H1228z M1236.4,664.9h1.1v5.2h-3v6
			h2.3v-4.6h1.1v6.7h-1.1v-1.1h-5.6v1.1h-1.1v-6.7h1.1v4.6h2.2v-6h-3v-5.2h1.1v4.2h1.9v-5.5h1.1v5.5h1.9V664.9z"/>
		<path class="st3" d="M1247.7,668l-0.9,0.7c-0.2-0.4-0.4-0.7-0.6-1.1c-1.7,0.3-3.8,0.5-6.1,0.6l-0.3-1c0.2-0.1,0.4-0.2,0.5-0.3
			c1-1,1.8-2.2,2.5-3.5l1.1,0.3c-0.7,1.4-1.5,2.5-2.4,3.4c1.3-0.1,2.8-0.2,4.3-0.4c-0.3-0.5-0.7-1.1-1.1-1.6l0.9-0.6
			C1246.5,665.9,1247.2,667.1,1247.7,668z M1241.8,678.2h-1.1v-9h5.9v7.5c0,0.9-0.4,1.4-1.3,1.4h-1.3l-0.3-1.1l1.2,0
			c0.4,0,0.6-0.2,0.6-0.6v-1.3h-3.7V678.2z M1245.5,670.2h-3.7v1.6h3.7V670.2z M1241.8,674.2h3.7v-1.5h-3.7V674.2z M1249.6,670.5
			c-1,0-1.5-0.5-1.5-1.6v-5.4h1.1v2.1c1.8-0.3,3.2-0.6,4.3-0.8l0.4,1c-1.3,0.3-2.9,0.6-4.7,0.9v2c0,0.5,0.2,0.8,0.6,0.8h2.1
			c0.3,0,0.5-0.1,0.7-0.3c0.2-0.2,0.3-0.8,0.3-1.8l1.1,0.3c-0.1,1.3-0.3,2.1-0.6,2.4c-0.3,0.2-0.7,0.4-1.2,0.4H1249.6z
			 M1249.3,676.4c0,0.3,0.2,0.5,0.6,0.5h2.2c0.3,0,0.6-0.1,0.7-0.2c0.2-0.2,0.3-0.8,0.4-1.8l1,0.3c-0.1,1.3-0.3,2.1-0.6,2.4
			c-0.3,0.2-0.7,0.4-1.2,0.4h-2.7c-1,0-1.4-0.4-1.4-1.3v-5.6h1.1v2c1.6-0.2,3-0.4,4.3-0.8l0.4,1c-1.4,0.4-3,0.7-4.7,0.8V676.4z"/>
		<path class="st3" d="M1262.8,663.6v1.6c0,0.6,0,1.1-0.1,1.6h6.1c-0.1,2.8-0.2,5-0.3,6.7c-0.2,1.7-0.4,2.9-0.8,3.5
			c-0.4,0.6-1,1-1.8,1h-2.1l-0.3-1.1c0.6,0,1.3,0,1.8,0c0.9,0,1.5-0.6,1.8-1.7c0.3-1.2,0.5-3.7,0.6-7.4h-5.1
			c-0.2,2.3-0.7,4.2-1.4,5.7c-1,2-2.5,3.5-4.6,4.6l-0.6-1c2.1-1.1,3.6-2.6,4.4-4.5c0.5-1.3,0.9-2.9,1.1-4.8h-4.7v-1.1h4.8
			c0-0.5,0-1.1,0.1-1.6v-1.6H1262.8z"/>
		<path class="st3" d="M1286.1,664.2v1.1h-4.3v2.5h3.6v8.6c0,1.1-0.5,1.6-1.4,1.6h-1.6l-0.3-1.1l1.6,0c0.4,0,0.6-0.3,0.6-0.8V669
			h-2.5c0,0.4-0.1,0.9-0.1,1.3c0.7,1.1,1.5,2.4,2.2,3.8l-0.7,1.1c-0.7-1.5-1.2-2.7-1.7-3.6c-0.4,1.9-1.1,3.3-2.1,4.4l-0.8-0.8
			c1.3-1.3,2-3.4,2.2-6.1h-3.4c0,0.5-0.1,1.1-0.2,1.6c0.6,0.8,1.2,1.7,1.9,2.7l-0.7,1c-0.6-1.1-1-2-1.4-2.6c-0.4,1.6-1,2.9-1.9,3.9
			l-0.9-0.8c1.2-1.3,1.9-3.2,2.1-5.7h-2.4v9.1h-1.1v-10.2h3.5v-2.5h-4.3v-1.1H1286.1z M1280.6,667.9v-2.5h-3.4v2.5H1280.6z"/>
		<path class="st3" d="M1287.9,666.2v-1.1h4.9v1.1h-1.9v7.2c0.7-0.2,1.3-0.5,2-0.7v1.2c-1.4,0.6-3,1.1-4.9,1.6l-0.3-1.1
			c0.7-0.2,1.4-0.4,2.1-0.5v-7.6H1287.9z M1298.3,669.1v2.8c-0.1,1.7-0.5,3.1-1.4,4.1c-0.8,0.9-2.2,1.7-4.1,2.2l-0.6-1
			c1.9-0.5,3.2-1.2,3.9-2c0.7-0.9,1-2,1.1-3.4v-2.8H1298.3z M1302.3,664.2v1.1h-3.8c-0.1,0.6-0.2,1.2-0.3,1.7h3.4v7.5h-1.1v-6.5
			h-5.1v6.5h-1.1V667h2.8c0.2-0.5,0.3-1.1,0.4-1.7h-3.9v-1.1H1302.3z M1302.5,677.5l-0.8,0.8c-0.8-0.9-1.9-1.9-3.3-3l0.8-0.7
			C1300.4,675.5,1301.6,676.5,1302.5,677.5z"/>
		<path class="st3" d="M1307.1,668.4v7.1c0.5-0.4,1.1-1,1.6-1.6l0.3,1.2c-0.9,0.9-1.9,1.7-3,2.5l-0.4-1c0.2-0.2,0.4-0.4,0.4-0.7
			v-6.4h-2.4v-1.1H1307.1z M1308.3,666.1l-0.8,0.8c-0.7-0.8-1.6-1.6-2.8-2.5l0.8-0.8C1306.7,664.5,1307.6,665.3,1308.3,666.1z
			 M1317.9,664.2v1.1h-3.8v6h4.3v1.1h-4.3v5.7h-1.1v-5.7h-4.2v-1.1h4.2v-6h-3.8v-1.1H1317.9z M1311.7,670.3l-1,0.3
			c-0.3-1.4-0.8-2.7-1.3-4l1-0.3C1310.9,667.4,1311.3,668.7,1311.7,670.3z M1317.4,666.4c-0.3,1.6-0.8,2.9-1.3,4.1l-1-0.3
			c0.5-1.1,0.9-2.4,1.2-4L1317.4,666.4z"/>
		<path class="st3" d="M1322.6,670.1l-0.8,0.8c-0.5-0.7-1.3-1.5-2.2-2.3l0.8-0.7C1321.3,668.6,1322.1,669.3,1322.6,670.1z
			 M1322.8,672.5c-0.6,2-1.3,3.8-2,5.5l-1.1-0.4c0.8-1.8,1.5-3.6,2.1-5.5L1322.8,672.5z M1323,666l-0.8,0.8
			c-0.5-0.7-1.3-1.4-2.3-2.1l0.8-0.8C1321.6,664.6,1322.4,665.3,1323,666z M1326.8,666.4v5.1c0,1.8-0.3,3.3-0.9,4.4
			c-0.5,1-1.4,1.8-2.6,2.4l-0.6-1c1.2-0.5,2-1.3,2.4-2.2c0.4-0.9,0.7-2.1,0.7-3.6v-5.1H1326.8z M1329,674.1h-1v-8.8h-3.3v8.9h-1
			v-9.9h5.4V674.1z M1329.7,677.4l-0.8,0.8c-0.6-0.8-1.4-1.7-2.4-2.7l0.7-0.7C1328.2,675.7,1329,676.6,1329.7,677.4z M1331.2,664.9
			v10h-1v-10H1331.2z M1330.7,678.1l-0.2-1.1c0.6,0,1.1,0.1,1.6,0.1c0.4,0,0.6-0.2,0.6-0.6v-12.8h1.1v13.1c0,0.9-0.4,1.4-1.3,1.4
			H1330.7z"/>
	</g>
	<path id="路径_10998_1_" class="st4" d="M863,419.6v256"/>
	<g id="组_3266_1_" transform="translate(0 -96)">
		<g class="st0">
			<path class="st1" d="M618.1,1003.6c5.2-4.3,9.3-7.9,12.4-10.6c3-2.8,5.6-5.7,7.6-8.7s3.1-6,3.1-8.9c0-2.2-0.5-3.9-1.5-5.1
				c-1-1.2-2.5-1.8-4.6-1.8c-2,0-3.6,0.8-4.8,2.3c-1.1,1.5-1.7,3.7-1.7,6.4h-13.2c0.1-4.5,1.1-8.3,2.9-11.4c1.8-3,4.3-5.3,7.3-6.7
				c3-1.4,6.4-2.2,10-2.2c6.3,0,11.1,1.6,14.4,4.9c3.2,3.3,4.8,7.5,4.8,12.7c0,5.7-1.9,11-5.8,15.9c-3.9,4.9-8.9,9.6-14.9,14.3h21.6
				v11.1h-40.2v-10.2C617.5,1004.2,618.3,1003.5,618.1,1003.6z"/>
			<path class="st1" d="M667.1,964.9c3.5-5.3,9.3-7.9,17.2-7.9c7.9,0,13.6,2.6,17.2,7.9c3.5,5.3,5.3,12.5,5.3,21.7
				c0,9.3-1.8,16.6-5.3,21.8c-3.5,5.3-9.3,7.9-17.2,7.9c-7.9,0-13.6-2.6-17.2-7.9c-3.5-5.3-5.3-12.6-5.3-21.8
				C661.8,977.4,663.6,970.2,667.1,964.9z M691.6,974.1c-1.2-2.9-3.6-4.4-7.3-4.4c-3.7,0-6.1,1.5-7.3,4.4c-1.2,2.9-1.8,7.1-1.8,12.4
				c0,3.6,0.2,6.6,0.6,9c0.4,2.4,1.3,4.3,2.6,5.8c1.3,1.5,3.2,2.2,5.8,2.2s4.5-0.7,5.8-2.2c1.3-1.5,2.2-3.4,2.6-5.8
				c0.4-2.4,0.6-5.4,0.6-9C693.3,981.2,692.7,977.1,691.6,974.1z"/>
			<path class="st1" d="M712.5,970.9v-12.7h22.2v58.4h-14.2v-45.7H712.5z"/>
			<path class="st1" d="M785.2,970.1h-25v11c1.1-1.2,2.6-2.1,4.5-2.9c1.9-0.7,4-1.1,6.2-1.1c4,0,7.3,0.9,10,2.7
				c2.6,1.8,4.6,4.2,5.8,7c1.2,2.9,1.8,6,1.8,9.4c0,6.2-1.8,11.2-5.3,14.8c-3.5,3.7-8.5,5.5-14.9,5.5c-4.3,0-8-0.7-11.1-2.2
				c-3.1-1.5-5.6-3.5-7.3-6.1c-1.7-2.6-2.6-5.6-2.8-9h13.4c0.3,1.7,1.1,3,2.3,4.1c1.2,1.1,2.9,1.6,5,1.6c2.5,0,4.4-0.8,5.6-2.4
				c1.2-1.6,1.8-3.7,1.8-6.4c0-2.6-0.6-4.6-1.9-6c-1.3-1.4-3.1-2.1-5.6-2.1c-1.8,0-3.3,0.4-4.5,1.3c-1.2,0.9-1.9,2-2.3,3.5h-13.2
				v-34.8h37.4V970.1z"/>
		</g>
		<path id="路径_10997_1_" class="st4" d="M863,956.3v60.3"/>
		<g class="st0">
			<path class="st2" d="M950.1,963.7v8.4h1.9v1.7h-1.9v2.8h-2v-2.8h-6.2v-2l6.3-8.1H950.1z M943.6,972.2h4.5v-5.8H948L943.6,972.2z"
				/>
			<path class="st2" d="M962.1,978.6l-1.4-1.3c1.1-1.6,1.7-3.6,1.7-6v-8.8h10.9v14.1c0,1.2-0.6,1.8-1.8,1.8h-2.3l-0.5-1.8
				c0.8,0.1,1.5,0.1,2.2,0.1c0.4,0,0.5-0.3,0.5-0.7v-3h-7.2C963.9,975.1,963.2,977.1,962.1,978.6z M971.4,964.2h-7.1v2.5h7.1V964.2z
				 M964.2,971.1h7.1v-2.7h-7.1V971.1z"/>
		</g>
		<g class="st0">
			<path class="st3" d="M956,996.5v1.1h-6v6h6.6v1.1h-6.6v5.7h-1.2v-5.7h-6.4v-1.1h6.4v-6h-5.8v-1.1H956z M946.8,1002.3l-1.1,0.5
				c-0.5-1.4-1.1-2.6-1.7-3.7l1.1-0.5C945.6,999.8,946.2,1001,946.8,1002.3z M955.2,999.1c-0.5,1.3-1.1,2.5-1.9,3.7l-1-0.5
				c0.8-1.2,1.4-2.5,1.9-3.7L955.2,999.1z"/>
			<path class="st3" d="M964.6,1007.1l0.2,1.1c-1.7,0.6-3.6,1.2-5.6,1.8l-0.3-1c0.3-0.1,0.4-0.4,0.4-0.7v-3.7h4.1v-1.9h-4.9v-1h6v4
				h-4.1v2.9C961.8,1008.1,963.2,1007.6,964.6,1007.1z M963.9,996.5h1v3.7h-6.2v-3.7h1v2.7h1.6v-3.4h1v3.4h1.6V996.5z M965.8,1006.5
				c0.2-1,0.4-2.3,0.4-3.9v-6.2h4.4v12.2c0,0.3,0.1,0.4,0.4,0.4h0.4c0.2,0,0.3,0,0.4-0.1c0.1-0.1,0.2-0.3,0.2-0.5
				c0-0.4,0.1-1.3,0.1-2.9l0.9,0.3c0,1.2,0,2.1-0.1,2.8c-0.1,0.6-0.2,1-0.4,1.3c-0.2,0.2-0.5,0.3-1,0.3h-0.5c-1,0-1.5-0.5-1.5-1.4
				v-11.3h-2.2v5.2c0,1.7-0.2,3.2-0.4,4.3c-0.3,1.2-0.9,2.4-1.7,3.5l-0.8-0.8C965,1008.7,965.5,1007.6,965.8,1006.5z"/>
			<path class="st3" d="M975.4,1007.5l-0.8-0.9c0.9-1.1,1.7-2.5,2.3-4.3l1,0.2c-0.1,0.4-0.3,0.8-0.4,1.2h4v-1.3h1.2v1.3h5.3v1h-5.3
				v1.6h4.7v1h-4.7v1.6h6v1.1h-13.6v-1.1h6.4v-1.6h-4.4v-1h4.4v-1.6h-4.4C976.6,1005.8,976.1,1006.7,975.4,1007.5z M987,996.3v5.7
				h-10.4v-5.7H987z M985.9,998.7v-1.4h-8.1v1.4H985.9z M985.9,999.6h-8.1v1.4h8.1V999.6z"/>
			<path class="st3" d="M991,1010.5l-0.9-0.8c1.1-1.9,1.7-4.4,1.7-7.7v-5.5h12.4v1.1H993v4.6h11.4v1.1h-5c0.1,1,0.5,1.8,1.1,2.7
				c0.9-0.5,1.7-1.2,2.5-2.2l0.8,0.8c-0.8,0.9-1.7,1.6-2.7,2.2c0.9,1,2.2,1.9,3.8,2.8l-0.8,0.9c-3.5-1.9-5.4-4.3-5.7-7.1H996v5.6
				c1.3-0.3,2.4-0.7,3.4-1.1l0.2,1.1c-1.4,0.5-3,1-4.9,1.4l-0.3-1c0.3-0.1,0.5-0.4,0.5-0.8v-5.2H993
				C992.8,1006.2,992.1,1008.6,991,1010.5z M1003.1,999.3v1.1h-8.7v-1.1H1003.1z"/>
			<path class="st3" d="M1020.2,995.6c-0.6,1.1-1.2,2.2-1.5,3.3c-0.5,1.4-0.7,2.8-0.7,4.2c0,1.4,0.2,2.8,0.7,4.2
				c0.4,1.1,0.9,2.2,1.5,3.3h-1.1c-0.7-1-1.2-2.1-1.6-3.3c-0.5-1.4-0.7-2.8-0.7-4.2c0-1.4,0.2-2.8,0.7-4.2c0.4-1.2,0.9-2.3,1.6-3.3
				H1020.2z"/>
			<path class="st3" d="M1028,995.8v14.5h-1.2v-2.7c-1.3,0.6-2.7,1.1-4.2,1.5l-0.3-1.1c1.6-0.4,3.1-0.9,4.5-1.5v-5.1h-4.2v-1.1h4.2
				v-4.4H1028z M1032.2,1010.2c-1,0-1.5-0.5-1.5-1.6v-12.8h1.2v5.4c1.4-0.5,2.7-1.2,4-2.1l0.7,0.9c-1.7,1-3.2,1.8-4.7,2.3v6.1
				c0,0.4,0.2,0.7,0.6,0.7h2c0.4,0,0.6-0.1,0.8-0.4c0.1-0.3,0.2-1.2,0.3-2.9l1.1,0.4c-0.1,1.9-0.3,3-0.5,3.4
				c-0.3,0.4-0.7,0.6-1.4,0.6H1032.2z"/>
			<path class="st3" d="M1042.9,1006.4c-1,1.4-2.3,2.7-3.8,3.7l-0.7-0.9c1.5-1,2.7-2.2,3.7-3.5L1042.9,1006.4z M1046.1,997.5h6.6
				v1.1h-14.2v-1.1h6.5c-0.2-0.6-0.5-1.1-0.7-1.6l1.2-0.2C1045.6,996.3,1045.8,996.8,1046.1,997.5z M1050.6,1000.1v4.5h-4.5v4.3
				c0,1-0.5,1.4-1.5,1.4h-1.7l-0.3-1.1c0.5,0,1.1,0.1,1.6,0.1c0.5,0,0.7-0.2,0.7-0.7v-4h-4.6v-4.5H1050.6z M1049.5,1001.3h-7.9v2.3
				h7.9V1001.3z M1052.7,1009.3l-0.8,0.8c-0.9-1.2-2.1-2.4-3.6-3.7l0.8-0.8C1050.4,1006.9,1051.7,1008.1,1052.7,1009.3z"/>
			<path class="st3" d="M1055.9,995.6c0.7,1,1.2,2.1,1.6,3.3c0.5,1.4,0.7,2.8,0.7,4.2c0,1.4-0.2,2.8-0.7,4.2c-0.4,1.2-1,2.3-1.6,3.3
				h-1.1c0.6-1.1,1.1-2.2,1.5-3.3c0.5-1.4,0.7-2.8,0.7-4.2c0-1.4-0.2-2.8-0.7-4.2c-0.4-1.2-0.9-2.3-1.5-3.3H1055.9z"/>
			<path class="st3" d="M1073.2,1000.1v-2.4c-0.8,0.1-1.6,0.2-2.4,0.3l-0.2-1.1c2.1-0.2,3.9-0.5,5.5-1l0.4,1.1
				c-0.7,0.2-1.4,0.4-2.2,0.5v2.6h2.2v1.1h-2.2v0.8c0.9,0.7,1.8,1.5,2.8,2.4l-0.7,1c-0.8-1-1.5-1.7-2.1-2.3v7.3h-1.2v-7.5
				c-0.6,1.6-1.5,3-2.6,4.3l-0.5-1.3c1.4-1.4,2.3-3,2.9-4.7h-2.5v-1.1H1073.2z M1084.9,1005.6l-1.6,0.3v4.6h-1.2v-4.4l-5,0.8
				l-0.2-1.1l5.2-0.8v-9h1.2v8.9l1.4-0.2L1084.9,1005.6z M1081,1002.9l-0.8,0.8c-0.7-0.8-1.7-1.7-3-2.6l0.8-0.8
				C1079.2,1001.2,1080.2,1002.1,1081,1002.9z M1081.4,999.2l-0.8,0.8c-0.7-0.8-1.7-1.6-2.9-2.5l0.8-0.8
				C1079.6,997.5,1080.6,998.3,1081.4,999.2z"/>
			<path class="st3" d="M1086.7,1010.3l-0.2-1.1c0.4,0,0.8,0.1,1.2,0.1c0.4,0,0.7-0.2,0.7-0.7v-3.8c-0.6,0.3-1.3,0.5-2,0.7l-0.3-1.1
				c0.8-0.2,1.5-0.4,2.2-0.7v-3.8h-1.9v-1.1h1.9v-2.9h1.1v2.9h1.7v1.1h-1.7v3.3c0.6-0.3,1.2-0.6,1.7-0.9v1.1
				c-0.6,0.3-1.2,0.6-1.7,0.9v4.6c0,1-0.5,1.4-1.4,1.4H1086.7z M1095.6,998.1v-2.3h1.1v2.3h3.9v1.1h-3.9v2.6h3.2v1
				c-0.6,1.8-1.5,3.3-2.8,4.5c1.1,0.8,2.4,1.5,3.9,2.2l-0.6,1c-1.6-0.7-3-1.5-4-2.4c-1.2,1-2.8,1.8-4.6,2.4l-0.5-1
				c1.7-0.6,3.1-1.3,4.3-2.2c-1.3-1.3-2.2-2.8-2.7-4.4h-0.8v-1.1h3.5v-2.6h-3.8v-1.1H1095.6z M1096.3,1006.7
				c1.1-1.1,1.9-2.3,2.4-3.8h-4.8C1094.4,1004.3,1095.2,1005.6,1096.3,1006.7z"/>
			<path class="st3" d="M1107.1,1007v3.4h-1.1v-8.4c-0.9,1.1-1.9,2.2-3.1,3.1l-0.8-1c2-1.6,3.6-3.4,4.7-5.5h-4.2v-1.1h4.8
				c0.3-0.6,0.5-1.2,0.7-1.9l1.2,0.1c-0.2,0.6-0.4,1.2-0.6,1.7h8v1.1h-8.4c-0.3,0.6-0.7,1.3-1,1.9h7.4v8.6c0,0.8-0.4,1.2-1.3,1.2
				h-1.8l-0.3-1.1c0.6,0,1.2,0.1,1.7,0.1c0.4,0,0.6-0.2,0.6-0.6v-1.8H1107.1z M1107.1,1003.3h6.4v-1.7h-6.4V1003.3z M1107.1,1004.3
				v1.7h6.4v-1.7H1107.1z"/>
			<path class="st3" d="M1123.8,996.4v0.9c-0.5,1.4-1.1,2.9-1.7,4.5c1,1.4,1.6,2.7,1.6,3.8c0,0.7-0.2,1.2-0.5,1.5
				c-0.4,0.4-1.2,0.6-2.4,0.6l-0.4-1.2c0.3,0,0.5,0.1,0.6,0.1c0.6,0,1-0.1,1.2-0.2c0.2-0.1,0.3-0.4,0.3-0.7c0-1.1-0.6-2.3-1.7-3.7
				c0.8-1.7,1.3-3.2,1.8-4.5h-2.6v12.9h-1.1v-14.1H1123.8z M1125.7,1003.3v5.5c1-0.3,1.9-0.7,2.9-1.1l0.3,1.1
				c-1.2,0.5-2.6,1-4.3,1.4l-0.3-1c0.2-0.1,0.4-0.2,0.4-0.4v-12.4h7v6.9h-3c0.2,0.9,0.5,1.8,1,2.6c0.8-0.4,1.5-1.1,2.2-1.9l0.8,0.8
				c-0.7,0.9-1.6,1.5-2.5,2c0.7,1,1.7,1.9,2.9,2.6l-0.6,1c-2.7-1.7-4.3-4-4.8-7H1125.7z M1130.4,997.5h-4.7v1.8h4.7V997.5z
				 M1125.7,1002.2h4.7v-1.8h-4.7V1002.2z"/>
			<path class="st3" d="M1139.8,996.4c-1.2,3.4-2.7,5.9-4.7,7.7l-0.9-0.8c2-1.8,3.5-4.3,4.5-7.3L1139.8,996.4z M1147.4,1010
				l-1.1,0.5c-0.2-0.5-0.5-1.1-0.7-1.5c-2.8,0.4-6,0.8-9.5,1l-0.2-1.1c1.3-0.7,2.9-3.2,4.8-7.6l1.1,0.4c-1.4,3-2.8,5.4-4.1,7.2
				c2.6-0.2,5.1-0.4,7.3-0.8c-0.6-1.2-1.3-2.2-1.9-3.2l1-0.4C1145.5,1006.2,1146.6,1008,1147.4,1010z M1148.8,1003.1l-0.8,0.9
				c-2.4-2-4.1-4.6-5-7.7l1-0.5C1144.9,998.8,1146.5,1001.3,1148.8,1003.1z"/>
			<path class="st3" d="M1160.5,999.6v1h-9.8v-1H1160.5z M1159.5,1010.4l-0.3-1.1l2.2,0c0.5,0,0.7-0.3,0.7-1v-10.7h-10.9v-1.1h12
				v12.2c0,1.1-0.5,1.7-1.6,1.7H1159.5z M1158.9,1002.6v4.9h-7.1v-4.9H1158.9z M1157.8,1003.7h-4.8v2.9h4.8V1003.7z"/>
			<path class="st3" d="M1179.4,997.5l-0.7,0.7h2v1.1h-4.9c0.1,2,0.3,3.6,0.6,4.7c0.1,0.4,0.2,0.8,0.3,1.1c0.8-1.3,1.4-2.8,1.9-4.5
				l1,0.4c-0.6,2.1-1.5,3.9-2.5,5.3c0.2,0.5,0.5,1,0.7,1.3c0.5,0.8,1,1.2,1.3,1.2c0.3,0,0.6-0.8,0.8-2.5l1,0.6
				c-0.4,2.1-0.9,3.2-1.6,3.2c-0.7,0-1.4-0.5-2.2-1.4c-0.3-0.4-0.6-0.8-0.8-1.3c-1.1,1.3-2.4,2.3-3.9,3l-0.6-1
				c1.6-0.7,3-1.8,4.1-3.2c-0.2-0.6-0.4-1.2-0.6-1.9c-0.4-1.3-0.6-3-0.7-5h-5.5v2.7h3.9c0,2.7-0.2,4.5-0.4,5.2
				c-0.2,0.7-0.7,1-1.5,1.1c-0.4,0-0.8,0-1.4-0.1l-0.4-1c0.6,0,1.2,0,1.6,0c0.4,0,0.6-0.3,0.7-0.7c0.1-0.5,0.1-1.7,0.2-3.5h-2.8v0.5
				c-0.1,2.9-0.7,5.2-1.9,6.9l-0.9-0.8c1-1.5,1.6-3.5,1.6-6.1v-5.3h6.6c0-0.8,0-1.6,0-2.5h1.2c0,0.9,0,1.7,0,2.5h3
				c-0.5-0.6-1.1-1.2-1.9-1.8l0.7-0.7C1178.2,996.3,1178.9,996.9,1179.4,997.5z"/>
			<path class="st3" d="M1190.2,1008.4c1-2.1,1.8-4.8,2.6-8l1.2,0.3c-0.7,2.9-1.5,5.4-2.5,7.7h5.2v1.1h-14.5v-1.1H1190.2z
				 M1189,998.4c-0.3-0.9-0.5-1.6-0.8-2.4l1.3-0.2c0.3,0.8,0.5,1.6,0.7,2.6h6v1.1h-13.4v-1.1H1189z M1188.2,1007.6l-1.2,0.3
				c-0.5-2.4-1.1-4.8-1.8-7l1.2-0.4C1187,1002.6,1187.6,1004.9,1188.2,1007.6z"/>
		</g>
	</g>
	<g class="st0">
		<path class="st2" d="M950.4,746.2c0.8,1.1,1.2,2.6,1.2,4.6c0,2.1-0.5,3.8-1.3,5.1c-0.9,1.3-2.1,1.9-3.5,1.9c-2.5,0-4-1.2-4.3-3.5
			h2.1c0.3,1.2,1,1.8,2.2,1.8c0.8,0,1.5-0.4,2.1-1.3c0.5-0.8,0.7-1.8,0.7-3v-0.2h-0.1c-0.4,0.5-0.8,0.9-1.4,1.2
			c-0.5,0.2-1.1,0.4-1.7,0.4c-1.3,0-2.3-0.4-3-1.2c-0.8-0.8-1.1-1.8-1.1-3.1c0-1.3,0.4-2.4,1.3-3.2c0.9-0.8,1.9-1.3,3.2-1.3
			C948.3,744.5,949.6,745,950.4,746.2z M945,747c-0.5,0.5-0.7,1.2-0.7,1.9c0,0.8,0.2,1.4,0.7,1.9c0.4,0.5,1,0.7,1.8,0.7
			c0.8,0,1.4-0.3,1.8-0.7c0.4-0.5,0.7-1.1,0.7-2s-0.2-1.5-0.7-1.9c-0.5-0.5-1.1-0.7-1.8-0.7C946.1,746.2,945.5,746.5,945,747z"/>
		<path class="st2" d="M962.1,759.6l-1.4-1.3c1.1-1.6,1.7-3.6,1.7-6v-8.8h10.9v14.1c0,1.2-0.6,1.8-1.8,1.8h-2.3l-0.5-1.8
			c0.8,0.1,1.5,0.1,2.2,0.1c0.4,0,0.5-0.3,0.5-0.7v-3h-7.2C963.9,756.1,963.2,758.1,962.1,759.6z M971.4,745.2h-7.1v2.5h7.1V745.2z
			 M964.2,752.1h7.1v-2.7h-7.1V752.1z"/>
	</g>
	<g class="st0">
		<path class="st3" d="M956.7,783.4v1.2h-14.4v-1.2H956.7z"/>
		<path class="st3" d="M958.5,784.9l-0.3-1.2c1.7-2,2.9-4.4,3.6-7l1,0.5c-0.4,1.3-0.9,2.6-1.6,3.8v10.5h-1.1v-8.6
			C959.6,783.6,959.1,784.3,958.5,784.9z M966.8,779.5v-2.8h1.1v2.8h4.4v1.1H969c0.7,2.6,2,5,3.9,7.1l-0.8,0.9c-2-2.4-3.3-5-4-8
			h-0.2v6.4h2.5v1.1h-2.5v3.3h-1.1v-3.3h-2.4v-1.1h2.4v-6.4h-0.2c-0.8,3.3-2.2,6.1-4.2,8.2l-0.6-1c1.8-1.9,3.1-4.3,3.8-7.2h-3.1
			v-1.1H966.8z"/>
		<path class="st3" d="M980.1,777.2c-0.6,1.3-1.3,2.6-2.1,3.8v10.5h-1.2v-9.1c-0.7,0.8-1.5,1.5-2.4,2.2l-0.4-1.2
			c2.3-2,3.9-4.2,4.9-6.7L980.1,777.2z M983.4,791.2c-1.1,0-1.7-0.6-1.7-1.7v-4.9c-0.7,0.4-1.4,0.7-2.1,1.1l-0.5-1.1
			c0.9-0.4,1.8-0.8,2.6-1.3v-6.4h1.2v5.7c1.7-1.1,3.2-2.4,4.4-3.8l0.8,0.9c-1.5,1.6-3.2,3-5.2,4.3v5.4c0,0.5,0.3,0.8,0.8,0.8h2.6
			c0.4,0,0.7-0.1,0.9-0.4c0.2-0.3,0.3-1.2,0.4-2.8l1.1,0.4c-0.1,1.8-0.3,3-0.6,3.3c-0.3,0.4-0.8,0.6-1.6,0.6H983.4z"/>
		<path class="st3" d="M994.4,784.4c-0.1,0.3-0.2,0.6-0.3,0.9h3.3v0.9c-0.4,1.1-0.9,2-1.8,2.7c0.8,0.4,1.5,0.7,2.2,1.1l-0.6,0.9
			c-0.7-0.4-1.5-0.8-2.5-1.3c-1.1,0.7-2.4,1.3-4,1.8l-0.5-1c1.3-0.4,2.4-0.8,3.4-1.3c-0.7-0.3-1.4-0.6-2.2-0.9
			c0.4-0.7,0.8-1.4,1.1-2h-1.9v-1h2.3c0.1-0.4,0.3-0.7,0.4-1L994.4,784.4z M993.7,779.9v-3.1h1.1v3.1h2.9v1h-2.9v0.2
			c0.9,0.4,1.8,0.9,2.7,1.5l-0.6,0.9c-0.8-0.6-1.5-1.2-2.1-1.5v2.1h-1.1v-3c-0.5,1.3-1.5,2.4-2.9,3.3l-0.6-0.9
			c1.2-0.7,2.1-1.5,2.6-2.4h-2.3v-1H993.7z M992.8,779.1l-0.8,0.4c-0.3-0.8-0.7-1.5-1.1-2.1l0.9-0.3
			C992.2,777.7,992.5,778.4,992.8,779.1z M996.3,786.3h-2.8c-0.3,0.5-0.5,1.1-0.9,1.5c0.6,0.2,1.2,0.4,1.8,0.7
			C995.3,787.8,996,787.1,996.3,786.3z M997.5,777.4c-0.3,0.7-0.7,1.4-1.2,2.1l-0.8-0.4c0.5-0.7,0.9-1.4,1.2-2L997.5,777.4z
			 M999.3,782.9c-0.3,0.7-0.6,1.4-0.9,2l-0.7-0.9c0.9-1.8,1.6-4.2,1.9-7.3l1.1,0.2c-0.1,0.8-0.2,1.6-0.4,2.3h4.2v1.1h-1
			c-0.1,2.7-0.6,5-1.5,6.9c0.8,1.4,1.8,2.5,3,3.3l-0.6,0.9c-1.1-0.8-2.1-1.9-2.9-3.2c-0.8,1.3-1.8,2.4-3,3.2l-0.6-1
			c1.2-0.9,2.2-2,3-3.3C1000.2,785.9,999.7,784.5,999.3,782.9z M999.8,781.2c0.4,1.9,0.9,3.5,1.6,4.8c0.6-1.6,1-3.5,1-5.7h-2.4
			L999.8,781.2z"/>
		<path class="st3" d="M1006.8,791.3l-0.2-1.1c0.4,0,0.8,0.1,1.2,0.1c0.4,0,0.6-0.2,0.6-0.7v-3.9c-0.6,0.2-1.3,0.5-1.9,0.7l-0.3-1.1
			c0.7-0.2,1.5-0.4,2.2-0.7V781h-1.9v-1.1h1.9v-3h1.1v3h1.5v1.1h-1.5v3.2c0.5-0.2,1-0.5,1.5-0.7v1.1c-0.5,0.3-1,0.5-1.5,0.7v4.7
			c0,0.9-0.4,1.4-1.3,1.4H1006.8z M1011.1,791.5l-0.9-0.8c1.1-2.1,1.7-4.9,1.7-8.2v-5h8.4v3.9h-3v1.9h3.4v1h-3.4v2h2.7v5.2h-1.1
			v-0.8h-4.3v0.8h-1.1v-5.2h2.7v-2h-3.3C1012.7,787,1012.1,789.4,1011.1,791.5z M1013,781.3v1.1c0,0.3,0,0.5,0,0.8h3.2v-1.9H1013z
			 M1013,778.5v1.8h6.2v-1.8H1013z M1018.9,789.7v-2.4h-4.3v2.4H1018.9z"/>
		<path class="st3" d="M1032.4,791.4l-0.3-1.2l2.1,0c0.4,0,0.6-0.2,0.6-0.7v-11h-10.5v12.9h-1.2v-14h12.8v12.4c0,1-0.5,1.6-1.4,1.6
			H1032.4z M1033.6,780.4v1.1h-8.2v-1.1H1033.6z M1032.7,783.2v5.2h-6.4v-5.2H1032.7z M1031.6,784.2h-4.2v3.1h4.2V784.2z"/>
		<path class="st3" d="M1046.2,776.8v1.9h4.8v1.1h-4.8v2.2h6.4v1.1h-6.4v4.8h-1.2v-4.8h-6.7V782h2.4v-4h1.2v4h3v-5.2H1046.2z
			 M1043.1,784.6c-1,1.5-2.1,2.8-3.5,3.9l-0.7-0.9c1.4-1.1,2.5-2.3,3.4-3.7L1043.1,784.6z M1051.3,784.9c-2,4.4-5.9,6.7-11.6,6.7
			l-0.4-1.1c5.5,0,9.2-2,10.9-6.1L1051.3,784.9z"/>
		<path class="st3" d="M1068,777.5v1.1h-6v6h6.6v1.1h-6.6v5.7h-1.2v-5.7h-6.4v-1.1h6.4v-6h-5.8v-1.1H1068z M1058.8,783.3l-1.1,0.5
			c-0.5-1.4-1.1-2.6-1.7-3.7l1.1-0.5C1057.6,780.8,1058.2,782,1058.8,783.3z M1067.2,780.1c-0.5,1.3-1.1,2.5-1.9,3.7l-1-0.5
			c0.8-1.2,1.4-2.5,1.9-3.7L1067.2,780.1z"/>
		<path class="st3" d="M1070.8,782.1c1.4-0.5,3.2-2.3,5.2-5.3l1.2,0.4c-1.4,2-2.9,3.7-4.3,4.9c3.1-0.1,6-0.3,8.7-0.6
			c-0.6-0.9-1.2-1.7-1.9-2.4l1-0.5c1.4,1.6,2.7,3.4,3.8,5.3l-1.1,0.5c-0.4-0.7-0.8-1.3-1.2-1.9c-3.4,0.3-7.1,0.5-11.3,0.7
			L1070.8,782.1z M1082.9,791.5h-1.2v-0.8h-8.4v0.8h-1.2v-6.7h10.7V791.5z M1081.7,789.6v-3.7h-8.4v3.7H1081.7z"/>
		<path class="st3" d="M1100.5,778.4v1.1h-4v10.3h-1.3v-10.3h-4v-1.1H1100.5z"/>
		<path class="st3" d="M1103.5,778.7c0.2,0.2,0.3,0.4,0.3,0.7c0,0.3-0.1,0.5-0.3,0.7c-0.2,0.2-0.4,0.3-0.7,0.3s-0.5-0.1-0.7-0.3
			c-0.2-0.2-0.3-0.4-0.3-0.7c0-0.3,0.1-0.5,0.3-0.7c0.2-0.2,0.4-0.3,0.7-0.3S1103.3,778.6,1103.5,778.7z M1103.4,781.6v8.3h-1.3
			v-8.3H1103.4z"/>
		<path class="st3" d="M1110.1,778.4c1.8,0,3.2,0.5,4.1,1.6c0.8,1,1.3,2.4,1.3,4.1c0,1.8-0.5,3.2-1.4,4.1c-1,1-2.3,1.6-4.1,1.6h-4
			v-11.4H1110.1z M1107.3,788.7h2.4c1.5,0,2.6-0.4,3.4-1.2c0.7-0.8,1.1-1.9,1.1-3.4c0-1.5-0.3-2.7-1-3.4c-0.7-0.8-1.8-1.2-3.3-1.2
			h-2.6V788.7z"/>
		<path class="st3" d="M1122.4,778.4c1.1,0,1.9,0.3,2.5,0.8c0.6,0.5,0.9,1.2,0.9,2.1c0,0.6-0.2,1.2-0.5,1.7
			c-0.4,0.4-0.8,0.7-1.4,0.9c0.8,0.1,1.3,0.4,1.7,0.9c0.4,0.5,0.6,1.1,0.6,1.9c0,1.1-0.4,2-1.2,2.5c-0.7,0.4-1.6,0.7-2.8,0.7h-5.1
			v-11.4H1122.4z M1118.6,783.4h3.5c0.8,0,1.4-0.2,1.8-0.5c0.4-0.3,0.6-0.8,0.6-1.5c0-0.6-0.2-1.1-0.6-1.4c-0.4-0.3-1-0.5-1.8-0.5
			h-3.5V783.4z M1118.6,788.8h3.7c0.8,0,1.4-0.2,1.9-0.4c0.6-0.4,0.8-0.9,0.8-1.6s-0.3-1.3-0.7-1.6c-0.5-0.4-1.1-0.5-2-0.5h-3.7
			V788.8z"/>
		<path class="st3" d="M1137.6,778.4c1.8,0,3.2,0.5,4.1,1.6c0.8,1,1.3,2.4,1.3,4.1c0,1.8-0.5,3.2-1.4,4.1c-1,1-2.3,1.6-4.1,1.6h-4
			v-11.4H1137.6z M1134.8,788.7h2.4c1.5,0,2.6-0.4,3.4-1.2c0.7-0.8,1.1-1.9,1.1-3.4c0-1.5-0.3-2.7-1-3.4c-0.7-0.8-1.8-1.2-3.3-1.2
			h-2.6V788.7z"/>
		<path class="st3" d="M1150.8,782.3c0.5,0.5,0.7,1.3,0.7,2.3v5.3h-1.2v-1.4c-0.3,0.4-0.8,0.8-1.3,1.1c-0.6,0.3-1.3,0.5-2.1,0.5
			c-0.8,0-1.5-0.2-2-0.6c-0.5-0.4-0.8-1-0.8-1.7c0-0.9,0.4-1.6,1.1-2.1c0.7-0.4,1.6-0.7,2.9-0.7l2,0v-0.4c0-1.4-0.7-2.1-2.2-2.1
			c-0.6,0-1.1,0.1-1.5,0.4c-0.4,0.3-0.7,0.7-0.8,1.2l-1.3-0.1c0.2-0.9,0.6-1.5,1.3-1.9c0.6-0.4,1.4-0.6,2.4-0.6
			C1149.4,781.4,1150.2,781.7,1150.8,782.3z M1148.4,785.9c-1.9,0-2.8,0.6-2.8,1.8c0,0.4,0.1,0.7,0.5,0.9c0.3,0.2,0.7,0.4,1.2,0.4
			c0.8,0,1.5-0.3,2.1-0.8c0.6-0.5,0.9-1.1,0.9-1.7v-0.7L1148.4,785.9z"/>
		<path class="st3" d="M1155.7,781.6h2v1.1h-2v5.3c0,0.3,0,0.5,0.2,0.7c0.1,0.1,0.3,0.2,0.6,0.2h1.1v1.1h-1.2
			c-0.7,0-1.2-0.2-1.5-0.5c-0.3-0.3-0.4-0.8-0.4-1.4v-5.3h-1.7v-1.1h1.7v-2.1l1.3-0.5V781.6z"/>
		<path class="st3" d="M1165.4,782.3c0.5,0.5,0.7,1.3,0.7,2.3v5.3h-1.2v-1.4c-0.3,0.4-0.8,0.8-1.3,1.1c-0.6,0.3-1.3,0.5-2.1,0.5
			c-0.8,0-1.5-0.2-2-0.6c-0.5-0.4-0.8-1-0.8-1.7c0-0.9,0.4-1.6,1.1-2.1c0.7-0.4,1.6-0.7,2.9-0.7l2,0v-0.4c0-1.4-0.7-2.1-2.2-2.1
			c-0.6,0-1.1,0.1-1.5,0.4c-0.4,0.3-0.7,0.7-0.8,1.2l-1.3-0.1c0.2-0.9,0.6-1.5,1.3-1.9c0.6-0.4,1.4-0.6,2.4-0.6
			C1164,781.4,1164.9,781.7,1165.4,782.3z M1163,785.9c-1.9,0-2.8,0.6-2.8,1.8c0,0.4,0.1,0.7,0.5,0.9c0.3,0.2,0.7,0.4,1.2,0.4
			c0.8,0,1.5-0.3,2.1-0.8c0.6-0.5,0.9-1.1,0.9-1.7v-0.7L1163,785.9z"/>
		<path class="st3" d="M1175.3,778.4l4.3,9.7h0l4.2-9.7h1.6v11.4h-1.3v-9.1h0l-4,9.1h-1.2l-4-9.1h0v9.1h-1.3v-11.4H1175.3z"/>
		<path class="st3" d="M1189.3,778.7c0.2,0.2,0.3,0.4,0.3,0.7c0,0.3-0.1,0.5-0.3,0.7c-0.2,0.2-0.4,0.3-0.7,0.3
			c-0.3,0-0.5-0.1-0.7-0.3c-0.2-0.2-0.3-0.4-0.3-0.7c0-0.3,0.1-0.5,0.3-0.7c0.2-0.2,0.4-0.3,0.7-0.3
			C1188.9,778.5,1189.2,778.6,1189.3,778.7z M1189.3,781.6v8.3h-1.3v-8.3H1189.3z"/>
		<path class="st3" d="M1197.9,783v-1.4h1.3v7.7c0,2.6-1.3,4-3.8,4c-1.1,0-2-0.2-2.6-0.7c-0.6-0.4-1-1.1-1.1-2h1.3
			c0.1,0.6,0.3,1,0.7,1.2c0.4,0.3,0.9,0.4,1.7,0.4c1.7,0,2.5-0.9,2.5-2.8V788c-0.6,1.1-1.5,1.7-2.8,1.7c-1.2,0-2.1-0.4-2.7-1.2
			c-0.7-0.8-1-1.7-1-2.9c0-1.2,0.3-2.2,1-3c0.7-0.8,1.6-1.2,2.7-1.2C1196.4,781.4,1197.3,781.9,1197.9,783z M1193.4,783.3
			c-0.4,0.5-0.7,1.3-0.7,2.2c0,0.9,0.2,1.6,0.6,2.1c0.4,0.6,1.1,0.9,2,0.9c0.8,0,1.5-0.3,2-0.9c0.4-0.6,0.7-1.3,0.7-2.2
			c0-0.9-0.2-1.7-0.7-2.2c-0.5-0.6-1.1-0.9-1.9-0.9C1194.5,782.4,1193.8,782.7,1193.4,783.3z"/>
		<path class="st3" d="M1205.9,781.6v1.3c-0.4-0.1-0.8-0.2-1.2-0.2c-0.6,0-1.2,0.3-1.6,0.8c-0.4,0.5-0.7,1.2-0.7,2v4.4h-1.3v-8.3
			h1.3v1.4c0.2-0.5,0.5-0.9,0.9-1.1c0.4-0.4,0.9-0.5,1.5-0.5C1205.2,781.4,1205.6,781.4,1205.9,781.6z"/>
		<path class="st3" d="M1213.2,782.3c0.5,0.5,0.7,1.3,0.7,2.3v5.3h-1.2v-1.4c-0.3,0.4-0.8,0.8-1.3,1.1c-0.6,0.3-1.3,0.5-2.1,0.5
			c-0.8,0-1.5-0.2-2-0.6c-0.5-0.4-0.8-1-0.8-1.7c0-0.9,0.4-1.6,1.1-2.1c0.7-0.4,1.6-0.7,2.9-0.7l2,0v-0.4c0-1.4-0.7-2.1-2.2-2.1
			c-0.6,0-1.1,0.1-1.5,0.4c-0.4,0.3-0.7,0.7-0.8,1.2l-1.3-0.1c0.2-0.9,0.6-1.5,1.3-1.9c0.6-0.4,1.4-0.6,2.4-0.6
			C1211.8,781.4,1212.6,781.7,1213.2,782.3z M1210.8,785.9c-1.9,0-2.8,0.6-2.8,1.8c0,0.4,0.1,0.7,0.5,0.9c0.3,0.2,0.7,0.4,1.2,0.4
			c0.8,0,1.5-0.3,2.1-0.8c0.6-0.5,0.9-1.1,0.9-1.7v-0.7L1210.8,785.9z"/>
		<path class="st3" d="M1218.1,781.6h2v1.1h-2v5.3c0,0.3,0,0.5,0.2,0.7c0.1,0.1,0.3,0.2,0.6,0.2h1.1v1.1h-1.2
			c-0.7,0-1.2-0.2-1.5-0.5c-0.3-0.3-0.4-0.8-0.4-1.4v-5.3h-1.7v-1.1h1.7v-2.1l1.3-0.5V781.6z"/>
		<path class="st3" d="M1223.4,778.7c0.2,0.2,0.3,0.4,0.3,0.7c0,0.3-0.1,0.5-0.3,0.7c-0.2,0.2-0.4,0.3-0.7,0.3s-0.5-0.1-0.7-0.3
			c-0.2-0.2-0.3-0.4-0.3-0.7c0-0.3,0.1-0.5,0.3-0.7c0.2-0.2,0.4-0.3,0.7-0.3S1223.2,778.6,1223.4,778.7z M1223.3,781.6v8.3h-1.3
			v-8.3H1223.3z"/>
		<path class="st3" d="M1232.4,782.7c0.7,0.8,1.1,1.8,1.1,3.1c0,1.2-0.4,2.3-1,3.1c-0.8,0.9-1.7,1.3-3,1.3c-1.2,0-2.2-0.4-3-1.3
			c-0.7-0.8-1.1-1.8-1.1-3.1c0-1.2,0.4-2.3,1.1-3.1c0.7-0.9,1.7-1.3,3-1.3C1230.6,781.4,1231.6,781.8,1232.4,782.7z M1227.4,783.5
			c-0.4,0.6-0.7,1.4-0.7,2.3c0,0.9,0.2,1.7,0.7,2.3c0.5,0.7,1.2,1,2,1c0.9,0,1.6-0.3,2.1-1c0.4-0.6,0.7-1.4,0.7-2.3
			c0-0.9-0.2-1.7-0.7-2.3c-0.5-0.7-1.2-1-2.1-1C1228.5,782.4,1227.8,782.8,1227.4,783.5z"/>
		<path class="st3" d="M1242.1,784.8v5.1h-1.3v-5c0-1.6-0.7-2.4-2.2-2.4c-0.6,0-1.1,0.2-1.5,0.6c-0.4,0.4-0.7,1-0.7,1.8v5h-1.3v-8.3
			h1.3v1.2c0.3-0.5,0.7-0.8,1.1-1.1c0.4-0.3,0.9-0.4,1.5-0.4C1241,781.4,1242.1,782.5,1242.1,784.8z"/>
		<path class="st3" d="M1253.1,778.4v11.4h-1.3V780c-0.7,0.7-1.6,1.2-2.7,1.6v-1.3c0.5-0.1,1.1-0.4,1.6-0.7c0.5-0.4,1-0.7,1.4-1.2
			H1253.1z"/>
		<path class="st3" d="M1257.6,788.3c0.2,0.2,0.3,0.4,0.3,0.7c0,0.3-0.1,0.5-0.3,0.7c-0.2,0.2-0.4,0.3-0.7,0.3
			c-0.3,0-0.5-0.1-0.7-0.3c-0.2-0.2-0.3-0.4-0.3-0.7c0-0.3,0.1-0.5,0.3-0.7c0.2-0.2,0.4-0.3,0.7-0.3
			C1257.2,788,1257.4,788.1,1257.6,788.3z"/>
		<path class="st3" d="M1266.9,780c0.6,1,0.9,2.4,0.9,4.1c0,1.7-0.3,3.1-0.9,4.1c-0.7,1.2-1.7,1.8-3.1,1.8c-1.4,0-2.4-0.6-3.1-1.8
			c-0.6-1-0.9-2.4-0.9-4.1c0-1.7,0.3-3.1,0.9-4.1c0.7-1.2,1.7-1.8,3.1-1.8C1265.2,778.2,1266.2,778.8,1266.9,780z M1261.6,781
			c-0.3,0.8-0.5,1.8-0.5,3.2c0,1.3,0.2,2.4,0.5,3.2c0.4,1.1,1.2,1.6,2.2,1.6s1.8-0.6,2.2-1.6c0.3-0.8,0.5-1.8,0.5-3.2
			c0-1.3-0.2-2.4-0.5-3.2c-0.4-1.1-1.2-1.6-2.2-1.6S1262,779.9,1261.6,781z"/>
		<path class="st3" d="M1283.4,779.3c0.8,0.7,1.3,1.6,1.5,2.8h-1.3c-0.2-0.9-0.6-1.5-1.2-2c-0.6-0.5-1.4-0.7-2.4-0.7
			c-1.2,0-2.2,0.4-3,1.3c-0.7,0.9-1.1,2-1.1,3.5c0,1.4,0.4,2.6,1.1,3.4c0.8,0.9,1.9,1.3,3.4,1.3c0.6,0,1.2-0.1,1.8-0.3
			c0.6-0.2,1-0.4,1.4-0.6v-2.9h-3.6V784h4.9v4.7c-0.5,0.4-1.2,0.8-2,1c-0.8,0.3-1.7,0.4-2.7,0.4c-1.8,0-3.2-0.6-4.2-1.7
			c-0.9-1.1-1.4-2.5-1.4-4.2c0-1.7,0.4-3.1,1.4-4.2c1-1.2,2.3-1.8,4-1.8C1281.4,778.2,1282.5,778.6,1283.4,779.3z"/>
		<path class="st3" d="M1291.9,778.4l4.5,11.4h-1.4l-1.2-3.2h-5.2l-1.2,3.2h-1.4l4.5-11.4H1291.9z M1293.4,785.6l-2.2-5.7h-0.1
			l-2.2,5.7H1293.4z"/>
		<path class="st3" d="M1304.9,777.3l1.1,0.2l-0.9,3.2h2.8c0.3-1.2,0.6-2.5,0.8-3.9l1.2,0.1c-0.2,1.3-0.5,2.6-0.8,3.8h7.5v1.1h-7.8
			c-0.2,0.6-0.4,1.2-0.6,1.8h6.5v1c-0.4,1.4-1.3,2.6-2.6,3.7c1.3,0.8,2.9,1.5,4.7,2.1l-0.6,1.1c-2-0.8-3.7-1.6-5.1-2.4
			c-1.3,0.9-2.9,1.8-4.9,2.5l-0.6-1.1c1.8-0.7,3.3-1.4,4.5-2.2c-1.2-1-2.1-2-2.7-3.1c-1.2,2.5-2.7,4.5-4.5,6l-0.6-1.1
			c2.3-2,4-4.8,5.2-8.4h-4L1304.9,777.3z M1311.1,787.6c1.2-0.9,2-1.9,2.4-3h-5.2C1308.9,785.7,1309.8,786.7,1311.1,787.6z
			 M1315.4,779.5l-0.8,0.8c-0.7-0.8-1.6-1.7-2.8-2.7l0.8-0.8C1313.7,777.7,1314.6,778.6,1315.4,779.5z"/>
		<path class="st3" d="M1323.5,777v4.2h0.9v1.1h-3.8v0.8c0,0.5,0,1,0,1.4h3.1v6.8h-1.1v-5.7h-2c-0.2,2.4-0.6,4.2-1.3,5.5l-0.9-0.8
			c0.7-1.5,1.1-4,1.1-7.3v-5.9h1.1v3.9h1.7V777H1323.5z M1326.4,784.3c-0.1,3-0.6,5.3-1.6,7.1l-0.8-0.8c0.8-1.5,1.2-3.6,1.3-6.3
			v-6.4c2.5,0,4.8-0.4,6.8-1l0.6,1c-1.9,0.5-4,0.9-6.3,1v2.5h5.9v1c-0.4,2.2-1.1,4.1-2.1,5.6c0.8,1.1,1.7,1.9,2.9,2.4l-0.6,1
			c-1.2-0.6-2.2-1.5-3-2.5c-0.9,1-1.9,1.9-3.2,2.5l-0.6-1c1.2-0.7,2.2-1.5,3-2.5c-0.9-1.5-1.6-3.3-1.9-5.5h-0.5V784.3z M1329.6,787
			c0.8-1.3,1.4-2.8,1.6-4.5h-3.2C1328.3,784.3,1328.9,785.8,1329.6,787z"/>
	</g>
</g>
</svg>
