<?xml version="1.0" encoding="utf-8"?>
<!-- Generator: Adobe Illustrator 25.1.0, SVG Export Plug-In . SVG Version: 6.00 Build 0)  -->
<svg version="1.1" id="图层_1" xmlns="http://www.w3.org/2000/svg" xmlns:xlink="http://www.w3.org/1999/xlink" x="0px" y="0px"
	 viewBox="0 0 896 823" style="enable-background:new 0 0 896 823;" xml:space="preserve">
<style type="text/css">
	.st0{enable-background:new    ;}
	.st1{fill:#3D3FEA;}
	.st2{fill:#30323E;}
	.st3{fill:#4E4E4E;}
	.st4{opacity:0.3;fill:none;stroke:#000431;enable-background:new    ;}
</style>
<g id="组_3266" transform="translate(-502 -208)">
	<g class="st0">
		<path class="st1" d="M617.6,264c5.2-4.3,9.3-7.9,12.4-10.6c3-2.8,5.6-5.7,7.6-8.7s3.1-6,3.1-8.9c0-2.2-0.5-3.9-1.5-5.1
			c-1-1.2-2.5-1.8-4.6-1.8c-2,0-3.6,0.8-4.8,2.3c-1.1,1.5-1.7,3.7-1.7,6.4H615c0.1-4.5,1.1-8.3,2.9-11.4c1.8-3,4.3-5.3,7.3-6.7
			c3-1.4,6.4-2.2,10-2.2c6.3,0,11.1,1.6,14.4,4.9c3.2,3.3,4.8,7.5,4.8,12.7c0,5.7-1.9,11-5.8,15.9c-3.9,4.9-8.9,9.6-14.9,14.3h21.6
			v11.1h-40.2V266C616.9,264.6,617.8,263.9,617.6,264z"/>
		<path class="st1" d="M666.6,225.3c3.5-5.3,9.3-7.9,17.2-7.9c7.9,0,13.6,2.6,17.2,7.9c3.5,5.3,5.3,12.5,5.3,21.7
			c0,9.3-1.8,16.6-5.3,21.8c-3.5,5.3-9.3,7.9-17.2,7.9c-7.9,0-13.6-2.6-17.2-7.9c-3.5-5.3-5.3-12.6-5.3-21.8
			C661.3,237.8,663.1,230.6,666.6,225.3z M691,234.6c-1.2-2.9-3.6-4.4-7.3-4.4c-3.7,0-6.1,1.5-7.3,4.4c-1.2,2.9-1.8,7.1-1.8,12.4
			c0,3.6,0.2,6.6,0.6,9c0.4,2.4,1.3,4.3,2.6,5.8c1.3,1.5,3.2,2.2,5.8,2.2s4.5-0.7,5.8-2.2c1.3-1.5,2.2-3.4,2.6-5.8
			c0.4-2.4,0.6-5.4,0.6-9C692.8,241.6,692.2,237.5,691,234.6z"/>
		<path class="st1" d="M715.4,264c5.2-4.3,9.3-7.9,12.4-10.6c3-2.8,5.6-5.7,7.6-8.7s3.1-6,3.1-8.9c0-2.2-0.5-3.9-1.5-5.1
			c-1-1.2-2.5-1.8-4.6-1.8c-2,0-3.6,0.8-4.8,2.3c-1.1,1.5-1.7,3.7-1.7,6.4h-13.2c0.1-4.5,1.1-8.3,2.9-11.4c1.8-3,4.3-5.3,7.3-6.7
			c3-1.4,6.4-2.2,10-2.2c6.3,0,11.1,1.6,14.4,4.9c3.2,3.3,4.8,7.5,4.8,12.7c0,5.7-1.9,11-5.8,15.9c-3.9,4.9-8.9,9.6-14.9,14.3h21.6
			v11.1H713V266C714.8,264.6,715.6,263.9,715.4,264z"/>
		<path class="st1" d="M757.7,231.3v-12.7h22.2V277h-14.2v-45.7H757.7z"/>
	</g>
	<g class="st0">
		<path class="st2" d="M949.6,221.1v8.4h1.9v1.7h-1.9v2.8h-2v-2.8h-6.2v-2l6.3-8.1H949.6z M943.1,229.6h4.5v-5.8h-0.1L943.1,229.6z"
			/>
		<path class="st2" d="M961.6,236l-1.4-1.3c1.1-1.6,1.7-3.6,1.7-6v-8.8h10.9v14.1c0,1.2-0.6,1.8-1.8,1.8h-2.3l-0.5-1.8
			c0.8,0.1,1.5,0.1,2.2,0.1c0.4,0,0.5-0.3,0.5-0.7v-3h-7.2C963.4,232.6,962.7,234.5,961.6,236z M970.8,221.6h-7.1v2.5h7.1V221.6z
			 M963.7,228.5h7.1v-2.7h-7.1V228.5z"/>
	</g>
	<g class="st0">
		<path class="st3" d="M956.1,253.8v1.1h-6.4c-0.1,0.7-0.3,1.4-0.6,2h6.1v10.9h-1.1v-0.8h-10.3v0.8h-1.1V257h5.2
			c0.3-0.7,0.5-1.3,0.6-2h-6.7v-1.1H956.1z M946.1,266.1v-8h-2.2v8H946.1z M950.8,260v-2h-3.6v2H950.8z M950.8,263v-2h-3.6v2H950.8z
			 M950.8,266.1v-2h-3.6v2H950.8z M954.2,266.1v-8h-2.3v8H954.2z"/>
		<path class="st3" d="M965.2,253.3c-0.2,0.8-0.5,1.5-0.8,2.2h7.1v10.7c0,1-0.5,1.6-1.5,1.6h-2.4l-0.3-1.2l2.3,0
			c0.4,0,0.7-0.2,0.7-0.7v-9.3h-10.4v11.2h-1.2v-12.3h4.4c0.4-0.8,0.7-1.6,0.8-2.4L965.2,253.3z M968,258.9v5.6h-5.9v-5.6H968z
			 M966.9,260h-3.7v3.4h3.7V260z"/>
		<path class="st3" d="M981.4,253.3c2,2.2,4.4,4,7,5.3l-0.6,1.1c-2.7-1.4-4.9-3.2-6.8-5.4c-1.7,2.1-4,3.9-6.9,5.4l-0.6-1.1
			c2.8-1.4,5.2-3.2,7.1-5.3H981.4z M982,257.5v3.6h4.4v1.1H982v3.9h5.5v1.1h-13.3v-1.1h2.4v-6.3h1.1v6.3h3.1v-8.6H982z"/>
		<path class="st3" d="M995.9,253.4v12.7h2.3v-12.7h1.2v12.7h4.8v1.1h-14.2v-1.1h4.8v-12.7H995.9z M993.5,263.7l-1.1,0.3
			c-0.6-2.6-1.3-5-2.2-7.4l1-0.3C992.1,258.4,992.9,260.9,993.5,263.7z M1003.7,256.6c-0.6,2.8-1.4,5.2-2.4,7.3l-1-0.4
			c0.9-1.9,1.7-4.3,2.4-7.2L1003.7,256.6z"/>
		<path class="st3" d="M1010.6,265.6c-1.4,0.6-3,1-4.8,1.4l-0.1-1.1c1.9-0.3,3.5-0.8,4.9-1.3V265.6z M1009.7,253.6
			c-0.8,2-1.7,3.6-2.5,4.8c0.8-0.1,1.5-0.2,2.3-0.3c0.3-0.5,0.6-1.1,1-1.7l1,0.4c-1.5,2.6-2.7,4.5-3.7,5.6c1.2-0.2,2.3-0.5,3.5-0.8
			v1c-1.7,0.5-3.3,0.8-4.9,1l-0.3-1c0.2-0.1,0.4-0.2,0.5-0.3c0.6-0.6,1.4-1.6,2.3-3.1c-0.9,0.1-1.9,0.3-2.8,0.4l-0.3-1.1
			c0.2-0.1,0.3-0.2,0.5-0.4c0.9-1.4,1.7-3.1,2.4-4.9L1009.7,253.6z M1011.4,254.9v-1.1h7v0.7c-0.3,1.4-0.5,2.7-0.8,3.7h2v0.6
			c-0.3,2.2-1.1,4.1-2.2,5.6c0.8,0.9,1.8,1.7,2.9,2.4l-0.7,1c-1.1-0.7-2.1-1.6-2.9-2.5c-1,1-2.1,1.9-3.5,2.5l-0.6-1.1
			c1.3-0.7,2.5-1.5,3.4-2.4c-1-1.3-1.7-2.8-2.2-4.4c-0.5,3.4-1.5,6-3.2,7.8l-0.8-0.8c2.1-2.3,3.1-6.1,3.2-11.3v-0.9H1011.4z
			 M1018.5,259.3h-2.2c0.3-1,0.6-2.4,0.9-4.3h-3.1v0.9c0,0.6,0,1.2,0,1.7c0.4,2.3,1.3,4.4,2.6,6.1
			C1017.6,262.4,1018.2,260.9,1018.5,259.3z"/>
		<path class="st3" d="M1025.2,267.9h-1.1v-8c-0.5,1.6-1.2,3.1-2,4.4l-0.5-1.2c1.1-1.7,2-3.6,2.4-5.7h-2.2v-1.1h2.2v-3.1h1.1v3.1
			h1.9v1.1h-1.9v1c0.8,0.9,1.5,1.9,2.3,3l-0.6,1c-0.7-1.1-1.2-2-1.7-2.7V267.9z M1027.2,267.8l-0.6-1c3.8-1.2,6.6-3.6,8.5-7.1l1,0.5
			c-0.8,1.4-1.7,2.7-2.7,3.7c1.2,1,2.1,2,2.9,3l-0.8,0.8c-0.7-1-1.6-2-2.8-3.2C1031.1,266,1029.3,267.1,1027.2,267.8z M1031.5,255
			c-0.2-0.6-0.5-1.1-0.8-1.6l1.2-0.2c0.2,0.5,0.5,1.1,0.7,1.8h3.6v1h-4.4c-0.9,1.6-1.6,2.7-2.3,3.3c1-0.1,2-0.1,3-0.2
			c0.4-0.6,0.8-1.2,1.1-1.8l0.9,0.5c-1.6,3.2-3.9,5.3-7,6.5l-0.6-1c1.9-0.7,3.6-1.8,4.9-3.2c-1.1,0.1-2.3,0.1-3.6,0.2l-0.2-0.9
			c0.1,0,0.2-0.1,0.2-0.1c0.6-0.4,1.5-1.5,2.5-3.2h-3.1v-1H1031.5z"/>
		<path class="st3" d="M1040.6,258.5c-0.4,2.8-1.1,5.1-1.9,7.1l-1-0.6c0.8-2,1.4-4.3,1.8-6.7L1040.6,258.5z M1043.5,267.4
			c-1.1,0-1.7-0.5-1.7-1.6v-9.2h1.2v8.9c0,0.5,0.3,0.7,0.9,0.7h3c0.4,0,0.7-0.2,0.8-0.5c0.2-0.4,0.3-1.5,0.4-3.4l1.1,0.4
			c-0.1,2.2-0.4,3.5-0.7,4c-0.3,0.4-0.8,0.6-1.4,0.6H1043.5z M1047.4,257.3l-1,0.7c-0.8-1.2-2-2.6-3.4-4.1l1-0.6
			C1045.5,254.8,1046.6,256.2,1047.4,257.3z M1052.4,264.4l-1.1,0.5c-0.8-2.5-1.7-4.8-2.7-6.8l1.1-0.4
			C1050.8,259.8,1051.7,262.1,1052.4,264.4z"/>
		<path class="st3" d="M1055.7,257.6v-4.1h1.2v4.1h2v1.1h-2v5.6c0.7-0.2,1.4-0.4,2-0.7v1.2c-1.6,0.6-3.2,1.1-5,1.5l-0.3-1.2
			c0.7-0.1,1.4-0.3,2.1-0.4v-5.9h-1.9v-1.1H1055.7z M1059.7,259.8v-1.1c1.9-1.1,3.7-2.3,5.3-3.6h-5.2v-1.1h6.8v1
			c-1.5,1.3-3.2,2.5-5.1,3.7h6.1c-0.1,3.7-0.3,6.1-0.5,7.2c-0.3,1.1-1,1.6-2.2,1.7c-0.5,0-1,0-1.5,0l-0.3-1.1c0.6,0,1.1,0.1,1.7,0.1
			c0.6,0,1.1-0.3,1.3-0.9c0.2-0.5,0.4-2.5,0.4-5.9h-1.2c-0.4,1.9-1,3.5-1.7,4.6c-0.8,1.2-2.1,2.3-3.7,3.2l-0.7-0.9
			c1.5-0.8,2.7-1.8,3.5-2.8c0.7-1,1.2-2.4,1.6-4.1h-1.3c-0.6,2-1.6,3.6-3.1,4.7l-0.7-0.9c1.3-1,2.2-2.3,2.7-3.8H1059.7z"/>
		<path class="st3" d="M1074.5,265.4c-1.1,0.9-2.4,1.7-4.1,2.2l-0.6-0.9c1.7-0.6,3.1-1.2,4-2L1074.5,265.4z M1082.3,253.7v4.6h-5
			c0.1,0.3,0.3,0.6,0.4,0.9h6.3v1H1070v-1h6.6c-0.2-0.3-0.3-0.6-0.5-0.9h-4.3v-4.6H1082.3z M1082.1,261v3.2h-4.4v2.3
			c0,0.9-0.4,1.3-1.2,1.3h-1.9l-0.2-1.1c0.6,0,1.2,0.1,1.8,0.1c0.3,0,0.5-0.2,0.5-0.6v-2h-4.6V261H1082.1z M1081.2,255.5v-0.9h-8.3
			v0.9H1081.2z M1081.2,256.4h-8.3v1h8.3V256.4z M1081,261.9h-7.9v1.4h7.9V261.9z M1084.3,266.6l-0.4,1.1c-1.5-0.8-3-1.5-4.5-2
			l0.5-0.9C1081.3,265.2,1082.8,265.8,1084.3,266.6z"/>
		<path class="st3" d="M1091.5,266.9h-1.1V266h-2.9v1.4h-1.1V256h1.5c0.3-0.9,0.5-1.8,0.7-2.8l1.2,0.2c-0.2,0.9-0.4,1.8-0.8,2.6h2.6
			V266.9z M1090.3,260.4v-3.3h-2.9v3.3H1090.3z M1090.3,264.9v-3.5h-2.9v3.5H1090.3z M1099.5,265.8c-0.2,1.2-0.9,1.8-2.2,1.8
			c-0.3,0-0.9,0-1.6-0.1l-0.3-1.1c0.7,0,1.2,0,1.7,0c0.8,0,1.2-0.4,1.3-1.2c0.1-0.9,0.2-3.7,0.2-8.3h-4.4c-0.4,1-1,1.9-1.6,2.7
			l-0.7-0.9c1.1-1.6,1.9-3.5,2.3-5.8l1.1,0.1c-0.2,0.9-0.4,1.8-0.7,2.7h5.1C1099.7,261.3,1099.7,264.6,1099.5,265.8z M1096.9,263.2
			l-0.9,0.6c-0.7-1.1-1.5-2.2-2.6-3.6l0.9-0.6C1095.4,261,1096.3,262.2,1096.9,263.2z"/>
		<path class="st3" d="M1116,254.9v1.1h-4v10.3h-1.3V256h-4v-1.1H1116z"/>
		<path class="st3" d="M1119,255.2c0.2,0.2,0.3,0.4,0.3,0.7c0,0.3-0.1,0.5-0.3,0.7c-0.2,0.2-0.4,0.3-0.7,0.3s-0.5-0.1-0.7-0.3
			c-0.2-0.2-0.3-0.4-0.3-0.7c0-0.3,0.1-0.5,0.3-0.7c0.2-0.2,0.4-0.3,0.7-0.3S1118.8,255,1119,255.2z M1118.9,258v8.3h-1.3V258
			H1118.9z"/>
		<path class="st3" d="M1125.6,254.9c1.8,0,3.2,0.5,4.1,1.6c0.8,1,1.3,2.4,1.3,4.1c0,1.8-0.5,3.2-1.4,4.1c-1,1-2.3,1.6-4.1,1.6h-4
			v-11.4H1125.6z M1122.8,265.1h2.4c1.5,0,2.6-0.4,3.4-1.2c0.7-0.8,1.1-1.9,1.1-3.4c0-1.5-0.3-2.7-1-3.4c-0.7-0.8-1.8-1.2-3.3-1.2
			h-2.6V265.1z"/>
		<path class="st3" d="M1137.9,254.9c1.1,0,1.9,0.3,2.5,0.8c0.6,0.5,0.9,1.2,0.9,2.1c0,0.6-0.2,1.2-0.5,1.7
			c-0.4,0.4-0.8,0.7-1.4,0.9c0.8,0.1,1.3,0.4,1.7,0.9c0.4,0.5,0.6,1.1,0.6,1.9c0,1.1-0.4,2-1.2,2.5c-0.7,0.4-1.6,0.7-2.8,0.7h-5.1
			v-11.4H1137.9z M1134.1,259.8h3.5c0.8,0,1.4-0.2,1.8-0.5c0.4-0.3,0.6-0.8,0.6-1.5c0-0.6-0.2-1.1-0.6-1.4c-0.4-0.3-1-0.5-1.8-0.5
			h-3.5V259.8z M1134.1,265.2h3.7c0.8,0,1.4-0.2,1.9-0.4c0.6-0.4,0.8-0.9,0.8-1.6s-0.3-1.3-0.7-1.6c-0.5-0.4-1.1-0.5-2-0.5h-3.7
			V265.2z"/>
		<path class="st3" d="M1156.1,254.9v1.2h-5.6l-0.4,3.8h0.1c0.3-0.4,0.7-0.7,1.2-0.9c0.4-0.2,0.9-0.3,1.5-0.3c1.1,0,2,0.3,2.6,1
			c0.7,0.7,1,1.7,1,2.9c0,1.2-0.4,2.1-1.2,2.8c-0.8,0.7-1.7,1-2.8,1c-1,0-1.9-0.3-2.6-0.8c-0.8-0.6-1.2-1.4-1.3-2.5h1.3
			c0.1,0.7,0.4,1.3,0.9,1.7c0.4,0.3,1,0.5,1.7,0.5c0.8,0,1.5-0.3,2-0.8c0.5-0.5,0.8-1.2,0.8-2c0-0.9-0.3-1.6-0.7-2.1
			c-0.5-0.5-1.1-0.8-2-0.8c-0.5,0-1,0.1-1.5,0.4c-0.4,0.2-0.8,0.6-1,1h-1.2l0.6-6.3H1156.1z"/>
		<path class="st3" d="M1160.2,264.7c0.2,0.2,0.3,0.4,0.3,0.7c0,0.3-0.1,0.5-0.3,0.7c-0.2,0.2-0.4,0.3-0.7,0.3
			c-0.3,0-0.5-0.1-0.7-0.3c-0.2-0.2-0.3-0.4-0.3-0.7c0-0.3,0.1-0.5,0.3-0.7c0.2-0.2,0.4-0.3,0.7-0.3
			C1159.8,264.4,1160,264.5,1160.2,264.7z"/>
		<path class="st3" d="M1169.5,256.4c0.6,1,0.9,2.4,0.9,4.1c0,1.7-0.3,3.1-0.9,4.1c-0.7,1.2-1.7,1.8-3.1,1.8c-1.4,0-2.4-0.6-3.1-1.8
			c-0.6-1-0.9-2.4-0.9-4.1c0-1.7,0.3-3.1,0.9-4.1c0.7-1.2,1.7-1.8,3.1-1.8C1167.8,254.6,1168.8,255.2,1169.5,256.4z M1164.2,257.4
			c-0.3,0.8-0.5,1.8-0.5,3.2c0,1.3,0.2,2.4,0.5,3.2c0.4,1.1,1.2,1.6,2.2,1.6c1,0,1.8-0.6,2.2-1.6c0.3-0.8,0.5-1.8,0.5-3.2
			c0-1.3-0.2-2.4-0.5-3.2c-0.4-1.1-1.2-1.6-2.2-1.6C1165.4,255.7,1164.6,256.3,1164.2,257.4z"/>
		<path class="st3" d="M1185,253.3c2,2.2,4.4,4,7,5.3l-0.6,1.1c-2.7-1.4-4.9-3.2-6.8-5.4c-1.7,2.1-4,3.9-6.9,5.4l-0.6-1.1
			c2.8-1.4,5.2-3.2,7.1-5.3H1185z M1185.6,257.5v3.6h4.4v1.1h-4.4v3.9h5.5v1.1h-13.3v-1.1h2.4v-6.3h1.1v6.3h3.1v-8.6H1185.6z"/>
		<path class="st3" d="M1199.4,253.4v12.7h2.3v-12.7h1.2v12.7h4.8v1.1h-14.2v-1.1h4.8v-12.7H1199.4z M1197.1,263.7l-1.1,0.3
			c-0.6-2.6-1.3-5-2.2-7.4l1-0.3C1195.7,258.4,1196.4,260.9,1197.1,263.7z M1207.2,256.6c-0.6,2.8-1.4,5.2-2.4,7.3l-1-0.4
			c0.9-1.9,1.7-4.3,2.4-7.2L1207.2,256.6z"/>
		<path class="st3" d="M1214.3,253.4v4.2h0.9v1.1h-3.8v0.8c0,0.5,0,1,0,1.4h3.1v6.8h-1.1v-5.7h-2c-0.2,2.4-0.6,4.2-1.3,5.5l-0.9-0.8
			c0.7-1.5,1.1-4,1.1-7.3v-5.9h1.1v3.9h1.7v-4.2H1214.3z M1217.2,260.7c-0.1,3-0.6,5.3-1.6,7.1l-0.8-0.8c0.8-1.5,1.2-3.6,1.3-6.3
			v-6.4c2.5,0,4.8-0.4,6.8-1l0.6,1c-1.9,0.5-4,0.9-6.3,1v2.5h5.9v1c-0.4,2.2-1.1,4.1-2.1,5.6c0.8,1.1,1.7,1.9,2.9,2.4l-0.6,1
			c-1.2-0.6-2.2-1.5-3-2.5c-0.9,1-1.9,1.9-3.2,2.5l-0.6-1c1.2-0.7,2.2-1.5,3-2.5c-0.9-1.5-1.6-3.3-1.9-5.5h-0.5V260.7z
			 M1220.4,263.4c0.8-1.3,1.4-2.8,1.6-4.5h-3.2C1219.1,260.7,1219.7,262.2,1220.4,263.4z"/>
		<path class="st3" d="M1239.3,255.7c0.8,0.7,1.3,1.6,1.5,2.8h-1.3c-0.2-0.9-0.6-1.5-1.2-2c-0.6-0.5-1.4-0.7-2.4-0.7
			c-1.2,0-2.2,0.4-3,1.3c-0.7,0.9-1.1,2-1.1,3.5c0,1.4,0.4,2.6,1.1,3.4c0.8,0.9,1.9,1.3,3.4,1.3c0.6,0,1.2-0.1,1.8-0.3
			c0.6-0.2,1-0.4,1.4-0.6v-2.9h-3.6v-1.1h4.9v4.7c-0.5,0.4-1.2,0.8-2,1c-0.8,0.3-1.7,0.4-2.7,0.4c-1.8,0-3.2-0.6-4.2-1.7
			c-0.9-1.1-1.4-2.5-1.4-4.2c0-1.7,0.4-3.1,1.4-4.2c1-1.2,2.3-1.8,4-1.8C1237.3,254.6,1238.5,255,1239.3,255.7z"/>
		<path class="st3" d="M1247.8,254.9l4.5,11.4h-1.4l-1.2-3.2h-5.2l-1.2,3.2h-1.4l4.5-11.4H1247.8z M1249.3,262l-2.2-5.7h-0.1
			l-2.2,5.7H1249.3z"/>
		<path class="st3" d="M1260.8,253.7l1.1,0.2l-0.9,3.2h2.8c0.3-1.2,0.6-2.5,0.8-3.9l1.2,0.1c-0.2,1.3-0.5,2.6-0.8,3.8h7.5v1.1h-7.8
			c-0.2,0.6-0.4,1.2-0.6,1.8h6.5v1c-0.4,1.4-1.3,2.6-2.6,3.7c1.3,0.8,2.9,1.5,4.7,2.1l-0.6,1.1c-2-0.8-3.7-1.6-5.1-2.4
			c-1.3,0.9-2.9,1.8-4.9,2.5l-0.6-1.1c1.8-0.7,3.3-1.4,4.5-2.2c-1.2-1-2.1-2-2.7-3.1c-1.2,2.5-2.7,4.5-4.5,6l-0.6-1.1
			c2.3-2,4-4.8,5.2-8.4h-4L1260.8,253.7z M1267,264c1.2-0.9,2-1.9,2.4-3h-5.2C1264.8,262.1,1265.7,263.1,1267,264z M1271.3,255.9
			l-0.8,0.8c-0.7-0.8-1.6-1.7-2.8-2.7l0.8-0.8C1269.6,254.1,1270.5,255,1271.3,255.9z"/>
		<path class="st3" d="M1279.4,253.4v4.2h0.9v1.1h-3.8v0.8c0,0.5,0,1,0,1.4h3.1v6.8h-1.1v-5.7h-2c-0.2,2.4-0.6,4.2-1.3,5.5l-0.9-0.8
			c0.7-1.5,1.1-4,1.1-7.3v-5.9h1.1v3.9h1.7v-4.2H1279.4z M1282.3,260.7c-0.1,3-0.6,5.3-1.6,7.1l-0.8-0.8c0.8-1.5,1.2-3.6,1.3-6.3
			v-6.4c2.5,0,4.8-0.4,6.8-1l0.6,1c-1.9,0.5-4,0.9-6.3,1v2.5h5.9v1c-0.4,2.2-1.1,4.1-2.1,5.6c0.8,1.1,1.7,1.9,2.9,2.4l-0.6,1
			c-1.2-0.6-2.2-1.5-3-2.5c-0.9,1-1.9,1.9-3.2,2.5l-0.6-1c1.2-0.7,2.2-1.5,3-2.5c-0.9-1.5-1.6-3.3-1.9-5.5h-0.5V260.7z
			 M1285.5,263.4c0.8-1.3,1.4-2.8,1.6-4.5h-3.2C1284.3,260.7,1284.8,262.2,1285.5,263.4z"/>
	</g>
	<g class="st0">
		<path class="st2" d="M949.7,312c0.7,0.6,1.1,1.5,1.1,2.4c0,0.6-0.1,1.2-0.4,1.7c-0.3,0.5-0.8,0.8-1.4,1.1v0
			c0.6,0.2,1.1,0.5,1.5,1.1c0.5,0.6,0.7,1.3,0.7,2.1c0,1.2-0.4,2.1-1.3,2.8c-0.8,0.7-2,1.1-3.6,1.1c-1.5,0-2.7-0.4-3.6-1.1
			c-0.8-0.7-1.3-1.6-1.3-2.8c0-0.8,0.2-1.5,0.7-2.1c0.4-0.6,0.9-0.9,1.5-1.1v0c-0.6-0.3-1.1-0.6-1.4-1.1c-0.3-0.5-0.4-1-0.4-1.7
			c0-1,0.4-1.8,1.1-2.4c0.8-0.7,1.9-1.1,3.3-1.1C947.8,310.9,948.9,311.3,949.7,312z M944.3,318.7c-0.5,0.4-0.7,1-0.7,1.7
			c0,0.6,0.2,1.2,0.7,1.6c0.5,0.4,1.1,0.6,2,0.6c0.9,0,1.5-0.2,2.1-0.6c0.5-0.4,0.7-0.9,0.7-1.5c0-0.7-0.2-1.2-0.7-1.6
			c-0.5-0.5-1.2-0.7-2.1-0.7C945.5,318.1,944.8,318.3,944.3,318.7z M944.6,313.2c-0.4,0.4-0.6,0.8-0.6,1.3c0,0.6,0.2,1.1,0.5,1.4
			c0.4,0.4,1,0.6,1.9,0.6c0.9,0,1.5-0.2,1.9-0.6c0.3-0.3,0.5-0.8,0.5-1.4c0-0.5-0.2-1-0.6-1.3c-0.5-0.4-1.1-0.6-1.8-0.6
			C945.6,312.6,945,312.8,944.6,313.2z"/>
		<path class="st2" d="M961.6,326l-1.4-1.3c1.1-1.6,1.7-3.6,1.7-6v-8.8h10.9v14.1c0,1.2-0.6,1.8-1.8,1.8h-2.3l-0.5-1.8
			c0.8,0.1,1.5,0.1,2.2,0.1c0.4,0,0.5-0.3,0.5-0.7v-3h-7.2C963.4,322.6,962.7,324.5,961.6,326z M970.8,311.6h-7.1v2.5h7.1V311.6z
			 M963.7,318.5h7.1v-2.7h-7.1V318.5z"/>
	</g>
	<g class="st0">
		<path class="st3" d="M950.6,344.6v1.1h-4V356h-1.3v-10.3h-4v-1.1H950.6z"/>
		<path class="st3" d="M953.6,344.9c0.2,0.2,0.3,0.4,0.3,0.7c0,0.3-0.1,0.5-0.3,0.7c-0.2,0.2-0.4,0.3-0.7,0.3s-0.5-0.1-0.7-0.3
			c-0.2-0.2-0.3-0.4-0.3-0.7c0-0.3,0.1-0.5,0.3-0.7c0.2-0.2,0.4-0.3,0.7-0.3S953.4,344.7,953.6,344.9z M953.6,347.7v8.3h-1.3v-8.3
			H953.6z"/>
		<path class="st3" d="M960.2,344.6c1.8,0,3.2,0.5,4.1,1.6c0.8,1,1.3,2.4,1.3,4.1c0,1.8-0.5,3.2-1.4,4.1c-1,1-2.3,1.6-4.1,1.6h-4
			v-11.4H960.2z M957.5,354.9h2.4c1.5,0,2.6-0.4,3.4-1.2c0.7-0.8,1.1-1.9,1.1-3.4c0-1.5-0.3-2.7-1-3.4c-0.7-0.8-1.8-1.2-3.3-1.2
			h-2.6V354.9z"/>
		<path class="st3" d="M972.6,344.6c1.1,0,1.9,0.3,2.5,0.8c0.6,0.5,0.9,1.2,0.9,2.1c0,0.6-0.2,1.2-0.5,1.7c-0.4,0.4-0.8,0.7-1.4,0.9
			c0.8,0.1,1.3,0.4,1.7,0.9c0.4,0.5,0.6,1.1,0.6,1.9c0,1.1-0.4,2-1.2,2.5c-0.7,0.4-1.6,0.7-2.8,0.7h-5.1v-11.4H972.6z M968.8,349.6
			h3.5c0.8,0,1.4-0.2,1.8-0.5c0.4-0.3,0.6-0.8,0.6-1.5c0-0.6-0.2-1.1-0.6-1.4c-0.4-0.3-1-0.5-1.8-0.5h-3.5V349.6z M968.8,354.9h3.6
			c0.8,0,1.4-0.2,1.9-0.4c0.6-0.4,0.8-0.9,0.8-1.6s-0.3-1.3-0.7-1.6c-0.5-0.4-1.1-0.5-2-0.5h-3.6V354.9z"/>
		<path class="st3" d="M991,357.3c-1,0-1.8-0.1-2.5-0.3c-0.6-0.2-1.2-0.6-1.7-1.2c-0.2-0.3-0.4-0.4-0.6-0.4c-0.4,0-1,0.7-1.9,2.2
			l-0.9-0.8c0.8-1.3,1.6-2.2,2.3-2.4v-4.9h-2.3v-1.1h3.4v6c0.1,0.1,0.3,0.2,0.4,0.4c0.4,0.5,0.8,0.8,1.2,1c0.5,0.2,1.2,0.4,2.1,0.4
			c0.8,0,1.9,0,3.1,0c0.8,0,1.5,0,2.3,0c0.8,0,1.4,0,1.8-0.1l-0.3,1.2h-3.7C992.9,357.3,992,357.3,991,357.3z M987.2,345.7l-0.8,0.8
			c-0.6-0.8-1.5-1.6-2.7-2.5l0.8-0.8C985.6,344,986.5,344.8,987.2,345.7z M990.5,344.6c0.2-0.6,0.4-1.2,0.6-1.8l1.1,0.3
			c-0.2,0.5-0.4,1-0.5,1.5h5.6v1.1h-6.1c-0.5,1.1-1,2-1.6,2.9h2.6v-1.9h1.1v1.9h3.5v1.1h-3.5v1.9h4.2v1.1h-4.2v3h-1.1v-3h-4.4v-1.1
			h4.4v-1.9h-3.7l-0.3-1.1c0.6-0.8,1.2-1.7,1.8-2.9h-2.1v-1.1H990.5z"/>
		<path class="st3" d="M1002.9,343.4c-0.7,2-1.5,3.6-2.3,4.8c0.7-0.1,1.3-0.2,2-0.3c0.3-0.5,0.6-1.1,0.9-1.7l1.1,0.4
			c-1.4,2.6-2.5,4.4-3.4,5.5c1-0.2,1.9-0.5,2.9-0.8v1c-1.5,0.5-2.9,0.8-4.3,1l-0.3-1.1c0.2-0.1,0.4-0.2,0.5-0.3
			c0.6-0.6,1.3-1.6,2.1-3c-0.8,0.1-1.6,0.3-2.5,0.4l-0.3-1.1c0.2-0.1,0.3-0.2,0.5-0.4c0.8-1.4,1.5-3.1,2-4.9L1002.9,343.4z
			 M1004.2,355.3c-1.4,0.6-3,1-4.7,1.4l-0.1-1.1c1.9-0.3,3.5-0.8,4.9-1.4V355.3z M1008.9,352.2c0-0.4,0.1-0.7,0.1-1.1v-3h1.1v3
			c0,0.4,0,0.7-0.1,1.1h3.7v1.1h-3.9c-0.1,0.3-0.2,0.5-0.3,0.8c1.6,0.7,3,1.6,4.3,2.6l-0.6,1c-1.3-1.1-2.7-2-4.1-2.7
			c-0.1,0.2-0.2,0.3-0.3,0.4c-0.8,1-2,1.7-3.8,2.3l-0.6-1c1.7-0.5,2.9-1.2,3.6-2.1c0.3-0.4,0.5-0.8,0.7-1.3h-4.2v-1.1H1008.9z
			 M1007.5,351.2l-0.5,0.8c-0.8-0.7-1.6-1.2-2.4-1.6l0.5-0.8C1006,350,1006.8,350.5,1007.5,351.2z M1008.6,343.9v-1.1h1.1v1.1h3.4v1
			h-3.4v1.5h3.7v0.7c-0.2,1-0.5,2-0.9,3l-1.1-0.3c0.3-0.7,0.6-1.5,0.8-2.4h-7.3v-1.1h3.7V345h-3.2v-1H1008.6z M1008.6,349.4
			l-0.5,0.8c-0.7-0.6-1.5-1.2-2.2-1.5l0.5-0.8C1007.2,348.3,1007.9,348.8,1008.6,349.4z"/>
		<path class="st3" d="M1027.4,345.3c0.7,0.6,1,1.4,1,2.4s-0.4,1.9-1.1,2.7c-0.4,0.4-1.2,1-2.4,1.8c-1.5,1-2.3,1.9-2.5,2.6h6v1.2
			h-7.6c0-1,0.4-2,1.1-2.8c0.4-0.5,1.3-1.2,2.5-2c0.9-0.6,1.5-1.1,1.8-1.4c0.6-0.6,0.9-1.3,0.9-2c0-0.7-0.2-1.2-0.6-1.6
			s-1-0.6-1.7-0.6c-0.8,0-1.4,0.3-1.8,0.8c-0.4,0.5-0.7,1.3-0.7,2.3h-1.3c0-1.3,0.4-2.3,1.1-3.1c0.7-0.8,1.6-1.2,2.8-1.2
			C1025.8,344.3,1026.7,344.7,1027.4,345.3z"/>
		<path class="st3" d="M1037.3,346.2c0.6,1,0.9,2.4,0.9,4.1c0,1.7-0.3,3.1-0.9,4.1c-0.7,1.2-1.7,1.8-3.1,1.8c-1.4,0-2.4-0.6-3.1-1.8
			c-0.6-1-0.9-2.4-0.9-4.1c0-1.7,0.3-3.1,0.9-4.1c0.7-1.2,1.7-1.8,3.1-1.8C1035.5,344.3,1036.6,344.9,1037.3,346.2z M1032,347.1
			c-0.3,0.8-0.5,1.8-0.5,3.2c0,1.3,0.2,2.4,0.5,3.2c0.4,1.1,1.2,1.6,2.2,1.6s1.8-0.6,2.2-1.6c0.3-0.8,0.5-1.8,0.5-3.2
			c0-1.3-0.2-2.4-0.5-3.2c-0.4-1.1-1.2-1.6-2.2-1.6S1032.4,346,1032,347.1z"/>
		<path class="st3" d="M1052.8,342.9c1.3,2.2,3.6,4.1,6.9,5.8l-0.7,1c-3-1.6-5.3-3.5-6.7-5.8c-1.8,2.5-4,4.5-6.7,5.9l-0.7-1
			c3-1.5,5.3-3.5,6.9-5.9H1052.8z M1052.9,347.7v9.9h-1.2v-9.9H1052.9z"/>
		<path class="st3" d="M1063.4,357.6l-0.9-0.8c1.1-1.4,1.6-3.3,1.6-5.5v-7.8h9.2v12.5c0,0.9-0.5,1.4-1.4,1.4h-2.1l-0.3-1.1
			c0.7,0,1.4,0.1,2,0.1c0.4,0,0.6-0.2,0.6-0.7v-3.2h-6.9C1065.1,354.6,1064.5,356.3,1063.4,357.6z M1072.2,344.7h-6.8v2.8h6.8V344.7
			z M1065.3,351.4h6.8v-2.9h-6.8V351.4z"/>
		<path class="st3" d="M1077.6,352.8l-0.7-0.9c2-1.6,3.6-3.5,4.7-5.7h-4.1v-1.1h4.7c0.3-0.7,0.6-1.5,0.8-2.3l1.2,0.1
			c-0.2,0.7-0.5,1.5-0.8,2.1h8.1v1.1h-8.6c-0.6,1.3-1.4,2.4-2.2,3.5v7.9h-1.1v-6.6C1078.9,351.7,1078.3,352.3,1077.6,352.8z
			 M1085.7,350.4v-3h1.2v3h3.8v1.1h-3.8v4.4h4.5v1.1h-10v-1.1h4.3v-4.4h-3.7v-1.1H1085.7z"/>
		<path class="st3" d="M1096.1,352c-0.5,0.8-1.2,1.6-2,2.2l-0.8-0.6c0.7-0.6,1.3-1.2,1.9-2L1096.1,352z M1105.9,343.5v4.1h-5v0.9
			h5.6v0.8h-5.6v1h6.5v0.9h-14.1v-0.9h6.5v-1h-5.5v-0.8h5.5v-0.9h-4.9v-4.1H1105.9z M1099.8,354.1v-1.3h1.1v1.3h4.6v0.9h-4.6v1.3
			h6.2v1h-13.6v-1h6.3V355h-4.5v-0.9H1099.8z M1099.8,344.4h-4v2.3h2.4c-0.4-0.5-0.8-1.1-1.4-1.6l0.6-0.6c0.5,0.5,1,1.1,1.4,1.6
			l-0.6,0.6h1.6V344.4z M1099.1,353.3l-0.9,0.3c-0.2-0.6-0.5-1.2-0.8-1.8l0.9-0.3C1098.6,352.2,1098.9,352.8,1099.1,353.3z
			 M1104.8,344.4h-4v2.3h1.6l-0.6-0.6c0.5-0.5,0.9-1,1.3-1.5l0.7,0.5c-0.4,0.6-0.9,1.2-1.3,1.6h2.3V344.4z M1103.2,353.4l-0.9,0.3
			c-0.3-0.7-0.6-1.3-0.9-1.9l0.9-0.3C1102.7,352.2,1103,352.8,1103.2,353.4z M1107.4,353.7l-0.7,0.7c-0.5-0.7-1.3-1.3-2.2-2.1
			l0.7-0.7C1106,352.3,1106.8,353,1107.4,353.7z"/>
		<path class="st3" d="M1115.4,348.6c0.2-1.1,0.3-2.3,0.4-3.7h-5.8v-1.1h12.6v1.1h-5.7c-0.1,1.4-0.2,2.6-0.4,3.7h6.6v1.1h-5.9
			c1.1,3,3.2,5.4,6.4,7l-0.7,0.9c-3.3-1.8-5.5-4.3-6.6-7.6c-0.3,1.1-0.6,2-1,2.8c-1.1,1.9-2.9,3.5-5.5,4.9l-0.7-0.9
			c2.4-1.2,4.1-2.7,5.1-4.4c0.4-0.7,0.8-1.6,1-2.6h-5.6v-1.1H1115.4z"/>
		<path class="st3" d="M1129.4,347.3v2.4h1.8v1h-1.8v2.2c0.8-0.2,1.5-0.3,2.2-0.5v1.1c-0.7,0.2-1.5,0.4-2.2,0.5v3.5h-1.1v-3.3
			c-1,0.2-2,0.3-3.1,0.5l-0.1-1.1c1.2-0.1,2.2-0.3,3.3-0.5v-2.4h-2.7l-0.2-1c0.4-1,0.9-2.2,1.3-3.6h-1.6V345h1.9
			c0.2-0.7,0.3-1.4,0.4-2.1l1.1,0.2c-0.1,0.7-0.3,1.3-0.4,2h3.2v1.1h-3.5c-0.4,1.4-0.8,2.6-1.2,3.6h1.8v-2.4H1129.4z M1135.8,343
			c0.8,2,2.1,3.7,4,5.1l-0.7,1c-1.7-1.3-3-3-3.8-5c-1,2.2-2.4,3.9-3.9,5.1l-0.6-1c1.7-1.3,3.1-3.1,4-5.2H1135.8z M1134.2,357.4
			c-1,0-1.5-0.6-1.5-1.7v-6.9h1.1v2.8c1.3-0.6,2.5-1.3,3.7-2.3l0.7,0.9c-1.6,1.1-3,2-4.4,2.5v2.7c0,0.6,0.2,0.8,0.8,0.8h2.4
			c0.4,0,0.7-0.1,0.8-0.4c0.2-0.3,0.4-1.1,0.4-2.5l1.1,0.4c-0.1,1.7-0.4,2.7-0.7,3.1c-0.3,0.3-0.8,0.5-1.4,0.5H1134.2z"/>
		<path class="st3" d="M1154.9,357.6h-1.2v-0.7h-10.8v0.7h-1.2v-13.9h13.2V357.6z M1153.7,355.8v-11h-10.8v11H1153.7z M1152.3,346.2
			v1h-3.4v2.3h2.9v1h-2.9v2.5h3.8v1.1h-8.8v-1.1h3.8v-2.5h-2.9v-1h2.9v-2.3h-3.4v-1H1152.3z M1151.8,352.7l-0.9,0.4
			c-0.3-0.7-0.7-1.3-1.1-1.9l0.9-0.3C1151.2,351.5,1151.5,352,1151.8,352.7z"/>
		<path class="st3" d="M1165.1,344.6h5.6v1.1h-2.8c-0.2,0.8-0.4,1.7-0.8,2.4h3.9v1.1h-11.5v2.4c-0.1,2.5-0.6,4.5-1.7,6l-0.9-0.8
			c0.9-1.2,1.4-3,1.5-5.2v-3.5h3.3l-0.7-2.4h-2.9v-1.1h5.9c-0.2-0.6-0.5-1.2-0.8-1.6l1.2-0.2
			C1164.6,343.3,1164.9,343.9,1165.1,344.6z M1166,348.1c0.4-0.8,0.6-1.6,0.8-2.4h-4.7l0.7,2.4H1166z"/>
		<path class="st3" d="M1177.1,350.5c-0.1,0.3-0.2,0.6-0.3,0.9h3.3v0.9c-0.4,1.1-0.9,2-1.8,2.7c0.8,0.4,1.5,0.7,2.2,1.1l-0.6,0.9
			c-0.7-0.4-1.5-0.8-2.5-1.3c-1.1,0.7-2.4,1.3-4,1.8l-0.5-1c1.3-0.4,2.4-0.8,3.4-1.3c-0.7-0.3-1.4-0.6-2.2-0.9
			c0.4-0.7,0.8-1.4,1.1-2h-1.9v-1h2.3c0.1-0.4,0.3-0.7,0.4-1L1177.1,350.5z M1176.5,346v-3.1h1.1v3.1h2.9v1h-2.9v0.2
			c0.9,0.4,1.8,0.9,2.7,1.5l-0.6,0.9c-0.8-0.6-1.5-1.2-2.1-1.5v2.1h-1.1v-3c-0.5,1.3-1.5,2.4-2.9,3.3l-0.6-0.9
			c1.2-0.7,2.1-1.5,2.6-2.4h-2.3v-1H1176.5z M1175.6,345.2l-0.8,0.4c-0.3-0.8-0.7-1.5-1.1-2.1l0.9-0.3
			C1175,343.9,1175.3,344.5,1175.6,345.2z M1179.1,352.4h-2.8c-0.3,0.5-0.5,1.1-0.9,1.5c0.6,0.2,1.2,0.4,1.8,0.7
			C1178.1,354,1178.7,353.2,1179.1,352.4z M1180.3,343.6c-0.3,0.7-0.7,1.4-1.2,2.1l-0.8-0.4c0.5-0.7,0.9-1.4,1.2-2L1180.3,343.6z
			 M1182.1,349.1c-0.3,0.7-0.6,1.4-0.9,2l-0.7-0.9c0.9-1.8,1.6-4.2,1.9-7.3l1.1,0.2c-0.1,0.8-0.2,1.6-0.4,2.3h4.2v1.1h-1
			c-0.1,2.7-0.6,5-1.5,6.9c0.8,1.4,1.8,2.5,3,3.3l-0.6,0.9c-1.1-0.8-2.1-1.9-2.9-3.2c-0.8,1.3-1.8,2.4-3,3.2l-0.6-1
			c1.2-0.9,2.2-2,3-3.3C1183,352.1,1182.5,350.7,1182.1,349.1z M1182.6,347.3c0.4,1.9,0.9,3.5,1.6,4.8c0.6-1.6,1-3.5,1-5.7h-2.4
			L1182.6,347.3z"/>
		<path class="st3" d="M1189.6,357.5l-0.2-1.1c0.4,0,0.8,0.1,1.2,0.1c0.4,0,0.6-0.2,0.6-0.7v-3.9c-0.6,0.2-1.3,0.5-1.9,0.7l-0.3-1.1
			c0.7-0.2,1.5-0.4,2.2-0.7v-3.6h-1.9V346h1.9v-3h1.1v3h1.5v1.1h-1.5v3.2c0.5-0.2,1-0.5,1.5-0.7v1.1c-0.5,0.3-1,0.5-1.5,0.7v4.7
			c0,0.9-0.4,1.4-1.3,1.4H1189.6z M1193.8,357.6l-0.9-0.8c1.1-2.1,1.7-4.9,1.7-8.2v-5h8.4v3.9h-3v1.9h3.4v1h-3.4v2h2.7v5.2h-1.1
			v-0.8h-4.3v0.8h-1.1v-5.2h2.7v-2h-3.3C1195.5,353.1,1194.9,355.5,1193.8,357.6z M1195.8,347.5v1.1c0,0.3,0,0.5,0,0.8h3.2v-1.9
			H1195.8z M1195.8,344.6v1.8h6.2v-1.8H1195.8z M1201.7,355.8v-2.4h-4.3v2.4H1201.7z"/>
		<path class="st3" d="M1213.7,344.3h5.8v1.1h-11.9v3.6c-0.1,3.5-0.6,6.4-1.6,8.5l-0.9-0.8c0.9-1.8,1.3-4.4,1.4-7.6v-4.8h6
			c-0.3-0.5-0.5-0.9-0.8-1.3l1.3-0.2C1213.1,343.3,1213.4,343.8,1213.7,344.3z M1212.9,346.2c-0.1,0.4-0.3,0.9-0.4,1.3h6.2v1h-6.6
			c-0.4,1-0.9,1.9-1.4,2.7h3v-1.9h1.2v1.9h3.6v1h-3.6v1.8h4.8v1.1h-4.8v2.5h-1.2v-2.5h-5.8V354h5.8v-1.8h-4.2l-0.2-1
			c0.6-0.8,1.2-1.7,1.7-2.8h-2.4v-1h2.8c0.2-0.5,0.4-1,0.5-1.5L1212.9,346.2z"/>
		<path class="st3" d="M1224.6,349.3l-0.8,0.8c-0.6-0.7-1.5-1.5-2.5-2.4l0.8-0.8C1223,347.7,1223.9,348.5,1224.6,349.3z
			 M1224.7,351.6c-0.6,2-1.3,4-2.1,5.8l-1.1-0.5c0.8-1.9,1.5-3.7,2.1-5.7L1224.7,351.6z M1224.9,345.2l-0.8,0.8
			c-0.6-0.7-1.4-1.3-2.5-2.1l0.8-0.8C1223.4,343.8,1224.2,344.5,1224.9,345.2z M1227.6,350.3c-0.1,2.1-0.3,3.6-0.6,4.6
			c-0.4,1-1,1.9-1.9,2.6l-0.7-0.9c0.8-0.6,1.3-1.4,1.6-2.2c0.3-0.8,0.5-2.2,0.5-4.1H1227.6z M1225.6,348.6c0.1,0,0.2-0.1,0.2-0.1
			c0.6-0.4,1.4-1.4,2.3-2.9h-2.8v-1h4.5c-0.2-0.6-0.5-1.1-0.7-1.6l1.2-0.2c0.3,0.5,0.5,1.2,0.7,1.8h4.2v1h-5.8
			c-0.8,1.3-1.4,2.3-2,2.9c1.8-0.1,3.7-0.3,5.5-0.5c-0.4-0.5-0.7-0.9-1.1-1.4l0.9-0.6c1.1,1.3,1.9,2.4,2.5,3.4l-0.9,0.7
			c-0.2-0.4-0.5-0.8-0.7-1.2c-2.4,0.3-4.9,0.5-7.7,0.6L1225.6,348.6z M1230.3,350.3v6.9h-1.2v-6.9H1230.3z M1233.3,357.4
			c-0.9,0-1.4-0.4-1.4-1.2v-5.8h1.1v5.6c0,0.2,0.1,0.4,0.3,0.4h0.7c0.3,0,0.4-0.2,0.5-0.6c0.1-0.4,0.1-1,0.1-1.9l1,0.4
			c0,1.4-0.1,2.3-0.3,2.6c-0.2,0.3-0.6,0.5-1.2,0.5H1233.3z"/>
		<path class="st3" d="M1241.6,343.5c-0.9,1.8-2.3,3.3-4.3,4.7l-0.3-1.2c1.7-1.2,2.9-2.5,3.6-4L1241.6,343.5z M1242.4,347.2
			c-0.5,0.9-1,1.8-1.7,2.6v7.8h-1.1v-6.7c-0.6,0.6-1.3,1.1-2.1,1.7l-0.3-1.2c2-1.4,3.4-2.9,4.3-4.7L1242.4,347.2z M1251.5,348v1.1
			h-2.6v7c0,0.9-0.5,1.4-1.6,1.4h-2.4l-0.2-1.1c0.8,0,1.5,0.1,2.2,0.1c0.5,0,0.8-0.2,0.8-0.6v-6.7h-5V348H1251.5z M1250.8,343.9v1.1
			h-7.7v-1.1H1250.8z"/>
		<path class="st3" d="M1255.6,349.4c-0.1,3.4-0.6,6.1-1.7,8.2l-0.9-0.8c0.9-1.8,1.4-4.2,1.4-7.4v-5.2h6.2c-0.2-0.4-0.4-0.8-0.6-1.1
			l1.2-0.2c0.2,0.4,0.4,0.8,0.6,1.3h5.5v1.1h-11.7v1.8h2.7v-1.3h1.1v1.3h4.2v-1.3h1.1v1.3h2.5v1.1h-2.5v2.5h-6.5v-2.5h-2.7V349.4z
			 M1265.9,351.7v0.8c-0.9,1.1-2,2-3.3,2.8c1.4,0.6,3.1,1,5,1.3l-0.5,1c-2.2-0.4-4.1-0.9-5.6-1.7c-1.6,0.8-3.5,1.3-5.6,1.7l-0.5-1
			c1.9-0.3,3.5-0.7,5-1.3c-1.2-0.7-2.2-1.6-2.9-2.6h-1v-1H1265.9z M1261.4,354.8c1.1-0.6,2.1-1.3,2.9-2.1h-5.7
			C1259.4,353.6,1260.3,354.3,1261.4,354.8z M1259.4,349.7h4.2v-1.5h-4.2V349.7z"/>
		<path class="st3" d="M1269.3,357.5l-0.3-1.1c0.5,0,0.9,0.1,1.3,0.1c0.4,0,0.7-0.2,0.7-0.6V352c-0.6,0.2-1.2,0.4-1.8,0.6l-0.3-1.2
			c0.7-0.2,1.4-0.4,2-0.6v-3.7h-1.7V346h1.7v-3h1.1v3h1.4v1.1h-1.4v3.3c0.5-0.3,1-0.5,1.6-0.8v1.2c-0.5,0.3-1,0.5-1.6,0.8v4.6
			c0,0.9-0.5,1.3-1.4,1.3H1269.3z M1277.7,342.9v14.7h-1.1v-3.5h-3.2V353h3.2v-2.8h-2.3v-1.1h2.3v-2.7h-2.5v-1h2.5v-2.6H1277.7z
			 M1280.8,342.9v2.6h2.7v1h-2.7v2.7h2.4v1.1h-2.4v2.8h2.8v1.1h-2.8v3.5h-1.1v-14.7H1280.8z"/>
		<path class="st3" d="M1289.6,343.5c-0.9,1.8-2.3,3.3-4.3,4.7l-0.3-1.2c1.7-1.2,2.9-2.5,3.6-4L1289.6,343.5z M1290.4,347.2
			c-0.5,0.9-1,1.8-1.7,2.6v7.8h-1.1v-6.7c-0.6,0.6-1.3,1.1-2.1,1.7l-0.3-1.2c2-1.4,3.4-2.9,4.3-4.7L1290.4,347.2z M1299.5,348v1.1
			h-2.6v7c0,0.9-0.5,1.4-1.6,1.4h-2.4l-0.2-1.1c0.8,0,1.5,0.1,2.2,0.1c0.5,0,0.8-0.2,0.8-0.6v-6.7h-5V348H1299.5z M1298.8,343.9v1.1
			h-7.7v-1.1H1298.8z"/>
		<path class="st3" d="M1303.2,345.9v-2.9h1.1v2.9h1.7v1.1h-1.7v1.2c0.6,0.8,1.3,1.6,1.9,2.6l-0.6,1c-0.5-1-0.9-1.7-1.3-2.3v8.2
			h-1.1v-8c-0.5,1.5-1.1,2.9-1.8,4.1l-0.5-1.3c1.1-1.6,1.8-3.4,2.3-5.4h-2v-1.1H1303.2z M1310.5,350.5c-0.2-0.5-0.4-1-0.6-1.5
			l1.1-0.2c0.2,0.5,0.4,1.1,0.6,1.7h3.8v1.1h-5.3c0,0.5-0.1,1-0.2,1.5h4.4c0,2.3-0.2,3.7-0.7,4.1c-0.2,0.2-0.5,0.3-0.9,0.4
			c-0.3,0-0.7,0.1-1,0.1h-0.9l-0.3-1h1.4c0.4,0,0.7-0.1,0.9-0.3c0.2-0.2,0.3-0.9,0.4-2.2h-3.6c-0.6,1.6-1.6,2.9-3.2,3.7l-0.6-1
			c2-1.1,3-2.8,3.2-5.2h-2.5v-1.1H1310.5z M1310.4,344.3c-0.2-0.5-0.4-0.9-0.6-1.3l1.2-0.2c0.2,0.4,0.4,0.9,0.6,1.5h3.6v1h-1.6
			c-0.1,0.6-0.3,1.3-0.6,1.9h2.2v2.4h-1.1v-1.4h-6.4v1.5h-1.1v-2.5h2.3c-0.2-0.7-0.4-1.3-0.6-1.9h-1.6v-1H1310.4z M1312.5,345.3h-3
			c0.2,0.6,0.4,1.2,0.6,1.9h1.9C1312.2,346.6,1312.3,346,1312.5,345.3z"/>
		<path class="st3" d="M1324.2,342.9v4.9h5.9v1.1h-5.9v6.9h7.3v1.1h-14.2v-1.1h5.8v-12.9H1324.2z"/>
		<path class="st3" d="M1333.3,357.5l-0.3-1.1c0.5,0,0.9,0.1,1.3,0.1c0.4,0,0.7-0.2,0.7-0.6V352c-0.6,0.2-1.2,0.4-1.8,0.6l-0.3-1.2
			c0.7-0.2,1.4-0.4,2-0.6v-3.7h-1.7V346h1.7v-3h1.1v3h1.4v1.1h-1.4v3.3c0.5-0.3,1-0.5,1.6-0.8v1.2c-0.5,0.3-1,0.5-1.6,0.8v4.6
			c0,0.9-0.5,1.3-1.4,1.3H1333.3z M1341.7,342.9v14.7h-1.1v-3.5h-3.2V353h3.2v-2.8h-2.3v-1.1h2.3v-2.7h-2.5v-1h2.5v-2.6H1341.7z
			 M1344.8,342.9v2.6h2.7v1h-2.7v2.7h2.4v1.1h-2.4v2.8h2.8v1.1h-2.8v3.5h-1.1v-14.7H1344.8z"/>
		<path class="st3" d="M1353.6,343.5c-0.9,1.8-2.3,3.3-4.3,4.7l-0.3-1.2c1.7-1.2,2.9-2.5,3.6-4L1353.6,343.5z M1354.4,347.2
			c-0.5,0.9-1,1.8-1.7,2.6v7.8h-1.1v-6.7c-0.6,0.6-1.3,1.1-2.1,1.7l-0.3-1.2c2-1.4,3.4-2.9,4.3-4.7L1354.4,347.2z M1363.5,348v1.1
			h-2.6v7c0,0.9-0.5,1.4-1.6,1.4h-2.4l-0.2-1.1c0.8,0,1.5,0.1,2.2,0.1c0.5,0,0.8-0.2,0.8-0.6v-6.7h-5V348H1363.5z M1362.8,343.9v1.1
			h-7.7v-1.1H1362.8z"/>
		<path class="st3" d="M1366.2,346.7l-1-0.6c1-1,1.8-2,2.2-3.2l1.1,0.2c-0.1,0.4-0.3,0.7-0.4,1h4.3v1h-2.6c0.4,0.5,0.7,0.9,1,1.3
			l-1,0.4c-0.3-0.6-0.7-1.2-1.2-1.7h-1C1367.1,345.6,1366.7,346.2,1366.2,346.7z M1366.5,348.2v-1.1h11.7v3.6h-5.2v1.6h5.8
			c0,1.9-0.1,3.1-0.4,3.6c-0.3,0.5-0.8,0.8-1.7,0.8c-0.7,0-1.3,0-2,0l-0.3-1.1c0.7,0,1.4,0,2.1,0c0.5,0,0.8-0.2,0.9-0.5
			c0.1-0.3,0.1-0.9,0.1-1.8h-4.6v4.2h-1.1v-4.2h0c-1.1,1.5-3,2.8-5.9,3.9l-0.7-1.1c2.6-0.8,4.3-1.8,5.3-2.9h-4.4l0.7-3.6h5v-1.5
			H1366.5z M1367.9,350.8l-0.4,1.6h4.3v-1.6H1367.9z M1373,346.7l-1-0.6c0.9-1,1.5-2.1,2-3.2l1.1,0.2c-0.1,0.3-0.2,0.6-0.4,0.9h4.7
			v1h-2.9c0.4,0.5,0.7,1,1,1.4l-1,0.4c-0.3-0.6-0.7-1.2-1.2-1.8h-1.1C1373.9,345.6,1373.5,346.2,1373,346.7z M1377,349.7v-1.5h-4
			v1.5H1377z"/>
		<path class="st3" d="M1395.5,349.5v1.2h-14.4v-1.2H1395.5z"/>
	</g>
	<path id="路径_10994" class="st4" d="M862.5,218v138"/>
	<g class="st0">
		<path class="st1" d="M617.6,787c5.2-4.3,9.3-7.9,12.4-10.6c3-2.8,5.6-5.7,7.6-8.7s3.1-6,3.1-8.9c0-2.2-0.5-3.9-1.5-5.1
			c-1-1.2-2.5-1.8-4.6-1.8c-2,0-3.6,0.8-4.8,2.3c-1.1,1.5-1.7,3.7-1.7,6.4H615c0.1-4.5,1.1-8.3,2.9-11.4c1.8-3,4.3-5.3,7.3-6.7
			c3-1.4,6.4-2.2,10-2.2c6.3,0,11.1,1.6,14.4,4.9c3.2,3.3,4.8,7.5,4.8,12.7c0,5.7-1.9,11-5.8,15.9c-3.9,4.9-8.9,9.6-14.9,14.3h21.6
			v11.1h-40.2V789C616.9,787.6,617.8,786.9,617.6,787z"/>
		<path class="st1" d="M666.6,748.3c3.5-5.3,9.3-7.9,17.2-7.9c7.9,0,13.6,2.6,17.2,7.9c3.5,5.3,5.3,12.5,5.3,21.7
			c0,9.3-1.8,16.6-5.3,21.8c-3.5,5.3-9.3,7.9-17.2,7.9c-7.9,0-13.6-2.6-17.2-7.9c-3.5-5.3-5.3-12.6-5.3-21.8
			C661.3,760.8,663.1,753.6,666.6,748.3z M691,757.6c-1.2-2.9-3.6-4.4-7.3-4.4c-3.7,0-6.1,1.5-7.3,4.4c-1.2,2.9-1.8,7.1-1.8,12.4
			c0,3.6,0.2,6.6,0.6,9c0.4,2.4,1.3,4.3,2.6,5.8c1.3,1.5,3.2,2.2,5.8,2.2s4.5-0.7,5.8-2.2c1.3-1.5,2.2-3.4,2.6-5.8
			c0.4-2.4,0.6-5.4,0.6-9C692.8,764.6,692.2,760.5,691,757.6z"/>
		<path class="st1" d="M712,754.3v-12.7h22.2V800h-14.2v-45.7H712z"/>
		<path class="st1" d="M765.6,789.2c2.8,0,4.8-1.3,6-3.8c1.2-2.5,1.8-6.6,1.8-12.2c-1.2,1.7-2.8,2.9-4.8,3.8c-2,0.9-4.3,1.4-6.8,1.4
			c-3.4,0-6.5-0.7-9.1-2.1c-2.7-1.4-4.8-3.5-6.3-6.3s-2.3-6.2-2.3-10.2c0-3.9,0.8-7.4,2.4-10.3c1.6-2.9,3.9-5.2,7-6.8
			c3-1.6,6.6-2.4,10.7-2.4c7.9,0,13.4,2.5,16.6,7.4c3.1,4.9,4.7,12.1,4.7,21.7c0,6.9-0.6,12.7-1.9,17.2c-1.3,4.5-3.4,7.9-6.3,10.3
			c-3,2.3-7,3.5-12.1,3.5c-4.1,0-7.5-0.8-10.4-2.4c-2.9-1.6-5-3.7-6.6-6.3c-1.5-2.6-2.4-5.5-2.6-8.6h12.6
			C759,787.1,761.5,789.2,765.6,789.2z M770.2,765.6c1.3-1.4,2-3.2,2-5.6c0-2.6-0.7-4.5-2.1-5.9c-1.4-1.4-3.3-2.1-5.6-2.1
			c-2.3,0-4.2,0.7-5.6,2.1c-1.4,1.4-2,3.3-2,5.8c0,2.3,0.7,4.1,2,5.6s3.3,2.1,5.9,2.1C767.1,767.6,768.9,766.9,770.2,765.6z"/>
	</g>
	<g class="st0">
		<path class="st2" d="M950.8,748.4h-2.1c-0.3-1.2-1-1.8-2.2-1.8c-0.9,0-1.5,0.4-2.1,1.3c-0.5,0.8-0.7,1.8-0.7,3v0.2h0.1
			c0.4-0.5,0.8-0.9,1.4-1.2c0.5-0.3,1.1-0.4,1.7-0.4c1.3,0,2.3,0.4,3,1.2c0.8,0.8,1.1,1.9,1.1,3.1c0,1.3-0.5,2.4-1.3,3.2
			c-0.9,0.8-1.9,1.3-3.2,1.3c-1.6,0-2.8-0.6-3.6-1.7c-0.8-1.1-1.2-2.6-1.2-4.6c0-2.1,0.4-3.8,1.3-5.1c0.9-1.3,2.1-1.9,3.5-1.9
			C949.1,744.9,950.5,746.1,950.8,748.4z M944.7,751.9c-0.5,0.5-0.7,1.1-0.7,2c0,0.8,0.2,1.5,0.7,1.9c0.5,0.5,1.1,0.7,1.8,0.7
			c0.8,0,1.4-0.3,1.8-0.8c0.5-0.5,0.7-1.2,0.7-1.9s-0.2-1.4-0.7-1.9c-0.5-0.5-1.1-0.7-1.9-0.7C945.7,751.2,945.1,751.4,944.7,751.9z
			"/>
		<path class="st2" d="M961.6,760l-1.4-1.3c1.1-1.6,1.7-3.6,1.7-6v-8.8h10.9v14.1c0,1.2-0.6,1.8-1.8,1.8h-2.3l-0.5-1.8
			c0.8,0.1,1.5,0.1,2.2,0.1c0.4,0,0.5-0.3,0.5-0.7v-3h-7.2C963.4,756.6,962.7,758.5,961.6,760z M970.8,745.6h-7.1v2.5h7.1V745.6z
			 M963.7,752.5h7.1v-2.7h-7.1V752.5z"/>
	</g>
	<g class="st0">
		<path class="st3" d="M950.6,778.6v1.1h-4V790h-1.3v-10.3h-4v-1.1H950.6z"/>
		<path class="st3" d="M953.6,778.9c0.2,0.2,0.3,0.4,0.3,0.7c0,0.3-0.1,0.5-0.3,0.7c-0.2,0.2-0.4,0.3-0.7,0.3s-0.5-0.1-0.7-0.3
			c-0.2-0.2-0.3-0.4-0.3-0.7c0-0.3,0.1-0.5,0.3-0.7c0.2-0.2,0.4-0.3,0.7-0.3S953.4,778.7,953.6,778.9z M953.6,781.7v8.3h-1.3v-8.3
			H953.6z"/>
		<path class="st3" d="M960.2,778.6c1.8,0,3.2,0.5,4.1,1.6c0.8,1,1.3,2.4,1.3,4.1c0,1.8-0.5,3.2-1.4,4.1c-1,1-2.3,1.6-4.1,1.6h-4
			v-11.4H960.2z M957.5,788.9h2.4c1.5,0,2.6-0.4,3.4-1.2c0.7-0.8,1.1-1.9,1.1-3.4c0-1.5-0.3-2.7-1-3.4c-0.7-0.8-1.8-1.2-3.3-1.2
			h-2.6V788.9z"/>
		<path class="st3" d="M972.6,778.6c1.1,0,1.9,0.3,2.5,0.8c0.6,0.5,0.9,1.2,0.9,2.1c0,0.6-0.2,1.2-0.5,1.7c-0.4,0.4-0.8,0.7-1.4,0.9
			c0.8,0.1,1.3,0.4,1.7,0.9c0.4,0.5,0.6,1.1,0.6,1.9c0,1.1-0.4,2-1.2,2.5c-0.7,0.4-1.6,0.7-2.8,0.7h-5.1v-11.4H972.6z M968.8,783.6
			h3.5c0.8,0,1.4-0.2,1.8-0.5c0.4-0.3,0.6-0.8,0.6-1.5c0-0.6-0.2-1.1-0.6-1.4c-0.4-0.3-1-0.5-1.8-0.5h-3.5V783.6z M968.8,788.9h3.6
			c0.8,0,1.4-0.2,1.9-0.4c0.6-0.4,0.8-0.9,0.8-1.6s-0.3-1.3-0.7-1.6c-0.5-0.4-1.1-0.5-2-0.5h-3.6V788.9z"/>
		<path class="st3" d="M990,779.2c0.7,0.6,1,1.3,1,2.3c0,1.3-0.6,2.1-1.9,2.6c0.7,0.2,1.2,0.5,1.5,1c0.4,0.4,0.6,1,0.6,1.7
			c0,1-0.4,1.9-1.1,2.5c-0.7,0.7-1.7,1-2.9,1c-1.1,0-2-0.3-2.7-0.8c-0.8-0.7-1.3-1.6-1.4-2.9h1.3c0,0.9,0.3,1.6,0.9,2
			c0.5,0.4,1.1,0.6,1.8,0.6c0.8,0,1.5-0.2,2-0.7c0.4-0.4,0.7-1,0.7-1.7c0-0.7-0.2-1.2-0.7-1.6c-0.4-0.4-1.1-0.6-1.9-0.6h-0.9v-1h0.9
			c0.8,0,1.3-0.2,1.7-0.5c0.4-0.4,0.6-0.8,0.6-1.5c0-0.6-0.2-1.1-0.6-1.5c-0.4-0.4-1-0.6-1.7-0.6c-0.8,0-1.4,0.2-1.8,0.6
			c-0.4,0.4-0.7,1-0.8,1.8h-1.3c0.1-1.1,0.5-2,1.2-2.6c0.7-0.6,1.6-0.9,2.6-0.9S989.4,778.6,990,779.2z"/>
		<path class="st3" d="M994.9,788.4c0.2,0.2,0.3,0.4,0.3,0.7c0,0.3-0.1,0.5-0.3,0.7c-0.2,0.2-0.4,0.3-0.7,0.3
			c-0.3,0-0.5-0.1-0.7-0.3c-0.2-0.2-0.3-0.4-0.3-0.7c0-0.3,0.1-0.5,0.3-0.7c0.2-0.2,0.4-0.3,0.7-0.3
			C994.4,788.1,994.7,788.2,994.9,788.4z"/>
		<path class="st3" d="M1004.2,780.2c0.6,1,0.9,2.4,0.9,4.1c0,1.7-0.3,3.1-0.9,4.1c-0.7,1.2-1.7,1.8-3.1,1.8c-1.4,0-2.4-0.6-3.1-1.8
			c-0.6-1-0.9-2.4-0.9-4.1c0-1.7,0.3-3.1,0.9-4.1c0.7-1.2,1.7-1.8,3.1-1.8C1002.4,778.3,1003.5,778.9,1004.2,780.2z M998.9,781.1
			c-0.3,0.8-0.5,1.8-0.5,3.2c0,1.3,0.2,2.4,0.5,3.2c0.4,1.1,1.2,1.6,2.2,1.6s1.8-0.6,2.2-1.6c0.3-0.8,0.5-1.8,0.5-3.2
			c0-1.3-0.2-2.4-0.5-3.2c-0.4-1.1-1.2-1.6-2.2-1.6S999.3,780,998.9,781.1z"/>
		<path class="st3" d="M1019.6,777c2,2.2,4.4,4,7,5.3l-0.6,1.1c-2.7-1.4-4.9-3.2-6.8-5.4c-1.7,2.1-4,3.9-6.9,5.4l-0.6-1.1
			c2.8-1.4,5.2-3.2,7.1-5.3H1019.6z M1020.2,781.2v3.6h4.4v1.1h-4.4v3.9h5.5v1.1h-13.3v-1.1h2.4v-6.3h1.1v6.3h3.1v-8.6H1020.2z"/>
		<path class="st3" d="M1034.1,777.1v12.7h2.3v-12.7h1.2v12.7h4.8v1.1h-14.2v-1.1h4.8v-12.7H1034.1z M1031.7,787.4l-1.1,0.3
			c-0.6-2.6-1.3-5-2.2-7.4l1-0.3C1030.3,782.1,1031.1,784.6,1031.7,787.4z M1041.9,780.3c-0.6,2.8-1.4,5.2-2.4,7.3l-1-0.4
			c0.9-1.9,1.7-4.3,2.4-7.2L1041.9,780.3z"/>
		<path class="st3" d="M1049,777.1v4.2h0.9v1.1h-3.8v0.8c0,0.5,0,1,0,1.4h3.1v6.8h-1.1v-5.7h-2c-0.2,2.4-0.6,4.2-1.3,5.5l-0.9-0.8
			c0.7-1.5,1.1-4,1.1-7.3v-5.9h1.1v3.9h1.7v-4.2H1049z M1051.9,784.4c-0.1,3-0.6,5.3-1.6,7.1l-0.8-0.8c0.8-1.5,1.2-3.6,1.3-6.3v-6.4
			c2.5,0,4.8-0.4,6.8-1l0.6,1c-1.9,0.5-4,0.9-6.3,1v2.5h5.9v1c-0.4,2.2-1.1,4.1-2.1,5.6c0.8,1.1,1.7,1.9,2.9,2.4l-0.6,1
			c-1.2-0.6-2.2-1.5-3-2.5c-0.9,1-1.9,1.9-3.2,2.5l-0.6-1c1.2-0.7,2.2-1.5,3-2.5c-0.9-1.5-1.6-3.3-1.9-5.5h-0.5V784.4z M1055,787.1
			c0.8-1.3,1.4-2.8,1.6-4.5h-3.2C1053.8,784.4,1054.3,785.9,1055,787.1z"/>
		<path class="st3" d="M1074,779.4c0.8,0.7,1.3,1.6,1.5,2.8h-1.3c-0.2-0.9-0.6-1.5-1.2-2c-0.6-0.5-1.4-0.7-2.4-0.7
			c-1.2,0-2.2,0.4-3,1.3c-0.7,0.9-1.1,2-1.1,3.5c0,1.4,0.4,2.6,1.1,3.4c0.8,0.9,1.9,1.3,3.4,1.3c0.6,0,1.2-0.1,1.8-0.3
			c0.6-0.2,1-0.4,1.4-0.6v-2.9h-3.6v-1.1h4.9v4.7c-0.5,0.4-1.2,0.8-2,1c-0.8,0.3-1.7,0.4-2.7,0.4c-1.8,0-3.2-0.6-4.2-1.7
			c-0.9-1.1-1.4-2.5-1.4-4.2c0-1.7,0.4-3.1,1.4-4.2c1-1.2,2.3-1.8,4-1.8C1072,778.3,1073.1,778.7,1074,779.4z"/>
		<path class="st3" d="M1082.5,778.6l4.5,11.4h-1.4l-1.2-3.2h-5.2l-1.2,3.2h-1.4l4.5-11.4H1082.5z M1084,785.7l-2.2-5.7h-0.1
			l-2.2,5.7H1084z"/>
		<path class="st3" d="M1095.5,777.4l1.1,0.2l-0.9,3.2h2.8c0.3-1.2,0.6-2.5,0.8-3.9l1.2,0.1c-0.2,1.3-0.5,2.6-0.8,3.8h7.5v1.1h-7.8
			c-0.2,0.6-0.4,1.2-0.6,1.8h6.5v1c-0.4,1.4-1.3,2.6-2.6,3.7c1.3,0.8,2.9,1.5,4.7,2.1l-0.6,1.1c-2-0.8-3.7-1.6-5.1-2.4
			c-1.3,0.9-2.9,1.8-4.9,2.5l-0.6-1.1c1.8-0.7,3.3-1.4,4.5-2.2c-1.2-1-2.1-2-2.7-3.1c-1.2,2.5-2.7,4.5-4.5,6l-0.6-1.1
			c2.3-2,4.1-4.8,5.2-8.4h-4L1095.5,777.4z M1101.7,787.7c1.2-0.9,2-1.9,2.4-3h-5.2C1099.5,785.8,1100.4,786.8,1101.7,787.7z
			 M1106,779.6l-0.8,0.8c-0.7-0.8-1.6-1.7-2.8-2.7l0.8-0.8C1104.3,777.8,1105.2,778.7,1106,779.6z"/>
		<path class="st3" d="M1114.1,777.1v4.2h0.9v1.1h-3.8v0.8c0,0.5,0,1,0,1.4h3.1v6.8h-1.1v-5.7h-2c-0.2,2.4-0.6,4.2-1.3,5.5l-0.9-0.8
			c0.7-1.5,1.1-4,1.1-7.3v-5.9h1.1v3.9h1.7v-4.2H1114.1z M1117,784.4c-0.1,3-0.6,5.3-1.6,7.1l-0.8-0.8c0.8-1.5,1.2-3.6,1.3-6.3v-6.4
			c2.5,0,4.8-0.4,6.8-1l0.6,1c-1.9,0.5-4,0.9-6.3,1v2.5h5.9v1c-0.4,2.2-1.1,4.1-2.1,5.6c0.8,1.1,1.7,1.9,2.9,2.4l-0.6,1
			c-1.2-0.6-2.2-1.5-3-2.5c-0.9,1-1.9,1.9-3.2,2.5l-0.6-1c1.2-0.7,2.2-1.5,3-2.5c-0.9-1.5-1.6-3.3-1.9-5.5h-0.5V784.4z
			 M1120.2,787.1c0.8-1.3,1.4-2.8,1.6-4.5h-3.2C1118.9,784.4,1119.5,785.9,1120.2,787.1z"/>
	</g>
	<g class="st0">
		<path class="st2" d="M949.9,849.6c0.8,1.1,1.2,2.6,1.2,4.6c0,2.1-0.5,3.8-1.3,5.1c-0.9,1.3-2.1,1.9-3.5,1.9c-2.5,0-4-1.2-4.3-3.5
			h2.1c0.3,1.2,1,1.8,2.2,1.8c0.8,0,1.5-0.4,2.1-1.3c0.5-0.8,0.7-1.8,0.7-3v-0.2H949c-0.4,0.5-0.8,0.9-1.4,1.2
			c-0.5,0.2-1.1,0.4-1.7,0.4c-1.3,0-2.3-0.4-3-1.2c-0.8-0.8-1.1-1.8-1.1-3.1c0-1.3,0.4-2.4,1.3-3.2c0.9-0.8,1.9-1.3,3.2-1.3
			C947.8,847.9,949,848.5,949.9,849.6z M944.5,850.4c-0.5,0.5-0.7,1.2-0.7,1.9c0,0.8,0.2,1.4,0.7,1.9c0.4,0.5,1,0.7,1.8,0.7
			c0.8,0,1.4-0.3,1.8-0.7c0.4-0.5,0.7-1.1,0.7-2s-0.2-1.5-0.7-1.9c-0.5-0.5-1.1-0.7-1.8-0.7C945.6,849.6,945,849.9,944.5,850.4z"/>
		<path class="st2" d="M961.6,863l-1.4-1.3c1.1-1.6,1.7-3.6,1.7-6v-8.8h10.9v14.1c0,1.2-0.6,1.8-1.8,1.8h-2.3l-0.5-1.8
			c0.8,0.1,1.5,0.1,2.2,0.1c0.4,0,0.5-0.3,0.5-0.7v-3h-7.2C963.4,859.6,962.7,861.5,961.6,863z M970.8,848.6h-7.1v2.5h7.1V848.6z
			 M963.7,855.5h7.1v-2.7h-7.1V855.5z"/>
	</g>
	<g class="st0">
		<path class="st3" d="M956.2,886.8v1.2h-14.4v-1.2H956.2z"/>
		<path class="st3" d="M958,888.3l-0.3-1.2c1.7-2,2.9-4.4,3.6-7l1,0.5c-0.4,1.3-0.9,2.6-1.6,3.8v10.5h-1.1v-8.6
			C959.1,887,958.5,887.7,958,888.3z M966.2,882.9v-2.8h1.1v2.8h4.4v1.1h-3.3c0.7,2.6,2,5,3.9,7.1l-0.8,0.9c-2-2.4-3.3-5-4-8h-0.2
			v6.4h2.5v1.1h-2.5v3.3h-1.1v-3.3h-2.4v-1.1h2.4v-6.4H966c-0.8,3.3-2.2,6.1-4.2,8.2l-0.6-1c1.8-1.9,3.1-4.3,3.8-7.2H962v-1.1H966.2
			z"/>
		<path class="st3" d="M979.6,880.6c-0.6,1.3-1.3,2.6-2.1,3.8v10.5h-1.2v-9.1c-0.7,0.8-1.5,1.5-2.4,2.2l-0.4-1.2
			c2.3-2,3.9-4.2,4.9-6.7L979.6,880.6z M982.9,894.6c-1.1,0-1.7-0.6-1.7-1.7V888c-0.7,0.4-1.4,0.7-2.1,1.1l-0.5-1.1
			c0.9-0.4,1.8-0.8,2.6-1.3v-6.4h1.2v5.7c1.7-1.1,3.2-2.4,4.4-3.8l0.8,0.9c-1.5,1.6-3.2,3-5.2,4.3v5.4c0,0.5,0.3,0.8,0.8,0.8h2.6
			c0.4,0,0.7-0.1,0.9-0.4c0.2-0.3,0.3-1.2,0.4-2.8l1.1,0.4c-0.1,1.8-0.3,3-0.6,3.3c-0.3,0.4-0.8,0.6-1.6,0.6H982.9z"/>
		<path class="st3" d="M993.8,887.8c-0.1,0.3-0.2,0.6-0.3,0.9h3.3v0.9c-0.4,1.1-0.9,2-1.8,2.7c0.8,0.4,1.5,0.7,2.2,1.1l-0.6,0.9
			c-0.7-0.4-1.5-0.8-2.5-1.3c-1.1,0.7-2.4,1.3-4,1.8l-0.5-1c1.3-0.4,2.4-0.8,3.4-1.3c-0.7-0.3-1.4-0.6-2.2-0.9
			c0.4-0.7,0.8-1.4,1.1-2H990v-1h2.3c0.1-0.4,0.3-0.7,0.4-1L993.8,887.8z M993.2,883.3v-3.1h1.1v3.1h2.9v1h-2.9v0.2
			c0.9,0.4,1.8,0.9,2.7,1.5l-0.6,0.9c-0.8-0.6-1.5-1.2-2.1-1.5v2.1h-1.1v-3c-0.5,1.3-1.5,2.4-2.9,3.3l-0.6-0.9
			c1.2-0.7,2.1-1.5,2.6-2.4h-2.3v-1H993.2z M992.3,882.5l-0.8,0.4c-0.3-0.8-0.7-1.5-1.1-2.1l0.9-0.3
			C991.7,881.1,992,881.8,992.3,882.5z M995.8,889.7h-2.8c-0.3,0.5-0.5,1.1-0.9,1.5c0.6,0.2,1.2,0.4,1.8,0.7
			C994.8,891.2,995.4,890.5,995.8,889.7z M997,880.8c-0.3,0.7-0.7,1.4-1.2,2.1l-0.8-0.4c0.5-0.7,0.9-1.4,1.2-2L997,880.8z
			 M998.8,886.3c-0.3,0.7-0.6,1.4-0.9,2l-0.7-0.9c0.9-1.8,1.6-4.2,1.9-7.3l1.1,0.2c-0.1,0.8-0.2,1.6-0.4,2.3h4.2v1.1h-1
			c-0.1,2.7-0.6,5-1.5,6.9c0.8,1.4,1.8,2.5,3,3.3l-0.6,0.9c-1.1-0.8-2.1-1.9-2.9-3.2c-0.8,1.3-1.8,2.4-3,3.2l-0.6-1
			c1.2-0.9,2.2-2,3-3.3C999.7,889.3,999.2,887.9,998.8,886.3z M999.3,884.6c0.4,1.9,0.9,3.5,1.6,4.8c0.6-1.6,1-3.5,1-5.7h-2.4
			L999.3,884.6z"/>
		<path class="st3" d="M1006.3,894.7l-0.2-1.1c0.4,0,0.8,0.1,1.2,0.1c0.4,0,0.6-0.2,0.6-0.7v-3.9c-0.6,0.2-1.3,0.5-1.9,0.7l-0.3-1.1
			c0.7-0.2,1.5-0.4,2.2-0.7v-3.6h-1.9v-1.1h1.9v-3h1.1v3h1.5v1.1h-1.5v3.2c0.5-0.2,1-0.5,1.5-0.7v1.1c-0.5,0.3-1,0.5-1.5,0.7v4.7
			c0,0.9-0.4,1.4-1.3,1.4H1006.3z M1010.5,894.9l-0.9-0.8c1.1-2.1,1.7-4.9,1.7-8.2v-5h8.4v3.9h-3v1.9h3.4v1h-3.4v2h2.7v5.2h-1.1
			v-0.8h-4.3v0.8h-1.1v-5.2h2.7v-2h-3.3C1012.2,890.4,1011.6,892.8,1010.5,894.9z M1012.5,884.7v1.1c0,0.3,0,0.5,0,0.8h3.2v-1.9
			H1012.5z M1012.5,881.9v1.8h6.2v-1.8H1012.5z M1018.4,893.1v-2.4h-4.3v2.4H1018.4z"/>
		<path class="st3" d="M1031.9,894.8l-0.3-1.2l2.1,0c0.4,0,0.6-0.2,0.6-0.7v-11h-10.5v12.9h-1.2v-14h12.8v12.4c0,1-0.5,1.6-1.4,1.6
			H1031.9z M1033.1,883.8v1.1h-8.2v-1.1H1033.1z M1032.2,886.6v5.2h-6.4v-5.2H1032.2z M1031.1,887.6h-4.2v3.1h4.2V887.6z"/>
		<path class="st3" d="M1045.7,880.2v1.9h4.8v1.1h-4.8v2.2h6.4v1.1h-6.4v4.8h-1.2v-4.8h-6.7v-1.1h2.4v-4h1.2v4h3v-5.2H1045.7z
			 M1042.6,888c-1,1.5-2.1,2.8-3.5,3.9l-0.7-0.9c1.4-1.1,2.5-2.3,3.4-3.7L1042.6,888z M1050.8,888.3c-2,4.4-5.9,6.7-11.6,6.7
			l-0.4-1.1c5.5,0,9.2-2,10.9-6.1L1050.8,888.3z"/>
		<path class="st3" d="M1067.5,880.9v1.1h-6v6h6.6v1.1h-6.6v5.7h-1.2v-5.7h-6.4v-1.1h6.4v-6h-5.8v-1.1H1067.5z M1058.2,886.7
			l-1.1,0.5c-0.5-1.4-1.1-2.6-1.7-3.7l1.1-0.5C1057.1,884.2,1057.7,885.4,1058.2,886.7z M1066.6,883.5c-0.5,1.3-1.1,2.5-1.9,3.7
			l-1-0.5c0.8-1.2,1.4-2.5,1.9-3.7L1066.6,883.5z"/>
		<path class="st3" d="M1070.3,885.5c1.4-0.5,3.2-2.3,5.2-5.3l1.2,0.4c-1.4,2-2.9,3.7-4.3,4.9c3.1-0.1,6-0.3,8.7-0.6
			c-0.6-0.9-1.2-1.7-1.9-2.4l1-0.5c1.4,1.6,2.7,3.4,3.8,5.3l-1.1,0.5c-0.4-0.7-0.8-1.3-1.2-1.9c-3.4,0.3-7.1,0.5-11.3,0.7
			L1070.3,885.5z M1082.3,894.9h-1.2v-0.8h-8.4v0.8h-1.2v-6.7h10.7V894.9z M1081.2,893v-3.7h-8.4v3.7H1081.2z"/>
		<path class="st3" d="M1100,881.9v1.1h-4v10.3h-1.3V883h-4v-1.1H1100z"/>
		<path class="st3" d="M1103,882.2c0.2,0.2,0.3,0.4,0.3,0.7c0,0.3-0.1,0.5-0.3,0.7c-0.2,0.2-0.4,0.3-0.7,0.3s-0.5-0.1-0.7-0.3
			c-0.2-0.2-0.3-0.4-0.3-0.7c0-0.3,0.1-0.5,0.3-0.7c0.2-0.2,0.4-0.3,0.7-0.3S1102.8,882,1103,882.2z M1102.9,885v8.3h-1.3V885
			H1102.9z"/>
		<path class="st3" d="M1109.6,881.9c1.8,0,3.2,0.5,4.1,1.6c0.8,1,1.3,2.4,1.3,4.1c0,1.8-0.5,3.2-1.4,4.1c-1,1-2.3,1.6-4.1,1.6h-4
			v-11.4H1109.6z M1106.8,892.1h2.4c1.5,0,2.6-0.4,3.4-1.2c0.7-0.8,1.1-1.9,1.1-3.4c0-1.5-0.3-2.7-1-3.4c-0.7-0.8-1.8-1.2-3.3-1.2
			h-2.6V892.1z"/>
		<path class="st3" d="M1121.9,881.9c1.1,0,1.9,0.3,2.5,0.8c0.6,0.5,0.9,1.2,0.9,2.1c0,0.6-0.2,1.2-0.5,1.7
			c-0.4,0.4-0.8,0.7-1.4,0.9c0.8,0.1,1.3,0.4,1.7,0.9c0.4,0.5,0.6,1.1,0.6,1.9c0,1.1-0.4,2-1.2,2.5c-0.7,0.4-1.6,0.7-2.8,0.7h-5.1
			v-11.4H1121.9z M1118.1,886.8h3.5c0.8,0,1.4-0.2,1.8-0.5c0.4-0.3,0.6-0.8,0.6-1.5c0-0.6-0.2-1.1-0.6-1.4c-0.4-0.3-1-0.5-1.8-0.5
			h-3.5V886.8z M1118.1,892.2h3.7c0.8,0,1.4-0.2,1.9-0.4c0.6-0.4,0.8-0.9,0.8-1.6s-0.3-1.3-0.7-1.6c-0.5-0.4-1.1-0.5-2-0.5h-3.7
			V892.2z"/>
		<path class="st3" d="M1137,881.9c1.8,0,3.2,0.5,4.1,1.6c0.8,1,1.3,2.4,1.3,4.1c0,1.8-0.5,3.2-1.4,4.1c-1,1-2.3,1.6-4.1,1.6h-4
			v-11.4H1137z M1134.2,892.1h2.4c1.5,0,2.6-0.4,3.4-1.2c0.7-0.8,1.1-1.9,1.1-3.4c0-1.5-0.3-2.7-1-3.4c-0.7-0.8-1.8-1.2-3.3-1.2
			h-2.6V892.1z"/>
		<path class="st3" d="M1150.3,885.7c0.5,0.5,0.7,1.3,0.7,2.3v5.3h-1.2v-1.4c-0.3,0.4-0.8,0.8-1.3,1.1c-0.6,0.3-1.3,0.5-2.1,0.5
			c-0.8,0-1.5-0.2-2-0.6c-0.5-0.4-0.8-1-0.8-1.7c0-0.9,0.4-1.6,1.1-2.1c0.7-0.4,1.6-0.7,2.9-0.7l2,0v-0.4c0-1.4-0.7-2.1-2.2-2.1
			c-0.6,0-1.1,0.1-1.5,0.4c-0.4,0.3-0.7,0.7-0.8,1.2l-1.3-0.1c0.2-0.9,0.6-1.5,1.3-1.9c0.6-0.4,1.4-0.6,2.4-0.6
			C1148.9,884.8,1149.7,885.1,1150.3,885.7z M1147.8,889.3c-1.9,0-2.8,0.6-2.8,1.8c0,0.4,0.1,0.7,0.5,0.9c0.3,0.2,0.7,0.4,1.2,0.4
			c0.8,0,1.5-0.3,2.1-0.8c0.6-0.5,0.9-1.1,0.9-1.7v-0.7L1147.8,889.3z"/>
		<path class="st3" d="M1155.2,885h2v1.1h-2v5.3c0,0.3,0,0.5,0.2,0.7c0.1,0.1,0.3,0.2,0.6,0.2h1.1v1.1h-1.2c-0.7,0-1.2-0.2-1.5-0.5
			c-0.3-0.3-0.4-0.8-0.4-1.4v-5.3h-1.7V885h1.7v-2.1l1.3-0.5V885z"/>
		<path class="st3" d="M1164.9,885.7c0.5,0.5,0.7,1.3,0.7,2.3v5.3h-1.2v-1.4c-0.3,0.4-0.8,0.8-1.3,1.1c-0.6,0.3-1.3,0.5-2.1,0.5
			c-0.8,0-1.5-0.2-2-0.6c-0.5-0.4-0.8-1-0.8-1.7c0-0.9,0.4-1.6,1.1-2.1c0.7-0.4,1.6-0.7,2.9-0.7l2,0v-0.4c0-1.4-0.7-2.1-2.2-2.1
			c-0.6,0-1.1,0.1-1.5,0.4c-0.4,0.3-0.7,0.7-0.8,1.2l-1.3-0.1c0.2-0.9,0.6-1.5,1.3-1.9c0.6-0.4,1.4-0.6,2.4-0.6
			C1163.5,884.8,1164.3,885.1,1164.9,885.7z M1162.5,889.3c-1.9,0-2.8,0.6-2.8,1.8c0,0.4,0.1,0.7,0.5,0.9c0.3,0.2,0.7,0.4,1.2,0.4
			c0.8,0,1.5-0.3,2.1-0.8c0.6-0.5,0.9-1.1,0.9-1.7v-0.7L1162.5,889.3z"/>
		<path class="st3" d="M1174.8,881.9l4.3,9.7h0l4.2-9.7h1.6v11.4h-1.3v-9.1h0l-4,9.1h-1.2l-4-9.1h0v9.1h-1.3v-11.4H1174.8z"/>
		<path class="st3" d="M1188.8,882.2c0.2,0.2,0.3,0.4,0.3,0.7c0,0.3-0.1,0.5-0.3,0.7c-0.2,0.2-0.4,0.3-0.7,0.3
			c-0.3,0-0.5-0.1-0.7-0.3c-0.2-0.2-0.3-0.4-0.3-0.7c0-0.3,0.1-0.5,0.3-0.7c0.2-0.2,0.4-0.3,0.7-0.3
			C1188.4,881.9,1188.6,882,1188.8,882.2z M1188.8,885v8.3h-1.3V885H1188.8z"/>
		<path class="st3" d="M1197.4,886.4V885h1.3v7.7c0,2.6-1.3,4-3.8,4c-1.1,0-2-0.2-2.6-0.7c-0.6-0.4-1-1.1-1.1-2h1.3
			c0.1,0.6,0.3,1,0.7,1.2c0.4,0.3,0.9,0.4,1.7,0.4c1.7,0,2.5-0.9,2.5-2.8v-1.5c-0.6,1.1-1.5,1.7-2.8,1.7c-1.2,0-2.1-0.4-2.7-1.2
			c-0.7-0.8-1-1.7-1-2.9c0-1.2,0.3-2.2,1-3c0.7-0.8,1.6-1.2,2.7-1.2C1195.8,884.8,1196.8,885.3,1197.4,886.4z M1192.8,886.7
			c-0.4,0.5-0.7,1.3-0.7,2.2c0,0.9,0.2,1.6,0.6,2.1c0.4,0.6,1.1,0.9,2,0.9c0.8,0,1.5-0.3,2-0.9c0.4-0.6,0.7-1.3,0.7-2.2
			c0-0.9-0.2-1.7-0.7-2.2c-0.5-0.6-1.1-0.9-1.9-0.9C1193.9,885.8,1193.3,886.1,1192.8,886.7z"/>
		<path class="st3" d="M1205.4,885v1.3c-0.4-0.1-0.8-0.2-1.2-0.2c-0.6,0-1.2,0.3-1.6,0.8c-0.4,0.5-0.7,1.2-0.7,2v4.4h-1.3V885h1.3
			v1.4c0.2-0.5,0.5-0.9,0.9-1.1c0.4-0.4,0.9-0.5,1.5-0.5C1204.7,884.8,1205.1,884.8,1205.4,885z"/>
		<path class="st3" d="M1212.7,885.7c0.5,0.5,0.7,1.3,0.7,2.3v5.3h-1.2v-1.4c-0.3,0.4-0.8,0.8-1.3,1.1c-0.6,0.3-1.3,0.5-2.1,0.5
			c-0.8,0-1.5-0.2-2-0.6c-0.5-0.4-0.8-1-0.8-1.7c0-0.9,0.4-1.6,1.1-2.1c0.7-0.4,1.6-0.7,2.9-0.7l2,0v-0.4c0-1.4-0.7-2.1-2.2-2.1
			c-0.6,0-1.1,0.1-1.5,0.4c-0.4,0.3-0.7,0.7-0.8,1.2l-1.3-0.1c0.2-0.9,0.6-1.5,1.3-1.9c0.6-0.4,1.4-0.6,2.4-0.6
			C1211.3,884.8,1212.1,885.1,1212.7,885.7z M1210.2,889.3c-1.9,0-2.8,0.6-2.8,1.8c0,0.4,0.1,0.7,0.5,0.9c0.3,0.2,0.7,0.4,1.2,0.4
			c0.8,0,1.5-0.3,2.1-0.8c0.6-0.5,0.9-1.1,0.9-1.7v-0.7L1210.2,889.3z"/>
		<path class="st3" d="M1217.6,885h2v1.1h-2v5.3c0,0.3,0,0.5,0.2,0.7c0.1,0.1,0.3,0.2,0.6,0.2h1.1v1.1h-1.2c-0.7,0-1.2-0.2-1.5-0.5
			c-0.3-0.3-0.4-0.8-0.4-1.4v-5.3h-1.7V885h1.7v-2.1l1.3-0.5V885z"/>
		<path class="st3" d="M1222.8,882.2c0.2,0.2,0.3,0.4,0.3,0.7c0,0.3-0.1,0.5-0.3,0.7c-0.2,0.2-0.4,0.3-0.7,0.3s-0.5-0.1-0.7-0.3
			c-0.2-0.2-0.3-0.4-0.3-0.7c0-0.3,0.1-0.5,0.3-0.7c0.2-0.2,0.4-0.3,0.7-0.3S1222.6,882,1222.8,882.2z M1222.8,885v8.3h-1.3V885
			H1222.8z"/>
		<path class="st3" d="M1231.8,886.1c0.7,0.8,1.1,1.8,1.1,3.1c0,1.2-0.4,2.3-1,3.1c-0.8,0.9-1.7,1.3-3,1.3c-1.2,0-2.2-0.4-3-1.3
			c-0.7-0.8-1.1-1.8-1.1-3.1c0-1.2,0.4-2.3,1.1-3.1c0.7-0.9,1.7-1.3,3-1.3C1230.1,884.8,1231.1,885.2,1231.8,886.1z M1226.8,886.9
			c-0.4,0.6-0.7,1.4-0.7,2.3c0,0.9,0.2,1.7,0.7,2.3c0.5,0.7,1.2,1,2,1c0.9,0,1.6-0.3,2.1-1c0.4-0.6,0.7-1.4,0.7-2.3
			c0-0.9-0.2-1.7-0.7-2.3c-0.5-0.7-1.2-1-2.1-1C1228,885.9,1227.3,886.2,1226.8,886.9z"/>
		<path class="st3" d="M1241.5,888.2v5.1h-1.3v-5c0-1.6-0.7-2.4-2.2-2.4c-0.6,0-1.1,0.2-1.5,0.6c-0.4,0.4-0.7,1-0.7,1.8v5h-1.3V885
			h1.3v1.2c0.3-0.5,0.7-0.8,1.1-1.1c0.4-0.3,0.9-0.4,1.5-0.4C1240.5,884.8,1241.5,885.9,1241.5,888.2z"/>
		<path class="st3" d="M1252.6,881.9v11.4h-1.3v-9.8c-0.7,0.7-1.6,1.2-2.7,1.6v-1.3c0.5-0.1,1.1-0.4,1.6-0.7c0.5-0.4,1-0.7,1.4-1.2
			H1252.6z"/>
		<path class="st3" d="M1257.1,891.7c0.2,0.2,0.3,0.4,0.3,0.7c0,0.3-0.1,0.5-0.3,0.7c-0.2,0.2-0.4,0.3-0.7,0.3
			c-0.3,0-0.5-0.1-0.7-0.3c-0.2-0.2-0.3-0.4-0.3-0.7c0-0.3,0.1-0.5,0.3-0.7c0.2-0.2,0.4-0.3,0.7-0.3
			C1256.6,891.4,1256.9,891.5,1257.1,891.7z"/>
		<path class="st3" d="M1266.4,883.4c0.6,1,0.9,2.4,0.9,4.1c0,1.7-0.3,3.1-0.9,4.1c-0.7,1.2-1.7,1.8-3.1,1.8c-1.4,0-2.4-0.6-3.1-1.8
			c-0.6-1-0.9-2.4-0.9-4.1c0-1.7,0.3-3.1,0.9-4.1c0.7-1.2,1.7-1.8,3.1-1.8C1264.6,881.6,1265.7,882.2,1266.4,883.4z M1261.1,884.4
			c-0.3,0.8-0.5,1.8-0.5,3.2c0,1.3,0.2,2.4,0.5,3.2c0.4,1.1,1.2,1.6,2.2,1.6s1.8-0.6,2.2-1.6c0.3-0.8,0.5-1.8,0.5-3.2
			c0-1.3-0.2-2.4-0.5-3.2c-0.4-1.1-1.2-1.6-2.2-1.6S1261.5,883.3,1261.1,884.4z"/>
		<path class="st3" d="M1282.9,882.7c0.8,0.7,1.3,1.6,1.5,2.8h-1.3c-0.2-0.9-0.6-1.5-1.2-2c-0.6-0.5-1.4-0.7-2.4-0.7
			c-1.2,0-2.2,0.4-3,1.3c-0.7,0.9-1.1,2-1.1,3.5c0,1.4,0.4,2.6,1.1,3.4c0.8,0.9,1.9,1.3,3.4,1.3c0.6,0,1.2-0.1,1.8-0.3
			c0.6-0.2,1-0.4,1.4-0.6v-2.9h-3.6v-1.1h4.9v4.7c-0.5,0.4-1.2,0.8-2,1c-0.8,0.3-1.7,0.4-2.7,0.4c-1.8,0-3.2-0.6-4.2-1.7
			c-0.9-1.1-1.4-2.5-1.4-4.2c0-1.7,0.4-3.1,1.4-4.2c1-1.2,2.3-1.8,4-1.8C1280.9,881.6,1282,882,1282.9,882.7z"/>
		<path class="st3" d="M1291.4,881.9l4.5,11.4h-1.4l-1.2-3.2h-5.2l-1.2,3.2h-1.4l4.5-11.4H1291.4z M1292.8,889l-2.2-5.7h-0.1
			l-2.2,5.7H1292.8z"/>
		<path class="st3" d="M1304.3,880.7l1.1,0.2l-0.9,3.2h2.8c0.3-1.2,0.6-2.5,0.8-3.9l1.2,0.1c-0.2,1.3-0.5,2.6-0.8,3.8h7.5v1.1h-7.8
			c-0.2,0.6-0.4,1.2-0.6,1.8h6.5v1c-0.4,1.4-1.3,2.6-2.6,3.7c1.3,0.8,2.9,1.5,4.7,2.1l-0.6,1.1c-2-0.8-3.7-1.6-5.1-2.4
			c-1.3,0.9-2.9,1.8-4.9,2.5l-0.6-1.1c1.8-0.7,3.3-1.4,4.5-2.2c-1.2-1-2.1-2-2.7-3.1c-1.2,2.5-2.7,4.5-4.5,6l-0.6-1.1
			c2.3-2,4-4.8,5.2-8.4h-4L1304.3,880.7z M1310.6,891c1.2-0.9,2-1.9,2.4-3h-5.2C1308.4,889.1,1309.3,890.1,1310.6,891z
			 M1314.9,882.9l-0.8,0.8c-0.7-0.8-1.6-1.7-2.8-2.7l0.8-0.8C1313.1,881.1,1314.1,882,1314.9,882.9z"/>
		<path class="st3" d="M1323,880.4v4.2h0.9v1.1h-3.8v0.8c0,0.5,0,1,0,1.4h3.1v6.8h-1.1v-5.7h-2c-0.2,2.4-0.6,4.2-1.3,5.5l-0.9-0.8
			c0.7-1.5,1.1-4,1.1-7.3v-5.9h1.1v3.9h1.7v-4.2H1323z M1325.9,887.7c-0.1,3-0.6,5.3-1.6,7.1l-0.8-0.8c0.8-1.5,1.2-3.6,1.3-6.3v-6.4
			c2.5,0,4.8-0.4,6.8-1l0.6,1c-1.9,0.5-4,0.9-6.3,1v2.5h5.9v1c-0.4,2.2-1.1,4.1-2.1,5.6c0.8,1.1,1.7,1.9,2.9,2.4l-0.6,1
			c-1.2-0.6-2.2-1.5-3-2.5c-0.9,1-1.9,1.9-3.2,2.5l-0.6-1c1.2-0.7,2.2-1.5,3-2.5c-0.9-1.5-1.6-3.3-1.9-5.5h-0.5V887.7z M1329,890.4
			c0.8-1.3,1.4-2.8,1.6-4.5h-3.2C1327.8,887.7,1328.3,889.2,1329,890.4z"/>
	</g>
	<path id="路径_10996" class="st4" d="M862.5,739v153.7"/>
	<g class="st0">
		<path class="st1" d="M617.6,469c5.2-4.3,9.3-7.9,12.4-10.6c3-2.8,5.6-5.7,7.6-8.7s3.1-6,3.1-8.9c0-2.2-0.5-3.9-1.5-5.1
			c-1-1.2-2.5-1.8-4.6-1.8c-2,0-3.6,0.8-4.8,2.3c-1.1,1.5-1.7,3.7-1.7,6.4H615c0.1-4.5,1.1-8.3,2.9-11.4c1.8-3,4.3-5.3,7.3-6.7
			c3-1.4,6.4-2.2,10-2.2c6.3,0,11.1,1.6,14.4,4.9c3.2,3.3,4.8,7.5,4.8,12.7c0,5.7-1.9,11-5.8,15.9c-3.9,4.9-8.9,9.6-14.9,14.3h21.6
			v11.1h-40.2V471C616.9,469.6,617.8,468.9,617.6,469z"/>
		<path class="st1" d="M666.6,430.3c3.5-5.3,9.3-7.9,17.2-7.9c7.9,0,13.6,2.6,17.2,7.9c3.5,5.3,5.3,12.5,5.3,21.7
			c0,9.3-1.8,16.6-5.3,21.8c-3.5,5.3-9.3,7.9-17.2,7.9c-7.9,0-13.6-2.6-17.2-7.9c-3.5-5.3-5.3-12.6-5.3-21.8
			C661.3,442.8,663.1,435.6,666.6,430.3z M691,439.6c-1.2-2.9-3.6-4.4-7.3-4.4c-3.7,0-6.1,1.5-7.3,4.4c-1.2,2.9-1.8,7.1-1.8,12.4
			c0,3.6,0.2,6.6,0.6,9c0.4,2.4,1.3,4.3,2.6,5.8c1.3,1.5,3.2,2.2,5.8,2.2s4.5-0.7,5.8-2.2c1.3-1.5,2.2-3.4,2.6-5.8
			c0.4-2.4,0.6-5.4,0.6-9C692.8,446.6,692.2,442.5,691,439.6z"/>
		<path class="st1" d="M715.4,469c5.2-4.3,9.3-7.9,12.4-10.6c3-2.8,5.6-5.7,7.6-8.7s3.1-6,3.1-8.9c0-2.2-0.5-3.9-1.5-5.1
			c-1-1.2-2.5-1.8-4.6-1.8c-2,0-3.6,0.8-4.8,2.3c-1.1,1.5-1.7,3.7-1.7,6.4h-13.2c0.1-4.5,1.1-8.3,2.9-11.4c1.8-3,4.3-5.3,7.3-6.7
			c3-1.4,6.4-2.2,10-2.2c6.3,0,11.1,1.6,14.4,4.9c3.2,3.3,4.8,7.5,4.8,12.7c0,5.7-1.9,11-5.8,15.9c-3.9,4.9-8.9,9.6-14.9,14.3h21.6
			v11.1H713V471C714.8,469.6,715.6,468.9,715.4,469z"/>
		<path class="st1" d="M764.4,430.3c3.5-5.3,9.3-7.9,17.2-7.9c7.9,0,13.6,2.6,17.2,7.9c3.5,5.3,5.3,12.5,5.3,21.7
			c0,9.3-1.8,16.6-5.3,21.8c-3.5,5.3-9.3,7.9-17.2,7.9c-7.9,0-13.6-2.6-17.2-7.9c-3.5-5.3-5.3-12.6-5.3-21.8
			C759.1,442.8,760.9,435.6,764.4,430.3z M788.9,439.6c-1.2-2.9-3.6-4.4-7.3-4.4c-3.7,0-6.1,1.5-7.3,4.4c-1.2,2.9-1.8,7.1-1.8,12.4
			c0,3.6,0.2,6.6,0.6,9c0.4,2.4,1.3,4.3,2.6,5.8c1.3,1.5,3.2,2.2,5.8,2.2s4.5-0.7,5.8-2.2c1.3-1.5,2.2-3.4,2.6-5.8
			c0.4-2.4,0.6-5.4,0.6-9C790.6,446.6,790.1,442.5,788.9,439.6z"/>
	</g>
	<g class="st0">
		<path class="st2" d="M950.5,426.1v1.9h-6.1l-0.4,3.5h0.1c0.4-0.4,0.8-0.7,1.4-0.9c0.5-0.2,1-0.3,1.6-0.3c1.2,0,2.2,0.4,3,1.2
			c0.8,0.8,1.2,1.9,1.2,3.3c0,1.3-0.5,2.4-1.5,3.3c-0.9,0.8-2,1.1-3.3,1.1c-1.2,0-2.2-0.3-3-1c-0.9-0.7-1.4-1.7-1.5-2.8h2.1
			c0.1,0.7,0.4,1.2,0.8,1.6c0.4,0.3,1,0.5,1.7,0.5c0.8,0,1.4-0.2,1.9-0.7c0.5-0.5,0.8-1.1,0.8-1.9c0-0.9-0.2-1.5-0.7-2
			c-0.4-0.5-1.1-0.7-1.9-0.7c-0.6,0-1,0.1-1.4,0.3c-0.4,0.2-0.8,0.5-1,1h-2l0.7-7.2H950.5z"/>
		<path class="st2" d="M961.6,441l-1.4-1.3c1.1-1.6,1.7-3.6,1.7-6v-8.8h10.9v14.1c0,1.2-0.6,1.8-1.8,1.8h-2.3l-0.5-1.8
			c0.8,0.1,1.5,0.1,2.2,0.1c0.4,0,0.5-0.3,0.5-0.7v-3h-7.2C963.4,437.6,962.7,439.5,961.6,441z M970.8,426.6h-7.1v2.5h7.1V426.6z
			 M963.7,433.5h7.1v-2.7h-7.1V433.5z"/>
	</g>
	<g class="st0">
		<path class="st3" d="M950.6,459.6v1.1h-4V471h-1.3v-10.3h-4v-1.1H950.6z"/>
		<path class="st3" d="M953.6,459.9c0.2,0.2,0.3,0.4,0.3,0.7c0,0.3-0.1,0.5-0.3,0.7c-0.2,0.2-0.4,0.3-0.7,0.3s-0.5-0.1-0.7-0.3
			c-0.2-0.2-0.3-0.4-0.3-0.7c0-0.3,0.1-0.5,0.3-0.7c0.2-0.2,0.4-0.3,0.7-0.3S953.4,459.7,953.6,459.9z M953.6,462.7v8.3h-1.3v-8.3
			H953.6z"/>
		<path class="st3" d="M960.2,459.6c1.8,0,3.2,0.5,4.1,1.6c0.8,1,1.3,2.4,1.3,4.1c0,1.8-0.5,3.2-1.4,4.1c-1,1-2.3,1.6-4.1,1.6h-4
			v-11.4H960.2z M957.5,469.9h2.4c1.5,0,2.6-0.4,3.4-1.2c0.7-0.8,1.1-1.9,1.1-3.4c0-1.5-0.3-2.7-1-3.4c-0.7-0.8-1.8-1.2-3.3-1.2
			h-2.6V469.9z"/>
		<path class="st3" d="M972.6,459.6c1.1,0,1.9,0.3,2.5,0.8c0.6,0.5,0.9,1.2,0.9,2.1c0,0.6-0.2,1.2-0.5,1.7c-0.4,0.4-0.8,0.7-1.4,0.9
			c0.8,0.1,1.3,0.4,1.7,0.9c0.4,0.5,0.6,1.1,0.6,1.9c0,1.1-0.4,2-1.2,2.5c-0.7,0.4-1.6,0.7-2.8,0.7h-5.1v-11.4H972.6z M968.8,464.6
			h3.5c0.8,0,1.4-0.2,1.8-0.5c0.4-0.3,0.6-0.8,0.6-1.5c0-0.6-0.2-1.1-0.6-1.4c-0.4-0.3-1-0.5-1.8-0.5h-3.5V464.6z M968.8,469.9h3.6
			c0.8,0,1.4-0.2,1.9-0.4c0.6-0.4,0.8-0.9,0.8-1.6s-0.3-1.3-0.7-1.6c-0.5-0.4-1.1-0.5-2-0.5h-3.6V469.9z"/>
		<path class="st3" d="M989.8,459.6v7.8h1.9v1.1h-1.9v2.6h-1.2v-2.6h-5.7v-1.2l5.8-7.6H989.8z M983.9,467.3h4.6v-6.1h0L983.9,467.3z
			"/>
		<path class="st3" d="M994.9,469.4c0.2,0.2,0.3,0.4,0.3,0.7c0,0.3-0.1,0.5-0.3,0.7c-0.2,0.2-0.4,0.3-0.7,0.3
			c-0.3,0-0.5-0.1-0.7-0.3c-0.2-0.2-0.3-0.4-0.3-0.7c0-0.3,0.1-0.5,0.3-0.7c0.2-0.2,0.4-0.3,0.7-0.3
			C994.4,469.1,994.7,469.2,994.9,469.4z"/>
		<path class="st3" d="M1004.2,461.2c0.6,1,0.9,2.4,0.9,4.1c0,1.7-0.3,3.1-0.9,4.1c-0.7,1.2-1.7,1.8-3.1,1.8c-1.4,0-2.4-0.6-3.1-1.8
			c-0.6-1-0.9-2.4-0.9-4.1c0-1.7,0.3-3.1,0.9-4.1c0.7-1.2,1.7-1.8,3.1-1.8C1002.4,459.3,1003.5,459.9,1004.2,461.2z M998.9,462.1
			c-0.3,0.8-0.5,1.8-0.5,3.2c0,1.3,0.2,2.4,0.5,3.2c0.4,1.1,1.2,1.6,2.2,1.6s1.8-0.6,2.2-1.6c0.3-0.8,0.5-1.8,0.5-3.2
			c0-1.3-0.2-2.4-0.5-3.2c-0.4-1.1-1.2-1.6-2.2-1.6S999.3,461,998.9,462.1z"/>
		<path class="st3" d="M1019.6,458c2,2.2,4.4,4,7,5.3l-0.6,1.1c-2.7-1.4-4.9-3.2-6.8-5.4c-1.7,2.1-4,3.9-6.9,5.4l-0.6-1.1
			c2.8-1.4,5.2-3.2,7.1-5.3H1019.6z M1020.2,462.2v3.6h4.4v1.1h-4.4v3.9h5.5v1.1h-13.3v-1.1h2.4v-6.3h1.1v6.3h3.1v-8.6H1020.2z"/>
		<path class="st3" d="M1034.1,458.1v12.7h2.3v-12.7h1.2v12.7h4.8v1.1h-14.2v-1.1h4.8v-12.7H1034.1z M1031.7,468.4l-1.1,0.3
			c-0.6-2.6-1.3-5-2.2-7.4l1-0.3C1030.3,463.1,1031.1,465.6,1031.7,468.4z M1041.9,461.3c-0.6,2.8-1.4,5.2-2.4,7.3l-1-0.4
			c0.9-1.9,1.7-4.3,2.4-7.2L1041.9,461.3z"/>
		<path class="st3" d="M1049,458.1v4.2h0.9v1.1h-3.8v0.8c0,0.5,0,1,0,1.4h3.1v6.8h-1.1v-5.7h-2c-0.2,2.4-0.6,4.2-1.3,5.5l-0.9-0.8
			c0.7-1.5,1.1-4,1.1-7.3v-5.9h1.1v3.9h1.7v-4.2H1049z M1051.9,465.4c-0.1,3-0.6,5.3-1.6,7.1l-0.8-0.8c0.8-1.5,1.2-3.6,1.3-6.3v-6.4
			c2.5,0,4.8-0.4,6.8-1l0.6,1c-1.9,0.5-4,0.9-6.3,1v2.5h5.9v1c-0.4,2.2-1.1,4.1-2.1,5.6c0.8,1.1,1.7,1.9,2.9,2.4l-0.6,1
			c-1.2-0.6-2.2-1.5-3-2.5c-0.9,1-1.9,1.9-3.2,2.5l-0.6-1c1.2-0.7,2.2-1.5,3-2.5c-0.9-1.5-1.6-3.3-1.9-5.5h-0.5V465.4z M1055,468.1
			c0.8-1.3,1.4-2.8,1.6-4.5h-3.2C1053.8,465.4,1054.3,466.9,1055,468.1z"/>
		<path class="st3" d="M1074,460.4c0.8,0.7,1.3,1.6,1.5,2.8h-1.3c-0.2-0.9-0.6-1.5-1.2-2c-0.6-0.5-1.4-0.7-2.4-0.7
			c-1.2,0-2.2,0.4-3,1.3c-0.7,0.9-1.1,2-1.1,3.5c0,1.4,0.4,2.6,1.1,3.4c0.8,0.9,1.9,1.3,3.4,1.3c0.6,0,1.2-0.1,1.8-0.3
			c0.6-0.2,1-0.4,1.4-0.6v-2.9h-3.6v-1.1h4.9v4.7c-0.5,0.4-1.2,0.8-2,1c-0.8,0.3-1.7,0.4-2.7,0.4c-1.8,0-3.2-0.6-4.2-1.7
			c-0.9-1.1-1.4-2.5-1.4-4.2c0-1.7,0.4-3.1,1.4-4.2c1-1.2,2.3-1.8,4-1.8C1072,459.3,1073.1,459.7,1074,460.4z"/>
		<path class="st3" d="M1082.5,459.6l4.5,11.4h-1.4l-1.2-3.2h-5.2l-1.2,3.2h-1.4l4.5-11.4H1082.5z M1084,466.7l-2.2-5.7h-0.1
			l-2.2,5.7H1084z"/>
		<path class="st3" d="M1095.5,458.4l1.1,0.2l-0.9,3.2h2.8c0.3-1.2,0.6-2.5,0.8-3.9l1.2,0.1c-0.2,1.3-0.5,2.6-0.8,3.8h7.5v1.1h-7.8
			c-0.2,0.6-0.4,1.2-0.6,1.8h6.5v1c-0.4,1.4-1.3,2.6-2.6,3.7c1.3,0.8,2.9,1.5,4.7,2.1l-0.6,1.1c-2-0.8-3.7-1.6-5.1-2.4
			c-1.3,0.9-2.9,1.8-4.9,2.5l-0.6-1.1c1.8-0.7,3.3-1.4,4.5-2.2c-1.2-1-2.1-2-2.7-3.1c-1.2,2.5-2.7,4.5-4.5,6l-0.6-1.1
			c2.3-2,4.1-4.8,5.2-8.4h-4L1095.5,458.4z M1101.7,468.7c1.2-0.9,2-1.9,2.4-3h-5.2C1099.5,466.8,1100.4,467.8,1101.7,468.7z
			 M1106,460.6l-0.8,0.8c-0.7-0.8-1.6-1.7-2.8-2.7l0.8-0.8C1104.3,458.8,1105.2,459.7,1106,460.6z"/>
		<path class="st3" d="M1114.1,458.1v4.2h0.9v1.1h-3.8v0.8c0,0.5,0,1,0,1.4h3.1v6.8h-1.1v-5.7h-2c-0.2,2.4-0.6,4.2-1.3,5.5l-0.9-0.8
			c0.7-1.5,1.1-4,1.1-7.3v-5.9h1.1v3.9h1.7v-4.2H1114.1z M1117,465.4c-0.1,3-0.6,5.3-1.6,7.1l-0.8-0.8c0.8-1.5,1.2-3.6,1.3-6.3v-6.4
			c2.5,0,4.8-0.4,6.8-1l0.6,1c-1.9,0.5-4,0.9-6.3,1v2.5h5.9v1c-0.4,2.2-1.1,4.1-2.1,5.6c0.8,1.1,1.7,1.9,2.9,2.4l-0.6,1
			c-1.2-0.6-2.2-1.5-3-2.5c-0.9,1-1.9,1.9-3.2,2.5l-0.6-1c1.2-0.7,2.2-1.5,3-2.5c-0.9-1.5-1.6-3.3-1.9-5.5h-0.5V465.4z
			 M1120.2,468.1c0.8-1.3,1.4-2.8,1.6-4.5h-3.2C1118.9,465.4,1119.5,466.9,1120.2,468.1z"/>
	</g>
	<g class="st0">
		<path class="st2" d="M949.9,530.6c0.8,1.1,1.2,2.6,1.2,4.6c0,2.1-0.5,3.8-1.3,5.1c-0.9,1.3-2.1,1.9-3.5,1.9c-2.5,0-4-1.2-4.3-3.5
			h2.1c0.3,1.2,1,1.8,2.2,1.8c0.8,0,1.5-0.4,2.1-1.3c0.5-0.8,0.7-1.8,0.7-3v-0.2H949c-0.4,0.5-0.8,0.9-1.4,1.2
			c-0.5,0.2-1.1,0.4-1.7,0.4c-1.3,0-2.3-0.4-3-1.2c-0.8-0.8-1.1-1.8-1.1-3.1c0-1.3,0.4-2.4,1.3-3.2c0.9-0.8,1.9-1.3,3.2-1.3
			C947.8,528.9,949,529.5,949.9,530.6z M944.5,531.4c-0.5,0.5-0.7,1.2-0.7,1.9c0,0.8,0.2,1.4,0.7,1.9c0.4,0.5,1,0.7,1.8,0.7
			c0.8,0,1.4-0.3,1.8-0.7c0.4-0.5,0.7-1.1,0.7-2s-0.2-1.5-0.7-1.9c-0.5-0.5-1.1-0.7-1.8-0.7C945.6,530.6,945,530.9,944.5,531.4z"/>
		<path class="st2" d="M961.6,544l-1.4-1.3c1.1-1.6,1.7-3.6,1.7-6v-8.8h10.9v14.1c0,1.2-0.6,1.8-1.8,1.8h-2.3l-0.5-1.8
			c0.8,0.1,1.5,0.1,2.2,0.1c0.4,0,0.5-0.3,0.5-0.7v-3h-7.2C963.4,540.6,962.7,542.5,961.6,544z M970.8,529.6h-7.1v2.5h7.1V529.6z
			 M963.7,536.5h7.1v-2.7h-7.1V536.5z"/>
	</g>
	<g class="st0">
		<path class="st3" d="M950.6,562.6v1.1h-4V574h-1.3v-10.3h-4v-1.1H950.6z"/>
		<path class="st3" d="M953.6,562.9c0.2,0.2,0.3,0.4,0.3,0.7c0,0.3-0.1,0.5-0.3,0.7c-0.2,0.2-0.4,0.3-0.7,0.3s-0.5-0.1-0.7-0.3
			c-0.2-0.2-0.3-0.4-0.3-0.7c0-0.3,0.1-0.5,0.3-0.7c0.2-0.2,0.4-0.3,0.7-0.3S953.4,562.7,953.6,562.9z M953.6,565.7v8.3h-1.3v-8.3
			H953.6z"/>
		<path class="st3" d="M960.2,562.6c1.8,0,3.2,0.5,4.1,1.6c0.8,1,1.3,2.4,1.3,4.1c0,1.8-0.5,3.2-1.4,4.1c-1,1-2.3,1.6-4.1,1.6h-4
			v-11.4H960.2z M957.5,572.9h2.4c1.5,0,2.6-0.4,3.4-1.2c0.7-0.8,1.1-1.9,1.1-3.4c0-1.5-0.3-2.7-1-3.4c-0.7-0.8-1.8-1.2-3.3-1.2
			h-2.6V572.9z"/>
		<path class="st3" d="M972.6,562.6c1.1,0,1.9,0.3,2.5,0.8c0.6,0.5,0.9,1.2,0.9,2.1c0,0.6-0.2,1.2-0.5,1.7c-0.4,0.4-0.8,0.7-1.4,0.9
			c0.8,0.1,1.3,0.4,1.7,0.9c0.4,0.5,0.6,1.1,0.6,1.9c0,1.1-0.4,2-1.2,2.5c-0.7,0.4-1.6,0.7-2.8,0.7h-5.1v-11.4H972.6z M968.8,567.6
			h3.5c0.8,0,1.4-0.2,1.8-0.5c0.4-0.3,0.6-0.8,0.6-1.5c0-0.6-0.2-1.1-0.6-1.4c-0.4-0.3-1-0.5-1.8-0.5h-3.5V567.6z M968.8,572.9h3.6
			c0.8,0,1.4-0.2,1.9-0.4c0.6-0.4,0.8-0.9,0.8-1.6s-0.3-1.3-0.7-1.6c-0.5-0.4-1.1-0.5-2-0.5h-3.6V572.9z"/>
		<path class="st3" d="M991,575.3c-1,0-1.9-0.1-2.5-0.3c-0.6-0.2-1.2-0.6-1.7-1.2c-0.2-0.3-0.4-0.4-0.6-0.4c-0.4,0-1,0.7-1.9,2.2
			l-0.9-0.8c0.8-1.3,1.6-2.2,2.3-2.4v-4.9h-2.3v-1.1h3.3v6c0.1,0.1,0.3,0.2,0.4,0.4c0.4,0.5,0.8,0.8,1.2,1c0.5,0.2,1.2,0.4,2.2,0.4
			c0.8,0,1.9,0,3.2,0c0.7,0,1.5,0,2.3,0c0.8,0,1.4,0,1.8-0.1l-0.3,1.2h-3.6C993,575.3,992,575.3,991,575.3z M987.3,563.7l-0.8,0.8
			c-0.7-0.8-1.6-1.6-2.8-2.5l0.8-0.8C985.6,562,986.5,562.8,987.3,563.7z M992.8,563.9c0.8-0.4,1.6-0.9,2.3-1.5H988v-1h8.7v0.8
			c-1,0.8-2,1.6-3.1,2.2l0.3,0.2h3.2v7.2c0,0.8-0.4,1.2-1.3,1.2h-1.3l-0.3-1l1.3,0c0.4,0,0.6-0.2,0.6-0.5v-1.2h-2.7v2.8h-1.1v-2.8
			h-2.7v2.8h-1.1v-8.5h4c-0.6-0.4-1.3-0.9-2.1-1.3l0.7-0.7C991.6,563.1,992.3,563.5,992.8,563.9z M992.1,565.6h-2.7v1.4h2.7V565.6z
			 M989.4,569.5h2.7V568h-2.7V569.5z M995.9,565.6h-2.7v1.4h2.7V565.6z M993.2,569.5h2.7V568h-2.7V569.5z"/>
		<path class="st3" d="M1007.2,575.3c-1.1,0-2-0.1-2.6-0.3c-0.7-0.2-1.3-0.6-1.8-1.2c-0.2-0.3-0.4-0.4-0.7-0.4c-0.4,0-1,0.7-1.9,2.2
			l-0.9-0.8c0.9-1.4,1.6-2.2,2.3-2.5v-4.8h-2.3v-1.1h3.4v6c0.1,0.1,0.3,0.2,0.4,0.4c0.4,0.4,0.8,0.8,1.3,1c0.5,0.2,1.3,0.3,2.3,0.4
			c0.9,0,2,0,3.3,0c0.7,0,1.4,0,2.1,0c0.7,0,1.3,0,1.7-0.1l-0.3,1.2h-3.4C1009.2,575.3,1008.3,575.3,1007.2,575.3z M1003.2,563.7
			l-0.8,0.8c-0.7-0.8-1.6-1.7-2.7-2.6l0.8-0.8C1001.5,562,1002.4,562.8,1003.2,563.7z M1007.4,573.2l-0.3-1.1c0.7,0,1.5,0.1,2.1,0.1
			c0.4,0,0.7-0.2,0.7-0.7v-6.8h-6.1v-1.1h6.1V561h1.2v2.6h2.4v1.1h-2.4v7.1c0,0.9-0.5,1.4-1.5,1.4H1007.4z M1008,569.2l-0.9,0.6
			c-0.6-1-1.3-2-2.3-3.2l0.9-0.6C1006.7,567.3,1007.5,568.3,1008,569.2z"/>
		<path class="st3" d="M1016.4,563.3v-1.1h12.2v1.1h-5.5v10.1h6.5v1.1h-14.3v-1.1h6.6v-10.1H1016.4z"/>
		<path class="st3" d="M1031.3,568.7l-0.4-1.2c1.6-1.9,2.7-4.2,3.4-6.7l1.1,0.5c-0.4,1.2-0.8,2.4-1.4,3.5v10.9h-1.1v-9
			C1032.4,567.3,1031.9,568,1031.3,568.7z M1040.3,563c-0.2-0.6-0.5-1.2-0.8-1.9l1.1-0.3c0.3,0.7,0.6,1.3,0.8,1.9l-0.6,0.2h5v1.1
			h-10.4V563H1040.3z M1044.7,575.6h-1.1v-0.9h-5.9v0.9h-1.1V570h8.2V575.6z M1044.4,565.4v1h-7.6v-1H1044.4z M1044.4,567.7v1.1
			h-7.6v-1.1H1044.4z M1043.6,573.6v-2.5h-5.9v2.5H1043.6z"/>
		<path class="st3" d="M1050.5,566.9h1.7c0.5-0.9,0.9-1.8,1.2-2.8l1.1,0.4c-0.3,0.9-0.7,1.7-1.1,2.4h1.9v1.1h-8v-1.1h2.2
			c-0.3-0.8-0.6-1.6-1-2.3l1.1-0.4C1049.8,564.9,1050.2,565.8,1050.5,566.9z M1050.8,562.5c-0.2-0.5-0.4-1-0.6-1.4l1.2-0.2
			c0.2,0.5,0.4,1,0.5,1.6h3.3v1.1h-7.6v-1.1H1050.8z M1054.6,575.5h-1.1v-0.9h-4.1v0.9h-1.1v-6h6.4V575.5z M1053.4,573.5v-3h-4.1v3
			H1053.4z M1061.3,561.6v0.9c-0.5,1.7-1,3.2-1.6,4.7c1.2,1.5,1.8,2.8,1.8,3.7c0,1-0.2,1.7-0.6,2.1c-0.4,0.4-1.3,0.6-2.6,0.6
			l-0.4-1.2c0.4,0,0.8,0.1,1.1,0.1c0.6,0,0.9-0.1,1.1-0.3c0.2-0.2,0.2-0.6,0.3-1.2c0-0.9-0.7-2.2-1.9-3.7c0.5-1.3,1.1-2.8,1.6-4.5
			h-2.9v12.9h-1.1v-14H1061.3z"/>
		<path class="st3" d="M1077.6,570l-0.5,1c-0.9-0.3-1.6-0.6-2.3-0.9v3.1h-1.1v-2.8h-6.4v2.8h-1.1v-3.2c-0.7,0.4-1.5,0.7-2.4,1
			l-0.6-1c1.7-0.5,3-1,3.9-1.7h-3.5v-0.9h4.4v-1h-2v-0.8h2v-1h-2.4v-0.9h2.4v-0.9h-3v1.6h-1.1v-2.6h6c-0.2-0.3-0.4-0.6-0.6-0.9
			l1.2-0.2c0.2,0.3,0.4,0.7,0.6,1.1h5.8v2.6h-1.1v-1.6h-3v0.9h2.4v0.9h-2.4v1h2.1v0.8h-2.1v1h4.4v0.9h-3.6
			C1074.6,569,1075.9,569.5,1077.6,570z M1070.9,570.9c-0.2,1.7-0.6,2.8-1.2,3.4c-0.7,0.7-2.3,1.2-4.8,1.4l-0.4-1
			c2.2-0.1,3.6-0.5,4.3-1.1c0.6-0.6,1-1.5,1.1-2.8L1070.9,570.9z M1072.5,568.3h-4.1c-0.4,0.4-0.8,0.7-1.2,1.1h6.6
			C1073.2,569,1072.8,568.7,1072.5,568.3z M1069.2,562.8v0.9h2.6v-0.9H1069.2z M1071.7,564.6h-2.6v1h2.6V564.6z M1071.7,567.4v-1
			h-2.6v1H1071.7z M1076.3,574.8l-0.6,0.9c-1.6-0.8-3.2-1.5-4.8-2l0.6-0.8C1073.3,573.4,1074.9,574.1,1076.3,574.8z"/>
		<path class="st3" d="M1081.3,566.9v-1.1h10.4v1.1h-4.7v2.8h4.1v1.1h-4.1v3.4h6.1v1.1h-13.3v-1.1h6.1v-3.4h-4.2v-1.1h4.2v-2.8
			H1081.3z M1092.9,565.7h-1.2v-2h-10.6v2.1h-1.2v-3.2h6c-0.2-0.5-0.4-1-0.7-1.4l1.2-0.2c0.2,0.5,0.4,1,0.6,1.6h5.7V565.7z
			 M1091.6,573.4l-0.9,0.6c-0.4-0.7-1-1.5-1.8-2.4l0.9-0.5C1090.6,572,1091.2,572.8,1091.6,573.4z"/>
		<path class="st3" d="M1095.5,562.9v-1.1h5.5v1.1h-2.5c-0.2,1.3-0.6,2.5-1,3.6h3v7.3h-2.8v1.3h-1.1v-6.7c-0.3,0.6-0.7,1.2-1.1,1.7
			l-0.6-1c1.2-1.8,2.1-3.9,2.5-6.2H1095.5z M1099.4,572.8v-5.2h-1.7v5.2H1099.4z M1104.3,568.3c-0.1,3.3-1.1,5.7-2.9,7.3l-0.8-0.8
			c1.6-1.4,2.5-3.5,2.6-6.5h-1.7v-1.1h1.8v-4.4h-1.4v-1.1h7.6v1.1h-1.5v4.4h1.9v1.1h-1.9v7.2h-1.1v-7.2H1104.3z M1104.3,562.8v4.4
			h2.5v-4.4H1104.3z"/>
		<path class="st3" d="M1117.9,566.8v1.2l0,0.9h4.1v5.1c0,0.3,0.2,0.4,0.5,0.4h1.2c0.4,0,0.6-0.2,0.7-0.6c0.1-0.6,0.1-1.3,0.1-2
			l1.1,0.3c-0.1,1.3-0.2,2.1-0.3,2.4c-0.2,0.7-0.7,1-1.6,1h-1.4c-1,0-1.4-0.4-1.4-1.3V570h-3.2c-0.2,1.2-0.7,2.1-1.3,2.9
			c-0.9,1.1-2.4,2-4.4,2.7l-0.6-1c2-0.6,3.4-1.4,4.2-2.4c0.4-0.6,0.7-1.4,0.9-2.2h-4v-1.1h4.2c0-0.3,0-0.6,0.1-0.9v-1.2H1117.9z
			 M1119.1,562.4h5.9v3.2h-1.2v-2.1H1113v2.1h-1.2v-3.2h6c-0.2-0.5-0.4-1-0.7-1.4l1.3-0.2C1118.7,561.3,1118.9,561.9,1119.1,562.4z
			 M1117.5,565c-1.3,1.2-3,2.3-4.9,3.1l-0.5-1c1.9-0.7,3.5-1.7,4.8-2.9L1117.5,565z M1124.6,567.3l-0.6,1c-1.5-1.3-3-2.3-4.6-3.1
			l0.6-0.9C1121.7,565.1,1123.2,566.1,1124.6,567.3z"/>
		<path class="st3" d="M1129.3,570.4c-0.2,2-0.7,3.7-1.5,5.2l-0.8-0.8c0.9-1.6,1.3-3.6,1.3-5.8v-6.6c1.9-0.2,3.4-0.7,4.5-1.3
			l0.8,0.9c-1.2,0.6-2.6,1.1-4.2,1.3v1.9h4.1v5.3H1129.3z M1129.4,568.9c0,0.1,0,0.2,0,0.4h3.1v-3.2h-3V568.9z M1135.9,569.4
			c0,2.8-0.4,4.8-1.1,6.2l-1-0.5c0.7-1.4,1.1-3.3,1.1-5.7v-7.2c2.3-0.1,4.2-0.5,5.7-1.1l0.6,1c-1.6,0.6-3.3,1-5.3,1.1l0,2.8h5.8v1.1
			h-1.8v8.6h-1.1V567h-2.9V569.4z"/>
		<path class="st3" d="M1149.2,561.9c-0.8,1.3-1.5,2.4-2.3,3.3c-0.8,0.9-1.9,1.8-3.2,2.7l-0.6-1c1.1-0.6,2.1-1.4,3-2.4
			c0.8-0.9,1.5-1.9,2.1-3.2L1149.2,561.9z M1145.5,568.4v-1.1h9.6c0,2-0.1,3.6-0.3,4.9c-0.2,1.2-0.4,2.1-0.8,2.6
			c-0.4,0.5-0.9,0.7-1.7,0.8h-2.9l-0.3-1.1c0.9,0,1.8,0,2.6,0c0.9,0,1.4-0.4,1.7-1.1c0.3-0.8,0.5-2.4,0.5-4.9h-4
			c-0.4,1.7-0.9,3.1-1.6,4.2c-0.8,1.2-2,2.2-3.7,3.1l-0.7-1c1.5-0.8,2.6-1.7,3.3-2.6c0.7-0.9,1.2-2.1,1.5-3.6H1145.5z M1157.7,566.9
			l-0.8,0.9c-2.5-1.6-4.2-3.7-5.2-6.2l1-0.6C1153.7,563.5,1155.3,565.5,1157.7,566.9z"/>
		<path class="st3" d="M1168,565.1v2h4.5v5.4c0,1-0.5,1.5-1.5,1.5h-1.5l-0.3-1.1l1.4,0c0.5,0,0.8-0.2,0.8-0.7v-4.1h-3.4v7.4h-1.1
			v-7.4h-3.4v5.9h-1.1v-6.1c-0.8,0.8-1.7,1.6-2.6,2.3l-0.7-1c2-1.5,3.6-3.2,4.8-5.2h-4.3V563h4.9c0.4-0.7,0.6-1.4,0.9-2.1l1.2,0.1
			c-0.2,0.7-0.5,1.4-0.8,2h7.8v1.1h-8.3c-0.6,1.1-1.2,2-2,3h3.8v-2H1168z"/>
		<path class="st3" d="M1182.5,567.6v1.1h-2.8v4.2c1.2-0.2,2.3-0.5,3.4-0.8v1.1c-2.3,0.6-4.8,1-7.5,1.4l-0.3-1.1
			c1.1-0.1,2.1-0.3,3.1-0.4v-4.4h-2.8v-1.1H1182.5z M1183.3,563.8c0-0.9-0.1-1.9-0.1-2.8h1.2c0,1,0,1.9,0.1,2.8h4.9v1.1h-4.9
			c0.2,2.7,0.6,4.9,1.2,6.7c0.7,1.8,1.3,2.7,1.8,2.7c0.3,0,0.7-1,1-2.8l1,0.5c-0.5,2.3-1.1,3.5-2,3.5c-1.4-0.1-2.6-1.9-3.6-5.3
			c-0.4-1.5-0.6-3.3-0.7-5.3h-7.9v-1.1H1183.3z M1188.4,563.1l-1,0.5c-0.5-0.8-1-1.5-1.5-2.1l1-0.5
			C1187.4,561.7,1187.9,562.4,1188.4,563.1z"/>
		<path class="st3" d="M1195.3,568.5c-0.1,0.3-0.2,0.6-0.3,0.9h3.3v0.9c-0.4,1.1-0.9,2-1.8,2.7c0.8,0.4,1.5,0.7,2.2,1.1l-0.6,0.9
			c-0.7-0.4-1.5-0.8-2.5-1.3c-1.1,0.7-2.4,1.3-4,1.8l-0.5-1c1.3-0.4,2.4-0.8,3.4-1.3c-0.7-0.3-1.4-0.6-2.2-0.9
			c0.4-0.7,0.8-1.4,1.1-2h-1.9v-1h2.3c0.1-0.4,0.3-0.7,0.4-1L1195.3,568.5z M1194.6,564v-3.1h1.1v3.1h2.9v1h-2.9v0.2
			c0.9,0.4,1.8,0.9,2.7,1.5l-0.6,0.9c-0.8-0.6-1.5-1.2-2.1-1.5v2.1h-1.1v-3c-0.5,1.3-1.5,2.4-2.9,3.3l-0.6-0.9
			c1.2-0.7,2.1-1.5,2.6-2.4h-2.3v-1H1194.6z M1193.8,563.2l-0.8,0.4c-0.3-0.8-0.7-1.5-1.1-2.1l0.9-0.3
			C1193.1,561.9,1193.5,562.5,1193.8,563.2z M1197.3,570.4h-2.8c-0.3,0.5-0.5,1.1-0.9,1.5c0.6,0.2,1.2,0.4,1.8,0.7
			C1196.3,572,1196.9,571.2,1197.3,570.4z M1198.5,561.6c-0.3,0.7-0.7,1.4-1.2,2.1l-0.8-0.4c0.5-0.7,0.9-1.4,1.2-2L1198.5,561.6z
			 M1200.2,567.1c-0.3,0.7-0.6,1.4-0.9,2l-0.7-0.9c0.9-1.8,1.6-4.2,1.9-7.3l1.1,0.2c-0.1,0.8-0.2,1.6-0.4,2.3h4.2v1.1h-1
			c-0.1,2.7-0.6,5-1.5,6.9c0.8,1.4,1.8,2.5,3,3.3l-0.6,0.9c-1.1-0.8-2.1-1.9-2.9-3.2c-0.8,1.3-1.8,2.4-3,3.2l-0.6-1
			c1.2-0.9,2.2-2,3-3.3C1201.2,570.1,1200.7,568.7,1200.2,567.1z M1200.8,565.3c0.4,1.9,0.9,3.5,1.6,4.8c0.6-1.6,1-3.5,1-5.7h-2.4
			L1200.8,565.3z"/>
		<path class="st3" d="M1207.7,575.5l-0.2-1.1c0.4,0,0.8,0.1,1.2,0.1c0.4,0,0.6-0.2,0.6-0.7v-3.9c-0.6,0.2-1.3,0.5-1.9,0.7l-0.3-1.1
			c0.7-0.2,1.5-0.4,2.2-0.7v-3.6h-1.9V564h1.9v-3h1.1v3h1.5v1.1h-1.5v3.2c0.5-0.2,1-0.5,1.5-0.7v1.1c-0.5,0.3-1,0.5-1.5,0.7v4.7
			c0,0.9-0.4,1.4-1.3,1.4H1207.7z M1212,575.6l-0.9-0.8c1.1-2.1,1.7-4.9,1.7-8.2v-5h8.4v3.9h-3v1.9h3.4v1h-3.4v2h2.7v5.2h-1.1v-0.8
			h-4.3v0.8h-1.1v-5.2h2.7v-2h-3.3C1213.7,571.1,1213,573.5,1212,575.6z M1213.9,565.5v1.1c0,0.3,0,0.5,0,0.8h3.2v-1.9H1213.9z
			 M1213.9,562.6v1.8h6.2v-1.8H1213.9z M1219.9,573.8v-2.4h-4.3v2.4H1219.9z"/>
		<path class="st3" d="M1231.8,562.3h5.8v1.1h-11.9v3.6c-0.1,3.5-0.6,6.4-1.6,8.5l-0.9-0.8c0.9-1.8,1.3-4.4,1.4-7.6v-4.8h6
			c-0.3-0.5-0.5-0.9-0.8-1.3l1.3-0.2C1231.3,561.3,1231.6,561.8,1231.8,562.3z M1231.1,564.2c-0.1,0.4-0.3,0.9-0.4,1.3h6.2v1h-6.6
			c-0.4,1-0.9,1.9-1.4,2.7h3v-1.9h1.2v1.9h3.6v1h-3.6v1.8h4.8v1.1h-4.8v2.5h-1.2v-2.5h-5.8V572h5.8v-1.8h-4.2l-0.2-1
			c0.6-0.8,1.2-1.7,1.7-2.8h-2.4v-1h2.8c0.2-0.5,0.4-1,0.5-1.5L1231.1,564.2z"/>
		<path class="st3" d="M1241.9,567c-0.1,3.5-0.8,6.3-2.1,8.5l-0.8-0.8c1.1-1.8,1.7-4.4,1.8-7.6v-5c4.2,0,8-0.4,11.4-1l0.6,1
			c-3.2,0.5-6.9,0.8-10.9,0.9v1.6h5.3c0.1-0.5,0.1-1,0.2-1.5l1.2,0.1c0,0.4-0.1,0.9-0.2,1.3h5.1v1.1h-5.3c-0.1,0.5-0.2,1-0.3,1.5
			h4.1v5.4h-1.1v-4.4h-6.3v4.4h-1.1v-5.5h3.2c0.1-0.5,0.2-1,0.3-1.5h-5.2V567z M1248.6,568.9c-0.2,1.9-0.8,3.3-1.7,4.3
			c-1,1-2.5,1.8-4.5,2.4l-0.6-1.1c1.9-0.5,3.3-1.1,4.2-2c0.9-0.9,1.4-2.1,1.6-3.7L1248.6,568.9z M1253.5,574.6l-0.6,1
			c-1.6-1.1-3.2-1.9-4.8-2.5l0.6-0.9C1250.5,572.9,1252.1,573.7,1253.5,574.6z"/>
		<path class="st3" d="M1269.6,566v0.9h-14.3V566H1269.6z M1268,567.6v4.1h-5v0.9h5.4v0.8h-5.4v0.9h6.6v0.9h-14.3v-0.9h6.6v-0.9
			h-5.4v-0.8h5.4v-0.9h-5v-4.1H1268z M1267.7,561.2v4h-10.5v-4H1267.7z M1261.9,569.3v-1h-3.9v1H1261.9z M1261.9,570h-3.9v1h3.9V570
			z M1266.6,562.8v-0.9h-8.2v0.9H1266.6z M1266.6,563.5h-8.2v0.9h8.2V563.5z M1263,569.3h3.9v-1h-3.9V569.3z M1266.9,570h-3.9v1h3.9
			V570z"/>
		<path class="st3" d="M1276.9,561.8v1.1h-2.4c-0.2,1.3-0.5,2.5-0.9,3.6h2.9v7.3h-2.8v1.2h-1.1v-6.3c-0.3,0.5-0.6,1-0.8,1.4
			l-0.7-1.1c1.2-1.8,1.9-3.9,2.3-6.2h-1.8v-1.1H1276.9z M1275.4,572.8v-5.2h-1.7v5.2H1275.4z M1277.4,575.6l-0.8-0.8
			c0.8-1.2,1.2-2.6,1.2-4.4v-5.2c-0.2,0.2-0.5,0.4-0.7,0.6l-0.7-0.8c1.3-1,2.3-2.4,3.1-4.1l1.1,0.2c-0.2,0.3-0.3,0.7-0.5,1h3.9v0.8
			c-0.5,0.7-1,1.3-1.4,1.8h2.7v9.6c0,0.7-0.4,1.1-1.2,1.1h-1.2l-0.3-1c0.4,0,0.8,0.1,1.1,0.1c0.3,0,0.5-0.2,0.5-0.5v-2.1h-2.1v3.5
			h-1v-3.5h-2.2C1278.6,573.3,1278.1,574.5,1277.4,575.6z M1282.6,563.1h-3.1c-0.4,0.6-0.8,1.1-1.3,1.6h3
			C1281.7,564.2,1282.2,563.7,1282.6,563.1z M1278.8,570.4c0,0.1,0,0.3,0,0.4h2.1v-2h-2.1V570.4z M1278.8,565.7v2h2.1v-2H1278.8z
			 M1284.1,565.7h-2.1v2h2.1V565.7z M1284.1,568.7h-2.1v2h2.1V568.7z"/>
		<path class="st3" d="M1290.6,565.8v7c0.6-0.5,1.2-1,1.9-1.6l0.3,1.2c-1,0.9-2,1.8-3.2,2.5l-0.4-1c0.2-0.2,0.4-0.4,0.4-0.7v-6.2
			h-2.4v-1.1H1290.6z M1291.8,563.5l-0.8,0.8c-0.7-0.8-1.6-1.6-2.8-2.5l0.8-0.8C1290.1,561.9,1291,562.7,1291.8,563.5z M1297.7,561
			c0,1.3,0,2.6-0.1,3.8c0.8,4.1,2.3,7.4,4.4,9.8l-0.8,1c-1.7-2.2-3-4.9-3.9-8c-0.1,0.4-0.2,0.9-0.2,1.3c-0.6,2.8-2,5-4.1,6.8
			l-0.8-0.9c1.9-1.6,3.1-3.5,3.7-5.9c0.4-2,0.7-4.5,0.7-7.7H1297.7z"/>
		<path class="st3" d="M1304.6,564.1c0,1.6-0.2,3.1-0.5,4.6l-0.9-0.3c0.3-1.4,0.5-2.8,0.6-4.4L1304.6,564.1z M1306.5,561v14.6h-1.2
			V561H1306.5z M1308.6,566.4c0.5-1.4,0.9-2.9,0.9-4.5l1,0.1c0,0.7-0.1,1.3-0.2,1.9h2.3v-3h1.2v3h3.5v1.1h-3.5v3.9h3.2v1.1h-3.2v3.9
			h3.9v1.1h-9.7V574h4.6v-3.9h-3.7V569h3.7v-3.9h-2.5c-0.3,1.2-0.7,2.3-1.3,3.2l-0.8-0.8c0.2-0.4,0.3-0.7,0.5-1l-0.8,0.2
			c-0.2-1-0.5-1.9-0.9-2.8l0.8-0.3C1308,564.5,1308.3,565.4,1308.6,566.4z"/>
		<path class="st3" d="M1322.6,565.8v7.1c0.5-0.4,1.1-1,1.6-1.6l0.3,1.2c-0.9,0.9-1.9,1.7-3,2.5l-0.4-1c0.2-0.2,0.4-0.4,0.4-0.7
			v-6.4h-2.4v-1.1H1322.6z M1323.8,563.5l-0.8,0.8c-0.7-0.8-1.6-1.6-2.8-2.5l0.8-0.8C1322.1,561.9,1323,562.7,1323.8,563.5z
			 M1333.4,561.7v1.1h-3.8v6h4.3v1.1h-4.3v5.7h-1.1v-5.7h-4.2v-1.1h4.2v-6h-3.8v-1.1H1333.4z M1327.2,567.7l-1,0.3
			c-0.3-1.4-0.8-2.7-1.3-4l1-0.3C1326.4,564.8,1326.8,566.2,1327.2,567.7z M1332.9,563.8c-0.3,1.6-0.8,2.9-1.3,4.1l-1-0.3
			c0.5-1.1,0.9-2.4,1.2-4L1332.9,563.8z"/>
		<path class="st3" d="M1338.1,567.5l-0.8,0.8c-0.5-0.7-1.3-1.5-2.2-2.3l0.8-0.7C1336.8,566,1337.5,566.7,1338.1,567.5z
			 M1338.3,569.9c-0.6,2-1.3,3.8-2,5.5l-1.1-0.4c0.8-1.8,1.5-3.6,2.1-5.5L1338.3,569.9z M1338.4,563.4l-0.8,0.8
			c-0.5-0.7-1.3-1.4-2.3-2.1l0.8-0.8C1337.1,562,1337.8,562.7,1338.4,563.4z M1342.2,563.8v5.1c0,1.8-0.3,3.3-0.9,4.4
			c-0.5,1-1.4,1.8-2.6,2.4l-0.6-1c1.2-0.5,2-1.3,2.4-2.2c0.4-0.9,0.7-2.1,0.7-3.6v-5.1H1342.2z M1344.4,571.5h-1v-8.8h-3.3v8.9h-1
			v-9.9h5.4V571.5z M1345.2,574.8l-0.8,0.8c-0.6-0.8-1.4-1.7-2.4-2.7l0.7-0.7C1343.7,573.1,1344.5,574,1345.2,574.8z M1346.7,562.3
			v10h-1v-10H1346.7z M1346.1,575.5l-0.2-1.1c0.6,0,1.1,0.1,1.6,0.1c0.4,0,0.6-0.2,0.6-0.6V561h1.1v13.1c0,0.9-0.4,1.4-1.3,1.4
			H1346.1z"/>
	</g>
	<g class="st0">
		<path class="st2" d="M946.8,632.1V645h-2.1v-10.3c-0.8,0.7-1.7,1.2-2.9,1.6v-2.1c0.6-0.1,1.2-0.4,1.8-0.8c0.6-0.4,1.2-0.8,1.6-1.3
			H946.8z"/>
		<path class="st2" d="M957.1,633c0.8,0.7,1.2,1.6,1.2,2.8c0,1.1-0.4,2.1-1.3,3c-0.5,0.5-1.4,1.2-2.7,2.1c-1.3,0.9-2.1,1.6-2.4,2.3
			h6.3v1.9h-9c0-1.3,0.4-2.4,1.3-3.4c0.5-0.5,1.5-1.3,3-2.4c0.8-0.6,1.4-1.1,1.8-1.4c0.6-0.6,0.8-1.3,0.8-2c0-0.7-0.2-1.2-0.6-1.6
			c-0.4-0.3-0.9-0.5-1.7-0.5c-0.8,0-1.4,0.3-1.8,0.8c-0.4,0.5-0.6,1.3-0.6,2.3h-2.1c0-1.4,0.4-2.6,1.3-3.5c0.8-0.9,2-1.4,3.3-1.4
			C955.2,631.9,956.2,632.3,957.1,633z"/>
		<path class="st2" d="M968.9,647l-1.4-1.3c1.1-1.6,1.7-3.6,1.7-6v-8.8h10.9v14.1c0,1.2-0.6,1.8-1.8,1.8H976l-0.5-1.8
			c0.8,0.1,1.5,0.1,2.2,0.1c0.4,0,0.5-0.3,0.5-0.7v-3H971C970.7,643.6,970.1,645.5,968.9,647z M978.2,632.6h-7.1v2.5h7.1V632.6z
			 M971.1,639.5h7.1v-2.7h-7.1V639.5z"/>
	</g>
	<g class="st0">
		<path class="st3" d="M950.6,665.6v1.1h-4V677h-1.3v-10.3h-4v-1.1H950.6z"/>
		<path class="st3" d="M953.6,665.9c0.2,0.2,0.3,0.4,0.3,0.7c0,0.3-0.1,0.5-0.3,0.7c-0.2,0.2-0.4,0.3-0.7,0.3s-0.5-0.1-0.7-0.3
			c-0.2-0.2-0.3-0.4-0.3-0.7c0-0.3,0.1-0.5,0.3-0.7c0.2-0.2,0.4-0.3,0.7-0.3S953.4,665.7,953.6,665.9z M953.6,668.7v8.3h-1.3v-8.3
			H953.6z"/>
		<path class="st3" d="M960.2,665.6c1.8,0,3.2,0.5,4.1,1.6c0.8,1,1.3,2.4,1.3,4.1c0,1.8-0.5,3.2-1.4,4.1c-1,1-2.3,1.6-4.1,1.6h-4
			v-11.4H960.2z M957.5,675.9h2.4c1.5,0,2.6-0.4,3.4-1.2c0.7-0.8,1.1-1.9,1.1-3.4c0-1.5-0.3-2.7-1-3.4c-0.7-0.8-1.8-1.2-3.3-1.2
			h-2.6V675.9z"/>
		<path class="st3" d="M972.6,665.6c1.1,0,1.9,0.3,2.5,0.8c0.6,0.5,0.9,1.2,0.9,2.1c0,0.6-0.2,1.2-0.5,1.7c-0.4,0.4-0.8,0.7-1.4,0.9
			c0.8,0.1,1.3,0.4,1.7,0.9c0.4,0.5,0.6,1.1,0.6,1.9c0,1.1-0.4,2-1.2,2.5c-0.7,0.4-1.6,0.7-2.8,0.7h-5.1v-11.4H972.6z M968.8,670.6
			h3.5c0.8,0,1.4-0.2,1.8-0.5c0.4-0.3,0.6-0.8,0.6-1.5c0-0.6-0.2-1.1-0.6-1.4c-0.4-0.3-1-0.5-1.8-0.5h-3.5V670.6z M968.8,675.9h3.6
			c0.8,0,1.4-0.2,1.9-0.4c0.6-0.4,0.8-0.9,0.8-1.6s-0.3-1.3-0.7-1.6c-0.5-0.4-1.1-0.5-2-0.5h-3.6V675.9z"/>
		<path class="st3" d="M991,678.3c-1,0-1.9-0.1-2.5-0.3c-0.6-0.2-1.2-0.6-1.7-1.2c-0.2-0.3-0.4-0.4-0.6-0.4c-0.4,0-1,0.7-1.9,2.2
			l-0.9-0.8c0.8-1.3,1.6-2.2,2.3-2.4v-4.9h-2.3v-1.1h3.3v6c0.1,0.1,0.3,0.2,0.4,0.4c0.4,0.5,0.8,0.8,1.2,1c0.5,0.2,1.2,0.4,2.2,0.4
			c0.8,0,1.9,0,3.2,0c0.7,0,1.5,0,2.3,0c0.8,0,1.4,0,1.8-0.1l-0.3,1.2h-3.6C993,678.3,992,678.3,991,678.3z M987.3,666.7l-0.8,0.8
			c-0.7-0.8-1.6-1.6-2.8-2.5l0.8-0.8C985.6,665,986.5,665.8,987.3,666.7z M992.8,666.9c0.8-0.4,1.6-0.9,2.3-1.5H988v-1h8.7v0.8
			c-1,0.8-2,1.6-3.1,2.2l0.3,0.2h3.2v7.2c0,0.8-0.4,1.2-1.3,1.2h-1.3l-0.3-1l1.3,0c0.4,0,0.6-0.2,0.6-0.5v-1.2h-2.7v2.8h-1.1v-2.8
			h-2.7v2.8h-1.1v-8.5h4c-0.6-0.4-1.3-0.9-2.1-1.3l0.7-0.7C991.6,666.1,992.3,666.5,992.8,666.9z M992.1,668.6h-2.7v1.4h2.7V668.6z
			 M989.4,672.5h2.7V671h-2.7V672.5z M995.9,668.6h-2.7v1.4h2.7V668.6z M993.2,672.5h2.7V671h-2.7V672.5z"/>
		<path class="st3" d="M1007.2,678.3c-1.1,0-2-0.1-2.6-0.3c-0.7-0.2-1.3-0.6-1.8-1.2c-0.2-0.3-0.4-0.4-0.7-0.4c-0.4,0-1,0.7-1.9,2.2
			l-0.9-0.8c0.9-1.4,1.6-2.2,2.3-2.5v-4.8h-2.3v-1.1h3.4v6c0.1,0.1,0.3,0.2,0.4,0.4c0.4,0.4,0.8,0.8,1.3,1c0.5,0.2,1.3,0.3,2.3,0.4
			c0.9,0,2,0,3.3,0c0.7,0,1.4,0,2.1,0c0.7,0,1.3,0,1.7-0.1l-0.3,1.2h-3.4C1009.2,678.3,1008.3,678.3,1007.2,678.3z M1003.2,666.7
			l-0.8,0.8c-0.7-0.8-1.6-1.7-2.7-2.6l0.8-0.8C1001.5,665,1002.4,665.8,1003.2,666.7z M1007.4,676.2l-0.3-1.1c0.7,0,1.5,0.1,2.1,0.1
			c0.4,0,0.7-0.2,0.7-0.7v-6.8h-6.1v-1.1h6.1V664h1.2v2.6h2.4v1.1h-2.4v7.1c0,0.9-0.5,1.4-1.5,1.4H1007.4z M1008,672.2l-0.9,0.6
			c-0.6-1-1.3-2-2.3-3.2l0.9-0.6C1006.7,670.3,1007.5,671.3,1008,672.2z"/>
		<path class="st3" d="M1015.3,671.7l-0.4-1.2c1.6-1.9,2.7-4.2,3.4-6.7l1.1,0.5c-0.4,1.2-0.8,2.4-1.4,3.5v10.9h-1.1v-9
			C1016.4,670.3,1015.9,671,1015.3,671.7z M1024.3,666c-0.2-0.6-0.5-1.2-0.8-1.9l1.1-0.3c0.3,0.7,0.6,1.3,0.8,1.9l-0.6,0.2h5v1.1
			h-10.4V666H1024.3z M1028.7,678.6h-1.1v-0.9h-5.9v0.9h-1.1V673h8.2V678.6z M1028.4,668.4v1h-7.6v-1H1028.4z M1028.4,670.7v1.1
			h-7.6v-1.1H1028.4z M1027.6,676.6v-2.5h-5.9v2.5H1027.6z"/>
		<path class="st3" d="M1039,678.3c-1,0-1.9-0.1-2.5-0.3c-0.6-0.2-1.2-0.6-1.7-1.2c-0.2-0.3-0.4-0.4-0.6-0.4c-0.4,0-1,0.7-1.9,2.2
			l-0.9-0.8c0.8-1.3,1.6-2.2,2.3-2.4v-4.9h-2.3v-1.1h3.3v6c0.1,0.1,0.3,0.2,0.4,0.4c0.4,0.5,0.8,0.8,1.2,1c0.5,0.2,1.2,0.4,2.2,0.4
			c0.8,0,1.9,0,3.2,0c0.7,0,1.5,0,2.3,0c0.8,0,1.4,0,1.8-0.1l-0.3,1.2h-3.6C1041,678.3,1040,678.3,1039,678.3z M1035.3,666.7
			l-0.8,0.8c-0.7-0.8-1.6-1.6-2.8-2.5l0.8-0.8C1033.6,665,1034.5,665.8,1035.3,666.7z M1040.8,666.9c0.8-0.4,1.6-0.9,2.3-1.5h-7.1
			v-1h8.7v0.8c-1,0.8-2,1.6-3.1,2.2l0.3,0.2h3.2v7.2c0,0.8-0.4,1.2-1.3,1.2h-1.3l-0.3-1l1.3,0c0.4,0,0.6-0.2,0.6-0.5v-1.2h-2.7v2.8
			h-1.1v-2.8h-2.7v2.8h-1.1v-8.5h4c-0.6-0.4-1.3-0.9-2.1-1.3l0.7-0.7C1039.6,666.1,1040.3,666.5,1040.8,666.9z M1040.1,668.6h-2.7
			v1.4h2.7V668.6z M1037.4,672.5h2.7V671h-2.7V672.5z M1043.9,668.6h-2.7v1.4h2.7V668.6z M1041.2,672.5h2.7V671h-2.7V672.5z"/>
		<path class="st3" d="M1052.3,664.6v0.9c-0.4,1.5-0.9,3-1.5,4.5c0.9,1.4,1.4,2.7,1.5,3.8c0,0.7-0.2,1.2-0.5,1.6
			c-0.4,0.4-1.2,0.6-2.3,0.6l-0.4-1.2c0.3,0,0.5,0.1,0.6,0.1c0.5,0,0.9-0.1,1.1-0.3c0.2-0.2,0.3-0.4,0.3-0.8c0-1.1-0.5-2.3-1.5-3.6
			c0.7-1.7,1.2-3.2,1.5-4.5h-2.4v13h-1.1v-14.1H1052.3z M1061.5,671.3v1.1h-2.7v4.3c0,0.4,0.1,0.6,0.5,0.6h0.7
			c0.2,0,0.4-0.1,0.4-0.2c0.2-0.1,0.3-0.8,0.3-2.1l1.1,0.4c-0.1,1.4-0.3,2.3-0.5,2.6c-0.2,0.2-0.6,0.4-1.1,0.4h-1.3
			c-0.4,0-0.7-0.1-0.9-0.4c-0.2-0.3-0.3-0.6-0.3-1v-4.6h-1.5c-0.1,1.7-0.4,2.9-0.8,3.7c-0.5,1-1.4,1.8-2.7,2.4l-0.7-0.9
			c1.1-0.6,1.9-1.2,2.4-2c0.4-0.7,0.7-1.8,0.8-3.2h-2.2v-1.1H1061.5z M1061.4,668.6h-1.1v-2.2h-6.2v2.2h-1.1v-3.2h3.6
			c-0.2-0.5-0.4-0.9-0.6-1.3l1.2-0.2c0.2,0.4,0.4,1,0.6,1.5h3.7V668.6z M1060.2,668.4v1h-6.1v-1H1060.2z"/>
		<path class="st3" d="M1069.2,664.9c-0.8,1.3-1.5,2.4-2.3,3.3c-0.8,0.9-1.9,1.8-3.2,2.7l-0.6-1c1.1-0.6,2.1-1.4,3-2.4
			c0.8-0.9,1.5-1.9,2.1-3.2L1069.2,664.9z M1065.5,671.4v-1.1h9.6c0,2-0.1,3.6-0.3,4.9c-0.2,1.2-0.4,2.1-0.8,2.6
			c-0.4,0.5-0.9,0.7-1.7,0.8h-2.9l-0.3-1.1c0.9,0,1.8,0,2.6,0c0.9,0,1.4-0.4,1.7-1.1c0.3-0.8,0.5-2.4,0.5-4.9h-4
			c-0.4,1.7-0.9,3.1-1.6,4.2c-0.8,1.2-2,2.2-3.7,3.1l-0.7-1c1.5-0.8,2.6-1.7,3.3-2.6c0.7-0.9,1.2-2.1,1.5-3.6H1065.5z M1077.7,669.9
			l-0.8,0.9c-2.5-1.6-4.2-3.7-5.2-6.2l1-0.6C1073.7,666.5,1075.3,668.5,1077.7,669.9z"/>
		<path class="st3" d="M1088,668.1v2h4.5v5.4c0,1-0.5,1.5-1.5,1.5h-1.5l-0.3-1.1l1.4,0c0.5,0,0.8-0.2,0.8-0.7v-4.1h-3.4v7.4h-1.1
			v-7.4h-3.4v5.9h-1.1v-6.1c-0.8,0.8-1.7,1.6-2.6,2.3l-0.7-1c2-1.5,3.6-3.2,4.8-5.2h-4.3V666h4.9c0.4-0.7,0.6-1.4,0.9-2.1l1.2,0.1
			c-0.2,0.7-0.5,1.4-0.8,2h7.8v1.1h-8.3c-0.6,1.1-1.2,2-2,3h3.8v-2H1088z"/>
		<path class="st3" d="M1102.5,670.6v1.1h-2.8v4.2c1.2-0.2,2.3-0.5,3.4-0.8v1.1c-2.3,0.6-4.8,1-7.5,1.4l-0.3-1.1
			c1.1-0.1,2.1-0.3,3.1-0.4v-4.4h-2.8v-1.1H1102.5z M1103.3,666.8c0-0.9-0.1-1.9-0.1-2.8h1.2c0,1,0,1.9,0.1,2.8h4.9v1.1h-4.9
			c0.2,2.7,0.6,4.9,1.2,6.7c0.7,1.8,1.3,2.7,1.8,2.7c0.3,0,0.7-1,1-2.8l1,0.5c-0.5,2.3-1.1,3.5-2,3.5c-1.4-0.1-2.6-1.9-3.6-5.3
			c-0.4-1.5-0.6-3.3-0.7-5.3h-7.9v-1.1H1103.3z M1108.4,666.1l-1,0.5c-0.5-0.8-1-1.5-1.5-2.1l1-0.5
			C1107.4,664.7,1107.9,665.4,1108.4,666.1z"/>
		<path class="st3" d="M1115.3,671.5c-0.1,0.3-0.2,0.6-0.3,0.9h3.3v0.9c-0.4,1.1-0.9,2-1.8,2.7c0.8,0.4,1.5,0.7,2.2,1.1l-0.6,0.9
			c-0.7-0.4-1.5-0.8-2.5-1.3c-1.1,0.7-2.4,1.3-4,1.8l-0.5-1c1.3-0.4,2.4-0.8,3.4-1.3c-0.7-0.3-1.4-0.6-2.2-0.9
			c0.4-0.7,0.8-1.4,1.1-2h-1.9v-1h2.3c0.1-0.4,0.3-0.7,0.4-1L1115.3,671.5z M1114.6,667v-3.1h1.1v3.1h2.9v1h-2.9v0.2
			c0.9,0.4,1.8,0.9,2.7,1.5l-0.6,0.9c-0.8-0.6-1.5-1.2-2.1-1.5v2.1h-1.1v-3c-0.5,1.3-1.5,2.4-2.9,3.3l-0.6-0.9
			c1.2-0.7,2.1-1.5,2.6-2.4h-2.3v-1H1114.6z M1113.8,666.2l-0.8,0.4c-0.3-0.8-0.7-1.5-1.1-2.1l0.9-0.3
			C1113.1,664.9,1113.5,665.5,1113.8,666.2z M1117.3,673.4h-2.8c-0.3,0.5-0.5,1.1-0.9,1.5c0.6,0.2,1.2,0.4,1.8,0.7
			C1116.3,675,1116.9,674.2,1117.3,673.4z M1118.5,664.6c-0.3,0.7-0.7,1.4-1.2,2.1l-0.8-0.4c0.5-0.7,0.9-1.4,1.2-2L1118.5,664.6z
			 M1120.2,670.1c-0.3,0.7-0.6,1.4-0.9,2l-0.7-0.9c0.9-1.8,1.6-4.2,1.9-7.3l1.1,0.2c-0.1,0.8-0.2,1.6-0.4,2.3h4.2v1.1h-1
			c-0.1,2.7-0.6,5-1.5,6.9c0.8,1.4,1.8,2.5,3,3.3l-0.6,0.9c-1.1-0.8-2.1-1.9-2.9-3.2c-0.8,1.3-1.8,2.4-3,3.2l-0.6-1
			c1.2-0.9,2.2-2,3-3.3C1121.2,673.1,1120.7,671.7,1120.2,670.1z M1120.8,668.3c0.4,1.9,0.9,3.5,1.6,4.8c0.6-1.6,1-3.5,1-5.7h-2.4
			L1120.8,668.3z"/>
		<path class="st3" d="M1127.7,678.5l-0.2-1.1c0.4,0,0.8,0.1,1.2,0.1c0.4,0,0.6-0.2,0.6-0.7v-3.9c-0.6,0.2-1.3,0.5-1.9,0.7l-0.3-1.1
			c0.7-0.2,1.5-0.4,2.2-0.7v-3.6h-1.9V667h1.9v-3h1.1v3h1.5v1.1h-1.5v3.2c0.5-0.2,1-0.5,1.5-0.7v1.1c-0.5,0.3-1,0.5-1.5,0.7v4.7
			c0,0.9-0.4,1.4-1.3,1.4H1127.7z M1132,678.6l-0.9-0.8c1.1-2.1,1.7-4.9,1.7-8.2v-5h8.4v3.9h-3v1.9h3.4v1h-3.4v2h2.7v5.2h-1.1v-0.8
			h-4.3v0.8h-1.1v-5.2h2.7v-2h-3.3C1133.7,674.1,1133,676.5,1132,678.6z M1133.9,668.5v1.1c0,0.3,0,0.5,0,0.8h3.2v-1.9H1133.9z
			 M1133.9,665.6v1.8h6.2v-1.8H1133.9z M1139.9,676.8v-2.4h-4.3v2.4H1139.9z"/>
		<path class="st3" d="M1151.8,665.3h5.8v1.1h-11.9v3.6c-0.1,3.5-0.6,6.4-1.6,8.5l-0.9-0.8c0.9-1.8,1.3-4.4,1.4-7.6v-4.8h6
			c-0.3-0.5-0.5-0.9-0.8-1.3l1.3-0.2C1151.3,664.3,1151.6,664.8,1151.8,665.3z M1151.1,667.2c-0.1,0.4-0.3,0.9-0.4,1.3h6.2v1h-6.6
			c-0.4,1-0.9,1.9-1.4,2.7h3v-1.9h1.2v1.9h3.6v1h-3.6v1.8h4.8v1.1h-4.8v2.5h-1.2v-2.5h-5.8V675h5.8v-1.8h-4.2l-0.2-1
			c0.6-0.8,1.2-1.7,1.7-2.8h-2.4v-1h2.8c0.2-0.5,0.4-1,0.5-1.5L1151.1,667.2z"/>
		<path class="st3" d="M1160.6,667.1c0,1.6-0.2,3.1-0.5,4.6l-0.9-0.3c0.3-1.4,0.5-2.8,0.6-4.4L1160.6,667.1z M1162.5,664v14.6h-1.2
			V664H1162.5z M1164.6,669.4c0.5-1.4,0.9-2.9,0.9-4.5l1,0.1c0,0.7-0.1,1.3-0.2,1.9h2.3v-3h1.2v3h3.5v1.1h-3.5v3.9h3.2v1.1h-3.2v3.9
			h3.9v1.1h-9.7V677h4.6v-3.9h-3.7V672h3.7v-3.9h-2.5c-0.3,1.2-0.7,2.3-1.3,3.2l-0.8-0.8c0.2-0.4,0.3-0.7,0.5-1l-0.8,0.2
			c-0.2-1-0.5-1.9-0.9-2.8l0.8-0.3C1164,667.5,1164.3,668.4,1164.6,669.4z"/>
		<path class="st3" d="M1183.2,668.4l-0.9,0.7c-0.2-0.4-0.4-0.7-0.6-1.1c-1.7,0.3-3.8,0.5-6.1,0.6l-0.3-1c0.2-0.1,0.4-0.2,0.5-0.3
			c1-1,1.8-2.2,2.5-3.5l1.1,0.3c-0.7,1.4-1.5,2.5-2.4,3.4c1.3-0.1,2.8-0.2,4.3-0.4c-0.3-0.5-0.7-1.1-1.1-1.6l0.9-0.6
			C1181.9,666.4,1182.7,667.5,1183.2,668.4z M1177.3,678.6h-1.1v-9h5.9v7.5c0,0.9-0.4,1.4-1.3,1.4h-1.3l-0.3-1.1l1.2,0
			c0.4,0,0.6-0.2,0.6-0.6v-1.3h-3.7V678.6z M1181,670.6h-3.7v1.6h3.7V670.6z M1177.3,674.6h3.7v-1.5h-3.7V674.6z M1185.1,670.9
			c-1,0-1.5-0.5-1.5-1.6V664h1.1v2.1c1.8-0.3,3.2-0.6,4.3-0.8l0.4,1c-1.3,0.3-2.9,0.6-4.7,0.9v2c0,0.5,0.2,0.8,0.6,0.8h2.1
			c0.3,0,0.5-0.1,0.7-0.3c0.2-0.2,0.3-0.8,0.3-1.8l1.1,0.3c-0.1,1.3-0.3,2.1-0.6,2.4c-0.3,0.2-0.7,0.4-1.2,0.4H1185.1z
			 M1184.8,676.8c0,0.3,0.2,0.5,0.6,0.5h2.2c0.3,0,0.6-0.1,0.7-0.2c0.2-0.2,0.3-0.8,0.4-1.8l1,0.3c-0.1,1.3-0.3,2.1-0.6,2.4
			c-0.3,0.2-0.7,0.4-1.2,0.4h-2.7c-1,0-1.4-0.4-1.4-1.3v-5.6h1.1v2c1.6-0.2,3-0.4,4.3-0.8l0.4,1c-1.4,0.4-3,0.7-4.7,0.8V676.8z"/>
		<path class="st3" d="M1200.3,673.5v1.1h-9v-1.1H1200.3z M1195.2,664l-0.2,2.1h9.7v1.1h-9.8l-0.3,2.6h9c0,4.4-0.3,6.9-0.9,7.6
			c-0.6,0.7-1.9,1-3.8,1c-0.5,0-1,0-1.6-0.1l-0.3-1.1c0.8,0.1,1.3,0.1,1.6,0.1c1.8,0,2.9-0.3,3.2-0.9c0.4-0.7,0.6-2.5,0.6-5.6h-9.1
			l0.8-7L1195.2,664z"/>
		<path class="st3" d="M1210.6,665.1v-1.2h1.1v1.2h5.5v-1.2h1.1v1.2h2.8v1h-2.8v5.3h3.1v1h-3.3c0.8,1,2,1.7,3.6,2.3l-0.5,1
			c-2-0.8-3.4-1.9-4.2-3.2h-5c-0.8,1.3-2.2,2.4-4,3.3l-0.6-1c1.6-0.6,2.8-1.4,3.5-2.3h-3.3v-1h3.1v-5.3h-2.8v-1H1210.6z M1215,673
			v1.3h3.2v1h-3.2v1.7h5.5v1.1h-12.2V677h5.6v-1.7h-3.3v-1h3.3V673H1215z M1217.2,667.3v-1.2h-5.5v1.2H1217.2z M1217.2,669.3v-1.1
			h-5.5v1.1H1217.2z M1217.2,671.4v-1.2h-5.5v1.2H1217.2z"/>
		<path class="st3" d="M1223.4,665.9v-1.1h5.4v1.1h-2.4c-0.2,1.3-0.5,2.5-0.9,3.6h3v8.5h-1v-1h-1.7v1.2h-1v-7
			c-0.3,0.7-0.7,1.3-1.1,1.9l-0.6-1c1.2-1.8,1.9-3.9,2.3-6.2H1223.4z M1227.4,676.1v-5.5h-1.7v5.5H1227.4z M1235.9,665.3h1.1v5.2h-3
			v6h2.3v-4.6h1.1v6.7h-1.1v-1.1h-5.6v1.1h-1.1v-6.7h1.1v4.6h2.2v-6h-3v-5.2h1.1v4.2h1.9V664h1.1v5.5h1.9V665.3z"/>
		<path class="st3" d="M1247.2,668.4l-0.9,0.7c-0.2-0.4-0.4-0.7-0.6-1.1c-1.7,0.3-3.8,0.5-6.1,0.6l-0.3-1c0.2-0.1,0.4-0.2,0.5-0.3
			c1-1,1.8-2.2,2.5-3.5l1.1,0.3c-0.7,1.4-1.5,2.5-2.4,3.4c1.3-0.1,2.8-0.2,4.3-0.4c-0.3-0.5-0.7-1.1-1.1-1.6l0.9-0.6
			C1245.9,666.4,1246.7,667.5,1247.2,668.4z M1241.3,678.6h-1.1v-9h5.9v7.5c0,0.9-0.4,1.4-1.3,1.4h-1.3l-0.3-1.1l1.2,0
			c0.4,0,0.6-0.2,0.6-0.6v-1.3h-3.7V678.6z M1245,670.6h-3.7v1.6h3.7V670.6z M1241.3,674.6h3.7v-1.5h-3.7V674.6z M1249.1,670.9
			c-1,0-1.5-0.5-1.5-1.6V664h1.1v2.1c1.8-0.3,3.2-0.6,4.3-0.8l0.4,1c-1.3,0.3-2.9,0.6-4.7,0.9v2c0,0.5,0.2,0.8,0.6,0.8h2.1
			c0.3,0,0.5-0.1,0.7-0.3c0.2-0.2,0.3-0.8,0.3-1.8l1.1,0.3c-0.1,1.3-0.3,2.1-0.6,2.4c-0.3,0.2-0.7,0.4-1.2,0.4H1249.1z
			 M1248.8,676.8c0,0.3,0.2,0.5,0.6,0.5h2.2c0.3,0,0.6-0.1,0.7-0.2c0.2-0.2,0.3-0.8,0.4-1.8l1,0.3c-0.1,1.3-0.3,2.1-0.6,2.4
			c-0.3,0.2-0.7,0.4-1.2,0.4h-2.7c-1,0-1.4-0.4-1.4-1.3v-5.6h1.1v2c1.6-0.2,3-0.4,4.3-0.8l0.4,1c-1.4,0.4-3,0.7-4.7,0.8V676.8z"/>
		<path class="st3" d="M1262.3,664v1.6c0,0.6,0,1.1-0.1,1.6h6.1c-0.1,2.8-0.2,5-0.3,6.7c-0.2,1.7-0.4,2.9-0.8,3.5
			c-0.4,0.6-1,1-1.8,1h-2.1l-0.3-1.1c0.6,0,1.3,0,1.8,0c0.9,0,1.5-0.6,1.8-1.7c0.3-1.2,0.5-3.7,0.6-7.4h-5.1
			c-0.2,2.3-0.7,4.2-1.4,5.7c-1,2-2.5,3.5-4.6,4.6l-0.6-1c2.1-1.1,3.6-2.6,4.4-4.5c0.5-1.3,0.9-2.9,1.1-4.8h-4.7v-1.1h4.8
			c0-0.5,0-1.1,0.1-1.6V664H1262.3z"/>
		<path class="st3" d="M1285.5,664.7v1.1h-4.3v2.5h3.6v8.6c0,1.1-0.5,1.6-1.4,1.6h-1.6l-0.3-1.1l1.6,0c0.4,0,0.6-0.3,0.6-0.8v-7.2
			h-2.5c0,0.4-0.1,0.9-0.1,1.3c0.7,1.1,1.5,2.4,2.2,3.8l-0.7,1.1c-0.7-1.5-1.2-2.7-1.7-3.6c-0.4,1.9-1.1,3.3-2.1,4.4l-0.8-0.8
			c1.3-1.3,2-3.4,2.2-6.1h-3.4c0,0.5-0.1,1.1-0.2,1.6c0.6,0.8,1.2,1.7,1.9,2.7l-0.7,1c-0.6-1.1-1-2-1.4-2.6c-0.4,1.6-1,2.9-1.9,3.9
			l-0.9-0.8c1.2-1.3,1.9-3.2,2.1-5.7h-2.4v9.1h-1.1v-10.2h3.5v-2.5h-4.3v-1.1H1285.5z M1280.1,668.3v-2.5h-3.4v2.5H1280.1z"/>
		<path class="st3" d="M1287.3,666.6v-1.1h4.9v1.1h-1.9v7.2c0.7-0.2,1.3-0.5,2-0.7v1.2c-1.4,0.6-3,1.1-4.9,1.6l-0.3-1.1
			c0.7-0.2,1.4-0.4,2.1-0.5v-7.6H1287.3z M1297.8,669.5v2.8c-0.1,1.7-0.5,3.1-1.4,4.1c-0.8,0.9-2.2,1.7-4.1,2.2l-0.6-1
			c1.9-0.5,3.2-1.2,3.9-2c0.7-0.9,1-2,1.1-3.4v-2.8H1297.8z M1301.8,664.6v1.1h-3.8c-0.1,0.6-0.2,1.2-0.3,1.7h3.4v7.5h-1.1v-6.5
			h-5.1v6.5h-1.1v-7.5h2.8c0.2-0.5,0.3-1.1,0.4-1.7h-3.9v-1.1H1301.8z M1301.9,677.9l-0.8,0.8c-0.8-0.9-1.9-1.9-3.3-3l0.8-0.7
			C1299.9,676,1301,676.9,1301.9,677.9z"/>
		<path class="st3" d="M1306.6,668.8v7.1c0.5-0.4,1.1-1,1.6-1.6l0.3,1.2c-0.9,0.9-1.9,1.7-3,2.5l-0.4-1c0.2-0.2,0.4-0.4,0.4-0.7
			v-6.4h-2.4v-1.1H1306.6z M1307.8,666.5l-0.8,0.8c-0.7-0.8-1.6-1.6-2.8-2.5l0.8-0.8C1306.1,664.9,1307,665.7,1307.8,666.5z
			 M1317.4,664.7v1.1h-3.8v6h4.3v1.1h-4.3v5.7h-1.1v-5.7h-4.2v-1.1h4.2v-6h-3.8v-1.1H1317.4z M1311.2,670.7l-1,0.3
			c-0.3-1.4-0.8-2.7-1.3-4l1-0.3C1310.4,667.8,1310.8,669.2,1311.2,670.7z M1316.9,666.8c-0.3,1.6-0.8,2.9-1.3,4.1l-1-0.3
			c0.5-1.1,0.9-2.4,1.2-4L1316.9,666.8z"/>
		<path class="st3" d="M1322.1,670.5l-0.8,0.8c-0.5-0.7-1.3-1.5-2.2-2.3l0.8-0.7C1320.8,669,1321.5,669.7,1322.1,670.5z
			 M1322.3,672.9c-0.6,2-1.3,3.8-2,5.5l-1.1-0.4c0.8-1.8,1.5-3.6,2.1-5.5L1322.3,672.9z M1322.4,666.4l-0.8,0.8
			c-0.5-0.7-1.3-1.4-2.3-2.1l0.8-0.8C1321.1,665,1321.8,665.7,1322.4,666.4z M1326.2,666.8v5.1c0,1.8-0.3,3.3-0.9,4.4
			c-0.5,1-1.4,1.8-2.6,2.4l-0.6-1c1.2-0.5,2-1.3,2.4-2.2c0.4-0.9,0.7-2.1,0.7-3.6v-5.1H1326.2z M1328.4,674.5h-1v-8.8h-3.3v8.9h-1
			v-9.9h5.4V674.5z M1329.2,677.8l-0.8,0.8c-0.6-0.8-1.4-1.7-2.4-2.7l0.7-0.7C1327.7,676.1,1328.5,677,1329.2,677.8z M1330.7,665.3
			v10h-1v-10H1330.7z M1330.1,678.5l-0.2-1.1c0.6,0,1.1,0.1,1.6,0.1c0.4,0,0.6-0.2,0.6-0.6V664h1.1v13.1c0,0.9-0.4,1.4-1.3,1.4
			H1330.1z"/>
	</g>
	<path id="路径_10998" class="st4" d="M862.5,420v256"/>
	<g class="st0">
		<path class="st1" d="M617.6,1004c5.2-4.3,9.3-7.9,12.4-10.6c3-2.8,5.6-5.7,7.6-8.7s3.1-6,3.1-8.9c0-2.2-0.5-3.9-1.5-5.1
			c-1-1.2-2.5-1.8-4.6-1.8c-2,0-3.6,0.8-4.8,2.3c-1.1,1.5-1.7,3.7-1.7,6.4H615c0.1-4.5,1.1-8.3,2.9-11.4c1.8-3,4.3-5.3,7.3-6.7
			c3-1.4,6.4-2.2,10-2.2c6.3,0,11.1,1.6,14.4,4.9c3.2,3.3,4.8,7.5,4.8,12.7c0,5.7-1.9,11-5.8,15.9c-3.9,4.9-8.9,9.6-14.9,14.3h21.6
			v11.1h-40.2V1006C616.9,1004.6,617.8,1003.9,617.6,1004z"/>
		<path class="st1" d="M666.6,965.3c3.5-5.3,9.3-7.9,17.2-7.9c7.9,0,13.6,2.6,17.2,7.9c3.5,5.3,5.3,12.5,5.3,21.7
			c0,9.3-1.8,16.6-5.3,21.8c-3.5,5.3-9.3,7.9-17.2,7.9c-7.9,0-13.6-2.6-17.2-7.9c-3.5-5.3-5.3-12.6-5.3-21.8
			C661.3,977.8,663.1,970.6,666.6,965.3z M691,974.6c-1.2-2.9-3.6-4.4-7.3-4.4c-3.7,0-6.1,1.5-7.3,4.4c-1.2,2.9-1.8,7.1-1.8,12.4
			c0,3.6,0.2,6.6,0.6,9c0.4,2.4,1.3,4.3,2.6,5.8c1.3,1.5,3.2,2.2,5.8,2.2s4.5-0.7,5.8-2.2c1.3-1.5,2.2-3.4,2.6-5.8
			c0.4-2.4,0.6-5.4,0.6-9C692.8,981.6,692.2,977.5,691,974.6z"/>
		<path class="st1" d="M712,971.3v-12.7h22.2v58.4h-14.2v-45.7H712z"/>
		<path class="st1" d="M784.6,970.5h-25v11c1.1-1.2,2.6-2.1,4.5-2.9c1.9-0.7,4-1.1,6.2-1.1c4,0,7.3,0.9,10,2.7
			c2.6,1.8,4.6,4.2,5.8,7c1.2,2.9,1.8,6,1.8,9.4c0,6.2-1.8,11.2-5.3,14.8c-3.5,3.7-8.5,5.5-14.9,5.5c-4.3,0-8-0.7-11.1-2.2
			c-3.1-1.5-5.6-3.5-7.3-6.1c-1.7-2.6-2.6-5.6-2.8-9H760c0.3,1.7,1.1,3,2.3,4.1c1.2,1.1,2.9,1.6,5,1.6c2.5,0,4.4-0.8,5.6-2.4
			c1.2-1.6,1.8-3.7,1.8-6.4c0-2.6-0.6-4.6-1.9-6c-1.3-1.4-3.1-2.1-5.6-2.1c-1.8,0-3.3,0.4-4.5,1.3c-1.2,0.9-1.9,2-2.3,3.5h-13.2
			v-34.8h37.4V970.5z"/>
	</g>
	<path id="路径_10997" class="st4" d="M862.5,956.7v60.3"/>
	<g class="st0">
		<path class="st2" d="M949.6,964.1v8.4h1.9v1.7h-1.9v2.8h-2v-2.8h-6.2v-2l6.3-8.1H949.6z M943.1,972.6h4.5v-5.8h-0.1L943.1,972.6z"
			/>
		<path class="st2" d="M961.6,979l-1.4-1.3c1.1-1.6,1.7-3.6,1.7-6v-8.8h10.9v14.1c0,1.2-0.6,1.8-1.8,1.8h-2.3l-0.5-1.8
			c0.8,0.1,1.5,0.1,2.2,0.1c0.4,0,0.5-0.3,0.5-0.7v-3h-7.2C963.4,975.6,962.7,977.5,961.6,979z M970.8,964.6h-7.1v2.5h7.1V964.6z
			 M963.7,971.5h7.1v-2.7h-7.1V971.5z"/>
	</g>
	<g class="st0">
		<path class="st3" d="M955.5,996.9v1.1h-6v6h6.6v1.1h-6.6v5.7h-1.2v-5.7h-6.4v-1.1h6.4v-6h-5.8v-1.1H955.5z M946.2,1002.7l-1.1,0.5
			c-0.5-1.4-1.1-2.6-1.7-3.7l1.1-0.5C945.1,1000.2,945.7,1001.4,946.2,1002.7z M954.6,999.5c-0.5,1.3-1.1,2.5-1.9,3.7l-1-0.5
			c0.8-1.2,1.4-2.5,1.9-3.7L954.6,999.5z"/>
		<path class="st3" d="M964.1,1007.5l0.2,1.1c-1.7,0.6-3.6,1.2-5.6,1.8l-0.3-1c0.3-0.1,0.4-0.4,0.4-0.7v-3.7h4.1v-1.9H958v-1h6v4
			h-4.1v2.9C961.2,1008.5,962.7,1008,964.1,1007.5z M963.4,997h1v3.7h-6.2V997h1v2.7h1.6v-3.4h1v3.4h1.6V997z M965.3,1006.9
			c0.2-1,0.4-2.3,0.4-3.9v-6.2h4.4v12.2c0,0.3,0.1,0.4,0.4,0.4h0.4c0.2,0,0.3,0,0.4-0.1c0.1-0.1,0.2-0.3,0.2-0.5
			c0-0.4,0.1-1.3,0.1-2.9l0.9,0.3c0,1.2,0,2.1-0.1,2.8c-0.1,0.6-0.2,1-0.4,1.3c-0.2,0.2-0.5,0.3-1,0.3h-0.5c-1,0-1.5-0.5-1.5-1.4
			v-11.3h-2.2v5.2c0,1.7-0.2,3.2-0.4,4.3c-0.3,1.2-0.9,2.4-1.7,3.5l-0.8-0.8C964.5,1009.1,965,1008,965.3,1006.9z"/>
		<path class="st3" d="M974.9,1007.9l-0.8-0.9c0.9-1.1,1.7-2.5,2.3-4.3l1,0.2c-0.1,0.4-0.3,0.8-0.4,1.2h4v-1.3h1.2v1.3h5.3v1h-5.3
			v1.6h4.7v1h-4.7v1.6h6v1.1h-13.6v-1.1h6.4v-1.6h-4.4v-1h4.4v-1.6h-4.4C976.1,1006.2,975.5,1007.1,974.9,1007.9z M986.5,996.7v5.7
			h-10.4v-5.7H986.5z M985.4,999.1v-1.4h-8.1v1.4H985.4z M985.4,1000h-8.1v1.4h8.1V1000z"/>
		<path class="st3" d="M990.5,1010.9l-0.9-0.8c1.1-1.9,1.7-4.4,1.7-7.7v-5.5h12.4v1.1h-11.3v4.6h11.4v1.1h-5c0.1,1,0.5,1.8,1.1,2.7
			c0.9-0.5,1.7-1.2,2.5-2.2l0.8,0.8c-0.8,0.9-1.7,1.6-2.7,2.2c0.9,1,2.2,1.9,3.8,2.8l-0.8,0.9c-3.5-1.9-5.4-4.3-5.7-7.1h-2.4v5.6
			c1.3-0.3,2.4-0.7,3.4-1.1l0.2,1.1c-1.4,0.5-3,1-4.9,1.4l-0.3-1c0.3-0.1,0.5-0.4,0.5-0.8v-5.2h-1.9
			C992.2,1006.6,991.6,1009,990.5,1010.9z M1002.6,999.7v1.1h-8.7v-1.1H1002.6z"/>
		<path class="st3" d="M1019.7,996c-0.6,1.1-1.2,2.2-1.5,3.3c-0.5,1.4-0.7,2.8-0.7,4.2c0,1.4,0.2,2.8,0.7,4.2
			c0.4,1.1,0.9,2.2,1.5,3.3h-1.1c-0.7-1-1.2-2.1-1.6-3.3c-0.5-1.4-0.7-2.8-0.7-4.2c0-1.4,0.2-2.8,0.7-4.2c0.4-1.2,0.9-2.3,1.6-3.3
			H1019.7z"/>
		<path class="st3" d="M1027.5,996.3v14.5h-1.2v-2.7c-1.3,0.6-2.7,1.1-4.2,1.5l-0.3-1.1c1.6-0.4,3.1-0.9,4.5-1.5v-5.1h-4.2v-1.1h4.2
			v-4.4H1027.5z M1031.7,1010.6c-1,0-1.5-0.5-1.5-1.6v-12.8h1.2v5.4c1.4-0.5,2.7-1.2,4-2.1l0.7,0.9c-1.7,1-3.2,1.8-4.7,2.3v6.1
			c0,0.4,0.2,0.7,0.6,0.7h2c0.4,0,0.6-0.1,0.8-0.4c0.1-0.3,0.2-1.2,0.3-2.9l1.1,0.4c-0.1,1.9-0.3,3-0.5,3.4
			c-0.3,0.4-0.7,0.6-1.4,0.6H1031.7z"/>
		<path class="st3" d="M1042.3,1006.8c-1,1.4-2.3,2.7-3.8,3.7l-0.7-0.9c1.5-1,2.7-2.2,3.7-3.5L1042.3,1006.8z M1045.5,997.9h6.6v1.1
			h-14.2v-1.1h6.5c-0.2-0.6-0.5-1.1-0.7-1.6l1.2-0.2C1045.1,996.7,1045.3,997.3,1045.5,997.9z M1050.1,1000.6v4.5h-4.5v4.3
			c0,1-0.5,1.4-1.5,1.4h-1.7l-0.3-1.1c0.5,0,1.1,0.1,1.6,0.1c0.5,0,0.7-0.2,0.7-0.7v-4h-4.6v-4.5H1050.1z M1049,1001.7h-7.9v2.3h7.9
			V1001.7z M1052.1,1009.7l-0.8,0.8c-0.9-1.2-2.1-2.4-3.6-3.7l0.8-0.8C1049.9,1007.3,1051.2,1008.5,1052.1,1009.7z"/>
		<path class="st3" d="M1055.4,996c0.7,1,1.2,2.1,1.6,3.3c0.5,1.4,0.7,2.8,0.7,4.2c0,1.4-0.2,2.8-0.7,4.2c-0.4,1.2-1,2.3-1.6,3.3
			h-1.1c0.6-1.1,1.1-2.2,1.5-3.3c0.5-1.4,0.7-2.8,0.7-4.2c0-1.4-0.2-2.8-0.7-4.2c-0.4-1.2-0.9-2.3-1.5-3.3H1055.4z"/>
		<path class="st3" d="M1072.6,1000.5v-2.4c-0.8,0.1-1.6,0.2-2.4,0.3l-0.2-1.1c2.1-0.2,3.9-0.5,5.5-1l0.4,1.1
			c-0.7,0.2-1.4,0.4-2.2,0.5v2.6h2.2v1.1h-2.2v0.8c0.9,0.7,1.8,1.5,2.8,2.4l-0.7,1c-0.8-1-1.5-1.7-2.1-2.3v7.3h-1.2v-7.5
			c-0.6,1.6-1.5,3-2.6,4.3l-0.5-1.3c1.4-1.4,2.3-3,2.9-4.7h-2.5v-1.1H1072.6z M1084.4,1006l-1.6,0.3v4.6h-1.2v-4.4l-5,0.8l-0.2-1.1
			l5.2-0.8v-9h1.2v8.9l1.4-0.2L1084.4,1006z M1080.4,1003.4l-0.8,0.8c-0.7-0.8-1.7-1.7-3-2.6l0.8-0.8
			C1078.7,1001.6,1079.6,1002.5,1080.4,1003.4z M1080.9,999.6l-0.8,0.8c-0.7-0.8-1.7-1.6-2.9-2.5l0.8-0.8
			C1079.1,997.9,1080.1,998.7,1080.9,999.6z"/>
		<path class="st3" d="M1086.2,1010.7l-0.2-1.1c0.4,0,0.8,0.1,1.2,0.1c0.4,0,0.7-0.2,0.7-0.7v-3.8c-0.6,0.3-1.3,0.5-2,0.7l-0.3-1.1
			c0.8-0.2,1.5-0.4,2.2-0.7v-3.8h-1.9v-1.1h1.9v-2.9h1.1v2.9h1.7v1.1h-1.7v3.3c0.6-0.3,1.2-0.6,1.7-0.9v1.1
			c-0.6,0.3-1.2,0.6-1.7,0.9v4.6c0,1-0.5,1.4-1.4,1.4H1086.2z M1095,998.5v-2.3h1.1v2.3h3.9v1.1h-3.9v2.6h3.2v1
			c-0.6,1.8-1.5,3.3-2.8,4.5c1.1,0.8,2.4,1.5,3.9,2.2l-0.6,1c-1.6-0.7-3-1.5-4-2.4c-1.2,1-2.8,1.8-4.6,2.4l-0.5-1
			c1.7-0.6,3.1-1.3,4.3-2.2c-1.3-1.3-2.2-2.8-2.7-4.4h-0.8v-1.1h3.5v-2.6h-3.8v-1.1H1095z M1095.8,1007.1c1.1-1.1,1.9-2.3,2.4-3.8
			h-4.8C1093.8,1004.7,1094.6,1006,1095.8,1007.1z"/>
		<path class="st3" d="M1106.6,1007.4v3.4h-1.1v-8.4c-0.9,1.1-1.9,2.2-3.1,3.1l-0.8-1c2-1.6,3.6-3.4,4.7-5.5h-4.2V998h4.8
			c0.3-0.6,0.5-1.2,0.7-1.9l1.2,0.1c-0.2,0.6-0.4,1.2-0.6,1.7h8v1.1h-8.4c-0.3,0.6-0.7,1.3-1,1.9h7.4v8.6c0,0.8-0.4,1.2-1.3,1.2
			h-1.8l-0.3-1.1c0.6,0,1.2,0.1,1.7,0.1c0.4,0,0.6-0.2,0.6-0.6v-1.8H1106.6z M1106.6,1003.7h6.4v-1.7h-6.4V1003.7z M1106.6,1004.7
			v1.7h6.4v-1.7H1106.6z"/>
		<path class="st3" d="M1123.3,996.8v0.9c-0.5,1.4-1.1,2.9-1.7,4.5c1,1.4,1.6,2.7,1.6,3.8c0,0.7-0.2,1.2-0.5,1.5
			c-0.4,0.4-1.2,0.6-2.4,0.6l-0.4-1.2c0.3,0,0.5,0.1,0.6,0.1c0.6,0,1-0.1,1.2-0.2c0.2-0.1,0.3-0.4,0.3-0.7c0-1.1-0.6-2.3-1.7-3.7
			c0.8-1.7,1.3-3.2,1.8-4.5h-2.6v12.9h-1.1v-14.1H1123.3z M1125.1,1003.7v5.5c1-0.3,1.9-0.7,2.9-1.1l0.3,1.1c-1.2,0.5-2.6,1-4.3,1.4
			l-0.3-1c0.2-0.1,0.4-0.2,0.4-0.4v-12.4h7v6.9h-3c0.2,0.9,0.5,1.8,1,2.6c0.8-0.4,1.5-1.1,2.2-1.9l0.8,0.8c-0.7,0.9-1.6,1.5-2.5,2
			c0.7,1,1.7,1.9,2.9,2.6l-0.6,1c-2.7-1.7-4.3-4-4.8-7H1125.1z M1129.9,997.9h-4.7v1.8h4.7V997.9z M1125.1,1002.7h4.7v-1.8h-4.7
			V1002.7z"/>
		<path class="st3" d="M1139.3,996.8c-1.2,3.4-2.7,5.9-4.7,7.7l-0.9-0.8c2-1.8,3.5-4.3,4.5-7.3L1139.3,996.8z M1146.9,1010.4
			l-1.1,0.5c-0.2-0.5-0.5-1.1-0.7-1.5c-2.8,0.4-6,0.8-9.5,1l-0.2-1.1c1.3-0.7,2.9-3.2,4.8-7.6l1.1,0.4c-1.4,3-2.8,5.4-4.1,7.2
			c2.6-0.2,5.1-0.4,7.3-0.8c-0.6-1.2-1.3-2.2-1.9-3.2l1-0.4C1145,1006.6,1146,1008.4,1146.9,1010.4z M1148.3,1003.5l-0.8,0.9
			c-2.4-2-4.1-4.6-5-7.7l1-0.5C1144.4,999.2,1146,1001.7,1148.3,1003.5z"/>
		<path class="st3" d="M1160,1000v1h-9.8v-1H1160z M1159,1010.8l-0.3-1.1l2.2,0c0.5,0,0.7-0.3,0.7-1V998h-10.9v-1.1h12v12.2
			c0,1.1-0.5,1.7-1.6,1.7H1159z M1158.4,1003v4.9h-7.1v-4.9H1158.4z M1157.3,1004.1h-4.8v2.9h4.8V1004.1z"/>
		<path class="st3" d="M1178.9,997.9l-0.7,0.7h2v1.1h-4.9c0.1,2,0.3,3.6,0.6,4.7c0.1,0.4,0.2,0.8,0.3,1.1c0.8-1.3,1.4-2.8,1.9-4.5
			l1,0.4c-0.6,2.1-1.5,3.9-2.5,5.3c0.2,0.5,0.5,1,0.7,1.3c0.5,0.8,1,1.2,1.3,1.2c0.3,0,0.6-0.8,0.8-2.5l1,0.6
			c-0.4,2.1-0.9,3.2-1.6,3.2c-0.7,0-1.4-0.5-2.2-1.4c-0.3-0.4-0.6-0.8-0.8-1.3c-1.1,1.3-2.4,2.3-3.9,3l-0.6-1c1.6-0.7,3-1.8,4.1-3.2
			c-0.2-0.6-0.4-1.2-0.6-1.9c-0.4-1.3-0.6-3-0.7-5h-5.5v2.7h3.9c0,2.7-0.2,4.5-0.4,5.2c-0.2,0.7-0.7,1-1.5,1.1c-0.4,0-0.8,0-1.4-0.1
			l-0.4-1c0.6,0,1.2,0,1.6,0c0.4,0,0.6-0.3,0.7-0.7c0.1-0.5,0.1-1.7,0.2-3.5h-2.8v0.5c-0.1,2.9-0.7,5.2-1.9,6.9l-0.9-0.8
			c1-1.5,1.6-3.5,1.6-6.1v-5.3h6.6c0-0.8,0-1.6,0-2.5h1.2c0,0.9,0,1.7,0,2.5h3c-0.5-0.6-1.1-1.2-1.9-1.8l0.7-0.7
			C1177.7,996.7,1178.3,997.3,1178.9,997.9z"/>
		<path class="st3" d="M1189.7,1008.8c1-2.1,1.8-4.8,2.6-8l1.2,0.3c-0.7,2.9-1.5,5.4-2.5,7.7h5.2v1.1h-14.5v-1.1H1189.7z
			 M1188.5,998.8c-0.3-0.9-0.5-1.6-0.8-2.4l1.3-0.2c0.3,0.8,0.5,1.6,0.7,2.6h6v1.1h-13.4v-1.1H1188.5z M1187.6,1008l-1.2,0.3
			c-0.5-2.4-1.1-4.8-1.8-7l1.2-0.4C1186.5,1003,1187.1,1005.3,1187.6,1008z"/>
	</g>
</g>
</svg>
