<?xml version="1.0" encoding="utf-8"?>
<!-- Generator: Adobe Illustrator 25.1.0, SVG Export Plug-In . SVG Version: 6.00 Build 0)  -->
<svg version="1.1" id="图层_1" xmlns="http://www.w3.org/2000/svg" xmlns:xlink="http://www.w3.org/1999/xlink" x="0px" y="0px"
	 viewBox="0 0 896 823" style="enable-background:new 0 0 896 823;" xml:space="preserve">
<style type="text/css">
	.st0{enable-background:new    ;}
	.st1{fill:#3D3FEA;}
	.st2{fill:#30323E;}
	.st3{fill:#4E4E4E;}
	.st4{opacity:0.3;fill:none;stroke:#000431;enable-background:new    ;}
</style>
<g id="组_3266_1_" transform="translate(-534 -237)">
	<g class="st0">
		<path class="st1" d="M649.6,293c5.2-4.3,9.3-7.9,12.4-10.6c3-2.8,5.6-5.7,7.6-8.7s3.1-6,3.1-8.9c0-2.2-0.5-3.9-1.5-5.1
			c-1-1.2-2.5-1.8-4.6-1.8c-2,0-3.6,0.8-4.8,2.3c-1.1,1.5-1.7,3.7-1.7,6.4H647c0.1-4.5,1.1-8.3,2.9-11.4c1.8-3,4.3-5.3,7.3-6.7
			c3-1.4,6.4-2.2,10-2.2c6.3,0,11.1,1.6,14.4,4.9c3.2,3.3,4.8,7.5,4.8,12.7c0,5.7-1.9,11-5.8,15.9c-3.9,4.9-8.9,9.6-14.9,14.3h21.6
			v11.1h-40.2V295C648.9,293.6,649.8,292.9,649.6,293z"/>
		<path class="st1" d="M698.6,254.3c3.5-5.3,9.3-7.9,17.2-7.9c7.9,0,13.6,2.6,17.2,7.9c3.5,5.3,5.3,12.5,5.3,21.7
			c0,9.3-1.8,16.6-5.3,21.8c-3.5,5.3-9.3,7.9-17.2,7.9c-7.9,0-13.6-2.6-17.2-7.9c-3.5-5.3-5.3-12.6-5.3-21.8
			C693.3,266.8,695.1,259.6,698.6,254.3z M723,263.6c-1.2-2.9-3.6-4.4-7.3-4.4c-3.7,0-6.1,1.5-7.3,4.4c-1.2,2.9-1.8,7.1-1.8,12.4
			c0,3.6,0.2,6.6,0.6,9c0.4,2.4,1.3,4.3,2.6,5.8c1.3,1.5,3.2,2.2,5.8,2.2s4.5-0.7,5.8-2.2c1.3-1.5,2.2-3.4,2.6-5.8
			c0.4-2.4,0.6-5.4,0.6-9C724.8,270.6,724.2,266.5,723,263.6z"/>
		<path class="st1" d="M747.4,293c5.2-4.3,9.3-7.9,12.4-10.6c3-2.8,5.6-5.7,7.6-8.7s3.1-6,3.1-8.9c0-2.2-0.5-3.9-1.5-5.1
			c-1-1.2-2.5-1.8-4.6-1.8c-2,0-3.6,0.8-4.8,2.3c-1.1,1.5-1.7,3.7-1.7,6.4h-13.2c0.1-4.5,1.1-8.3,2.9-11.4c1.8-3,4.3-5.3,7.3-6.7
			c3-1.4,6.4-2.2,10-2.2c6.3,0,11.1,1.6,14.4,4.9c3.2,3.3,4.8,7.5,4.8,12.7c0,5.7-1.9,11-5.8,15.9c-3.9,4.9-8.9,9.6-14.9,14.3h21.6
			v11.1H745V295C746.8,293.6,747.6,292.9,747.4,293z"/>
		<path class="st1" d="M789.7,260.3v-12.7h22.2V306h-14.2v-45.7H789.7z"/>
	</g>
	<g class="st0">
		<path class="st2" d="M981.6,250.1v8.4h1.9v1.7h-1.9v2.8h-2v-2.8h-6.2v-2l6.3-8.1H981.6z M975.1,258.6h4.5v-5.8h-0.1L975.1,258.6z"
			/>
		<path class="st2" d="M993.6,265l-1.4-1.3c1.1-1.6,1.7-3.6,1.7-6v-8.8h10.9v14.1c0,1.2-0.6,1.8-1.8,1.8h-2.3l-0.5-1.8
			c0.8,0.1,1.5,0.1,2.2,0.1c0.4,0,0.5-0.3,0.5-0.7v-3h-7.2C995.4,261.6,994.7,263.5,993.6,265z M1002.8,250.6h-7.1v2.5h7.1V250.6z
			 M995.7,257.5h7.1v-2.7h-7.1V257.5z"/>
	</g>
	<g class="st0">
		<path class="st3" d="M988.1,282.8v1.1h-6.4c-0.1,0.7-0.3,1.4-0.6,2h6.1v10.9h-1.1v-0.8h-10.3v0.8h-1.1V286h5.2
			c0.3-0.7,0.5-1.3,0.6-2h-6.7v-1.1H988.1z M978.1,295.1v-8h-2.2v8H978.1z M982.8,289v-2h-3.6v2H982.8z M982.8,292v-2h-3.6v2H982.8z
			 M982.8,295.1v-2h-3.6v2H982.8z M986.2,295.1v-8h-2.3v8H986.2z"/>
		<path class="st3" d="M997.2,282.3c-0.2,0.8-0.5,1.5-0.8,2.2h7.1v10.7c0,1-0.5,1.6-1.5,1.6h-2.4l-0.3-1.2l2.3,0
			c0.4,0,0.7-0.2,0.7-0.7v-9.3h-10.4v11.2h-1.2v-12.3h4.4c0.4-0.8,0.7-1.6,0.8-2.4L997.2,282.3z M1000,287.9v5.6h-5.9v-5.6H1000z
			 M998.9,289h-3.7v3.4h3.7V289z"/>
		<path class="st3" d="M1013.4,282.3c2,2.2,4.4,4,7,5.3l-0.6,1.1c-2.7-1.4-4.9-3.2-6.8-5.4c-1.7,2.1-4,3.9-6.9,5.4l-0.6-1.1
			c2.8-1.4,5.2-3.2,7.1-5.3H1013.4z M1014,286.5v3.6h4.4v1.1h-4.4v3.9h5.5v1.1h-13.3v-1.1h2.4v-6.3h1.1v6.3h3.1v-8.6H1014z"/>
		<path class="st3" d="M1027.9,282.4v12.7h2.3v-12.7h1.2v12.7h4.8v1.1h-14.2v-1.1h4.8v-12.7H1027.9z M1025.5,292.7l-1.1,0.3
			c-0.6-2.6-1.3-5-2.2-7.4l1-0.3C1024.1,287.4,1024.9,289.9,1025.5,292.7z M1035.7,285.6c-0.6,2.8-1.4,5.2-2.4,7.3l-1-0.4
			c0.9-1.9,1.7-4.3,2.4-7.2L1035.7,285.6z"/>
		<path class="st3" d="M1042.6,294.6c-1.4,0.6-3,1-4.8,1.4l-0.1-1.1c1.9-0.3,3.5-0.8,4.9-1.3V294.6z M1041.7,282.6
			c-0.8,2-1.7,3.6-2.5,4.8c0.8-0.1,1.5-0.2,2.3-0.3c0.3-0.5,0.6-1.1,1-1.7l1,0.4c-1.5,2.6-2.7,4.5-3.7,5.6c1.2-0.2,2.3-0.5,3.5-0.8
			v1c-1.7,0.5-3.3,0.8-4.9,1l-0.3-1c0.2-0.1,0.4-0.2,0.5-0.3c0.6-0.6,1.4-1.6,2.3-3.1c-0.9,0.1-1.9,0.3-2.8,0.4l-0.3-1.1
			c0.2-0.1,0.3-0.2,0.5-0.4c0.9-1.4,1.7-3.1,2.4-4.9L1041.7,282.6z M1043.4,283.9v-1.1h7v0.7c-0.3,1.4-0.5,2.7-0.8,3.7h2v0.6
			c-0.3,2.2-1.1,4.1-2.2,5.6c0.8,0.9,1.8,1.7,2.9,2.4l-0.7,1c-1.1-0.7-2.1-1.6-2.9-2.5c-1,1-2.1,1.9-3.5,2.5l-0.6-1.1
			c1.3-0.7,2.5-1.5,3.4-2.4c-1-1.3-1.7-2.8-2.2-4.4c-0.5,3.4-1.5,6-3.2,7.8l-0.8-0.8c2.1-2.3,3.1-6.1,3.2-11.3v-0.9H1043.4z
			 M1050.5,288.3h-2.2c0.3-1,0.6-2.4,0.9-4.3h-3.1v0.9c0,0.6,0,1.2,0,1.7c0.4,2.3,1.3,4.4,2.6,6.1
			C1049.6,291.4,1050.2,289.9,1050.5,288.3z"/>
		<path class="st3" d="M1057.2,296.9h-1.1v-8c-0.5,1.6-1.2,3.1-2,4.4l-0.5-1.2c1.1-1.7,2-3.6,2.4-5.7h-2.2v-1.1h2.2v-3.1h1.1v3.1
			h1.9v1.1h-1.9v1c0.8,0.9,1.5,1.9,2.3,3l-0.6,1c-0.7-1.1-1.2-2-1.7-2.7V296.9z M1059.2,296.8l-0.6-1c3.8-1.2,6.6-3.6,8.5-7.1l1,0.5
			c-0.8,1.4-1.7,2.7-2.7,3.7c1.2,1,2.1,2,2.9,3l-0.8,0.8c-0.7-1-1.6-2-2.8-3.2C1063.1,295,1061.3,296.1,1059.2,296.8z M1063.5,284
			c-0.2-0.6-0.5-1.1-0.8-1.6l1.2-0.2c0.2,0.5,0.5,1.1,0.7,1.8h3.6v1h-4.4c-0.9,1.6-1.6,2.7-2.3,3.3c1-0.1,2-0.1,3-0.2
			c0.4-0.6,0.8-1.2,1.1-1.8l0.9,0.5c-1.6,3.2-3.9,5.3-7,6.5l-0.6-1c1.9-0.7,3.6-1.8,4.9-3.2c-1.1,0.1-2.3,0.1-3.6,0.2l-0.2-0.9
			c0.1,0,0.2-0.1,0.2-0.1c0.6-0.4,1.5-1.5,2.5-3.2h-3.1v-1H1063.5z"/>
		<path class="st3" d="M1072.6,287.5c-0.4,2.8-1.1,5.1-1.9,7.1l-1-0.6c0.8-2,1.4-4.3,1.8-6.7L1072.6,287.5z M1075.5,296.4
			c-1.1,0-1.7-0.5-1.7-1.6v-9.2h1.2v8.9c0,0.5,0.3,0.7,0.9,0.7h3c0.4,0,0.7-0.2,0.8-0.5c0.2-0.4,0.3-1.5,0.4-3.4l1.1,0.4
			c-0.1,2.2-0.4,3.5-0.7,4c-0.3,0.4-0.8,0.6-1.4,0.6H1075.5z M1079.4,286.3l-1,0.7c-0.8-1.2-2-2.6-3.4-4.1l1-0.6
			C1077.5,283.8,1078.6,285.2,1079.4,286.3z M1084.4,293.4l-1.1,0.5c-0.8-2.5-1.7-4.8-2.7-6.8l1.1-0.4
			C1082.8,288.8,1083.7,291.1,1084.4,293.4z"/>
		<path class="st3" d="M1087.7,286.6v-4.1h1.2v4.1h2v1.1h-2v5.6c0.7-0.2,1.4-0.4,2-0.7v1.2c-1.6,0.6-3.2,1.1-5,1.5l-0.3-1.2
			c0.7-0.1,1.4-0.3,2.1-0.4v-5.9h-1.9v-1.1H1087.7z M1091.7,288.8v-1.1c1.9-1.1,3.7-2.3,5.3-3.6h-5.2v-1.1h6.8v1
			c-1.5,1.3-3.2,2.5-5.1,3.7h6.1c-0.1,3.7-0.3,6.1-0.5,7.2c-0.3,1.1-1,1.6-2.2,1.7c-0.5,0-1,0-1.5,0l-0.3-1.1c0.6,0,1.1,0.1,1.7,0.1
			c0.6,0,1.1-0.3,1.3-0.9c0.2-0.5,0.4-2.5,0.4-5.9h-1.2c-0.4,1.9-1,3.5-1.7,4.6c-0.8,1.2-2.1,2.3-3.7,3.2l-0.7-0.9
			c1.5-0.8,2.7-1.8,3.5-2.8c0.7-1,1.2-2.4,1.6-4.1h-1.3c-0.6,2-1.6,3.6-3.1,4.7l-0.7-0.9c1.3-1,2.2-2.3,2.7-3.8H1091.7z"/>
		<path class="st3" d="M1106.5,294.4c-1.1,0.9-2.4,1.7-4.1,2.2l-0.6-0.9c1.7-0.6,3.1-1.2,4-2L1106.5,294.4z M1114.3,282.7v4.6h-5
			c0.1,0.3,0.3,0.6,0.4,0.9h6.3v1H1102v-1h6.6c-0.2-0.3-0.3-0.6-0.5-0.9h-4.3v-4.6H1114.3z M1114.1,290v3.2h-4.4v2.3
			c0,0.9-0.4,1.3-1.2,1.3h-1.9l-0.2-1.1c0.6,0,1.2,0.1,1.8,0.1c0.3,0,0.5-0.2,0.5-0.6v-2h-4.6V290H1114.1z M1113.2,284.5v-0.9h-8.3
			v0.9H1113.2z M1113.2,285.4h-8.3v1h8.3V285.4z M1113,290.9h-7.9v1.4h7.9V290.9z M1116.3,295.6l-0.4,1.1c-1.5-0.8-3-1.5-4.5-2
			l0.5-0.9C1113.3,294.2,1114.8,294.8,1116.3,295.6z"/>
		<path class="st3" d="M1123.5,295.9h-1.1V295h-2.9v1.4h-1.1V285h1.5c0.3-0.9,0.5-1.8,0.7-2.8l1.2,0.2c-0.2,0.9-0.4,1.8-0.8,2.6h2.6
			V295.9z M1122.3,289.4v-3.3h-2.9v3.3H1122.3z M1122.3,293.9v-3.5h-2.9v3.5H1122.3z M1131.5,294.8c-0.2,1.2-0.9,1.8-2.2,1.8
			c-0.3,0-0.9,0-1.6-0.1l-0.3-1.1c0.7,0,1.2,0,1.7,0c0.8,0,1.2-0.4,1.3-1.2c0.1-0.9,0.2-3.7,0.2-8.3h-4.4c-0.4,1-1,1.9-1.6,2.7
			l-0.7-0.9c1.1-1.6,1.9-3.5,2.3-5.8l1.1,0.1c-0.2,0.9-0.4,1.8-0.7,2.7h5.1C1131.7,290.3,1131.7,293.6,1131.5,294.8z M1128.9,292.2
			l-0.9,0.6c-0.7-1.1-1.5-2.2-2.6-3.6l0.9-0.6C1127.4,290,1128.3,291.2,1128.9,292.2z"/>
		<path class="st3" d="M1148,283.9v1.1h-4v10.3h-1.3V285h-4v-1.1H1148z"/>
		<path class="st3" d="M1151,284.2c0.2,0.2,0.3,0.4,0.3,0.7c0,0.3-0.1,0.5-0.3,0.7c-0.2,0.2-0.4,0.3-0.7,0.3s-0.5-0.1-0.7-0.3
			c-0.2-0.2-0.3-0.4-0.3-0.7c0-0.3,0.1-0.5,0.3-0.7c0.2-0.2,0.4-0.3,0.7-0.3S1150.8,284,1151,284.2z M1150.9,287v8.3h-1.3V287
			H1150.9z"/>
		<path class="st3" d="M1157.6,283.9c1.8,0,3.2,0.5,4.1,1.6c0.8,1,1.3,2.4,1.3,4.1c0,1.8-0.5,3.2-1.4,4.1c-1,1-2.3,1.6-4.1,1.6h-4
			v-11.4H1157.6z M1154.8,294.1h2.4c1.5,0,2.6-0.4,3.4-1.2c0.7-0.8,1.1-1.9,1.1-3.4c0-1.5-0.3-2.7-1-3.4c-0.7-0.8-1.8-1.2-3.3-1.2
			h-2.6V294.1z"/>
		<path class="st3" d="M1169.9,283.9c1.1,0,1.9,0.3,2.5,0.8c0.6,0.5,0.9,1.2,0.9,2.1c0,0.6-0.2,1.2-0.5,1.7
			c-0.4,0.4-0.8,0.7-1.4,0.9c0.8,0.1,1.3,0.4,1.7,0.9c0.4,0.5,0.6,1.1,0.6,1.9c0,1.1-0.4,2-1.2,2.5c-0.7,0.4-1.6,0.7-2.8,0.7h-5.1
			v-11.4H1169.9z M1166.1,288.8h3.5c0.8,0,1.4-0.2,1.8-0.5c0.4-0.3,0.6-0.8,0.6-1.5c0-0.6-0.2-1.1-0.6-1.4c-0.4-0.3-1-0.5-1.8-0.5
			h-3.5V288.8z M1166.1,294.2h3.7c0.8,0,1.4-0.2,1.9-0.4c0.6-0.4,0.8-0.9,0.8-1.6s-0.3-1.3-0.7-1.6c-0.5-0.4-1.1-0.5-2-0.5h-3.7
			V294.2z"/>
		<path class="st3" d="M1188.1,283.9v1.2h-5.6l-0.4,3.8h0.1c0.3-0.4,0.7-0.7,1.2-0.9c0.4-0.2,0.9-0.3,1.5-0.3c1.1,0,2,0.3,2.6,1
			c0.7,0.7,1,1.7,1,2.9c0,1.2-0.4,2.1-1.2,2.8c-0.8,0.7-1.7,1-2.8,1c-1,0-1.9-0.3-2.6-0.8c-0.8-0.6-1.2-1.4-1.3-2.5h1.3
			c0.1,0.7,0.4,1.3,0.9,1.7c0.4,0.3,1,0.5,1.7,0.5c0.8,0,1.5-0.3,2-0.8c0.5-0.5,0.8-1.2,0.8-2c0-0.9-0.3-1.6-0.7-2.1
			c-0.5-0.5-1.1-0.8-2-0.8c-0.5,0-1,0.1-1.5,0.4c-0.4,0.2-0.8,0.6-1,1h-1.2l0.6-6.3H1188.1z"/>
		<path class="st3" d="M1192.2,293.7c0.2,0.2,0.3,0.4,0.3,0.7c0,0.3-0.1,0.5-0.3,0.7c-0.2,0.2-0.4,0.3-0.7,0.3
			c-0.3,0-0.5-0.1-0.7-0.3c-0.2-0.2-0.3-0.4-0.3-0.7c0-0.3,0.1-0.5,0.3-0.7c0.2-0.2,0.4-0.3,0.7-0.3
			C1191.8,293.4,1192,293.5,1192.2,293.7z"/>
		<path class="st3" d="M1201.5,285.4c0.6,1,0.9,2.4,0.9,4.1c0,1.7-0.3,3.1-0.9,4.1c-0.7,1.2-1.7,1.8-3.1,1.8c-1.4,0-2.4-0.6-3.1-1.8
			c-0.6-1-0.9-2.4-0.9-4.1c0-1.7,0.3-3.1,0.9-4.1c0.7-1.2,1.7-1.8,3.1-1.8C1199.8,283.6,1200.8,284.2,1201.5,285.4z M1196.2,286.4
			c-0.3,0.8-0.5,1.8-0.5,3.2c0,1.3,0.2,2.4,0.5,3.2c0.4,1.1,1.2,1.6,2.2,1.6c1,0,1.8-0.6,2.2-1.6c0.3-0.8,0.5-1.8,0.5-3.2
			c0-1.3-0.2-2.4-0.5-3.2c-0.4-1.1-1.2-1.6-2.2-1.6C1197.4,284.7,1196.6,285.3,1196.2,286.4z"/>
		<path class="st3" d="M1217,282.3c2,2.2,4.4,4,7,5.3l-0.6,1.1c-2.7-1.4-4.9-3.2-6.8-5.4c-1.7,2.1-4,3.9-6.9,5.4l-0.6-1.1
			c2.8-1.4,5.2-3.2,7.1-5.3H1217z M1217.6,286.5v3.6h4.4v1.1h-4.4v3.9h5.5v1.1h-13.3v-1.1h2.4v-6.3h1.1v6.3h3.1v-8.6H1217.6z"/>
		<path class="st3" d="M1231.4,282.4v12.7h2.3v-12.7h1.2v12.7h4.8v1.1h-14.2v-1.1h4.8v-12.7H1231.4z M1229.1,292.7l-1.1,0.3
			c-0.6-2.6-1.3-5-2.2-7.4l1-0.3C1227.7,287.4,1228.4,289.9,1229.1,292.7z M1239.2,285.6c-0.6,2.8-1.4,5.2-2.4,7.3l-1-0.4
			c0.9-1.9,1.7-4.3,2.4-7.2L1239.2,285.6z"/>
	</g>
	<g class="st0">
		<path class="st2" d="M981.7,341c0.7,0.6,1.1,1.5,1.1,2.4c0,0.6-0.1,1.2-0.4,1.7c-0.3,0.5-0.8,0.8-1.4,1.1v0
			c0.6,0.2,1.1,0.5,1.5,1.1c0.5,0.6,0.7,1.3,0.7,2.1c0,1.2-0.4,2.1-1.3,2.8c-0.8,0.7-2,1.1-3.6,1.1c-1.5,0-2.7-0.4-3.6-1.1
			c-0.8-0.7-1.3-1.6-1.3-2.8c0-0.8,0.2-1.5,0.7-2.1c0.4-0.6,0.9-0.9,1.5-1.1v0c-0.6-0.3-1.1-0.6-1.4-1.1c-0.3-0.5-0.4-1-0.4-1.7
			c0-1,0.4-1.8,1.1-2.4c0.8-0.7,1.9-1.1,3.3-1.1C979.8,339.9,980.9,340.3,981.7,341z M976.3,347.7c-0.5,0.4-0.7,1-0.7,1.7
			c0,0.6,0.2,1.2,0.7,1.6c0.5,0.4,1.1,0.6,2,0.6c0.9,0,1.5-0.2,2.1-0.6c0.5-0.4,0.7-0.9,0.7-1.5c0-0.7-0.2-1.2-0.7-1.6
			c-0.5-0.5-1.2-0.7-2.1-0.7C977.5,347.1,976.8,347.3,976.3,347.7z M976.6,342.2c-0.4,0.4-0.6,0.8-0.6,1.3c0,0.6,0.2,1.1,0.5,1.4
			c0.4,0.4,1,0.6,1.9,0.6c0.9,0,1.5-0.2,1.9-0.6c0.3-0.3,0.5-0.8,0.5-1.4c0-0.5-0.2-1-0.6-1.3c-0.5-0.4-1.1-0.6-1.8-0.6
			C977.6,341.6,977,341.8,976.6,342.2z"/>
		<path class="st2" d="M993.6,355l-1.4-1.3c1.1-1.6,1.7-3.6,1.7-6v-8.8h10.9v14.1c0,1.2-0.6,1.8-1.8,1.8h-2.3l-0.5-1.8
			c0.8,0.1,1.5,0.1,2.2,0.1c0.4,0,0.5-0.3,0.5-0.7v-3h-7.2C995.4,351.6,994.7,353.5,993.6,355z M1002.8,340.6h-7.1v2.5h7.1V340.6z
			 M995.7,347.5h7.1v-2.7h-7.1V347.5z"/>
	</g>
	<g class="st0">
		<path class="st3" d="M982.6,373.6v1.1h-4V385h-1.3v-10.3h-4v-1.1H982.6z"/>
		<path class="st3" d="M985.6,373.9c0.2,0.2,0.3,0.4,0.3,0.7c0,0.3-0.1,0.5-0.3,0.7c-0.2,0.2-0.4,0.3-0.7,0.3s-0.5-0.1-0.7-0.3
			c-0.2-0.2-0.3-0.4-0.3-0.7c0-0.3,0.1-0.5,0.3-0.7c0.2-0.2,0.4-0.3,0.7-0.3S985.4,373.7,985.6,373.9z M985.6,376.7v8.3h-1.3v-8.3
			H985.6z"/>
		<path class="st3" d="M992.2,373.6c1.8,0,3.2,0.5,4.1,1.6c0.8,1,1.3,2.4,1.3,4.1c0,1.8-0.5,3.2-1.4,4.1c-1,1-2.3,1.6-4.1,1.6h-4
			v-11.4H992.2z M989.5,383.9h2.4c1.5,0,2.6-0.4,3.4-1.2c0.7-0.8,1.1-1.9,1.1-3.4c0-1.5-0.3-2.7-1-3.4c-0.7-0.8-1.8-1.2-3.3-1.2
			h-2.6V383.9z"/>
		<path class="st3" d="M1004.6,373.6c1.1,0,1.9,0.3,2.5,0.8c0.6,0.5,0.9,1.2,0.9,2.1c0,0.6-0.2,1.2-0.5,1.7
			c-0.4,0.4-0.8,0.7-1.4,0.9c0.8,0.1,1.3,0.4,1.7,0.9c0.4,0.5,0.6,1.1,0.6,1.9c0,1.1-0.4,2-1.2,2.5c-0.7,0.4-1.6,0.7-2.8,0.7h-5.1
			v-11.4H1004.6z M1000.8,378.6h3.5c0.8,0,1.4-0.2,1.8-0.5c0.4-0.3,0.6-0.8,0.6-1.5c0-0.6-0.2-1.1-0.6-1.4c-0.4-0.3-1-0.5-1.8-0.5
			h-3.5V378.6z M1000.8,383.9h3.6c0.8,0,1.4-0.2,1.9-0.4c0.6-0.4,0.8-0.9,0.8-1.6s-0.3-1.3-0.7-1.6c-0.5-0.4-1.1-0.5-2-0.5h-3.6
			V383.9z"/>
		<path class="st3" d="M1023,386.3c-1,0-1.8-0.1-2.5-0.3c-0.6-0.2-1.2-0.6-1.7-1.2c-0.2-0.3-0.4-0.4-0.6-0.4c-0.4,0-1,0.7-1.9,2.2
			l-0.9-0.8c0.8-1.3,1.6-2.2,2.3-2.4v-4.9h-2.3v-1.1h3.4v6c0.1,0.1,0.3,0.2,0.4,0.4c0.4,0.5,0.8,0.8,1.2,1c0.5,0.2,1.2,0.4,2.1,0.4
			c0.8,0,1.9,0,3.1,0c0.8,0,1.5,0,2.3,0c0.8,0,1.4,0,1.8-0.1l-0.3,1.2h-3.7C1024.9,386.3,1024,386.3,1023,386.3z M1019.2,374.7
			l-0.8,0.8c-0.6-0.8-1.5-1.6-2.7-2.5l0.8-0.8C1017.6,373,1018.5,373.8,1019.2,374.7z M1022.5,373.6c0.2-0.6,0.4-1.2,0.6-1.8
			l1.1,0.3c-0.2,0.5-0.4,1-0.5,1.5h5.6v1.1h-6.1c-0.5,1.1-1,2-1.6,2.9h2.6v-1.9h1.1v1.9h3.5v1.1h-3.5v1.9h4.2v1.1h-4.2v3h-1.1v-3
			h-4.4v-1.1h4.4v-1.9h-3.7l-0.3-1.1c0.6-0.8,1.2-1.7,1.8-2.9h-2.1v-1.1H1022.5z"/>
		<path class="st3" d="M1034.9,372.4c-0.7,2-1.5,3.6-2.3,4.8c0.7-0.1,1.3-0.2,2-0.3c0.3-0.5,0.6-1.1,0.9-1.7l1.1,0.4
			c-1.4,2.6-2.5,4.4-3.4,5.5c1-0.2,1.9-0.5,2.9-0.8v1c-1.5,0.5-2.9,0.8-4.3,1l-0.3-1.1c0.2-0.1,0.4-0.2,0.5-0.3
			c0.6-0.6,1.3-1.6,2.1-3c-0.8,0.1-1.6,0.3-2.5,0.4l-0.3-1.1c0.2-0.1,0.3-0.2,0.5-0.4c0.8-1.4,1.5-3.1,2-4.9L1034.9,372.4z
			 M1036.2,384.3c-1.4,0.6-3,1-4.7,1.4l-0.1-1.1c1.9-0.3,3.5-0.8,4.9-1.4V384.3z M1040.9,381.2c0-0.4,0.1-0.7,0.1-1.1v-3h1.1v3
			c0,0.4,0,0.7-0.1,1.1h3.7v1.1h-3.9c-0.1,0.3-0.2,0.5-0.3,0.8c1.6,0.7,3,1.6,4.3,2.6l-0.6,1c-1.3-1.1-2.7-2-4.1-2.7
			c-0.1,0.2-0.2,0.3-0.3,0.4c-0.8,1-2,1.7-3.8,2.3l-0.6-1c1.7-0.5,2.9-1.2,3.6-2.1c0.3-0.4,0.5-0.8,0.7-1.3h-4.2v-1.1H1040.9z
			 M1039.5,380.2l-0.5,0.8c-0.8-0.7-1.6-1.2-2.4-1.6l0.5-0.8C1038,379,1038.8,379.5,1039.5,380.2z M1040.6,372.9v-1.1h1.1v1.1h3.4v1
			h-3.4v1.5h3.7v0.7c-0.2,1-0.5,2-0.9,3l-1.1-0.3c0.3-0.7,0.6-1.5,0.8-2.4h-7.3v-1.1h3.7V374h-3.2v-1H1040.6z M1040.6,378.4
			l-0.5,0.8c-0.7-0.6-1.5-1.2-2.2-1.5l0.5-0.8C1039.2,377.3,1039.9,377.8,1040.6,378.4z"/>
		<path class="st3" d="M1059.4,374.3c0.7,0.6,1,1.4,1,2.4s-0.4,1.9-1.1,2.7c-0.4,0.4-1.2,1-2.4,1.8c-1.5,1-2.3,1.9-2.5,2.6h6v1.2
			h-7.6c0-1,0.4-2,1.1-2.8c0.4-0.5,1.3-1.2,2.5-2c0.9-0.6,1.5-1.1,1.8-1.4c0.6-0.6,0.9-1.3,0.9-2c0-0.7-0.2-1.2-0.6-1.6
			s-1-0.6-1.7-0.6c-0.8,0-1.4,0.3-1.8,0.8c-0.4,0.5-0.7,1.3-0.7,2.3h-1.3c0-1.3,0.4-2.3,1.1-3.1c0.7-0.8,1.6-1.2,2.8-1.2
			C1057.8,373.3,1058.7,373.7,1059.4,374.3z"/>
		<path class="st3" d="M1069.3,375.2c0.6,1,0.9,2.4,0.9,4.1c0,1.7-0.3,3.1-0.9,4.1c-0.7,1.2-1.7,1.8-3.1,1.8c-1.4,0-2.4-0.6-3.1-1.8
			c-0.6-1-0.9-2.4-0.9-4.1c0-1.7,0.3-3.1,0.9-4.1c0.7-1.2,1.7-1.8,3.1-1.8C1067.5,373.3,1068.6,373.9,1069.3,375.2z M1064,376.1
			c-0.3,0.8-0.5,1.8-0.5,3.2c0,1.3,0.2,2.4,0.5,3.2c0.4,1.1,1.2,1.6,2.2,1.6s1.8-0.6,2.2-1.6c0.3-0.8,0.5-1.8,0.5-3.2
			c0-1.3-0.2-2.4-0.5-3.2c-0.4-1.1-1.2-1.6-2.2-1.6S1064.4,375,1064,376.1z"/>
		<path class="st3" d="M1084.8,371.9c1.3,2.2,3.6,4.1,6.9,5.8l-0.7,1c-3-1.6-5.3-3.5-6.7-5.8c-1.8,2.5-4,4.5-6.7,5.9l-0.7-1
			c3-1.5,5.3-3.5,6.9-5.9H1084.8z M1084.9,376.7v9.9h-1.2v-9.9H1084.9z"/>
		<path class="st3" d="M1095.4,386.6l-0.9-0.8c1.1-1.4,1.6-3.3,1.6-5.5v-7.8h9.2v12.5c0,0.9-0.5,1.4-1.4,1.4h-2.1l-0.3-1.1
			c0.7,0,1.4,0.1,2,0.1c0.4,0,0.6-0.2,0.6-0.7v-3.2h-6.9C1097.1,383.6,1096.5,385.3,1095.4,386.6z M1104.2,373.7h-6.8v2.8h6.8V373.7
			z M1097.3,380.4h6.8v-2.9h-6.8V380.4z"/>
		<path class="st3" d="M1109.6,381.8l-0.7-0.9c2-1.6,3.6-3.5,4.7-5.7h-4.1v-1.1h4.7c0.3-0.7,0.6-1.5,0.8-2.3l1.2,0.1
			c-0.2,0.7-0.5,1.5-0.8,2.1h8.1v1.1h-8.6c-0.6,1.3-1.4,2.4-2.2,3.5v7.9h-1.1v-6.6C1110.9,380.7,1110.3,381.3,1109.6,381.8z
			 M1117.7,379.4v-3h1.2v3h3.8v1.1h-3.8v4.4h4.5v1.1h-10v-1.1h4.3v-4.4h-3.7v-1.1H1117.7z"/>
		<path class="st3" d="M1128.1,381c-0.5,0.8-1.2,1.6-2,2.2l-0.8-0.6c0.7-0.6,1.3-1.2,1.9-2L1128.1,381z M1137.9,372.5v4.1h-5v0.9
			h5.6v0.8h-5.6v1h6.5v0.9h-14.1v-0.9h6.5v-1h-5.5v-0.8h5.5v-0.9h-4.9v-4.1H1137.9z M1131.8,383.1v-1.3h1.1v1.3h4.6v0.9h-4.6v1.3
			h6.2v1h-13.6v-1h6.3V384h-4.5v-0.9H1131.8z M1131.8,373.4h-4v2.3h2.4c-0.4-0.5-0.8-1.1-1.4-1.6l0.6-0.6c0.5,0.5,1,1.1,1.4,1.6
			l-0.6,0.6h1.6V373.4z M1131.1,382.3l-0.9,0.3c-0.2-0.6-0.5-1.2-0.8-1.8l0.9-0.3C1130.6,381.2,1130.9,381.8,1131.1,382.3z
			 M1136.8,373.4h-4v2.3h1.6l-0.6-0.6c0.5-0.5,0.9-1,1.3-1.5l0.7,0.5c-0.4,0.6-0.9,1.2-1.3,1.6h2.3V373.4z M1135.2,382.4l-0.9,0.3
			c-0.3-0.7-0.6-1.3-0.9-1.9l0.9-0.3C1134.7,381.2,1135,381.8,1135.2,382.4z M1139.4,382.7l-0.7,0.7c-0.5-0.7-1.3-1.3-2.2-2.1
			l0.7-0.7C1138,381.3,1138.8,382,1139.4,382.7z"/>
		<path class="st3" d="M1147.4,377.6c0.2-1.1,0.3-2.3,0.4-3.7h-5.8v-1.1h12.6v1.1h-5.7c-0.1,1.4-0.2,2.6-0.4,3.7h6.6v1.1h-5.9
			c1.1,3,3.2,5.4,6.4,7l-0.7,0.9c-3.3-1.8-5.5-4.3-6.6-7.6c-0.3,1.1-0.6,2-1,2.8c-1.1,1.9-2.9,3.5-5.5,4.9l-0.7-0.9
			c2.4-1.2,4.1-2.7,5.1-4.4c0.4-0.7,0.8-1.6,1-2.6h-5.6v-1.1H1147.4z"/>
		<path class="st3" d="M1161.4,376.3v2.4h1.8v1h-1.8v2.2c0.8-0.2,1.5-0.3,2.2-0.5v1.1c-0.7,0.2-1.5,0.4-2.2,0.5v3.5h-1.1v-3.3
			c-1,0.2-2,0.3-3.1,0.5l-0.1-1.1c1.2-0.1,2.2-0.3,3.3-0.5v-2.4h-2.7l-0.2-1c0.4-1,0.9-2.2,1.3-3.6h-1.6V374h1.9
			c0.2-0.7,0.3-1.4,0.4-2.1l1.1,0.2c-0.1,0.7-0.3,1.3-0.4,2h3.2v1.1h-3.5c-0.4,1.4-0.8,2.6-1.2,3.6h1.8v-2.4H1161.4z M1167.8,372
			c0.8,2,2.1,3.7,4,5.1l-0.7,1c-1.7-1.3-3-3-3.8-5c-1,2.2-2.4,3.9-3.9,5.1l-0.6-1c1.7-1.3,3.1-3.1,4-5.2H1167.8z M1166.2,386.4
			c-1,0-1.5-0.6-1.5-1.7v-6.9h1.1v2.8c1.3-0.6,2.5-1.3,3.7-2.3l0.7,0.9c-1.6,1.1-3,2-4.4,2.5v2.7c0,0.6,0.2,0.8,0.8,0.8h2.4
			c0.4,0,0.7-0.1,0.8-0.4c0.2-0.3,0.4-1.1,0.4-2.5l1.1,0.4c-0.1,1.7-0.4,2.7-0.7,3.1c-0.3,0.3-0.8,0.5-1.4,0.5H1166.2z"/>
		<path class="st3" d="M1186.9,386.6h-1.2v-0.7h-10.8v0.7h-1.2v-13.9h13.2V386.6z M1185.7,384.8v-11h-10.8v11H1185.7z M1184.3,375.2
			v1h-3.4v2.3h2.9v1h-2.9v2.5h3.8v1.1h-8.8v-1.1h3.8v-2.5h-2.9v-1h2.9v-2.3h-3.4v-1H1184.3z M1183.8,381.7l-0.9,0.4
			c-0.3-0.7-0.7-1.3-1.1-1.9l0.9-0.3C1183.2,380.5,1183.5,381,1183.8,381.7z"/>
		<path class="st3" d="M1197.1,373.6h5.6v1.1h-2.8c-0.2,0.8-0.4,1.7-0.8,2.4h3.9v1.1h-11.5v2.4c-0.1,2.5-0.6,4.5-1.7,6l-0.9-0.8
			c0.9-1.2,1.4-3,1.5-5.2v-3.5h3.3l-0.7-2.4h-2.9v-1.1h5.9c-0.2-0.6-0.5-1.2-0.8-1.6l1.2-0.2
			C1196.6,372.3,1196.9,372.9,1197.1,373.6z M1198,377.1c0.4-0.8,0.6-1.6,0.8-2.4h-4.7l0.7,2.4H1198z"/>
		<path class="st3" d="M1209.1,379.5c-0.1,0.3-0.2,0.6-0.3,0.9h3.3v0.9c-0.4,1.1-0.9,2-1.8,2.7c0.8,0.4,1.5,0.7,2.2,1.1l-0.6,0.9
			c-0.7-0.4-1.5-0.8-2.5-1.3c-1.1,0.7-2.4,1.3-4,1.8l-0.5-1c1.3-0.4,2.4-0.8,3.4-1.3c-0.7-0.3-1.4-0.6-2.2-0.9
			c0.4-0.7,0.8-1.4,1.1-2h-1.9v-1h2.3c0.1-0.4,0.3-0.7,0.4-1L1209.1,379.5z M1208.5,375v-3.1h1.1v3.1h2.9v1h-2.9v0.2
			c0.9,0.4,1.8,0.9,2.7,1.5l-0.6,0.9c-0.8-0.6-1.5-1.2-2.1-1.5v2.1h-1.1v-3c-0.5,1.3-1.5,2.4-2.9,3.3l-0.6-0.9
			c1.2-0.7,2.1-1.5,2.6-2.4h-2.3v-1H1208.5z M1207.6,374.2l-0.8,0.4c-0.3-0.8-0.7-1.5-1.1-2.1l0.9-0.3
			C1207,372.9,1207.3,373.5,1207.6,374.2z M1211.1,381.4h-2.8c-0.3,0.5-0.5,1.1-0.9,1.5c0.6,0.2,1.2,0.4,1.8,0.7
			C1210.1,383,1210.7,382.2,1211.1,381.4z M1212.3,372.6c-0.3,0.7-0.7,1.4-1.2,2.1l-0.8-0.4c0.5-0.7,0.9-1.4,1.2-2L1212.3,372.6z
			 M1214.1,378.1c-0.3,0.7-0.6,1.4-0.9,2l-0.7-0.9c0.9-1.8,1.6-4.2,1.9-7.3l1.1,0.2c-0.1,0.8-0.2,1.6-0.4,2.3h4.2v1.1h-1
			c-0.1,2.7-0.6,5-1.5,6.9c0.8,1.4,1.8,2.5,3,3.3l-0.6,0.9c-1.1-0.8-2.1-1.9-2.9-3.2c-0.8,1.3-1.8,2.4-3,3.2l-0.6-1
			c1.2-0.9,2.2-2,3-3.3C1215,381.1,1214.5,379.7,1214.1,378.1z M1214.6,376.3c0.4,1.9,0.9,3.5,1.6,4.8c0.6-1.6,1-3.5,1-5.7h-2.4
			L1214.6,376.3z"/>
		<path class="st3" d="M1221.6,386.5l-0.2-1.1c0.4,0,0.8,0.1,1.2,0.1c0.4,0,0.6-0.2,0.6-0.7v-3.9c-0.6,0.2-1.3,0.5-1.9,0.7l-0.3-1.1
			c0.7-0.2,1.5-0.4,2.2-0.7v-3.6h-1.9V375h1.9v-3h1.1v3h1.5v1.1h-1.5v3.2c0.5-0.2,1-0.5,1.5-0.7v1.1c-0.5,0.3-1,0.5-1.5,0.7v4.7
			c0,0.9-0.4,1.4-1.3,1.4H1221.6z M1225.8,386.6l-0.9-0.8c1.1-2.1,1.7-4.9,1.7-8.2v-5h8.4v3.9h-3v1.9h3.4v1h-3.4v2h2.7v5.2h-1.1
			v-0.8h-4.3v0.8h-1.1v-5.2h2.7v-2h-3.3C1227.5,382.1,1226.9,384.5,1225.8,386.6z M1227.8,376.5v1.1c0,0.3,0,0.5,0,0.8h3.2v-1.9
			H1227.8z M1227.8,373.6v1.8h6.2v-1.8H1227.8z M1233.7,384.8v-2.4h-4.3v2.4H1233.7z"/>
		<path class="st3" d="M1245.7,373.3h5.8v1.1h-11.9v3.6c-0.1,3.5-0.6,6.4-1.6,8.5l-0.9-0.8c0.9-1.8,1.3-4.4,1.4-7.6v-4.8h6
			c-0.3-0.5-0.5-0.9-0.8-1.3l1.3-0.2C1245.1,372.3,1245.4,372.8,1245.7,373.3z M1244.9,375.2c-0.1,0.4-0.3,0.9-0.4,1.3h6.2v1h-6.6
			c-0.4,1-0.9,1.9-1.4,2.7h3v-1.9h1.2v1.9h3.6v1h-3.6v1.8h4.8v1.1h-4.8v2.5h-1.2v-2.5h-5.8V383h5.8v-1.8h-4.2l-0.2-1
			c0.6-0.8,1.2-1.7,1.7-2.8h-2.4v-1h2.8c0.2-0.5,0.4-1,0.5-1.5L1244.9,375.2z"/>
		<path class="st3" d="M1256.6,378.3l-0.8,0.8c-0.6-0.7-1.5-1.5-2.5-2.4l0.8-0.8C1255,376.7,1255.9,377.5,1256.6,378.3z
			 M1256.7,380.6c-0.6,2-1.3,4-2.1,5.8l-1.1-0.5c0.8-1.9,1.5-3.7,2.1-5.7L1256.7,380.6z M1256.9,374.2l-0.8,0.8
			c-0.6-0.7-1.4-1.3-2.5-2.1l0.8-0.8C1255.4,372.8,1256.2,373.5,1256.9,374.2z M1259.6,379.3c-0.1,2.1-0.3,3.6-0.6,4.6
			c-0.4,1-1,1.9-1.9,2.6l-0.7-0.9c0.8-0.6,1.3-1.4,1.6-2.2c0.3-0.8,0.5-2.2,0.5-4.1H1259.6z M1257.6,377.6c0.1,0,0.2-0.1,0.2-0.1
			c0.6-0.4,1.4-1.4,2.3-2.9h-2.8v-1h4.5c-0.2-0.6-0.5-1.1-0.7-1.6l1.2-0.2c0.3,0.5,0.5,1.2,0.7,1.8h4.2v1h-5.8
			c-0.8,1.3-1.4,2.3-2,2.9c1.8-0.1,3.7-0.3,5.5-0.5c-0.4-0.5-0.7-0.9-1.1-1.4l0.9-0.6c1.1,1.3,1.9,2.4,2.5,3.4l-0.9,0.7
			c-0.2-0.4-0.5-0.8-0.7-1.2c-2.4,0.3-4.9,0.5-7.7,0.6L1257.6,377.6z M1262.3,379.3v6.9h-1.2v-6.9H1262.3z M1265.3,386.4
			c-0.9,0-1.4-0.4-1.4-1.2v-5.8h1.1v5.6c0,0.2,0.1,0.4,0.3,0.4h0.7c0.3,0,0.4-0.2,0.5-0.6c0.1-0.4,0.1-1,0.1-1.9l1,0.4
			c0,1.4-0.1,2.3-0.3,2.6c-0.2,0.3-0.6,0.5-1.2,0.5H1265.3z"/>
		<path class="st3" d="M1273.6,372.5c-0.9,1.8-2.3,3.3-4.3,4.7l-0.3-1.2c1.7-1.2,2.9-2.5,3.6-4L1273.6,372.5z M1274.4,376.2
			c-0.5,0.9-1,1.8-1.7,2.6v7.8h-1.1v-6.7c-0.6,0.6-1.3,1.1-2.1,1.7l-0.3-1.2c2-1.4,3.4-2.9,4.3-4.7L1274.4,376.2z M1283.5,377v1.1
			h-2.6v7c0,0.9-0.5,1.4-1.6,1.4h-2.4l-0.2-1.1c0.8,0,1.5,0.1,2.2,0.1c0.5,0,0.8-0.2,0.8-0.6v-6.7h-5V377H1283.5z M1282.8,372.9v1.1
			h-7.7v-1.1H1282.8z"/>
		<path class="st3" d="M1287.6,378.4c-0.1,3.4-0.6,6.1-1.7,8.2l-0.9-0.8c0.9-1.8,1.4-4.2,1.4-7.4v-5.2h6.2c-0.2-0.4-0.4-0.8-0.6-1.1
			l1.2-0.2c0.2,0.4,0.4,0.8,0.6,1.3h5.5v1.1h-11.7v1.8h2.7v-1.3h1.1v1.3h4.2v-1.3h1.1v1.3h2.5v1.1h-2.5v2.5h-6.5v-2.5h-2.7V378.4z
			 M1297.9,380.7v0.8c-0.9,1.1-2,2-3.3,2.8c1.4,0.6,3.1,1,5,1.3l-0.5,1c-2.2-0.4-4.1-0.9-5.6-1.7c-1.6,0.8-3.5,1.3-5.6,1.7l-0.5-1
			c1.9-0.3,3.5-0.7,5-1.3c-1.2-0.7-2.2-1.6-2.9-2.6h-1v-1H1297.9z M1293.4,383.8c1.1-0.6,2.1-1.3,2.9-2.1h-5.7
			C1291.4,382.6,1292.3,383.3,1293.4,383.8z M1291.4,378.7h4.2v-1.5h-4.2V378.7z"/>
		<path class="st3" d="M1301.3,386.5l-0.3-1.1c0.5,0,0.9,0.1,1.3,0.1c0.4,0,0.7-0.2,0.7-0.6V381c-0.6,0.2-1.2,0.4-1.8,0.6l-0.3-1.2
			c0.7-0.2,1.4-0.4,2-0.6v-3.7h-1.7V375h1.7v-3h1.1v3h1.4v1.1h-1.4v3.3c0.5-0.3,1-0.5,1.6-0.8v1.2c-0.5,0.3-1,0.5-1.6,0.8v4.6
			c0,0.9-0.5,1.3-1.4,1.3H1301.3z M1309.7,371.9v14.7h-1.1v-3.5h-3.2V382h3.2v-2.8h-2.3v-1.1h2.3v-2.7h-2.5v-1h2.5v-2.6H1309.7z
			 M1312.8,371.9v2.6h2.7v1h-2.7v2.7h2.4v1.1h-2.4v2.8h2.8v1.1h-2.8v3.5h-1.1v-14.7H1312.8z"/>
		<path class="st3" d="M1321.6,372.5c-0.9,1.8-2.3,3.3-4.3,4.7l-0.3-1.2c1.7-1.2,2.9-2.5,3.6-4L1321.6,372.5z M1322.4,376.2
			c-0.5,0.9-1,1.8-1.7,2.6v7.8h-1.1v-6.7c-0.6,0.6-1.3,1.1-2.1,1.7l-0.3-1.2c2-1.4,3.4-2.9,4.3-4.7L1322.4,376.2z M1331.5,377v1.1
			h-2.6v7c0,0.9-0.5,1.4-1.6,1.4h-2.4l-0.2-1.1c0.8,0,1.5,0.1,2.2,0.1c0.5,0,0.8-0.2,0.8-0.6v-6.7h-5V377H1331.5z M1330.8,372.9v1.1
			h-7.7v-1.1H1330.8z"/>
		<path class="st3" d="M1335.2,374.9v-2.9h1.1v2.9h1.7v1.1h-1.7v1.2c0.6,0.8,1.3,1.6,1.9,2.6l-0.6,1c-0.5-1-0.9-1.7-1.3-2.3v8.2
			h-1.1v-8c-0.5,1.5-1.1,2.9-1.8,4.1l-0.5-1.3c1.1-1.6,1.8-3.4,2.3-5.4h-2v-1.1H1335.2z M1342.5,379.5c-0.2-0.5-0.4-1-0.6-1.5
			l1.1-0.2c0.2,0.5,0.4,1.1,0.6,1.7h3.8v1.1h-5.3c0,0.5-0.1,1-0.2,1.5h4.4c0,2.3-0.2,3.7-0.7,4.1c-0.2,0.2-0.5,0.3-0.9,0.4
			c-0.3,0-0.7,0.1-1,0.1h-0.9l-0.3-1h1.4c0.4,0,0.7-0.1,0.9-0.3c0.2-0.2,0.3-0.9,0.4-2.2h-3.6c-0.6,1.6-1.6,2.9-3.2,3.7l-0.6-1
			c2-1.1,3-2.8,3.2-5.2h-2.5v-1.1H1342.5z M1342.4,373.3c-0.2-0.5-0.4-0.9-0.6-1.3l1.2-0.2c0.2,0.4,0.4,0.9,0.6,1.5h3.6v1h-1.6
			c-0.1,0.6-0.3,1.3-0.6,1.9h2.2v2.4h-1.1v-1.4h-6.4v1.5h-1.1v-2.5h2.3c-0.2-0.7-0.4-1.3-0.6-1.9h-1.6v-1H1342.4z M1344.5,374.3h-3
			c0.2,0.6,0.4,1.2,0.6,1.9h1.9C1344.2,375.6,1344.3,375,1344.5,374.3z"/>
		<path class="st3" d="M1356.2,371.9v4.9h5.9v1.1h-5.9v6.9h7.3v1.1h-14.2v-1.1h5.8v-12.9H1356.2z"/>
		<path class="st3" d="M1365.3,386.5l-0.3-1.1c0.5,0,0.9,0.1,1.3,0.1c0.4,0,0.7-0.2,0.7-0.6V381c-0.6,0.2-1.2,0.4-1.8,0.6l-0.3-1.2
			c0.7-0.2,1.4-0.4,2-0.6v-3.7h-1.7V375h1.7v-3h1.1v3h1.4v1.1h-1.4v3.3c0.5-0.3,1-0.5,1.6-0.8v1.2c-0.5,0.3-1,0.5-1.6,0.8v4.6
			c0,0.9-0.5,1.3-1.4,1.3H1365.3z M1373.7,371.9v14.7h-1.1v-3.5h-3.2V382h3.2v-2.8h-2.3v-1.1h2.3v-2.7h-2.5v-1h2.5v-2.6H1373.7z
			 M1376.8,371.9v2.6h2.7v1h-2.7v2.7h2.4v1.1h-2.4v2.8h2.8v1.1h-2.8v3.5h-1.1v-14.7H1376.8z"/>
		<path class="st3" d="M1385.6,372.5c-0.9,1.8-2.3,3.3-4.3,4.7l-0.3-1.2c1.7-1.2,2.9-2.5,3.6-4L1385.6,372.5z M1386.4,376.2
			c-0.5,0.9-1,1.8-1.7,2.6v7.8h-1.1v-6.7c-0.6,0.6-1.3,1.1-2.1,1.7l-0.3-1.2c2-1.4,3.4-2.9,4.3-4.7L1386.4,376.2z M1395.5,377v1.1
			h-2.6v7c0,0.9-0.5,1.4-1.6,1.4h-2.4l-0.2-1.1c0.8,0,1.5,0.1,2.2,0.1c0.5,0,0.8-0.2,0.8-0.6v-6.7h-5V377H1395.5z M1394.8,372.9v1.1
			h-7.7v-1.1H1394.8z"/>
		<path class="st3" d="M1398.2,375.7l-1-0.6c1-1,1.8-2,2.2-3.2l1.1,0.2c-0.1,0.4-0.3,0.7-0.4,1h4.3v1h-2.6c0.4,0.5,0.7,0.9,1,1.3
			l-1,0.4c-0.3-0.6-0.7-1.2-1.2-1.7h-1C1399.1,374.6,1398.7,375.2,1398.2,375.7z M1398.5,377.2v-1.1h11.7v3.6h-5.2v1.6h5.8
			c0,1.9-0.1,3.1-0.4,3.6c-0.3,0.5-0.8,0.8-1.7,0.8c-0.7,0-1.3,0-2,0l-0.3-1.1c0.7,0,1.4,0,2.1,0c0.5,0,0.8-0.2,0.9-0.5
			c0.1-0.3,0.1-0.9,0.1-1.8h-4.6v4.2h-1.1v-4.2h0c-1.1,1.5-3,2.8-5.9,3.9l-0.7-1.1c2.6-0.8,4.3-1.8,5.3-2.9h-4.4l0.7-3.6h5v-1.5
			H1398.5z M1399.9,379.8l-0.4,1.6h4.3v-1.6H1399.9z M1405,375.7l-1-0.6c0.9-1,1.5-2.1,2-3.2l1.1,0.2c-0.1,0.3-0.2,0.6-0.4,0.9h4.7
			v1h-2.9c0.4,0.5,0.7,1,1,1.4l-1,0.4c-0.3-0.6-0.7-1.2-1.2-1.8h-1.1C1405.9,374.6,1405.5,375.2,1405,375.7z M1409,378.7v-1.5h-4
			v1.5H1409z"/>
	</g>
	<path id="路径_10994_1_" class="st4" d="M894.5,247v138"/>
	<g class="st0">
		<path class="st1" d="M649.6,816c5.2-4.3,9.3-7.9,12.4-10.6c3-2.8,5.6-5.7,7.6-8.7s3.1-6,3.1-8.9c0-2.2-0.5-3.9-1.5-5.1
			c-1-1.2-2.5-1.8-4.6-1.8c-2,0-3.6,0.8-4.8,2.3c-1.1,1.5-1.7,3.7-1.7,6.4H647c0.1-4.5,1.1-8.3,2.9-11.4c1.8-3,4.3-5.3,7.3-6.7
			c3-1.4,6.4-2.2,10-2.2c6.3,0,11.1,1.6,14.4,4.9c3.2,3.3,4.8,7.5,4.8,12.7c0,5.7-1.9,11-5.8,15.9c-3.9,4.9-8.9,9.6-14.9,14.3h21.6
			v11.1h-40.2V818C648.9,816.6,649.8,815.9,649.6,816z"/>
		<path class="st1" d="M698.6,777.3c3.5-5.3,9.3-7.9,17.2-7.9c7.9,0,13.6,2.6,17.2,7.9c3.5,5.3,5.3,12.5,5.3,21.7
			c0,9.3-1.8,16.6-5.3,21.8c-3.5,5.3-9.3,7.9-17.2,7.9c-7.9,0-13.6-2.6-17.2-7.9c-3.5-5.3-5.3-12.6-5.3-21.8
			C693.3,789.8,695.1,782.6,698.6,777.3z M723,786.6c-1.2-2.9-3.6-4.4-7.3-4.4c-3.7,0-6.1,1.5-7.3,4.4c-1.2,2.9-1.8,7.1-1.8,12.4
			c0,3.6,0.2,6.6,0.6,9c0.4,2.4,1.3,4.3,2.6,5.8c1.3,1.5,3.2,2.2,5.8,2.2s4.5-0.7,5.8-2.2c1.3-1.5,2.2-3.4,2.6-5.8
			c0.4-2.4,0.6-5.4,0.6-9C724.8,793.6,724.2,789.5,723,786.6z"/>
		<path class="st1" d="M744,783.3v-12.7h22.2V829h-14.2v-45.7H744z"/>
		<path class="st1" d="M797.6,818.2c2.8,0,4.8-1.3,6-3.8c1.2-2.5,1.8-6.6,1.8-12.2c-1.2,1.7-2.8,2.9-4.8,3.8c-2,0.9-4.3,1.4-6.8,1.4
			c-3.4,0-6.5-0.7-9.1-2.1c-2.7-1.4-4.8-3.5-6.3-6.3s-2.3-6.2-2.3-10.2c0-3.9,0.8-7.4,2.4-10.3c1.6-2.9,3.9-5.2,7-6.8
			c3-1.6,6.6-2.4,10.7-2.4c7.9,0,13.4,2.5,16.6,7.4c3.1,4.9,4.7,12.1,4.7,21.7c0,6.9-0.6,12.7-1.9,17.2c-1.3,4.5-3.4,7.9-6.3,10.3
			c-3,2.3-7,3.5-12.1,3.5c-4.1,0-7.5-0.8-10.4-2.4c-2.9-1.6-5-3.7-6.6-6.3c-1.5-2.6-2.4-5.5-2.6-8.6h12.6
			C791,816.1,793.5,818.2,797.6,818.2z M802.2,794.6c1.3-1.4,2-3.2,2-5.6c0-2.6-0.7-4.5-2.1-5.9c-1.4-1.4-3.3-2.1-5.6-2.1
			c-2.3,0-4.2,0.7-5.6,2.1c-1.4,1.4-2,3.3-2,5.8c0,2.3,0.7,4.1,2,5.6s3.3,2.1,5.9,2.1C799.1,796.6,800.9,795.9,802.2,794.6z"/>
	</g>
	<g class="st0">
		<path class="st2" d="M982.8,777.4h-2.1c-0.3-1.2-1-1.8-2.2-1.8c-0.9,0-1.5,0.4-2.1,1.3c-0.5,0.8-0.7,1.8-0.7,3v0.2h0.1
			c0.4-0.5,0.8-0.9,1.4-1.2c0.5-0.3,1.1-0.4,1.7-0.4c1.3,0,2.3,0.4,3,1.2c0.8,0.8,1.1,1.9,1.1,3.1c0,1.3-0.5,2.4-1.3,3.2
			c-0.9,0.8-1.9,1.3-3.2,1.3c-1.6,0-2.8-0.6-3.6-1.7c-0.8-1.1-1.2-2.6-1.2-4.6c0-2.1,0.4-3.8,1.3-5.1c0.9-1.3,2.1-1.9,3.5-1.9
			C981.1,773.9,982.5,775.1,982.8,777.4z M976.7,780.9c-0.5,0.5-0.7,1.1-0.7,2c0,0.8,0.2,1.5,0.7,1.9c0.5,0.5,1.1,0.7,1.8,0.7
			c0.8,0,1.4-0.3,1.8-0.8c0.5-0.5,0.7-1.2,0.7-1.9s-0.2-1.4-0.7-1.9c-0.5-0.5-1.1-0.7-1.9-0.7C977.7,780.2,977.1,780.4,976.7,780.9z
			"/>
		<path class="st2" d="M993.6,789l-1.4-1.3c1.1-1.6,1.7-3.6,1.7-6v-8.8h10.9v14.1c0,1.2-0.6,1.8-1.8,1.8h-2.3l-0.5-1.8
			c0.8,0.1,1.5,0.1,2.2,0.1c0.4,0,0.5-0.3,0.5-0.7v-3h-7.2C995.4,785.6,994.7,787.5,993.6,789z M1002.8,774.6h-7.1v2.5h7.1V774.6z
			 M995.7,781.5h7.1v-2.7h-7.1V781.5z"/>
	</g>
	<g class="st0">
		<path class="st3" d="M982.6,807.6v1.1h-4V819h-1.3v-10.3h-4v-1.1H982.6z"/>
		<path class="st3" d="M985.6,807.9c0.2,0.2,0.3,0.4,0.3,0.7c0,0.3-0.1,0.5-0.3,0.7c-0.2,0.2-0.4,0.3-0.7,0.3s-0.5-0.1-0.7-0.3
			c-0.2-0.2-0.3-0.4-0.3-0.7c0-0.3,0.1-0.5,0.3-0.7c0.2-0.2,0.4-0.3,0.7-0.3S985.4,807.7,985.6,807.9z M985.6,810.7v8.3h-1.3v-8.3
			H985.6z"/>
		<path class="st3" d="M992.2,807.6c1.8,0,3.2,0.5,4.1,1.6c0.8,1,1.3,2.4,1.3,4.1c0,1.8-0.5,3.2-1.4,4.1c-1,1-2.3,1.6-4.1,1.6h-4
			v-11.4H992.2z M989.5,817.9h2.4c1.5,0,2.6-0.4,3.4-1.2c0.7-0.8,1.1-1.9,1.1-3.4c0-1.5-0.3-2.7-1-3.4c-0.7-0.8-1.8-1.2-3.3-1.2
			h-2.6V817.9z"/>
		<path class="st3" d="M1004.6,807.6c1.1,0,1.9,0.3,2.5,0.8c0.6,0.5,0.9,1.2,0.9,2.1c0,0.6-0.2,1.2-0.5,1.7
			c-0.4,0.4-0.8,0.7-1.4,0.9c0.8,0.1,1.3,0.4,1.7,0.9c0.4,0.5,0.6,1.1,0.6,1.9c0,1.1-0.4,2-1.2,2.5c-0.7,0.4-1.6,0.7-2.8,0.7h-5.1
			v-11.4H1004.6z M1000.8,812.6h3.5c0.8,0,1.4-0.2,1.8-0.5c0.4-0.3,0.6-0.8,0.6-1.5c0-0.6-0.2-1.1-0.6-1.4c-0.4-0.3-1-0.5-1.8-0.5
			h-3.5V812.6z M1000.8,817.9h3.6c0.8,0,1.4-0.2,1.9-0.4c0.6-0.4,0.8-0.9,0.8-1.6s-0.3-1.3-0.7-1.6c-0.5-0.4-1.1-0.5-2-0.5h-3.6
			V817.9z"/>
		<path class="st3" d="M1022,808.2c0.7,0.6,1,1.3,1,2.3c0,1.3-0.6,2.1-1.9,2.6c0.7,0.2,1.2,0.5,1.5,1c0.4,0.4,0.6,1,0.6,1.7
			c0,1-0.4,1.9-1.1,2.5c-0.7,0.7-1.7,1-2.9,1c-1.1,0-2-0.3-2.7-0.8c-0.8-0.7-1.3-1.6-1.4-2.9h1.3c0,0.9,0.3,1.6,0.9,2
			c0.5,0.4,1.1,0.6,1.8,0.6c0.8,0,1.5-0.2,2-0.7c0.4-0.4,0.7-1,0.7-1.7c0-0.7-0.2-1.2-0.7-1.6c-0.4-0.4-1.1-0.6-1.9-0.6h-0.9v-1h0.9
			c0.8,0,1.3-0.2,1.7-0.5c0.4-0.4,0.6-0.8,0.6-1.5c0-0.6-0.2-1.1-0.6-1.5c-0.4-0.4-1-0.6-1.7-0.6c-0.8,0-1.4,0.2-1.8,0.6
			c-0.4,0.4-0.7,1-0.8,1.8h-1.3c0.1-1.1,0.5-2,1.2-2.6c0.7-0.6,1.6-0.9,2.6-0.9S1021.4,807.6,1022,808.2z"/>
		<path class="st3" d="M1026.9,817.4c0.2,0.2,0.3,0.4,0.3,0.7c0,0.3-0.1,0.5-0.3,0.7c-0.2,0.2-0.4,0.3-0.7,0.3
			c-0.3,0-0.5-0.1-0.7-0.3c-0.2-0.2-0.3-0.4-0.3-0.7c0-0.3,0.1-0.5,0.3-0.7c0.2-0.2,0.4-0.3,0.7-0.3
			C1026.4,817.1,1026.7,817.2,1026.9,817.4z"/>
		<path class="st3" d="M1036.2,809.2c0.6,1,0.9,2.4,0.9,4.1c0,1.7-0.3,3.1-0.9,4.1c-0.7,1.2-1.7,1.8-3.1,1.8c-1.4,0-2.4-0.6-3.1-1.8
			c-0.6-1-0.9-2.4-0.9-4.1c0-1.7,0.3-3.1,0.9-4.1c0.7-1.2,1.7-1.8,3.1-1.8C1034.4,807.3,1035.5,807.9,1036.2,809.2z M1030.9,810.1
			c-0.3,0.8-0.5,1.8-0.5,3.2c0,1.3,0.2,2.4,0.5,3.2c0.4,1.1,1.2,1.6,2.2,1.6s1.8-0.6,2.2-1.6c0.3-0.8,0.5-1.8,0.5-3.2
			c0-1.3-0.2-2.4-0.5-3.2c-0.4-1.1-1.2-1.6-2.2-1.6S1031.3,809,1030.9,810.1z"/>
		<path class="st3" d="M1051.6,806c2,2.2,4.4,4,7,5.3l-0.6,1.1c-2.7-1.4-4.9-3.2-6.8-5.4c-1.7,2.1-4,3.9-6.9,5.4l-0.6-1.1
			c2.8-1.4,5.2-3.2,7.1-5.3H1051.6z M1052.2,810.2v3.6h4.4v1.1h-4.4v3.9h5.5v1.1h-13.3v-1.1h2.4v-6.3h1.1v6.3h3.1v-8.6H1052.2z"/>
		<path class="st3" d="M1066.1,806.1v12.7h2.3v-12.7h1.2v12.7h4.8v1.1h-14.2v-1.1h4.8v-12.7H1066.1z M1063.7,816.4l-1.1,0.3
			c-0.6-2.6-1.3-5-2.2-7.4l1-0.3C1062.3,811.1,1063.1,813.6,1063.7,816.4z M1073.9,809.3c-0.6,2.8-1.4,5.2-2.4,7.3l-1-0.4
			c0.9-1.9,1.7-4.3,2.4-7.2L1073.9,809.3z"/>
		<path class="st3" d="M1081,806.1v4.2h0.9v1.1h-3.8v0.8c0,0.5,0,1,0,1.4h3.1v6.8h-1.1v-5.7h-2c-0.2,2.4-0.6,4.2-1.3,5.5l-0.9-0.8
			c0.7-1.5,1.1-4,1.1-7.3v-5.9h1.1v3.9h1.7v-4.2H1081z M1083.9,813.4c-0.1,3-0.6,5.3-1.6,7.1l-0.8-0.8c0.8-1.5,1.2-3.6,1.3-6.3v-6.4
			c2.5,0,4.8-0.4,6.8-1l0.6,1c-1.9,0.5-4,0.9-6.3,1v2.5h5.9v1c-0.4,2.2-1.1,4.1-2.1,5.6c0.8,1.1,1.7,1.9,2.9,2.4l-0.6,1
			c-1.2-0.6-2.2-1.5-3-2.5c-0.9,1-1.9,1.9-3.2,2.5l-0.6-1c1.2-0.7,2.2-1.5,3-2.5c-0.9-1.5-1.6-3.3-1.9-5.5h-0.5V813.4z M1087,816.1
			c0.8-1.3,1.4-2.8,1.6-4.5h-3.2C1085.8,813.4,1086.3,814.9,1087,816.1z"/>
		<path class="st3" d="M1106,808.4c0.8,0.7,1.3,1.6,1.5,2.8h-1.3c-0.2-0.9-0.6-1.5-1.2-2c-0.6-0.5-1.4-0.7-2.4-0.7
			c-1.2,0-2.2,0.4-3,1.3c-0.7,0.9-1.1,2-1.1,3.5c0,1.4,0.4,2.6,1.1,3.4c0.8,0.9,1.9,1.3,3.4,1.3c0.6,0,1.2-0.1,1.8-0.3
			c0.6-0.2,1-0.4,1.4-0.6v-2.9h-3.6v-1.1h4.9v4.7c-0.5,0.4-1.2,0.8-2,1c-0.8,0.3-1.7,0.4-2.7,0.4c-1.8,0-3.2-0.6-4.2-1.7
			c-0.9-1.1-1.4-2.5-1.4-4.2c0-1.7,0.4-3.1,1.4-4.2c1-1.2,2.3-1.8,4-1.8C1104,807.3,1105.1,807.7,1106,808.4z"/>
		<path class="st3" d="M1114.5,807.6l4.5,11.4h-1.4l-1.2-3.2h-5.2l-1.2,3.2h-1.4l4.5-11.4H1114.5z M1116,814.7l-2.2-5.7h-0.1
			l-2.2,5.7H1116z"/>
		<path class="st3" d="M1127.5,806.4l1.1,0.2l-0.9,3.2h2.8c0.3-1.2,0.6-2.5,0.8-3.9l1.2,0.1c-0.2,1.3-0.5,2.6-0.8,3.8h7.5v1.1h-7.8
			c-0.2,0.6-0.4,1.2-0.6,1.8h6.5v1c-0.4,1.4-1.3,2.6-2.6,3.7c1.3,0.8,2.9,1.5,4.7,2.1l-0.6,1.1c-2-0.8-3.7-1.6-5.1-2.4
			c-1.3,0.9-2.9,1.8-4.9,2.5l-0.6-1.1c1.8-0.7,3.3-1.4,4.5-2.2c-1.2-1-2.1-2-2.7-3.1c-1.2,2.5-2.7,4.5-4.5,6l-0.6-1.1
			c2.3-2,4.1-4.8,5.2-8.4h-4L1127.5,806.4z M1133.7,816.7c1.2-0.9,2-1.9,2.4-3h-5.2C1131.5,814.8,1132.4,815.8,1133.7,816.7z
			 M1138,808.6l-0.8,0.8c-0.7-0.8-1.6-1.7-2.8-2.7l0.8-0.8C1136.3,806.8,1137.2,807.7,1138,808.6z"/>
		<path class="st3" d="M1146.1,806.1v4.2h0.9v1.1h-3.8v0.8c0,0.5,0,1,0,1.4h3.1v6.8h-1.1v-5.7h-2c-0.2,2.4-0.6,4.2-1.3,5.5l-0.9-0.8
			c0.7-1.5,1.1-4,1.1-7.3v-5.9h1.1v3.9h1.7v-4.2H1146.1z M1149,813.4c-0.1,3-0.6,5.3-1.6,7.1l-0.8-0.8c0.8-1.5,1.2-3.6,1.3-6.3v-6.4
			c2.5,0,4.8-0.4,6.8-1l0.6,1c-1.9,0.5-4,0.9-6.3,1v2.5h5.9v1c-0.4,2.2-1.1,4.1-2.1,5.6c0.8,1.1,1.7,1.9,2.9,2.4l-0.6,1
			c-1.2-0.6-2.2-1.5-3-2.5c-0.9,1-1.9,1.9-3.2,2.5l-0.6-1c1.2-0.7,2.2-1.5,3-2.5c-0.9-1.5-1.6-3.3-1.9-5.5h-0.5V813.4z
			 M1152.2,816.1c0.8-1.3,1.4-2.8,1.6-4.5h-3.2C1150.9,813.4,1151.5,814.9,1152.2,816.1z"/>
	</g>
	<g class="st0">
		<path class="st2" d="M981.9,878.6c0.8,1.1,1.2,2.6,1.2,4.6c0,2.1-0.5,3.8-1.3,5.1c-0.9,1.3-2.1,1.9-3.5,1.9c-2.5,0-4-1.2-4.3-3.5
			h2.1c0.3,1.2,1,1.8,2.2,1.8c0.8,0,1.5-0.4,2.1-1.3c0.5-0.8,0.7-1.8,0.7-3v-0.2H981c-0.4,0.5-0.8,0.9-1.4,1.2
			c-0.5,0.2-1.1,0.4-1.7,0.4c-1.3,0-2.3-0.4-3-1.2c-0.8-0.8-1.1-1.8-1.1-3.1c0-1.3,0.4-2.4,1.3-3.2c0.9-0.8,1.9-1.3,3.2-1.3
			C979.8,876.9,981,877.5,981.9,878.6z M976.5,879.4c-0.5,0.5-0.7,1.2-0.7,1.9c0,0.8,0.2,1.4,0.7,1.9c0.4,0.5,1,0.7,1.8,0.7
			c0.8,0,1.4-0.3,1.8-0.7c0.4-0.5,0.7-1.1,0.7-2s-0.2-1.5-0.7-1.9c-0.5-0.5-1.1-0.7-1.8-0.7C977.6,878.6,977,878.9,976.5,879.4z"/>
		<path class="st2" d="M993.6,892l-1.4-1.3c1.1-1.6,1.7-3.6,1.7-6v-8.8h10.9v14.1c0,1.2-0.6,1.8-1.8,1.8h-2.3l-0.5-1.8
			c0.8,0.1,1.5,0.1,2.2,0.1c0.4,0,0.5-0.3,0.5-0.7v-3h-7.2C995.4,888.6,994.7,890.5,993.6,892z M1002.8,877.6h-7.1v2.5h7.1V877.6z
			 M995.7,884.5h7.1v-2.7h-7.1V884.5z"/>
	</g>
	<g class="st0">
		<path class="st3" d="M988.2,915.8v1.2h-14.4v-1.2H988.2z"/>
		<path class="st3" d="M990,917.3l-0.3-1.2c1.7-2,2.9-4.4,3.6-7l1,0.5c-0.4,1.3-0.9,2.6-1.6,3.8v10.5h-1.1v-8.6
			C991.1,916,990.5,916.7,990,917.3z M998.2,911.9v-2.8h1.1v2.8h4.4v1.1h-3.3c0.7,2.6,2,5,3.9,7.1l-0.8,0.9c-2-2.4-3.3-5-4-8h-0.2
			v6.4h2.5v1.1h-2.5v3.3h-1.1v-3.3h-2.4v-1.1h2.4v-6.4H998c-0.8,3.3-2.2,6.1-4.2,8.2l-0.6-1c1.8-1.9,3.1-4.3,3.8-7.2H994v-1.1H998.2
			z"/>
		<path class="st3" d="M1011.6,909.6c-0.6,1.3-1.3,2.6-2.1,3.8v10.5h-1.2v-9.1c-0.7,0.8-1.5,1.5-2.4,2.2l-0.4-1.2
			c2.3-2,3.9-4.2,4.9-6.7L1011.6,909.6z M1014.9,923.6c-1.1,0-1.7-0.6-1.7-1.7V917c-0.7,0.4-1.4,0.7-2.1,1.1l-0.5-1.1
			c0.9-0.4,1.8-0.8,2.6-1.3v-6.4h1.2v5.7c1.7-1.1,3.2-2.4,4.4-3.8l0.8,0.9c-1.5,1.6-3.2,3-5.2,4.3v5.4c0,0.5,0.3,0.8,0.8,0.8h2.6
			c0.4,0,0.7-0.1,0.9-0.4c0.2-0.3,0.3-1.2,0.4-2.8l1.1,0.4c-0.1,1.8-0.3,3-0.6,3.3c-0.3,0.4-0.8,0.6-1.6,0.6H1014.9z"/>
		<path class="st3" d="M1025.8,916.8c-0.1,0.3-0.2,0.6-0.3,0.9h3.3v0.9c-0.4,1.1-0.9,2-1.8,2.7c0.8,0.4,1.5,0.7,2.2,1.1l-0.6,0.9
			c-0.7-0.4-1.5-0.8-2.5-1.3c-1.1,0.7-2.4,1.3-4,1.8l-0.5-1c1.3-0.4,2.4-0.8,3.4-1.3c-0.7-0.3-1.4-0.6-2.2-0.9
			c0.4-0.7,0.8-1.4,1.1-2h-1.9v-1h2.3c0.1-0.4,0.3-0.7,0.4-1L1025.8,916.8z M1025.2,912.3v-3.1h1.1v3.1h2.9v1h-2.9v0.2
			c0.9,0.4,1.8,0.9,2.7,1.5l-0.6,0.9c-0.8-0.6-1.5-1.2-2.1-1.5v2.1h-1.1v-3c-0.5,1.3-1.5,2.4-2.9,3.3l-0.6-0.9
			c1.2-0.7,2.1-1.5,2.6-2.4h-2.3v-1H1025.2z M1024.3,911.5l-0.8,0.4c-0.3-0.8-0.7-1.5-1.1-2.1l0.9-0.3
			C1023.7,910.1,1024,910.8,1024.3,911.5z M1027.8,918.7h-2.8c-0.3,0.5-0.5,1.1-0.9,1.5c0.6,0.2,1.2,0.4,1.8,0.7
			C1026.8,920.2,1027.4,919.5,1027.8,918.7z M1029,909.8c-0.3,0.7-0.7,1.4-1.2,2.1l-0.8-0.4c0.5-0.7,0.9-1.4,1.2-2L1029,909.8z
			 M1030.8,915.3c-0.3,0.7-0.6,1.4-0.9,2l-0.7-0.9c0.9-1.8,1.6-4.2,1.9-7.3l1.1,0.2c-0.1,0.8-0.2,1.6-0.4,2.3h4.2v1.1h-1
			c-0.1,2.7-0.6,5-1.5,6.9c0.8,1.4,1.8,2.5,3,3.3l-0.6,0.9c-1.1-0.8-2.1-1.9-2.9-3.2c-0.8,1.3-1.8,2.4-3,3.2l-0.6-1
			c1.2-0.9,2.2-2,3-3.3C1031.7,918.3,1031.2,916.9,1030.8,915.3z M1031.3,913.6c0.4,1.9,0.9,3.5,1.6,4.8c0.6-1.6,1-3.5,1-5.7h-2.4
			L1031.3,913.6z"/>
		<path class="st3" d="M1038.3,923.7l-0.2-1.1c0.4,0,0.8,0.1,1.2,0.1c0.4,0,0.6-0.2,0.6-0.7v-3.9c-0.6,0.2-1.3,0.5-1.9,0.7l-0.3-1.1
			c0.7-0.2,1.5-0.4,2.2-0.7v-3.6h-1.9v-1.1h1.9v-3h1.1v3h1.5v1.1h-1.5v3.2c0.5-0.2,1-0.5,1.5-0.7v1.1c-0.5,0.3-1,0.5-1.5,0.7v4.7
			c0,0.9-0.4,1.4-1.3,1.4H1038.3z M1042.5,923.9l-0.9-0.8c1.1-2.1,1.7-4.9,1.7-8.2v-5h8.4v3.9h-3v1.9h3.4v1h-3.4v2h2.7v5.2h-1.1
			v-0.8h-4.3v0.8h-1.1v-5.2h2.7v-2h-3.3C1044.2,919.4,1043.6,921.8,1042.5,923.9z M1044.5,913.7v1.1c0,0.3,0,0.5,0,0.8h3.2v-1.9
			H1044.5z M1044.5,910.9v1.8h6.2v-1.8H1044.5z M1050.4,922.1v-2.4h-4.3v2.4H1050.4z"/>
		<path class="st3" d="M1063.9,923.8l-0.3-1.2l2.1,0c0.4,0,0.6-0.2,0.6-0.7v-11h-10.5v12.9h-1.2v-14h12.8v12.4c0,1-0.5,1.6-1.4,1.6
			H1063.9z M1065.1,912.8v1.1h-8.2v-1.1H1065.1z M1064.2,915.6v5.2h-6.4v-5.2H1064.2z M1063.1,916.6h-4.2v3.1h4.2V916.6z"/>
		<path class="st3" d="M1077.7,909.2v1.9h4.8v1.1h-4.8v2.2h6.4v1.1h-6.4v4.8h-1.2v-4.8h-6.7v-1.1h2.4v-4h1.2v4h3v-5.2H1077.7z
			 M1074.6,917c-1,1.5-2.1,2.8-3.5,3.9l-0.7-0.9c1.4-1.1,2.5-2.3,3.4-3.7L1074.6,917z M1082.8,917.3c-2,4.4-5.9,6.7-11.6,6.7
			l-0.4-1.1c5.5,0,9.2-2,10.9-6.1L1082.8,917.3z"/>
		<path class="st3" d="M1099.5,909.9v1.1h-6v6h6.6v1.1h-6.6v5.7h-1.2v-5.7h-6.4v-1.1h6.4v-6h-5.8v-1.1H1099.5z M1090.2,915.7
			l-1.1,0.5c-0.5-1.4-1.1-2.6-1.7-3.7l1.1-0.5C1089.1,913.2,1089.7,914.4,1090.2,915.7z M1098.6,912.5c-0.5,1.3-1.1,2.5-1.9,3.7
			l-1-0.5c0.8-1.2,1.4-2.5,1.9-3.7L1098.6,912.5z"/>
		<path class="st3" d="M1102.3,914.5c1.4-0.5,3.2-2.3,5.2-5.3l1.2,0.4c-1.4,2-2.9,3.7-4.3,4.9c3.1-0.1,6-0.3,8.7-0.6
			c-0.6-0.9-1.2-1.7-1.9-2.4l1-0.5c1.4,1.6,2.7,3.4,3.8,5.3l-1.1,0.5c-0.4-0.7-0.8-1.3-1.2-1.9c-3.4,0.3-7.1,0.5-11.3,0.7
			L1102.3,914.5z M1114.3,923.9h-1.2v-0.8h-8.4v0.8h-1.2v-6.7h10.7V923.9z M1113.2,922v-3.7h-8.4v3.7H1113.2z"/>
		<path class="st3" d="M1132,910.9v1.1h-4v10.3h-1.3V912h-4v-1.1H1132z"/>
		<path class="st3" d="M1135,911.2c0.2,0.2,0.3,0.4,0.3,0.7c0,0.3-0.1,0.5-0.3,0.7c-0.2,0.2-0.4,0.3-0.7,0.3s-0.5-0.1-0.7-0.3
			c-0.2-0.2-0.3-0.4-0.3-0.7c0-0.3,0.1-0.5,0.3-0.7c0.2-0.2,0.4-0.3,0.7-0.3S1134.8,911,1135,911.2z M1134.9,914v8.3h-1.3V914
			H1134.9z"/>
		<path class="st3" d="M1141.6,910.9c1.8,0,3.2,0.5,4.1,1.6c0.8,1,1.3,2.4,1.3,4.1c0,1.8-0.5,3.2-1.4,4.1c-1,1-2.3,1.6-4.1,1.6h-4
			v-11.4H1141.6z M1138.8,921.1h2.4c1.5,0,2.6-0.4,3.4-1.2c0.7-0.8,1.1-1.9,1.1-3.4c0-1.5-0.3-2.7-1-3.4c-0.7-0.8-1.8-1.2-3.3-1.2
			h-2.6V921.1z"/>
		<path class="st3" d="M1153.9,910.9c1.1,0,1.9,0.3,2.5,0.8c0.6,0.5,0.9,1.2,0.9,2.1c0,0.6-0.2,1.2-0.5,1.7
			c-0.4,0.4-0.8,0.7-1.4,0.9c0.8,0.1,1.3,0.4,1.7,0.9c0.4,0.5,0.6,1.1,0.6,1.9c0,1.1-0.4,2-1.2,2.5c-0.7,0.4-1.6,0.7-2.8,0.7h-5.1
			v-11.4H1153.9z M1150.1,915.8h3.5c0.8,0,1.4-0.2,1.8-0.5c0.4-0.3,0.6-0.8,0.6-1.5c0-0.6-0.2-1.1-0.6-1.4c-0.4-0.3-1-0.5-1.8-0.5
			h-3.5V915.8z M1150.1,921.2h3.7c0.8,0,1.4-0.2,1.9-0.4c0.6-0.4,0.8-0.9,0.8-1.6s-0.3-1.3-0.7-1.6c-0.5-0.4-1.1-0.5-2-0.5h-3.7
			V921.2z"/>
		<path class="st3" d="M1169,910.9c1.8,0,3.2,0.5,4.1,1.6c0.8,1,1.3,2.4,1.3,4.1c0,1.8-0.5,3.2-1.4,4.1c-1,1-2.3,1.6-4.1,1.6h-4
			v-11.4H1169z M1166.2,921.1h2.4c1.5,0,2.6-0.4,3.4-1.2c0.7-0.8,1.1-1.9,1.1-3.4c0-1.5-0.3-2.7-1-3.4c-0.7-0.8-1.8-1.2-3.3-1.2
			h-2.6V921.1z"/>
		<path class="st3" d="M1182.3,914.7c0.5,0.5,0.7,1.3,0.7,2.3v5.3h-1.2v-1.4c-0.3,0.4-0.8,0.8-1.3,1.1c-0.6,0.3-1.3,0.5-2.1,0.5
			c-0.8,0-1.5-0.2-2-0.6c-0.5-0.4-0.8-1-0.8-1.7c0-0.9,0.4-1.6,1.1-2.1c0.7-0.4,1.6-0.7,2.9-0.7l2,0v-0.4c0-1.4-0.7-2.1-2.2-2.1
			c-0.6,0-1.1,0.1-1.5,0.4c-0.4,0.3-0.7,0.7-0.8,1.2l-1.3-0.1c0.2-0.9,0.6-1.5,1.3-1.9c0.6-0.4,1.4-0.6,2.4-0.6
			C1180.9,913.8,1181.7,914.1,1182.3,914.7z M1179.8,918.3c-1.9,0-2.8,0.6-2.8,1.8c0,0.4,0.1,0.7,0.5,0.9c0.3,0.2,0.7,0.4,1.2,0.4
			c0.8,0,1.5-0.3,2.1-0.8c0.6-0.5,0.9-1.1,0.9-1.7v-0.7L1179.8,918.3z"/>
		<path class="st3" d="M1187.2,914h2v1.1h-2v5.3c0,0.3,0,0.5,0.2,0.7c0.1,0.1,0.3,0.2,0.6,0.2h1.1v1.1h-1.2c-0.7,0-1.2-0.2-1.5-0.5
			c-0.3-0.3-0.4-0.8-0.4-1.4v-5.3h-1.7V914h1.7v-2.1l1.3-0.5V914z"/>
		<path class="st3" d="M1196.9,914.7c0.5,0.5,0.7,1.3,0.7,2.3v5.3h-1.2v-1.4c-0.3,0.4-0.8,0.8-1.3,1.1c-0.6,0.3-1.3,0.5-2.1,0.5
			c-0.8,0-1.5-0.2-2-0.6c-0.5-0.4-0.8-1-0.8-1.7c0-0.9,0.4-1.6,1.1-2.1c0.7-0.4,1.6-0.7,2.9-0.7l2,0v-0.4c0-1.4-0.7-2.1-2.2-2.1
			c-0.6,0-1.1,0.1-1.5,0.4c-0.4,0.3-0.7,0.7-0.8,1.2l-1.3-0.1c0.2-0.9,0.6-1.5,1.3-1.9c0.6-0.4,1.4-0.6,2.4-0.6
			C1195.5,913.8,1196.3,914.1,1196.9,914.7z M1194.5,918.3c-1.9,0-2.8,0.6-2.8,1.8c0,0.4,0.1,0.7,0.5,0.9c0.3,0.2,0.7,0.4,1.2,0.4
			c0.8,0,1.5-0.3,2.1-0.8c0.6-0.5,0.9-1.1,0.9-1.7v-0.7L1194.5,918.3z"/>
		<path class="st3" d="M1206.8,910.9l4.3,9.7h0l4.2-9.7h1.6v11.4h-1.3v-9.1h0l-4,9.1h-1.2l-4-9.1h0v9.1h-1.3v-11.4H1206.8z"/>
		<path class="st3" d="M1220.8,911.2c0.2,0.2,0.3,0.4,0.3,0.7c0,0.3-0.1,0.5-0.3,0.7c-0.2,0.2-0.4,0.3-0.7,0.3
			c-0.3,0-0.5-0.1-0.7-0.3c-0.2-0.2-0.3-0.4-0.3-0.7c0-0.3,0.1-0.5,0.3-0.7c0.2-0.2,0.4-0.3,0.7-0.3
			C1220.4,910.9,1220.6,911,1220.8,911.2z M1220.8,914v8.3h-1.3V914H1220.8z"/>
		<path class="st3" d="M1229.4,915.4V914h1.3v7.7c0,2.6-1.3,4-3.8,4c-1.1,0-2-0.2-2.6-0.7c-0.6-0.4-1-1.1-1.1-2h1.3
			c0.1,0.6,0.3,1,0.7,1.2c0.4,0.3,0.9,0.4,1.7,0.4c1.7,0,2.5-0.9,2.5-2.8v-1.5c-0.6,1.1-1.5,1.7-2.8,1.7c-1.2,0-2.1-0.4-2.7-1.2
			c-0.7-0.8-1-1.7-1-2.9c0-1.2,0.3-2.2,1-3c0.7-0.8,1.6-1.2,2.7-1.2C1227.8,913.8,1228.8,914.3,1229.4,915.4z M1224.8,915.7
			c-0.4,0.5-0.7,1.3-0.7,2.2c0,0.9,0.2,1.6,0.6,2.1c0.4,0.6,1.1,0.9,2,0.9c0.8,0,1.5-0.3,2-0.9c0.4-0.6,0.7-1.3,0.7-2.2
			c0-0.9-0.2-1.7-0.7-2.2c-0.5-0.6-1.1-0.9-1.9-0.9C1225.9,914.8,1225.3,915.1,1224.8,915.7z"/>
		<path class="st3" d="M1237.4,914v1.3c-0.4-0.1-0.8-0.2-1.2-0.2c-0.6,0-1.2,0.3-1.6,0.8c-0.4,0.5-0.7,1.2-0.7,2v4.4h-1.3V914h1.3
			v1.4c0.2-0.5,0.5-0.9,0.9-1.1c0.4-0.4,0.9-0.5,1.5-0.5C1236.7,913.8,1237.1,913.8,1237.4,914z"/>
		<path class="st3" d="M1244.7,914.7c0.5,0.5,0.7,1.3,0.7,2.3v5.3h-1.2v-1.4c-0.3,0.4-0.8,0.8-1.3,1.1c-0.6,0.3-1.3,0.5-2.1,0.5
			c-0.8,0-1.5-0.2-2-0.6c-0.5-0.4-0.8-1-0.8-1.7c0-0.9,0.4-1.6,1.1-2.1c0.7-0.4,1.6-0.7,2.9-0.7l2,0v-0.4c0-1.4-0.7-2.1-2.2-2.1
			c-0.6,0-1.1,0.1-1.5,0.4c-0.4,0.3-0.7,0.7-0.8,1.2l-1.3-0.1c0.2-0.9,0.6-1.5,1.3-1.9c0.6-0.4,1.4-0.6,2.4-0.6
			C1243.3,913.8,1244.1,914.1,1244.7,914.7z M1242.2,918.3c-1.9,0-2.8,0.6-2.8,1.8c0,0.4,0.1,0.7,0.5,0.9c0.3,0.2,0.7,0.4,1.2,0.4
			c0.8,0,1.5-0.3,2.1-0.8c0.6-0.5,0.9-1.1,0.9-1.7v-0.7L1242.2,918.3z"/>
		<path class="st3" d="M1249.6,914h2v1.1h-2v5.3c0,0.3,0,0.5,0.2,0.7c0.1,0.1,0.3,0.2,0.6,0.2h1.1v1.1h-1.2c-0.7,0-1.2-0.2-1.5-0.5
			c-0.3-0.3-0.4-0.8-0.4-1.4v-5.3h-1.7V914h1.7v-2.1l1.3-0.5V914z"/>
		<path class="st3" d="M1254.8,911.2c0.2,0.2,0.3,0.4,0.3,0.7c0,0.3-0.1,0.5-0.3,0.7c-0.2,0.2-0.4,0.3-0.7,0.3s-0.5-0.1-0.7-0.3
			c-0.2-0.2-0.3-0.4-0.3-0.7c0-0.3,0.1-0.5,0.3-0.7c0.2-0.2,0.4-0.3,0.7-0.3S1254.6,911,1254.8,911.2z M1254.8,914v8.3h-1.3V914
			H1254.8z"/>
		<path class="st3" d="M1263.8,915.1c0.7,0.8,1.1,1.8,1.1,3.1c0,1.2-0.4,2.3-1,3.1c-0.8,0.9-1.7,1.3-3,1.3c-1.2,0-2.2-0.4-3-1.3
			c-0.7-0.8-1.1-1.8-1.1-3.1c0-1.2,0.4-2.3,1.1-3.1c0.7-0.9,1.7-1.3,3-1.3C1262.1,913.8,1263.1,914.2,1263.8,915.1z M1258.8,915.9
			c-0.4,0.6-0.7,1.4-0.7,2.3c0,0.9,0.2,1.7,0.7,2.3c0.5,0.7,1.2,1,2,1c0.9,0,1.6-0.3,2.1-1c0.4-0.6,0.7-1.4,0.7-2.3
			c0-0.9-0.2-1.7-0.7-2.3c-0.5-0.7-1.2-1-2.1-1C1260,914.9,1259.3,915.2,1258.8,915.9z"/>
		<path class="st3" d="M1273.5,917.2v5.1h-1.3v-5c0-1.6-0.7-2.4-2.2-2.4c-0.6,0-1.1,0.2-1.5,0.6c-0.4,0.4-0.7,1-0.7,1.8v5h-1.3V914
			h1.3v1.2c0.3-0.5,0.7-0.8,1.1-1.1c0.4-0.3,0.9-0.4,1.5-0.4C1272.5,913.8,1273.5,914.9,1273.5,917.2z"/>
		<path class="st3" d="M1284.6,910.9v11.4h-1.3v-9.8c-0.7,0.7-1.6,1.2-2.7,1.6v-1.3c0.5-0.1,1.1-0.4,1.6-0.7c0.5-0.4,1-0.7,1.4-1.2
			H1284.6z"/>
		<path class="st3" d="M1289.1,920.7c0.2,0.2,0.3,0.4,0.3,0.7c0,0.3-0.1,0.5-0.3,0.7c-0.2,0.2-0.4,0.3-0.7,0.3
			c-0.3,0-0.5-0.1-0.7-0.3c-0.2-0.2-0.3-0.4-0.3-0.7c0-0.3,0.1-0.5,0.3-0.7c0.2-0.2,0.4-0.3,0.7-0.3
			C1288.6,920.4,1288.9,920.5,1289.1,920.7z"/>
		<path class="st3" d="M1298.4,912.4c0.6,1,0.9,2.4,0.9,4.1c0,1.7-0.3,3.1-0.9,4.1c-0.7,1.2-1.7,1.8-3.1,1.8c-1.4,0-2.4-0.6-3.1-1.8
			c-0.6-1-0.9-2.4-0.9-4.1c0-1.7,0.3-3.1,0.9-4.1c0.7-1.2,1.7-1.8,3.1-1.8C1296.6,910.6,1297.7,911.2,1298.4,912.4z M1293.1,913.4
			c-0.3,0.8-0.5,1.8-0.5,3.2c0,1.3,0.2,2.4,0.5,3.2c0.4,1.1,1.2,1.6,2.2,1.6s1.8-0.6,2.2-1.6c0.3-0.8,0.5-1.8,0.5-3.2
			c0-1.3-0.2-2.4-0.5-3.2c-0.4-1.1-1.2-1.6-2.2-1.6S1293.5,912.3,1293.1,913.4z"/>
		<path class="st3" d="M1314.9,911.7c0.8,0.7,1.3,1.6,1.5,2.8h-1.3c-0.2-0.9-0.6-1.5-1.2-2c-0.6-0.5-1.4-0.7-2.4-0.7
			c-1.2,0-2.2,0.4-3,1.3c-0.7,0.9-1.1,2-1.1,3.5c0,1.4,0.4,2.6,1.1,3.4c0.8,0.9,1.9,1.3,3.4,1.3c0.6,0,1.2-0.1,1.8-0.3
			c0.6-0.2,1-0.4,1.4-0.6v-2.9h-3.6v-1.1h4.9v4.7c-0.5,0.4-1.2,0.8-2,1c-0.8,0.3-1.7,0.4-2.7,0.4c-1.8,0-3.2-0.6-4.2-1.7
			c-0.9-1.1-1.4-2.5-1.4-4.2c0-1.7,0.4-3.1,1.4-4.2c1-1.2,2.3-1.8,4-1.8C1312.9,910.6,1314,911,1314.9,911.7z"/>
		<path class="st3" d="M1323.4,910.9l4.5,11.4h-1.4l-1.2-3.2h-5.2l-1.2,3.2h-1.4l4.5-11.4H1323.4z M1324.8,918l-2.2-5.7h-0.1
			l-2.2,5.7H1324.8z"/>
		<path class="st3" d="M1336.3,909.7l1.1,0.2l-0.9,3.2h2.8c0.3-1.2,0.6-2.5,0.8-3.9l1.2,0.1c-0.2,1.3-0.5,2.6-0.8,3.8h7.5v1.1h-7.8
			c-0.2,0.6-0.4,1.2-0.6,1.8h6.5v1c-0.4,1.4-1.3,2.6-2.6,3.7c1.3,0.8,2.9,1.5,4.7,2.1l-0.6,1.1c-2-0.8-3.7-1.6-5.1-2.4
			c-1.3,0.9-2.9,1.8-4.9,2.5l-0.6-1.1c1.8-0.7,3.3-1.4,4.5-2.2c-1.2-1-2.1-2-2.7-3.1c-1.2,2.5-2.7,4.5-4.5,6l-0.6-1.1
			c2.3-2,4-4.8,5.2-8.4h-4L1336.3,909.7z M1342.6,920c1.2-0.9,2-1.9,2.4-3h-5.2C1340.4,918.1,1341.3,919.1,1342.6,920z
			 M1346.9,911.9l-0.8,0.8c-0.7-0.8-1.6-1.7-2.8-2.7l0.8-0.8C1345.1,910.1,1346.1,911,1346.9,911.9z"/>
	</g>
	<path id="路径_10996_1_" class="st4" d="M894.5,768v153.7"/>
	<g class="st0">
		<path class="st1" d="M649.6,498c5.2-4.3,9.3-7.9,12.4-10.6c3-2.8,5.6-5.7,7.6-8.7s3.1-6,3.1-8.9c0-2.2-0.5-3.9-1.5-5.1
			c-1-1.2-2.5-1.8-4.6-1.8c-2,0-3.6,0.8-4.8,2.3c-1.1,1.5-1.7,3.7-1.7,6.4H647c0.1-4.5,1.1-8.3,2.9-11.4c1.8-3,4.3-5.3,7.3-6.7
			c3-1.4,6.4-2.2,10-2.2c6.3,0,11.1,1.6,14.4,4.9c3.2,3.3,4.8,7.5,4.8,12.7c0,5.7-1.9,11-5.8,15.9c-3.9,4.9-8.9,9.6-14.9,14.3h21.6
			v11.1h-40.2V500C648.9,498.6,649.8,497.9,649.6,498z"/>
		<path class="st1" d="M698.6,459.3c3.5-5.3,9.3-7.9,17.2-7.9c7.9,0,13.6,2.6,17.2,7.9c3.5,5.3,5.3,12.5,5.3,21.7
			c0,9.3-1.8,16.6-5.3,21.8c-3.5,5.3-9.3,7.9-17.2,7.9c-7.9,0-13.6-2.6-17.2-7.9c-3.5-5.3-5.3-12.6-5.3-21.8
			C693.3,471.8,695.1,464.6,698.6,459.3z M723,468.6c-1.2-2.9-3.6-4.4-7.3-4.4c-3.7,0-6.1,1.5-7.3,4.4c-1.2,2.9-1.8,7.1-1.8,12.4
			c0,3.6,0.2,6.6,0.6,9c0.4,2.4,1.3,4.3,2.6,5.8c1.3,1.5,3.2,2.2,5.8,2.2s4.5-0.7,5.8-2.2c1.3-1.5,2.2-3.4,2.6-5.8
			c0.4-2.4,0.6-5.4,0.6-9C724.8,475.6,724.2,471.5,723,468.6z"/>
		<path class="st1" d="M747.4,498c5.2-4.3,9.3-7.9,12.4-10.6c3-2.8,5.6-5.7,7.6-8.7s3.1-6,3.1-8.9c0-2.2-0.5-3.9-1.5-5.1
			c-1-1.2-2.5-1.8-4.6-1.8c-2,0-3.6,0.8-4.8,2.3c-1.1,1.5-1.7,3.7-1.7,6.4h-13.2c0.1-4.5,1.1-8.3,2.9-11.4c1.8-3,4.3-5.3,7.3-6.7
			c3-1.4,6.4-2.2,10-2.2c6.3,0,11.1,1.6,14.4,4.9c3.2,3.3,4.8,7.5,4.8,12.7c0,5.7-1.9,11-5.8,15.9c-3.9,4.9-8.9,9.6-14.9,14.3h21.6
			v11.1H745V500C746.8,498.6,747.6,497.9,747.4,498z"/>
		<path class="st1" d="M796.4,459.3c3.5-5.3,9.3-7.9,17.2-7.9c7.9,0,13.6,2.6,17.2,7.9c3.5,5.3,5.3,12.5,5.3,21.7
			c0,9.3-1.8,16.6-5.3,21.8c-3.5,5.3-9.3,7.9-17.2,7.9c-7.9,0-13.6-2.6-17.2-7.9c-3.5-5.3-5.3-12.6-5.3-21.8
			C791.1,471.8,792.9,464.6,796.4,459.3z M820.9,468.6c-1.2-2.9-3.6-4.4-7.3-4.4c-3.7,0-6.1,1.5-7.3,4.4c-1.2,2.9-1.8,7.1-1.8,12.4
			c0,3.6,0.2,6.6,0.6,9c0.4,2.4,1.3,4.3,2.6,5.8c1.3,1.5,3.2,2.2,5.8,2.2s4.5-0.7,5.8-2.2c1.3-1.5,2.2-3.4,2.6-5.8
			c0.4-2.4,0.6-5.4,0.6-9C822.6,475.6,822.1,471.5,820.9,468.6z"/>
	</g>
	<g class="st0">
		<path class="st2" d="M982.5,455.1v1.9h-6.1l-0.4,3.5h0.1c0.4-0.4,0.8-0.7,1.4-0.9c0.5-0.2,1-0.3,1.6-0.3c1.2,0,2.2,0.4,3,1.2
			c0.8,0.8,1.2,1.9,1.2,3.3c0,1.3-0.5,2.4-1.5,3.3c-0.9,0.8-2,1.1-3.3,1.1c-1.2,0-2.2-0.3-3-1c-0.9-0.7-1.4-1.7-1.5-2.8h2.1
			c0.1,0.7,0.4,1.2,0.8,1.6c0.4,0.3,1,0.5,1.7,0.5c0.8,0,1.4-0.2,1.9-0.7c0.5-0.5,0.8-1.1,0.8-1.9c0-0.9-0.2-1.5-0.7-2
			c-0.4-0.5-1.1-0.7-1.9-0.7c-0.6,0-1,0.1-1.4,0.3c-0.4,0.2-0.8,0.5-1,1h-2l0.7-7.2H982.5z"/>
		<path class="st2" d="M993.6,470l-1.4-1.3c1.1-1.6,1.7-3.6,1.7-6v-8.8h10.9v14.1c0,1.2-0.6,1.8-1.8,1.8h-2.3l-0.5-1.8
			c0.8,0.1,1.5,0.1,2.2,0.1c0.4,0,0.5-0.3,0.5-0.7v-3h-7.2C995.4,466.6,994.7,468.5,993.6,470z M1002.8,455.6h-7.1v2.5h7.1V455.6z
			 M995.7,462.5h7.1v-2.7h-7.1V462.5z"/>
	</g>
	<g class="st0">
		<path class="st3" d="M982.6,488.6v1.1h-4V500h-1.3v-10.3h-4v-1.1H982.6z"/>
		<path class="st3" d="M985.6,488.9c0.2,0.2,0.3,0.4,0.3,0.7c0,0.3-0.1,0.5-0.3,0.7c-0.2,0.2-0.4,0.3-0.7,0.3s-0.5-0.1-0.7-0.3
			c-0.2-0.2-0.3-0.4-0.3-0.7c0-0.3,0.1-0.5,0.3-0.7c0.2-0.2,0.4-0.3,0.7-0.3S985.4,488.7,985.6,488.9z M985.6,491.7v8.3h-1.3v-8.3
			H985.6z"/>
		<path class="st3" d="M992.2,488.6c1.8,0,3.2,0.5,4.1,1.6c0.8,1,1.3,2.4,1.3,4.1c0,1.8-0.5,3.2-1.4,4.1c-1,1-2.3,1.6-4.1,1.6h-4
			v-11.4H992.2z M989.5,498.9h2.4c1.5,0,2.6-0.4,3.4-1.2c0.7-0.8,1.1-1.9,1.1-3.4c0-1.5-0.3-2.7-1-3.4c-0.7-0.8-1.8-1.2-3.3-1.2
			h-2.6V498.9z"/>
		<path class="st3" d="M1004.6,488.6c1.1,0,1.9,0.3,2.5,0.8c0.6,0.5,0.9,1.2,0.9,2.1c0,0.6-0.2,1.2-0.5,1.7
			c-0.4,0.4-0.8,0.7-1.4,0.9c0.8,0.1,1.3,0.4,1.7,0.9c0.4,0.5,0.6,1.1,0.6,1.9c0,1.1-0.4,2-1.2,2.5c-0.7,0.4-1.6,0.7-2.8,0.7h-5.1
			v-11.4H1004.6z M1000.8,493.6h3.5c0.8,0,1.4-0.2,1.8-0.5c0.4-0.3,0.6-0.8,0.6-1.5c0-0.6-0.2-1.1-0.6-1.4c-0.4-0.3-1-0.5-1.8-0.5
			h-3.5V493.6z M1000.8,498.9h3.6c0.8,0,1.4-0.2,1.9-0.4c0.6-0.4,0.8-0.9,0.8-1.6s-0.3-1.3-0.7-1.6c-0.5-0.4-1.1-0.5-2-0.5h-3.6
			V498.9z"/>
		<path class="st3" d="M1021.8,488.6v7.8h1.9v1.1h-1.9v2.6h-1.2v-2.6h-5.7v-1.2l5.8-7.6H1021.8z M1015.9,496.3h4.6v-6.1h0
			L1015.9,496.3z"/>
		<path class="st3" d="M1026.9,498.4c0.2,0.2,0.3,0.4,0.3,0.7c0,0.3-0.1,0.5-0.3,0.7c-0.2,0.2-0.4,0.3-0.7,0.3
			c-0.3,0-0.5-0.1-0.7-0.3c-0.2-0.2-0.3-0.4-0.3-0.7c0-0.3,0.1-0.5,0.3-0.7c0.2-0.2,0.4-0.3,0.7-0.3
			C1026.4,498.1,1026.7,498.2,1026.9,498.4z"/>
		<path class="st3" d="M1036.2,490.2c0.6,1,0.9,2.4,0.9,4.1c0,1.7-0.3,3.1-0.9,4.1c-0.7,1.2-1.7,1.8-3.1,1.8c-1.4,0-2.4-0.6-3.1-1.8
			c-0.6-1-0.9-2.4-0.9-4.1c0-1.7,0.3-3.1,0.9-4.1c0.7-1.2,1.7-1.8,3.1-1.8C1034.4,488.3,1035.5,488.9,1036.2,490.2z M1030.9,491.1
			c-0.3,0.8-0.5,1.8-0.5,3.2c0,1.3,0.2,2.4,0.5,3.2c0.4,1.1,1.2,1.6,2.2,1.6s1.8-0.6,2.2-1.6c0.3-0.8,0.5-1.8,0.5-3.2
			c0-1.3-0.2-2.4-0.5-3.2c-0.4-1.1-1.2-1.6-2.2-1.6S1031.3,490,1030.9,491.1z"/>
		<path class="st3" d="M1051.6,487c2,2.2,4.4,4,7,5.3l-0.6,1.1c-2.7-1.4-4.9-3.2-6.8-5.4c-1.7,2.1-4,3.9-6.9,5.4l-0.6-1.1
			c2.8-1.4,5.2-3.2,7.1-5.3H1051.6z M1052.2,491.2v3.6h4.4v1.1h-4.4v3.9h5.5v1.1h-13.3v-1.1h2.4v-6.3h1.1v6.3h3.1v-8.6H1052.2z"/>
		<path class="st3" d="M1066.1,487.1v12.7h2.3v-12.7h1.2v12.7h4.8v1.1h-14.2v-1.1h4.8v-12.7H1066.1z M1063.7,497.4l-1.1,0.3
			c-0.6-2.6-1.3-5-2.2-7.4l1-0.3C1062.3,492.1,1063.1,494.6,1063.7,497.4z M1073.9,490.3c-0.6,2.8-1.4,5.2-2.4,7.3l-1-0.4
			c0.9-1.9,1.7-4.3,2.4-7.2L1073.9,490.3z"/>
		<path class="st3" d="M1081,487.1v4.2h0.9v1.1h-3.8v0.8c0,0.5,0,1,0,1.4h3.1v6.8h-1.1v-5.7h-2c-0.2,2.4-0.6,4.2-1.3,5.5l-0.9-0.8
			c0.7-1.5,1.1-4,1.1-7.3v-5.9h1.1v3.9h1.7v-4.2H1081z M1083.9,494.4c-0.1,3-0.6,5.3-1.6,7.1l-0.8-0.8c0.8-1.5,1.2-3.6,1.3-6.3v-6.4
			c2.5,0,4.8-0.4,6.8-1l0.6,1c-1.9,0.5-4,0.9-6.3,1v2.5h5.9v1c-0.4,2.2-1.1,4.1-2.1,5.6c0.8,1.1,1.7,1.9,2.9,2.4l-0.6,1
			c-1.2-0.6-2.2-1.5-3-2.5c-0.9,1-1.9,1.9-3.2,2.5l-0.6-1c1.2-0.7,2.2-1.5,3-2.5c-0.9-1.5-1.6-3.3-1.9-5.5h-0.5V494.4z M1087,497.1
			c0.8-1.3,1.4-2.8,1.6-4.5h-3.2C1085.8,494.4,1086.3,495.9,1087,497.1z"/>
		<path class="st3" d="M1106,489.4c0.8,0.7,1.3,1.6,1.5,2.8h-1.3c-0.2-0.9-0.6-1.5-1.2-2c-0.6-0.5-1.4-0.7-2.4-0.7
			c-1.2,0-2.2,0.4-3,1.3c-0.7,0.9-1.1,2-1.1,3.5c0,1.4,0.4,2.6,1.1,3.4c0.8,0.9,1.9,1.3,3.4,1.3c0.6,0,1.2-0.1,1.8-0.3
			c0.6-0.2,1-0.4,1.4-0.6v-2.9h-3.6v-1.1h4.9v4.7c-0.5,0.4-1.2,0.8-2,1c-0.8,0.3-1.7,0.4-2.7,0.4c-1.8,0-3.2-0.6-4.2-1.7
			c-0.9-1.1-1.4-2.5-1.4-4.2c0-1.7,0.4-3.1,1.4-4.2c1-1.2,2.3-1.8,4-1.8C1104,488.3,1105.1,488.7,1106,489.4z"/>
		<path class="st3" d="M1114.5,488.6l4.5,11.4h-1.4l-1.2-3.2h-5.2l-1.2,3.2h-1.4l4.5-11.4H1114.5z M1116,495.7l-2.2-5.7h-0.1
			l-2.2,5.7H1116z"/>
		<path class="st3" d="M1127.5,487.4l1.1,0.2l-0.9,3.2h2.8c0.3-1.2,0.6-2.5,0.8-3.9l1.2,0.1c-0.2,1.3-0.5,2.6-0.8,3.8h7.5v1.1h-7.8
			c-0.2,0.6-0.4,1.2-0.6,1.8h6.5v1c-0.4,1.4-1.3,2.6-2.6,3.7c1.3,0.8,2.9,1.5,4.7,2.1l-0.6,1.1c-2-0.8-3.7-1.6-5.1-2.4
			c-1.3,0.9-2.9,1.8-4.9,2.5l-0.6-1.1c1.8-0.7,3.3-1.4,4.5-2.2c-1.2-1-2.1-2-2.7-3.1c-1.2,2.5-2.7,4.5-4.5,6l-0.6-1.1
			c2.3-2,4.1-4.8,5.2-8.4h-4L1127.5,487.4z M1133.7,497.7c1.2-0.9,2-1.9,2.4-3h-5.2C1131.5,495.8,1132.4,496.8,1133.7,497.7z
			 M1138,489.6l-0.8,0.8c-0.7-0.8-1.6-1.7-2.8-2.7l0.8-0.8C1136.3,487.8,1137.2,488.7,1138,489.6z"/>
		<path class="st3" d="M1146.1,487.1v4.2h0.9v1.1h-3.8v0.8c0,0.5,0,1,0,1.4h3.1v6.8h-1.1v-5.7h-2c-0.2,2.4-0.6,4.2-1.3,5.5l-0.9-0.8
			c0.7-1.5,1.1-4,1.1-7.3v-5.9h1.1v3.9h1.7v-4.2H1146.1z M1149,494.4c-0.1,3-0.6,5.3-1.6,7.1l-0.8-0.8c0.8-1.5,1.2-3.6,1.3-6.3v-6.4
			c2.5,0,4.8-0.4,6.8-1l0.6,1c-1.9,0.5-4,0.9-6.3,1v2.5h5.9v1c-0.4,2.2-1.1,4.1-2.1,5.6c0.8,1.1,1.7,1.9,2.9,2.4l-0.6,1
			c-1.2-0.6-2.2-1.5-3-2.5c-0.9,1-1.9,1.9-3.2,2.5l-0.6-1c1.2-0.7,2.2-1.5,3-2.5c-0.9-1.5-1.6-3.3-1.9-5.5h-0.5V494.4z
			 M1152.2,497.1c0.8-1.3,1.4-2.8,1.6-4.5h-3.2C1150.9,494.4,1151.5,495.9,1152.2,497.1z"/>
	</g>
	<g class="st0">
		<path class="st2" d="M981.9,559.6c0.8,1.1,1.2,2.6,1.2,4.6c0,2.1-0.5,3.8-1.3,5.1c-0.9,1.3-2.1,1.9-3.5,1.9c-2.5,0-4-1.2-4.3-3.5
			h2.1c0.3,1.2,1,1.8,2.2,1.8c0.8,0,1.5-0.4,2.1-1.3c0.5-0.8,0.7-1.8,0.7-3v-0.2H981c-0.4,0.5-0.8,0.9-1.4,1.2
			c-0.5,0.2-1.1,0.4-1.7,0.4c-1.3,0-2.3-0.4-3-1.2c-0.8-0.8-1.1-1.8-1.1-3.1c0-1.3,0.4-2.4,1.3-3.2c0.9-0.8,1.9-1.3,3.2-1.3
			C979.8,557.9,981,558.5,981.9,559.6z M976.5,560.4c-0.5,0.5-0.7,1.2-0.7,1.9c0,0.8,0.2,1.4,0.7,1.9c0.4,0.5,1,0.7,1.8,0.7
			c0.8,0,1.4-0.3,1.8-0.7c0.4-0.5,0.7-1.1,0.7-2s-0.2-1.5-0.7-1.9c-0.5-0.5-1.1-0.7-1.8-0.7C977.6,559.6,977,559.9,976.5,560.4z"/>
		<path class="st2" d="M993.6,573l-1.4-1.3c1.1-1.6,1.7-3.6,1.7-6v-8.8h10.9v14.1c0,1.2-0.6,1.8-1.8,1.8h-2.3l-0.5-1.8
			c0.8,0.1,1.5,0.1,2.2,0.1c0.4,0,0.5-0.3,0.5-0.7v-3h-7.2C995.4,569.6,994.7,571.5,993.6,573z M1002.8,558.6h-7.1v2.5h7.1V558.6z
			 M995.7,565.5h7.1v-2.7h-7.1V565.5z"/>
	</g>
	<g class="st0">
		<path class="st3" d="M982.6,591.6v1.1h-4V603h-1.3v-10.3h-4v-1.1H982.6z"/>
		<path class="st3" d="M985.6,591.9c0.2,0.2,0.3,0.4,0.3,0.7c0,0.3-0.1,0.5-0.3,0.7c-0.2,0.2-0.4,0.3-0.7,0.3s-0.5-0.1-0.7-0.3
			c-0.2-0.2-0.3-0.4-0.3-0.7c0-0.3,0.1-0.5,0.3-0.7c0.2-0.2,0.4-0.3,0.7-0.3S985.4,591.7,985.6,591.9z M985.6,594.7v8.3h-1.3v-8.3
			H985.6z"/>
		<path class="st3" d="M992.2,591.6c1.8,0,3.2,0.5,4.1,1.6c0.8,1,1.3,2.4,1.3,4.1c0,1.8-0.5,3.2-1.4,4.1c-1,1-2.3,1.6-4.1,1.6h-4
			v-11.4H992.2z M989.5,601.9h2.4c1.5,0,2.6-0.4,3.4-1.2c0.7-0.8,1.1-1.9,1.1-3.4c0-1.5-0.3-2.7-1-3.4c-0.7-0.8-1.8-1.2-3.3-1.2
			h-2.6V601.9z"/>
		<path class="st3" d="M1004.6,591.6c1.1,0,1.9,0.3,2.5,0.8c0.6,0.5,0.9,1.2,0.9,2.1c0,0.6-0.2,1.2-0.5,1.7
			c-0.4,0.4-0.8,0.7-1.4,0.9c0.8,0.1,1.3,0.4,1.7,0.9c0.4,0.5,0.6,1.1,0.6,1.9c0,1.1-0.4,2-1.2,2.5c-0.7,0.4-1.6,0.7-2.8,0.7h-5.1
			v-11.4H1004.6z M1000.8,596.6h3.5c0.8,0,1.4-0.2,1.8-0.5c0.4-0.3,0.6-0.8,0.6-1.5c0-0.6-0.2-1.1-0.6-1.4c-0.4-0.3-1-0.5-1.8-0.5
			h-3.5V596.6z M1000.8,601.9h3.6c0.8,0,1.4-0.2,1.9-0.4c0.6-0.4,0.8-0.9,0.8-1.6s-0.3-1.3-0.7-1.6c-0.5-0.4-1.1-0.5-2-0.5h-3.6
			V601.9z"/>
		<path class="st3" d="M1023,604.3c-1,0-1.9-0.1-2.5-0.3c-0.6-0.2-1.2-0.6-1.7-1.2c-0.2-0.3-0.4-0.4-0.6-0.4c-0.4,0-1,0.7-1.9,2.2
			l-0.9-0.8c0.8-1.3,1.6-2.2,2.3-2.4v-4.9h-2.3v-1.1h3.3v6c0.1,0.1,0.3,0.2,0.4,0.4c0.4,0.5,0.8,0.8,1.2,1c0.5,0.2,1.2,0.4,2.2,0.4
			c0.8,0,1.9,0,3.2,0c0.7,0,1.5,0,2.3,0c0.8,0,1.4,0,1.8-0.1l-0.3,1.2h-3.6C1025,604.3,1024,604.3,1023,604.3z M1019.3,592.7
			l-0.8,0.8c-0.7-0.8-1.6-1.6-2.8-2.5l0.8-0.8C1017.6,591,1018.5,591.8,1019.3,592.7z M1024.8,592.9c0.8-0.4,1.6-0.9,2.3-1.5h-7.1
			v-1h8.7v0.8c-1,0.8-2,1.6-3.1,2.2l0.3,0.2h3.2v7.2c0,0.8-0.4,1.2-1.3,1.2h-1.3l-0.3-1l1.3,0c0.4,0,0.6-0.2,0.6-0.5v-1.2h-2.7v2.8
			h-1.1v-2.8h-2.7v2.8h-1.1v-8.5h4c-0.6-0.4-1.3-0.9-2.1-1.3l0.7-0.7C1023.6,592.1,1024.3,592.5,1024.8,592.9z M1024.1,594.6h-2.7
			v1.4h2.7V594.6z M1021.4,598.5h2.7V597h-2.7V598.5z M1027.9,594.6h-2.7v1.4h2.7V594.6z M1025.2,598.5h2.7V597h-2.7V598.5z"/>
		<path class="st3" d="M1039.2,604.3c-1.1,0-2-0.1-2.6-0.3c-0.7-0.2-1.3-0.6-1.8-1.2c-0.2-0.3-0.4-0.4-0.7-0.4c-0.4,0-1,0.7-1.9,2.2
			l-0.9-0.8c0.9-1.4,1.6-2.2,2.3-2.5v-4.8h-2.3v-1.1h3.4v6c0.1,0.1,0.3,0.2,0.4,0.4c0.4,0.4,0.8,0.8,1.3,1c0.5,0.2,1.3,0.3,2.3,0.4
			c0.9,0,2,0,3.3,0c0.7,0,1.4,0,2.1,0c0.7,0,1.3,0,1.7-0.1l-0.3,1.2h-3.4C1041.2,604.3,1040.3,604.3,1039.2,604.3z M1035.2,592.7
			l-0.8,0.8c-0.7-0.8-1.6-1.7-2.7-2.6l0.8-0.8C1033.5,591,1034.4,591.8,1035.2,592.7z M1039.4,602.2l-0.3-1.1c0.7,0,1.5,0.1,2.1,0.1
			c0.4,0,0.7-0.2,0.7-0.7v-6.8h-6.1v-1.1h6.1V590h1.2v2.6h2.4v1.1h-2.4v7.1c0,0.9-0.5,1.4-1.5,1.4H1039.4z M1040,598.2l-0.9,0.6
			c-0.6-1-1.3-2-2.3-3.2l0.9-0.6C1038.7,596.3,1039.5,597.3,1040,598.2z"/>
		<path class="st3" d="M1048.4,592.3v-1.1h12.2v1.1h-5.5v10.1h6.5v1.1h-14.3v-1.1h6.6v-10.1H1048.4z"/>
		<path class="st3" d="M1063.3,597.7l-0.4-1.2c1.6-1.9,2.7-4.2,3.4-6.7l1.1,0.5c-0.4,1.2-0.8,2.4-1.4,3.5v10.9h-1.1v-9
			C1064.4,596.3,1063.9,597,1063.3,597.7z M1072.3,592c-0.2-0.6-0.5-1.2-0.8-1.9l1.1-0.3c0.3,0.7,0.6,1.3,0.8,1.9l-0.6,0.2h5v1.1
			h-10.4V592H1072.3z M1076.7,604.6h-1.1v-0.9h-5.9v0.9h-1.1V599h8.2V604.6z M1076.4,594.4v1h-7.6v-1H1076.4z M1076.4,596.7v1.1
			h-7.6v-1.1H1076.4z M1075.6,602.6v-2.5h-5.9v2.5H1075.6z"/>
		<path class="st3" d="M1082.5,595.9h1.7c0.5-0.9,0.9-1.8,1.2-2.8l1.1,0.4c-0.3,0.9-0.7,1.7-1.1,2.4h1.9v1.1h-8v-1.1h2.2
			c-0.3-0.8-0.6-1.6-1-2.3l1.1-0.4C1081.8,593.9,1082.2,594.8,1082.5,595.9z M1082.8,591.5c-0.2-0.5-0.4-1-0.6-1.4l1.2-0.2
			c0.2,0.5,0.4,1,0.5,1.6h3.3v1.1h-7.6v-1.1H1082.8z M1086.6,604.5h-1.1v-0.9h-4.1v0.9h-1.1v-6h6.4V604.5z M1085.4,602.5v-3h-4.1v3
			H1085.4z M1093.3,590.6v0.9c-0.5,1.7-1,3.2-1.6,4.7c1.2,1.5,1.8,2.8,1.8,3.7c0,1-0.2,1.7-0.6,2.1c-0.4,0.4-1.3,0.6-2.6,0.6
			l-0.4-1.2c0.4,0,0.8,0.1,1.1,0.1c0.6,0,0.9-0.1,1.1-0.3c0.2-0.2,0.2-0.6,0.3-1.2c0-0.9-0.7-2.2-1.9-3.7c0.5-1.3,1.1-2.8,1.6-4.5
			h-2.9v12.9h-1.1v-14H1093.3z"/>
		<path class="st3" d="M1109.6,599l-0.5,1c-0.9-0.3-1.6-0.6-2.3-0.9v3.1h-1.1v-2.8h-6.4v2.8h-1.1v-3.2c-0.7,0.4-1.5,0.7-2.4,1
			l-0.6-1c1.7-0.5,3-1,3.9-1.7h-3.5v-0.9h4.4v-1h-2v-0.8h2v-1h-2.4v-0.9h2.4v-0.9h-3v1.6h-1.1v-2.6h6c-0.2-0.3-0.4-0.6-0.6-0.9
			l1.2-0.2c0.2,0.3,0.4,0.7,0.6,1.1h5.8v2.6h-1.1v-1.6h-3v0.9h2.4v0.9h-2.4v1h2.1v0.8h-2.1v1h4.4v0.9h-3.6
			C1106.6,598,1107.9,598.5,1109.6,599z M1102.9,599.9c-0.2,1.7-0.6,2.8-1.2,3.4c-0.7,0.7-2.3,1.2-4.8,1.4l-0.4-1
			c2.2-0.1,3.6-0.5,4.3-1.1c0.6-0.6,1-1.5,1.1-2.8L1102.9,599.9z M1104.5,597.3h-4.1c-0.4,0.4-0.8,0.7-1.2,1.1h6.6
			C1105.2,598,1104.8,597.7,1104.5,597.3z M1101.2,591.8v0.9h2.6v-0.9H1101.2z M1103.7,593.6h-2.6v1h2.6V593.6z M1103.7,596.4v-1
			h-2.6v1H1103.7z M1108.3,603.8l-0.6,0.9c-1.6-0.8-3.2-1.5-4.8-2l0.6-0.8C1105.3,602.4,1106.9,603.1,1108.3,603.8z"/>
		<path class="st3" d="M1113.3,595.9v-1.1h10.4v1.1h-4.7v2.8h4.1v1.1h-4.1v3.4h6.1v1.1h-13.3v-1.1h6.1v-3.4h-4.2v-1.1h4.2v-2.8
			H1113.3z M1124.9,594.7h-1.2v-2h-10.6v2.1h-1.2v-3.2h6c-0.2-0.5-0.4-1-0.7-1.4l1.2-0.2c0.2,0.5,0.4,1,0.6,1.6h5.7V594.7z
			 M1123.6,602.4l-0.9,0.6c-0.4-0.7-1-1.5-1.8-2.4l0.9-0.5C1122.6,601,1123.2,601.8,1123.6,602.4z"/>
		<path class="st3" d="M1127.5,591.9v-1.1h5.5v1.1h-2.5c-0.2,1.3-0.6,2.5-1,3.6h3v7.3h-2.8v1.3h-1.1v-6.7c-0.3,0.6-0.7,1.2-1.1,1.7
			l-0.6-1c1.2-1.8,2.1-3.9,2.5-6.2H1127.5z M1131.4,601.8v-5.2h-1.7v5.2H1131.4z M1136.3,597.3c-0.1,3.3-1.1,5.7-2.9,7.3l-0.8-0.8
			c1.6-1.4,2.5-3.5,2.6-6.5h-1.7v-1.1h1.8v-4.4h-1.4v-1.1h7.6v1.1h-1.5v4.4h1.9v1.1h-1.9v7.2h-1.1v-7.2H1136.3z M1136.3,591.8v4.4
			h2.5v-4.4H1136.3z"/>
		<path class="st3" d="M1149.9,595.8v1.2l0,0.9h4.1v5.1c0,0.3,0.2,0.4,0.5,0.4h1.2c0.4,0,0.6-0.2,0.7-0.6c0.1-0.6,0.1-1.3,0.1-2
			l1.1,0.3c-0.1,1.3-0.2,2.1-0.3,2.4c-0.2,0.7-0.7,1-1.6,1h-1.4c-1,0-1.4-0.4-1.4-1.3V599h-3.2c-0.2,1.2-0.7,2.1-1.3,2.9
			c-0.9,1.1-2.4,2-4.4,2.7l-0.6-1c2-0.6,3.4-1.4,4.2-2.4c0.4-0.6,0.7-1.4,0.9-2.2h-4v-1.1h4.2c0-0.3,0-0.6,0.1-0.9v-1.2H1149.9z
			 M1151.1,591.4h5.9v3.2h-1.2v-2.1H1145v2.1h-1.2v-3.2h6c-0.2-0.5-0.4-1-0.7-1.4l1.3-0.2C1150.7,590.3,1150.9,590.9,1151.1,591.4z
			 M1149.5,594c-1.3,1.2-3,2.3-4.9,3.1l-0.5-1c1.9-0.7,3.5-1.7,4.8-2.9L1149.5,594z M1156.6,596.3l-0.6,1c-1.5-1.3-3-2.3-4.6-3.1
			l0.6-0.9C1153.7,594.1,1155.2,595.1,1156.6,596.3z"/>
		<path class="st3" d="M1161.3,599.4c-0.2,2-0.7,3.7-1.5,5.2l-0.8-0.8c0.9-1.6,1.3-3.6,1.3-5.8v-6.6c1.9-0.2,3.4-0.7,4.5-1.3
			l0.8,0.9c-1.2,0.6-2.6,1.1-4.2,1.3v1.9h4.1v5.3H1161.3z M1161.4,597.9c0,0.1,0,0.2,0,0.4h3.1v-3.2h-3V597.9z M1167.9,598.4
			c0,2.8-0.4,4.8-1.1,6.2l-1-0.5c0.7-1.4,1.1-3.3,1.1-5.7v-7.2c2.3-0.1,4.2-0.5,5.7-1.1l0.6,1c-1.6,0.6-3.3,1-5.3,1.1l0,2.8h5.8v1.1
			h-1.8v8.6h-1.1V596h-2.9V598.4z"/>
		<path class="st3" d="M1181.2,590.9c-0.8,1.3-1.5,2.4-2.3,3.3c-0.8,0.9-1.9,1.8-3.2,2.7l-0.6-1c1.1-0.6,2.1-1.4,3-2.4
			c0.8-0.9,1.5-1.9,2.1-3.2L1181.2,590.9z M1177.5,597.4v-1.1h9.6c0,2-0.1,3.6-0.3,4.9c-0.2,1.2-0.4,2.1-0.8,2.6
			c-0.4,0.5-0.9,0.7-1.7,0.8h-2.9l-0.3-1.1c0.9,0,1.8,0,2.6,0c0.9,0,1.4-0.4,1.7-1.1c0.3-0.8,0.5-2.4,0.5-4.9h-4
			c-0.4,1.7-0.9,3.1-1.6,4.2c-0.8,1.2-2,2.2-3.7,3.1l-0.7-1c1.5-0.8,2.6-1.7,3.3-2.6c0.7-0.9,1.2-2.1,1.5-3.6H1177.5z M1189.7,595.9
			l-0.8,0.9c-2.5-1.6-4.2-3.7-5.2-6.2l1-0.6C1185.7,592.5,1187.3,594.5,1189.7,595.9z"/>
		<path class="st3" d="M1200,594.1v2h4.5v5.4c0,1-0.5,1.5-1.5,1.5h-1.5l-0.3-1.1l1.4,0c0.5,0,0.8-0.2,0.8-0.7v-4.1h-3.4v7.4h-1.1
			v-7.4h-3.4v5.9h-1.1v-6.1c-0.8,0.8-1.7,1.6-2.6,2.3l-0.7-1c2-1.5,3.6-3.2,4.8-5.2h-4.3V592h4.9c0.4-0.7,0.6-1.4,0.9-2.1l1.2,0.1
			c-0.2,0.7-0.5,1.4-0.8,2h7.8v1.1h-8.3c-0.6,1.1-1.2,2-2,3h3.8v-2H1200z"/>
		<path class="st3" d="M1214.5,596.6v1.1h-2.8v4.2c1.2-0.2,2.3-0.5,3.4-0.8v1.1c-2.3,0.6-4.8,1-7.5,1.4l-0.3-1.1
			c1.1-0.1,2.1-0.3,3.1-0.4v-4.4h-2.8v-1.1H1214.5z M1215.3,592.8c0-0.9-0.1-1.9-0.1-2.8h1.2c0,1,0,1.9,0.1,2.8h4.9v1.1h-4.9
			c0.2,2.7,0.6,4.9,1.2,6.7c0.7,1.8,1.3,2.7,1.8,2.7c0.3,0,0.7-1,1-2.8l1,0.5c-0.5,2.3-1.1,3.5-2,3.5c-1.4-0.1-2.6-1.9-3.6-5.3
			c-0.4-1.5-0.6-3.3-0.7-5.3h-7.9v-1.1H1215.3z M1220.4,592.1l-1,0.5c-0.5-0.8-1-1.5-1.5-2.1l1-0.5
			C1219.4,590.7,1219.9,591.4,1220.4,592.1z"/>
		<path class="st3" d="M1227.3,597.5c-0.1,0.3-0.2,0.6-0.3,0.9h3.3v0.9c-0.4,1.1-0.9,2-1.8,2.7c0.8,0.4,1.5,0.7,2.2,1.1l-0.6,0.9
			c-0.7-0.4-1.5-0.8-2.5-1.3c-1.1,0.7-2.4,1.3-4,1.8l-0.5-1c1.3-0.4,2.4-0.8,3.4-1.3c-0.7-0.3-1.4-0.6-2.2-0.9
			c0.4-0.7,0.8-1.4,1.1-2h-1.9v-1h2.3c0.1-0.4,0.3-0.7,0.4-1L1227.3,597.5z M1226.6,593v-3.1h1.1v3.1h2.9v1h-2.9v0.2
			c0.9,0.4,1.8,0.9,2.7,1.5l-0.6,0.9c-0.8-0.6-1.5-1.2-2.1-1.5v2.1h-1.1v-3c-0.5,1.3-1.5,2.4-2.9,3.3l-0.6-0.9
			c1.2-0.7,2.1-1.5,2.6-2.4h-2.3v-1H1226.6z M1225.8,592.2l-0.8,0.4c-0.3-0.8-0.7-1.5-1.1-2.1l0.9-0.3
			C1225.1,590.9,1225.5,591.5,1225.8,592.2z M1229.3,599.4h-2.8c-0.3,0.5-0.5,1.1-0.9,1.5c0.6,0.2,1.2,0.4,1.8,0.7
			C1228.3,601,1228.9,600.2,1229.3,599.4z M1230.5,590.6c-0.3,0.7-0.7,1.4-1.2,2.1l-0.8-0.4c0.5-0.7,0.9-1.4,1.2-2L1230.5,590.6z
			 M1232.2,596.1c-0.3,0.7-0.6,1.4-0.9,2l-0.7-0.9c0.9-1.8,1.6-4.2,1.9-7.3l1.1,0.2c-0.1,0.8-0.2,1.6-0.4,2.3h4.2v1.1h-1
			c-0.1,2.7-0.6,5-1.5,6.9c0.8,1.4,1.8,2.5,3,3.3l-0.6,0.9c-1.1-0.8-2.1-1.9-2.9-3.2c-0.8,1.3-1.8,2.4-3,3.2l-0.6-1
			c1.2-0.9,2.2-2,3-3.3C1233.2,599.1,1232.7,597.7,1232.2,596.1z M1232.8,594.3c0.4,1.9,0.9,3.5,1.6,4.8c0.6-1.6,1-3.5,1-5.7h-2.4
			L1232.8,594.3z"/>
		<path class="st3" d="M1239.7,604.5l-0.2-1.1c0.4,0,0.8,0.1,1.2,0.1c0.4,0,0.6-0.2,0.6-0.7v-3.9c-0.6,0.2-1.3,0.5-1.9,0.7l-0.3-1.1
			c0.7-0.2,1.5-0.4,2.2-0.7v-3.6h-1.9V593h1.9v-3h1.1v3h1.5v1.1h-1.5v3.2c0.5-0.2,1-0.5,1.5-0.7v1.1c-0.5,0.3-1,0.5-1.5,0.7v4.7
			c0,0.9-0.4,1.4-1.3,1.4H1239.7z M1244,604.6l-0.9-0.8c1.1-2.1,1.7-4.9,1.7-8.2v-5h8.4v3.9h-3v1.9h3.4v1h-3.4v2h2.7v5.2h-1.1v-0.8
			h-4.3v0.8h-1.1v-5.2h2.7v-2h-3.3C1245.7,600.1,1245,602.5,1244,604.6z M1245.9,594.5v1.1c0,0.3,0,0.5,0,0.8h3.2v-1.9H1245.9z
			 M1245.9,591.6v1.8h6.2v-1.8H1245.9z M1251.9,602.8v-2.4h-4.3v2.4H1251.9z"/>
		<path class="st3" d="M1263.8,591.3h5.8v1.1h-11.9v3.6c-0.1,3.5-0.6,6.4-1.6,8.5l-0.9-0.8c0.9-1.8,1.3-4.4,1.4-7.6v-4.8h6
			c-0.3-0.5-0.5-0.9-0.8-1.3l1.3-0.2C1263.3,590.3,1263.6,590.8,1263.8,591.3z M1263.1,593.2c-0.1,0.4-0.3,0.9-0.4,1.3h6.2v1h-6.6
			c-0.4,1-0.9,1.9-1.4,2.7h3v-1.9h1.2v1.9h3.6v1h-3.6v1.8h4.8v1.1h-4.8v2.5h-1.2v-2.5h-5.8V601h5.8v-1.8h-4.2l-0.2-1
			c0.6-0.8,1.2-1.7,1.7-2.8h-2.4v-1h2.8c0.2-0.5,0.4-1,0.5-1.5L1263.1,593.2z"/>
		<path class="st3" d="M1273.9,596c-0.1,3.5-0.8,6.3-2.1,8.5l-0.8-0.8c1.1-1.8,1.7-4.4,1.8-7.6v-5c4.2,0,8-0.4,11.4-1l0.6,1
			c-3.2,0.5-6.9,0.8-10.9,0.9v1.6h5.3c0.1-0.5,0.1-1,0.2-1.5l1.2,0.1c0,0.4-0.1,0.9-0.2,1.3h5.1v1.1h-5.3c-0.1,0.5-0.2,1-0.3,1.5
			h4.1v5.4h-1.1v-4.4h-6.3v4.4h-1.1v-5.5h3.2c0.1-0.5,0.2-1,0.3-1.5h-5.2V596z M1280.6,597.9c-0.2,1.9-0.8,3.3-1.7,4.3
			c-1,1-2.5,1.8-4.5,2.4l-0.6-1.1c1.9-0.5,3.3-1.1,4.2-2c0.9-0.9,1.4-2.1,1.6-3.7L1280.6,597.9z M1285.5,603.6l-0.6,1
			c-1.6-1.1-3.2-1.9-4.8-2.5l0.6-0.9C1282.5,601.9,1284.1,602.7,1285.5,603.6z"/>
		<path class="st3" d="M1301.6,595v0.9h-14.3V595H1301.6z M1300,596.6v4.1h-5v0.9h5.4v0.8h-5.4v0.9h6.6v0.9h-14.3v-0.9h6.6v-0.9
			h-5.4v-0.8h5.4v-0.9h-5v-4.1H1300z M1299.7,590.2v4h-10.5v-4H1299.7z M1293.9,598.3v-1h-3.9v1H1293.9z M1293.9,599h-3.9v1h3.9V599
			z M1298.6,591.8v-0.9h-8.2v0.9H1298.6z M1298.6,592.5h-8.2v0.9h8.2V592.5z M1295,598.3h3.9v-1h-3.9V598.3z M1298.9,599h-3.9v1h3.9
			V599z"/>
		<path class="st3" d="M1308.9,590.8v1.1h-2.4c-0.2,1.3-0.5,2.5-0.9,3.6h2.9v7.3h-2.8v1.2h-1.1v-6.3c-0.3,0.5-0.6,1-0.8,1.4
			l-0.7-1.1c1.2-1.8,1.9-3.9,2.3-6.2h-1.8v-1.1H1308.9z M1307.4,601.8v-5.2h-1.7v5.2H1307.4z M1309.4,604.6l-0.8-0.8
			c0.8-1.2,1.2-2.6,1.2-4.4v-5.2c-0.2,0.2-0.5,0.4-0.7,0.6l-0.7-0.8c1.3-1,2.3-2.4,3.1-4.1l1.1,0.2c-0.2,0.3-0.3,0.7-0.5,1h3.9v0.8
			c-0.5,0.7-1,1.3-1.4,1.8h2.7v9.6c0,0.7-0.4,1.1-1.2,1.1h-1.2l-0.3-1c0.4,0,0.8,0.1,1.1,0.1c0.3,0,0.5-0.2,0.5-0.5v-2.1h-2.1v3.5
			h-1v-3.5h-2.2C1310.6,602.3,1310.1,603.5,1309.4,604.6z M1314.6,592.1h-3.1c-0.4,0.6-0.8,1.1-1.3,1.6h3
			C1313.7,593.2,1314.2,592.7,1314.6,592.1z M1310.8,599.4c0,0.1,0,0.3,0,0.4h2.1v-2h-2.1V599.4z M1310.8,594.7v2h2.1v-2H1310.8z
			 M1316.1,594.7h-2.1v2h2.1V594.7z M1316.1,597.7h-2.1v2h2.1V597.7z"/>
		<path class="st3" d="M1322.6,594.8v7c0.6-0.5,1.2-1,1.9-1.6l0.3,1.2c-1,0.9-2,1.8-3.2,2.5l-0.4-1c0.2-0.2,0.4-0.4,0.4-0.7v-6.2
			h-2.4v-1.1H1322.6z M1323.8,592.5l-0.8,0.8c-0.7-0.8-1.6-1.6-2.8-2.5l0.8-0.8C1322.1,590.9,1323,591.7,1323.8,592.5z M1329.7,590
			c0,1.3,0,2.6-0.1,3.8c0.8,4.1,2.3,7.4,4.4,9.8l-0.8,1c-1.7-2.2-3-4.9-3.9-8c-0.1,0.4-0.2,0.9-0.2,1.3c-0.6,2.8-2,5-4.1,6.8
			l-0.8-0.9c1.9-1.6,3.1-3.5,3.7-5.9c0.4-2,0.7-4.5,0.7-7.7H1329.7z"/>
		<path class="st3" d="M1336.6,593.1c0,1.6-0.2,3.1-0.5,4.6l-0.9-0.3c0.3-1.4,0.5-2.8,0.6-4.4L1336.6,593.1z M1338.5,590v14.6h-1.2
			V590H1338.5z M1340.6,595.4c0.5-1.4,0.9-2.9,0.9-4.5l1,0.1c0,0.7-0.1,1.3-0.2,1.9h2.3v-3h1.2v3h3.5v1.1h-3.5v3.9h3.2v1.1h-3.2v3.9
			h3.9v1.1h-9.7V603h4.6v-3.9h-3.7V598h3.7v-3.9h-2.5c-0.3,1.2-0.7,2.3-1.3,3.2l-0.8-0.8c0.2-0.4,0.3-0.7,0.5-1l-0.8,0.2
			c-0.2-1-0.5-1.9-0.9-2.8l0.8-0.3C1340,593.5,1340.3,594.4,1340.6,595.4z"/>
		<path class="st3" d="M1354.6,594.8v7.1c0.5-0.4,1.1-1,1.6-1.6l0.3,1.2c-0.9,0.9-1.9,1.7-3,2.5l-0.4-1c0.2-0.2,0.4-0.4,0.4-0.7
			v-6.4h-2.4v-1.1H1354.6z M1355.8,592.5l-0.8,0.8c-0.7-0.8-1.6-1.6-2.8-2.5l0.8-0.8C1354.1,590.9,1355,591.7,1355.8,592.5z
			 M1365.4,590.7v1.1h-3.8v6h4.3v1.1h-4.3v5.7h-1.1v-5.7h-4.2v-1.1h4.2v-6h-3.8v-1.1H1365.4z M1359.2,596.7l-1,0.3
			c-0.3-1.4-0.8-2.7-1.3-4l1-0.3C1358.4,593.8,1358.8,595.2,1359.2,596.7z M1364.9,592.8c-0.3,1.6-0.8,2.9-1.3,4.1l-1-0.3
			c0.5-1.1,0.9-2.4,1.2-4L1364.9,592.8z"/>
		<path class="st3" d="M1370.1,596.5l-0.8,0.8c-0.5-0.7-1.3-1.5-2.2-2.3l0.8-0.7C1368.8,595,1369.5,595.7,1370.1,596.5z
			 M1370.3,598.9c-0.6,2-1.3,3.8-2,5.5l-1.1-0.4c0.8-1.8,1.5-3.6,2.1-5.5L1370.3,598.9z M1370.4,592.4l-0.8,0.8
			c-0.5-0.7-1.3-1.4-2.3-2.1l0.8-0.8C1369.1,591,1369.8,591.7,1370.4,592.4z M1374.2,592.8v5.1c0,1.8-0.3,3.3-0.9,4.4
			c-0.5,1-1.4,1.8-2.6,2.4l-0.6-1c1.2-0.5,2-1.3,2.4-2.2c0.4-0.9,0.7-2.1,0.7-3.6v-5.1H1374.2z M1376.4,600.5h-1v-8.8h-3.3v8.9h-1
			v-9.9h5.4V600.5z M1377.2,603.8l-0.8,0.8c-0.6-0.8-1.4-1.7-2.4-2.7l0.7-0.7C1375.7,602.1,1376.5,603,1377.2,603.8z M1378.7,591.3
			v10h-1v-10H1378.7z M1378.1,604.5l-0.2-1.1c0.6,0,1.1,0.1,1.6,0.1c0.4,0,0.6-0.2,0.6-0.6V590h1.1v13.1c0,0.9-0.4,1.4-1.3,1.4
			H1378.1z"/>
	</g>
	<g class="st0">
		<path class="st2" d="M978.8,661.1V674h-2.1v-10.3c-0.8,0.7-1.7,1.2-2.9,1.6v-2.1c0.6-0.1,1.2-0.4,1.8-0.8c0.6-0.4,1.2-0.8,1.6-1.3
			H978.8z"/>
		<path class="st2" d="M989.1,662c0.8,0.7,1.2,1.6,1.2,2.8c0,1.1-0.4,2.1-1.3,3c-0.5,0.5-1.4,1.2-2.7,2.1c-1.3,0.9-2.1,1.6-2.4,2.3
			h6.3v1.9h-9c0-1.3,0.4-2.4,1.3-3.4c0.5-0.5,1.5-1.3,3-2.4c0.8-0.6,1.4-1.1,1.8-1.4c0.6-0.6,0.8-1.3,0.8-2c0-0.7-0.2-1.2-0.6-1.6
			c-0.4-0.3-0.9-0.5-1.7-0.5c-0.8,0-1.4,0.3-1.8,0.8c-0.4,0.5-0.6,1.3-0.6,2.3h-2.1c0-1.4,0.4-2.6,1.3-3.5c0.8-0.9,2-1.4,3.3-1.4
			C987.2,660.9,988.2,661.3,989.1,662z"/>
		<path class="st2" d="M1000.9,676l-1.4-1.3c1.1-1.6,1.7-3.6,1.7-6v-8.8h10.9v14.1c0,1.2-0.6,1.8-1.8,1.8h-2.3l-0.5-1.8
			c0.8,0.1,1.5,0.1,2.2,0.1c0.4,0,0.5-0.3,0.5-0.7v-3h-7.2C1002.7,672.6,1002.1,674.5,1000.9,676z M1010.2,661.6h-7.1v2.5h7.1V661.6
			z M1003.1,668.5h7.1v-2.7h-7.1V668.5z"/>
	</g>
	<g class="st0">
		<path class="st3" d="M982.6,694.6v1.1h-4V706h-1.3v-10.3h-4v-1.1H982.6z"/>
		<path class="st3" d="M985.6,694.9c0.2,0.2,0.3,0.4,0.3,0.7c0,0.3-0.1,0.5-0.3,0.7c-0.2,0.2-0.4,0.3-0.7,0.3s-0.5-0.1-0.7-0.3
			c-0.2-0.2-0.3-0.4-0.3-0.7c0-0.3,0.1-0.5,0.3-0.7c0.2-0.2,0.4-0.3,0.7-0.3S985.4,694.7,985.6,694.9z M985.6,697.7v8.3h-1.3v-8.3
			H985.6z"/>
		<path class="st3" d="M992.2,694.6c1.8,0,3.2,0.5,4.1,1.6c0.8,1,1.3,2.4,1.3,4.1c0,1.8-0.5,3.2-1.4,4.1c-1,1-2.3,1.6-4.1,1.6h-4
			v-11.4H992.2z M989.5,704.9h2.4c1.5,0,2.6-0.4,3.4-1.2c0.7-0.8,1.1-1.9,1.1-3.4c0-1.5-0.3-2.7-1-3.4c-0.7-0.8-1.8-1.2-3.3-1.2
			h-2.6V704.9z"/>
		<path class="st3" d="M1004.6,694.6c1.1,0,1.9,0.3,2.5,0.8c0.6,0.5,0.9,1.2,0.9,2.1c0,0.6-0.2,1.2-0.5,1.7
			c-0.4,0.4-0.8,0.7-1.4,0.9c0.8,0.1,1.3,0.4,1.7,0.9c0.4,0.5,0.6,1.1,0.6,1.9c0,1.1-0.4,2-1.2,2.5c-0.7,0.4-1.6,0.7-2.8,0.7h-5.1
			v-11.4H1004.6z M1000.8,699.6h3.5c0.8,0,1.4-0.2,1.8-0.5c0.4-0.3,0.6-0.8,0.6-1.5c0-0.6-0.2-1.1-0.6-1.4c-0.4-0.3-1-0.5-1.8-0.5
			h-3.5V699.6z M1000.8,704.9h3.6c0.8,0,1.4-0.2,1.9-0.4c0.6-0.4,0.8-0.9,0.8-1.6s-0.3-1.3-0.7-1.6c-0.5-0.4-1.1-0.5-2-0.5h-3.6
			V704.9z"/>
		<path class="st3" d="M1023,707.3c-1,0-1.9-0.1-2.5-0.3c-0.6-0.2-1.2-0.6-1.7-1.2c-0.2-0.3-0.4-0.4-0.6-0.4c-0.4,0-1,0.7-1.9,2.2
			l-0.9-0.8c0.8-1.3,1.6-2.2,2.3-2.4v-4.9h-2.3v-1.1h3.3v6c0.1,0.1,0.3,0.2,0.4,0.4c0.4,0.5,0.8,0.8,1.2,1c0.5,0.2,1.2,0.4,2.2,0.4
			c0.8,0,1.9,0,3.2,0c0.7,0,1.5,0,2.3,0c0.8,0,1.4,0,1.8-0.1l-0.3,1.2h-3.6C1025,707.3,1024,707.3,1023,707.3z M1019.3,695.7
			l-0.8,0.8c-0.7-0.8-1.6-1.6-2.8-2.5l0.8-0.8C1017.6,694,1018.5,694.8,1019.3,695.7z M1024.8,695.9c0.8-0.4,1.6-0.9,2.3-1.5h-7.1
			v-1h8.7v0.8c-1,0.8-2,1.6-3.1,2.2l0.3,0.2h3.2v7.2c0,0.8-0.4,1.2-1.3,1.2h-1.3l-0.3-1l1.3,0c0.4,0,0.6-0.2,0.6-0.5v-1.2h-2.7v2.8
			h-1.1v-2.8h-2.7v2.8h-1.1v-8.5h4c-0.6-0.4-1.3-0.9-2.1-1.3l0.7-0.7C1023.6,695.1,1024.3,695.5,1024.8,695.9z M1024.1,697.6h-2.7
			v1.4h2.7V697.6z M1021.4,701.5h2.7V700h-2.7V701.5z M1027.9,697.6h-2.7v1.4h2.7V697.6z M1025.2,701.5h2.7V700h-2.7V701.5z"/>
		<path class="st3" d="M1039.2,707.3c-1.1,0-2-0.1-2.6-0.3c-0.7-0.2-1.3-0.6-1.8-1.2c-0.2-0.3-0.4-0.4-0.7-0.4c-0.4,0-1,0.7-1.9,2.2
			l-0.9-0.8c0.9-1.4,1.6-2.2,2.3-2.5v-4.8h-2.3v-1.1h3.4v6c0.1,0.1,0.3,0.2,0.4,0.4c0.4,0.4,0.8,0.8,1.3,1c0.5,0.2,1.3,0.3,2.3,0.4
			c0.9,0,2,0,3.3,0c0.7,0,1.4,0,2.1,0c0.7,0,1.3,0,1.7-0.1l-0.3,1.2h-3.4C1041.2,707.3,1040.3,707.3,1039.2,707.3z M1035.2,695.7
			l-0.8,0.8c-0.7-0.8-1.6-1.7-2.7-2.6l0.8-0.8C1033.5,694,1034.4,694.8,1035.2,695.7z M1039.4,705.2l-0.3-1.1c0.7,0,1.5,0.1,2.1,0.1
			c0.4,0,0.7-0.2,0.7-0.7v-6.8h-6.1v-1.1h6.1V693h1.2v2.6h2.4v1.1h-2.4v7.1c0,0.9-0.5,1.4-1.5,1.4H1039.4z M1040,701.2l-0.9,0.6
			c-0.6-1-1.3-2-2.3-3.2l0.9-0.6C1038.7,699.3,1039.5,700.3,1040,701.2z"/>
		<path class="st3" d="M1047.3,700.7l-0.4-1.2c1.6-1.9,2.7-4.2,3.4-6.7l1.1,0.5c-0.4,1.2-0.8,2.4-1.4,3.5v10.9h-1.1v-9
			C1048.4,699.3,1047.9,700,1047.3,700.7z M1056.3,695c-0.2-0.6-0.5-1.2-0.8-1.9l1.1-0.3c0.3,0.7,0.6,1.3,0.8,1.9l-0.6,0.2h5v1.1
			h-10.4V695H1056.3z M1060.7,707.6h-1.1v-0.9h-5.9v0.9h-1.1V702h8.2V707.6z M1060.4,697.4v1h-7.6v-1H1060.4z M1060.4,699.7v1.1
			h-7.6v-1.1H1060.4z M1059.6,705.6v-2.5h-5.9v2.5H1059.6z"/>
		<path class="st3" d="M1071,707.3c-1,0-1.9-0.1-2.5-0.3c-0.6-0.2-1.2-0.6-1.7-1.2c-0.2-0.3-0.4-0.4-0.6-0.4c-0.4,0-1,0.7-1.9,2.2
			l-0.9-0.8c0.8-1.3,1.6-2.2,2.3-2.4v-4.9h-2.3v-1.1h3.3v6c0.1,0.1,0.3,0.2,0.4,0.4c0.4,0.5,0.8,0.8,1.2,1c0.5,0.2,1.2,0.4,2.2,0.4
			c0.8,0,1.9,0,3.2,0c0.7,0,1.5,0,2.3,0c0.8,0,1.4,0,1.8-0.1l-0.3,1.2h-3.6C1073,707.3,1072,707.3,1071,707.3z M1067.3,695.7
			l-0.8,0.8c-0.7-0.8-1.6-1.6-2.8-2.5l0.8-0.8C1065.6,694,1066.5,694.8,1067.3,695.7z M1072.8,695.9c0.8-0.4,1.6-0.9,2.3-1.5h-7.1
			v-1h8.7v0.8c-1,0.8-2,1.6-3.1,2.2l0.3,0.2h3.2v7.2c0,0.8-0.4,1.2-1.3,1.2h-1.3l-0.3-1l1.3,0c0.4,0,0.6-0.2,0.6-0.5v-1.2h-2.7v2.8
			h-1.1v-2.8h-2.7v2.8h-1.1v-8.5h4c-0.6-0.4-1.3-0.9-2.1-1.3l0.7-0.7C1071.6,695.1,1072.3,695.5,1072.8,695.9z M1072.1,697.6h-2.7
			v1.4h2.7V697.6z M1069.4,701.5h2.7V700h-2.7V701.5z M1075.9,697.6h-2.7v1.4h2.7V697.6z M1073.2,701.5h2.7V700h-2.7V701.5z"/>
		<path class="st3" d="M1084.3,693.6v0.9c-0.4,1.5-0.9,3-1.5,4.5c0.9,1.4,1.4,2.7,1.5,3.8c0,0.7-0.2,1.2-0.5,1.6
			c-0.4,0.4-1.2,0.6-2.3,0.6l-0.4-1.2c0.3,0,0.5,0.1,0.6,0.1c0.5,0,0.9-0.1,1.1-0.3c0.2-0.2,0.3-0.4,0.3-0.8c0-1.1-0.5-2.3-1.5-3.6
			c0.7-1.7,1.2-3.2,1.5-4.5h-2.4v13h-1.1v-14.1H1084.3z M1093.5,700.3v1.1h-2.7v4.3c0,0.4,0.1,0.6,0.5,0.6h0.7
			c0.2,0,0.4-0.1,0.4-0.2c0.2-0.1,0.3-0.8,0.3-2.1l1.1,0.4c-0.1,1.4-0.3,2.3-0.5,2.6c-0.2,0.2-0.6,0.4-1.1,0.4h-1.3
			c-0.4,0-0.7-0.1-0.9-0.4c-0.2-0.3-0.3-0.6-0.3-1v-4.6h-1.5c-0.1,1.7-0.4,2.9-0.8,3.7c-0.5,1-1.4,1.8-2.7,2.4l-0.7-0.9
			c1.1-0.6,1.9-1.2,2.4-2c0.4-0.7,0.7-1.8,0.8-3.2h-2.2v-1.1H1093.5z M1093.4,697.6h-1.1v-2.2h-6.2v2.2h-1.1v-3.2h3.6
			c-0.2-0.5-0.4-0.9-0.6-1.3l1.2-0.2c0.2,0.4,0.4,1,0.6,1.5h3.7V697.6z M1092.2,697.4v1h-6.1v-1H1092.2z"/>
		<path class="st3" d="M1101.2,693.9c-0.8,1.3-1.5,2.4-2.3,3.3c-0.8,0.9-1.9,1.8-3.2,2.7l-0.6-1c1.1-0.6,2.1-1.4,3-2.4
			c0.8-0.9,1.5-1.9,2.1-3.2L1101.2,693.9z M1097.5,700.4v-1.1h9.6c0,2-0.1,3.6-0.3,4.9c-0.2,1.2-0.4,2.1-0.8,2.6
			c-0.4,0.5-0.9,0.7-1.7,0.8h-2.9l-0.3-1.1c0.9,0,1.8,0,2.6,0c0.9,0,1.4-0.4,1.7-1.1c0.3-0.8,0.5-2.4,0.5-4.9h-4
			c-0.4,1.7-0.9,3.1-1.6,4.2c-0.8,1.2-2,2.2-3.7,3.1l-0.7-1c1.5-0.8,2.6-1.7,3.3-2.6c0.7-0.9,1.2-2.1,1.5-3.6H1097.5z M1109.7,698.9
			l-0.8,0.9c-2.5-1.6-4.2-3.7-5.2-6.2l1-0.6C1105.7,695.5,1107.3,697.5,1109.7,698.9z"/>
		<path class="st3" d="M1120,697.1v2h4.5v5.4c0,1-0.5,1.5-1.5,1.5h-1.5l-0.3-1.1l1.4,0c0.5,0,0.8-0.2,0.8-0.7v-4.1h-3.4v7.4h-1.1
			v-7.4h-3.4v5.9h-1.1v-6.1c-0.8,0.8-1.7,1.6-2.6,2.3l-0.7-1c2-1.5,3.6-3.2,4.8-5.2h-4.3V695h4.9c0.4-0.7,0.6-1.4,0.9-2.1l1.2,0.1
			c-0.2,0.7-0.5,1.4-0.8,2h7.8v1.1h-8.3c-0.6,1.1-1.2,2-2,3h3.8v-2H1120z"/>
		<path class="st3" d="M1134.5,699.6v1.1h-2.8v4.2c1.2-0.2,2.3-0.5,3.4-0.8v1.1c-2.3,0.6-4.8,1-7.5,1.4l-0.3-1.1
			c1.1-0.1,2.1-0.3,3.1-0.4v-4.4h-2.8v-1.1H1134.5z M1135.3,695.8c0-0.9-0.1-1.9-0.1-2.8h1.2c0,1,0,1.9,0.1,2.8h4.9v1.1h-4.9
			c0.2,2.7,0.6,4.9,1.2,6.7c0.7,1.8,1.3,2.7,1.8,2.7c0.3,0,0.7-1,1-2.8l1,0.5c-0.5,2.3-1.1,3.5-2,3.5c-1.4-0.1-2.6-1.9-3.6-5.3
			c-0.4-1.5-0.6-3.3-0.7-5.3h-7.9v-1.1H1135.3z M1140.4,695.1l-1,0.5c-0.5-0.8-1-1.5-1.5-2.1l1-0.5
			C1139.4,693.7,1139.9,694.4,1140.4,695.1z"/>
		<path class="st3" d="M1147.3,700.5c-0.1,0.3-0.2,0.6-0.3,0.9h3.3v0.9c-0.4,1.1-0.9,2-1.8,2.7c0.8,0.4,1.5,0.7,2.2,1.1l-0.6,0.9
			c-0.7-0.4-1.5-0.8-2.5-1.3c-1.1,0.7-2.4,1.3-4,1.8l-0.5-1c1.3-0.4,2.4-0.8,3.4-1.3c-0.7-0.3-1.4-0.6-2.2-0.9
			c0.4-0.7,0.8-1.4,1.1-2h-1.9v-1h2.3c0.1-0.4,0.3-0.7,0.4-1L1147.3,700.5z M1146.6,696v-3.1h1.1v3.1h2.9v1h-2.9v0.2
			c0.9,0.4,1.8,0.9,2.7,1.5l-0.6,0.9c-0.8-0.6-1.5-1.2-2.1-1.5v2.1h-1.1v-3c-0.5,1.3-1.5,2.4-2.9,3.3l-0.6-0.9
			c1.2-0.7,2.1-1.5,2.6-2.4h-2.3v-1H1146.6z M1145.8,695.2l-0.8,0.4c-0.3-0.8-0.7-1.5-1.1-2.1l0.9-0.3
			C1145.1,693.9,1145.5,694.5,1145.8,695.2z M1149.3,702.4h-2.8c-0.3,0.5-0.5,1.1-0.9,1.5c0.6,0.2,1.2,0.4,1.8,0.7
			C1148.3,704,1148.9,703.2,1149.3,702.4z M1150.5,693.6c-0.3,0.7-0.7,1.4-1.2,2.1l-0.8-0.4c0.5-0.7,0.9-1.4,1.2-2L1150.5,693.6z
			 M1152.2,699.1c-0.3,0.7-0.6,1.4-0.9,2l-0.7-0.9c0.9-1.8,1.6-4.2,1.9-7.3l1.1,0.2c-0.1,0.8-0.2,1.6-0.4,2.3h4.2v1.1h-1
			c-0.1,2.7-0.6,5-1.5,6.9c0.8,1.4,1.8,2.5,3,3.3l-0.6,0.9c-1.1-0.8-2.1-1.9-2.9-3.2c-0.8,1.3-1.8,2.4-3,3.2l-0.6-1
			c1.2-0.9,2.2-2,3-3.3C1153.2,702.1,1152.7,700.7,1152.2,699.1z M1152.8,697.3c0.4,1.9,0.9,3.5,1.6,4.8c0.6-1.6,1-3.5,1-5.7h-2.4
			L1152.8,697.3z"/>
		<path class="st3" d="M1159.7,707.5l-0.2-1.1c0.4,0,0.8,0.1,1.2,0.1c0.4,0,0.6-0.2,0.6-0.7v-3.9c-0.6,0.2-1.3,0.5-1.9,0.7l-0.3-1.1
			c0.7-0.2,1.5-0.4,2.2-0.7v-3.6h-1.9V696h1.9v-3h1.1v3h1.5v1.1h-1.5v3.2c0.5-0.2,1-0.5,1.5-0.7v1.1c-0.5,0.3-1,0.5-1.5,0.7v4.7
			c0,0.9-0.4,1.4-1.3,1.4H1159.7z M1164,707.6l-0.9-0.8c1.1-2.1,1.7-4.9,1.7-8.2v-5h8.4v3.9h-3v1.9h3.4v1h-3.4v2h2.7v5.2h-1.1v-0.8
			h-4.3v0.8h-1.1v-5.2h2.7v-2h-3.3C1165.7,703.1,1165,705.5,1164,707.6z M1165.9,697.5v1.1c0,0.3,0,0.5,0,0.8h3.2v-1.9H1165.9z
			 M1165.9,694.6v1.8h6.2v-1.8H1165.9z M1171.9,705.8v-2.4h-4.3v2.4H1171.9z"/>
		<path class="st3" d="M1183.8,694.3h5.8v1.1h-11.9v3.6c-0.1,3.5-0.6,6.4-1.6,8.5l-0.9-0.8c0.9-1.8,1.3-4.4,1.4-7.6v-4.8h6
			c-0.3-0.5-0.5-0.9-0.8-1.3l1.3-0.2C1183.3,693.3,1183.6,693.8,1183.8,694.3z M1183.1,696.2c-0.1,0.4-0.3,0.9-0.4,1.3h6.2v1h-6.6
			c-0.4,1-0.9,1.9-1.4,2.7h3v-1.9h1.2v1.9h3.6v1h-3.6v1.8h4.8v1.1h-4.8v2.5h-1.2v-2.5h-5.8V704h5.8v-1.8h-4.2l-0.2-1
			c0.6-0.8,1.2-1.7,1.7-2.8h-2.4v-1h2.8c0.2-0.5,0.4-1,0.5-1.5L1183.1,696.2z"/>
		<path class="st3" d="M1192.6,696.1c0,1.6-0.2,3.1-0.5,4.6l-0.9-0.3c0.3-1.4,0.5-2.8,0.6-4.4L1192.6,696.1z M1194.5,693v14.6h-1.2
			V693H1194.5z M1196.6,698.4c0.5-1.4,0.9-2.9,0.9-4.5l1,0.1c0,0.7-0.1,1.3-0.2,1.9h2.3v-3h1.2v3h3.5v1.1h-3.5v3.9h3.2v1.1h-3.2v3.9
			h3.9v1.1h-9.7V706h4.6v-3.9h-3.7V701h3.7v-3.9h-2.5c-0.3,1.2-0.7,2.3-1.3,3.2l-0.8-0.8c0.2-0.4,0.3-0.7,0.5-1l-0.8,0.2
			c-0.2-1-0.5-1.9-0.9-2.8l0.8-0.3C1196,696.5,1196.3,697.4,1196.6,698.4z"/>
		<path class="st3" d="M1215.2,697.4l-0.9,0.7c-0.2-0.4-0.4-0.7-0.6-1.1c-1.7,0.3-3.8,0.5-6.1,0.6l-0.3-1c0.2-0.1,0.4-0.2,0.5-0.3
			c1-1,1.8-2.2,2.5-3.5l1.1,0.3c-0.7,1.4-1.5,2.5-2.4,3.4c1.3-0.1,2.8-0.2,4.3-0.4c-0.3-0.5-0.7-1.1-1.1-1.6l0.9-0.6
			C1213.9,695.4,1214.7,696.5,1215.2,697.4z M1209.3,707.6h-1.1v-9h5.9v7.5c0,0.9-0.4,1.4-1.3,1.4h-1.3l-0.3-1.1l1.2,0
			c0.4,0,0.6-0.2,0.6-0.6v-1.3h-3.7V707.6z M1213,699.6h-3.7v1.6h3.7V699.6z M1209.3,703.6h3.7v-1.5h-3.7V703.6z M1217.1,699.9
			c-1,0-1.5-0.5-1.5-1.6V693h1.1v2.1c1.8-0.3,3.2-0.6,4.3-0.8l0.4,1c-1.3,0.3-2.9,0.6-4.7,0.9v2c0,0.5,0.2,0.8,0.6,0.8h2.1
			c0.3,0,0.5-0.1,0.7-0.3c0.2-0.2,0.3-0.8,0.3-1.8l1.1,0.3c-0.1,1.3-0.3,2.1-0.6,2.4c-0.3,0.2-0.7,0.4-1.2,0.4H1217.1z
			 M1216.8,705.8c0,0.3,0.2,0.5,0.6,0.5h2.2c0.3,0,0.6-0.1,0.7-0.2c0.2-0.2,0.3-0.8,0.4-1.8l1,0.3c-0.1,1.3-0.3,2.1-0.6,2.4
			c-0.3,0.2-0.7,0.4-1.2,0.4h-2.7c-1,0-1.4-0.4-1.4-1.3v-5.6h1.1v2c1.6-0.2,3-0.4,4.3-0.8l0.4,1c-1.4,0.4-3,0.7-4.7,0.8V705.8z"/>
		<path class="st3" d="M1232.3,702.5v1.1h-9v-1.1H1232.3z M1227.2,693l-0.2,2.1h9.7v1.1h-9.8l-0.3,2.6h9c0,4.4-0.3,6.9-0.9,7.6
			c-0.6,0.7-1.9,1-3.8,1c-0.5,0-1,0-1.6-0.1l-0.3-1.1c0.8,0.1,1.3,0.1,1.6,0.1c1.8,0,2.9-0.3,3.2-0.9c0.4-0.7,0.6-2.5,0.6-5.6h-9.1
			l0.8-7L1227.2,693z"/>
		<path class="st3" d="M1242.6,694.1v-1.2h1.1v1.2h5.5v-1.2h1.1v1.2h2.8v1h-2.8v5.3h3.1v1h-3.3c0.8,1,2,1.7,3.6,2.3l-0.5,1
			c-2-0.8-3.4-1.9-4.2-3.2h-5c-0.8,1.3-2.2,2.4-4,3.3l-0.6-1c1.6-0.6,2.8-1.4,3.5-2.3h-3.3v-1h3.1v-5.3h-2.8v-1H1242.6z M1247,702
			v1.3h3.2v1h-3.2v1.7h5.5v1.1h-12.2V706h5.6v-1.7h-3.3v-1h3.3V702H1247z M1249.2,696.3v-1.2h-5.5v1.2H1249.2z M1249.2,698.3v-1.1
			h-5.5v1.1H1249.2z M1249.2,700.4v-1.2h-5.5v1.2H1249.2z"/>
		<path class="st3" d="M1255.4,694.9v-1.1h5.4v1.1h-2.4c-0.2,1.3-0.5,2.5-0.9,3.6h3v8.5h-1v-1h-1.7v1.2h-1v-7
			c-0.3,0.7-0.7,1.3-1.1,1.9l-0.6-1c1.2-1.8,1.9-3.9,2.3-6.2H1255.4z M1259.4,705.1v-5.5h-1.7v5.5H1259.4z M1267.9,694.3h1.1v5.2h-3
			v6h2.3v-4.6h1.1v6.7h-1.1v-1.1h-5.6v1.1h-1.1v-6.7h1.1v4.6h2.2v-6h-3v-5.2h1.1v4.2h1.9V693h1.1v5.5h1.9V694.3z"/>
		<path class="st3" d="M1279.2,697.4l-0.9,0.7c-0.2-0.4-0.4-0.7-0.6-1.1c-1.7,0.3-3.8,0.5-6.1,0.6l-0.3-1c0.2-0.1,0.4-0.2,0.5-0.3
			c1-1,1.8-2.2,2.5-3.5l1.1,0.3c-0.7,1.4-1.5,2.5-2.4,3.4c1.3-0.1,2.8-0.2,4.3-0.4c-0.3-0.5-0.7-1.1-1.1-1.6l0.9-0.6
			C1277.9,695.4,1278.7,696.5,1279.2,697.4z M1273.3,707.6h-1.1v-9h5.9v7.5c0,0.9-0.4,1.4-1.3,1.4h-1.3l-0.3-1.1l1.2,0
			c0.4,0,0.6-0.2,0.6-0.6v-1.3h-3.7V707.6z M1277,699.6h-3.7v1.6h3.7V699.6z M1273.3,703.6h3.7v-1.5h-3.7V703.6z M1281.1,699.9
			c-1,0-1.5-0.5-1.5-1.6V693h1.1v2.1c1.8-0.3,3.2-0.6,4.3-0.8l0.4,1c-1.3,0.3-2.9,0.6-4.7,0.9v2c0,0.5,0.2,0.8,0.6,0.8h2.1
			c0.3,0,0.5-0.1,0.7-0.3c0.2-0.2,0.3-0.8,0.3-1.8l1.1,0.3c-0.1,1.3-0.3,2.1-0.6,2.4c-0.3,0.2-0.7,0.4-1.2,0.4H1281.1z
			 M1280.8,705.8c0,0.3,0.2,0.5,0.6,0.5h2.2c0.3,0,0.6-0.1,0.7-0.2c0.2-0.2,0.3-0.8,0.4-1.8l1,0.3c-0.1,1.3-0.3,2.1-0.6,2.4
			c-0.3,0.2-0.7,0.4-1.2,0.4h-2.7c-1,0-1.4-0.4-1.4-1.3v-5.6h1.1v2c1.6-0.2,3-0.4,4.3-0.8l0.4,1c-1.4,0.4-3,0.7-4.7,0.8V705.8z"/>
		<path class="st3" d="M1294.3,693v1.6c0,0.6,0,1.1-0.1,1.6h6.1c-0.1,2.8-0.2,5-0.3,6.7c-0.2,1.7-0.4,2.9-0.8,3.5
			c-0.4,0.6-1,1-1.8,1h-2.1l-0.3-1.1c0.6,0,1.3,0,1.8,0c0.9,0,1.5-0.6,1.8-1.7c0.3-1.2,0.5-3.7,0.6-7.4h-5.1
			c-0.2,2.3-0.7,4.2-1.4,5.7c-1,2-2.5,3.5-4.6,4.6l-0.6-1c2.1-1.1,3.6-2.6,4.4-4.5c0.5-1.3,0.9-2.9,1.1-4.8h-4.7v-1.1h4.8
			c0-0.5,0-1.1,0.1-1.6V693H1294.3z"/>
		<path class="st3" d="M1317.5,693.7v1.1h-4.3v2.5h3.6v8.6c0,1.1-0.5,1.6-1.4,1.6h-1.6l-0.3-1.1l1.6,0c0.4,0,0.6-0.3,0.6-0.8v-7.2
			h-2.5c0,0.4-0.1,0.9-0.1,1.3c0.7,1.1,1.5,2.4,2.2,3.8l-0.7,1.1c-0.7-1.5-1.2-2.7-1.7-3.6c-0.4,1.9-1.1,3.3-2.1,4.4l-0.8-0.8
			c1.3-1.3,2-3.4,2.2-6.1h-3.4c0,0.5-0.1,1.1-0.2,1.6c0.6,0.8,1.2,1.7,1.9,2.7l-0.7,1c-0.6-1.1-1-2-1.4-2.6c-0.4,1.6-1,2.9-1.9,3.9
			l-0.9-0.8c1.2-1.3,1.9-3.2,2.1-5.7h-2.4v9.1h-1.1v-10.2h3.5v-2.5h-4.3v-1.1H1317.5z M1312.1,697.3v-2.5h-3.4v2.5H1312.1z"/>
		<path class="st3" d="M1319.3,695.6v-1.1h4.9v1.1h-1.9v7.2c0.7-0.2,1.3-0.5,2-0.7v1.2c-1.4,0.6-3,1.1-4.9,1.6l-0.3-1.1
			c0.7-0.2,1.4-0.4,2.1-0.5v-7.6H1319.3z M1329.8,698.5v2.8c-0.1,1.7-0.5,3.1-1.4,4.1c-0.8,0.9-2.2,1.7-4.1,2.2l-0.6-1
			c1.9-0.5,3.2-1.2,3.9-2c0.7-0.9,1-2,1.1-3.4v-2.8H1329.8z M1333.8,693.6v1.1h-3.8c-0.1,0.6-0.2,1.2-0.3,1.7h3.4v7.5h-1.1v-6.5
			h-5.1v6.5h-1.1v-7.5h2.8c0.2-0.5,0.3-1.1,0.4-1.7h-3.9v-1.1H1333.8z M1333.9,706.9l-0.8,0.8c-0.8-0.9-1.9-1.9-3.3-3l0.8-0.7
			C1331.9,705,1333,705.9,1333.9,706.9z"/>
		<path class="st3" d="M1338.6,697.8v7.1c0.5-0.4,1.1-1,1.6-1.6l0.3,1.2c-0.9,0.9-1.9,1.7-3,2.5l-0.4-1c0.2-0.2,0.4-0.4,0.4-0.7
			v-6.4h-2.4v-1.1H1338.6z M1339.8,695.5l-0.8,0.8c-0.7-0.8-1.6-1.6-2.8-2.5l0.8-0.8C1338.1,693.9,1339,694.7,1339.8,695.5z
			 M1349.4,693.7v1.1h-3.8v6h4.3v1.1h-4.3v5.7h-1.1v-5.7h-4.2v-1.1h4.2v-6h-3.8v-1.1H1349.4z M1343.2,699.7l-1,0.3
			c-0.3-1.4-0.8-2.7-1.3-4l1-0.3C1342.4,696.8,1342.8,698.2,1343.2,699.7z M1348.9,695.8c-0.3,1.6-0.8,2.9-1.3,4.1l-1-0.3
			c0.5-1.1,0.9-2.4,1.2-4L1348.9,695.8z"/>
		<path class="st3" d="M1354.1,699.5l-0.8,0.8c-0.5-0.7-1.3-1.5-2.2-2.3l0.8-0.7C1352.8,698,1353.5,698.7,1354.1,699.5z
			 M1354.3,701.9c-0.6,2-1.3,3.8-2,5.5l-1.1-0.4c0.8-1.8,1.5-3.6,2.1-5.5L1354.3,701.9z M1354.4,695.4l-0.8,0.8
			c-0.5-0.7-1.3-1.4-2.3-2.1l0.8-0.8C1353.1,694,1353.8,694.7,1354.4,695.4z M1358.2,695.8v5.1c0,1.8-0.3,3.3-0.9,4.4
			c-0.5,1-1.4,1.8-2.6,2.4l-0.6-1c1.2-0.5,2-1.3,2.4-2.2c0.4-0.9,0.7-2.1,0.7-3.6v-5.1H1358.2z M1360.4,703.5h-1v-8.8h-3.3v8.9h-1
			v-9.9h5.4V703.5z M1361.2,706.8l-0.8,0.8c-0.6-0.8-1.4-1.7-2.4-2.7l0.7-0.7C1359.7,705.1,1360.5,706,1361.2,706.8z M1362.7,694.3
			v10h-1v-10H1362.7z M1362.1,707.5l-0.2-1.1c0.6,0,1.1,0.1,1.6,0.1c0.4,0,0.6-0.2,0.6-0.6V693h1.1v13.1c0,0.9-0.4,1.4-1.3,1.4
			H1362.1z"/>
	</g>
	<path id="路径_10998_1_" class="st4" d="M894.5,449v256"/>
	<g class="st0">
		<path class="st1" d="M649.6,1033c5.2-4.3,9.3-7.9,12.4-10.6c3-2.8,5.6-5.7,7.6-8.7s3.1-6,3.1-8.9c0-2.2-0.5-3.9-1.5-5.1
			c-1-1.2-2.5-1.8-4.6-1.8c-2,0-3.6,0.8-4.8,2.3c-1.1,1.5-1.7,3.7-1.7,6.4H647c0.1-4.5,1.1-8.3,2.9-11.4c1.8-3,4.3-5.3,7.3-6.7
			c3-1.4,6.4-2.2,10-2.2c6.3,0,11.1,1.6,14.4,4.9c3.2,3.3,4.8,7.5,4.8,12.7c0,5.7-1.9,11-5.8,15.9c-3.9,4.9-8.9,9.6-14.9,14.3h21.6
			v11.1h-40.2V1035C648.9,1033.6,649.8,1032.9,649.6,1033z"/>
		<path class="st1" d="M698.6,994.3c3.5-5.3,9.3-7.9,17.2-7.9c7.9,0,13.6,2.6,17.2,7.9c3.5,5.3,5.3,12.5,5.3,21.7
			c0,9.3-1.8,16.6-5.3,21.8c-3.5,5.3-9.3,7.9-17.2,7.9c-7.9,0-13.6-2.6-17.2-7.9c-3.5-5.3-5.3-12.6-5.3-21.8
			C693.3,1006.8,695.1,999.6,698.6,994.3z M723,1003.6c-1.2-2.9-3.6-4.4-7.3-4.4c-3.7,0-6.1,1.5-7.3,4.4c-1.2,2.9-1.8,7.1-1.8,12.4
			c0,3.6,0.2,6.6,0.6,9c0.4,2.4,1.3,4.3,2.6,5.8c1.3,1.5,3.2,2.2,5.8,2.2s4.5-0.7,5.8-2.2c1.3-1.5,2.2-3.4,2.6-5.8
			c0.4-2.4,0.6-5.4,0.6-9C724.8,1010.6,724.2,1006.5,723,1003.6z"/>
		<path class="st1" d="M744,1000.3v-12.7h22.2v58.4h-14.2v-45.7H744z"/>
		<path class="st1" d="M816.6,999.5h-25v11c1.1-1.2,2.6-2.1,4.5-2.9c1.9-0.7,4-1.1,6.2-1.1c4,0,7.3,0.9,10,2.7
			c2.6,1.8,4.6,4.2,5.8,7c1.2,2.9,1.8,6,1.8,9.4c0,6.2-1.8,11.2-5.3,14.8c-3.5,3.7-8.5,5.5-14.9,5.5c-4.3,0-8-0.7-11.1-2.2
			c-3.1-1.5-5.6-3.5-7.3-6.1c-1.7-2.6-2.6-5.6-2.8-9H792c0.3,1.7,1.1,3,2.3,4.1c1.2,1.1,2.9,1.6,5,1.6c2.5,0,4.4-0.8,5.6-2.4
			c1.2-1.6,1.8-3.7,1.8-6.4c0-2.6-0.6-4.6-1.9-6c-1.3-1.4-3.1-2.1-5.6-2.1c-1.8,0-3.3,0.4-4.5,1.3c-1.2,0.9-1.9,2-2.3,3.5h-13.2
			v-34.8h37.4V999.5z"/>
	</g>
	<path id="路径_10997_1_" class="st4" d="M894.5,985.7v60.3"/>
	<g class="st0">
		<path class="st2" d="M981.6,993.1v8.4h1.9v1.7h-1.9v2.8h-2v-2.8h-6.2v-2l6.3-8.1H981.6z M975.1,1001.6h4.5v-5.8h-0.1L975.1,1001.6
			z"/>
		<path class="st2" d="M993.6,1008l-1.4-1.3c1.1-1.6,1.7-3.6,1.7-6v-8.8h10.9v14.1c0,1.2-0.6,1.8-1.8,1.8h-2.3l-0.5-1.8
			c0.8,0.1,1.5,0.1,2.2,0.1c0.4,0,0.5-0.3,0.5-0.7v-3h-7.2C995.4,1004.6,994.7,1006.5,993.6,1008z M1002.8,993.6h-7.1v2.5h7.1V993.6
			z M995.7,1000.5h7.1v-2.7h-7.1V1000.5z"/>
	</g>
	<g class="st0">
		<path class="st3" d="M987.5,1025.9v1.1h-6v6h6.6v1.1h-6.6v5.7h-1.2v-5.7h-6.4v-1.1h6.4v-6h-5.8v-1.1H987.5z M978.2,1031.7
			l-1.1,0.5c-0.5-1.4-1.1-2.6-1.7-3.7l1.1-0.5C977.1,1029.2,977.7,1030.4,978.2,1031.7z M986.6,1028.5c-0.5,1.3-1.1,2.5-1.9,3.7
			l-1-0.5c0.8-1.2,1.4-2.5,1.9-3.7L986.6,1028.5z"/>
		<path class="st3" d="M996.1,1036.5l0.2,1.1c-1.7,0.6-3.6,1.2-5.6,1.8l-0.3-1c0.3-0.1,0.4-0.4,0.4-0.7v-3.7h4.1v-1.9H990v-1h6v4
			h-4.1v2.9C993.2,1037.5,994.7,1037,996.1,1036.5z M995.4,1026h1v3.7h-6.2v-3.7h1v2.7h1.6v-3.4h1v3.4h1.6V1026z M997.3,1035.9
			c0.2-1,0.4-2.3,0.4-3.9v-6.2h4.4v12.2c0,0.3,0.1,0.4,0.4,0.4h0.4c0.2,0,0.3,0,0.4-0.1c0.1-0.1,0.2-0.3,0.2-0.5
			c0-0.4,0.1-1.3,0.1-2.9l0.9,0.3c0,1.2,0,2.1-0.1,2.8c-0.1,0.6-0.2,1-0.4,1.3c-0.2,0.2-0.5,0.3-1,0.3h-0.5c-1,0-1.5-0.5-1.5-1.4
			v-11.3h-2.2v5.2c0,1.7-0.2,3.2-0.4,4.3c-0.3,1.2-0.9,2.4-1.7,3.5l-0.8-0.8C996.5,1038.1,997,1037,997.3,1035.9z"/>
		<path class="st3" d="M1006.9,1036.9l-0.8-0.9c0.9-1.1,1.7-2.5,2.3-4.3l1,0.2c-0.1,0.4-0.3,0.8-0.4,1.2h4v-1.3h1.2v1.3h5.3v1h-5.3
			v1.6h4.7v1h-4.7v1.6h6v1.1h-13.6v-1.1h6.4v-1.6h-4.4v-1h4.4v-1.6h-4.4C1008.1,1035.2,1007.5,1036.1,1006.9,1036.9z M1018.5,1025.7
			v5.7h-10.4v-5.7H1018.5z M1017.4,1028.1v-1.4h-8.1v1.4H1017.4z M1017.4,1029h-8.1v1.4h8.1V1029z"/>
		<path class="st3" d="M1022.5,1039.9l-0.9-0.8c1.1-1.9,1.7-4.4,1.7-7.7v-5.5h12.4v1.1h-11.3v4.6h11.4v1.1h-5c0.1,1,0.5,1.8,1.1,2.7
			c0.9-0.5,1.7-1.2,2.5-2.2l0.8,0.8c-0.8,0.9-1.7,1.6-2.7,2.2c0.9,1,2.2,1.9,3.8,2.8l-0.8,0.9c-3.5-1.9-5.4-4.3-5.7-7.1h-2.4v5.6
			c1.3-0.3,2.4-0.7,3.4-1.1l0.2,1.1c-1.4,0.5-3,1-4.9,1.4l-0.3-1c0.3-0.1,0.5-0.4,0.5-0.8v-5.2h-1.9
			C1024.2,1035.6,1023.6,1038,1022.5,1039.9z M1034.6,1028.7v1.1h-8.7v-1.1H1034.6z"/>
		<path class="st3" d="M1051.7,1025c-0.6,1.1-1.2,2.2-1.5,3.3c-0.5,1.4-0.7,2.8-0.7,4.2c0,1.4,0.2,2.8,0.7,4.2
			c0.4,1.1,0.9,2.2,1.5,3.3h-1.1c-0.7-1-1.2-2.1-1.6-3.3c-0.5-1.4-0.7-2.8-0.7-4.2c0-1.4,0.2-2.8,0.7-4.2c0.4-1.2,0.9-2.3,1.6-3.3
			H1051.7z"/>
		<path class="st3" d="M1059.5,1025.3v14.5h-1.2v-2.7c-1.3,0.6-2.7,1.1-4.2,1.5l-0.3-1.1c1.6-0.4,3.1-0.9,4.5-1.5v-5.1h-4.2v-1.1
			h4.2v-4.4H1059.5z M1063.7,1039.6c-1,0-1.5-0.5-1.5-1.6v-12.8h1.2v5.4c1.4-0.5,2.7-1.2,4-2.1l0.7,0.9c-1.7,1-3.2,1.8-4.7,2.3v6.1
			c0,0.4,0.2,0.7,0.6,0.7h2c0.4,0,0.6-0.1,0.8-0.4c0.1-0.3,0.2-1.2,0.3-2.9l1.1,0.4c-0.1,1.9-0.3,3-0.5,3.4
			c-0.3,0.4-0.7,0.6-1.4,0.6H1063.7z"/>
		<path class="st3" d="M1074.3,1035.8c-1,1.4-2.3,2.7-3.8,3.7l-0.7-0.9c1.5-1,2.7-2.2,3.7-3.5L1074.3,1035.8z M1077.5,1026.9h6.6
			v1.1h-14.2v-1.1h6.5c-0.2-0.6-0.5-1.1-0.7-1.6l1.2-0.2C1077.1,1025.7,1077.3,1026.3,1077.5,1026.9z M1082.1,1029.6v4.5h-4.5v4.3
			c0,1-0.5,1.4-1.5,1.4h-1.7l-0.3-1.1c0.5,0,1.1,0.1,1.6,0.1c0.5,0,0.7-0.2,0.7-0.7v-4h-4.6v-4.5H1082.1z M1081,1030.7h-7.9v2.3h7.9
			V1030.7z M1084.1,1038.7l-0.8,0.8c-0.9-1.2-2.1-2.4-3.6-3.7l0.8-0.8C1081.9,1036.3,1083.2,1037.5,1084.1,1038.7z"/>
		<path class="st3" d="M1087.4,1025c0.7,1,1.2,2.1,1.6,3.3c0.5,1.4,0.7,2.8,0.7,4.2c0,1.4-0.2,2.8-0.7,4.2c-0.4,1.2-1,2.3-1.6,3.3
			h-1.1c0.6-1.1,1.1-2.2,1.5-3.3c0.5-1.4,0.7-2.8,0.7-4.2c0-1.4-0.2-2.8-0.7-4.2c-0.4-1.2-0.9-2.3-1.5-3.3H1087.4z"/>
		<path class="st3" d="M1104.6,1029.5v-2.4c-0.8,0.1-1.6,0.2-2.4,0.3l-0.2-1.1c2.1-0.2,3.9-0.5,5.5-1l0.4,1.1
			c-0.7,0.2-1.4,0.4-2.2,0.5v2.6h2.2v1.1h-2.2v0.8c0.9,0.7,1.8,1.5,2.8,2.4l-0.7,1c-0.8-1-1.5-1.7-2.1-2.3v7.3h-1.2v-7.5
			c-0.6,1.6-1.5,3-2.6,4.3l-0.5-1.3c1.4-1.4,2.3-3,2.9-4.7h-2.5v-1.1H1104.6z M1116.4,1035l-1.6,0.3v4.6h-1.2v-4.4l-5,0.8l-0.2-1.1
			l5.2-0.8v-9h1.2v8.9l1.4-0.2L1116.4,1035z M1112.4,1032.4l-0.8,0.8c-0.7-0.8-1.7-1.7-3-2.6l0.8-0.8
			C1110.7,1030.6,1111.6,1031.5,1112.4,1032.4z M1112.9,1028.6l-0.8,0.8c-0.7-0.8-1.7-1.6-2.9-2.5l0.8-0.8
			C1111.1,1026.9,1112.1,1027.7,1112.9,1028.6z"/>
		<path class="st3" d="M1118.2,1039.7l-0.2-1.1c0.4,0,0.8,0.1,1.2,0.1c0.4,0,0.7-0.2,0.7-0.7v-3.8c-0.6,0.3-1.3,0.5-2,0.7l-0.3-1.1
			c0.8-0.2,1.5-0.4,2.2-0.7v-3.8h-1.9v-1.1h1.9v-2.9h1.1v2.9h1.7v1.1h-1.7v3.3c0.6-0.3,1.2-0.6,1.7-0.9v1.1
			c-0.6,0.3-1.2,0.6-1.7,0.9v4.6c0,1-0.5,1.4-1.4,1.4H1118.2z M1127,1027.5v-2.3h1.1v2.3h3.9v1.1h-3.9v2.6h3.2v1
			c-0.6,1.8-1.5,3.3-2.8,4.5c1.1,0.8,2.4,1.5,3.9,2.2l-0.6,1c-1.6-0.7-3-1.5-4-2.4c-1.2,1-2.8,1.8-4.6,2.4l-0.5-1
			c1.7-0.6,3.1-1.3,4.3-2.2c-1.3-1.3-2.2-2.8-2.7-4.4h-0.8v-1.1h3.5v-2.6h-3.8v-1.1H1127z M1127.8,1036.1c1.1-1.1,1.9-2.3,2.4-3.8
			h-4.8C1125.8,1033.7,1126.6,1035,1127.8,1036.1z"/>
		<path class="st3" d="M1138.6,1036.4v3.4h-1.1v-8.4c-0.9,1.1-1.9,2.2-3.1,3.1l-0.8-1c2-1.6,3.6-3.4,4.7-5.5h-4.2v-1.1h4.8
			c0.3-0.6,0.5-1.2,0.7-1.9l1.2,0.1c-0.2,0.6-0.4,1.2-0.6,1.7h8v1.1h-8.4c-0.3,0.6-0.7,1.3-1,1.9h7.4v8.6c0,0.8-0.4,1.2-1.3,1.2
			h-1.8l-0.3-1.1c0.6,0,1.2,0.1,1.7,0.1c0.4,0,0.6-0.2,0.6-0.6v-1.8H1138.6z M1138.6,1032.7h6.4v-1.7h-6.4V1032.7z M1138.6,1033.7
			v1.7h6.4v-1.7H1138.6z"/>
		<path class="st3" d="M1155.3,1025.8v0.9c-0.5,1.4-1.1,2.9-1.7,4.5c1,1.4,1.6,2.7,1.6,3.8c0,0.7-0.2,1.2-0.5,1.5
			c-0.4,0.4-1.2,0.6-2.4,0.6l-0.4-1.2c0.3,0,0.5,0.1,0.6,0.1c0.6,0,1-0.1,1.2-0.2c0.2-0.1,0.3-0.4,0.3-0.7c0-1.1-0.6-2.3-1.7-3.7
			c0.8-1.7,1.3-3.2,1.8-4.5h-2.6v12.9h-1.1v-14.1H1155.3z M1157.1,1032.7v5.5c1-0.3,1.9-0.7,2.9-1.1l0.3,1.1c-1.2,0.5-2.6,1-4.3,1.4
			l-0.3-1c0.2-0.1,0.4-0.2,0.4-0.4v-12.4h7v6.9h-3c0.2,0.9,0.5,1.8,1,2.6c0.8-0.4,1.5-1.1,2.2-1.9l0.8,0.8c-0.7,0.9-1.6,1.5-2.5,2
			c0.7,1,1.7,1.9,2.9,2.6l-0.6,1c-2.7-1.7-4.3-4-4.8-7H1157.1z M1161.9,1026.9h-4.7v1.8h4.7V1026.9z M1157.1,1031.7h4.7v-1.8h-4.7
			V1031.7z"/>
		<path class="st3" d="M1171.3,1025.8c-1.2,3.4-2.7,5.9-4.7,7.7l-0.9-0.8c2-1.8,3.5-4.3,4.5-7.3L1171.3,1025.8z M1178.9,1039.4
			l-1.1,0.5c-0.2-0.5-0.5-1.1-0.7-1.5c-2.8,0.4-6,0.8-9.5,1l-0.2-1.1c1.3-0.7,2.9-3.2,4.8-7.6l1.1,0.4c-1.4,3-2.8,5.4-4.1,7.2
			c2.6-0.2,5.1-0.4,7.3-0.8c-0.6-1.2-1.3-2.2-1.9-3.2l1-0.4C1177,1035.6,1178,1037.4,1178.9,1039.4z M1180.3,1032.5l-0.8,0.9
			c-2.4-2-4.1-4.6-5-7.7l1-0.5C1176.4,1028.2,1178,1030.7,1180.3,1032.5z"/>
		<path class="st3" d="M1192,1029v1h-9.8v-1H1192z M1191,1039.8l-0.3-1.1l2.2,0c0.5,0,0.7-0.3,0.7-1V1027h-10.9v-1.1h12v12.2
			c0,1.1-0.5,1.7-1.6,1.7H1191z M1190.4,1032v4.9h-7.1v-4.9H1190.4z M1189.3,1033.1h-4.8v2.9h4.8V1033.1z"/>
		<path class="st3" d="M1210.9,1026.9l-0.7,0.7h2v1.1h-4.9c0.1,2,0.3,3.6,0.6,4.7c0.1,0.4,0.2,0.8,0.3,1.1c0.8-1.3,1.4-2.8,1.9-4.5
			l1,0.4c-0.6,2.1-1.5,3.9-2.5,5.3c0.2,0.5,0.5,1,0.7,1.3c0.5,0.8,1,1.2,1.3,1.2c0.3,0,0.6-0.8,0.8-2.5l1,0.6
			c-0.4,2.1-0.9,3.2-1.6,3.2c-0.7,0-1.4-0.5-2.2-1.4c-0.3-0.4-0.6-0.8-0.8-1.3c-1.1,1.3-2.4,2.3-3.9,3l-0.6-1c1.6-0.7,3-1.8,4.1-3.2
			c-0.2-0.6-0.4-1.2-0.6-1.9c-0.4-1.3-0.6-3-0.7-5h-5.5v2.7h3.9c0,2.7-0.2,4.5-0.4,5.2c-0.2,0.7-0.7,1-1.5,1.1c-0.4,0-0.8,0-1.4-0.1
			l-0.4-1c0.6,0,1.2,0,1.6,0c0.4,0,0.6-0.3,0.7-0.7c0.1-0.5,0.1-1.7,0.2-3.5h-2.8v0.5c-0.1,2.9-0.7,5.2-1.9,6.9l-0.9-0.8
			c1-1.5,1.6-3.5,1.6-6.1v-5.3h6.6c0-0.8,0-1.6,0-2.5h1.2c0,0.9,0,1.7,0,2.5h3c-0.5-0.6-1.1-1.2-1.9-1.8l0.7-0.7
			C1209.7,1025.7,1210.3,1026.3,1210.9,1026.9z"/>
		<path class="st3" d="M1221.7,1037.8c1-2.1,1.8-4.8,2.6-8l1.2,0.3c-0.7,2.9-1.5,5.4-2.5,7.7h5.2v1.1h-14.5v-1.1H1221.7z
			 M1220.5,1027.8c-0.3-0.9-0.5-1.6-0.8-2.4l1.3-0.2c0.3,0.8,0.5,1.6,0.7,2.6h6v1.1h-13.4v-1.1H1220.5z M1219.6,1037l-1.2,0.3
			c-0.5-2.4-1.1-4.8-1.8-7l1.2-0.4C1218.5,1032,1219.1,1034.3,1219.6,1037z"/>
	</g>
</g>
</svg>
