<?xml version="1.0" encoding="utf-8"?>
<!-- Generator: Adobe Illustrator 25.1.0, SVG Export Plug-In . SVG Version: 6.00 Build 0)  -->
<svg version="1.1" id="图层_1" xmlns="http://www.w3.org/2000/svg" xmlns:xlink="http://www.w3.org/1999/xlink" x="0px" y="0px"
	 viewBox="0 0 336 1398" style="enable-background:new 0 0 336 1398;" xml:space="preserve">
<style type="text/css">
	.st0{enable-background:new    ;}
	.st1{fill:#3D3FEA;}
	.st2{fill:#30323E;}
	.st3{fill:#4E4E4E;}
</style>
<g id="组_3265" transform="translate(-39 -135)">
	<g class="st0">
		<path class="st1" d="M44.6,206c5.2-4.3,9.3-7.9,12.4-10.6c3-2.8,5.6-5.7,7.6-8.7s3.1-6,3.1-8.9c0-2.2-0.5-3.9-1.5-5.1
			c-1-1.2-2.5-1.8-4.6-1.8c-2,0-3.6,0.8-4.8,2.3c-1.1,1.5-1.7,3.7-1.7,6.4H42c0.1-4.5,1.1-8.3,2.9-11.4c1.8-3,4.3-5.3,7.3-6.7
			c3-1.4,6.4-2.2,10-2.2c6.3,0,11.1,1.6,14.4,4.9c3.2,3.3,4.8,7.5,4.8,12.7c0,5.7-1.9,11-5.8,15.9c-3.9,4.9-8.9,9.6-14.9,14.3h21.6
			v11.1H42.1V208C43.9,206.6,44.8,205.9,44.6,206z"/>
		<path class="st1" d="M93.6,167.3c3.5-5.3,9.3-7.9,17.2-7.9c7.9,0,13.6,2.6,17.2,7.9c3.5,5.3,5.3,12.5,5.3,21.7
			c0,9.3-1.8,16.6-5.3,21.8c-3.5,5.3-9.3,7.9-17.2,7.9c-7.9,0-13.6-2.6-17.2-7.9c-3.5-5.3-5.3-12.6-5.3-21.8
			C88.3,179.8,90.1,172.6,93.6,167.3z M118,176.6c-1.2-2.9-3.6-4.4-7.3-4.4c-3.7,0-6.1,1.5-7.3,4.4c-1.2,2.9-1.8,7.1-1.8,12.4
			c0,3.6,0.2,6.6,0.6,9c0.4,2.4,1.3,4.3,2.6,5.8c1.3,1.5,3.2,2.2,5.8,2.2s4.5-0.7,5.8-2.2c1.3-1.5,2.2-3.4,2.6-5.8
			c0.4-2.4,0.6-5.4,0.6-9C119.8,183.6,119.2,179.5,118,176.6z"/>
		<path class="st1" d="M142.4,206c5.2-4.3,9.3-7.9,12.4-10.6c3-2.8,5.6-5.7,7.6-8.7s3.1-6,3.1-8.9c0-2.2-0.5-3.9-1.5-5.1
			c-1-1.2-2.5-1.8-4.6-1.8c-2,0-3.6,0.8-4.8,2.3c-1.1,1.5-1.7,3.7-1.7,6.4h-13.2c0.1-4.5,1.1-8.3,2.9-11.4c1.8-3,4.3-5.3,7.3-6.7
			c3-1.4,6.4-2.2,10-2.2c6.3,0,11.1,1.6,14.4,4.9c3.2,3.3,4.8,7.5,4.8,12.7c0,5.7-1.9,11-5.8,15.9c-3.9,4.9-8.9,9.6-14.9,14.3h21.6
			v11.1H140V208C141.8,206.6,142.6,205.9,142.4,206z"/>
		<path class="st1" d="M184.7,173.3v-12.7h22.2V219h-14.2v-45.7H184.7z"/>
	</g>
	<g class="st0">
		<path class="st2" d="M47.6,271.1v8.4h1.9v1.7h-1.9v2.8h-2v-2.8h-6.2v-2l6.3-8.1H47.6z M41.1,279.6h4.5v-5.8h-0.1L41.1,279.6z"/>
		<path class="st2" d="M59.6,286l-1.4-1.3c1.1-1.6,1.7-3.6,1.7-6v-8.8h10.9v14.1c0,1.2-0.6,1.8-1.8,1.8h-2.3l-0.5-1.8
			c0.8,0.1,1.5,0.1,2.2,0.1c0.4,0,0.5-0.3,0.5-0.7v-3h-7.2C61.4,282.6,60.7,284.5,59.6,286z M68.8,271.6h-7.1v2.5h7.1V271.6z
			 M61.7,278.5h7.1v-2.7h-7.1V278.5z"/>
	</g>
	<g class="st0">
		<path class="st3" d="M54.1,303.8v1.1h-6.4c-0.1,0.7-0.3,1.4-0.6,2h6.1v10.9h-1.1v-0.8H41.9v0.8h-1.1V307h5.2
			c0.3-0.7,0.5-1.3,0.6-2h-6.7v-1.1H54.1z M44.1,316.1v-8h-2.2v8H44.1z M48.8,310v-2h-3.6v2H48.8z M48.8,313v-2h-3.6v2H48.8z
			 M48.8,316.1v-2h-3.6v2H48.8z M52.2,316.1v-8h-2.3v8H52.2z"/>
		<path class="st3" d="M63.2,303.3c-0.2,0.8-0.5,1.5-0.8,2.2h7.1v10.7c0,1-0.5,1.6-1.5,1.6h-2.4l-0.3-1.2l2.3,0
			c0.4,0,0.7-0.2,0.7-0.7v-9.3H57.9v11.2h-1.2v-12.3h4.4c0.4-0.8,0.7-1.6,0.8-2.4L63.2,303.3z M66,308.9v5.6h-5.9v-5.6H66z
			 M64.9,310h-3.7v3.4h3.7V310z"/>
		<path class="st3" d="M79.4,303.3c2,2.2,4.4,4,7,5.3l-0.6,1.1c-2.7-1.4-4.9-3.2-6.8-5.4c-1.7,2.1-4,3.9-6.9,5.4l-0.6-1.1
			c2.8-1.4,5.2-3.2,7.1-5.3H79.4z M80,307.5v3.6h4.4v1.1H80v3.9h5.5v1.1H72.2v-1.1h2.4v-6.3h1.1v6.3h3.1v-8.6H80z"/>
		<path class="st3" d="M93.9,303.4v12.7h2.3v-12.7h1.2v12.7h4.8v1.1H87.9v-1.1h4.8v-12.7H93.9z M91.5,313.7l-1.1,0.3
			c-0.6-2.6-1.3-5-2.2-7.4l1-0.3C90.1,308.4,90.9,310.9,91.5,313.7z M101.7,306.6c-0.6,2.8-1.4,5.2-2.4,7.3l-1-0.4
			c0.9-1.9,1.7-4.3,2.4-7.2L101.7,306.6z"/>
		<path class="st3" d="M108.6,315.6c-1.4,0.6-3,1-4.8,1.4l-0.1-1.1c1.9-0.3,3.5-0.8,4.9-1.3V315.6z M107.7,303.6
			c-0.8,2-1.7,3.6-2.5,4.8c0.8-0.1,1.5-0.2,2.3-0.3c0.3-0.5,0.6-1.1,1-1.7l1,0.4c-1.5,2.6-2.7,4.5-3.7,5.6c1.2-0.2,2.3-0.5,3.5-0.8
			v1c-1.7,0.5-3.3,0.8-4.9,1l-0.3-1c0.2-0.1,0.4-0.2,0.5-0.3c0.6-0.6,1.4-1.6,2.3-3.1c-0.9,0.1-1.9,0.3-2.8,0.4l-0.3-1.1
			c0.2-0.1,0.3-0.2,0.5-0.4c0.9-1.4,1.7-3.1,2.4-4.9L107.7,303.6z M109.4,304.9v-1.1h7v0.7c-0.3,1.4-0.5,2.7-0.8,3.7h2v0.6
			c-0.3,2.2-1.1,4.1-2.2,5.6c0.8,0.9,1.8,1.7,2.9,2.4l-0.7,1c-1.1-0.7-2.1-1.6-2.9-2.5c-1,1-2.1,1.9-3.5,2.5l-0.6-1.1
			c1.3-0.7,2.5-1.5,3.4-2.4c-1-1.3-1.7-2.8-2.2-4.4c-0.5,3.4-1.5,6-3.2,7.8l-0.8-0.8c2.1-2.3,3.1-6.1,3.2-11.3v-0.9H109.4z
			 M116.5,309.3h-2.2c0.3-1,0.6-2.4,0.9-4.3h-3.1v0.9c0,0.6,0,1.2,0,1.7c0.4,2.3,1.3,4.4,2.6,6.1
			C115.6,312.4,116.2,310.9,116.5,309.3z"/>
		<path class="st3" d="M123.2,317.9h-1.1v-8c-0.5,1.6-1.2,3.1-2,4.4l-0.5-1.2c1.1-1.7,2-3.6,2.4-5.7h-2.2v-1.1h2.2v-3.1h1.1v3.1h1.9
			v1.1h-1.9v1c0.8,0.9,1.5,1.9,2.3,3l-0.6,1c-0.7-1.1-1.2-2-1.7-2.7V317.9z M125.2,317.8l-0.6-1c3.8-1.2,6.6-3.6,8.5-7.1l1,0.5
			c-0.8,1.4-1.7,2.7-2.7,3.7c1.2,1,2.1,2,2.9,3l-0.8,0.8c-0.7-1-1.6-2-2.8-3.2C129.1,316,127.3,317.1,125.2,317.8z M129.5,305
			c-0.2-0.6-0.5-1.1-0.8-1.6l1.2-0.2c0.2,0.5,0.5,1.1,0.7,1.8h3.6v1h-4.4c-0.9,1.6-1.6,2.7-2.3,3.3c1-0.1,2-0.1,3-0.2
			c0.4-0.6,0.8-1.2,1.1-1.8l0.9,0.5c-1.6,3.2-3.9,5.3-7,6.5l-0.6-1c1.9-0.7,3.6-1.8,4.9-3.2c-1.1,0.1-2.3,0.1-3.6,0.2l-0.2-0.9
			c0.1,0,0.2-0.1,0.2-0.1c0.6-0.4,1.5-1.5,2.5-3.2h-3.1v-1H129.5z"/>
		<path class="st3" d="M138.6,308.5c-0.4,2.8-1.1,5.1-1.9,7.1l-1-0.6c0.8-2,1.4-4.3,1.8-6.7L138.6,308.5z M141.5,317.4
			c-1.1,0-1.7-0.5-1.7-1.6v-9.2h1.2v8.9c0,0.5,0.3,0.7,0.9,0.7h3c0.4,0,0.7-0.2,0.8-0.5c0.2-0.4,0.3-1.5,0.4-3.4l1.1,0.4
			c-0.1,2.2-0.4,3.5-0.7,4c-0.3,0.4-0.8,0.6-1.4,0.6H141.5z M145.4,307.3l-1,0.7c-0.8-1.2-2-2.6-3.4-4.1l1-0.6
			C143.5,304.8,144.6,306.2,145.4,307.3z M150.4,314.4l-1.1,0.5c-0.8-2.5-1.7-4.8-2.7-6.8l1.1-0.4
			C148.8,309.8,149.7,312.1,150.4,314.4z"/>
		<path class="st3" d="M153.7,307.6v-4.1h1.2v4.1h2v1.1h-2v5.6c0.7-0.2,1.4-0.4,2-0.7v1.2c-1.6,0.6-3.2,1.1-5,1.5l-0.3-1.2
			c0.7-0.1,1.4-0.3,2.1-0.4v-5.9h-1.9v-1.1H153.7z M157.7,309.8v-1.1c1.9-1.1,3.7-2.3,5.3-3.6h-5.2v-1.1h6.8v1
			c-1.5,1.3-3.2,2.5-5.1,3.7h6.1c-0.1,3.7-0.3,6.1-0.5,7.2c-0.3,1.1-1,1.6-2.2,1.7c-0.5,0-1,0-1.5,0l-0.3-1.1c0.6,0,1.1,0.1,1.7,0.1
			c0.6,0,1.1-0.3,1.3-0.9c0.2-0.5,0.4-2.5,0.4-5.9h-1.2c-0.4,1.9-1,3.5-1.7,4.6c-0.8,1.2-2.1,2.3-3.7,3.2l-0.7-0.9
			c1.5-0.8,2.7-1.8,3.5-2.8c0.7-1,1.2-2.4,1.6-4.1h-1.3c-0.6,2-1.6,3.6-3.1,4.7l-0.7-0.9c1.3-1,2.2-2.3,2.7-3.8H157.7z"/>
		<path class="st3" d="M172.5,315.4c-1.1,0.9-2.4,1.7-4.1,2.2l-0.6-0.9c1.7-0.6,3.1-1.2,4-2L172.5,315.4z M180.3,303.7v4.6h-5
			c0.1,0.3,0.3,0.6,0.4,0.9h6.3v1H168v-1h6.6c-0.2-0.3-0.3-0.6-0.5-0.9h-4.3v-4.6H180.3z M180.1,311v3.2h-4.4v2.3
			c0,0.9-0.4,1.3-1.2,1.3h-1.9l-0.2-1.1c0.6,0,1.2,0.1,1.8,0.1c0.3,0,0.5-0.2,0.5-0.6v-2H170V311H180.1z M179.2,305.5v-0.9h-8.3v0.9
			H179.2z M179.2,306.4h-8.3v1h8.3V306.4z M179,311.9h-7.9v1.4h7.9V311.9z M182.3,316.6l-0.4,1.1c-1.5-0.8-3-1.5-4.5-2l0.5-0.9
			C179.3,315.2,180.8,315.8,182.3,316.6z"/>
		<path class="st3" d="M189.5,316.9h-1.1V316h-2.9v1.4h-1.1V306h1.5c0.3-0.9,0.5-1.8,0.7-2.8l1.2,0.2c-0.2,0.9-0.4,1.8-0.8,2.6h2.6
			V316.9z M188.3,310.4v-3.3h-2.9v3.3H188.3z M188.3,314.9v-3.5h-2.9v3.5H188.3z M197.5,315.8c-0.2,1.2-0.9,1.8-2.2,1.8
			c-0.3,0-0.9,0-1.6-0.1l-0.3-1.1c0.7,0,1.2,0,1.7,0c0.8,0,1.2-0.4,1.3-1.2c0.1-0.9,0.2-3.7,0.2-8.3h-4.4c-0.4,1-1,1.9-1.6,2.7
			l-0.7-0.9c1.1-1.6,1.9-3.5,2.3-5.8l1.1,0.1c-0.2,0.9-0.4,1.8-0.7,2.7h5.1C197.7,311.3,197.7,314.6,197.5,315.8z M194.9,313.2
			l-0.9,0.6c-0.7-1.1-1.5-2.2-2.6-3.6l0.9-0.6C193.4,311,194.3,312.2,194.9,313.2z"/>
		<path class="st3" d="M214,304.9v1.1h-4v10.3h-1.3V306h-4v-1.1H214z"/>
		<path class="st3" d="M217,305.2c0.2,0.2,0.3,0.4,0.3,0.7c0,0.3-0.1,0.5-0.3,0.7c-0.2,0.2-0.4,0.3-0.7,0.3s-0.5-0.1-0.7-0.3
			c-0.2-0.2-0.3-0.4-0.3-0.7c0-0.3,0.1-0.5,0.3-0.7c0.2-0.2,0.4-0.3,0.7-0.3S216.8,305,217,305.2z M216.9,308v8.3h-1.3V308H216.9z"
			/>
		<path class="st3" d="M223.6,304.9c1.8,0,3.2,0.5,4.1,1.6c0.8,1,1.3,2.4,1.3,4.1c0,1.8-0.5,3.2-1.4,4.1c-1,1-2.3,1.6-4.1,1.6h-4
			v-11.4H223.6z M220.8,315.1h2.4c1.5,0,2.6-0.4,3.4-1.2c0.7-0.8,1.1-1.9,1.1-3.4c0-1.5-0.3-2.7-1-3.4c-0.7-0.8-1.8-1.2-3.3-1.2
			h-2.6V315.1z"/>
		<path class="st3" d="M235.9,304.9c1.1,0,1.9,0.3,2.5,0.8c0.6,0.5,0.9,1.2,0.9,2.1c0,0.6-0.2,1.2-0.5,1.7c-0.4,0.4-0.8,0.7-1.4,0.9
			c0.8,0.1,1.3,0.4,1.7,0.9c0.4,0.5,0.6,1.1,0.6,1.9c0,1.1-0.4,2-1.2,2.5c-0.7,0.4-1.6,0.7-2.8,0.7h-5.1v-11.4H235.9z M232.1,309.8
			h3.5c0.8,0,1.4-0.2,1.8-0.5c0.4-0.3,0.6-0.8,0.6-1.5c0-0.6-0.2-1.1-0.6-1.4c-0.4-0.3-1-0.5-1.8-0.5h-3.5V309.8z M232.1,315.2h3.7
			c0.8,0,1.4-0.2,1.9-0.4c0.6-0.4,0.8-0.9,0.8-1.6s-0.3-1.3-0.7-1.6c-0.5-0.4-1.1-0.5-2-0.5h-3.7V315.2z"/>
		<path class="st3" d="M254.1,304.9v1.2h-5.6l-0.4,3.8h0.1c0.3-0.4,0.7-0.7,1.2-0.9c0.4-0.2,0.9-0.3,1.5-0.3c1.1,0,2,0.3,2.6,1
			c0.7,0.7,1,1.7,1,2.9c0,1.2-0.4,2.1-1.2,2.8c-0.8,0.7-1.7,1-2.8,1c-1,0-1.9-0.3-2.6-0.8c-0.8-0.6-1.2-1.4-1.3-2.5h1.3
			c0.1,0.7,0.4,1.3,0.9,1.7c0.4,0.3,1,0.5,1.7,0.5c0.8,0,1.5-0.3,2-0.8c0.5-0.5,0.8-1.2,0.8-2c0-0.9-0.3-1.6-0.7-2.1
			c-0.5-0.5-1.1-0.8-2-0.8c-0.5,0-1,0.1-1.5,0.4c-0.4,0.2-0.8,0.6-1,1h-1.2l0.6-6.3H254.1z"/>
		<path class="st3" d="M258.2,314.7c0.2,0.2,0.3,0.4,0.3,0.7c0,0.3-0.1,0.5-0.3,0.7c-0.2,0.2-0.4,0.3-0.7,0.3
			c-0.3,0-0.5-0.1-0.7-0.3c-0.2-0.2-0.3-0.4-0.3-0.7c0-0.3,0.1-0.5,0.3-0.7c0.2-0.2,0.4-0.3,0.7-0.3
			C257.8,314.4,258,314.5,258.2,314.7z"/>
		<path class="st3" d="M267.5,306.4c0.6,1,0.9,2.4,0.9,4.1c0,1.7-0.3,3.1-0.9,4.1c-0.7,1.2-1.7,1.8-3.1,1.8c-1.4,0-2.4-0.6-3.1-1.8
			c-0.6-1-0.9-2.4-0.9-4.1c0-1.7,0.3-3.1,0.9-4.1c0.7-1.2,1.7-1.8,3.1-1.8C265.8,304.6,266.8,305.2,267.5,306.4z M262.2,307.4
			c-0.3,0.8-0.5,1.8-0.5,3.2c0,1.3,0.2,2.4,0.5,3.2c0.4,1.1,1.2,1.6,2.2,1.6c1,0,1.8-0.6,2.2-1.6c0.3-0.8,0.5-1.8,0.5-3.2
			c0-1.3-0.2-2.4-0.5-3.2c-0.4-1.1-1.2-1.6-2.2-1.6C263.4,305.7,262.6,306.3,262.2,307.4z"/>
		<path class="st3" d="M283,303.3c2,2.2,4.4,4,7,5.3l-0.6,1.1c-2.7-1.4-4.9-3.2-6.8-5.4c-1.7,2.1-4,3.9-6.9,5.4l-0.6-1.1
			c2.8-1.4,5.2-3.2,7.1-5.3H283z M283.6,307.5v3.6h4.4v1.1h-4.4v3.9h5.5v1.1h-13.3v-1.1h2.4v-6.3h1.1v6.3h3.1v-8.6H283.6z"/>
		<path class="st3" d="M297.4,303.4v12.7h2.3v-12.7h1.2v12.7h4.8v1.1h-14.2v-1.1h4.8v-12.7H297.4z M295.1,313.7L294,314
			c-0.6-2.6-1.3-5-2.2-7.4l1-0.3C293.7,308.4,294.4,310.9,295.1,313.7z M305.2,306.6c-0.6,2.8-1.4,5.2-2.4,7.3l-1-0.4
			c0.9-1.9,1.7-4.3,2.4-7.2L305.2,306.6z"/>
		<path class="st3" d="M312.3,303.4v4.2h0.9v1.1h-3.8v0.8c0,0.5,0,1,0,1.4h3.1v6.8h-1.1v-5.7h-2c-0.2,2.4-0.6,4.2-1.3,5.5l-0.9-0.8
			c0.7-1.5,1.1-4,1.1-7.3v-5.9h1.1v3.9h1.7v-4.2H312.3z M315.2,310.7c-0.1,3-0.6,5.3-1.6,7.1l-0.8-0.8c0.8-1.5,1.2-3.6,1.3-6.3v-6.4
			c2.5,0,4.8-0.4,6.8-1l0.6,1c-1.9,0.5-4,0.9-6.3,1v2.5h5.9v1c-0.4,2.2-1.1,4.1-2.1,5.6c0.8,1.1,1.7,1.9,2.9,2.4l-0.6,1
			c-1.2-0.6-2.2-1.5-3-2.5c-0.9,1-1.9,1.9-3.2,2.5l-0.6-1c1.2-0.7,2.2-1.5,3-2.5c-0.9-1.5-1.6-3.3-1.9-5.5h-0.5V310.7z M318.4,313.4
			c0.8-1.3,1.4-2.8,1.6-4.5h-3.2C317.1,310.7,317.7,312.2,318.4,313.4z"/>
		<path class="st3" d="M337.3,305.7c0.8,0.7,1.3,1.6,1.5,2.8h-1.3c-0.2-0.9-0.6-1.5-1.2-2c-0.6-0.5-1.4-0.7-2.4-0.7
			c-1.2,0-2.2,0.4-3,1.3c-0.7,0.9-1.1,2-1.1,3.5c0,1.4,0.4,2.6,1.1,3.4c0.8,0.9,1.9,1.3,3.4,1.3c0.6,0,1.2-0.1,1.8-0.3
			c0.6-0.2,1-0.4,1.4-0.6v-2.9h-3.6v-1.1h4.9v4.7c-0.5,0.4-1.2,0.8-2,1c-0.8,0.3-1.7,0.4-2.7,0.4c-1.8,0-3.2-0.6-4.2-1.7
			c-0.9-1.1-1.4-2.5-1.4-4.2c0-1.7,0.4-3.1,1.4-4.2c1-1.2,2.3-1.8,4-1.8C335.3,304.6,336.5,305,337.3,305.7z"/>
		<path class="st3" d="M345.8,304.9l4.5,11.4h-1.4l-1.2-3.2h-5.2l-1.2,3.2h-1.4l4.5-11.4H345.8z M347.3,312l-2.2-5.7h-0.1l-2.2,5.7
			H347.3z"/>
	</g>
	<g class="st0">
		<path class="st3" d="M42.1,335.7l1.1,0.2l-0.9,3.2h2.8c0.3-1.2,0.6-2.5,0.8-3.9l1.2,0.1c-0.2,1.3-0.5,2.6-0.8,3.8h7.5v1.1H46
			c-0.2,0.6-0.4,1.2-0.6,1.8H52v1c-0.4,1.4-1.3,2.6-2.6,3.7c1.3,0.8,2.9,1.5,4.7,2.1l-0.6,1.1c-2-0.8-3.7-1.6-5.1-2.4
			c-1.3,0.9-2.9,1.8-4.9,2.5l-0.6-1.1c1.8-0.7,3.3-1.4,4.5-2.2c-1.2-1-2.1-2-2.7-3.1c-1.2,2.5-2.7,4.5-4.5,6l-0.6-1.1
			c2.3-2,4-4.8,5.2-8.4h-4L42.1,335.7z M48.3,346c1.2-0.9,2-1.9,2.4-3h-5.2C46.2,344.1,47.1,345.1,48.3,346z M52.6,337.9l-0.8,0.8
			c-0.7-0.8-1.6-1.7-2.8-2.7l0.8-0.8C50.9,336.1,51.9,337,52.6,337.9z"/>
		<path class="st3" d="M60.8,335.4v4.2h0.9v1.1h-3.8v0.8c0,0.5,0,1,0,1.4H61v6.8h-1.1v-5.7h-2c-0.2,2.4-0.6,4.2-1.3,5.5l-0.9-0.8
			c0.7-1.5,1.1-4,1.1-7.3v-5.9h1.1v3.9h1.7v-4.2H60.8z M63.7,342.7c-0.1,3-0.6,5.3-1.6,7.1l-0.8-0.8c0.8-1.5,1.2-3.6,1.3-6.3v-6.4
			c2.5,0,4.8-0.4,6.8-1l0.6,1c-1.9,0.5-4,0.9-6.3,1v2.5h5.9v1c-0.4,2.2-1.1,4.1-2.1,5.6c0.8,1.1,1.7,1.9,2.9,2.4l-0.6,1
			c-1.2-0.6-2.2-1.5-3-2.5c-0.9,1-1.9,1.9-3.2,2.5l-0.6-1c1.2-0.7,2.2-1.5,3-2.5c-0.9-1.5-1.6-3.3-1.9-5.5h-0.5V342.7z M66.8,345.4
			c0.8-1.3,1.4-2.8,1.6-4.5h-3.2C65.6,342.7,66.1,344.2,66.8,345.4z"/>
	</g>
	<g class="st0">
		<path class="st2" d="M47.7,400c0.7,0.6,1.1,1.5,1.1,2.4c0,0.6-0.1,1.2-0.4,1.7c-0.3,0.5-0.8,0.8-1.4,1.1v0
			c0.6,0.2,1.1,0.5,1.5,1.1c0.5,0.6,0.7,1.3,0.7,2.1c0,1.2-0.4,2.1-1.3,2.8c-0.8,0.7-2,1.1-3.6,1.1c-1.5,0-2.7-0.4-3.6-1.1
			c-0.8-0.7-1.3-1.6-1.3-2.8c0-0.8,0.2-1.5,0.7-2.1c0.4-0.6,0.9-0.9,1.5-1.1v0c-0.6-0.3-1.1-0.6-1.4-1.1c-0.3-0.5-0.4-1-0.4-1.7
			c0-1,0.4-1.8,1.1-2.4c0.8-0.7,1.9-1.1,3.3-1.1C45.8,398.9,46.9,399.3,47.7,400z M42.3,406.7c-0.5,0.4-0.7,1-0.7,1.7
			c0,0.6,0.2,1.2,0.7,1.6c0.5,0.4,1.1,0.6,2,0.6c0.9,0,1.5-0.2,2.1-0.6c0.5-0.4,0.7-0.9,0.7-1.5c0-0.7-0.2-1.2-0.7-1.6
			c-0.5-0.5-1.2-0.7-2.1-0.7C43.5,406.1,42.8,406.3,42.3,406.7z M42.6,401.2c-0.4,0.4-0.6,0.8-0.6,1.3c0,0.6,0.2,1.1,0.5,1.4
			c0.4,0.4,1,0.6,1.9,0.6c0.9,0,1.5-0.2,1.9-0.6c0.3-0.3,0.5-0.8,0.5-1.4c0-0.5-0.2-1-0.6-1.3c-0.5-0.4-1.1-0.6-1.8-0.6
			C43.6,400.6,43,400.8,42.6,401.2z"/>
		<path class="st2" d="M59.6,414l-1.4-1.3c1.1-1.6,1.7-3.6,1.7-6v-8.8h10.9v14.1c0,1.2-0.6,1.8-1.8,1.8h-2.3l-0.5-1.8
			c0.8,0.1,1.5,0.1,2.2,0.1c0.4,0,0.5-0.3,0.5-0.7v-3h-7.2C61.4,410.6,60.7,412.5,59.6,414z M68.8,399.6h-7.1v2.5h7.1V399.6z
			 M61.7,406.5h7.1v-2.7h-7.1V406.5z"/>
	</g>
	<g class="st0">
		<path class="st3" d="M48.6,432.6v1.1h-4V444h-1.3v-10.3h-4v-1.1H48.6z"/>
		<path class="st3" d="M51.6,432.9c0.2,0.2,0.3,0.4,0.3,0.7c0,0.3-0.1,0.5-0.3,0.7c-0.2,0.2-0.4,0.3-0.7,0.3s-0.5-0.1-0.7-0.3
			c-0.2-0.2-0.3-0.4-0.3-0.7c0-0.3,0.1-0.5,0.3-0.7c0.2-0.2,0.4-0.3,0.7-0.3S51.4,432.7,51.6,432.9z M51.6,435.7v8.3h-1.3v-8.3H51.6
			z"/>
		<path class="st3" d="M58.2,432.6c1.8,0,3.2,0.5,4.1,1.6c0.8,1,1.3,2.4,1.3,4.1c0,1.8-0.5,3.2-1.4,4.1c-1,1-2.3,1.6-4.1,1.6h-4
			v-11.4H58.2z M55.5,442.9h2.4c1.5,0,2.6-0.4,3.4-1.2c0.7-0.8,1.1-1.9,1.1-3.4c0-1.5-0.3-2.7-1-3.4c-0.7-0.8-1.8-1.2-3.3-1.2h-2.6
			V442.9z"/>
		<path class="st3" d="M70.6,432.6c1.1,0,1.9,0.3,2.5,0.8c0.6,0.5,0.9,1.2,0.9,2.1c0,0.6-0.2,1.2-0.5,1.7c-0.4,0.4-0.8,0.7-1.4,0.9
			c0.8,0.1,1.3,0.4,1.7,0.9c0.4,0.5,0.6,1.1,0.6,1.9c0,1.1-0.4,2-1.2,2.5c-0.7,0.4-1.6,0.7-2.8,0.7h-5.1v-11.4H70.6z M66.8,437.6
			h3.5c0.8,0,1.4-0.2,1.8-0.5c0.4-0.3,0.6-0.8,0.6-1.5c0-0.6-0.2-1.1-0.6-1.4c-0.4-0.3-1-0.5-1.8-0.5h-3.5V437.6z M66.8,442.9h3.6
			c0.8,0,1.4-0.2,1.9-0.4c0.6-0.4,0.8-0.9,0.8-1.6s-0.3-1.3-0.7-1.6c-0.5-0.4-1.1-0.5-2-0.5h-3.6V442.9z"/>
		<path class="st3" d="M89,445.3c-1,0-1.8-0.1-2.5-0.3c-0.6-0.2-1.2-0.6-1.7-1.2c-0.2-0.3-0.4-0.4-0.6-0.4c-0.4,0-1,0.7-1.9,2.2
			l-0.9-0.8c0.8-1.3,1.6-2.2,2.3-2.4v-4.9h-2.3v-1.1h3.4v6c0.1,0.1,0.3,0.2,0.4,0.4c0.4,0.5,0.8,0.8,1.2,1c0.5,0.2,1.2,0.4,2.1,0.4
			c0.8,0,1.9,0,3.1,0c0.8,0,1.5,0,2.3,0c0.8,0,1.4,0,1.8-0.1l-0.3,1.2h-3.7C90.9,445.3,90,445.3,89,445.3z M85.2,433.7l-0.8,0.8
			c-0.6-0.8-1.5-1.6-2.7-2.5l0.8-0.8C83.6,432,84.5,432.8,85.2,433.7z M88.5,432.6c0.2-0.6,0.4-1.2,0.6-1.8l1.1,0.3
			c-0.2,0.5-0.4,1-0.5,1.5h5.6v1.1h-6.1c-0.5,1.1-1,2-1.6,2.9h2.6v-1.9h1.1v1.9h3.5v1.1h-3.5v1.9h4.2v1.1h-4.2v3h-1.1v-3h-4.4v-1.1
			h4.4v-1.9h-3.7l-0.3-1.1c0.6-0.8,1.2-1.7,1.8-2.9h-2.1v-1.1H88.5z"/>
		<path class="st3" d="M100.9,431.4c-0.7,2-1.5,3.6-2.3,4.8c0.7-0.1,1.3-0.2,2-0.3c0.3-0.5,0.6-1.1,0.9-1.7l1.1,0.4
			c-1.4,2.6-2.5,4.4-3.4,5.5c1-0.2,1.9-0.5,2.9-0.8v1c-1.5,0.5-2.9,0.8-4.3,1l-0.3-1.1c0.2-0.1,0.4-0.2,0.5-0.3
			c0.6-0.6,1.3-1.6,2.1-3c-0.8,0.1-1.6,0.3-2.5,0.4l-0.3-1.1c0.2-0.1,0.3-0.2,0.5-0.4c0.8-1.4,1.5-3.1,2-4.9L100.9,431.4z
			 M102.2,443.3c-1.4,0.6-3,1-4.7,1.4l-0.1-1.1c1.9-0.3,3.5-0.8,4.9-1.4V443.3z M106.9,440.2c0-0.4,0.1-0.7,0.1-1.1v-3h1.1v3
			c0,0.4,0,0.7-0.1,1.1h3.7v1.1h-3.9c-0.1,0.3-0.2,0.5-0.3,0.8c1.6,0.7,3,1.6,4.3,2.6l-0.6,1c-1.3-1.1-2.7-2-4.1-2.7
			c-0.1,0.2-0.2,0.3-0.3,0.4c-0.8,1-2,1.7-3.8,2.3l-0.6-1c1.7-0.5,2.9-1.2,3.6-2.1c0.3-0.4,0.5-0.8,0.7-1.3h-4.2v-1.1H106.9z
			 M105.5,439.2L105,440c-0.8-0.7-1.6-1.2-2.4-1.6l0.5-0.8C104,438,104.8,438.5,105.5,439.2z M106.6,431.9v-1.1h1.1v1.1h3.4v1h-3.4
			v1.5h3.7v0.7c-0.2,1-0.5,2-0.9,3l-1.1-0.3c0.3-0.7,0.6-1.5,0.8-2.4h-7.3v-1.1h3.7V433h-3.2v-1H106.6z M106.6,437.4l-0.5,0.8
			c-0.7-0.6-1.5-1.2-2.2-1.5l0.5-0.8C105.2,436.3,105.9,436.8,106.6,437.4z"/>
		<path class="st3" d="M125.4,433.3c0.7,0.6,1,1.4,1,2.4s-0.4,1.9-1.1,2.7c-0.4,0.4-1.2,1-2.4,1.8c-1.5,1-2.3,1.9-2.5,2.6h6v1.2
			h-7.6c0-1,0.4-2,1.1-2.8c0.4-0.5,1.3-1.2,2.5-2c0.9-0.6,1.5-1.1,1.8-1.4c0.6-0.6,0.9-1.3,0.9-2c0-0.7-0.2-1.2-0.6-1.6
			s-1-0.6-1.7-0.6c-0.8,0-1.4,0.3-1.8,0.8c-0.4,0.5-0.7,1.3-0.7,2.3h-1.3c0-1.3,0.4-2.3,1.1-3.1c0.7-0.8,1.6-1.2,2.8-1.2
			C123.8,432.3,124.7,432.7,125.4,433.3z"/>
		<path class="st3" d="M135.3,434.2c0.6,1,0.9,2.4,0.9,4.1c0,1.7-0.3,3.1-0.9,4.1c-0.7,1.2-1.7,1.8-3.1,1.8c-1.4,0-2.4-0.6-3.1-1.8
			c-0.6-1-0.9-2.4-0.9-4.1c0-1.7,0.3-3.1,0.9-4.1c0.7-1.2,1.7-1.8,3.1-1.8C133.5,432.3,134.6,432.9,135.3,434.2z M130,435.1
			c-0.3,0.8-0.5,1.8-0.5,3.2c0,1.3,0.2,2.4,0.5,3.2c0.4,1.1,1.2,1.6,2.2,1.6s1.8-0.6,2.2-1.6c0.3-0.8,0.5-1.8,0.5-3.2
			c0-1.3-0.2-2.4-0.5-3.2c-0.4-1.1-1.2-1.6-2.2-1.6S130.4,434,130,435.1z"/>
		<path class="st3" d="M150.8,430.9c1.3,2.2,3.6,4.1,6.9,5.8l-0.7,1c-3-1.6-5.3-3.5-6.7-5.8c-1.8,2.5-4,4.5-6.7,5.9l-0.7-1
			c3-1.5,5.3-3.5,6.9-5.9H150.8z M150.9,435.7v9.9h-1.2v-9.9H150.9z"/>
		<path class="st3" d="M161.4,445.6l-0.9-0.8c1.1-1.4,1.6-3.3,1.6-5.5v-7.8h9.2v12.5c0,0.9-0.5,1.4-1.4,1.4h-2.1l-0.3-1.1
			c0.7,0,1.4,0.1,2,0.1c0.4,0,0.6-0.2,0.6-0.7v-3.2h-6.9C163.1,442.6,162.5,444.3,161.4,445.6z M170.2,432.7h-6.8v2.8h6.8V432.7z
			 M163.3,439.4h6.8v-2.9h-6.8V439.4z"/>
		<path class="st3" d="M175.6,440.8l-0.7-0.9c2-1.6,3.6-3.5,4.7-5.7h-4.1v-1.1h4.7c0.3-0.7,0.6-1.5,0.8-2.3l1.2,0.1
			c-0.2,0.7-0.5,1.5-0.8,2.1h8.1v1.1h-8.6c-0.6,1.3-1.4,2.4-2.2,3.5v7.9h-1.1v-6.6C176.9,439.7,176.3,440.3,175.6,440.8z
			 M183.7,438.4v-3h1.2v3h3.8v1.1h-3.8v4.4h4.5v1.1h-10v-1.1h4.3v-4.4h-3.7v-1.1H183.7z"/>
		<path class="st3" d="M194.1,440c-0.5,0.8-1.2,1.6-2,2.2l-0.8-0.6c0.7-0.6,1.3-1.2,1.9-2L194.1,440z M203.9,431.5v4.1h-5v0.9h5.6
			v0.8h-5.6v1h6.5v0.9h-14.1v-0.9h6.5v-1h-5.5v-0.8h5.5v-0.9h-4.9v-4.1H203.9z M197.8,442.1v-1.3h1.1v1.3h4.6v0.9h-4.6v1.3h6.2v1
			h-13.6v-1h6.3V443h-4.5v-0.9H197.8z M197.8,432.4h-4v2.3h2.4c-0.4-0.5-0.8-1.1-1.4-1.6l0.6-0.6c0.5,0.5,1,1.1,1.4,1.6l-0.6,0.6
			h1.6V432.4z M197.1,441.3l-0.9,0.3c-0.2-0.6-0.5-1.2-0.8-1.8l0.9-0.3C196.6,440.2,196.9,440.8,197.1,441.3z M202.8,432.4h-4v2.3
			h1.6l-0.6-0.6c0.5-0.5,0.9-1,1.3-1.5l0.7,0.5c-0.4,0.6-0.9,1.2-1.3,1.6h2.3V432.4z M201.2,441.4l-0.9,0.3
			c-0.3-0.7-0.6-1.3-0.9-1.9l0.9-0.3C200.7,440.2,201,440.8,201.2,441.4z M205.4,441.7l-0.7,0.7c-0.5-0.7-1.3-1.3-2.2-2.1l0.7-0.7
			C204,440.3,204.8,441,205.4,441.7z"/>
		<path class="st3" d="M213.4,436.6c0.2-1.1,0.3-2.3,0.4-3.7H208v-1.1h12.6v1.1H215c-0.1,1.4-0.2,2.6-0.4,3.7h6.6v1.1h-5.9
			c1.1,3,3.2,5.4,6.4,7l-0.7,0.9c-3.3-1.8-5.5-4.3-6.6-7.6c-0.3,1.1-0.6,2-1,2.8c-1.1,1.9-2.9,3.5-5.5,4.9l-0.7-0.9
			c2.4-1.2,4.1-2.7,5.1-4.4c0.4-0.7,0.8-1.6,1-2.6h-5.6v-1.1H213.4z"/>
		<path class="st3" d="M227.4,435.3v2.4h1.8v1h-1.8v2.2c0.8-0.2,1.5-0.3,2.2-0.5v1.1c-0.7,0.2-1.5,0.4-2.2,0.5v3.5h-1.1v-3.3
			c-1,0.2-2,0.3-3.1,0.5l-0.1-1.1c1.2-0.1,2.2-0.3,3.3-0.5v-2.4h-2.7l-0.2-1c0.4-1,0.9-2.2,1.3-3.6H223V433h1.9
			c0.2-0.7,0.3-1.4,0.4-2.1l1.1,0.2c-0.1,0.7-0.3,1.3-0.4,2h3.2v1.1h-3.5c-0.4,1.4-0.8,2.6-1.2,3.6h1.8v-2.4H227.4z M233.8,431
			c0.8,2,2.1,3.7,4,5.1l-0.7,1c-1.7-1.3-3-3-3.8-5c-1,2.2-2.4,3.9-3.9,5.1l-0.6-1c1.7-1.3,3.1-3.1,4-5.2H233.8z M232.2,445.4
			c-1,0-1.5-0.6-1.5-1.7v-6.9h1.1v2.8c1.3-0.6,2.5-1.3,3.7-2.3l0.7,0.9c-1.6,1.1-3,2-4.4,2.5v2.7c0,0.6,0.2,0.8,0.8,0.8h2.4
			c0.4,0,0.7-0.1,0.8-0.4c0.2-0.3,0.4-1.1,0.4-2.5l1.1,0.4c-0.1,1.7-0.4,2.7-0.7,3.1c-0.3,0.3-0.8,0.5-1.4,0.5H232.2z"/>
		<path class="st3" d="M252.9,445.6h-1.2v-0.7h-10.8v0.7h-1.2v-13.9h13.2V445.6z M251.7,443.8v-11h-10.8v11H251.7z M250.3,434.2v1
			h-3.4v2.3h2.9v1h-2.9v2.5h3.8v1.1h-8.8v-1.1h3.8v-2.5h-2.9v-1h2.9v-2.3h-3.4v-1H250.3z M249.8,440.7l-0.9,0.4
			c-0.3-0.7-0.7-1.3-1.1-1.9l0.9-0.3C249.2,439.5,249.5,440,249.8,440.7z"/>
		<path class="st3" d="M263.1,432.6h5.6v1.1h-2.8c-0.2,0.8-0.4,1.7-0.8,2.4h3.9v1.1h-11.5v2.4c-0.1,2.5-0.6,4.5-1.7,6l-0.9-0.8
			c0.9-1.2,1.4-3,1.5-5.2v-3.5h3.3l-0.7-2.4h-2.9v-1.1h5.9c-0.2-0.6-0.5-1.2-0.8-1.6l1.2-0.2C262.6,431.3,262.9,431.9,263.1,432.6z
			 M264,436.1c0.4-0.8,0.6-1.6,0.8-2.4h-4.7l0.7,2.4H264z"/>
		<path class="st3" d="M275.1,438.5c-0.1,0.3-0.2,0.6-0.3,0.9h3.3v0.9c-0.4,1.1-0.9,2-1.8,2.7c0.8,0.4,1.5,0.7,2.2,1.1L278,445
			c-0.7-0.4-1.5-0.8-2.5-1.3c-1.1,0.7-2.4,1.3-4,1.8l-0.5-1c1.3-0.4,2.4-0.8,3.4-1.3c-0.7-0.3-1.4-0.6-2.2-0.9
			c0.4-0.7,0.8-1.4,1.1-2h-1.9v-1h2.3c0.1-0.4,0.3-0.7,0.4-1L275.1,438.5z M274.5,434v-3.1h1.1v3.1h2.9v1h-2.9v0.2
			c0.9,0.4,1.8,0.9,2.7,1.5l-0.6,0.9c-0.8-0.6-1.5-1.2-2.1-1.5v2.1h-1.1v-3c-0.5,1.3-1.5,2.4-2.9,3.3l-0.6-0.9
			c1.2-0.7,2.1-1.5,2.6-2.4h-2.3v-1H274.5z M273.6,433.2l-0.8,0.4c-0.3-0.8-0.7-1.5-1.1-2.1l0.9-0.3
			C273,431.9,273.3,432.5,273.6,433.2z M277.1,440.4h-2.8c-0.3,0.5-0.5,1.1-0.9,1.5c0.6,0.2,1.2,0.4,1.8,0.7
			C276.1,442,276.7,441.2,277.1,440.4z M278.3,431.6c-0.3,0.7-0.7,1.4-1.2,2.1l-0.8-0.4c0.5-0.7,0.9-1.4,1.2-2L278.3,431.6z
			 M280.1,437.1c-0.3,0.7-0.6,1.4-0.9,2l-0.7-0.9c0.9-1.8,1.6-4.2,1.9-7.3l1.1,0.2c-0.1,0.8-0.2,1.6-0.4,2.3h4.2v1.1h-1
			c-0.1,2.7-0.6,5-1.5,6.9c0.8,1.4,1.8,2.5,3,3.3l-0.6,0.9c-1.1-0.8-2.1-1.9-2.9-3.2c-0.8,1.3-1.8,2.4-3,3.2l-0.6-1
			c1.2-0.9,2.2-2,3-3.3C281,440.1,280.5,438.7,280.1,437.1z M280.6,435.3c0.4,1.9,0.9,3.5,1.6,4.8c0.6-1.6,1-3.5,1-5.7h-2.4
			L280.6,435.3z"/>
		<path class="st3" d="M287.6,445.5l-0.2-1.1c0.4,0,0.8,0.1,1.2,0.1c0.4,0,0.6-0.2,0.6-0.7v-3.9c-0.6,0.2-1.3,0.5-1.9,0.7l-0.3-1.1
			c0.7-0.2,1.5-0.4,2.2-0.7v-3.6h-1.9V434h1.9v-3h1.1v3h1.5v1.1h-1.5v3.2c0.5-0.2,1-0.5,1.5-0.7v1.1c-0.5,0.3-1,0.5-1.5,0.7v4.7
			c0,0.9-0.4,1.4-1.3,1.4H287.6z M291.8,445.6l-0.9-0.8c1.1-2.1,1.7-4.9,1.7-8.2v-5h8.4v3.9h-3v1.9h3.4v1h-3.4v2h2.7v5.2h-1.1v-0.8
			h-4.3v0.8h-1.1v-5.2h2.7v-2h-3.3C293.5,441.1,292.9,443.5,291.8,445.6z M293.8,435.5v1.1c0,0.3,0,0.5,0,0.8h3.2v-1.9H293.8z
			 M293.8,432.6v1.8h6.2v-1.8H293.8z M299.7,443.8v-2.4h-4.3v2.4H299.7z"/>
		<path class="st3" d="M311.7,432.3h5.8v1.1h-11.9v3.6c-0.1,3.5-0.6,6.4-1.6,8.5l-0.9-0.8c0.9-1.8,1.3-4.4,1.4-7.6v-4.8h6
			c-0.3-0.5-0.5-0.9-0.8-1.3l1.3-0.2C311.1,431.3,311.4,431.8,311.7,432.3z M310.9,434.2c-0.1,0.4-0.3,0.9-0.4,1.3h6.2v1h-6.6
			c-0.4,1-0.9,1.9-1.4,2.7h3v-1.9h1.2v1.9h3.6v1h-3.6v1.8h4.8v1.1h-4.8v2.5h-1.2v-2.5h-5.8V442h5.8v-1.8h-4.2l-0.2-1
			c0.6-0.8,1.2-1.7,1.7-2.8h-2.4v-1h2.8c0.2-0.5,0.4-1,0.5-1.5L310.9,434.2z"/>
		<path class="st3" d="M322.6,437.3l-0.8,0.8c-0.6-0.7-1.5-1.5-2.5-2.4l0.8-0.8C321,435.7,321.9,436.5,322.6,437.3z M322.7,439.6
			c-0.6,2-1.3,4-2.1,5.8l-1.1-0.5c0.8-1.9,1.5-3.7,2.1-5.7L322.7,439.6z M322.9,433.2l-0.8,0.8c-0.6-0.7-1.4-1.3-2.5-2.1l0.8-0.8
			C321.4,431.8,322.2,432.5,322.9,433.2z M325.6,438.3c-0.1,2.1-0.3,3.6-0.6,4.6c-0.4,1-1,1.9-1.9,2.6l-0.7-0.9
			c0.8-0.6,1.3-1.4,1.6-2.2c0.3-0.8,0.5-2.2,0.5-4.1H325.6z M323.6,436.6c0.1,0,0.2-0.1,0.2-0.1c0.6-0.4,1.4-1.4,2.3-2.9h-2.8v-1
			h4.5c-0.2-0.6-0.5-1.1-0.7-1.6l1.2-0.2c0.3,0.5,0.5,1.2,0.7,1.8h4.2v1h-5.8c-0.8,1.3-1.4,2.3-2,2.9c1.8-0.1,3.7-0.3,5.5-0.5
			c-0.4-0.5-0.7-0.9-1.1-1.4l0.9-0.6c1.1,1.3,1.9,2.4,2.5,3.4l-0.9,0.7c-0.2-0.4-0.5-0.8-0.7-1.2c-2.4,0.3-4.9,0.5-7.7,0.6
			L323.6,436.6z M328.3,438.3v6.9h-1.2v-6.9H328.3z M331.3,445.4c-0.9,0-1.4-0.4-1.4-1.2v-5.8h1.1v5.6c0,0.2,0.1,0.4,0.3,0.4h0.7
			c0.3,0,0.4-0.2,0.5-0.6c0.1-0.4,0.1-1,0.1-1.9l1,0.4c0,1.4-0.1,2.3-0.3,2.6c-0.2,0.3-0.6,0.5-1.2,0.5H331.3z"/>
		<path class="st3" d="M339.6,431.5c-0.9,1.8-2.3,3.3-4.3,4.7l-0.3-1.2c1.7-1.2,2.9-2.5,3.6-4L339.6,431.5z M340.4,435.2
			c-0.5,0.9-1,1.8-1.7,2.6v7.8h-1.1v-6.7c-0.6,0.6-1.3,1.1-2.1,1.7l-0.3-1.2c2-1.4,3.4-2.9,4.3-4.7L340.4,435.2z M349.5,436v1.1
			h-2.6v7c0,0.9-0.5,1.4-1.6,1.4H343l-0.2-1.1c0.8,0,1.5,0.1,2.2,0.1c0.5,0,0.8-0.2,0.8-0.6v-6.7h-5V436H349.5z M348.8,431.9v1.1
			h-7.7v-1.1H348.8z"/>
		<path class="st3" d="M353.6,437.4c-0.1,3.4-0.6,6.1-1.7,8.2l-0.9-0.8c0.9-1.8,1.4-4.2,1.4-7.4v-5.2h6.2c-0.2-0.4-0.4-0.8-0.6-1.1
			l1.2-0.2c0.2,0.4,0.4,0.8,0.6,1.3h5.5v1.1h-11.7v1.8h2.7v-1.3h1.1v1.3h4.2v-1.3h1.1v1.3h2.5v1.1h-2.5v2.5h-6.5v-2.5h-2.7V437.4z
			 M363.9,439.7v0.8c-0.9,1.1-2,2-3.3,2.8c1.4,0.6,3.1,1,5,1.3l-0.5,1c-2.2-0.4-4.1-0.9-5.6-1.7c-1.6,0.8-3.5,1.3-5.6,1.7l-0.5-1
			c1.9-0.3,3.5-0.7,5-1.3c-1.2-0.7-2.2-1.6-2.9-2.6h-1v-1H363.9z M359.4,442.8c1.1-0.6,2.1-1.3,2.9-2.1h-5.7
			C357.4,441.6,358.3,442.3,359.4,442.8z M357.4,437.7h4.2v-1.5h-4.2V437.7z"/>
	</g>
	<g class="st0">
		<path class="st3" d="M40,477.7l-0.3-1.1c0.5,0,0.9,0.1,1.3,0.1c0.4,0,0.7-0.2,0.7-0.6v-3.8c-0.6,0.2-1.2,0.4-1.8,0.6l-0.3-1.2
			c0.7-0.2,1.4-0.4,2-0.6v-3.7H40v-1.1h1.7v-3h1.1v3h1.4v1.1h-1.4v3.3c0.5-0.3,1-0.5,1.6-0.8v1.2c-0.5,0.3-1,0.5-1.6,0.8v4.6
			c0,0.9-0.5,1.3-1.4,1.3H40z M48.4,463.2v14.7h-1.1v-3.5h-3.2v-1.1h3.2v-2.8h-2.3v-1.1h2.3v-2.7h-2.5v-1h2.5v-2.6H48.4z
			 M51.5,463.2v2.6h2.7v1h-2.7v2.7h2.4v1.1h-2.4v2.8h2.8v1.1h-2.8v3.5h-1.1v-14.7H51.5z"/>
		<path class="st3" d="M60.3,463.8c-0.9,1.8-2.3,3.3-4.3,4.7l-0.3-1.2c1.7-1.2,2.9-2.5,3.6-4L60.3,463.8z M61.1,467.5
			c-0.5,0.9-1,1.8-1.7,2.6v7.8h-1.1v-6.7c-0.6,0.6-1.3,1.1-2.1,1.7l-0.3-1.2c2-1.4,3.4-2.9,4.3-4.7L61.1,467.5z M70.2,468.3v1.1
			h-2.6v7c0,0.9-0.5,1.4-1.6,1.4h-2.4l-0.2-1.1c0.8,0,1.5,0.1,2.2,0.1c0.5,0,0.8-0.2,0.8-0.6v-6.7h-5v-1.1H70.2z M69.5,464.2v1.1
			h-7.7v-1.1H69.5z"/>
		<path class="st3" d="M73.9,466.1v-2.9H75v2.9h1.7v1.1H75v1.2c0.6,0.8,1.3,1.6,1.9,2.6l-0.6,1c-0.5-1-0.9-1.7-1.3-2.3v8.2h-1.1v-8
			c-0.5,1.5-1.1,2.9-1.8,4.1l-0.5-1.3c1.1-1.6,1.8-3.4,2.3-5.4h-2v-1.1H73.9z M81.2,470.7c-0.2-0.5-0.4-1-0.6-1.5l1.1-0.2
			c0.2,0.5,0.4,1.1,0.6,1.7h3.8v1.1h-5.3c0,0.5-0.1,1-0.2,1.5h4.4c0,2.3-0.2,3.7-0.7,4.1c-0.2,0.2-0.5,0.3-0.9,0.4
			c-0.3,0-0.7,0.1-1,0.1h-0.9l-0.3-1h1.4c0.4,0,0.7-0.1,0.9-0.3c0.2-0.2,0.3-0.9,0.4-2.2h-3.6c-0.6,1.6-1.6,2.9-3.2,3.7l-0.6-1
			c2-1.1,3-2.8,3.2-5.2h-2.5v-1.1H81.2z M81.1,464.6c-0.2-0.5-0.4-0.9-0.6-1.3l1.2-0.2c0.2,0.4,0.4,0.9,0.6,1.5h3.6v1h-1.6
			c-0.1,0.6-0.3,1.3-0.6,1.9h2.2v2.4h-1.1v-1.4h-6.4v1.5h-1.1v-2.5h2.3c-0.2-0.7-0.4-1.3-0.6-1.9h-1.6v-1H81.1z M83.1,465.6h-3
			c0.2,0.6,0.4,1.2,0.6,1.9h1.9C82.8,466.9,83,466.3,83.1,465.6z"/>
		<path class="st3" d="M94.8,463.2v4.9h5.9v1.1h-5.9v6.9h7.3v1.1H87.9v-1.1h5.8v-12.9H94.8z"/>
		<path class="st3" d="M104,477.7l-0.3-1.1c0.5,0,0.9,0.1,1.3,0.1c0.4,0,0.7-0.2,0.7-0.6v-3.8c-0.6,0.2-1.2,0.4-1.8,0.6l-0.3-1.2
			c0.7-0.2,1.4-0.4,2-0.6v-3.7H104v-1.1h1.7v-3h1.1v3h1.4v1.1h-1.4v3.3c0.5-0.3,1-0.5,1.6-0.8v1.2c-0.5,0.3-1,0.5-1.6,0.8v4.6
			c0,0.9-0.5,1.3-1.4,1.3H104z M112.4,463.2v14.7h-1.1v-3.5h-3.2v-1.1h3.2v-2.8h-2.3v-1.1h2.3v-2.7h-2.5v-1h2.5v-2.6H112.4z
			 M115.5,463.2v2.6h2.7v1h-2.7v2.7h2.4v1.1h-2.4v2.8h2.8v1.1h-2.8v3.5h-1.1v-14.7H115.5z"/>
		<path class="st3" d="M124.3,463.8c-0.9,1.8-2.3,3.3-4.3,4.7l-0.3-1.2c1.7-1.2,2.9-2.5,3.6-4L124.3,463.8z M125.1,467.5
			c-0.5,0.9-1,1.8-1.7,2.6v7.8h-1.1v-6.7c-0.6,0.6-1.3,1.1-2.1,1.7l-0.3-1.2c2-1.4,3.4-2.9,4.3-4.7L125.1,467.5z M134.2,468.3v1.1
			h-2.6v7c0,0.9-0.5,1.4-1.6,1.4h-2.4l-0.2-1.1c0.8,0,1.5,0.1,2.2,0.1c0.5,0,0.8-0.2,0.8-0.6v-6.7h-5v-1.1H134.2z M133.5,464.2v1.1
			h-7.7v-1.1H133.5z"/>
		<path class="st3" d="M136.9,466.9l-1-0.6c1-1,1.8-2,2.2-3.2l1.1,0.2c-0.1,0.4-0.3,0.7-0.4,1h4.3v1h-2.6c0.4,0.5,0.7,0.9,1,1.3
			l-1,0.4c-0.3-0.6-0.7-1.2-1.2-1.7h-1C137.8,465.9,137.4,466.5,136.9,466.9z M137.2,468.5v-1.1h11.7v3.6h-5.2v1.6h5.8
			c0,1.9-0.1,3.1-0.4,3.6c-0.3,0.5-0.8,0.8-1.7,0.8c-0.7,0-1.3,0-2,0l-0.3-1.1c0.7,0,1.4,0,2.1,0c0.5,0,0.8-0.2,0.9-0.5
			c0.1-0.3,0.1-0.9,0.1-1.8h-4.6v4.2h-1.1v-4.2h0c-1.1,1.5-3,2.8-5.9,3.9l-0.7-1.1c2.6-0.8,4.3-1.8,5.3-2.9h-4.4l0.7-3.6h5v-1.5
			H137.2z M138.6,471.1l-0.4,1.6h4.3v-1.6H138.6z M143.7,467l-1-0.6c0.9-1,1.5-2.1,2-3.2l1.1,0.2c-0.1,0.3-0.2,0.6-0.4,0.9h4.7v1
			h-2.9c0.4,0.5,0.7,1,1,1.4l-1,0.4c-0.3-0.6-0.7-1.2-1.2-1.8h-1.1C144.6,465.9,144.2,466.5,143.7,467z M147.7,470v-1.5h-4v1.5
			H147.7z"/>
		<path class="st3" d="M166.2,469.8v1.2h-14.4v-1.2H166.2z"/>
	</g>
	<g class="st0">
		<path class="st1" d="M44.6,587c5.2-4.3,9.3-7.9,12.4-10.6c3-2.8,5.6-5.7,7.6-8.7s3.1-6,3.1-8.9c0-2.2-0.5-3.9-1.5-5.1
			c-1-1.2-2.5-1.8-4.6-1.8c-2,0-3.6,0.8-4.8,2.3c-1.1,1.5-1.7,3.7-1.7,6.4H42c0.1-4.5,1.1-8.3,2.9-11.4c1.8-3,4.3-5.3,7.3-6.7
			c3-1.4,6.4-2.2,10-2.2c6.3,0,11.1,1.6,14.4,4.9c3.2,3.3,4.8,7.5,4.8,12.7c0,5.7-1.9,11-5.8,15.9c-3.9,4.9-8.9,9.6-14.9,14.3h21.6
			v11.1H42.1V589C43.9,587.6,44.8,586.9,44.6,587z"/>
		<path class="st1" d="M93.6,548.3c3.5-5.3,9.3-7.9,17.2-7.9c7.9,0,13.6,2.6,17.2,7.9c3.5,5.3,5.3,12.5,5.3,21.7
			c0,9.3-1.8,16.6-5.3,21.8c-3.5,5.3-9.3,7.9-17.2,7.9c-7.9,0-13.6-2.6-17.2-7.9c-3.5-5.3-5.3-12.6-5.3-21.8
			C88.3,560.8,90.1,553.6,93.6,548.3z M118,557.6c-1.2-2.9-3.6-4.4-7.3-4.4c-3.7,0-6.1,1.5-7.3,4.4c-1.2,2.9-1.8,7.1-1.8,12.4
			c0,3.6,0.2,6.6,0.6,9c0.4,2.4,1.3,4.3,2.6,5.8c1.3,1.5,3.2,2.2,5.8,2.2s4.5-0.7,5.8-2.2c1.3-1.5,2.2-3.4,2.6-5.8
			c0.4-2.4,0.6-5.4,0.6-9C119.8,564.6,119.2,560.5,118,557.6z"/>
		<path class="st1" d="M142.4,587c5.2-4.3,9.3-7.9,12.4-10.6c3-2.8,5.6-5.7,7.6-8.7s3.1-6,3.1-8.9c0-2.2-0.5-3.9-1.5-5.1
			c-1-1.2-2.5-1.8-4.6-1.8c-2,0-3.6,0.8-4.8,2.3c-1.1,1.5-1.7,3.7-1.7,6.4h-13.2c0.1-4.5,1.1-8.3,2.9-11.4c1.8-3,4.3-5.3,7.3-6.7
			c3-1.4,6.4-2.2,10-2.2c6.3,0,11.1,1.6,14.4,4.9c3.2,3.3,4.8,7.5,4.8,12.7c0,5.7-1.9,11-5.8,15.9c-3.9,4.9-8.9,9.6-14.9,14.3h21.6
			v11.1H140V589C141.8,587.6,142.6,586.9,142.4,587z"/>
		<path class="st1" d="M191.4,548.3c3.5-5.3,9.3-7.9,17.2-7.9c7.9,0,13.6,2.6,17.2,7.9c3.5,5.3,5.3,12.5,5.3,21.7
			c0,9.3-1.8,16.6-5.3,21.8c-3.5,5.3-9.3,7.9-17.2,7.9c-7.9,0-13.6-2.6-17.2-7.9c-3.5-5.3-5.3-12.6-5.3-21.8
			C186.1,560.8,187.9,553.6,191.4,548.3z M215.9,557.6c-1.2-2.9-3.6-4.4-7.3-4.4c-3.7,0-6.1,1.5-7.3,4.4c-1.2,2.9-1.8,7.1-1.8,12.4
			c0,3.6,0.2,6.6,0.6,9c0.4,2.4,1.3,4.3,2.6,5.8c1.3,1.5,3.2,2.2,5.8,2.2c2.6,0,4.5-0.7,5.8-2.2c1.3-1.5,2.2-3.4,2.6-5.8
			c0.4-2.4,0.6-5.4,0.6-9C217.6,564.6,217.1,560.5,215.9,557.6z"/>
	</g>
	<g class="st0">
		<path class="st1" d="M44.6,1065c5.2-4.3,9.3-7.9,12.4-10.6c3-2.8,5.6-5.7,7.6-8.7s3.1-6,3.1-8.9c0-2.2-0.5-3.9-1.5-5.1
			c-1-1.2-2.5-1.8-4.6-1.8c-2,0-3.6,0.8-4.8,2.3c-1.1,1.5-1.7,3.7-1.7,6.4H42c0.1-4.5,1.1-8.3,2.9-11.4c1.8-3,4.3-5.3,7.3-6.7
			c3-1.4,6.4-2.2,10-2.2c6.3,0,11.1,1.6,14.4,4.9c3.2,3.3,4.8,7.5,4.8,12.7c0,5.7-1.9,11-5.8,15.9c-3.9,4.9-8.9,9.6-14.9,14.3h21.6
			v11.1H42.1V1067C43.9,1065.6,44.8,1064.9,44.6,1065z"/>
		<path class="st1" d="M93.6,1026.3c3.5-5.3,9.3-7.9,17.2-7.9c7.9,0,13.6,2.6,17.2,7.9c3.5,5.3,5.3,12.5,5.3,21.7
			c0,9.3-1.8,16.6-5.3,21.8c-3.5,5.3-9.3,7.9-17.2,7.9c-7.9,0-13.6-2.6-17.2-7.9c-3.5-5.3-5.3-12.6-5.3-21.8
			C88.3,1038.8,90.1,1031.6,93.6,1026.3z M118,1035.6c-1.2-2.9-3.6-4.4-7.3-4.4c-3.7,0-6.1,1.5-7.3,4.4c-1.2,2.9-1.8,7.1-1.8,12.4
			c0,3.6,0.2,6.6,0.6,9c0.4,2.4,1.3,4.3,2.6,5.8c1.3,1.5,3.2,2.2,5.8,2.2s4.5-0.7,5.8-2.2c1.3-1.5,2.2-3.4,2.6-5.8
			c0.4-2.4,0.6-5.4,0.6-9C119.8,1042.6,119.2,1038.5,118,1035.6z"/>
		<path class="st1" d="M139,1032.3v-12.7h22.2v58.4h-14.2v-45.7H139z"/>
		<path class="st1" d="M192.6,1067.2c2.8,0,4.8-1.3,6-3.8c1.2-2.5,1.8-6.6,1.8-12.2c-1.2,1.7-2.8,2.9-4.8,3.8
			c-2,0.9-4.3,1.4-6.8,1.4c-3.4,0-6.5-0.7-9.1-2.1c-2.7-1.4-4.8-3.5-6.3-6.3s-2.3-6.2-2.3-10.2c0-3.9,0.8-7.4,2.4-10.3
			c1.6-2.9,3.9-5.2,7-6.8c3-1.6,6.6-2.4,10.7-2.4c7.9,0,13.4,2.5,16.6,7.4c3.1,4.9,4.7,12.1,4.7,21.7c0,6.9-0.6,12.7-1.9,17.2
			c-1.3,4.5-3.4,7.9-6.3,10.3c-3,2.3-7,3.5-12.1,3.5c-4.1,0-7.5-0.8-10.4-2.4c-2.9-1.6-5-3.7-6.6-6.3c-1.5-2.6-2.4-5.5-2.6-8.6h12.6
			C186,1065.1,188.5,1067.2,192.6,1067.2z M197.2,1043.6c1.3-1.4,2-3.2,2-5.6c0-2.6-0.7-4.5-2.1-5.9c-1.4-1.4-3.3-2.1-5.6-2.1
			c-2.3,0-4.2,0.7-5.6,2.1c-1.4,1.4-2,3.3-2,5.8c0,2.3,0.7,4.1,2,5.6s3.3,2.1,5.9,2.1C194.1,1045.6,195.9,1044.9,197.2,1043.6z"/>
	</g>
	<g class="st0">
		<path class="st2" d="M48.5,652.1v1.9h-6.1l-0.4,3.5H42c0.4-0.4,0.8-0.7,1.4-0.9c0.5-0.2,1-0.3,1.6-0.3c1.2,0,2.2,0.4,3,1.2
			c0.8,0.8,1.2,1.9,1.2,3.3c0,1.3-0.5,2.4-1.5,3.3c-0.9,0.8-2,1.1-3.3,1.1c-1.2,0-2.2-0.3-3-1c-0.9-0.7-1.4-1.7-1.5-2.8h2.1
			c0.1,0.7,0.4,1.2,0.8,1.6c0.4,0.3,1,0.5,1.7,0.5c0.8,0,1.4-0.2,1.9-0.7c0.5-0.5,0.8-1.1,0.8-1.9c0-0.9-0.2-1.5-0.7-2
			c-0.4-0.5-1.1-0.7-1.9-0.7c-0.6,0-1,0.1-1.4,0.3c-0.4,0.2-0.8,0.5-1,1h-2l0.7-7.2H48.5z"/>
		<path class="st2" d="M59.6,667l-1.4-1.3c1.1-1.6,1.7-3.6,1.7-6v-8.8h10.9v14.1c0,1.2-0.6,1.8-1.8,1.8h-2.3l-0.5-1.8
			c0.8,0.1,1.5,0.1,2.2,0.1c0.4,0,0.5-0.3,0.5-0.7v-3h-7.2C61.4,663.6,60.7,665.5,59.6,667z M68.8,652.6h-7.1v2.5h7.1V652.6z
			 M61.7,659.5h7.1v-2.7h-7.1V659.5z"/>
	</g>
	<g class="st0">
		<path class="st3" d="M48.6,685.6v1.1h-4V697h-1.3v-10.3h-4v-1.1H48.6z"/>
		<path class="st3" d="M51.6,685.9c0.2,0.2,0.3,0.4,0.3,0.7c0,0.3-0.1,0.5-0.3,0.7c-0.2,0.2-0.4,0.3-0.7,0.3s-0.5-0.1-0.7-0.3
			c-0.2-0.2-0.3-0.4-0.3-0.7c0-0.3,0.1-0.5,0.3-0.7c0.2-0.2,0.4-0.3,0.7-0.3S51.4,685.7,51.6,685.9z M51.6,688.7v8.3h-1.3v-8.3H51.6
			z"/>
		<path class="st3" d="M58.2,685.6c1.8,0,3.2,0.5,4.1,1.6c0.8,1,1.3,2.4,1.3,4.1c0,1.8-0.5,3.2-1.4,4.1c-1,1-2.3,1.6-4.1,1.6h-4
			v-11.4H58.2z M55.5,695.9h2.4c1.5,0,2.6-0.4,3.4-1.2c0.7-0.8,1.1-1.9,1.1-3.4c0-1.5-0.3-2.7-1-3.4c-0.7-0.8-1.8-1.2-3.3-1.2h-2.6
			V695.9z"/>
		<path class="st3" d="M70.6,685.6c1.1,0,1.9,0.3,2.5,0.8c0.6,0.5,0.9,1.2,0.9,2.1c0,0.6-0.2,1.2-0.5,1.7c-0.4,0.4-0.8,0.7-1.4,0.9
			c0.8,0.1,1.3,0.4,1.7,0.9c0.4,0.5,0.6,1.1,0.6,1.9c0,1.1-0.4,2-1.2,2.5c-0.7,0.4-1.6,0.7-2.8,0.7h-5.1v-11.4H70.6z M66.8,690.6
			h3.5c0.8,0,1.4-0.2,1.8-0.5c0.4-0.3,0.6-0.8,0.6-1.5c0-0.6-0.2-1.1-0.6-1.4c-0.4-0.3-1-0.5-1.8-0.5h-3.5V690.6z M66.8,695.9h3.6
			c0.8,0,1.4-0.2,1.9-0.4c0.6-0.4,0.8-0.9,0.8-1.6s-0.3-1.3-0.7-1.6c-0.5-0.4-1.1-0.5-2-0.5h-3.6V695.9z"/>
		<path class="st3" d="M87.8,685.6v7.8h1.9v1.1h-1.9v2.6h-1.2v-2.6h-5.7v-1.2l5.8-7.6H87.8z M81.9,693.3h4.6v-6.1h0L81.9,693.3z"/>
		<path class="st3" d="M92.9,695.4c0.2,0.2,0.3,0.4,0.3,0.7c0,0.3-0.1,0.5-0.3,0.7c-0.2,0.2-0.4,0.3-0.7,0.3c-0.3,0-0.5-0.1-0.7-0.3
			c-0.2-0.2-0.3-0.4-0.3-0.7c0-0.3,0.1-0.5,0.3-0.7c0.2-0.2,0.4-0.3,0.7-0.3C92.4,695.1,92.7,695.2,92.9,695.4z"/>
		<path class="st3" d="M102.2,687.2c0.6,1,0.9,2.4,0.9,4.1c0,1.7-0.3,3.1-0.9,4.1c-0.7,1.2-1.7,1.8-3.1,1.8c-1.4,0-2.4-0.6-3.1-1.8
			c-0.6-1-0.9-2.4-0.9-4.1c0-1.7,0.3-3.1,0.9-4.1c0.7-1.2,1.7-1.8,3.1-1.8C100.4,685.3,101.5,685.9,102.2,687.2z M96.9,688.1
			c-0.3,0.8-0.5,1.8-0.5,3.2c0,1.3,0.2,2.4,0.5,3.2c0.4,1.1,1.2,1.6,2.2,1.6s1.8-0.6,2.2-1.6c0.3-0.8,0.5-1.8,0.5-3.2
			c0-1.3-0.2-2.4-0.5-3.2c-0.4-1.1-1.2-1.6-2.2-1.6S97.3,687,96.9,688.1z"/>
		<path class="st3" d="M117.6,684c2,2.2,4.4,4,7,5.3l-0.6,1.1c-2.7-1.4-4.9-3.2-6.8-5.4c-1.7,2.1-4,3.9-6.9,5.4l-0.6-1.1
			c2.8-1.4,5.2-3.2,7.1-5.3H117.6z M118.3,688.2v3.6h4.4v1.1h-4.4v3.9h5.5v1.1h-13.3v-1.1h2.4v-6.3h1.1v6.3h3.1v-8.6H118.3z"/>
		<path class="st3" d="M132.1,684.1v12.7h2.3v-12.7h1.2v12.7h4.8v1.1h-14.2v-1.1h4.8v-12.7H132.1z M129.7,694.4l-1.1,0.3
			c-0.6-2.6-1.3-5-2.2-7.4l1-0.3C128.3,689.1,129.1,691.6,129.7,694.4z M139.9,687.3c-0.6,2.8-1.4,5.2-2.4,7.3l-1-0.4
			c0.9-1.9,1.7-4.3,2.4-7.2L139.9,687.3z"/>
		<path class="st3" d="M147,684.1v4.2h0.9v1.1h-3.8v0.8c0,0.5,0,1,0,1.4h3.1v6.8H146v-5.7h-2c-0.2,2.4-0.6,4.2-1.3,5.5l-0.9-0.8
			c0.7-1.5,1.1-4,1.1-7.3v-5.9h1.1v3.9h1.7v-4.2H147z M149.9,691.4c-0.1,3-0.6,5.3-1.6,7.1l-0.8-0.8c0.8-1.5,1.2-3.6,1.3-6.3v-6.4
			c2.5,0,4.8-0.4,6.8-1l0.6,1c-1.9,0.5-4,0.9-6.3,1v2.5h5.9v1c-0.4,2.2-1.1,4.1-2.1,5.6c0.8,1.1,1.7,1.9,2.9,2.4l-0.6,1
			c-1.2-0.6-2.2-1.5-3-2.5c-0.9,1-1.9,1.9-3.2,2.5l-0.6-1c1.2-0.7,2.2-1.5,3-2.5c-0.9-1.5-1.6-3.3-1.9-5.5h-0.5V691.4z M153,694.1
			c0.8-1.3,1.4-2.8,1.6-4.5h-3.2C151.8,691.4,152.3,692.9,153,694.1z"/>
		<path class="st3" d="M172,686.4c0.8,0.7,1.3,1.6,1.5,2.8h-1.3c-0.2-0.9-0.6-1.5-1.2-2c-0.6-0.5-1.4-0.7-2.4-0.7
			c-1.2,0-2.2,0.4-3,1.3c-0.7,0.9-1.1,2-1.1,3.5c0,1.4,0.4,2.6,1.1,3.4c0.8,0.9,1.9,1.3,3.4,1.3c0.6,0,1.2-0.1,1.8-0.3
			c0.6-0.2,1-0.4,1.4-0.6v-2.9h-3.6v-1.1h4.9v4.7c-0.5,0.4-1.2,0.8-2,1c-0.8,0.3-1.7,0.4-2.7,0.4c-1.8,0-3.2-0.6-4.2-1.7
			c-0.9-1.1-1.4-2.5-1.4-4.2c0-1.7,0.4-3.1,1.4-4.2c1-1.2,2.3-1.8,4-1.8C170,685.3,171.1,685.7,172,686.4z"/>
		<path class="st3" d="M180.5,685.6L185,697h-1.4l-1.2-3.2h-5.2l-1.2,3.2h-1.4l4.5-11.4H180.5z M182,692.7l-2.2-5.7h-0.1l-2.2,5.7
			H182z"/>
		<path class="st3" d="M193.5,684.4l1.1,0.2l-0.9,3.2h2.8c0.3-1.2,0.6-2.5,0.8-3.9l1.2,0.1c-0.2,1.3-0.5,2.6-0.8,3.8h7.5v1.1h-7.8
			c-0.2,0.6-0.4,1.2-0.6,1.8h6.5v1c-0.4,1.4-1.3,2.6-2.6,3.7c1.3,0.8,2.9,1.5,4.7,2.1l-0.6,1.1c-2-0.8-3.7-1.6-5.1-2.4
			c-1.3,0.9-2.9,1.8-4.9,2.5l-0.6-1.1c1.8-0.7,3.3-1.4,4.5-2.2c-1.2-1-2.1-2-2.7-3.1c-1.2,2.5-2.7,4.5-4.5,6l-0.6-1.1
			c2.3-2,4-4.8,5.2-8.4h-4L193.5,684.4z M199.7,694.7c1.2-0.9,2-1.9,2.4-3H197C197.5,692.8,198.4,693.8,199.7,694.7z M204,686.6
			l-0.8,0.8c-0.7-0.8-1.6-1.7-2.8-2.7l0.8-0.8C202.3,684.8,203.2,685.7,204,686.6z"/>
		<path class="st3" d="M212.1,684.1v4.2h0.9v1.1h-3.8v0.8c0,0.5,0,1,0,1.4h3.1v6.8h-1.1v-5.7h-2c-0.2,2.4-0.6,4.2-1.3,5.5l-0.9-0.8
			c0.7-1.5,1.1-4,1.1-7.3v-5.9h1.1v3.9h1.7v-4.2H212.1z M215,691.4c-0.1,3-0.6,5.3-1.6,7.1l-0.8-0.8c0.8-1.5,1.2-3.6,1.3-6.3v-6.4
			c2.5,0,4.8-0.4,6.8-1l0.6,1c-1.9,0.5-4,0.9-6.3,1v2.5h5.9v1c-0.4,2.2-1.1,4.1-2.1,5.6c0.8,1.1,1.7,1.9,2.9,2.4l-0.6,1
			c-1.2-0.6-2.2-1.5-3-2.5c-0.9,1-1.9,1.9-3.2,2.5l-0.6-1c1.2-0.7,2.2-1.5,3-2.5c-0.9-1.5-1.6-3.3-1.9-5.5H215V691.4z M218.2,694.1
			c0.8-1.3,1.4-2.8,1.6-4.5h-3.2C216.9,691.4,217.5,692.9,218.2,694.1z"/>
	</g>
	<g class="st0">
		<path class="st2" d="M47.9,751.6c0.8,1.1,1.2,2.6,1.2,4.6c0,2.1-0.5,3.8-1.3,5.1c-0.9,1.3-2.1,1.9-3.5,1.9c-2.5,0-4-1.2-4.3-3.5
			H42c0.3,1.2,1,1.8,2.2,1.8c0.8,0,1.5-0.4,2.1-1.3c0.5-0.8,0.7-1.8,0.7-3v-0.2H47c-0.4,0.5-0.8,0.9-1.4,1.2
			c-0.5,0.2-1.1,0.4-1.7,0.4c-1.3,0-2.3-0.4-3-1.2c-0.8-0.8-1.1-1.8-1.1-3.1c0-1.3,0.4-2.4,1.3-3.2c0.9-0.8,1.9-1.3,3.2-1.3
			C45.8,749.9,47,750.5,47.9,751.6z M42.5,752.4c-0.5,0.5-0.7,1.2-0.7,1.9c0,0.8,0.2,1.4,0.7,1.9c0.4,0.5,1,0.7,1.8,0.7
			c0.8,0,1.4-0.3,1.8-0.7c0.4-0.5,0.7-1.1,0.7-2s-0.2-1.5-0.7-1.9c-0.5-0.5-1.1-0.7-1.8-0.7C43.6,751.6,43,751.9,42.5,752.4z"/>
		<path class="st2" d="M59.6,765l-1.4-1.3c1.1-1.6,1.7-3.6,1.7-6v-8.8h10.9v14.1c0,1.2-0.6,1.8-1.8,1.8h-2.3l-0.5-1.8
			c0.8,0.1,1.5,0.1,2.2,0.1c0.4,0,0.5-0.3,0.5-0.7v-3h-7.2C61.4,761.6,60.7,763.5,59.6,765z M68.8,750.6h-7.1v2.5h7.1V750.6z
			 M61.7,757.5h7.1v-2.7h-7.1V757.5z"/>
	</g>
	<g class="st0">
		<path class="st3" d="M48.6,783.6v1.1h-4V795h-1.3v-10.3h-4v-1.1H48.6z"/>
		<path class="st3" d="M51.6,783.9c0.2,0.2,0.3,0.4,0.3,0.7c0,0.3-0.1,0.5-0.3,0.7c-0.2,0.2-0.4,0.3-0.7,0.3s-0.5-0.1-0.7-0.3
			c-0.2-0.2-0.3-0.4-0.3-0.7c0-0.3,0.1-0.5,0.3-0.7c0.2-0.2,0.4-0.3,0.7-0.3S51.4,783.7,51.6,783.9z M51.6,786.7v8.3h-1.3v-8.3H51.6
			z"/>
		<path class="st3" d="M58.2,783.6c1.8,0,3.2,0.5,4.1,1.6c0.8,1,1.3,2.4,1.3,4.1c0,1.8-0.5,3.2-1.4,4.1c-1,1-2.3,1.6-4.1,1.6h-4
			v-11.4H58.2z M55.5,793.9h2.4c1.5,0,2.6-0.4,3.4-1.2c0.7-0.8,1.1-1.9,1.1-3.4c0-1.5-0.3-2.7-1-3.4c-0.7-0.8-1.8-1.2-3.3-1.2h-2.6
			V793.9z"/>
		<path class="st3" d="M70.6,783.6c1.1,0,1.9,0.3,2.5,0.8c0.6,0.5,0.9,1.2,0.9,2.1c0,0.6-0.2,1.2-0.5,1.7c-0.4,0.4-0.8,0.7-1.4,0.9
			c0.8,0.1,1.3,0.4,1.7,0.9c0.4,0.5,0.6,1.1,0.6,1.9c0,1.1-0.4,2-1.2,2.5c-0.7,0.4-1.6,0.7-2.8,0.7h-5.1v-11.4H70.6z M66.8,788.6
			h3.5c0.8,0,1.4-0.2,1.8-0.5c0.4-0.3,0.6-0.8,0.6-1.5c0-0.6-0.2-1.1-0.6-1.4c-0.4-0.3-1-0.5-1.8-0.5h-3.5V788.6z M66.8,793.9h3.6
			c0.8,0,1.4-0.2,1.9-0.4c0.6-0.4,0.8-0.9,0.8-1.6s-0.3-1.3-0.7-1.6c-0.5-0.4-1.1-0.5-2-0.5h-3.6V793.9z"/>
		<path class="st3" d="M89,796.3c-1,0-1.9-0.1-2.5-0.3c-0.6-0.2-1.2-0.6-1.7-1.2c-0.2-0.3-0.4-0.4-0.6-0.4c-0.4,0-1,0.7-1.9,2.2
			l-0.9-0.8c0.8-1.3,1.6-2.2,2.3-2.4v-4.9h-2.3v-1.1h3.3v6c0.1,0.1,0.3,0.2,0.4,0.4c0.4,0.5,0.8,0.8,1.2,1c0.5,0.2,1.2,0.4,2.2,0.4
			c0.8,0,1.9,0,3.2,0c0.7,0,1.5,0,2.3,0c0.8,0,1.4,0,1.8-0.1l-0.3,1.2h-3.6C91,796.3,90,796.3,89,796.3z M85.3,784.7l-0.8,0.8
			c-0.7-0.8-1.6-1.6-2.8-2.5l0.8-0.8C83.6,783,84.5,783.8,85.3,784.7z M90.8,784.9c0.8-0.4,1.6-0.9,2.3-1.5H86v-1h8.7v0.8
			c-1,0.8-2,1.6-3.1,2.2l0.3,0.2H95v7.2c0,0.8-0.4,1.2-1.3,1.2h-1.3l-0.3-1l1.3,0c0.4,0,0.6-0.2,0.6-0.5v-1.2h-2.7v2.8h-1.1v-2.8
			h-2.7v2.8h-1.1v-8.5h4c-0.6-0.4-1.3-0.9-2.1-1.3l0.7-0.7C89.6,784.1,90.3,784.5,90.8,784.9z M90.1,786.6h-2.7v1.4h2.7V786.6z
			 M87.4,790.5h2.7V789h-2.7V790.5z M93.9,786.6h-2.7v1.4h2.7V786.6z M91.2,790.5h2.7V789h-2.7V790.5z"/>
		<path class="st3" d="M105.2,796.3c-1.1,0-2-0.1-2.6-0.3c-0.7-0.2-1.3-0.6-1.8-1.2c-0.2-0.3-0.4-0.4-0.7-0.4c-0.4,0-1,0.7-1.9,2.2
			l-0.9-0.8c0.9-1.4,1.6-2.2,2.3-2.5v-4.8h-2.3v-1.1h3.4v6c0.1,0.1,0.3,0.2,0.4,0.4c0.4,0.4,0.8,0.8,1.3,1c0.5,0.2,1.3,0.3,2.3,0.4
			c0.9,0,2,0,3.3,0c0.7,0,1.4,0,2.1,0c0.7,0,1.3,0,1.7-0.1l-0.3,1.2h-3.4C107.2,796.3,106.3,796.3,105.2,796.3z M101.2,784.7
			l-0.8,0.8c-0.7-0.8-1.6-1.7-2.7-2.6l0.8-0.8C99.5,783,100.4,783.8,101.2,784.7z M105.4,794.2l-0.3-1.1c0.7,0,1.5,0.1,2.1,0.1
			c0.4,0,0.7-0.2,0.7-0.7v-6.8h-6.1v-1.1h6.1V782h1.2v2.6h2.4v1.1h-2.4v7.1c0,0.9-0.5,1.4-1.5,1.4H105.4z M106,790.2l-0.9,0.6
			c-0.6-1-1.3-2-2.3-3.2l0.9-0.6C104.7,788.3,105.5,789.3,106,790.2z"/>
		<path class="st3" d="M114.4,784.3v-1.1h12.2v1.1h-5.5v10.1h6.5v1.1h-14.3v-1.1h6.6v-10.1H114.4z"/>
		<path class="st3" d="M129.3,789.7l-0.4-1.2c1.6-1.9,2.7-4.2,3.4-6.7l1.1,0.5c-0.4,1.2-0.8,2.4-1.4,3.5v10.9h-1.1v-9
			C130.4,788.3,129.9,789,129.3,789.7z M138.3,784c-0.2-0.6-0.5-1.2-0.8-1.9l1.1-0.3c0.3,0.7,0.6,1.3,0.8,1.9l-0.6,0.2h5v1.1h-10.4
			V784H138.3z M142.7,796.6h-1.1v-0.9h-5.9v0.9h-1.1V791h8.2V796.6z M142.4,786.4v1h-7.6v-1H142.4z M142.4,788.7v1.1h-7.6v-1.1
			H142.4z M141.6,794.6v-2.5h-5.9v2.5H141.6z"/>
		<path class="st3" d="M148.5,787.9h1.7c0.5-0.9,0.9-1.8,1.2-2.8l1.1,0.4c-0.3,0.9-0.7,1.7-1.1,2.4h1.9v1.1h-8v-1.1h2.2
			c-0.3-0.8-0.6-1.6-1-2.3l1.1-0.4C147.8,785.9,148.2,786.8,148.5,787.9z M148.8,783.5c-0.2-0.5-0.4-1-0.6-1.4l1.2-0.2
			c0.2,0.5,0.4,1,0.5,1.6h3.3v1.1h-7.6v-1.1H148.8z M152.6,796.5h-1.1v-0.9h-4.1v0.9h-1.1v-6h6.4V796.5z M151.4,794.5v-3h-4.1v3
			H151.4z M159.3,782.6v0.9c-0.5,1.7-1,3.2-1.6,4.7c1.2,1.5,1.8,2.8,1.8,3.7c0,1-0.2,1.7-0.6,2.1c-0.4,0.4-1.3,0.6-2.6,0.6l-0.4-1.2
			c0.4,0,0.8,0.1,1.1,0.1c0.6,0,0.9-0.1,1.1-0.3c0.2-0.2,0.2-0.6,0.3-1.2c0-0.9-0.7-2.2-1.9-3.7c0.5-1.3,1.1-2.8,1.6-4.5h-2.9v12.9
			H154v-14H159.3z"/>
		<path class="st3" d="M175.6,791l-0.5,1c-0.9-0.3-1.6-0.6-2.3-0.9v3.1h-1.1v-2.8h-6.4v2.8h-1.1v-3.2c-0.7,0.4-1.5,0.7-2.4,1l-0.6-1
			c1.7-0.5,3-1,3.9-1.7h-3.5v-0.9h4.4v-1h-2v-0.8h2v-1h-2.4v-0.9h2.4v-0.9h-3v1.6H162v-2.6h6c-0.2-0.3-0.4-0.6-0.6-0.9l1.2-0.2
			c0.2,0.3,0.4,0.7,0.6,1.1h5.8v2.6h-1.1v-1.6h-3v0.9h2.4v0.9h-2.4v1h2.1v0.8h-2.1v1h4.4v0.9h-3.6C172.6,790,173.9,790.5,175.6,791z
			 M168.9,791.9c-0.2,1.7-0.6,2.8-1.2,3.4c-0.7,0.7-2.3,1.2-4.8,1.4l-0.4-1c2.2-0.1,3.6-0.5,4.3-1.1c0.6-0.6,1-1.5,1.1-2.8
			L168.9,791.9z M170.5,789.3h-4.1c-0.4,0.4-0.8,0.7-1.2,1.1h6.6C171.2,790,170.8,789.7,170.5,789.3z M167.2,783.8v0.9h2.6v-0.9
			H167.2z M169.7,785.6h-2.6v1h2.6V785.6z M169.7,788.4v-1h-2.6v1H169.7z M174.3,795.8l-0.6,0.9c-1.6-0.8-3.2-1.5-4.8-2l0.6-0.8
			C171.3,794.4,172.9,795.1,174.3,795.8z"/>
		<path class="st3" d="M179.3,787.9v-1.1h10.4v1.1h-4.7v2.8h4.1v1.1h-4.1v3.4h6.1v1.1h-13.3v-1.1h6.1v-3.4h-4.2v-1.1h4.2v-2.8H179.3
			z M190.9,786.7h-1.2v-2h-10.6v2.1h-1.2v-3.2h6c-0.2-0.5-0.4-1-0.7-1.4l1.2-0.2c0.2,0.5,0.4,1,0.6,1.6h5.7V786.7z M189.6,794.4
			l-0.9,0.6c-0.4-0.7-1-1.5-1.8-2.4l0.9-0.5C188.6,793,189.2,793.8,189.6,794.4z"/>
		<path class="st3" d="M193.5,783.9v-1.1h5.5v1.1h-2.5c-0.2,1.3-0.6,2.5-1,3.6h3v7.3h-2.8v1.3h-1.1v-6.7c-0.3,0.6-0.7,1.2-1.1,1.7
			l-0.6-1c1.2-1.8,2.1-3.9,2.5-6.2H193.5z M197.4,793.8v-5.2h-1.7v5.2H197.4z M202.3,789.3c-0.1,3.3-1.1,5.7-2.9,7.3l-0.8-0.8
			c1.6-1.4,2.5-3.5,2.6-6.5h-1.7v-1.1h1.8v-4.4h-1.4v-1.1h7.6v1.1h-1.5v4.4h1.9v1.1h-1.9v7.2h-1.1v-7.2H202.3z M202.3,783.8v4.4h2.5
			v-4.4H202.3z"/>
		<path class="st3" d="M215.9,787.8v1.2l0,0.9h4.1v5.1c0,0.3,0.2,0.4,0.5,0.4h1.2c0.4,0,0.6-0.2,0.7-0.6c0.1-0.6,0.1-1.3,0.1-2
			l1.1,0.3c-0.1,1.3-0.2,2.1-0.3,2.4c-0.2,0.7-0.7,1-1.6,1h-1.4c-1,0-1.4-0.4-1.4-1.3V791h-3.2c-0.2,1.2-0.7,2.1-1.3,2.9
			c-0.9,1.1-2.4,2-4.4,2.7l-0.6-1c2-0.6,3.4-1.4,4.2-2.4c0.4-0.6,0.7-1.4,0.9-2.2h-4v-1.1h4.2c0-0.3,0-0.6,0.1-0.9v-1.2H215.9z
			 M217.1,783.4h5.9v3.2h-1.2v-2.1H211v2.1h-1.2v-3.2h6c-0.2-0.5-0.4-1-0.7-1.4l1.3-0.2C216.7,782.3,216.9,782.9,217.1,783.4z
			 M215.5,786c-1.3,1.2-3,2.3-4.9,3.1l-0.5-1c1.9-0.7,3.5-1.7,4.8-2.9L215.5,786z M222.6,788.3l-0.6,1c-1.5-1.3-3-2.3-4.6-3.1
			l0.6-0.9C219.7,786.1,221.2,787.1,222.6,788.3z"/>
		<path class="st3" d="M227.3,791.4c-0.2,2-0.7,3.7-1.5,5.2l-0.8-0.8c0.9-1.6,1.3-3.6,1.3-5.8v-6.6c1.9-0.2,3.4-0.7,4.5-1.3l0.8,0.9
			c-1.2,0.6-2.6,1.1-4.2,1.3v1.9h4.1v5.3H227.3z M227.4,789.9c0,0.1,0,0.2,0,0.4h3.1v-3.2h-3V789.9z M233.9,790.4
			c0,2.8-0.4,4.8-1.1,6.2l-1-0.5c0.7-1.4,1.1-3.3,1.1-5.7v-7.2c2.3-0.1,4.2-0.5,5.7-1.1l0.6,1c-1.6,0.6-3.3,1-5.3,1.1l0,2.8h5.8v1.1
			h-1.8v8.6h-1.1V788h-2.9V790.4z"/>
		<path class="st3" d="M247.2,782.9c-0.8,1.3-1.5,2.4-2.3,3.3c-0.8,0.9-1.9,1.8-3.2,2.7l-0.6-1c1.1-0.6,2.1-1.4,3-2.4
			c0.8-0.9,1.5-1.9,2.1-3.2L247.2,782.9z M243.5,789.4v-1.1h9.6c0,2-0.1,3.6-0.3,4.9c-0.2,1.2-0.4,2.1-0.8,2.6
			c-0.4,0.5-0.9,0.7-1.7,0.8h-2.9l-0.3-1.1c0.9,0,1.8,0,2.6,0c0.9,0,1.4-0.4,1.7-1.1c0.3-0.8,0.5-2.4,0.5-4.9h-4
			c-0.4,1.7-0.9,3.1-1.6,4.2c-0.8,1.2-2,2.2-3.7,3.1l-0.7-1c1.5-0.8,2.6-1.7,3.3-2.6c0.7-0.9,1.2-2.1,1.5-3.6H243.5z M255.7,787.9
			l-0.8,0.9c-2.5-1.6-4.2-3.7-5.2-6.2l1-0.6C251.7,784.5,253.3,786.5,255.7,787.9z"/>
		<path class="st3" d="M266,786.1v2h4.5v5.4c0,1-0.5,1.5-1.5,1.5h-1.5l-0.3-1.1l1.4,0c0.5,0,0.8-0.2,0.8-0.7v-4.1H266v7.4h-1.1v-7.4
			h-3.4v5.9h-1.1v-6.1c-0.8,0.8-1.7,1.6-2.6,2.3l-0.7-1c2-1.5,3.6-3.2,4.8-5.2h-4.3V784h4.9c0.4-0.7,0.6-1.4,0.9-2.1l1.2,0.1
			c-0.2,0.7-0.5,1.4-0.8,2h7.8v1.1h-8.3c-0.6,1.1-1.2,2-2,3h3.8v-2H266z"/>
		<path class="st3" d="M280.5,788.6v1.1h-2.8v4.2c1.2-0.2,2.3-0.5,3.4-0.8v1.1c-2.3,0.6-4.8,1-7.5,1.4l-0.3-1.1
			c1.1-0.1,2.1-0.3,3.1-0.4v-4.4h-2.8v-1.1H280.5z M281.3,784.8c0-0.9-0.1-1.9-0.1-2.8h1.2c0,1,0,1.9,0.1,2.8h4.9v1.1h-4.9
			c0.2,2.7,0.6,4.9,1.2,6.7c0.7,1.8,1.3,2.7,1.8,2.7c0.3,0,0.7-1,1-2.8l1,0.5c-0.5,2.3-1.1,3.5-2,3.5c-1.4-0.1-2.6-1.9-3.6-5.3
			c-0.4-1.5-0.6-3.3-0.7-5.3h-7.9v-1.1H281.3z M286.4,784.1l-1,0.5c-0.5-0.8-1-1.5-1.5-2.1l1-0.5
			C285.4,782.7,285.9,783.4,286.4,784.1z"/>
		<path class="st3" d="M293.3,789.5c-0.1,0.3-0.2,0.6-0.3,0.9h3.3v0.9c-0.4,1.1-0.9,2-1.8,2.7c0.8,0.4,1.5,0.7,2.2,1.1l-0.6,0.9
			c-0.7-0.4-1.5-0.8-2.5-1.3c-1.1,0.7-2.4,1.3-4,1.8l-0.5-1c1.3-0.4,2.4-0.8,3.4-1.3c-0.7-0.3-1.4-0.6-2.2-0.9
			c0.4-0.7,0.8-1.4,1.1-2h-1.9v-1h2.3c0.1-0.4,0.3-0.7,0.4-1L293.3,789.5z M292.6,785v-3.1h1.1v3.1h2.9v1h-2.9v0.2
			c0.9,0.4,1.8,0.9,2.7,1.5l-0.6,0.9c-0.8-0.6-1.5-1.2-2.1-1.5v2.1h-1.1v-3c-0.5,1.3-1.5,2.4-2.9,3.3l-0.6-0.9
			c1.2-0.7,2.1-1.5,2.6-2.4h-2.3v-1H292.6z M291.8,784.2l-0.8,0.4c-0.3-0.8-0.7-1.5-1.1-2.1l0.9-0.3
			C291.1,782.9,291.5,783.5,291.8,784.2z M295.3,791.4h-2.8c-0.3,0.5-0.5,1.1-0.9,1.5c0.6,0.2,1.2,0.4,1.8,0.7
			C294.3,793,294.9,792.2,295.3,791.4z M296.5,782.6c-0.3,0.7-0.7,1.4-1.2,2.1l-0.8-0.4c0.5-0.7,0.9-1.4,1.2-2L296.5,782.6z
			 M298.2,788.1c-0.3,0.7-0.6,1.4-0.9,2l-0.7-0.9c0.9-1.8,1.6-4.2,1.9-7.3l1.1,0.2c-0.1,0.8-0.2,1.6-0.4,2.3h4.2v1.1h-1
			c-0.1,2.7-0.6,5-1.5,6.9c0.8,1.4,1.8,2.5,3,3.3l-0.6,0.9c-1.1-0.8-2.1-1.9-2.9-3.2c-0.8,1.3-1.8,2.4-3,3.2l-0.6-1
			c1.2-0.9,2.2-2,3-3.3C299.2,791.1,298.7,789.7,298.2,788.1z M298.8,786.3c0.4,1.9,0.9,3.5,1.6,4.8c0.6-1.6,1-3.5,1-5.7H299
			L298.8,786.3z"/>
		<path class="st3" d="M305.7,796.5l-0.2-1.1c0.4,0,0.8,0.1,1.2,0.1c0.4,0,0.6-0.2,0.6-0.7v-3.9c-0.6,0.2-1.3,0.5-1.9,0.7l-0.3-1.1
			c0.7-0.2,1.5-0.4,2.2-0.7v-3.6h-1.9V785h1.9v-3h1.1v3h1.5v1.1h-1.5v3.2c0.5-0.2,1-0.5,1.5-0.7v1.1c-0.5,0.3-1,0.5-1.5,0.7v4.7
			c0,0.9-0.4,1.4-1.3,1.4H305.7z M310,796.6l-0.9-0.8c1.1-2.1,1.7-4.9,1.7-8.2v-5h8.4v3.9h-3v1.9h3.4v1h-3.4v2h2.7v5.2h-1.1v-0.8
			h-4.3v0.8h-1.1v-5.2h2.7v-2h-3.3C311.7,792.1,311,794.5,310,796.6z M311.9,786.5v1.1c0,0.3,0,0.5,0,0.8h3.2v-1.9H311.9z
			 M311.9,783.6v1.8h6.2v-1.8H311.9z M317.9,794.8v-2.4h-4.3v2.4H317.9z"/>
		<path class="st3" d="M329.8,783.3h5.8v1.1h-11.9v3.6c-0.1,3.5-0.6,6.4-1.6,8.5l-0.9-0.8c0.9-1.8,1.3-4.4,1.4-7.6v-4.8h6
			c-0.3-0.5-0.5-0.9-0.8-1.3l1.3-0.2C329.3,782.3,329.6,782.8,329.8,783.3z M329.1,785.2c-0.1,0.4-0.3,0.9-0.4,1.3h6.2v1h-6.6
			c-0.4,1-0.9,1.9-1.4,2.7h3v-1.9h1.2v1.9h3.6v1h-3.6v1.8h4.8v1.1h-4.8v2.5h-1.2v-2.5H324V793h5.8v-1.8h-4.2l-0.2-1
			c0.6-0.8,1.2-1.7,1.7-2.8h-2.4v-1h2.8c0.2-0.5,0.4-1,0.5-1.5L329.1,785.2z"/>
		<path class="st3" d="M339.9,788c-0.1,3.5-0.8,6.3-2.1,8.5l-0.8-0.8c1.1-1.8,1.7-4.4,1.8-7.6v-5c4.2,0,8-0.4,11.4-1l0.6,1
			c-3.2,0.5-6.9,0.8-10.9,0.9v1.6h5.3c0.1-0.5,0.1-1,0.2-1.5l1.2,0.1c0,0.4-0.1,0.9-0.2,1.3h5.1v1.1h-5.3c-0.1,0.5-0.2,1-0.3,1.5
			h4.1v5.4h-1.1v-4.4h-6.3v4.4h-1.1v-5.5h3.2c0.1-0.5,0.2-1,0.3-1.5h-5.2V788z M346.6,789.9c-0.2,1.9-0.8,3.3-1.7,4.3
			c-1,1-2.5,1.8-4.5,2.4l-0.6-1.1c1.9-0.5,3.3-1.1,4.2-2c0.9-0.9,1.4-2.1,1.6-3.7L346.6,789.9z M351.5,795.6l-0.6,1
			c-1.6-1.1-3.2-1.9-4.8-2.5l0.6-0.9C348.5,793.9,350.1,794.7,351.5,795.6z"/>
		<path class="st3" d="M367.6,787v0.9h-14.3V787H367.6z M366,788.6v4.1h-5v0.9h5.4v0.8H361v0.9h6.6v0.9h-14.3v-0.9h6.6v-0.9h-5.4
			v-0.8h5.4v-0.9h-5v-4.1H366z M365.7,782.2v4h-10.5v-4H365.7z M359.9,790.3v-1H356v1H359.9z M359.9,791H356v1h3.9V791z
			 M364.6,783.8v-0.9h-8.2v0.9H364.6z M364.6,784.5h-8.2v0.9h8.2V784.5z M361,790.3h3.9v-1H361V790.3z M364.9,791H361v1h3.9V791z"/>
	</g>
	<g class="st0">
		<path class="st3" d="M45.4,815.1v1.1H43c-0.2,1.3-0.5,2.5-0.9,3.6H45v7.3h-2.8v1.2h-1.1v-6.3c-0.3,0.5-0.6,1-0.8,1.4l-0.7-1.1
			c1.2-1.8,1.9-3.9,2.3-6.2h-1.8v-1.1H45.4z M44,826.1v-5.2h-1.7v5.2H44z M45.9,828.8l-0.8-0.8c0.8-1.2,1.2-2.6,1.2-4.4v-5.2
			c-0.2,0.2-0.5,0.4-0.7,0.6l-0.7-0.8c1.3-1,2.3-2.4,3.1-4.1l1.1,0.2c-0.2,0.3-0.3,0.7-0.5,1h3.9v0.8c-0.5,0.7-1,1.3-1.4,1.8h2.7
			v9.6c0,0.7-0.4,1.1-1.2,1.1h-1.2l-0.3-1c0.4,0,0.8,0.1,1.1,0.1c0.3,0,0.5-0.2,0.5-0.5v-2.1h-2.1v3.5h-1v-3.5h-2.2
			C47.1,826.6,46.7,827.8,45.9,828.8z M51.1,816.4H48c-0.4,0.6-0.8,1.1-1.3,1.6h3C50.3,817.5,50.7,817,51.1,816.4z M47.4,823.6
			c0,0.1,0,0.3,0,0.4h2.1v-2h-2.1V823.6z M47.4,819v2h2.1v-2H47.4z M52.6,819h-2.1v2h2.1V819z M52.6,822h-2.1v2h2.1V822z"/>
		<path class="st3" d="M59.2,819.1v7c0.6-0.5,1.2-1,1.9-1.6l0.3,1.2c-1,0.9-2,1.8-3.2,2.5l-0.4-1c0.2-0.2,0.4-0.4,0.4-0.7v-6.2h-2.4
			v-1.1H59.2z M60.3,816.8l-0.8,0.8c-0.7-0.8-1.6-1.6-2.8-2.5l0.8-0.8C58.7,815.2,59.6,816,60.3,816.8z M66.2,814.3
			c0,1.3,0,2.6-0.1,3.8c0.8,4.1,2.3,7.4,4.4,9.8l-0.8,1c-1.7-2.2-3-4.9-3.9-8c-0.1,0.4-0.2,0.9-0.2,1.3c-0.6,2.8-2,5-4.1,6.8
			l-0.8-0.9c1.9-1.6,3.1-3.5,3.7-5.9c0.4-2,0.7-4.5,0.7-7.7H66.2z"/>
		<path class="st3" d="M73.1,817.4c0,1.6-0.2,3.1-0.5,4.6l-0.9-0.3c0.3-1.4,0.5-2.8,0.6-4.4L73.1,817.4z M75.1,814.3v14.6h-1.2
			v-14.6H75.1z M77.1,819.7c0.5-1.4,0.9-2.9,0.9-4.5l1,0.1c0,0.7-0.1,1.3-0.2,1.9h2.3v-3h1.2v3h3.5v1.1h-3.5v3.9h3.2v1.1h-3.2v3.9
			h3.9v1.1h-9.7v-1.1h4.6v-3.9h-3.7v-1.1h3.7v-3.9h-2.5c-0.3,1.2-0.7,2.3-1.3,3.2l-0.8-0.8c0.2-0.4,0.3-0.7,0.5-1l-0.8,0.2
			c-0.2-1-0.5-1.9-0.9-2.8l0.8-0.3C76.6,817.7,76.9,818.6,77.1,819.7z"/>
		<path class="st3" d="M91.1,819.1v7.1c0.5-0.4,1.1-1,1.6-1.6l0.3,1.2c-0.9,0.9-1.9,1.7-3,2.5l-0.4-1c0.2-0.2,0.4-0.4,0.4-0.7v-6.4
			h-2.4v-1.1H91.1z M92.3,816.8l-0.8,0.8c-0.7-0.8-1.6-1.6-2.8-2.5l0.8-0.8C90.7,815.2,91.6,816,92.3,816.8z M101.9,814.9v1.1h-3.8
			v6h4.3v1.1h-4.3v5.7H97v-5.7h-4.2v-1.1H97v-6h-3.8v-1.1H101.9z M95.7,821l-1,0.3c-0.3-1.4-0.8-2.7-1.3-4l1-0.3
			C94.9,818.1,95.4,819.4,95.7,821z M101.5,817.1c-0.3,1.6-0.8,2.9-1.3,4.1l-1-0.3c0.5-1.1,0.9-2.4,1.2-4L101.5,817.1z"/>
		<path class="st3" d="M106.7,820.8l-0.8,0.8c-0.5-0.7-1.3-1.5-2.2-2.3l0.8-0.7C105.3,819.2,106.1,820,106.7,820.8z M106.9,823.2
			c-0.6,2-1.3,3.8-2,5.5l-1.1-0.4c0.8-1.8,1.5-3.6,2.1-5.5L106.9,823.2z M107,816.7l-0.8,0.8c-0.5-0.7-1.3-1.4-2.3-2.1l0.8-0.8
			C105.6,815.2,106.4,816,107,816.7z M110.8,817.1v5.1c0,1.8-0.3,3.3-0.9,4.4c-0.5,1-1.4,1.8-2.6,2.4l-0.6-1c1.2-0.5,2-1.3,2.4-2.2
			c0.4-0.9,0.7-2.1,0.7-3.6v-5.1H110.8z M113,824.8h-1V816h-3.3v8.9h-1V815h5.4V824.8z M113.7,828.1l-0.8,0.8
			c-0.6-0.8-1.4-1.7-2.4-2.7l0.7-0.7C112.3,826.4,113.1,827.2,113.7,828.1z M115.3,815.6v10h-1v-10H115.3z M114.7,828.8l-0.2-1.1
			c0.6,0,1.1,0.1,1.6,0.1c0.4,0,0.6-0.2,0.6-0.6v-12.8h1.1v13.1c0,0.9-0.4,1.4-1.3,1.4H114.7z"/>
	</g>
	<g class="st0">
		<path class="st2" d="M44.8,878.1V891h-2.1v-10.3c-0.8,0.7-1.7,1.2-2.9,1.6v-2.1c0.6-0.1,1.2-0.4,1.8-0.8c0.6-0.4,1.2-0.8,1.6-1.3
			H44.8z"/>
		<path class="st2" d="M55.1,879c0.8,0.7,1.2,1.6,1.2,2.8c0,1.1-0.4,2.1-1.3,3c-0.5,0.5-1.4,1.2-2.7,2.1c-1.3,0.9-2.1,1.6-2.4,2.3
			h6.3v1.9h-9c0-1.3,0.4-2.4,1.3-3.4c0.5-0.5,1.5-1.3,3-2.4c0.8-0.6,1.4-1.1,1.8-1.4c0.6-0.6,0.8-1.3,0.8-2c0-0.7-0.2-1.2-0.6-1.6
			c-0.4-0.3-0.9-0.5-1.7-0.5c-0.8,0-1.4,0.3-1.8,0.8c-0.4,0.5-0.6,1.3-0.6,2.3h-2.1c0-1.4,0.4-2.6,1.3-3.5c0.8-0.9,2-1.4,3.3-1.4
			C53.2,877.9,54.2,878.3,55.1,879z"/>
		<path class="st2" d="M66.9,893l-1.4-1.3c1.1-1.6,1.7-3.6,1.7-6v-8.8h10.9v14.1c0,1.2-0.6,1.8-1.8,1.8H74l-0.5-1.8
			c0.8,0.1,1.5,0.1,2.2,0.1c0.4,0,0.5-0.3,0.5-0.7v-3H69C68.7,889.6,68.1,891.5,66.9,893z M76.2,878.6h-7.1v2.5h7.1V878.6z
			 M69.1,885.5h7.1v-2.7h-7.1V885.5z"/>
	</g>
	<g class="st0">
		<path class="st3" d="M48.6,911.6v1.1h-4V923h-1.3v-10.3h-4v-1.1H48.6z"/>
		<path class="st3" d="M51.6,911.9c0.2,0.2,0.3,0.4,0.3,0.7c0,0.3-0.1,0.5-0.3,0.7c-0.2,0.2-0.4,0.3-0.7,0.3s-0.5-0.1-0.7-0.3
			c-0.2-0.2-0.3-0.4-0.3-0.7c0-0.3,0.1-0.5,0.3-0.7c0.2-0.2,0.4-0.3,0.7-0.3S51.4,911.7,51.6,911.9z M51.6,914.7v8.3h-1.3v-8.3H51.6
			z"/>
		<path class="st3" d="M58.2,911.6c1.8,0,3.2,0.5,4.1,1.6c0.8,1,1.3,2.4,1.3,4.1c0,1.8-0.5,3.2-1.4,4.1c-1,1-2.3,1.6-4.1,1.6h-4
			v-11.4H58.2z M55.5,921.9h2.4c1.5,0,2.6-0.4,3.4-1.2c0.7-0.8,1.1-1.9,1.1-3.4c0-1.5-0.3-2.7-1-3.4c-0.7-0.8-1.8-1.2-3.3-1.2h-2.6
			V921.9z"/>
		<path class="st3" d="M70.6,911.6c1.1,0,1.9,0.3,2.5,0.8c0.6,0.5,0.9,1.2,0.9,2.1c0,0.6-0.2,1.2-0.5,1.7c-0.4,0.4-0.8,0.7-1.4,0.9
			c0.8,0.1,1.3,0.4,1.7,0.9c0.4,0.5,0.6,1.1,0.6,1.9c0,1.1-0.4,2-1.2,2.5c-0.7,0.4-1.6,0.7-2.8,0.7h-5.1v-11.4H70.6z M66.8,916.6
			h3.5c0.8,0,1.4-0.2,1.8-0.5c0.4-0.3,0.6-0.8,0.6-1.5c0-0.6-0.2-1.1-0.6-1.4c-0.4-0.3-1-0.5-1.8-0.5h-3.5V916.6z M66.8,921.9h3.6
			c0.8,0,1.4-0.2,1.9-0.4c0.6-0.4,0.8-0.9,0.8-1.6s-0.3-1.3-0.7-1.6c-0.5-0.4-1.1-0.5-2-0.5h-3.6V921.9z"/>
		<path class="st3" d="M89,924.3c-1,0-1.9-0.1-2.5-0.3c-0.6-0.2-1.2-0.6-1.7-1.2c-0.2-0.3-0.4-0.4-0.6-0.4c-0.4,0-1,0.7-1.9,2.2
			l-0.9-0.8c0.8-1.3,1.6-2.2,2.3-2.4v-4.9h-2.3v-1.1h3.3v6c0.1,0.1,0.3,0.2,0.4,0.4c0.4,0.5,0.8,0.8,1.2,1c0.5,0.2,1.2,0.4,2.2,0.4
			c0.8,0,1.9,0,3.2,0c0.7,0,1.5,0,2.3,0c0.8,0,1.4,0,1.8-0.1l-0.3,1.2h-3.6C91,924.3,90,924.3,89,924.3z M85.3,912.7l-0.8,0.8
			c-0.7-0.8-1.6-1.6-2.8-2.5l0.8-0.8C83.6,911,84.5,911.8,85.3,912.7z M90.8,912.9c0.8-0.4,1.6-0.9,2.3-1.5H86v-1h8.7v0.8
			c-1,0.8-2,1.6-3.1,2.2l0.3,0.2H95v7.2c0,0.8-0.4,1.2-1.3,1.2h-1.3l-0.3-1l1.3,0c0.4,0,0.6-0.2,0.6-0.5v-1.2h-2.7v2.8h-1.1v-2.8
			h-2.7v2.8h-1.1v-8.5h4c-0.6-0.4-1.3-0.9-2.1-1.3l0.7-0.7C89.6,912.1,90.3,912.5,90.8,912.9z M90.1,914.6h-2.7v1.4h2.7V914.6z
			 M87.4,918.5h2.7V917h-2.7V918.5z M93.9,914.6h-2.7v1.4h2.7V914.6z M91.2,918.5h2.7V917h-2.7V918.5z"/>
		<path class="st3" d="M105.2,924.3c-1.1,0-2-0.1-2.6-0.3c-0.7-0.2-1.3-0.6-1.8-1.2c-0.2-0.3-0.4-0.4-0.7-0.4c-0.4,0-1,0.7-1.9,2.2
			l-0.9-0.8c0.9-1.4,1.6-2.2,2.3-2.5v-4.8h-2.3v-1.1h3.4v6c0.1,0.1,0.3,0.2,0.4,0.4c0.4,0.4,0.8,0.8,1.3,1c0.5,0.2,1.3,0.3,2.3,0.4
			c0.9,0,2,0,3.3,0c0.7,0,1.4,0,2.1,0c0.7,0,1.3,0,1.7-0.1l-0.3,1.2h-3.4C107.2,924.3,106.3,924.3,105.2,924.3z M101.2,912.7
			l-0.8,0.8c-0.7-0.8-1.6-1.7-2.7-2.6l0.8-0.8C99.5,911,100.4,911.8,101.2,912.7z M105.4,922.2l-0.3-1.1c0.7,0,1.5,0.1,2.1,0.1
			c0.4,0,0.7-0.2,0.7-0.7v-6.8h-6.1v-1.1h6.1V910h1.2v2.6h2.4v1.1h-2.4v7.1c0,0.9-0.5,1.4-1.5,1.4H105.4z M106,918.2l-0.9,0.6
			c-0.6-1-1.3-2-2.3-3.2l0.9-0.6C104.7,916.3,105.5,917.3,106,918.2z"/>
		<path class="st3" d="M113.3,917.7l-0.4-1.2c1.6-1.9,2.7-4.2,3.4-6.7l1.1,0.5c-0.4,1.2-0.8,2.4-1.4,3.5v10.9h-1.1v-9
			C114.4,916.3,113.9,917,113.3,917.7z M122.3,912c-0.2-0.6-0.5-1.2-0.8-1.9l1.1-0.3c0.3,0.7,0.6,1.3,0.8,1.9l-0.6,0.2h5v1.1h-10.4
			V912H122.3z M126.7,924.6h-1.1v-0.9h-5.9v0.9h-1.1V919h8.2V924.6z M126.4,914.4v1h-7.6v-1H126.4z M126.4,916.7v1.1h-7.6v-1.1
			H126.4z M125.6,922.6v-2.5h-5.9v2.5H125.6z"/>
		<path class="st3" d="M137,924.3c-1,0-1.9-0.1-2.5-0.3c-0.6-0.2-1.2-0.6-1.7-1.2c-0.2-0.3-0.4-0.4-0.6-0.4c-0.4,0-1,0.7-1.9,2.2
			l-0.9-0.8c0.8-1.3,1.6-2.2,2.3-2.4v-4.9h-2.3v-1.1h3.3v6c0.1,0.1,0.3,0.2,0.4,0.4c0.4,0.5,0.8,0.8,1.2,1c0.5,0.2,1.2,0.4,2.2,0.4
			c0.8,0,1.9,0,3.2,0c0.7,0,1.5,0,2.3,0c0.8,0,1.4,0,1.8-0.1l-0.3,1.2h-3.6C139,924.3,138,924.3,137,924.3z M133.3,912.7l-0.8,0.8
			c-0.7-0.8-1.6-1.6-2.8-2.5l0.8-0.8C131.6,911,132.5,911.8,133.3,912.7z M138.8,912.9c0.8-0.4,1.6-0.9,2.3-1.5H134v-1h8.7v0.8
			c-1,0.8-2,1.6-3.1,2.2l0.3,0.2h3.2v7.2c0,0.8-0.4,1.2-1.3,1.2h-1.3l-0.3-1l1.3,0c0.4,0,0.6-0.2,0.6-0.5v-1.2h-2.7v2.8h-1.1v-2.8
			h-2.7v2.8h-1.1v-8.5h4c-0.6-0.4-1.3-0.9-2.1-1.3l0.7-0.7C137.6,912.1,138.3,912.5,138.8,912.9z M138.1,914.6h-2.7v1.4h2.7V914.6z
			 M135.4,918.5h2.7V917h-2.7V918.5z M141.9,914.6h-2.7v1.4h2.7V914.6z M139.2,918.5h2.7V917h-2.7V918.5z"/>
		<path class="st3" d="M150.3,910.6v0.9c-0.4,1.5-0.9,3-1.5,4.5c0.9,1.4,1.4,2.7,1.5,3.8c0,0.7-0.2,1.2-0.5,1.6
			c-0.4,0.4-1.2,0.6-2.3,0.6l-0.4-1.2c0.3,0,0.5,0.1,0.6,0.1c0.5,0,0.9-0.1,1.1-0.3c0.2-0.2,0.3-0.4,0.3-0.8c0-1.1-0.5-2.3-1.5-3.6
			c0.7-1.7,1.2-3.2,1.5-4.5h-2.4v13h-1.1v-14.1H150.3z M159.5,917.3v1.1h-2.7v4.3c0,0.4,0.1,0.6,0.5,0.6h0.7c0.2,0,0.4-0.1,0.4-0.2
			c0.2-0.1,0.3-0.8,0.3-2.1l1.1,0.4c-0.1,1.4-0.3,2.3-0.5,2.6c-0.2,0.2-0.6,0.4-1.1,0.4H157c-0.4,0-0.7-0.1-0.9-0.4
			c-0.2-0.3-0.3-0.6-0.3-1v-4.6h-1.5c-0.1,1.7-0.4,2.9-0.8,3.7c-0.5,1-1.4,1.8-2.7,2.4l-0.7-0.9c1.1-0.6,1.9-1.2,2.4-2
			c0.4-0.7,0.7-1.8,0.8-3.2h-2.2v-1.1H159.5z M159.4,914.6h-1.1v-2.2H152v2.2h-1.1v-3.2h3.6c-0.2-0.5-0.4-0.9-0.6-1.3l1.2-0.2
			c0.2,0.4,0.4,1,0.6,1.5h3.7V914.6z M158.2,914.4v1h-6.1v-1H158.2z"/>
		<path class="st3" d="M167.2,910.9c-0.8,1.3-1.5,2.4-2.3,3.3c-0.8,0.9-1.9,1.8-3.2,2.7l-0.6-1c1.1-0.6,2.1-1.4,3-2.4
			c0.8-0.9,1.5-1.9,2.1-3.2L167.2,910.9z M163.5,917.4v-1.1h9.6c0,2-0.1,3.6-0.3,4.9c-0.2,1.2-0.4,2.1-0.8,2.6
			c-0.4,0.5-0.9,0.7-1.7,0.8h-2.9l-0.3-1.1c0.9,0,1.8,0,2.6,0c0.9,0,1.4-0.4,1.7-1.1c0.3-0.8,0.5-2.4,0.5-4.9h-4
			c-0.4,1.7-0.9,3.1-1.6,4.2c-0.8,1.2-2,2.2-3.7,3.1l-0.7-1c1.5-0.8,2.6-1.7,3.3-2.6c0.7-0.9,1.2-2.1,1.5-3.6H163.5z M175.7,915.9
			l-0.8,0.9c-2.5-1.6-4.2-3.7-5.2-6.2l1-0.6C171.7,912.5,173.3,914.5,175.7,915.9z"/>
		<path class="st3" d="M186,914.1v2h4.5v5.4c0,1-0.5,1.5-1.5,1.5h-1.5l-0.3-1.1l1.4,0c0.5,0,0.8-0.2,0.8-0.7v-4.1H186v7.4h-1.1v-7.4
			h-3.4v5.9h-1.1v-6.1c-0.8,0.8-1.7,1.6-2.6,2.3l-0.7-1c2-1.5,3.6-3.2,4.8-5.2h-4.3V912h4.9c0.4-0.7,0.6-1.4,0.9-2.1l1.2,0.1
			c-0.2,0.7-0.5,1.4-0.8,2h7.8v1.1h-8.3c-0.6,1.1-1.2,2-2,3h3.8v-2H186z"/>
		<path class="st3" d="M200.5,916.6v1.1h-2.8v4.2c1.2-0.2,2.3-0.5,3.4-0.8v1.1c-2.3,0.6-4.8,1-7.5,1.4l-0.3-1.1
			c1.1-0.1,2.1-0.3,3.1-0.4v-4.4h-2.8v-1.1H200.5z M201.3,912.8c0-0.9-0.1-1.9-0.1-2.8h1.2c0,1,0,1.9,0.1,2.8h4.9v1.1h-4.9
			c0.2,2.7,0.6,4.9,1.2,6.7c0.7,1.8,1.3,2.7,1.8,2.7c0.3,0,0.7-1,1-2.8l1,0.5c-0.5,2.3-1.1,3.5-2,3.5c-1.4-0.1-2.6-1.9-3.6-5.3
			c-0.4-1.5-0.6-3.3-0.7-5.3h-7.9v-1.1H201.3z M206.4,912.1l-1,0.5c-0.5-0.8-1-1.5-1.5-2.1l1-0.5
			C205.4,910.7,205.9,911.4,206.4,912.1z"/>
		<path class="st3" d="M213.3,917.5c-0.1,0.3-0.2,0.6-0.3,0.9h3.3v0.9c-0.4,1.1-0.9,2-1.8,2.7c0.8,0.4,1.5,0.7,2.2,1.1l-0.6,0.9
			c-0.7-0.4-1.5-0.8-2.5-1.3c-1.1,0.7-2.4,1.3-4,1.8l-0.5-1c1.3-0.4,2.4-0.8,3.4-1.3c-0.7-0.3-1.4-0.6-2.2-0.9
			c0.4-0.7,0.8-1.4,1.1-2h-1.9v-1h2.3c0.1-0.4,0.3-0.7,0.4-1L213.3,917.5z M212.6,913v-3.1h1.1v3.1h2.9v1h-2.9v0.2
			c0.9,0.4,1.8,0.9,2.7,1.5l-0.6,0.9c-0.8-0.6-1.5-1.2-2.1-1.5v2.1h-1.1v-3c-0.5,1.3-1.5,2.4-2.9,3.3l-0.6-0.9
			c1.2-0.7,2.1-1.5,2.6-2.4h-2.3v-1H212.6z M211.8,912.2l-0.8,0.4c-0.3-0.8-0.7-1.5-1.1-2.1l0.9-0.3
			C211.1,910.9,211.5,911.5,211.8,912.2z M215.3,919.4h-2.8c-0.3,0.5-0.5,1.1-0.9,1.5c0.6,0.2,1.2,0.4,1.8,0.7
			C214.3,921,214.9,920.2,215.3,919.4z M216.5,910.6c-0.3,0.7-0.7,1.4-1.2,2.1l-0.8-0.4c0.5-0.7,0.9-1.4,1.2-2L216.5,910.6z
			 M218.2,916.1c-0.3,0.7-0.6,1.4-0.9,2l-0.7-0.9c0.9-1.8,1.6-4.2,1.9-7.3l1.1,0.2c-0.1,0.8-0.2,1.6-0.4,2.3h4.2v1.1h-1
			c-0.1,2.7-0.6,5-1.5,6.9c0.8,1.4,1.8,2.5,3,3.3l-0.6,0.9c-1.1-0.8-2.1-1.9-2.9-3.2c-0.8,1.3-1.8,2.4-3,3.2l-0.6-1
			c1.2-0.9,2.2-2,3-3.3C219.2,919.1,218.7,917.7,218.2,916.1z M218.8,914.3c0.4,1.9,0.9,3.5,1.6,4.8c0.6-1.6,1-3.5,1-5.7H219
			L218.8,914.3z"/>
		<path class="st3" d="M225.7,924.5l-0.2-1.1c0.4,0,0.8,0.1,1.2,0.1c0.4,0,0.6-0.2,0.6-0.7v-3.9c-0.6,0.2-1.3,0.5-1.9,0.7l-0.3-1.1
			c0.7-0.2,1.5-0.4,2.2-0.7v-3.6h-1.9V913h1.9v-3h1.1v3h1.5v1.1h-1.5v3.2c0.5-0.2,1-0.5,1.5-0.7v1.1c-0.5,0.3-1,0.5-1.5,0.7v4.7
			c0,0.9-0.4,1.4-1.3,1.4H225.7z M230,924.6l-0.9-0.8c1.1-2.1,1.7-4.9,1.7-8.2v-5h8.4v3.9h-3v1.9h3.4v1h-3.4v2h2.7v5.2h-1.1v-0.8
			h-4.3v0.8h-1.1v-5.2h2.7v-2h-3.3C231.7,920.1,231,922.5,230,924.6z M231.9,914.5v1.1c0,0.3,0,0.5,0,0.8h3.2v-1.9H231.9z
			 M231.9,911.6v1.8h6.2v-1.8H231.9z M237.9,922.8v-2.4h-4.3v2.4H237.9z"/>
		<path class="st3" d="M249.8,911.3h5.8v1.1h-11.9v3.6c-0.1,3.5-0.6,6.4-1.6,8.5l-0.9-0.8c0.9-1.8,1.3-4.4,1.4-7.6v-4.8h6
			c-0.3-0.5-0.5-0.9-0.8-1.3l1.3-0.2C249.3,910.3,249.6,910.8,249.8,911.3z M249.1,913.2c-0.1,0.4-0.3,0.9-0.4,1.3h6.2v1h-6.6
			c-0.4,1-0.9,1.9-1.4,2.7h3v-1.9h1.2v1.9h3.6v1h-3.6v1.8h4.8v1.1h-4.8v2.5h-1.2v-2.5H244V921h5.8v-1.8h-4.2l-0.2-1
			c0.6-0.8,1.2-1.7,1.7-2.8h-2.4v-1h2.8c0.2-0.5,0.4-1,0.5-1.5L249.1,913.2z"/>
		<path class="st3" d="M258.6,913.1c0,1.6-0.2,3.1-0.5,4.6l-0.9-0.3c0.3-1.4,0.5-2.8,0.6-4.4L258.6,913.1z M260.5,910v14.6h-1.2V910
			H260.5z M262.6,915.4c0.5-1.4,0.9-2.9,0.9-4.5l1,0.1c0,0.7-0.1,1.3-0.2,1.9h2.3v-3h1.2v3h3.5v1.1h-3.5v3.9h3.2v1.1h-3.2v3.9h3.9
			v1.1h-9.7V923h4.6v-3.9H263V918h3.7v-3.9h-2.5c-0.3,1.2-0.7,2.3-1.3,3.2l-0.8-0.8c0.2-0.4,0.3-0.7,0.5-1l-0.8,0.2
			c-0.2-1-0.5-1.9-0.9-2.8l0.8-0.3C262,913.5,262.3,914.4,262.6,915.4z"/>
		<path class="st3" d="M281.2,914.4l-0.9,0.7c-0.2-0.4-0.4-0.7-0.6-1.1c-1.7,0.3-3.8,0.5-6.1,0.6l-0.3-1c0.2-0.1,0.4-0.2,0.5-0.3
			c1-1,1.8-2.2,2.5-3.5l1.1,0.3c-0.7,1.4-1.5,2.5-2.4,3.4c1.3-0.1,2.8-0.2,4.3-0.4c-0.3-0.5-0.7-1.1-1.1-1.6l0.9-0.6
			C279.9,912.4,280.7,913.5,281.2,914.4z M275.3,924.6h-1.1v-9h5.9v7.5c0,0.9-0.4,1.4-1.3,1.4h-1.3l-0.3-1.1l1.2,0
			c0.4,0,0.6-0.2,0.6-0.6v-1.3h-3.7V924.6z M279,916.6h-3.7v1.6h3.7V916.6z M275.3,920.6h3.7v-1.5h-3.7V920.6z M283.1,916.9
			c-1,0-1.5-0.5-1.5-1.6V910h1.1v2.1c1.8-0.3,3.2-0.6,4.3-0.8l0.4,1c-1.3,0.3-2.9,0.6-4.7,0.9v2c0,0.5,0.2,0.8,0.6,0.8h2.1
			c0.3,0,0.5-0.1,0.7-0.3c0.2-0.2,0.3-0.8,0.3-1.8l1.1,0.3c-0.1,1.3-0.3,2.1-0.6,2.4c-0.3,0.2-0.7,0.4-1.2,0.4H283.1z M282.8,922.8
			c0,0.3,0.2,0.5,0.6,0.5h2.2c0.3,0,0.6-0.1,0.7-0.2c0.2-0.2,0.3-0.8,0.4-1.8l1,0.3c-0.1,1.3-0.3,2.1-0.6,2.4
			c-0.3,0.2-0.7,0.4-1.2,0.4h-2.7c-1,0-1.4-0.4-1.4-1.3v-5.6h1.1v2c1.6-0.2,3-0.4,4.3-0.8l0.4,1c-1.4,0.4-3,0.7-4.7,0.8V922.8z"/>
		<path class="st3" d="M298.3,919.5v1.1h-9v-1.1H298.3z M293.2,910l-0.2,2.1h9.7v1.1h-9.8l-0.3,2.6h9c0,4.4-0.3,6.9-0.9,7.6
			c-0.6,0.7-1.9,1-3.8,1c-0.5,0-1,0-1.6-0.1l-0.3-1.1c0.8,0.1,1.3,0.1,1.6,0.1c1.8,0,2.9-0.3,3.2-0.9c0.4-0.7,0.6-2.5,0.6-5.6h-9.1
			l0.8-7L293.2,910z"/>
		<path class="st3" d="M308.6,911.1v-1.2h1.1v1.2h5.5v-1.2h1.1v1.2h2.8v1h-2.8v5.3h3.1v1h-3.3c0.8,1,2,1.7,3.6,2.3l-0.5,1
			c-2-0.8-3.4-1.9-4.2-3.2h-5c-0.8,1.3-2.2,2.4-4,3.3l-0.6-1c1.6-0.6,2.8-1.4,3.5-2.3h-3.3v-1h3.1v-5.3h-2.8v-1H308.6z M313,919v1.3
			h3.2v1H313v1.7h5.5v1.1h-12.2V923h5.6v-1.7h-3.3v-1h3.3V919H313z M315.2,913.3v-1.2h-5.5v1.2H315.2z M315.2,915.3v-1.1h-5.5v1.1
			H315.2z M315.2,917.4v-1.2h-5.5v1.2H315.2z"/>
		<path class="st3" d="M321.4,911.9v-1.1h5.4v1.1h-2.4c-0.2,1.3-0.5,2.5-0.9,3.6h3v8.5h-1v-1h-1.7v1.2h-1v-7
			c-0.3,0.7-0.7,1.3-1.1,1.9l-0.6-1c1.2-1.8,1.9-3.9,2.3-6.2H321.4z M325.4,922.1v-5.5h-1.7v5.5H325.4z M333.9,911.3h1.1v5.2h-3v6
			h2.3v-4.6h1.1v6.7h-1.1v-1.1h-5.6v1.1h-1.1v-6.7h1.1v4.6h2.2v-6h-3v-5.2h1.1v4.2h1.9V910h1.1v5.5h1.9V911.3z"/>
		<path class="st3" d="M345.2,914.4l-0.9,0.7c-0.2-0.4-0.4-0.7-0.6-1.1c-1.7,0.3-3.8,0.5-6.1,0.6l-0.3-1c0.2-0.1,0.4-0.2,0.5-0.3
			c1-1,1.8-2.2,2.5-3.5l1.1,0.3c-0.7,1.4-1.5,2.5-2.4,3.4c1.3-0.1,2.8-0.2,4.3-0.4c-0.3-0.5-0.7-1.1-1.1-1.6l0.9-0.6
			C343.9,912.4,344.7,913.5,345.2,914.4z M339.3,924.6h-1.1v-9h5.9v7.5c0,0.9-0.4,1.4-1.3,1.4h-1.3l-0.3-1.1l1.2,0
			c0.4,0,0.6-0.2,0.6-0.6v-1.3h-3.7V924.6z M343,916.6h-3.7v1.6h3.7V916.6z M339.3,920.6h3.7v-1.5h-3.7V920.6z M347.1,916.9
			c-1,0-1.5-0.5-1.5-1.6V910h1.1v2.1c1.8-0.3,3.2-0.6,4.3-0.8l0.4,1c-1.3,0.3-2.9,0.6-4.7,0.9v2c0,0.5,0.2,0.8,0.6,0.8h2.1
			c0.3,0,0.5-0.1,0.7-0.3c0.2-0.2,0.3-0.8,0.3-1.8l1.1,0.3c-0.1,1.3-0.3,2.1-0.6,2.4c-0.3,0.2-0.7,0.4-1.2,0.4H347.1z M346.8,922.8
			c0,0.3,0.2,0.5,0.6,0.5h2.2c0.3,0,0.6-0.1,0.7-0.2c0.2-0.2,0.3-0.8,0.4-1.8l1,0.3c-0.1,1.3-0.3,2.1-0.6,2.4
			c-0.3,0.2-0.7,0.4-1.2,0.4h-2.7c-1,0-1.4-0.4-1.4-1.3v-5.6h1.1v2c1.6-0.2,3-0.4,4.3-0.8l0.4,1c-1.4,0.4-3,0.7-4.7,0.8V922.8z"/>
		<path class="st3" d="M360.3,910v1.6c0,0.6,0,1.1-0.1,1.6h6.1c-0.1,2.8-0.2,5-0.3,6.7c-0.2,1.7-0.4,2.9-0.8,3.5c-0.4,0.6-1,1-1.8,1
			h-2.1l-0.3-1.1c0.6,0,1.3,0,1.8,0c0.9,0,1.5-0.6,1.8-1.7c0.3-1.2,0.5-3.7,0.6-7.4h-5.1c-0.2,2.3-0.7,4.2-1.4,5.7
			c-1,2-2.5,3.5-4.6,4.6l-0.6-1c2.1-1.1,3.6-2.6,4.4-4.5c0.5-1.3,0.9-2.9,1.1-4.8h-4.7v-1.1h4.8c0-0.5,0-1.1,0.1-1.6V910H360.3z"/>
	</g>
	<g class="st0">
		<path class="st3" d="M54.1,942.9v1.1h-4.3v2.5h3.6v8.6c0,1.1-0.5,1.6-1.4,1.6h-1.6l-0.3-1.1l1.6,0c0.4,0,0.6-0.3,0.6-0.8v-7.2
			h-2.5c0,0.4-0.1,0.9-0.1,1.3c0.7,1.1,1.5,2.4,2.2,3.8l-0.7,1.1c-0.7-1.5-1.2-2.7-1.7-3.6c-0.4,1.9-1.1,3.3-2.1,4.4l-0.8-0.8
			c1.3-1.3,2-3.4,2.2-6.1h-3.4c0,0.5-0.1,1.1-0.2,1.6c0.6,0.8,1.2,1.7,1.9,2.7l-0.7,1c-0.6-1.1-1-2-1.4-2.6c-0.4,1.6-1,2.9-1.9,3.9
			l-0.9-0.8c1.2-1.3,1.9-3.2,2.1-5.7h-2.4v9.1h-1.1v-10.2h3.5v-2.5h-4.3v-1.1H54.1z M48.7,946.6v-2.5h-3.4v2.5H48.7z"/>
		<path class="st3" d="M55.9,944.9v-1.1h4.9v1.1H59v7.2c0.7-0.2,1.3-0.5,2-0.7v1.2c-1.4,0.6-3,1.1-4.9,1.6l-0.3-1.1
			c0.7-0.2,1.4-0.4,2.1-0.5v-7.6H55.9z M66.3,947.8v2.8c-0.1,1.7-0.5,3.1-1.4,4.1c-0.8,0.9-2.2,1.7-4.1,2.2l-0.6-1
			c1.9-0.5,3.2-1.2,3.9-2c0.7-0.9,1-2,1.1-3.4v-2.8H66.3z M70.3,942.9v1.1h-3.8c-0.1,0.6-0.2,1.2-0.3,1.7h3.4v7.5h-1.1v-6.5h-5.1
			v6.5h-1.1v-7.5H65c0.2-0.5,0.3-1.1,0.4-1.7h-3.9v-1.1H70.3z M70.5,956.2l-0.8,0.8c-0.8-0.9-1.9-1.9-3.3-3l0.8-0.7
			C68.5,954.2,69.6,955.2,70.5,956.2z"/>
		<path class="st3" d="M75.1,947.1v7.1c0.5-0.4,1.1-1,1.6-1.6l0.3,1.2c-0.9,0.9-1.9,1.7-3,2.5l-0.4-1c0.2-0.2,0.4-0.4,0.4-0.7v-6.4
			h-2.4v-1.1H75.1z M76.3,944.8l-0.8,0.8c-0.7-0.8-1.6-1.6-2.8-2.5l0.8-0.8C74.7,943.2,75.6,944,76.3,944.8z M85.9,942.9v1.1h-3.8v6
			h4.3v1.1h-4.3v5.7H81v-5.7h-4.2v-1.1H81v-6h-3.8v-1.1H85.9z M79.7,949l-1,0.3c-0.3-1.4-0.8-2.7-1.3-4l1-0.3
			C78.9,946.1,79.4,947.4,79.7,949z M85.5,945.1c-0.3,1.6-0.8,2.9-1.3,4.1l-1-0.3c0.5-1.1,0.9-2.4,1.2-4L85.5,945.1z"/>
		<path class="st3" d="M90.7,948.8l-0.8,0.8c-0.5-0.7-1.3-1.5-2.2-2.3l0.8-0.7C89.3,947.2,90.1,948,90.7,948.8z M90.9,951.2
			c-0.6,2-1.3,3.8-2,5.5l-1.1-0.4c0.8-1.8,1.5-3.6,2.1-5.5L90.9,951.2z M91,944.7l-0.8,0.8c-0.5-0.7-1.3-1.4-2.3-2.1l0.8-0.8
			C89.6,943.2,90.4,944,91,944.7z M94.8,945.1v5.1c0,1.8-0.3,3.3-0.9,4.4c-0.5,1-1.4,1.8-2.6,2.4l-0.6-1c1.2-0.5,2-1.3,2.4-2.2
			c0.4-0.9,0.7-2.1,0.7-3.6v-5.1H94.8z M97,952.8h-1V944h-3.3v8.9h-1V943H97V952.8z M97.7,956.1l-0.8,0.8c-0.6-0.8-1.4-1.7-2.4-2.7
			l0.7-0.7C96.3,954.4,97.1,955.2,97.7,956.1z M99.3,943.6v10h-1v-10H99.3z M98.7,956.8l-0.2-1.1c0.6,0,1.1,0.1,1.6,0.1
			c0.4,0,0.6-0.2,0.6-0.6v-12.8h1.1v13.1c0,0.9-0.4,1.4-1.3,1.4H98.7z"/>
	</g>
	<g class="st0">
		<path class="st2" d="M48.8,1134.4h-2.1c-0.3-1.2-1-1.8-2.2-1.8c-0.9,0-1.5,0.4-2.1,1.3c-0.5,0.8-0.7,1.8-0.7,3v0.2h0.1
			c0.4-0.5,0.8-0.9,1.4-1.2c0.5-0.3,1.1-0.4,1.7-0.4c1.3,0,2.3,0.4,3,1.2c0.8,0.8,1.1,1.9,1.1,3.1c0,1.3-0.5,2.4-1.3,3.2
			c-0.9,0.8-1.9,1.3-3.2,1.3c-1.6,0-2.8-0.6-3.6-1.7c-0.8-1.1-1.2-2.6-1.2-4.6c0-2.1,0.4-3.8,1.3-5.1c0.9-1.3,2.1-1.9,3.5-1.9
			C47.1,1130.9,48.5,1132.1,48.8,1134.4z M42.7,1137.9c-0.5,0.5-0.7,1.1-0.7,2c0,0.8,0.2,1.5,0.7,1.9c0.5,0.5,1.1,0.7,1.8,0.7
			c0.8,0,1.4-0.3,1.8-0.8c0.5-0.5,0.7-1.2,0.7-1.9s-0.2-1.4-0.7-1.9c-0.5-0.5-1.1-0.7-1.9-0.7C43.7,1137.2,43.1,1137.4,42.7,1137.9z
			"/>
		<path class="st2" d="M59.6,1146l-1.4-1.3c1.1-1.6,1.7-3.6,1.7-6v-8.8h10.9v14.1c0,1.2-0.6,1.8-1.8,1.8h-2.3l-0.5-1.8
			c0.8,0.1,1.5,0.1,2.2,0.1c0.4,0,0.5-0.3,0.5-0.7v-3h-7.2C61.4,1142.6,60.7,1144.5,59.6,1146z M68.8,1131.6h-7.1v2.5h7.1V1131.6z
			 M61.7,1138.5h7.1v-2.7h-7.1V1138.5z"/>
	</g>
	<g class="st0">
		<path class="st3" d="M48.6,1164.6v1.1h-4v10.3h-1.3v-10.3h-4v-1.1H48.6z"/>
		<path class="st3" d="M51.6,1164.9c0.2,0.2,0.3,0.4,0.3,0.7c0,0.3-0.1,0.5-0.3,0.7c-0.2,0.2-0.4,0.3-0.7,0.3s-0.5-0.1-0.7-0.3
			c-0.2-0.2-0.3-0.4-0.3-0.7c0-0.3,0.1-0.5,0.3-0.7c0.2-0.2,0.4-0.3,0.7-0.3S51.4,1164.7,51.6,1164.9z M51.6,1167.7v8.3h-1.3v-8.3
			H51.6z"/>
		<path class="st3" d="M58.2,1164.6c1.8,0,3.2,0.5,4.1,1.6c0.8,1,1.3,2.4,1.3,4.1c0,1.8-0.5,3.2-1.4,4.1c-1,1-2.3,1.6-4.1,1.6h-4
			v-11.4H58.2z M55.5,1174.9h2.4c1.5,0,2.6-0.4,3.4-1.2c0.7-0.8,1.1-1.9,1.1-3.4c0-1.5-0.3-2.7-1-3.4c-0.7-0.8-1.8-1.2-3.3-1.2h-2.6
			V1174.9z"/>
		<path class="st3" d="M70.6,1164.6c1.1,0,1.9,0.3,2.5,0.8c0.6,0.5,0.9,1.2,0.9,2.1c0,0.6-0.2,1.2-0.5,1.7c-0.4,0.4-0.8,0.7-1.4,0.9
			c0.8,0.1,1.3,0.4,1.7,0.9c0.4,0.5,0.6,1.1,0.6,1.9c0,1.1-0.4,2-1.2,2.5c-0.7,0.4-1.6,0.7-2.8,0.7h-5.1v-11.4H70.6z M66.8,1169.6
			h3.5c0.8,0,1.4-0.2,1.8-0.5c0.4-0.3,0.6-0.8,0.6-1.5c0-0.6-0.2-1.1-0.6-1.4c-0.4-0.3-1-0.5-1.8-0.5h-3.5V1169.6z M66.8,1174.9h3.6
			c0.8,0,1.4-0.2,1.9-0.4c0.6-0.4,0.8-0.9,0.8-1.6s-0.3-1.3-0.7-1.6c-0.5-0.4-1.1-0.5-2-0.5h-3.6V1174.9z"/>
		<path class="st3" d="M88,1165.2c0.7,0.6,1,1.3,1,2.3c0,1.3-0.6,2.1-1.9,2.6c0.7,0.2,1.2,0.5,1.5,1c0.4,0.4,0.6,1,0.6,1.7
			c0,1-0.4,1.9-1.1,2.5c-0.7,0.7-1.7,1-2.9,1c-1.1,0-2-0.3-2.7-0.8c-0.8-0.7-1.3-1.6-1.4-2.9h1.3c0,0.9,0.3,1.6,0.9,2
			c0.5,0.4,1.1,0.6,1.8,0.6c0.8,0,1.5-0.2,2-0.7c0.4-0.4,0.7-1,0.7-1.7c0-0.7-0.2-1.2-0.7-1.6c-0.4-0.4-1.1-0.6-1.9-0.6h-0.9v-1h0.9
			c0.8,0,1.3-0.2,1.7-0.5c0.4-0.4,0.6-0.8,0.6-1.5c0-0.6-0.2-1.1-0.6-1.5c-0.4-0.4-1-0.6-1.7-0.6c-0.8,0-1.4,0.2-1.8,0.6
			c-0.4,0.4-0.7,1-0.8,1.8h-1.3c0.1-1.1,0.5-2,1.2-2.6c0.7-0.6,1.6-0.9,2.6-0.9S87.4,1164.6,88,1165.2z"/>
		<path class="st3" d="M92.9,1174.4c0.2,0.2,0.3,0.4,0.3,0.7c0,0.3-0.1,0.5-0.3,0.7c-0.2,0.2-0.4,0.3-0.7,0.3
			c-0.3,0-0.5-0.1-0.7-0.3c-0.2-0.2-0.3-0.4-0.3-0.7c0-0.3,0.1-0.5,0.3-0.7c0.2-0.2,0.4-0.3,0.7-0.3
			C92.4,1174.1,92.7,1174.2,92.9,1174.4z"/>
		<path class="st3" d="M102.2,1166.2c0.6,1,0.9,2.4,0.9,4.1c0,1.7-0.3,3.1-0.9,4.1c-0.7,1.2-1.7,1.8-3.1,1.8c-1.4,0-2.4-0.6-3.1-1.8
			c-0.6-1-0.9-2.4-0.9-4.1c0-1.7,0.3-3.1,0.9-4.1c0.7-1.2,1.7-1.8,3.1-1.8C100.4,1164.3,101.5,1164.9,102.2,1166.2z M96.9,1167.1
			c-0.3,0.8-0.5,1.8-0.5,3.2c0,1.3,0.2,2.4,0.5,3.2c0.4,1.1,1.2,1.6,2.2,1.6s1.8-0.6,2.2-1.6c0.3-0.8,0.5-1.8,0.5-3.2
			c0-1.3-0.2-2.4-0.5-3.2c-0.4-1.1-1.2-1.6-2.2-1.6S97.3,1166,96.9,1167.1z"/>
		<path class="st3" d="M117.6,1163c2,2.2,4.4,4,7,5.3l-0.6,1.1c-2.7-1.4-4.9-3.2-6.8-5.4c-1.7,2.1-4,3.9-6.9,5.4l-0.6-1.1
			c2.8-1.4,5.2-3.2,7.1-5.3H117.6z M118.3,1167.2v3.6h4.4v1.1h-4.4v3.9h5.5v1.1h-13.3v-1.1h2.4v-6.3h1.1v6.3h3.1v-8.6H118.3z"/>
		<path class="st3" d="M132.1,1163.1v12.7h2.3v-12.7h1.2v12.7h4.8v1.1h-14.2v-1.1h4.8v-12.7H132.1z M129.7,1173.4l-1.1,0.3
			c-0.6-2.6-1.3-5-2.2-7.4l1-0.3C128.3,1168.1,129.1,1170.6,129.7,1173.4z M139.9,1166.3c-0.6,2.8-1.4,5.2-2.4,7.3l-1-0.4
			c0.9-1.9,1.7-4.3,2.4-7.2L139.9,1166.3z"/>
		<path class="st3" d="M147,1163.1v4.2h0.9v1.1h-3.8v0.8c0,0.5,0,1,0,1.4h3.1v6.8H146v-5.7h-2c-0.2,2.4-0.6,4.2-1.3,5.5l-0.9-0.8
			c0.7-1.5,1.1-4,1.1-7.3v-5.9h1.1v3.9h1.7v-4.2H147z M149.9,1170.4c-0.1,3-0.6,5.3-1.6,7.1l-0.8-0.8c0.8-1.5,1.2-3.6,1.3-6.3v-6.4
			c2.5,0,4.8-0.4,6.8-1l0.6,1c-1.9,0.5-4,0.9-6.3,1v2.5h5.9v1c-0.4,2.2-1.1,4.1-2.1,5.6c0.8,1.1,1.7,1.9,2.9,2.4l-0.6,1
			c-1.2-0.6-2.2-1.5-3-2.5c-0.9,1-1.9,1.9-3.2,2.5l-0.6-1c1.2-0.7,2.2-1.5,3-2.5c-0.9-1.5-1.6-3.3-1.9-5.5h-0.5V1170.4z M153,1173.1
			c0.8-1.3,1.4-2.8,1.6-4.5h-3.2C151.8,1170.4,152.3,1171.9,153,1173.1z"/>
		<path class="st3" d="M172,1165.4c0.8,0.7,1.3,1.6,1.5,2.8h-1.3c-0.2-0.9-0.6-1.5-1.2-2c-0.6-0.5-1.4-0.7-2.4-0.7
			c-1.2,0-2.2,0.4-3,1.3c-0.7,0.9-1.1,2-1.1,3.5c0,1.4,0.4,2.6,1.1,3.4c0.8,0.9,1.9,1.3,3.4,1.3c0.6,0,1.2-0.1,1.8-0.3
			c0.6-0.2,1-0.4,1.4-0.6v-2.9h-3.6v-1.1h4.9v4.7c-0.5,0.4-1.2,0.8-2,1c-0.8,0.3-1.7,0.4-2.7,0.4c-1.8,0-3.2-0.6-4.2-1.7
			c-0.9-1.1-1.4-2.5-1.4-4.2c0-1.7,0.4-3.1,1.4-4.2c1-1.2,2.3-1.8,4-1.8C170,1164.3,171.1,1164.7,172,1165.4z"/>
		<path class="st3" d="M180.5,1164.6l4.5,11.4h-1.4l-1.2-3.2h-5.2l-1.2,3.2h-1.4l4.5-11.4H180.5z M182,1171.7l-2.2-5.7h-0.1
			l-2.2,5.7H182z"/>
		<path class="st3" d="M193.5,1163.4l1.1,0.2l-0.9,3.2h2.8c0.3-1.2,0.6-2.5,0.8-3.9l1.2,0.1c-0.2,1.3-0.5,2.6-0.8,3.8h7.5v1.1h-7.8
			c-0.2,0.6-0.4,1.2-0.6,1.8h6.5v1c-0.4,1.4-1.3,2.6-2.6,3.7c1.3,0.8,2.9,1.5,4.7,2.1l-0.6,1.1c-2-0.8-3.7-1.6-5.1-2.4
			c-1.3,0.9-2.9,1.8-4.9,2.5l-0.6-1.1c1.8-0.7,3.3-1.4,4.5-2.2c-1.2-1-2.1-2-2.7-3.1c-1.2,2.5-2.7,4.5-4.5,6l-0.6-1.1
			c2.3-2,4-4.8,5.2-8.4h-4L193.5,1163.4z M199.7,1173.7c1.2-0.9,2-1.9,2.4-3H197C197.5,1171.8,198.4,1172.8,199.7,1173.7z
			 M204,1165.6l-0.8,0.8c-0.7-0.8-1.6-1.7-2.8-2.7l0.8-0.8C202.3,1163.8,203.2,1164.7,204,1165.6z"/>
		<path class="st3" d="M212.1,1163.1v4.2h0.9v1.1h-3.8v0.8c0,0.5,0,1,0,1.4h3.1v6.8h-1.1v-5.7h-2c-0.2,2.4-0.6,4.2-1.3,5.5l-0.9-0.8
			c0.7-1.5,1.1-4,1.1-7.3v-5.9h1.1v3.9h1.7v-4.2H212.1z M215,1170.4c-0.1,3-0.6,5.3-1.6,7.1l-0.8-0.8c0.8-1.5,1.2-3.6,1.3-6.3v-6.4
			c2.5,0,4.8-0.4,6.8-1l0.6,1c-1.9,0.5-4,0.9-6.3,1v2.5h5.9v1c-0.4,2.2-1.1,4.1-2.1,5.6c0.8,1.1,1.7,1.9,2.9,2.4l-0.6,1
			c-1.2-0.6-2.2-1.5-3-2.5c-0.9,1-1.9,1.9-3.2,2.5l-0.6-1c1.2-0.7,2.2-1.5,3-2.5c-0.9-1.5-1.6-3.3-1.9-5.5H215V1170.4z
			 M218.2,1173.1c0.8-1.3,1.4-2.8,1.6-4.5h-3.2C216.9,1170.4,217.5,1171.9,218.2,1173.1z"/>
	</g>
	<g class="st0">
		<path class="st2" d="M47.9,1228.6c0.8,1.1,1.2,2.6,1.2,4.6c0,2.1-0.5,3.8-1.3,5.1c-0.9,1.3-2.1,1.9-3.5,1.9c-2.5,0-4-1.2-4.3-3.5
			H42c0.3,1.2,1,1.8,2.2,1.8c0.8,0,1.5-0.4,2.1-1.3c0.5-0.8,0.7-1.8,0.7-3v-0.2H47c-0.4,0.5-0.8,0.9-1.4,1.2
			c-0.5,0.2-1.1,0.4-1.7,0.4c-1.3,0-2.3-0.4-3-1.2c-0.8-0.8-1.1-1.8-1.1-3.1c0-1.3,0.4-2.4,1.3-3.2c0.9-0.8,1.9-1.3,3.2-1.3
			C45.8,1226.9,47,1227.5,47.9,1228.6z M42.5,1229.4c-0.5,0.5-0.7,1.2-0.7,1.9c0,0.8,0.2,1.4,0.7,1.9c0.4,0.5,1,0.7,1.8,0.7
			c0.8,0,1.4-0.3,1.8-0.7c0.4-0.5,0.7-1.1,0.7-2s-0.2-1.5-0.7-1.9c-0.5-0.5-1.1-0.7-1.8-0.7C43.6,1228.6,43,1228.9,42.5,1229.4z"/>
		<path class="st2" d="M59.6,1242l-1.4-1.3c1.1-1.6,1.7-3.6,1.7-6v-8.8h10.9v14.1c0,1.2-0.6,1.8-1.8,1.8h-2.3l-0.5-1.8
			c0.8,0.1,1.5,0.1,2.2,0.1c0.4,0,0.5-0.3,0.5-0.7v-3h-7.2C61.4,1238.6,60.7,1240.5,59.6,1242z M68.8,1227.6h-7.1v2.5h7.1V1227.6z
			 M61.7,1234.5h7.1v-2.7h-7.1V1234.5z"/>
	</g>
	<g class="st0">
		<path class="st3" d="M54.2,1265.8v1.2H39.8v-1.2H54.2z"/>
		<path class="st3" d="M56,1267.3l-0.3-1.2c1.7-2,2.9-4.4,3.6-7l1,0.5c-0.4,1.3-0.9,2.6-1.6,3.8v10.5h-1.1v-8.6
			C57.1,1266,56.5,1266.7,56,1267.3z M64.2,1261.9v-2.8h1.1v2.8h4.4v1.1h-3.3c0.7,2.6,2,5,3.9,7.1l-0.8,0.9c-2-2.4-3.3-5-4-8h-0.2
			v6.4h2.5v1.1h-2.5v3.3h-1.1v-3.3h-2.4v-1.1h2.4v-6.4H64c-0.8,3.3-2.2,6.1-4.2,8.2l-0.6-1c1.8-1.9,3.1-4.3,3.8-7.2H60v-1.1H64.2z"
			/>
		<path class="st3" d="M77.6,1259.6c-0.6,1.3-1.3,2.6-2.1,3.8v10.5h-1.2v-9.1c-0.7,0.8-1.5,1.5-2.4,2.2l-0.4-1.2
			c2.3-2,3.9-4.2,4.9-6.7L77.6,1259.6z M80.9,1273.6c-1.1,0-1.7-0.6-1.7-1.7v-4.9c-0.7,0.4-1.4,0.7-2.1,1.1l-0.5-1.1
			c0.9-0.4,1.8-0.8,2.6-1.3v-6.4h1.2v5.7c1.7-1.1,3.2-2.4,4.4-3.8l0.8,0.9c-1.5,1.6-3.2,3-5.2,4.3v5.4c0,0.5,0.3,0.8,0.8,0.8h2.6
			c0.4,0,0.7-0.1,0.9-0.4c0.2-0.3,0.3-1.2,0.4-2.8l1.1,0.4c-0.1,1.8-0.3,3-0.6,3.3c-0.3,0.4-0.8,0.6-1.6,0.6H80.9z"/>
		<path class="st3" d="M91.8,1266.8c-0.1,0.3-0.2,0.6-0.3,0.9h3.3v0.9c-0.4,1.1-0.9,2-1.8,2.7c0.8,0.4,1.5,0.7,2.2,1.1l-0.6,0.9
			c-0.7-0.4-1.5-0.8-2.5-1.3c-1.1,0.7-2.4,1.3-4,1.8l-0.5-1c1.3-0.4,2.4-0.8,3.4-1.3c-0.7-0.3-1.4-0.6-2.2-0.9
			c0.4-0.7,0.8-1.4,1.1-2H88v-1h2.3c0.1-0.4,0.3-0.7,0.4-1L91.8,1266.8z M91.2,1262.3v-3.1h1.1v3.1h2.9v1h-2.9v0.2
			c0.9,0.4,1.8,0.9,2.7,1.5l-0.6,0.9c-0.8-0.6-1.5-1.2-2.1-1.5v2.1h-1.1v-3c-0.5,1.3-1.5,2.4-2.9,3.3l-0.6-0.9
			c1.2-0.7,2.1-1.5,2.6-2.4h-2.3v-1H91.2z M90.3,1261.5l-0.8,0.4c-0.3-0.8-0.7-1.5-1.1-2.1l0.9-0.3
			C89.7,1260.1,90,1260.8,90.3,1261.5z M93.8,1268.7h-2.8c-0.3,0.5-0.5,1.1-0.9,1.5c0.6,0.2,1.2,0.4,1.8,0.7
			C92.8,1270.2,93.4,1269.5,93.8,1268.7z M95,1259.8c-0.3,0.7-0.7,1.4-1.2,2.1l-0.8-0.4c0.5-0.7,0.9-1.4,1.2-2L95,1259.8z
			 M96.8,1265.3c-0.3,0.7-0.6,1.4-0.9,2l-0.7-0.9c0.9-1.8,1.6-4.2,1.9-7.3l1.1,0.2c-0.1,0.8-0.2,1.6-0.4,2.3h4.2v1.1h-1
			c-0.1,2.7-0.6,5-1.5,6.9c0.8,1.4,1.8,2.5,3,3.3l-0.6,0.9c-1.1-0.8-2.1-1.9-2.9-3.2c-0.8,1.3-1.8,2.4-3,3.2l-0.6-1
			c1.2-0.9,2.2-2,3-3.3C97.7,1268.3,97.2,1266.9,96.8,1265.3z M97.3,1263.6c0.4,1.9,0.9,3.5,1.6,4.8c0.6-1.6,1-3.5,1-5.7h-2.4
			L97.3,1263.6z"/>
		<path class="st3" d="M104.3,1273.7l-0.2-1.1c0.4,0,0.8,0.1,1.2,0.1c0.4,0,0.6-0.2,0.6-0.7v-3.9c-0.6,0.2-1.3,0.5-1.9,0.7l-0.3-1.1
			c0.7-0.2,1.5-0.4,2.2-0.7v-3.6h-1.9v-1.1h1.9v-3h1.1v3h1.5v1.1H107v3.2c0.5-0.2,1-0.5,1.5-0.7v1.1c-0.5,0.3-1,0.5-1.5,0.7v4.7
			c0,0.9-0.4,1.4-1.3,1.4H104.3z M108.5,1273.9l-0.9-0.8c1.1-2.1,1.7-4.9,1.7-8.2v-5h8.4v3.9h-3v1.9h3.4v1h-3.4v2h2.7v5.2h-1.1v-0.8
			h-4.3v0.8H111v-5.2h2.7v-2h-3.3C110.2,1269.4,109.6,1271.8,108.5,1273.9z M110.5,1263.7v1.1c0,0.3,0,0.5,0,0.8h3.2v-1.9H110.5z
			 M110.5,1260.9v1.8h6.2v-1.8H110.5z M116.4,1272.1v-2.4h-4.3v2.4H116.4z"/>
		<path class="st3" d="M129.9,1273.8l-0.3-1.2l2.1,0c0.4,0,0.6-0.2,0.6-0.7v-11h-10.5v12.9h-1.2v-14h12.8v12.4c0,1-0.5,1.6-1.4,1.6
			H129.9z M131.1,1262.8v1.1h-8.2v-1.1H131.1z M130.2,1265.6v5.2h-6.4v-5.2H130.2z M129.1,1266.6h-4.2v3.1h4.2V1266.6z"/>
		<path class="st3" d="M143.7,1259.2v1.9h4.9v1.1h-4.9v2.2h6.4v1.1h-6.4v4.8h-1.2v-4.8h-6.7v-1.1h2.4v-4h1.2v4h3v-5.2H143.7z
			 M140.6,1267c-1,1.5-2.1,2.8-3.5,3.9l-0.7-0.9c1.4-1.1,2.5-2.3,3.4-3.7L140.6,1267z M148.8,1267.3c-2,4.4-5.9,6.7-11.6,6.7
			l-0.4-1.1c5.5,0,9.2-2,10.9-6.1L148.8,1267.3z"/>
		<path class="st3" d="M165.5,1259.9v1.1h-6v6h6.6v1.1h-6.6v5.7h-1.2v-5.7h-6.4v-1.1h6.4v-6h-5.8v-1.1H165.5z M156.2,1265.7
			l-1.1,0.5c-0.5-1.4-1.1-2.6-1.7-3.7l1.1-0.5C155.1,1263.2,155.7,1264.4,156.2,1265.7z M164.6,1262.5c-0.5,1.3-1.1,2.5-1.9,3.7
			l-1-0.5c0.8-1.2,1.4-2.5,1.9-3.7L164.6,1262.5z"/>
		<path class="st3" d="M168.3,1264.5c1.4-0.5,3.2-2.3,5.2-5.3l1.2,0.4c-1.4,2-2.9,3.7-4.3,4.9c3.1-0.1,6-0.3,8.7-0.6
			c-0.6-0.9-1.2-1.7-1.9-2.4l1-0.5c1.4,1.6,2.7,3.4,3.8,5.3l-1.1,0.5c-0.4-0.7-0.8-1.3-1.2-1.9c-3.4,0.3-7.1,0.5-11.3,0.7
			L168.3,1264.5z M180.3,1273.9h-1.2v-0.8h-8.4v0.8h-1.2v-6.7h10.7V1273.9z M179.2,1272v-3.7h-8.4v3.7H179.2z"/>
		<path class="st3" d="M198,1260.9v1.1h-4v10.3h-1.3V1262h-4v-1.1H198z"/>
		<path class="st3" d="M201,1261.2c0.2,0.2,0.3,0.4,0.3,0.7c0,0.3-0.1,0.5-0.3,0.7c-0.2,0.2-0.4,0.3-0.7,0.3s-0.5-0.1-0.7-0.3
			c-0.2-0.2-0.3-0.4-0.3-0.7c0-0.3,0.1-0.5,0.3-0.7c0.2-0.2,0.4-0.3,0.7-0.3S200.8,1261,201,1261.2z M200.9,1264v8.3h-1.3v-8.3
			H200.9z"/>
		<path class="st3" d="M207.6,1260.9c1.8,0,3.2,0.5,4.1,1.6c0.8,1,1.3,2.4,1.3,4.1c0,1.8-0.5,3.2-1.4,4.1c-1,1-2.3,1.6-4.1,1.6h-4
			v-11.4H207.6z M204.8,1271.1h2.4c1.5,0,2.6-0.4,3.4-1.2c0.7-0.8,1.1-1.9,1.1-3.4c0-1.5-0.3-2.7-1-3.4c-0.7-0.8-1.8-1.2-3.3-1.2
			h-2.6V1271.1z"/>
		<path class="st3" d="M219.9,1260.9c1.1,0,1.9,0.3,2.5,0.8c0.6,0.5,0.9,1.2,0.9,2.1c0,0.6-0.2,1.2-0.5,1.7
			c-0.4,0.4-0.8,0.7-1.4,0.9c0.8,0.1,1.3,0.4,1.7,0.9c0.4,0.5,0.6,1.1,0.6,1.9c0,1.1-0.4,2-1.2,2.5c-0.7,0.4-1.6,0.7-2.8,0.7h-5.1
			v-11.4H219.9z M216.1,1265.8h3.5c0.8,0,1.4-0.2,1.8-0.5c0.4-0.3,0.6-0.8,0.6-1.5c0-0.6-0.2-1.1-0.6-1.4c-0.4-0.3-1-0.5-1.8-0.5
			h-3.5V1265.8z M216.1,1271.2h3.7c0.8,0,1.4-0.2,1.9-0.4c0.6-0.4,0.8-0.9,0.8-1.6s-0.3-1.3-0.7-1.6c-0.5-0.4-1.1-0.5-2-0.5h-3.7
			V1271.2z"/>
		<path class="st3" d="M235,1260.9c1.8,0,3.2,0.5,4.1,1.6c0.8,1,1.3,2.4,1.3,4.1c0,1.8-0.5,3.2-1.4,4.1c-1,1-2.3,1.6-4.1,1.6h-4
			v-11.4H235z M232.2,1271.1h2.4c1.5,0,2.6-0.4,3.4-1.2c0.7-0.8,1.1-1.9,1.1-3.4c0-1.5-0.3-2.7-1-3.4c-0.7-0.8-1.8-1.2-3.3-1.2h-2.6
			V1271.1z"/>
		<path class="st3" d="M248.3,1264.7c0.5,0.5,0.7,1.3,0.7,2.3v5.3h-1.2v-1.4c-0.3,0.4-0.8,0.8-1.3,1.1c-0.6,0.3-1.3,0.5-2.1,0.5
			c-0.8,0-1.5-0.2-2-0.6c-0.5-0.4-0.8-1-0.8-1.7c0-0.9,0.4-1.6,1.1-2.1c0.7-0.4,1.6-0.7,2.9-0.7l2,0v-0.4c0-1.4-0.7-2.1-2.2-2.1
			c-0.6,0-1.1,0.1-1.5,0.4c-0.4,0.3-0.7,0.7-0.8,1.2l-1.3-0.1c0.2-0.9,0.6-1.5,1.3-1.9c0.6-0.4,1.4-0.6,2.4-0.6
			C246.9,1263.8,247.7,1264.1,248.3,1264.7z M245.8,1268.3c-1.9,0-2.8,0.6-2.8,1.8c0,0.4,0.1,0.7,0.5,0.9c0.3,0.2,0.7,0.4,1.2,0.4
			c0.8,0,1.5-0.3,2.1-0.8c0.6-0.5,0.9-1.1,0.9-1.7v-0.7L245.8,1268.3z"/>
		<path class="st3" d="M253.2,1264h2v1.1h-2v5.3c0,0.3,0,0.5,0.2,0.7c0.1,0.1,0.3,0.2,0.6,0.2h1.1v1.1h-1.2c-0.7,0-1.2-0.2-1.5-0.5
			c-0.3-0.3-0.4-0.8-0.4-1.4v-5.3h-1.7v-1.1h1.7v-2.1l1.3-0.5V1264z"/>
		<path class="st3" d="M262.9,1264.7c0.5,0.5,0.7,1.3,0.7,2.3v5.3h-1.2v-1.4c-0.3,0.4-0.8,0.8-1.3,1.1c-0.6,0.3-1.3,0.5-2.1,0.5
			c-0.8,0-1.5-0.2-2-0.6c-0.5-0.4-0.8-1-0.8-1.7c0-0.9,0.4-1.6,1.1-2.1c0.7-0.4,1.6-0.7,2.9-0.7l2,0v-0.4c0-1.4-0.7-2.1-2.2-2.1
			c-0.6,0-1.1,0.1-1.5,0.4c-0.4,0.3-0.7,0.7-0.8,1.2l-1.3-0.1c0.2-0.9,0.6-1.5,1.3-1.9c0.6-0.4,1.4-0.6,2.4-0.6
			C261.5,1263.8,262.3,1264.1,262.9,1264.7z M260.5,1268.3c-1.9,0-2.8,0.6-2.8,1.8c0,0.4,0.1,0.7,0.5,0.9c0.3,0.2,0.7,0.4,1.2,0.4
			c0.8,0,1.5-0.3,2.1-0.8c0.6-0.5,0.9-1.1,0.9-1.7v-0.7L260.5,1268.3z"/>
		<path class="st3" d="M272.8,1260.9l4.3,9.7h0l4.2-9.7h1.6v11.4h-1.3v-9.1h0l-4,9.1h-1.2l-4-9.1h0v9.1h-1.3v-11.4H272.8z"/>
		<path class="st3" d="M286.8,1261.2c0.2,0.2,0.3,0.4,0.3,0.7c0,0.3-0.1,0.5-0.3,0.7c-0.2,0.2-0.4,0.3-0.7,0.3
			c-0.3,0-0.5-0.1-0.7-0.3c-0.2-0.2-0.3-0.4-0.3-0.7c0-0.3,0.1-0.5,0.3-0.7c0.2-0.2,0.4-0.3,0.7-0.3
			C286.4,1260.9,286.6,1261,286.8,1261.2z M286.8,1264v8.3h-1.3v-8.3H286.8z"/>
		<path class="st3" d="M295.4,1265.4v-1.4h1.3v7.7c0,2.6-1.3,4-3.8,4c-1.1,0-2-0.2-2.6-0.7c-0.6-0.4-1-1.1-1.1-2h1.3
			c0.1,0.6,0.3,1,0.7,1.2c0.4,0.3,0.9,0.4,1.7,0.4c1.7,0,2.5-0.9,2.5-2.8v-1.5c-0.6,1.1-1.5,1.7-2.8,1.7c-1.2,0-2.1-0.4-2.7-1.2
			c-0.7-0.8-1-1.7-1-2.9c0-1.2,0.3-2.2,1-3c0.7-0.8,1.6-1.2,2.7-1.2C293.8,1263.8,294.8,1264.3,295.4,1265.4z M290.8,1265.7
			c-0.4,0.5-0.7,1.3-0.7,2.2c0,0.9,0.2,1.6,0.6,2.1c0.4,0.6,1.1,0.9,2,0.9c0.8,0,1.5-0.3,2-0.9c0.4-0.6,0.7-1.3,0.7-2.2
			c0-0.9-0.2-1.7-0.7-2.2c-0.5-0.6-1.1-0.9-1.9-0.9C291.9,1264.8,291.3,1265.1,290.8,1265.7z"/>
		<path class="st3" d="M303.4,1264v1.3c-0.4-0.1-0.8-0.2-1.2-0.2c-0.6,0-1.2,0.3-1.6,0.8c-0.4,0.5-0.7,1.2-0.7,2v4.4h-1.3v-8.3h1.3
			v1.4c0.2-0.5,0.5-0.9,0.9-1.1c0.4-0.4,0.9-0.5,1.5-0.5C302.7,1263.8,303.1,1263.8,303.4,1264z"/>
		<path class="st3" d="M310.7,1264.7c0.5,0.5,0.7,1.3,0.7,2.3v5.3h-1.2v-1.4c-0.3,0.4-0.8,0.8-1.3,1.1c-0.6,0.3-1.3,0.5-2.1,0.5
			c-0.8,0-1.5-0.2-2-0.6c-0.5-0.4-0.8-1-0.8-1.7c0-0.9,0.4-1.6,1.1-2.1c0.7-0.4,1.6-0.7,2.9-0.7l2,0v-0.4c0-1.4-0.7-2.1-2.2-2.1
			c-0.6,0-1.1,0.1-1.5,0.4c-0.4,0.3-0.7,0.7-0.8,1.2l-1.3-0.1c0.2-0.9,0.6-1.5,1.3-1.9c0.6-0.4,1.4-0.6,2.4-0.6
			C309.3,1263.8,310.1,1264.1,310.7,1264.7z M308.2,1268.3c-1.9,0-2.8,0.6-2.8,1.8c0,0.4,0.1,0.7,0.5,0.9c0.3,0.2,0.7,0.4,1.2,0.4
			c0.8,0,1.5-0.3,2.1-0.8c0.6-0.5,0.9-1.1,0.9-1.7v-0.7L308.2,1268.3z"/>
		<path class="st3" d="M315.6,1264h2v1.1h-2v5.3c0,0.3,0,0.5,0.2,0.7c0.1,0.1,0.3,0.2,0.6,0.2h1.1v1.1h-1.2c-0.7,0-1.2-0.2-1.5-0.5
			c-0.3-0.3-0.4-0.8-0.4-1.4v-5.3h-1.7v-1.1h1.7v-2.1l1.3-0.5V1264z"/>
		<path class="st3" d="M320.8,1261.2c0.2,0.2,0.3,0.4,0.3,0.7c0,0.3-0.1,0.5-0.3,0.7c-0.2,0.2-0.4,0.3-0.7,0.3s-0.5-0.1-0.7-0.3
			c-0.2-0.2-0.3-0.4-0.3-0.7c0-0.3,0.1-0.5,0.3-0.7c0.2-0.2,0.4-0.3,0.7-0.3S320.6,1261,320.8,1261.2z M320.8,1264v8.3h-1.3v-8.3
			H320.8z"/>
		<path class="st3" d="M329.8,1265.1c0.7,0.8,1.1,1.8,1.1,3.1c0,1.2-0.4,2.3-1,3.1c-0.8,0.9-1.7,1.3-3,1.3c-1.2,0-2.2-0.4-3-1.3
			c-0.7-0.8-1.1-1.8-1.1-3.1c0-1.2,0.4-2.3,1.1-3.1c0.7-0.9,1.7-1.3,3-1.3C328.1,1263.8,329.1,1264.2,329.8,1265.1z M324.8,1265.9
			c-0.4,0.6-0.7,1.4-0.7,2.3c0,0.9,0.2,1.7,0.7,2.3c0.5,0.7,1.2,1,2,1c0.9,0,1.6-0.3,2.1-1c0.4-0.6,0.7-1.4,0.7-2.3
			c0-0.9-0.2-1.7-0.7-2.3c-0.5-0.7-1.2-1-2.1-1C326,1264.9,325.3,1265.2,324.8,1265.9z"/>
		<path class="st3" d="M339.5,1267.2v5.1h-1.3v-5c0-1.6-0.7-2.4-2.2-2.4c-0.6,0-1.1,0.2-1.5,0.6c-0.4,0.4-0.7,1-0.7,1.8v5h-1.3v-8.3
			h1.3v1.2c0.3-0.5,0.7-0.8,1.1-1.1c0.4-0.3,0.9-0.4,1.5-0.4C338.5,1263.8,339.5,1264.9,339.5,1267.2z"/>
		<path class="st3" d="M350.6,1260.9v11.4h-1.3v-9.8c-0.7,0.7-1.6,1.2-2.7,1.6v-1.3c0.5-0.1,1.1-0.4,1.6-0.7c0.5-0.4,1-0.7,1.4-1.2
			H350.6z"/>
		<path class="st3" d="M355.1,1270.7c0.2,0.2,0.3,0.4,0.3,0.7c0,0.3-0.1,0.5-0.3,0.7c-0.2,0.2-0.4,0.3-0.7,0.3
			c-0.3,0-0.5-0.1-0.7-0.3c-0.2-0.2-0.3-0.4-0.3-0.7c0-0.3,0.1-0.5,0.3-0.7c0.2-0.2,0.4-0.3,0.7-0.3
			C354.6,1270.4,354.9,1270.5,355.1,1270.7z"/>
		<path class="st3" d="M364.4,1262.4c0.6,1,0.9,2.4,0.9,4.1c0,1.7-0.3,3.1-0.9,4.1c-0.7,1.2-1.7,1.8-3.1,1.8c-1.4,0-2.4-0.6-3.1-1.8
			c-0.6-1-0.9-2.4-0.9-4.1c0-1.7,0.3-3.1,0.9-4.1c0.7-1.2,1.7-1.8,3.1-1.8C362.6,1260.6,363.7,1261.2,364.4,1262.4z M359.1,1263.4
			c-0.3,0.8-0.5,1.8-0.5,3.2c0,1.3,0.2,2.4,0.5,3.2c0.4,1.1,1.2,1.6,2.2,1.6s1.8-0.6,2.2-1.6c0.3-0.8,0.5-1.8,0.5-3.2
			c0-1.3-0.2-2.4-0.5-3.2c-0.4-1.1-1.2-1.6-2.2-1.6S359.5,1262.3,359.1,1263.4z"/>
	</g>
	<g class="st0">
		<path class="st3" d="M48.4,1293.4c0.8,0.7,1.3,1.6,1.5,2.8h-1.3c-0.2-0.9-0.6-1.5-1.2-2c-0.6-0.5-1.4-0.7-2.4-0.7
			c-1.2,0-2.2,0.4-3,1.3c-0.7,0.9-1.1,2-1.1,3.5c0,1.4,0.4,2.6,1.1,3.4c0.8,0.9,1.9,1.3,3.4,1.3c0.6,0,1.2-0.1,1.8-0.3
			c0.6-0.2,1-0.4,1.4-0.6v-2.9h-3.6v-1.1h4.9v4.7c-0.5,0.4-1.2,0.8-2,1c-0.8,0.3-1.7,0.4-2.7,0.4c-1.8,0-3.2-0.6-4.2-1.7
			c-0.9-1.1-1.4-2.5-1.4-4.2c0-1.7,0.4-3.1,1.4-4.2c1-1.2,2.3-1.8,4-1.8C46.5,1292.3,47.6,1292.7,48.4,1293.4z"/>
		<path class="st3" d="M57,1292.6l4.5,11.4h-1.4l-1.2-3.2h-5.2l-1.2,3.2H51l4.5-11.4H57z M58.4,1299.7l-2.2-5.7h-0.1l-2.2,5.7H58.4z
			"/>
		<path class="st3" d="M69.9,1291.4l1.1,0.2l-0.9,3.2H73c0.3-1.2,0.6-2.5,0.8-3.9l1.2,0.1c-0.2,1.3-0.5,2.6-0.8,3.8h7.5v1.1h-7.8
			c-0.2,0.6-0.4,1.2-0.6,1.8h6.5v1c-0.4,1.4-1.3,2.6-2.6,3.7c1.3,0.8,2.9,1.5,4.7,2.1l-0.6,1.1c-2-0.8-3.7-1.6-5.1-2.4
			c-1.3,0.9-2.9,1.8-4.9,2.5l-0.6-1.1c1.8-0.7,3.3-1.4,4.5-2.2c-1.2-1-2.1-2-2.7-3.1c-1.2,2.5-2.7,4.5-4.5,6l-0.6-1.1
			c2.3-2,4-4.8,5.2-8.4h-4L69.9,1291.4z M76.2,1301.7c1.2-0.9,2-1.9,2.4-3h-5.2C74,1299.8,74.9,1300.8,76.2,1301.7z M80.4,1293.6
			l-0.8,0.8c-0.7-0.8-1.6-1.7-2.8-2.7l0.8-0.8C78.7,1291.8,79.7,1292.7,80.4,1293.6z"/>
		<path class="st3" d="M88.6,1291.1v4.2h0.9v1.1h-3.8v0.8c0,0.5,0,1,0,1.4h3.1v6.8h-1.1v-5.7h-2c-0.2,2.4-0.6,4.2-1.3,5.5l-0.9-0.8
			c0.7-1.5,1.1-4,1.1-7.3v-5.9h1.1v3.9h1.7v-4.2H88.6z M91.5,1298.4c-0.1,3-0.6,5.3-1.6,7.1l-0.8-0.8c0.8-1.5,1.2-3.6,1.3-6.3v-6.4
			c2.5,0,4.8-0.4,6.8-1l0.6,1c-1.9,0.5-4,0.9-6.3,1v2.5h5.9v1c-0.4,2.2-1.1,4.1-2.1,5.6c0.8,1.1,1.7,1.9,2.9,2.4l-0.6,1
			c-1.2-0.6-2.2-1.5-3-2.5c-0.9,1-1.9,1.9-3.2,2.5l-0.6-1c1.2-0.7,2.2-1.5,3-2.5c-0.9-1.5-1.6-3.3-1.9-5.5h-0.5V1298.4z
			 M94.6,1301.1c0.8-1.3,1.4-2.8,1.6-4.5h-3.2C93.4,1298.4,93.9,1299.9,94.6,1301.1z"/>
	</g>
	<g class="st0">
		<path class="st1" d="M44.6,1413c5.2-4.3,9.3-7.9,12.4-10.6c3-2.8,5.6-5.7,7.6-8.7s3.1-6,3.1-8.9c0-2.2-0.5-3.9-1.5-5.1
			c-1-1.2-2.5-1.8-4.6-1.8c-2,0-3.6,0.8-4.8,2.3c-1.1,1.5-1.7,3.7-1.7,6.4H42c0.1-4.5,1.1-8.3,2.9-11.4c1.8-3,4.3-5.3,7.3-6.7
			c3-1.4,6.4-2.2,10-2.2c6.3,0,11.1,1.6,14.4,4.9c3.2,3.3,4.8,7.5,4.8,12.7c0,5.7-1.9,11-5.8,15.9c-3.9,4.9-8.9,9.6-14.9,14.3h21.6
			v11.1H42.1V1415C43.9,1413.6,44.8,1412.9,44.6,1413z"/>
		<path class="st1" d="M93.6,1374.3c3.5-5.3,9.3-7.9,17.2-7.9c7.9,0,13.6,2.6,17.2,7.9c3.5,5.3,5.3,12.5,5.3,21.7
			c0,9.3-1.8,16.6-5.3,21.8c-3.5,5.3-9.3,7.9-17.2,7.9c-7.9,0-13.6-2.6-17.2-7.9c-3.5-5.3-5.3-12.6-5.3-21.8
			C88.3,1386.8,90.1,1379.6,93.6,1374.3z M118,1383.6c-1.2-2.9-3.6-4.4-7.3-4.4c-3.7,0-6.1,1.5-7.3,4.4c-1.2,2.9-1.8,7.1-1.8,12.4
			c0,3.6,0.2,6.6,0.6,9c0.4,2.4,1.3,4.3,2.6,5.8c1.3,1.5,3.2,2.2,5.8,2.2s4.5-0.7,5.8-2.2c1.3-1.5,2.2-3.4,2.6-5.8
			c0.4-2.4,0.6-5.4,0.6-9C119.8,1390.6,119.2,1386.5,118,1383.6z"/>
		<path class="st1" d="M139,1380.3v-12.7h22.2v58.4h-14.2v-45.7H139z"/>
		<path class="st1" d="M211.6,1379.5h-25v11c1.1-1.2,2.6-2.1,4.5-2.9c1.9-0.7,4-1.1,6.2-1.1c4,0,7.3,0.9,10,2.7
			c2.6,1.8,4.6,4.2,5.8,7c1.2,2.9,1.8,6,1.8,9.4c0,6.2-1.8,11.2-5.3,14.8c-3.5,3.7-8.5,5.5-14.9,5.5c-4.3,0-8-0.7-11.1-2.2
			c-3.1-1.5-5.6-3.5-7.3-6.1c-1.7-2.6-2.6-5.6-2.8-9H187c0.3,1.7,1.1,3,2.3,4.1c1.2,1.1,2.9,1.6,5,1.6c2.5,0,4.4-0.8,5.6-2.4
			c1.2-1.6,1.8-3.7,1.8-6.4c0-2.6-0.6-4.6-1.9-6c-1.3-1.4-3.1-2.1-5.6-2.1c-1.8,0-3.3,0.4-4.5,1.3c-1.2,0.9-1.9,2-2.3,3.5h-13.2
			v-34.8h37.4V1379.5z"/>
	</g>
	<g class="st0">
		<path class="st2" d="M47.6,1479.1v8.4h1.9v1.7h-1.9v2.8h-2v-2.8h-6.2v-2l6.3-8.1H47.6z M41.1,1487.6h4.5v-5.8h-0.1L41.1,1487.6z"
			/>
		<path class="st2" d="M59.6,1494l-1.4-1.3c1.1-1.6,1.7-3.6,1.7-6v-8.8h10.9v14.1c0,1.2-0.6,1.8-1.8,1.8h-2.3l-0.5-1.8
			c0.8,0.1,1.5,0.1,2.2,0.1c0.4,0,0.5-0.3,0.5-0.7v-3h-7.2C61.4,1490.6,60.7,1492.5,59.6,1494z M68.8,1479.6h-7.1v2.5h7.1V1479.6z
			 M61.7,1486.5h7.1v-2.7h-7.1V1486.5z"/>
	</g>
	<g class="st0">
		<path class="st3" d="M53.5,1511.9v1.1h-6v6h6.6v1.1h-6.6v5.7h-1.2v-5.7h-6.4v-1.1h6.4v-6h-5.8v-1.1H53.5z M44.2,1517.7l-1.1,0.5
			c-0.5-1.4-1.1-2.6-1.7-3.7l1.1-0.5C43.1,1515.2,43.7,1516.4,44.2,1517.7z M52.6,1514.5c-0.5,1.3-1.1,2.5-1.9,3.7l-1-0.5
			c0.8-1.2,1.4-2.5,1.9-3.7L52.6,1514.5z"/>
		<path class="st3" d="M62.1,1522.5l0.2,1.1c-1.7,0.6-3.6,1.2-5.6,1.8l-0.3-1c0.3-0.1,0.4-0.4,0.4-0.7v-3.7h4.1v-1.9H56v-1h6v4h-4.1
			v2.9C59.2,1523.5,60.7,1523,62.1,1522.5z M61.4,1512h1v3.7h-6.2v-3.7h1v2.7h1.6v-3.4h1v3.4h1.6V1512z M63.3,1521.9
			c0.2-1,0.4-2.3,0.4-3.9v-6.2H68v12.2c0,0.3,0.1,0.4,0.4,0.4h0.4c0.2,0,0.3,0,0.4-0.1c0.1-0.1,0.2-0.3,0.2-0.5
			c0-0.4,0.1-1.3,0.1-2.9l0.9,0.3c0,1.2,0,2.1-0.1,2.8c-0.1,0.6-0.2,1-0.4,1.3c-0.2,0.2-0.5,0.3-1,0.3h-0.5c-1,0-1.5-0.5-1.5-1.4
			v-11.3h-2.2v5.2c0,1.7-0.2,3.2-0.4,4.3c-0.3,1.2-0.9,2.4-1.7,3.5l-0.8-0.8C62.5,1524.1,63,1523,63.3,1521.9z"/>
		<path class="st3" d="M72.9,1522.9l-0.8-0.9c0.9-1.1,1.7-2.5,2.3-4.3l1,0.2c-0.1,0.4-0.3,0.8-0.4,1.2h4v-1.3h1.2v1.3h5.3v1h-5.3
			v1.6h4.7v1h-4.7v1.6h6v1.1H72.7v-1.1H79v-1.6h-4.4v-1H79v-1.6h-4.4C74.1,1521.2,73.5,1522.1,72.9,1522.9z M84.5,1511.7v5.7H74.1
			v-5.7H84.5z M83.4,1514.1v-1.4h-8.1v1.4H83.4z M83.4,1515h-8.1v1.4h8.1V1515z"/>
		<path class="st3" d="M88.5,1525.9l-0.9-0.8c1.1-1.9,1.7-4.4,1.7-7.7v-5.5h12.4v1.1H90.5v4.6h11.4v1.1h-5c0.1,1,0.5,1.8,1.1,2.7
			c0.9-0.5,1.7-1.2,2.5-2.2l0.8,0.8c-0.8,0.9-1.7,1.6-2.7,2.2c0.9,1,2.2,1.9,3.8,2.8l-0.8,0.9c-3.5-1.9-5.4-4.3-5.7-7.1h-2.4v5.6
			c1.3-0.3,2.4-0.7,3.4-1.1l0.2,1.1c-1.4,0.5-3,1-4.9,1.4l-0.3-1c0.3-0.1,0.5-0.4,0.5-0.8v-5.2h-1.9
			C90.2,1521.6,89.6,1524,88.5,1525.9z M100.6,1514.7v1.1h-8.7v-1.1H100.6z"/>
		<path class="st3" d="M117.7,1511c-0.6,1.1-1.2,2.2-1.5,3.3c-0.5,1.4-0.7,2.8-0.7,4.2c0,1.4,0.2,2.8,0.7,4.2
			c0.4,1.1,0.9,2.2,1.5,3.3h-1.1c-0.7-1-1.2-2.1-1.6-3.3c-0.5-1.4-0.7-2.8-0.7-4.2c0-1.4,0.2-2.8,0.7-4.2c0.4-1.2,0.9-2.3,1.6-3.3
			H117.7z"/>
		<path class="st3" d="M125.5,1511.3v14.5h-1.2v-2.7c-1.3,0.6-2.7,1.1-4.2,1.5l-0.3-1.1c1.6-0.4,3.1-0.9,4.5-1.5v-5.1h-4.2v-1.1h4.2
			v-4.4H125.5z M129.7,1525.6c-1,0-1.5-0.5-1.5-1.6v-12.8h1.2v5.4c1.4-0.5,2.7-1.2,4-2.1l0.7,0.9c-1.7,1-3.2,1.8-4.7,2.3v6.1
			c0,0.4,0.2,0.7,0.6,0.7h2c0.4,0,0.6-0.1,0.8-0.4c0.1-0.3,0.2-1.2,0.3-2.9l1.1,0.4c-0.1,1.9-0.3,3-0.5,3.4
			c-0.3,0.4-0.7,0.6-1.4,0.6H129.7z"/>
		<path class="st3" d="M140.3,1521.8c-1,1.4-2.3,2.7-3.8,3.7l-0.7-0.9c1.5-1,2.7-2.2,3.7-3.5L140.3,1521.8z M143.5,1512.9h6.6v1.1
			h-14.2v-1.1h6.5c-0.2-0.6-0.5-1.1-0.7-1.6l1.2-0.2C143.1,1511.7,143.3,1512.3,143.5,1512.9z M148.1,1515.6v4.5h-4.5v4.3
			c0,1-0.5,1.4-1.5,1.4h-1.7l-0.3-1.1c0.5,0,1.1,0.1,1.6,0.1c0.5,0,0.7-0.2,0.7-0.7v-4h-4.6v-4.5H148.1z M147,1516.7h-7.9v2.3h7.9
			V1516.7z M150.1,1524.7l-0.8,0.8c-0.9-1.2-2.1-2.4-3.6-3.7l0.8-0.8C147.9,1522.3,149.1,1523.5,150.1,1524.7z"/>
		<path class="st3" d="M153.4,1511c0.7,1,1.2,2.1,1.6,3.3c0.5,1.4,0.7,2.8,0.7,4.2c0,1.4-0.2,2.8-0.7,4.2c-0.4,1.2-1,2.3-1.6,3.3
			h-1.1c0.6-1.1,1.1-2.2,1.5-3.3c0.5-1.4,0.7-2.8,0.7-4.2c0-1.4-0.2-2.8-0.7-4.2c-0.4-1.2-0.9-2.3-1.5-3.3H153.4z"/>
		<path class="st3" d="M170.6,1515.5v-2.4c-0.8,0.1-1.6,0.2-2.4,0.3l-0.2-1.1c2.1-0.2,3.9-0.5,5.5-1l0.4,1.1
			c-0.7,0.2-1.4,0.4-2.2,0.5v2.6h2.2v1.1h-2.2v0.8c0.9,0.7,1.8,1.5,2.8,2.4l-0.7,1c-0.8-1-1.5-1.7-2.1-2.3v7.3h-1.2v-7.5
			c-0.6,1.6-1.5,3-2.6,4.3l-0.5-1.3c1.4-1.4,2.3-3,2.9-4.7H168v-1.1H170.6z M182.4,1521l-1.6,0.3v4.6h-1.2v-4.4l-5,0.8l-0.2-1.1
			l5.2-0.8v-9h1.2v8.9l1.4-0.2L182.4,1521z M178.4,1518.4l-0.8,0.8c-0.7-0.8-1.7-1.7-3-2.6l0.8-0.8
			C176.7,1516.6,177.6,1517.5,178.4,1518.4z M178.9,1514.6l-0.8,0.8c-0.7-0.8-1.7-1.6-2.9-2.5l0.8-0.8
			C177.1,1512.9,178.1,1513.7,178.9,1514.6z"/>
		<path class="st3" d="M184.2,1525.7l-0.2-1.1c0.4,0,0.8,0.1,1.2,0.1c0.4,0,0.7-0.2,0.7-0.7v-3.8c-0.6,0.3-1.3,0.5-2,0.7l-0.3-1.1
			c0.8-0.2,1.5-0.4,2.2-0.7v-3.8h-1.9v-1.1h1.9v-2.9h1.1v2.9h1.7v1.1h-1.7v3.3c0.6-0.3,1.2-0.6,1.7-0.9v1.1
			c-0.6,0.3-1.2,0.6-1.7,0.9v4.6c0,1-0.5,1.4-1.4,1.4H184.2z M193,1513.5v-2.3h1.1v2.3h3.9v1.1h-3.9v2.6h3.2v1
			c-0.6,1.8-1.5,3.3-2.8,4.5c1.1,0.8,2.4,1.5,3.9,2.2l-0.6,1c-1.6-0.7-3-1.5-4-2.4c-1.2,1-2.8,1.8-4.6,2.4l-0.5-1
			c1.7-0.6,3.1-1.3,4.3-2.2c-1.3-1.3-2.2-2.8-2.7-4.4h-0.8v-1.1h3.5v-2.6h-3.8v-1.1H193z M193.8,1522.1c1.1-1.1,1.9-2.3,2.4-3.8
			h-4.8C191.8,1519.7,192.6,1521,193.8,1522.1z"/>
		<path class="st3" d="M204.6,1522.4v3.4h-1.1v-8.4c-0.9,1.1-1.9,2.2-3.1,3.1l-0.8-1c2-1.6,3.6-3.4,4.7-5.5h-4.2v-1.1h4.8
			c0.3-0.6,0.5-1.2,0.7-1.9l1.2,0.1c-0.2,0.6-0.4,1.2-0.6,1.7h8v1.1h-8.4c-0.3,0.6-0.7,1.3-1,1.9h7.4v8.6c0,0.8-0.4,1.2-1.3,1.2
			h-1.8l-0.3-1.1c0.6,0,1.2,0.1,1.7,0.1c0.4,0,0.6-0.2,0.6-0.6v-1.8H204.6z M204.6,1518.7h6.4v-1.7h-6.4V1518.7z M204.6,1519.7v1.7
			h6.4v-1.7H204.6z"/>
		<path class="st3" d="M221.3,1511.8v0.9c-0.5,1.4-1.1,2.9-1.7,4.5c1,1.4,1.6,2.7,1.6,3.8c0,0.7-0.2,1.2-0.5,1.5
			c-0.4,0.4-1.2,0.6-2.4,0.6l-0.4-1.2c0.3,0,0.5,0.1,0.6,0.1c0.6,0,1-0.1,1.2-0.2c0.2-0.1,0.3-0.4,0.3-0.7c0-1.1-0.6-2.3-1.7-3.7
			c0.8-1.7,1.3-3.2,1.8-4.5h-2.6v12.9h-1.1v-14.1H221.3z M223.1,1518.7v5.5c1-0.3,1.9-0.7,2.9-1.1l0.3,1.1c-1.2,0.5-2.6,1-4.3,1.4
			l-0.3-1c0.2-0.1,0.4-0.2,0.4-0.4v-12.4h7v6.9h-3c0.2,0.9,0.5,1.8,1,2.6c0.8-0.4,1.5-1.1,2.2-1.9l0.8,0.8c-0.7,0.9-1.6,1.5-2.5,2
			c0.7,1,1.7,1.9,2.9,2.6l-0.6,1c-2.7-1.7-4.3-4-4.8-7H223.1z M227.9,1512.9h-4.7v1.8h4.7V1512.9z M223.1,1517.7h4.7v-1.8h-4.7
			V1517.7z"/>
		<path class="st3" d="M237.3,1511.8c-1.2,3.4-2.7,5.9-4.7,7.7l-0.9-0.8c2-1.8,3.5-4.3,4.5-7.3L237.3,1511.8z M244.9,1525.4
			l-1.1,0.5c-0.2-0.5-0.5-1.1-0.7-1.5c-2.8,0.4-6,0.8-9.5,1l-0.2-1.1c1.3-0.7,2.9-3.2,4.8-7.6l1.1,0.4c-1.4,3-2.8,5.4-4.1,7.2
			c2.6-0.2,5.1-0.4,7.3-0.8c-0.6-1.2-1.3-2.2-1.9-3.2l1-0.4C243,1521.6,244,1523.4,244.9,1525.4z M246.3,1518.5l-0.8,0.9
			c-2.4-2-4.1-4.6-5-7.7l1-0.5C242.4,1514.2,244,1516.7,246.3,1518.5z"/>
		<path class="st3" d="M258,1515v1h-9.8v-1H258z M257,1525.8l-0.3-1.1l2.2,0c0.5,0,0.7-0.3,0.7-1V1513h-10.9v-1.1h12v12.2
			c0,1.1-0.5,1.7-1.6,1.7H257z M256.4,1518v4.9h-7.1v-4.9H256.4z M255.3,1519.1h-4.8v2.9h4.8V1519.1z"/>
		<path class="st3" d="M276.9,1512.9l-0.7,0.7h2v1.1h-4.9c0.1,2,0.3,3.6,0.6,4.7c0.1,0.4,0.2,0.8,0.3,1.1c0.8-1.3,1.4-2.8,1.9-4.5
			l1,0.4c-0.6,2.1-1.5,3.9-2.5,5.3c0.2,0.5,0.5,1,0.7,1.3c0.5,0.8,1,1.2,1.3,1.2c0.3,0,0.6-0.8,0.8-2.5l1,0.6
			c-0.4,2.1-0.9,3.2-1.6,3.2c-0.7,0-1.4-0.5-2.2-1.4c-0.3-0.4-0.6-0.8-0.8-1.3c-1.1,1.3-2.4,2.3-3.9,3l-0.6-1c1.6-0.7,3-1.8,4.1-3.2
			c-0.2-0.6-0.4-1.2-0.6-1.9c-0.4-1.3-0.6-3-0.7-5h-5.5v2.7h3.9c0,2.7-0.2,4.5-0.4,5.2c-0.2,0.7-0.7,1-1.5,1.1c-0.4,0-0.8,0-1.4-0.1
			l-0.4-1c0.6,0,1.2,0,1.6,0c0.4,0,0.6-0.3,0.7-0.7c0.1-0.5,0.1-1.7,0.2-3.5h-2.8v0.5c-0.1,2.9-0.7,5.2-1.9,6.9l-0.9-0.8
			c1-1.5,1.6-3.5,1.6-6.1v-5.3h6.6c0-0.8,0-1.6,0-2.5h1.2c0,0.9,0,1.7,0,2.5h3c-0.5-0.6-1.1-1.2-1.9-1.8l0.7-0.7
			C275.7,1511.7,276.3,1512.3,276.9,1512.9z"/>
		<path class="st3" d="M287.7,1523.8c1-2.1,1.8-4.8,2.6-8l1.2,0.3c-0.7,2.9-1.5,5.4-2.5,7.7h5.2v1.1h-14.5v-1.1H287.7z
			 M286.5,1513.8c-0.3-0.9-0.5-1.6-0.8-2.4l1.3-0.2c0.3,0.8,0.5,1.6,0.7,2.6h6v1.1h-13.4v-1.1H286.5z M285.6,1523l-1.2,0.3
			c-0.5-2.4-1.1-4.8-1.8-7l1.2-0.4C284.5,1518,285.1,1520.3,285.6,1523z"/>
	</g>
</g>
</svg>
