<?xml version="1.0" encoding="utf-8"?>
<!-- Generator: Adobe Illustrator 25.1.0, SVG Export Plug-In . SVG Version: 6.00 Build 0)  -->
<svg version="1.1" id="图层_1" xmlns="http://www.w3.org/2000/svg" xmlns:xlink="http://www.w3.org/1999/xlink" x="0px" y="0px"
	 viewBox="0 0 336 1398" style="enable-background:new 0 0 336 1398;" xml:space="preserve">
<style type="text/css">
	.st0{enable-background:new    ;}
	.st1{fill:#3D3FEA;}
	.st2{fill:#30323E;}
	.st3{fill:#4E4E4E;}
</style>
<g id="组_3265" transform="translate(-39 -167)">
	<g class="st0">
		<path class="st1" d="M44.6,238c5.2-4.3,9.3-7.9,12.4-10.6c3-2.8,5.6-5.7,7.6-8.7s3.1-6,3.1-8.9c0-2.2-0.5-3.9-1.5-5.1
			c-1-1.2-2.5-1.8-4.6-1.8c-2,0-3.6,0.8-4.8,2.3c-1.1,1.5-1.7,3.7-1.7,6.4H42c0.1-4.5,1.1-8.3,2.9-11.4c1.8-3,4.3-5.3,7.3-6.7
			c3-1.4,6.4-2.2,10-2.2c6.3,0,11.1,1.6,14.4,4.9c3.2,3.3,4.8,7.5,4.8,12.7c0,5.7-1.9,11-5.8,15.9c-3.9,4.9-8.9,9.6-14.9,14.3h21.6
			v11.1H42.1V240C43.9,238.6,44.8,237.9,44.6,238z"/>
		<path class="st1" d="M93.6,199.3c3.5-5.3,9.3-7.9,17.2-7.9c7.9,0,13.6,2.6,17.2,7.9c3.5,5.3,5.3,12.5,5.3,21.7
			c0,9.3-1.8,16.6-5.3,21.8c-3.5,5.3-9.3,7.9-17.2,7.9c-7.9,0-13.6-2.6-17.2-7.9c-3.5-5.3-5.3-12.6-5.3-21.8
			C88.3,211.8,90.1,204.6,93.6,199.3z M118,208.6c-1.2-2.9-3.6-4.4-7.3-4.4c-3.7,0-6.1,1.5-7.3,4.4c-1.2,2.9-1.8,7.1-1.8,12.4
			c0,3.6,0.2,6.6,0.6,9c0.4,2.4,1.3,4.3,2.6,5.8c1.3,1.5,3.2,2.2,5.8,2.2s4.5-0.7,5.8-2.2c1.3-1.5,2.2-3.4,2.6-5.8
			c0.4-2.4,0.6-5.4,0.6-9C119.8,215.6,119.2,211.5,118,208.6z"/>
		<path class="st1" d="M142.4,238c5.2-4.3,9.3-7.9,12.4-10.6c3-2.8,5.6-5.7,7.6-8.7s3.1-6,3.1-8.9c0-2.2-0.5-3.9-1.5-5.1
			c-1-1.2-2.5-1.8-4.6-1.8c-2,0-3.6,0.8-4.8,2.3c-1.1,1.5-1.7,3.7-1.7,6.4h-13.2c0.1-4.5,1.1-8.3,2.9-11.4c1.8-3,4.3-5.3,7.3-6.7
			c3-1.4,6.4-2.2,10-2.2c6.3,0,11.1,1.6,14.4,4.9c3.2,3.3,4.8,7.5,4.8,12.7c0,5.7-1.9,11-5.8,15.9c-3.9,4.9-8.9,9.6-14.9,14.3h21.6
			v11.1H140V240C141.8,238.6,142.6,237.9,142.4,238z"/>
		<path class="st1" d="M184.7,205.3v-12.7h22.2V251h-14.2v-45.7H184.7z"/>
	</g>
	<g class="st0">
		<path class="st2" d="M47.6,303.1v8.4h1.9v1.7h-1.9v2.8h-2v-2.8h-6.2v-2l6.3-8.1H47.6z M41.1,311.6h4.5v-5.8h-0.1L41.1,311.6z"/>
		<path class="st2" d="M59.6,318l-1.4-1.3c1.1-1.6,1.7-3.6,1.7-6v-8.8h10.9v14.1c0,1.2-0.6,1.8-1.8,1.8h-2.3l-0.5-1.8
			c0.8,0.1,1.5,0.1,2.2,0.1c0.4,0,0.5-0.3,0.5-0.7v-3h-7.2C61.4,314.6,60.7,316.5,59.6,318z M68.8,303.6h-7.1v2.5h7.1V303.6z
			 M61.7,310.5h7.1v-2.7h-7.1V310.5z"/>
	</g>
	<g class="st0">
		<path class="st3" d="M54.1,335.8v1.1h-6.4c-0.1,0.7-0.3,1.4-0.6,2h6.1v10.9h-1.1v-0.8H41.9v0.8h-1.1V339h5.2
			c0.3-0.7,0.5-1.3,0.6-2h-6.7v-1.1H54.1z M44.1,348.1v-8h-2.2v8H44.1z M48.8,342v-2h-3.6v2H48.8z M48.8,345v-2h-3.6v2H48.8z
			 M48.8,348.1v-2h-3.6v2H48.8z M52.2,348.1v-8h-2.3v8H52.2z"/>
		<path class="st3" d="M63.2,335.3c-0.2,0.8-0.5,1.5-0.8,2.2h7.1v10.7c0,1-0.5,1.6-1.5,1.6h-2.4l-0.3-1.2l2.3,0
			c0.4,0,0.7-0.2,0.7-0.7v-9.3H57.9v11.2h-1.2v-12.3h4.4c0.4-0.8,0.7-1.6,0.8-2.4L63.2,335.3z M66,340.9v5.6h-5.9v-5.6H66z
			 M64.9,342h-3.7v3.4h3.7V342z"/>
		<path class="st3" d="M79.4,335.3c2,2.2,4.4,4,7,5.3l-0.6,1.1c-2.7-1.4-4.9-3.2-6.8-5.4c-1.7,2.1-4,3.9-6.9,5.4l-0.6-1.1
			c2.8-1.4,5.2-3.2,7.1-5.3H79.4z M80,339.5v3.6h4.4v1.1H80v3.9h5.5v1.1H72.2v-1.1h2.4v-6.3h1.1v6.3h3.1v-8.6H80z"/>
		<path class="st3" d="M93.9,335.4v12.7h2.3v-12.7h1.2v12.7h4.8v1.1H87.9v-1.1h4.8v-12.7H93.9z M91.5,345.7l-1.1,0.3
			c-0.6-2.6-1.3-5-2.2-7.4l1-0.3C90.1,340.4,90.9,342.9,91.5,345.7z M101.7,338.6c-0.6,2.8-1.4,5.2-2.4,7.3l-1-0.4
			c0.9-1.9,1.7-4.3,2.4-7.2L101.7,338.6z"/>
		<path class="st3" d="M108.6,347.6c-1.4,0.6-3,1-4.8,1.4l-0.1-1.1c1.9-0.3,3.5-0.8,4.9-1.3V347.6z M107.7,335.6
			c-0.8,2-1.7,3.6-2.5,4.8c0.8-0.1,1.5-0.2,2.3-0.3c0.3-0.5,0.6-1.1,1-1.7l1,0.4c-1.5,2.6-2.7,4.5-3.7,5.6c1.2-0.2,2.3-0.5,3.5-0.8
			v1c-1.7,0.5-3.3,0.8-4.9,1l-0.3-1c0.2-0.1,0.4-0.2,0.5-0.3c0.6-0.6,1.4-1.6,2.3-3.1c-0.9,0.1-1.9,0.3-2.8,0.4l-0.3-1.1
			c0.2-0.1,0.3-0.2,0.5-0.4c0.9-1.4,1.7-3.1,2.4-4.9L107.7,335.6z M109.4,336.9v-1.1h7v0.7c-0.3,1.4-0.5,2.7-0.8,3.7h2v0.6
			c-0.3,2.2-1.1,4.1-2.2,5.6c0.8,0.9,1.8,1.7,2.9,2.4l-0.7,1c-1.1-0.7-2.1-1.6-2.9-2.5c-1,1-2.1,1.9-3.5,2.5l-0.6-1.1
			c1.3-0.7,2.5-1.5,3.4-2.4c-1-1.3-1.7-2.8-2.2-4.4c-0.5,3.4-1.5,6-3.2,7.8l-0.8-0.8c2.1-2.3,3.1-6.1,3.2-11.3v-0.9H109.4z
			 M116.5,341.3h-2.2c0.3-1,0.6-2.4,0.9-4.3h-3.1v0.9c0,0.6,0,1.2,0,1.7c0.4,2.3,1.3,4.4,2.6,6.1
			C115.6,344.4,116.2,342.9,116.5,341.3z"/>
		<path class="st3" d="M123.2,349.9h-1.1v-8c-0.5,1.6-1.2,3.1-2,4.4l-0.5-1.2c1.1-1.7,2-3.6,2.4-5.7h-2.2v-1.1h2.2v-3.1h1.1v3.1h1.9
			v1.1h-1.9v1c0.8,0.9,1.5,1.9,2.3,3l-0.6,1c-0.7-1.1-1.2-2-1.7-2.7V349.9z M125.2,349.8l-0.6-1c3.8-1.2,6.6-3.6,8.5-7.1l1,0.5
			c-0.8,1.4-1.7,2.7-2.7,3.7c1.2,1,2.1,2,2.9,3l-0.8,0.8c-0.7-1-1.6-2-2.8-3.2C129.1,348,127.3,349.1,125.2,349.8z M129.5,337
			c-0.2-0.6-0.5-1.1-0.8-1.6l1.2-0.2c0.2,0.5,0.5,1.1,0.7,1.8h3.6v1h-4.4c-0.9,1.6-1.6,2.7-2.3,3.3c1-0.1,2-0.1,3-0.2
			c0.4-0.6,0.8-1.2,1.1-1.8l0.9,0.5c-1.6,3.2-3.9,5.3-7,6.5l-0.6-1c1.9-0.7,3.6-1.8,4.9-3.2c-1.1,0.1-2.3,0.1-3.6,0.2l-0.2-0.9
			c0.1,0,0.2-0.1,0.2-0.1c0.6-0.4,1.5-1.5,2.5-3.2h-3.1v-1H129.5z"/>
		<path class="st3" d="M138.6,340.5c-0.4,2.8-1.1,5.1-1.9,7.1l-1-0.6c0.8-2,1.4-4.3,1.8-6.7L138.6,340.5z M141.5,349.4
			c-1.1,0-1.7-0.5-1.7-1.6v-9.2h1.2v8.9c0,0.5,0.3,0.7,0.9,0.7h3c0.4,0,0.7-0.2,0.8-0.5c0.2-0.4,0.3-1.5,0.4-3.4l1.1,0.4
			c-0.1,2.2-0.4,3.5-0.7,4c-0.3,0.4-0.8,0.6-1.4,0.6H141.5z M145.4,339.3l-1,0.7c-0.8-1.2-2-2.6-3.4-4.1l1-0.6
			C143.5,336.8,144.6,338.2,145.4,339.3z M150.4,346.4l-1.1,0.5c-0.8-2.5-1.7-4.8-2.7-6.8l1.1-0.4
			C148.8,341.8,149.7,344.1,150.4,346.4z"/>
		<path class="st3" d="M153.7,339.6v-4.1h1.2v4.1h2v1.1h-2v5.6c0.7-0.2,1.4-0.4,2-0.7v1.2c-1.6,0.6-3.2,1.1-5,1.5l-0.3-1.2
			c0.7-0.1,1.4-0.3,2.1-0.4v-5.9h-1.9v-1.1H153.7z M157.7,341.8v-1.1c1.9-1.1,3.7-2.3,5.3-3.6h-5.2v-1.1h6.8v1
			c-1.5,1.3-3.2,2.5-5.1,3.7h6.1c-0.1,3.7-0.3,6.1-0.5,7.2c-0.3,1.1-1,1.6-2.2,1.7c-0.5,0-1,0-1.5,0l-0.3-1.1c0.6,0,1.1,0.1,1.7,0.1
			c0.6,0,1.1-0.3,1.3-0.9c0.2-0.5,0.4-2.5,0.4-5.9h-1.2c-0.4,1.9-1,3.5-1.7,4.6c-0.8,1.2-2.1,2.3-3.7,3.2l-0.7-0.9
			c1.5-0.8,2.7-1.8,3.5-2.8c0.7-1,1.2-2.4,1.6-4.1h-1.3c-0.6,2-1.6,3.6-3.1,4.7l-0.7-0.9c1.3-1,2.2-2.3,2.7-3.8H157.7z"/>
		<path class="st3" d="M172.5,347.4c-1.1,0.9-2.4,1.7-4.1,2.2l-0.6-0.9c1.7-0.6,3.1-1.2,4-2L172.5,347.4z M180.3,335.7v4.6h-5
			c0.1,0.3,0.3,0.6,0.4,0.9h6.3v1H168v-1h6.6c-0.2-0.3-0.3-0.6-0.5-0.9h-4.3v-4.6H180.3z M180.1,343v3.2h-4.4v2.3
			c0,0.9-0.4,1.3-1.2,1.3h-1.9l-0.2-1.1c0.6,0,1.2,0.1,1.8,0.1c0.3,0,0.5-0.2,0.5-0.6v-2H170V343H180.1z M179.2,337.5v-0.9h-8.3v0.9
			H179.2z M179.2,338.4h-8.3v1h8.3V338.4z M179,343.9h-7.9v1.4h7.9V343.9z M182.3,348.6l-0.4,1.1c-1.5-0.8-3-1.5-4.5-2l0.5-0.9
			C179.3,347.2,180.8,347.8,182.3,348.6z"/>
		<path class="st3" d="M189.5,348.9h-1.1V348h-2.9v1.4h-1.1V338h1.5c0.3-0.9,0.5-1.8,0.7-2.8l1.2,0.2c-0.2,0.9-0.4,1.8-0.8,2.6h2.6
			V348.9z M188.3,342.4v-3.3h-2.9v3.3H188.3z M188.3,346.9v-3.5h-2.9v3.5H188.3z M197.5,347.8c-0.2,1.2-0.9,1.8-2.2,1.8
			c-0.3,0-0.9,0-1.6-0.1l-0.3-1.1c0.7,0,1.2,0,1.7,0c0.8,0,1.2-0.4,1.3-1.2c0.1-0.9,0.2-3.7,0.2-8.3h-4.4c-0.4,1-1,1.9-1.6,2.7
			l-0.7-0.9c1.1-1.6,1.9-3.5,2.3-5.8l1.1,0.1c-0.2,0.9-0.4,1.8-0.7,2.7h5.1C197.7,343.3,197.7,346.6,197.5,347.8z M194.9,345.2
			l-0.9,0.6c-0.7-1.1-1.5-2.2-2.6-3.6l0.9-0.6C193.4,343,194.3,344.2,194.9,345.2z"/>
		<path class="st3" d="M214,336.9v1.1h-4v10.3h-1.3V338h-4v-1.1H214z"/>
		<path class="st3" d="M217,337.2c0.2,0.2,0.3,0.4,0.3,0.7c0,0.3-0.1,0.5-0.3,0.7c-0.2,0.2-0.4,0.3-0.7,0.3s-0.5-0.1-0.7-0.3
			c-0.2-0.2-0.3-0.4-0.3-0.7c0-0.3,0.1-0.5,0.3-0.7c0.2-0.2,0.4-0.3,0.7-0.3S216.8,337,217,337.2z M216.9,340v8.3h-1.3V340H216.9z"
			/>
		<path class="st3" d="M223.6,336.9c1.8,0,3.2,0.5,4.1,1.6c0.8,1,1.3,2.4,1.3,4.1c0,1.8-0.5,3.2-1.4,4.1c-1,1-2.3,1.6-4.1,1.6h-4
			v-11.4H223.6z M220.8,347.1h2.4c1.5,0,2.6-0.4,3.4-1.2c0.7-0.8,1.1-1.9,1.1-3.4c0-1.5-0.3-2.7-1-3.4c-0.7-0.8-1.8-1.2-3.3-1.2
			h-2.6V347.1z"/>
		<path class="st3" d="M235.9,336.9c1.1,0,1.9,0.3,2.5,0.8c0.6,0.5,0.9,1.2,0.9,2.1c0,0.6-0.2,1.2-0.5,1.7c-0.4,0.4-0.8,0.7-1.4,0.9
			c0.8,0.1,1.3,0.4,1.7,0.9c0.4,0.5,0.6,1.1,0.6,1.9c0,1.1-0.4,2-1.2,2.5c-0.7,0.4-1.6,0.7-2.8,0.7h-5.1v-11.4H235.9z M232.1,341.8
			h3.5c0.8,0,1.4-0.2,1.8-0.5c0.4-0.3,0.6-0.8,0.6-1.5c0-0.6-0.2-1.1-0.6-1.4c-0.4-0.3-1-0.5-1.8-0.5h-3.5V341.8z M232.1,347.2h3.7
			c0.8,0,1.4-0.2,1.9-0.4c0.6-0.4,0.8-0.9,0.8-1.6s-0.3-1.3-0.7-1.6c-0.5-0.4-1.1-0.5-2-0.5h-3.7V347.2z"/>
		<path class="st3" d="M254.1,336.9v1.2h-5.6l-0.4,3.8h0.1c0.3-0.4,0.7-0.7,1.2-0.9c0.4-0.2,0.9-0.3,1.5-0.3c1.1,0,2,0.3,2.6,1
			c0.7,0.7,1,1.7,1,2.9c0,1.2-0.4,2.1-1.2,2.8c-0.8,0.7-1.7,1-2.8,1c-1,0-1.9-0.3-2.6-0.8c-0.8-0.6-1.2-1.4-1.3-2.5h1.3
			c0.1,0.7,0.4,1.3,0.9,1.7c0.4,0.3,1,0.5,1.7,0.5c0.8,0,1.5-0.3,2-0.8c0.5-0.5,0.8-1.2,0.8-2c0-0.9-0.3-1.6-0.7-2.1
			c-0.5-0.5-1.1-0.8-2-0.8c-0.5,0-1,0.1-1.5,0.4c-0.4,0.2-0.8,0.6-1,1h-1.2l0.6-6.3H254.1z"/>
		<path class="st3" d="M258.2,346.7c0.2,0.2,0.3,0.4,0.3,0.7c0,0.3-0.1,0.5-0.3,0.7c-0.2,0.2-0.4,0.3-0.7,0.3
			c-0.3,0-0.5-0.1-0.7-0.3c-0.2-0.2-0.3-0.4-0.3-0.7c0-0.3,0.1-0.5,0.3-0.7c0.2-0.2,0.4-0.3,0.7-0.3
			C257.8,346.4,258,346.5,258.2,346.7z"/>
		<path class="st3" d="M267.5,338.4c0.6,1,0.9,2.4,0.9,4.1c0,1.7-0.3,3.1-0.9,4.1c-0.7,1.2-1.7,1.8-3.1,1.8c-1.4,0-2.4-0.6-3.1-1.8
			c-0.6-1-0.9-2.4-0.9-4.1c0-1.7,0.3-3.1,0.9-4.1c0.7-1.2,1.7-1.8,3.1-1.8C265.8,336.6,266.8,337.2,267.5,338.4z M262.2,339.4
			c-0.3,0.8-0.5,1.8-0.5,3.2c0,1.3,0.2,2.4,0.5,3.2c0.4,1.1,1.2,1.6,2.2,1.6c1,0,1.8-0.6,2.2-1.6c0.3-0.8,0.5-1.8,0.5-3.2
			c0-1.3-0.2-2.4-0.5-3.2c-0.4-1.1-1.2-1.6-2.2-1.6C263.4,337.7,262.6,338.3,262.2,339.4z"/>
		<path class="st3" d="M283,335.3c2,2.2,4.4,4,7,5.3l-0.6,1.1c-2.7-1.4-4.9-3.2-6.8-5.4c-1.7,2.1-4,3.9-6.9,5.4l-0.6-1.1
			c2.8-1.4,5.2-3.2,7.1-5.3H283z M283.6,339.5v3.6h4.4v1.1h-4.4v3.9h5.5v1.1h-13.3v-1.1h2.4v-6.3h1.1v6.3h3.1v-8.6H283.6z"/>
		<path class="st3" d="M297.4,335.4v12.7h2.3v-12.7h1.2v12.7h4.8v1.1h-14.2v-1.1h4.8v-12.7H297.4z M295.1,345.7L294,346
			c-0.6-2.6-1.3-5-2.2-7.4l1-0.3C293.7,340.4,294.4,342.9,295.1,345.7z M305.2,338.6c-0.6,2.8-1.4,5.2-2.4,7.3l-1-0.4
			c0.9-1.9,1.7-4.3,2.4-7.2L305.2,338.6z"/>
		<path class="st3" d="M312.3,335.4v4.2h0.9v1.1h-3.8v0.8c0,0.5,0,1,0,1.4h3.1v6.8h-1.1v-5.7h-2c-0.2,2.4-0.6,4.2-1.3,5.5l-0.9-0.8
			c0.7-1.5,1.1-4,1.1-7.3v-5.9h1.1v3.9h1.7v-4.2H312.3z M315.2,342.7c-0.1,3-0.6,5.3-1.6,7.1l-0.8-0.8c0.8-1.5,1.2-3.6,1.3-6.3v-6.4
			c2.5,0,4.8-0.4,6.8-1l0.6,1c-1.9,0.5-4,0.9-6.3,1v2.5h5.9v1c-0.4,2.2-1.1,4.1-2.1,5.6c0.8,1.1,1.7,1.9,2.9,2.4l-0.6,1
			c-1.2-0.6-2.2-1.5-3-2.5c-0.9,1-1.9,1.9-3.2,2.5l-0.6-1c1.2-0.7,2.2-1.5,3-2.5c-0.9-1.5-1.6-3.3-1.9-5.5h-0.5V342.7z M318.4,345.4
			c0.8-1.3,1.4-2.8,1.6-4.5h-3.2C317.1,342.7,317.7,344.2,318.4,345.4z"/>
	</g>
	<g class="st0">
		<path class="st2" d="M47.7,432c0.7,0.6,1.1,1.5,1.1,2.4c0,0.6-0.1,1.2-0.4,1.7c-0.3,0.5-0.8,0.8-1.4,1.1v0
			c0.6,0.2,1.1,0.5,1.5,1.1c0.5,0.6,0.7,1.3,0.7,2.1c0,1.2-0.4,2.1-1.3,2.8c-0.8,0.7-2,1.1-3.6,1.1c-1.5,0-2.7-0.4-3.6-1.1
			c-0.8-0.7-1.3-1.6-1.3-2.8c0-0.8,0.2-1.5,0.7-2.1c0.4-0.6,0.9-0.9,1.5-1.1v0c-0.6-0.3-1.1-0.6-1.4-1.1c-0.3-0.5-0.4-1-0.4-1.7
			c0-1,0.4-1.8,1.1-2.4c0.8-0.7,1.9-1.1,3.3-1.1C45.8,430.9,46.9,431.3,47.7,432z M42.3,438.7c-0.5,0.4-0.7,1-0.7,1.7
			c0,0.6,0.2,1.2,0.7,1.6c0.5,0.4,1.1,0.6,2,0.6c0.9,0,1.5-0.2,2.1-0.6c0.5-0.4,0.7-0.9,0.7-1.5c0-0.7-0.2-1.2-0.7-1.6
			c-0.5-0.5-1.2-0.7-2.1-0.7C43.5,438.1,42.8,438.3,42.3,438.7z M42.6,433.2c-0.4,0.4-0.6,0.8-0.6,1.3c0,0.6,0.2,1.1,0.5,1.4
			c0.4,0.4,1,0.6,1.9,0.6c0.9,0,1.5-0.2,1.9-0.6c0.3-0.3,0.5-0.8,0.5-1.4c0-0.5-0.2-1-0.6-1.3c-0.5-0.4-1.1-0.6-1.8-0.6
			C43.6,432.6,43,432.8,42.6,433.2z"/>
		<path class="st2" d="M59.6,446l-1.4-1.3c1.1-1.6,1.7-3.6,1.7-6v-8.8h10.9v14.1c0,1.2-0.6,1.8-1.8,1.8h-2.3l-0.5-1.8
			c0.8,0.1,1.5,0.1,2.2,0.1c0.4,0,0.5-0.3,0.5-0.7v-3h-7.2C61.4,442.6,60.7,444.5,59.6,446z M68.8,431.6h-7.1v2.5h7.1V431.6z
			 M61.7,438.5h7.1v-2.7h-7.1V438.5z"/>
	</g>
	<g class="st0">
		<path class="st3" d="M48.6,464.6v1.1h-4V476h-1.3v-10.3h-4v-1.1H48.6z"/>
		<path class="st3" d="M51.6,464.9c0.2,0.2,0.3,0.4,0.3,0.7c0,0.3-0.1,0.5-0.3,0.7c-0.2,0.2-0.4,0.3-0.7,0.3s-0.5-0.1-0.7-0.3
			c-0.2-0.2-0.3-0.4-0.3-0.7c0-0.3,0.1-0.5,0.3-0.7c0.2-0.2,0.4-0.3,0.7-0.3S51.4,464.7,51.6,464.9z M51.6,467.7v8.3h-1.3v-8.3H51.6
			z"/>
		<path class="st3" d="M58.2,464.6c1.8,0,3.2,0.5,4.1,1.6c0.8,1,1.3,2.4,1.3,4.1c0,1.8-0.5,3.2-1.4,4.1c-1,1-2.3,1.6-4.1,1.6h-4
			v-11.4H58.2z M55.5,474.9h2.4c1.5,0,2.6-0.4,3.4-1.2c0.7-0.8,1.1-1.9,1.1-3.4c0-1.5-0.3-2.7-1-3.4c-0.7-0.8-1.8-1.2-3.3-1.2h-2.6
			V474.9z"/>
		<path class="st3" d="M70.6,464.6c1.1,0,1.9,0.3,2.5,0.8c0.6,0.5,0.9,1.2,0.9,2.1c0,0.6-0.2,1.2-0.5,1.7c-0.4,0.4-0.8,0.7-1.4,0.9
			c0.8,0.1,1.3,0.4,1.7,0.9c0.4,0.5,0.6,1.1,0.6,1.9c0,1.1-0.4,2-1.2,2.5c-0.7,0.4-1.6,0.7-2.8,0.7h-5.1v-11.4H70.6z M66.8,469.6
			h3.5c0.8,0,1.4-0.2,1.8-0.5c0.4-0.3,0.6-0.8,0.6-1.5c0-0.6-0.2-1.1-0.6-1.4c-0.4-0.3-1-0.5-1.8-0.5h-3.5V469.6z M66.8,474.9h3.6
			c0.8,0,1.4-0.2,1.9-0.4c0.6-0.4,0.8-0.9,0.8-1.6s-0.3-1.3-0.7-1.6c-0.5-0.4-1.1-0.5-2-0.5h-3.6V474.9z"/>
		<path class="st3" d="M89,477.3c-1,0-1.8-0.1-2.5-0.3c-0.6-0.2-1.2-0.6-1.7-1.2c-0.2-0.3-0.4-0.4-0.6-0.4c-0.4,0-1,0.7-1.9,2.2
			l-0.9-0.8c0.8-1.3,1.6-2.2,2.3-2.4v-4.9h-2.3v-1.1h3.4v6c0.1,0.1,0.3,0.2,0.4,0.4c0.4,0.5,0.8,0.8,1.2,1c0.5,0.2,1.2,0.4,2.1,0.4
			c0.8,0,1.9,0,3.1,0c0.8,0,1.5,0,2.3,0c0.8,0,1.4,0,1.8-0.1l-0.3,1.2h-3.7C90.9,477.3,90,477.3,89,477.3z M85.2,465.7l-0.8,0.8
			c-0.6-0.8-1.5-1.6-2.7-2.5l0.8-0.8C83.6,464,84.5,464.8,85.2,465.7z M88.5,464.6c0.2-0.6,0.4-1.2,0.6-1.8l1.1,0.3
			c-0.2,0.5-0.4,1-0.5,1.5h5.6v1.1h-6.1c-0.5,1.1-1,2-1.6,2.9h2.6v-1.9h1.1v1.9h3.5v1.1h-3.5v1.9h4.2v1.1h-4.2v3h-1.1v-3h-4.4v-1.1
			h4.4v-1.9h-3.7l-0.3-1.1c0.6-0.8,1.2-1.7,1.8-2.9h-2.1v-1.1H88.5z"/>
		<path class="st3" d="M100.9,463.4c-0.7,2-1.5,3.6-2.3,4.8c0.7-0.1,1.3-0.2,2-0.3c0.3-0.5,0.6-1.1,0.9-1.7l1.1,0.4
			c-1.4,2.6-2.5,4.4-3.4,5.5c1-0.2,1.9-0.5,2.9-0.8v1c-1.5,0.5-2.9,0.8-4.3,1l-0.3-1.1c0.2-0.1,0.4-0.2,0.5-0.3
			c0.6-0.6,1.3-1.6,2.1-3c-0.8,0.1-1.6,0.3-2.5,0.4l-0.3-1.1c0.2-0.1,0.3-0.2,0.5-0.4c0.8-1.4,1.5-3.1,2-4.9L100.9,463.4z
			 M102.2,475.3c-1.4,0.6-3,1-4.7,1.4l-0.1-1.1c1.9-0.3,3.5-0.8,4.9-1.4V475.3z M106.9,472.2c0-0.4,0.1-0.7,0.1-1.1v-3h1.1v3
			c0,0.4,0,0.7-0.1,1.1h3.7v1.1h-3.9c-0.1,0.3-0.2,0.5-0.3,0.8c1.6,0.7,3,1.6,4.3,2.6l-0.6,1c-1.3-1.1-2.7-2-4.1-2.7
			c-0.1,0.2-0.2,0.3-0.3,0.4c-0.8,1-2,1.7-3.8,2.3l-0.6-1c1.7-0.5,2.9-1.2,3.6-2.1c0.3-0.4,0.5-0.8,0.7-1.3h-4.2v-1.1H106.9z
			 M105.5,471.2L105,472c-0.8-0.7-1.6-1.2-2.4-1.6l0.5-0.8C104,470,104.8,470.5,105.5,471.2z M106.6,463.9v-1.1h1.1v1.1h3.4v1h-3.4
			v1.5h3.7v0.7c-0.2,1-0.5,2-0.9,3l-1.1-0.3c0.3-0.7,0.6-1.5,0.8-2.4h-7.3v-1.1h3.7V465h-3.2v-1H106.6z M106.6,469.4l-0.5,0.8
			c-0.7-0.6-1.5-1.2-2.2-1.5l0.5-0.8C105.2,468.3,105.9,468.8,106.6,469.4z"/>
		<path class="st3" d="M125.4,465.3c0.7,0.6,1,1.4,1,2.4s-0.4,1.9-1.1,2.7c-0.4,0.4-1.2,1-2.4,1.8c-1.5,1-2.3,1.9-2.5,2.6h6v1.2
			h-7.6c0-1,0.4-2,1.1-2.8c0.4-0.5,1.3-1.2,2.5-2c0.9-0.6,1.5-1.1,1.8-1.4c0.6-0.6,0.9-1.3,0.9-2c0-0.7-0.2-1.2-0.6-1.6
			s-1-0.6-1.7-0.6c-0.8,0-1.4,0.3-1.8,0.8c-0.4,0.5-0.7,1.3-0.7,2.3h-1.3c0-1.3,0.4-2.3,1.1-3.1c0.7-0.8,1.6-1.2,2.8-1.2
			C123.8,464.3,124.7,464.7,125.4,465.3z"/>
		<path class="st3" d="M135.3,466.2c0.6,1,0.9,2.4,0.9,4.1c0,1.7-0.3,3.1-0.9,4.1c-0.7,1.2-1.7,1.8-3.1,1.8c-1.4,0-2.4-0.6-3.1-1.8
			c-0.6-1-0.9-2.4-0.9-4.1c0-1.7,0.3-3.1,0.9-4.1c0.7-1.2,1.7-1.8,3.1-1.8C133.5,464.3,134.6,464.9,135.3,466.2z M130,467.1
			c-0.3,0.8-0.5,1.8-0.5,3.2c0,1.3,0.2,2.4,0.5,3.2c0.4,1.1,1.2,1.6,2.2,1.6s1.8-0.6,2.2-1.6c0.3-0.8,0.5-1.8,0.5-3.2
			c0-1.3-0.2-2.4-0.5-3.2c-0.4-1.1-1.2-1.6-2.2-1.6S130.4,466,130,467.1z"/>
		<path class="st3" d="M150.8,462.9c1.3,2.2,3.6,4.1,6.9,5.8l-0.7,1c-3-1.6-5.3-3.5-6.7-5.8c-1.8,2.5-4,4.5-6.7,5.9l-0.7-1
			c3-1.5,5.3-3.5,6.9-5.9H150.8z M150.9,467.7v9.9h-1.2v-9.9H150.9z"/>
		<path class="st3" d="M161.4,477.6l-0.9-0.8c1.1-1.4,1.6-3.3,1.6-5.5v-7.8h9.2v12.5c0,0.9-0.5,1.4-1.4,1.4h-2.1l-0.3-1.1
			c0.7,0,1.4,0.1,2,0.1c0.4,0,0.6-0.2,0.6-0.7v-3.2h-6.9C163.1,474.6,162.5,476.3,161.4,477.6z M170.2,464.7h-6.8v2.8h6.8V464.7z
			 M163.3,471.4h6.8v-2.9h-6.8V471.4z"/>
		<path class="st3" d="M175.6,472.8l-0.7-0.9c2-1.6,3.6-3.5,4.7-5.7h-4.1v-1.1h4.7c0.3-0.7,0.6-1.5,0.8-2.3l1.2,0.1
			c-0.2,0.7-0.5,1.5-0.8,2.1h8.1v1.1h-8.6c-0.6,1.3-1.4,2.4-2.2,3.5v7.9h-1.1v-6.6C176.9,471.7,176.3,472.3,175.6,472.8z
			 M183.7,470.4v-3h1.2v3h3.8v1.1h-3.8v4.4h4.5v1.1h-10v-1.1h4.3v-4.4h-3.7v-1.1H183.7z"/>
		<path class="st3" d="M194.1,472c-0.5,0.8-1.2,1.6-2,2.2l-0.8-0.6c0.7-0.6,1.3-1.2,1.9-2L194.1,472z M203.9,463.5v4.1h-5v0.9h5.6
			v0.8h-5.6v1h6.5v0.9h-14.1v-0.9h6.5v-1h-5.5v-0.8h5.5v-0.9h-4.9v-4.1H203.9z M197.8,474.1v-1.3h1.1v1.3h4.6v0.9h-4.6v1.3h6.2v1
			h-13.6v-1h6.3V475h-4.5v-0.9H197.8z M197.8,464.4h-4v2.3h2.4c-0.4-0.5-0.8-1.1-1.4-1.6l0.6-0.6c0.5,0.5,1,1.1,1.4,1.6l-0.6,0.6
			h1.6V464.4z M197.1,473.3l-0.9,0.3c-0.2-0.6-0.5-1.2-0.8-1.8l0.9-0.3C196.6,472.2,196.9,472.8,197.1,473.3z M202.8,464.4h-4v2.3
			h1.6l-0.6-0.6c0.5-0.5,0.9-1,1.3-1.5l0.7,0.5c-0.4,0.6-0.9,1.2-1.3,1.6h2.3V464.4z M201.2,473.4l-0.9,0.3
			c-0.3-0.7-0.6-1.3-0.9-1.9l0.9-0.3C200.7,472.2,201,472.8,201.2,473.4z M205.4,473.7l-0.7,0.7c-0.5-0.7-1.3-1.3-2.2-2.1l0.7-0.7
			C204,472.3,204.8,473,205.4,473.7z"/>
		<path class="st3" d="M213.4,468.6c0.2-1.1,0.3-2.3,0.4-3.7H208v-1.1h12.6v1.1H215c-0.1,1.4-0.2,2.6-0.4,3.7h6.6v1.1h-5.9
			c1.1,3,3.2,5.4,6.4,7l-0.7,0.9c-3.3-1.8-5.5-4.3-6.6-7.6c-0.3,1.1-0.6,2-1,2.8c-1.1,1.9-2.9,3.5-5.5,4.9l-0.7-0.9
			c2.4-1.2,4.1-2.7,5.1-4.4c0.4-0.7,0.8-1.6,1-2.6h-5.6v-1.1H213.4z"/>
		<path class="st3" d="M227.4,467.3v2.4h1.8v1h-1.8v2.2c0.8-0.2,1.5-0.3,2.2-0.5v1.1c-0.7,0.2-1.5,0.4-2.2,0.5v3.5h-1.1v-3.3
			c-1,0.2-2,0.3-3.1,0.5l-0.1-1.1c1.2-0.1,2.2-0.3,3.3-0.5v-2.4h-2.7l-0.2-1c0.4-1,0.9-2.2,1.3-3.6H223V465h1.9
			c0.2-0.7,0.3-1.4,0.4-2.1l1.1,0.2c-0.1,0.7-0.3,1.3-0.4,2h3.2v1.1h-3.5c-0.4,1.4-0.8,2.6-1.2,3.6h1.8v-2.4H227.4z M233.8,463
			c0.8,2,2.1,3.7,4,5.1l-0.7,1c-1.7-1.3-3-3-3.8-5c-1,2.2-2.4,3.9-3.9,5.1l-0.6-1c1.7-1.3,3.1-3.1,4-5.2H233.8z M232.2,477.4
			c-1,0-1.5-0.6-1.5-1.7v-6.9h1.1v2.8c1.3-0.6,2.5-1.3,3.7-2.3l0.7,0.9c-1.6,1.1-3,2-4.4,2.5v2.7c0,0.6,0.2,0.8,0.8,0.8h2.4
			c0.4,0,0.7-0.1,0.8-0.4c0.2-0.3,0.4-1.1,0.4-2.5l1.1,0.4c-0.1,1.7-0.4,2.7-0.7,3.1c-0.3,0.3-0.8,0.5-1.4,0.5H232.2z"/>
		<path class="st3" d="M252.9,477.6h-1.2v-0.7h-10.8v0.7h-1.2v-13.9h13.2V477.6z M251.7,475.8v-11h-10.8v11H251.7z M250.3,466.2v1
			h-3.4v2.3h2.9v1h-2.9v2.5h3.8v1.1h-8.8v-1.1h3.8v-2.5h-2.9v-1h2.9v-2.3h-3.4v-1H250.3z M249.8,472.7l-0.9,0.4
			c-0.3-0.7-0.7-1.3-1.1-1.9l0.9-0.3C249.2,471.5,249.5,472,249.8,472.7z"/>
		<path class="st3" d="M263.1,464.6h5.6v1.1h-2.8c-0.2,0.8-0.4,1.7-0.8,2.4h3.9v1.1h-11.5v2.4c-0.1,2.5-0.6,4.5-1.7,6l-0.9-0.8
			c0.9-1.2,1.4-3,1.5-5.2v-3.5h3.3l-0.7-2.4h-2.9v-1.1h5.9c-0.2-0.6-0.5-1.2-0.8-1.6l1.2-0.2C262.6,463.3,262.9,463.9,263.1,464.6z
			 M264,468.1c0.4-0.8,0.6-1.6,0.8-2.4h-4.7l0.7,2.4H264z"/>
		<path class="st3" d="M275.1,470.5c-0.1,0.3-0.2,0.6-0.3,0.9h3.3v0.9c-0.4,1.1-0.9,2-1.8,2.7c0.8,0.4,1.5,0.7,2.2,1.1L278,477
			c-0.7-0.4-1.5-0.8-2.5-1.3c-1.1,0.7-2.4,1.3-4,1.8l-0.5-1c1.3-0.4,2.4-0.8,3.4-1.3c-0.7-0.3-1.4-0.6-2.2-0.9
			c0.4-0.7,0.8-1.4,1.1-2h-1.9v-1h2.3c0.1-0.4,0.3-0.7,0.4-1L275.1,470.5z M274.5,466v-3.1h1.1v3.1h2.9v1h-2.9v0.2
			c0.9,0.4,1.8,0.9,2.7,1.5l-0.6,0.9c-0.8-0.6-1.5-1.2-2.1-1.5v2.1h-1.1v-3c-0.5,1.3-1.5,2.4-2.9,3.3l-0.6-0.9
			c1.2-0.7,2.1-1.5,2.6-2.4h-2.3v-1H274.5z M273.6,465.2l-0.8,0.4c-0.3-0.8-0.7-1.5-1.1-2.1l0.9-0.3
			C273,463.9,273.3,464.5,273.6,465.2z M277.1,472.4h-2.8c-0.3,0.5-0.5,1.1-0.9,1.5c0.6,0.2,1.2,0.4,1.8,0.7
			C276.1,474,276.7,473.2,277.1,472.4z M278.3,463.6c-0.3,0.7-0.7,1.4-1.2,2.1l-0.8-0.4c0.5-0.7,0.9-1.4,1.2-2L278.3,463.6z
			 M280.1,469.1c-0.3,0.7-0.6,1.4-0.9,2l-0.7-0.9c0.9-1.8,1.6-4.2,1.9-7.3l1.1,0.2c-0.1,0.8-0.2,1.6-0.4,2.3h4.2v1.1h-1
			c-0.1,2.7-0.6,5-1.5,6.9c0.8,1.4,1.8,2.5,3,3.3l-0.6,0.9c-1.1-0.8-2.1-1.9-2.9-3.2c-0.8,1.3-1.8,2.4-3,3.2l-0.6-1
			c1.2-0.9,2.2-2,3-3.3C281,472.1,280.5,470.7,280.1,469.1z M280.6,467.3c0.4,1.9,0.9,3.5,1.6,4.8c0.6-1.6,1-3.5,1-5.7h-2.4
			L280.6,467.3z"/>
		<path class="st3" d="M287.6,477.5l-0.2-1.1c0.4,0,0.8,0.1,1.2,0.1c0.4,0,0.6-0.2,0.6-0.7v-3.9c-0.6,0.2-1.3,0.5-1.9,0.7l-0.3-1.1
			c0.7-0.2,1.5-0.4,2.2-0.7v-3.6h-1.9V466h1.9v-3h1.1v3h1.5v1.1h-1.5v3.2c0.5-0.2,1-0.5,1.5-0.7v1.1c-0.5,0.3-1,0.5-1.5,0.7v4.7
			c0,0.9-0.4,1.4-1.3,1.4H287.6z M291.8,477.6l-0.9-0.8c1.1-2.1,1.7-4.9,1.7-8.2v-5h8.4v3.9h-3v1.9h3.4v1h-3.4v2h2.7v5.2h-1.1v-0.8
			h-4.3v0.8h-1.1v-5.2h2.7v-2h-3.3C293.5,473.1,292.9,475.5,291.8,477.6z M293.8,467.5v1.1c0,0.3,0,0.5,0,0.8h3.2v-1.9H293.8z
			 M293.8,464.6v1.8h6.2v-1.8H293.8z M299.7,475.8v-2.4h-4.3v2.4H299.7z"/>
		<path class="st3" d="M311.7,464.3h5.8v1.1h-11.9v3.6c-0.1,3.5-0.6,6.4-1.6,8.5l-0.9-0.8c0.9-1.8,1.3-4.4,1.4-7.6v-4.8h6
			c-0.3-0.5-0.5-0.9-0.8-1.3l1.3-0.2C311.1,463.3,311.4,463.8,311.7,464.3z M310.9,466.2c-0.1,0.4-0.3,0.9-0.4,1.3h6.2v1h-6.6
			c-0.4,1-0.9,1.9-1.4,2.7h3v-1.9h1.2v1.9h3.6v1h-3.6v1.8h4.8v1.1h-4.8v2.5h-1.2v-2.5h-5.8V474h5.8v-1.8h-4.2l-0.2-1
			c0.6-0.8,1.2-1.7,1.7-2.8h-2.4v-1h2.8c0.2-0.5,0.4-1,0.5-1.5L310.9,466.2z"/>
		<path class="st3" d="M322.6,469.3l-0.8,0.8c-0.6-0.7-1.5-1.5-2.5-2.4l0.8-0.8C321,467.7,321.9,468.5,322.6,469.3z M322.7,471.6
			c-0.6,2-1.3,4-2.1,5.8l-1.1-0.5c0.8-1.9,1.5-3.7,2.1-5.7L322.7,471.6z M322.9,465.2l-0.8,0.8c-0.6-0.7-1.4-1.3-2.5-2.1l0.8-0.8
			C321.4,463.8,322.2,464.5,322.9,465.2z M325.6,470.3c-0.1,2.1-0.3,3.6-0.6,4.6c-0.4,1-1,1.9-1.9,2.6l-0.7-0.9
			c0.8-0.6,1.3-1.4,1.6-2.2c0.3-0.8,0.5-2.2,0.5-4.1H325.6z M323.6,468.6c0.1,0,0.2-0.1,0.2-0.1c0.6-0.4,1.4-1.4,2.3-2.9h-2.8v-1
			h4.5c-0.2-0.6-0.5-1.1-0.7-1.6l1.2-0.2c0.3,0.5,0.5,1.2,0.7,1.8h4.2v1h-5.8c-0.8,1.3-1.4,2.3-2,2.9c1.8-0.1,3.7-0.3,5.5-0.5
			c-0.4-0.5-0.7-0.9-1.1-1.4l0.9-0.6c1.1,1.3,1.9,2.4,2.5,3.4l-0.9,0.7c-0.2-0.4-0.5-0.8-0.7-1.2c-2.4,0.3-4.9,0.5-7.7,0.6
			L323.6,468.6z M328.3,470.3v6.9h-1.2v-6.9H328.3z M331.3,477.4c-0.9,0-1.4-0.4-1.4-1.2v-5.8h1.1v5.6c0,0.2,0.1,0.4,0.3,0.4h0.7
			c0.3,0,0.4-0.2,0.5-0.6c0.1-0.4,0.1-1,0.1-1.9l1,0.4c0,1.4-0.1,2.3-0.3,2.6c-0.2,0.3-0.6,0.5-1.2,0.5H331.3z"/>
		<path class="st3" d="M339.6,463.5c-0.9,1.8-2.3,3.3-4.3,4.7l-0.3-1.2c1.7-1.2,2.9-2.5,3.6-4L339.6,463.5z M340.4,467.2
			c-0.5,0.9-1,1.8-1.7,2.6v7.8h-1.1v-6.7c-0.6,0.6-1.3,1.1-2.1,1.7l-0.3-1.2c2-1.4,3.4-2.9,4.3-4.7L340.4,467.2z M349.5,468v1.1
			h-2.6v7c0,0.9-0.5,1.4-1.6,1.4H343l-0.2-1.1c0.8,0,1.5,0.1,2.2,0.1c0.5,0,0.8-0.2,0.8-0.6v-6.7h-5V468H349.5z M348.8,463.9v1.1
			h-7.7v-1.1H348.8z"/>
		<path class="st3" d="M353.6,469.4c-0.1,3.4-0.6,6.1-1.7,8.2l-0.9-0.8c0.9-1.8,1.4-4.2,1.4-7.4v-5.2h6.2c-0.2-0.4-0.4-0.8-0.6-1.1
			l1.2-0.2c0.2,0.4,0.4,0.8,0.6,1.3h5.5v1.1h-11.7v1.8h2.7v-1.3h1.1v1.3h4.2v-1.3h1.1v1.3h2.5v1.1h-2.5v2.5h-6.5v-2.5h-2.7V469.4z
			 M363.9,471.7v0.8c-0.9,1.1-2,2-3.3,2.8c1.4,0.6,3.1,1,5,1.3l-0.5,1c-2.2-0.4-4.1-0.9-5.6-1.7c-1.6,0.8-3.5,1.3-5.6,1.7l-0.5-1
			c1.9-0.3,3.5-0.7,5-1.3c-1.2-0.7-2.2-1.6-2.9-2.6h-1v-1H363.9z M359.4,474.8c1.1-0.6,2.1-1.3,2.9-2.1h-5.7
			C357.4,473.6,358.3,474.3,359.4,474.8z M357.4,469.7h4.2v-1.5h-4.2V469.7z"/>
	</g>
	<g class="st0">
		<path class="st1" d="M44.6,619c5.2-4.3,9.3-7.9,12.4-10.6c3-2.8,5.6-5.7,7.6-8.7s3.1-6,3.1-8.9c0-2.2-0.5-3.9-1.5-5.1
			c-1-1.2-2.5-1.8-4.6-1.8c-2,0-3.6,0.8-4.8,2.3c-1.1,1.5-1.7,3.7-1.7,6.4H42c0.1-4.5,1.1-8.3,2.9-11.4c1.8-3,4.3-5.3,7.3-6.7
			c3-1.4,6.4-2.2,10-2.2c6.3,0,11.1,1.6,14.4,4.9c3.2,3.3,4.8,7.5,4.8,12.7c0,5.7-1.9,11-5.8,15.9c-3.9,4.9-8.9,9.6-14.9,14.3h21.6
			v11.1H42.1V621C43.9,619.6,44.8,618.9,44.6,619z"/>
		<path class="st1" d="M93.6,580.3c3.5-5.3,9.3-7.9,17.2-7.9c7.9,0,13.6,2.6,17.2,7.9c3.5,5.3,5.3,12.5,5.3,21.7
			c0,9.3-1.8,16.6-5.3,21.8c-3.5,5.3-9.3,7.9-17.2,7.9c-7.9,0-13.6-2.6-17.2-7.9c-3.5-5.3-5.3-12.6-5.3-21.8
			C88.3,592.8,90.1,585.6,93.6,580.3z M118,589.6c-1.2-2.9-3.6-4.4-7.3-4.4c-3.7,0-6.1,1.5-7.3,4.4c-1.2,2.9-1.8,7.1-1.8,12.4
			c0,3.6,0.2,6.6,0.6,9c0.4,2.4,1.3,4.3,2.6,5.8c1.3,1.5,3.2,2.2,5.8,2.2s4.5-0.7,5.8-2.2c1.3-1.5,2.2-3.4,2.6-5.8
			c0.4-2.4,0.6-5.4,0.6-9C119.8,596.6,119.2,592.5,118,589.6z"/>
		<path class="st1" d="M142.4,619c5.2-4.3,9.3-7.9,12.4-10.6c3-2.8,5.6-5.7,7.6-8.7s3.1-6,3.1-8.9c0-2.2-0.5-3.9-1.5-5.1
			c-1-1.2-2.5-1.8-4.6-1.8c-2,0-3.6,0.8-4.8,2.3c-1.1,1.5-1.7,3.7-1.7,6.4h-13.2c0.1-4.5,1.1-8.3,2.9-11.4c1.8-3,4.3-5.3,7.3-6.7
			c3-1.4,6.4-2.2,10-2.2c6.3,0,11.1,1.6,14.4,4.9c3.2,3.3,4.8,7.5,4.8,12.7c0,5.7-1.9,11-5.8,15.9c-3.9,4.9-8.9,9.6-14.9,14.3h21.6
			v11.1H140V621C141.8,619.6,142.6,618.9,142.4,619z"/>
		<path class="st1" d="M191.4,580.3c3.5-5.3,9.3-7.9,17.2-7.9c7.9,0,13.6,2.6,17.2,7.9c3.5,5.3,5.3,12.5,5.3,21.7
			c0,9.3-1.8,16.6-5.3,21.8c-3.5,5.3-9.3,7.9-17.2,7.9c-7.9,0-13.6-2.6-17.2-7.9c-3.5-5.3-5.3-12.6-5.3-21.8
			C186.1,592.8,187.9,585.6,191.4,580.3z M215.9,589.6c-1.2-2.9-3.6-4.4-7.3-4.4c-3.7,0-6.1,1.5-7.3,4.4c-1.2,2.9-1.8,7.1-1.8,12.4
			c0,3.6,0.2,6.6,0.6,9c0.4,2.4,1.3,4.3,2.6,5.8c1.3,1.5,3.2,2.2,5.8,2.2c2.6,0,4.5-0.7,5.8-2.2c1.3-1.5,2.2-3.4,2.6-5.8
			c0.4-2.4,0.6-5.4,0.6-9C217.6,596.6,217.1,592.5,215.9,589.6z"/>
	</g>
	<g class="st0">
		<path class="st1" d="M44.6,1097c5.2-4.3,9.3-7.9,12.4-10.6c3-2.8,5.6-5.7,7.6-8.7s3.1-6,3.1-8.9c0-2.2-0.5-3.9-1.5-5.1
			c-1-1.2-2.5-1.8-4.6-1.8c-2,0-3.6,0.8-4.8,2.3c-1.1,1.5-1.7,3.7-1.7,6.4H42c0.1-4.5,1.1-8.3,2.9-11.4c1.8-3,4.3-5.3,7.3-6.7
			c3-1.4,6.4-2.2,10-2.2c6.3,0,11.1,1.6,14.4,4.9c3.2,3.3,4.8,7.5,4.8,12.7c0,5.7-1.9,11-5.8,15.9c-3.9,4.9-8.9,9.6-14.9,14.3h21.6
			v11.1H42.1V1099C43.9,1097.6,44.8,1096.9,44.6,1097z"/>
		<path class="st1" d="M93.6,1058.3c3.5-5.3,9.3-7.9,17.2-7.9c7.9,0,13.6,2.6,17.2,7.9c3.5,5.3,5.3,12.5,5.3,21.7
			c0,9.3-1.8,16.6-5.3,21.8c-3.5,5.3-9.3,7.9-17.2,7.9c-7.9,0-13.6-2.6-17.2-7.9c-3.5-5.3-5.3-12.6-5.3-21.8
			C88.3,1070.8,90.1,1063.6,93.6,1058.3z M118,1067.6c-1.2-2.9-3.6-4.4-7.3-4.4c-3.7,0-6.1,1.5-7.3,4.4c-1.2,2.9-1.8,7.1-1.8,12.4
			c0,3.6,0.2,6.6,0.6,9c0.4,2.4,1.3,4.3,2.6,5.8c1.3,1.5,3.2,2.2,5.8,2.2s4.5-0.7,5.8-2.2c1.3-1.5,2.2-3.4,2.6-5.8
			c0.4-2.4,0.6-5.4,0.6-9C119.8,1074.6,119.2,1070.5,118,1067.6z"/>
		<path class="st1" d="M139,1064.3v-12.7h22.2v58.4h-14.2v-45.7H139z"/>
		<path class="st1" d="M192.6,1099.2c2.8,0,4.8-1.3,6-3.8c1.2-2.5,1.8-6.6,1.8-12.2c-1.2,1.7-2.8,2.9-4.8,3.8
			c-2,0.9-4.3,1.4-6.8,1.4c-3.4,0-6.5-0.7-9.1-2.1c-2.7-1.4-4.8-3.5-6.3-6.3s-2.3-6.2-2.3-10.2c0-3.9,0.8-7.4,2.4-10.3
			c1.6-2.9,3.9-5.2,7-6.8c3-1.6,6.6-2.4,10.7-2.4c7.9,0,13.4,2.5,16.6,7.4c3.1,4.9,4.7,12.1,4.7,21.7c0,6.9-0.6,12.7-1.9,17.2
			c-1.3,4.5-3.4,7.9-6.3,10.3c-3,2.3-7,3.5-12.1,3.5c-4.1,0-7.5-0.8-10.4-2.4c-2.9-1.6-5-3.7-6.6-6.3c-1.5-2.6-2.4-5.5-2.6-8.6h12.6
			C186,1097.1,188.5,1099.2,192.6,1099.2z M197.2,1075.6c1.3-1.4,2-3.2,2-5.6c0-2.6-0.7-4.5-2.1-5.9c-1.4-1.4-3.3-2.1-5.6-2.1
			c-2.3,0-4.2,0.7-5.6,2.1c-1.4,1.4-2,3.3-2,5.8c0,2.3,0.7,4.1,2,5.6s3.3,2.1,5.9,2.1C194.1,1077.6,195.9,1076.9,197.2,1075.6z"/>
	</g>
	<g class="st0">
		<path class="st2" d="M48.5,684.1v1.9h-6.1l-0.4,3.5H42c0.4-0.4,0.8-0.7,1.4-0.9c0.5-0.2,1-0.3,1.6-0.3c1.2,0,2.2,0.4,3,1.2
			c0.8,0.8,1.2,1.9,1.2,3.3c0,1.3-0.5,2.4-1.5,3.3c-0.9,0.8-2,1.1-3.3,1.1c-1.2,0-2.2-0.3-3-1c-0.9-0.7-1.4-1.7-1.5-2.8h2.1
			c0.1,0.7,0.4,1.2,0.8,1.6c0.4,0.3,1,0.5,1.7,0.5c0.8,0,1.4-0.2,1.9-0.7c0.5-0.5,0.8-1.1,0.8-1.9c0-0.9-0.2-1.5-0.7-2
			c-0.4-0.5-1.1-0.7-1.9-0.7c-0.6,0-1,0.1-1.4,0.3c-0.4,0.2-0.8,0.5-1,1h-2l0.7-7.2H48.5z"/>
		<path class="st2" d="M59.6,699l-1.4-1.3c1.1-1.6,1.7-3.6,1.7-6v-8.8h10.9v14.1c0,1.2-0.6,1.8-1.8,1.8h-2.3l-0.5-1.8
			c0.8,0.1,1.5,0.1,2.2,0.1c0.4,0,0.5-0.3,0.5-0.7v-3h-7.2C61.4,695.6,60.7,697.5,59.6,699z M68.8,684.6h-7.1v2.5h7.1V684.6z
			 M61.7,691.5h7.1v-2.7h-7.1V691.5z"/>
	</g>
	<g class="st0">
		<path class="st3" d="M48.6,717.6v1.1h-4V729h-1.3v-10.3h-4v-1.1H48.6z"/>
		<path class="st3" d="M51.6,717.9c0.2,0.2,0.3,0.4,0.3,0.7c0,0.3-0.1,0.5-0.3,0.7c-0.2,0.2-0.4,0.3-0.7,0.3s-0.5-0.1-0.7-0.3
			c-0.2-0.2-0.3-0.4-0.3-0.7c0-0.3,0.1-0.5,0.3-0.7c0.2-0.2,0.4-0.3,0.7-0.3S51.4,717.7,51.6,717.9z M51.6,720.7v8.3h-1.3v-8.3H51.6
			z"/>
		<path class="st3" d="M58.2,717.6c1.8,0,3.2,0.5,4.1,1.6c0.8,1,1.3,2.4,1.3,4.1c0,1.8-0.5,3.2-1.4,4.1c-1,1-2.3,1.6-4.1,1.6h-4
			v-11.4H58.2z M55.5,727.9h2.4c1.5,0,2.6-0.4,3.4-1.2c0.7-0.8,1.1-1.9,1.1-3.4c0-1.5-0.3-2.7-1-3.4c-0.7-0.8-1.8-1.2-3.3-1.2h-2.6
			V727.9z"/>
		<path class="st3" d="M70.6,717.6c1.1,0,1.9,0.3,2.5,0.8c0.6,0.5,0.9,1.2,0.9,2.1c0,0.6-0.2,1.2-0.5,1.7c-0.4,0.4-0.8,0.7-1.4,0.9
			c0.8,0.1,1.3,0.4,1.7,0.9c0.4,0.5,0.6,1.1,0.6,1.9c0,1.1-0.4,2-1.2,2.5c-0.7,0.4-1.6,0.7-2.8,0.7h-5.1v-11.4H70.6z M66.8,722.6
			h3.5c0.8,0,1.4-0.2,1.8-0.5c0.4-0.3,0.6-0.8,0.6-1.5c0-0.6-0.2-1.1-0.6-1.4c-0.4-0.3-1-0.5-1.8-0.5h-3.5V722.6z M66.8,727.9h3.6
			c0.8,0,1.4-0.2,1.9-0.4c0.6-0.4,0.8-0.9,0.8-1.6s-0.3-1.3-0.7-1.6c-0.5-0.4-1.1-0.5-2-0.5h-3.6V727.9z"/>
		<path class="st3" d="M87.8,717.6v7.8h1.9v1.1h-1.9v2.6h-1.2v-2.6h-5.7v-1.2l5.8-7.6H87.8z M81.9,725.3h4.6v-6.1h0L81.9,725.3z"/>
		<path class="st3" d="M92.9,727.4c0.2,0.2,0.3,0.4,0.3,0.7c0,0.3-0.1,0.5-0.3,0.7c-0.2,0.2-0.4,0.3-0.7,0.3c-0.3,0-0.5-0.1-0.7-0.3
			c-0.2-0.2-0.3-0.4-0.3-0.7c0-0.3,0.1-0.5,0.3-0.7c0.2-0.2,0.4-0.3,0.7-0.3C92.4,727.1,92.7,727.2,92.9,727.4z"/>
		<path class="st3" d="M102.2,719.2c0.6,1,0.9,2.4,0.9,4.1c0,1.7-0.3,3.1-0.9,4.1c-0.7,1.2-1.7,1.8-3.1,1.8c-1.4,0-2.4-0.6-3.1-1.8
			c-0.6-1-0.9-2.4-0.9-4.1c0-1.7,0.3-3.1,0.9-4.1c0.7-1.2,1.7-1.8,3.1-1.8C100.4,717.3,101.5,717.9,102.2,719.2z M96.9,720.1
			c-0.3,0.8-0.5,1.8-0.5,3.2c0,1.3,0.2,2.4,0.5,3.2c0.4,1.1,1.2,1.6,2.2,1.6s1.8-0.6,2.2-1.6c0.3-0.8,0.5-1.8,0.5-3.2
			c0-1.3-0.2-2.4-0.5-3.2c-0.4-1.1-1.2-1.6-2.2-1.6S97.3,719,96.9,720.1z"/>
		<path class="st3" d="M117.6,716c2,2.2,4.4,4,7,5.3l-0.6,1.1c-2.7-1.4-4.9-3.2-6.8-5.4c-1.7,2.1-4,3.9-6.9,5.4l-0.6-1.1
			c2.8-1.4,5.2-3.2,7.1-5.3H117.6z M118.3,720.2v3.6h4.4v1.1h-4.4v3.9h5.5v1.1h-13.3v-1.1h2.4v-6.3h1.1v6.3h3.1v-8.6H118.3z"/>
		<path class="st3" d="M132.1,716.1v12.7h2.3v-12.7h1.2v12.7h4.8v1.1h-14.2v-1.1h4.8v-12.7H132.1z M129.7,726.4l-1.1,0.3
			c-0.6-2.6-1.3-5-2.2-7.4l1-0.3C128.3,721.1,129.1,723.6,129.7,726.4z M139.9,719.3c-0.6,2.8-1.4,5.2-2.4,7.3l-1-0.4
			c0.9-1.9,1.7-4.3,2.4-7.2L139.9,719.3z"/>
		<path class="st3" d="M147,716.1v4.2h0.9v1.1h-3.8v0.8c0,0.5,0,1,0,1.4h3.1v6.8H146v-5.7h-2c-0.2,2.4-0.6,4.2-1.3,5.5l-0.9-0.8
			c0.7-1.5,1.1-4,1.1-7.3v-5.9h1.1v3.9h1.7v-4.2H147z M149.9,723.4c-0.1,3-0.6,5.3-1.6,7.1l-0.8-0.8c0.8-1.5,1.2-3.6,1.3-6.3v-6.4
			c2.5,0,4.8-0.4,6.8-1l0.6,1c-1.9,0.5-4,0.9-6.3,1v2.5h5.9v1c-0.4,2.2-1.1,4.1-2.1,5.6c0.8,1.1,1.7,1.9,2.9,2.4l-0.6,1
			c-1.2-0.6-2.2-1.5-3-2.5c-0.9,1-1.9,1.9-3.2,2.5l-0.6-1c1.2-0.7,2.2-1.5,3-2.5c-0.9-1.5-1.6-3.3-1.9-5.5h-0.5V723.4z M153,726.1
			c0.8-1.3,1.4-2.8,1.6-4.5h-3.2C151.8,723.4,152.3,724.9,153,726.1z"/>
		<path class="st3" d="M172,718.4c0.8,0.7,1.3,1.6,1.5,2.8h-1.3c-0.2-0.9-0.6-1.5-1.2-2c-0.6-0.5-1.4-0.7-2.4-0.7
			c-1.2,0-2.2,0.4-3,1.3c-0.7,0.9-1.1,2-1.1,3.5c0,1.4,0.4,2.6,1.1,3.4c0.8,0.9,1.9,1.3,3.4,1.3c0.6,0,1.2-0.1,1.8-0.3
			c0.6-0.2,1-0.4,1.4-0.6v-2.9h-3.6v-1.1h4.9v4.7c-0.5,0.4-1.2,0.8-2,1c-0.8,0.3-1.7,0.4-2.7,0.4c-1.8,0-3.2-0.6-4.2-1.7
			c-0.9-1.1-1.4-2.5-1.4-4.2c0-1.7,0.4-3.1,1.4-4.2c1-1.2,2.3-1.8,4-1.8C170,717.3,171.1,717.7,172,718.4z"/>
		<path class="st3" d="M180.5,717.6L185,729h-1.4l-1.2-3.2h-5.2l-1.2,3.2h-1.4l4.5-11.4H180.5z M182,724.7l-2.2-5.7h-0.1l-2.2,5.7
			H182z"/>
		<path class="st3" d="M193.5,716.4l1.1,0.2l-0.9,3.2h2.8c0.3-1.2,0.6-2.5,0.8-3.9l1.2,0.1c-0.2,1.3-0.5,2.6-0.8,3.8h7.5v1.1h-7.8
			c-0.2,0.6-0.4,1.2-0.6,1.8h6.5v1c-0.4,1.4-1.3,2.6-2.6,3.7c1.3,0.8,2.9,1.5,4.7,2.1l-0.6,1.1c-2-0.8-3.7-1.6-5.1-2.4
			c-1.3,0.9-2.9,1.8-4.9,2.5l-0.6-1.1c1.8-0.7,3.3-1.4,4.5-2.2c-1.2-1-2.1-2-2.7-3.1c-1.2,2.5-2.7,4.5-4.5,6l-0.6-1.1
			c2.3-2,4-4.8,5.2-8.4h-4L193.5,716.4z M199.7,726.7c1.2-0.9,2-1.9,2.4-3H197C197.5,724.8,198.4,725.8,199.7,726.7z M204,718.6
			l-0.8,0.8c-0.7-0.8-1.6-1.7-2.8-2.7l0.8-0.8C202.3,716.8,203.2,717.7,204,718.6z"/>
		<path class="st3" d="M212.1,716.1v4.2h0.9v1.1h-3.8v0.8c0,0.5,0,1,0,1.4h3.1v6.8h-1.1v-5.7h-2c-0.2,2.4-0.6,4.2-1.3,5.5l-0.9-0.8
			c0.7-1.5,1.1-4,1.1-7.3v-5.9h1.1v3.9h1.7v-4.2H212.1z M215,723.4c-0.1,3-0.6,5.3-1.6,7.1l-0.8-0.8c0.8-1.5,1.2-3.6,1.3-6.3v-6.4
			c2.5,0,4.8-0.4,6.8-1l0.6,1c-1.9,0.5-4,0.9-6.3,1v2.5h5.9v1c-0.4,2.2-1.1,4.1-2.1,5.6c0.8,1.1,1.7,1.9,2.9,2.4l-0.6,1
			c-1.2-0.6-2.2-1.5-3-2.5c-0.9,1-1.9,1.9-3.2,2.5l-0.6-1c1.2-0.7,2.2-1.5,3-2.5c-0.9-1.5-1.6-3.3-1.9-5.5H215V723.4z M218.2,726.1
			c0.8-1.3,1.4-2.8,1.6-4.5h-3.2C216.9,723.4,217.5,724.9,218.2,726.1z"/>
	</g>
	<g class="st0">
		<path class="st2" d="M47.9,783.6c0.8,1.1,1.2,2.6,1.2,4.6c0,2.1-0.5,3.8-1.3,5.1c-0.9,1.3-2.1,1.9-3.5,1.9c-2.5,0-4-1.2-4.3-3.5
			H42c0.3,1.2,1,1.8,2.2,1.8c0.8,0,1.5-0.4,2.1-1.3c0.5-0.8,0.7-1.8,0.7-3v-0.2H47c-0.4,0.5-0.8,0.9-1.4,1.2
			c-0.5,0.2-1.1,0.4-1.7,0.4c-1.3,0-2.3-0.4-3-1.2c-0.8-0.8-1.1-1.8-1.1-3.1c0-1.3,0.4-2.4,1.3-3.2c0.9-0.8,1.9-1.3,3.2-1.3
			C45.8,781.9,47,782.5,47.9,783.6z M42.5,784.4c-0.5,0.5-0.7,1.2-0.7,1.9c0,0.8,0.2,1.4,0.7,1.9c0.4,0.5,1,0.7,1.8,0.7
			c0.8,0,1.4-0.3,1.8-0.7c0.4-0.5,0.7-1.1,0.7-2s-0.2-1.5-0.7-1.9c-0.5-0.5-1.1-0.7-1.8-0.7C43.6,783.6,43,783.9,42.5,784.4z"/>
		<path class="st2" d="M59.6,797l-1.4-1.3c1.1-1.6,1.7-3.6,1.7-6v-8.8h10.9v14.1c0,1.2-0.6,1.8-1.8,1.8h-2.3l-0.5-1.8
			c0.8,0.1,1.5,0.1,2.2,0.1c0.4,0,0.5-0.3,0.5-0.7v-3h-7.2C61.4,793.6,60.7,795.5,59.6,797z M68.8,782.6h-7.1v2.5h7.1V782.6z
			 M61.7,789.5h7.1v-2.7h-7.1V789.5z"/>
	</g>
	<g class="st0">
		<path class="st3" d="M48.6,815.6v1.1h-4V827h-1.3v-10.3h-4v-1.1H48.6z"/>
		<path class="st3" d="M51.6,815.9c0.2,0.2,0.3,0.4,0.3,0.7c0,0.3-0.1,0.5-0.3,0.7c-0.2,0.2-0.4,0.3-0.7,0.3s-0.5-0.1-0.7-0.3
			c-0.2-0.2-0.3-0.4-0.3-0.7c0-0.3,0.1-0.5,0.3-0.7c0.2-0.2,0.4-0.3,0.7-0.3S51.4,815.7,51.6,815.9z M51.6,818.7v8.3h-1.3v-8.3H51.6
			z"/>
		<path class="st3" d="M58.2,815.6c1.8,0,3.2,0.5,4.1,1.6c0.8,1,1.3,2.4,1.3,4.1c0,1.8-0.5,3.2-1.4,4.1c-1,1-2.3,1.6-4.1,1.6h-4
			v-11.4H58.2z M55.5,825.9h2.4c1.5,0,2.6-0.4,3.4-1.2c0.7-0.8,1.1-1.9,1.1-3.4c0-1.5-0.3-2.7-1-3.4c-0.7-0.8-1.8-1.2-3.3-1.2h-2.6
			V825.9z"/>
		<path class="st3" d="M70.6,815.6c1.1,0,1.9,0.3,2.5,0.8c0.6,0.5,0.9,1.2,0.9,2.1c0,0.6-0.2,1.2-0.5,1.7c-0.4,0.4-0.8,0.7-1.4,0.9
			c0.8,0.1,1.3,0.4,1.7,0.9c0.4,0.5,0.6,1.1,0.6,1.9c0,1.1-0.4,2-1.2,2.5c-0.7,0.4-1.6,0.7-2.8,0.7h-5.1v-11.4H70.6z M66.8,820.6
			h3.5c0.8,0,1.4-0.2,1.8-0.5c0.4-0.3,0.6-0.8,0.6-1.5c0-0.6-0.2-1.1-0.6-1.4c-0.4-0.3-1-0.5-1.8-0.5h-3.5V820.6z M66.8,825.9h3.6
			c0.8,0,1.4-0.2,1.9-0.4c0.6-0.4,0.8-0.9,0.8-1.6s-0.3-1.3-0.7-1.6c-0.5-0.4-1.1-0.5-2-0.5h-3.6V825.9z"/>
		<path class="st3" d="M89,828.3c-1,0-1.9-0.1-2.5-0.3c-0.6-0.2-1.2-0.6-1.7-1.2c-0.2-0.3-0.4-0.4-0.6-0.4c-0.4,0-1,0.7-1.9,2.2
			l-0.9-0.8c0.8-1.3,1.6-2.2,2.3-2.4v-4.9h-2.3v-1.1h3.3v6c0.1,0.1,0.3,0.2,0.4,0.4c0.4,0.5,0.8,0.8,1.2,1c0.5,0.2,1.2,0.4,2.2,0.4
			c0.8,0,1.9,0,3.2,0c0.7,0,1.5,0,2.3,0c0.8,0,1.4,0,1.8-0.1l-0.3,1.2h-3.6C91,828.3,90,828.3,89,828.3z M85.3,816.7l-0.8,0.8
			c-0.7-0.8-1.6-1.6-2.8-2.5l0.8-0.8C83.6,815,84.5,815.8,85.3,816.7z M90.8,816.9c0.8-0.4,1.6-0.9,2.3-1.5H86v-1h8.7v0.8
			c-1,0.8-2,1.6-3.1,2.2l0.3,0.2H95v7.2c0,0.8-0.4,1.2-1.3,1.2h-1.3l-0.3-1l1.3,0c0.4,0,0.6-0.2,0.6-0.5v-1.2h-2.7v2.8h-1.1v-2.8
			h-2.7v2.8h-1.1v-8.5h4c-0.6-0.4-1.3-0.9-2.1-1.3l0.7-0.7C89.6,816.1,90.3,816.5,90.8,816.9z M90.1,818.6h-2.7v1.4h2.7V818.6z
			 M87.4,822.5h2.7V821h-2.7V822.5z M93.9,818.6h-2.7v1.4h2.7V818.6z M91.2,822.5h2.7V821h-2.7V822.5z"/>
		<path class="st3" d="M105.2,828.3c-1.1,0-2-0.1-2.6-0.3c-0.7-0.2-1.3-0.6-1.8-1.2c-0.2-0.3-0.4-0.4-0.7-0.4c-0.4,0-1,0.7-1.9,2.2
			l-0.9-0.8c0.9-1.4,1.6-2.2,2.3-2.5v-4.8h-2.3v-1.1h3.4v6c0.1,0.1,0.3,0.2,0.4,0.4c0.4,0.4,0.8,0.8,1.3,1c0.5,0.2,1.3,0.3,2.3,0.4
			c0.9,0,2,0,3.3,0c0.7,0,1.4,0,2.1,0c0.7,0,1.3,0,1.7-0.1l-0.3,1.2h-3.4C107.2,828.3,106.3,828.3,105.2,828.3z M101.2,816.7
			l-0.8,0.8c-0.7-0.8-1.6-1.7-2.7-2.6l0.8-0.8C99.5,815,100.4,815.8,101.2,816.7z M105.4,826.2l-0.3-1.1c0.7,0,1.5,0.1,2.1,0.1
			c0.4,0,0.7-0.2,0.7-0.7v-6.8h-6.1v-1.1h6.1V814h1.2v2.6h2.4v1.1h-2.4v7.1c0,0.9-0.5,1.4-1.5,1.4H105.4z M106,822.2l-0.9,0.6
			c-0.6-1-1.3-2-2.3-3.2l0.9-0.6C104.7,820.3,105.5,821.3,106,822.2z"/>
		<path class="st3" d="M114.4,816.3v-1.1h12.2v1.1h-5.5v10.1h6.5v1.1h-14.3v-1.1h6.6v-10.1H114.4z"/>
		<path class="st3" d="M129.3,821.7l-0.4-1.2c1.6-1.9,2.7-4.2,3.4-6.7l1.1,0.5c-0.4,1.2-0.8,2.4-1.4,3.5v10.9h-1.1v-9
			C130.4,820.3,129.9,821,129.3,821.7z M138.3,816c-0.2-0.6-0.5-1.2-0.8-1.9l1.1-0.3c0.3,0.7,0.6,1.3,0.8,1.9l-0.6,0.2h5v1.1h-10.4
			V816H138.3z M142.7,828.6h-1.1v-0.9h-5.9v0.9h-1.1V823h8.2V828.6z M142.4,818.4v1h-7.6v-1H142.4z M142.4,820.7v1.1h-7.6v-1.1
			H142.4z M141.6,826.6v-2.5h-5.9v2.5H141.6z"/>
		<path class="st3" d="M148.5,819.9h1.7c0.5-0.9,0.9-1.8,1.2-2.8l1.1,0.4c-0.3,0.9-0.7,1.7-1.1,2.4h1.9v1.1h-8v-1.1h2.2
			c-0.3-0.8-0.6-1.6-1-2.3l1.1-0.4C147.8,817.9,148.2,818.8,148.5,819.9z M148.8,815.5c-0.2-0.5-0.4-1-0.6-1.4l1.2-0.2
			c0.2,0.5,0.4,1,0.5,1.6h3.3v1.1h-7.6v-1.1H148.8z M152.6,828.5h-1.1v-0.9h-4.1v0.9h-1.1v-6h6.4V828.5z M151.4,826.5v-3h-4.1v3
			H151.4z M159.3,814.6v0.9c-0.5,1.7-1,3.2-1.6,4.7c1.2,1.5,1.8,2.8,1.8,3.7c0,1-0.2,1.7-0.6,2.1c-0.4,0.4-1.3,0.6-2.6,0.6l-0.4-1.2
			c0.4,0,0.8,0.1,1.1,0.1c0.6,0,0.9-0.1,1.1-0.3c0.2-0.2,0.2-0.6,0.3-1.2c0-0.9-0.7-2.2-1.9-3.7c0.5-1.3,1.1-2.8,1.6-4.5h-2.9v12.9
			H154v-14H159.3z"/>
		<path class="st3" d="M175.6,823l-0.5,1c-0.9-0.3-1.6-0.6-2.3-0.9v3.1h-1.1v-2.8h-6.4v2.8h-1.1v-3.2c-0.7,0.4-1.5,0.7-2.4,1l-0.6-1
			c1.7-0.5,3-1,3.9-1.7h-3.5v-0.9h4.4v-1h-2v-0.8h2v-1h-2.4v-0.9h2.4v-0.9h-3v1.6H162v-2.6h6c-0.2-0.3-0.4-0.6-0.6-0.9l1.2-0.2
			c0.2,0.3,0.4,0.7,0.6,1.1h5.8v2.6h-1.1v-1.6h-3v0.9h2.4v0.9h-2.4v1h2.1v0.8h-2.1v1h4.4v0.9h-3.6C172.6,822,173.9,822.5,175.6,823z
			 M168.9,823.9c-0.2,1.7-0.6,2.8-1.2,3.4c-0.7,0.7-2.3,1.2-4.8,1.4l-0.4-1c2.2-0.1,3.6-0.5,4.3-1.1c0.6-0.6,1-1.5,1.1-2.8
			L168.9,823.9z M170.5,821.3h-4.1c-0.4,0.4-0.8,0.7-1.2,1.1h6.6C171.2,822,170.8,821.7,170.5,821.3z M167.2,815.8v0.9h2.6v-0.9
			H167.2z M169.7,817.6h-2.6v1h2.6V817.6z M169.7,820.4v-1h-2.6v1H169.7z M174.3,827.8l-0.6,0.9c-1.6-0.8-3.2-1.5-4.8-2l0.6-0.8
			C171.3,826.4,172.9,827.1,174.3,827.8z"/>
		<path class="st3" d="M179.3,819.9v-1.1h10.4v1.1h-4.7v2.8h4.1v1.1h-4.1v3.4h6.1v1.1h-13.3v-1.1h6.1v-3.4h-4.2v-1.1h4.2v-2.8H179.3
			z M190.9,818.7h-1.2v-2h-10.6v2.1h-1.2v-3.2h6c-0.2-0.5-0.4-1-0.7-1.4l1.2-0.2c0.2,0.5,0.4,1,0.6,1.6h5.7V818.7z M189.6,826.4
			l-0.9,0.6c-0.4-0.7-1-1.5-1.8-2.4l0.9-0.5C188.6,825,189.2,825.8,189.6,826.4z"/>
		<path class="st3" d="M193.5,815.9v-1.1h5.5v1.1h-2.5c-0.2,1.3-0.6,2.5-1,3.6h3v7.3h-2.8v1.3h-1.1v-6.7c-0.3,0.6-0.7,1.2-1.1,1.7
			l-0.6-1c1.2-1.8,2.1-3.9,2.5-6.2H193.5z M197.4,825.8v-5.2h-1.7v5.2H197.4z M202.3,821.3c-0.1,3.3-1.1,5.7-2.9,7.3l-0.8-0.8
			c1.6-1.4,2.5-3.5,2.6-6.5h-1.7v-1.1h1.8v-4.4h-1.4v-1.1h7.6v1.1h-1.5v4.4h1.9v1.1h-1.9v7.2h-1.1v-7.2H202.3z M202.3,815.8v4.4h2.5
			v-4.4H202.3z"/>
		<path class="st3" d="M215.9,819.8v1.2l0,0.9h4.1v5.1c0,0.3,0.2,0.4,0.5,0.4h1.2c0.4,0,0.6-0.2,0.7-0.6c0.1-0.6,0.1-1.3,0.1-2
			l1.1,0.3c-0.1,1.3-0.2,2.1-0.3,2.4c-0.2,0.7-0.7,1-1.6,1h-1.4c-1,0-1.4-0.4-1.4-1.3V823h-3.2c-0.2,1.2-0.7,2.1-1.3,2.9
			c-0.9,1.1-2.4,2-4.4,2.7l-0.6-1c2-0.6,3.4-1.4,4.2-2.4c0.4-0.6,0.7-1.4,0.9-2.2h-4v-1.1h4.2c0-0.3,0-0.6,0.1-0.9v-1.2H215.9z
			 M217.1,815.4h5.9v3.2h-1.2v-2.1H211v2.1h-1.2v-3.2h6c-0.2-0.5-0.4-1-0.7-1.4l1.3-0.2C216.7,814.3,216.9,814.9,217.1,815.4z
			 M215.5,818c-1.3,1.2-3,2.3-4.9,3.1l-0.5-1c1.9-0.7,3.5-1.7,4.8-2.9L215.5,818z M222.6,820.3l-0.6,1c-1.5-1.3-3-2.3-4.6-3.1
			l0.6-0.9C219.7,818.1,221.2,819.1,222.6,820.3z"/>
		<path class="st3" d="M227.3,823.4c-0.2,2-0.7,3.7-1.5,5.2l-0.8-0.8c0.9-1.6,1.3-3.6,1.3-5.8v-6.6c1.9-0.2,3.4-0.7,4.5-1.3l0.8,0.9
			c-1.2,0.6-2.6,1.1-4.2,1.3v1.9h4.1v5.3H227.3z M227.4,821.9c0,0.1,0,0.2,0,0.4h3.1v-3.2h-3V821.9z M233.9,822.4
			c0,2.8-0.4,4.8-1.1,6.2l-1-0.5c0.7-1.4,1.1-3.3,1.1-5.7v-7.2c2.3-0.1,4.2-0.5,5.7-1.1l0.6,1c-1.6,0.6-3.3,1-5.3,1.1l0,2.8h5.8v1.1
			h-1.8v8.6h-1.1V820h-2.9V822.4z"/>
		<path class="st3" d="M247.2,814.9c-0.8,1.3-1.5,2.4-2.3,3.3c-0.8,0.9-1.9,1.8-3.2,2.7l-0.6-1c1.1-0.6,2.1-1.4,3-2.4
			c0.8-0.9,1.5-1.9,2.1-3.2L247.2,814.9z M243.5,821.4v-1.1h9.6c0,2-0.1,3.6-0.3,4.9c-0.2,1.2-0.4,2.1-0.8,2.6
			c-0.4,0.5-0.9,0.7-1.7,0.8h-2.9l-0.3-1.1c0.9,0,1.8,0,2.6,0c0.9,0,1.4-0.4,1.7-1.1c0.3-0.8,0.5-2.4,0.5-4.9h-4
			c-0.4,1.7-0.9,3.1-1.6,4.2c-0.8,1.2-2,2.2-3.7,3.1l-0.7-1c1.5-0.8,2.6-1.7,3.3-2.6c0.7-0.9,1.2-2.1,1.5-3.6H243.5z M255.7,819.9
			l-0.8,0.9c-2.5-1.6-4.2-3.7-5.2-6.2l1-0.6C251.7,816.5,253.3,818.5,255.7,819.9z"/>
		<path class="st3" d="M266,818.1v2h4.5v5.4c0,1-0.5,1.5-1.5,1.5h-1.5l-0.3-1.1l1.4,0c0.5,0,0.8-0.2,0.8-0.7v-4.1H266v7.4h-1.1v-7.4
			h-3.4v5.9h-1.1v-6.1c-0.8,0.8-1.7,1.6-2.6,2.3l-0.7-1c2-1.5,3.6-3.2,4.8-5.2h-4.3V816h4.9c0.4-0.7,0.6-1.4,0.9-2.1l1.2,0.1
			c-0.2,0.7-0.5,1.4-0.8,2h7.8v1.1h-8.3c-0.6,1.1-1.2,2-2,3h3.8v-2H266z"/>
		<path class="st3" d="M280.5,820.6v1.1h-2.8v4.2c1.2-0.2,2.3-0.5,3.4-0.8v1.1c-2.3,0.6-4.8,1-7.5,1.4l-0.3-1.1
			c1.1-0.1,2.1-0.3,3.1-0.4v-4.4h-2.8v-1.1H280.5z M281.3,816.8c0-0.9-0.1-1.9-0.1-2.8h1.2c0,1,0,1.9,0.1,2.8h4.9v1.1h-4.9
			c0.2,2.7,0.6,4.9,1.2,6.7c0.7,1.8,1.3,2.7,1.8,2.7c0.3,0,0.7-1,1-2.8l1,0.5c-0.5,2.3-1.1,3.5-2,3.5c-1.4-0.1-2.6-1.9-3.6-5.3
			c-0.4-1.5-0.6-3.3-0.7-5.3h-7.9v-1.1H281.3z M286.4,816.1l-1,0.5c-0.5-0.8-1-1.5-1.5-2.1l1-0.5
			C285.4,814.7,285.9,815.4,286.4,816.1z"/>
		<path class="st3" d="M293.3,821.5c-0.1,0.3-0.2,0.6-0.3,0.9h3.3v0.9c-0.4,1.1-0.9,2-1.8,2.7c0.8,0.4,1.5,0.7,2.2,1.1l-0.6,0.9
			c-0.7-0.4-1.5-0.8-2.5-1.3c-1.1,0.7-2.4,1.3-4,1.8l-0.5-1c1.3-0.4,2.4-0.8,3.4-1.3c-0.7-0.3-1.4-0.6-2.2-0.9
			c0.4-0.7,0.8-1.4,1.1-2h-1.9v-1h2.3c0.1-0.4,0.3-0.7,0.4-1L293.3,821.5z M292.6,817v-3.1h1.1v3.1h2.9v1h-2.9v0.2
			c0.9,0.4,1.8,0.9,2.7,1.5l-0.6,0.9c-0.8-0.6-1.5-1.2-2.1-1.5v2.1h-1.1v-3c-0.5,1.3-1.5,2.4-2.9,3.3l-0.6-0.9
			c1.2-0.7,2.1-1.5,2.6-2.4h-2.3v-1H292.6z M291.8,816.2l-0.8,0.4c-0.3-0.8-0.7-1.5-1.1-2.1l0.9-0.3
			C291.1,814.9,291.5,815.5,291.8,816.2z M295.3,823.4h-2.8c-0.3,0.5-0.5,1.1-0.9,1.5c0.6,0.2,1.2,0.4,1.8,0.7
			C294.3,825,294.9,824.2,295.3,823.4z M296.5,814.6c-0.3,0.7-0.7,1.4-1.2,2.1l-0.8-0.4c0.5-0.7,0.9-1.4,1.2-2L296.5,814.6z
			 M298.2,820.1c-0.3,0.7-0.6,1.4-0.9,2l-0.7-0.9c0.9-1.8,1.6-4.2,1.9-7.3l1.1,0.2c-0.1,0.8-0.2,1.6-0.4,2.3h4.2v1.1h-1
			c-0.1,2.7-0.6,5-1.5,6.9c0.8,1.4,1.8,2.5,3,3.3l-0.6,0.9c-1.1-0.8-2.1-1.9-2.9-3.2c-0.8,1.3-1.8,2.4-3,3.2l-0.6-1
			c1.2-0.9,2.2-2,3-3.3C299.2,823.1,298.7,821.7,298.2,820.1z M298.8,818.3c0.4,1.9,0.9,3.5,1.6,4.8c0.6-1.6,1-3.5,1-5.7H299
			L298.8,818.3z"/>
		<path class="st3" d="M305.7,828.5l-0.2-1.1c0.4,0,0.8,0.1,1.2,0.1c0.4,0,0.6-0.2,0.6-0.7v-3.9c-0.6,0.2-1.3,0.5-1.9,0.7l-0.3-1.1
			c0.7-0.2,1.5-0.4,2.2-0.7v-3.6h-1.9V817h1.9v-3h1.1v3h1.5v1.1h-1.5v3.2c0.5-0.2,1-0.5,1.5-0.7v1.1c-0.5,0.3-1,0.5-1.5,0.7v4.7
			c0,0.9-0.4,1.4-1.3,1.4H305.7z M310,828.6l-0.9-0.8c1.1-2.1,1.7-4.9,1.7-8.2v-5h8.4v3.9h-3v1.9h3.4v1h-3.4v2h2.7v5.2h-1.1v-0.8
			h-4.3v0.8h-1.1v-5.2h2.7v-2h-3.3C311.7,824.1,311,826.5,310,828.6z M311.9,818.5v1.1c0,0.3,0,0.5,0,0.8h3.2v-1.9H311.9z
			 M311.9,815.6v1.8h6.2v-1.8H311.9z M317.9,826.8v-2.4h-4.3v2.4H317.9z"/>
		<path class="st3" d="M329.8,815.3h5.8v1.1h-11.9v3.6c-0.1,3.5-0.6,6.4-1.6,8.5l-0.9-0.8c0.9-1.8,1.3-4.4,1.4-7.6v-4.8h6
			c-0.3-0.5-0.5-0.9-0.8-1.3l1.3-0.2C329.3,814.3,329.6,814.8,329.8,815.3z M329.1,817.2c-0.1,0.4-0.3,0.9-0.4,1.3h6.2v1h-6.6
			c-0.4,1-0.9,1.9-1.4,2.7h3v-1.9h1.2v1.9h3.6v1h-3.6v1.8h4.8v1.1h-4.8v2.5h-1.2v-2.5H324V825h5.8v-1.8h-4.2l-0.2-1
			c0.6-0.8,1.2-1.7,1.7-2.8h-2.4v-1h2.8c0.2-0.5,0.4-1,0.5-1.5L329.1,817.2z"/>
		<path class="st3" d="M339.9,820c-0.1,3.5-0.8,6.3-2.1,8.5l-0.8-0.8c1.1-1.8,1.7-4.4,1.8-7.6v-5c4.2,0,8-0.4,11.4-1l0.6,1
			c-3.2,0.5-6.9,0.8-10.9,0.9v1.6h5.3c0.1-0.5,0.1-1,0.2-1.5l1.2,0.1c0,0.4-0.1,0.9-0.2,1.3h5.1v1.1h-5.3c-0.1,0.5-0.2,1-0.3,1.5
			h4.1v5.4h-1.1v-4.4h-6.3v4.4h-1.1v-5.5h3.2c0.1-0.5,0.2-1,0.3-1.5h-5.2V820z M346.6,821.9c-0.2,1.9-0.8,3.3-1.7,4.3
			c-1,1-2.5,1.8-4.5,2.4l-0.6-1.1c1.9-0.5,3.3-1.1,4.2-2c0.9-0.9,1.4-2.1,1.6-3.7L346.6,821.9z M351.5,827.6l-0.6,1
			c-1.6-1.1-3.2-1.9-4.8-2.5l0.6-0.9C348.5,825.9,350.1,826.7,351.5,827.6z"/>
		<path class="st3" d="M367.6,819v0.9h-14.3V819H367.6z M366,820.6v4.1h-5v0.9h5.4v0.8H361v0.9h6.6v0.9h-14.3v-0.9h6.6v-0.9h-5.4
			v-0.8h5.4v-0.9h-5v-4.1H366z M365.7,814.2v4h-10.5v-4H365.7z M359.9,822.3v-1H356v1H359.9z M359.9,823H356v1h3.9V823z
			 M364.6,815.8v-0.9h-8.2v0.9H364.6z M364.6,816.5h-8.2v0.9h8.2V816.5z M361,822.3h3.9v-1H361V822.3z M364.9,823H361v1h3.9V823z"/>
	</g>
	<g class="st0">
		<path class="st3" d="M45.4,847.1v1.1H43c-0.2,1.3-0.5,2.5-0.9,3.6H45v7.3h-2.8v1.2h-1.1v-6.3c-0.3,0.5-0.6,1-0.8,1.4l-0.7-1.1
			c1.2-1.8,1.9-3.9,2.3-6.2h-1.8v-1.1H45.4z M44,858.1v-5.2h-1.7v5.2H44z M45.9,860.8l-0.8-0.8c0.8-1.2,1.2-2.6,1.2-4.4v-5.2
			c-0.2,0.2-0.5,0.4-0.7,0.6l-0.7-0.8c1.3-1,2.3-2.4,3.1-4.1l1.1,0.2c-0.2,0.3-0.3,0.7-0.5,1h3.9v0.8c-0.5,0.7-1,1.3-1.4,1.8h2.7
			v9.6c0,0.7-0.4,1.1-1.2,1.1h-1.2l-0.3-1c0.4,0,0.8,0.1,1.1,0.1c0.3,0,0.5-0.2,0.5-0.5v-2.1h-2.1v3.5h-1v-3.5h-2.2
			C47.1,858.6,46.7,859.8,45.9,860.8z M51.1,848.4H48c-0.4,0.6-0.8,1.1-1.3,1.6h3C50.3,849.5,50.7,849,51.1,848.4z M47.4,855.6
			c0,0.1,0,0.3,0,0.4h2.1v-2h-2.1V855.6z M47.4,851v2h2.1v-2H47.4z M52.6,851h-2.1v2h2.1V851z M52.6,854h-2.1v2h2.1V854z"/>
		<path class="st3" d="M59.2,851.1v7c0.6-0.5,1.2-1,1.9-1.6l0.3,1.2c-1,0.9-2,1.8-3.2,2.5l-0.4-1c0.2-0.2,0.4-0.4,0.4-0.7v-6.2h-2.4
			v-1.1H59.2z M60.3,848.8l-0.8,0.8c-0.7-0.8-1.6-1.6-2.8-2.5l0.8-0.8C58.7,847.2,59.6,848,60.3,848.8z M66.2,846.3
			c0,1.3,0,2.6-0.1,3.8c0.8,4.1,2.3,7.4,4.4,9.8l-0.8,1c-1.7-2.2-3-4.9-3.9-8c-0.1,0.4-0.2,0.9-0.2,1.3c-0.6,2.8-2,5-4.1,6.8
			l-0.8-0.9c1.9-1.6,3.1-3.5,3.7-5.9c0.4-2,0.7-4.5,0.7-7.7H66.2z"/>
		<path class="st3" d="M73.1,849.4c0,1.6-0.2,3.1-0.5,4.6l-0.9-0.3c0.3-1.4,0.5-2.8,0.6-4.4L73.1,849.4z M75.1,846.3v14.6h-1.2
			v-14.6H75.1z M77.1,851.7c0.5-1.4,0.9-2.9,0.9-4.5l1,0.1c0,0.7-0.1,1.3-0.2,1.9h2.3v-3h1.2v3h3.5v1.1h-3.5v3.9h3.2v1.1h-3.2v3.9
			h3.9v1.1h-9.7v-1.1h4.6v-3.9h-3.7v-1.1h3.7v-3.9h-2.5c-0.3,1.2-0.7,2.3-1.3,3.2l-0.8-0.8c0.2-0.4,0.3-0.7,0.5-1l-0.8,0.2
			c-0.2-1-0.5-1.9-0.9-2.8l0.8-0.3C76.6,849.7,76.9,850.6,77.1,851.7z"/>
		<path class="st3" d="M91.1,851.1v7.1c0.5-0.4,1.1-1,1.6-1.6l0.3,1.2c-0.9,0.9-1.9,1.7-3,2.5l-0.4-1c0.2-0.2,0.4-0.4,0.4-0.7v-6.4
			h-2.4v-1.1H91.1z M92.3,848.8l-0.8,0.8c-0.7-0.8-1.6-1.6-2.8-2.5l0.8-0.8C90.7,847.2,91.6,848,92.3,848.8z M101.9,846.9v1.1h-3.8
			v6h4.3v1.1h-4.3v5.7H97v-5.7h-4.2v-1.1H97v-6h-3.8v-1.1H101.9z M95.7,853l-1,0.3c-0.3-1.4-0.8-2.7-1.3-4l1-0.3
			C94.9,850.1,95.4,851.4,95.7,853z M101.5,849.1c-0.3,1.6-0.8,2.9-1.3,4.1l-1-0.3c0.5-1.1,0.9-2.4,1.2-4L101.5,849.1z"/>
		<path class="st3" d="M106.7,852.8l-0.8,0.8c-0.5-0.7-1.3-1.5-2.2-2.3l0.8-0.7C105.3,851.2,106.1,852,106.7,852.8z M106.9,855.2
			c-0.6,2-1.3,3.8-2,5.5l-1.1-0.4c0.8-1.8,1.5-3.6,2.1-5.5L106.9,855.2z M107,848.7l-0.8,0.8c-0.5-0.7-1.3-1.4-2.3-2.1l0.8-0.8
			C105.6,847.2,106.4,848,107,848.7z M110.8,849.1v5.1c0,1.8-0.3,3.3-0.9,4.4c-0.5,1-1.4,1.8-2.6,2.4l-0.6-1c1.2-0.5,2-1.3,2.4-2.2
			c0.4-0.9,0.7-2.1,0.7-3.6v-5.1H110.8z M113,856.8h-1V848h-3.3v8.9h-1V847h5.4V856.8z M113.7,860.1l-0.8,0.8
			c-0.6-0.8-1.4-1.7-2.4-2.7l0.7-0.7C112.3,858.4,113.1,859.2,113.7,860.1z M115.3,847.6v10h-1v-10H115.3z M114.7,860.8l-0.2-1.1
			c0.6,0,1.1,0.1,1.6,0.1c0.4,0,0.6-0.2,0.6-0.6v-12.8h1.1v13.1c0,0.9-0.4,1.4-1.3,1.4H114.7z"/>
	</g>
	<g class="st0">
		<path class="st2" d="M44.8,910.1V923h-2.1v-10.3c-0.8,0.7-1.7,1.2-2.9,1.6v-2.1c0.6-0.1,1.2-0.4,1.8-0.8c0.6-0.4,1.2-0.8,1.6-1.3
			H44.8z"/>
		<path class="st2" d="M55.1,911c0.8,0.7,1.2,1.6,1.2,2.8c0,1.1-0.4,2.1-1.3,3c-0.5,0.5-1.4,1.2-2.7,2.1c-1.3,0.9-2.1,1.6-2.4,2.3
			h6.3v1.9h-9c0-1.3,0.4-2.4,1.3-3.4c0.5-0.5,1.5-1.3,3-2.4c0.8-0.6,1.4-1.1,1.8-1.4c0.6-0.6,0.8-1.3,0.8-2c0-0.7-0.2-1.2-0.6-1.6
			c-0.4-0.3-0.9-0.5-1.7-0.5c-0.8,0-1.4,0.3-1.8,0.8c-0.4,0.5-0.6,1.3-0.6,2.3h-2.1c0-1.4,0.4-2.6,1.3-3.5c0.8-0.9,2-1.4,3.3-1.4
			C53.2,909.9,54.2,910.3,55.1,911z"/>
		<path class="st2" d="M66.9,925l-1.4-1.3c1.1-1.6,1.7-3.6,1.7-6v-8.8h10.9v14.1c0,1.2-0.6,1.8-1.8,1.8H74l-0.5-1.8
			c0.8,0.1,1.5,0.1,2.2,0.1c0.4,0,0.5-0.3,0.5-0.7v-3H69C68.7,921.6,68.1,923.5,66.9,925z M76.2,910.6h-7.1v2.5h7.1V910.6z
			 M69.1,917.5h7.1v-2.7h-7.1V917.5z"/>
	</g>
	<g class="st0">
		<path class="st3" d="M48.6,943.6v1.1h-4V955h-1.3v-10.3h-4v-1.1H48.6z"/>
		<path class="st3" d="M51.6,943.9c0.2,0.2,0.3,0.4,0.3,0.7c0,0.3-0.1,0.5-0.3,0.7c-0.2,0.2-0.4,0.3-0.7,0.3s-0.5-0.1-0.7-0.3
			c-0.2-0.2-0.3-0.4-0.3-0.7c0-0.3,0.1-0.5,0.3-0.7c0.2-0.2,0.4-0.3,0.7-0.3S51.4,943.7,51.6,943.9z M51.6,946.7v8.3h-1.3v-8.3H51.6
			z"/>
		<path class="st3" d="M58.2,943.6c1.8,0,3.2,0.5,4.1,1.6c0.8,1,1.3,2.4,1.3,4.1c0,1.8-0.5,3.2-1.4,4.1c-1,1-2.3,1.6-4.1,1.6h-4
			v-11.4H58.2z M55.5,953.9h2.4c1.5,0,2.6-0.4,3.4-1.2c0.7-0.8,1.1-1.9,1.1-3.4c0-1.5-0.3-2.7-1-3.4c-0.7-0.8-1.8-1.2-3.3-1.2h-2.6
			V953.9z"/>
		<path class="st3" d="M70.6,943.6c1.1,0,1.9,0.3,2.5,0.8c0.6,0.5,0.9,1.2,0.9,2.1c0,0.6-0.2,1.2-0.5,1.7c-0.4,0.4-0.8,0.7-1.4,0.9
			c0.8,0.1,1.3,0.4,1.7,0.9c0.4,0.5,0.6,1.1,0.6,1.9c0,1.1-0.4,2-1.2,2.5c-0.7,0.4-1.6,0.7-2.8,0.7h-5.1v-11.4H70.6z M66.8,948.6
			h3.5c0.8,0,1.4-0.2,1.8-0.5c0.4-0.3,0.6-0.8,0.6-1.5c0-0.6-0.2-1.1-0.6-1.4c-0.4-0.3-1-0.5-1.8-0.5h-3.5V948.6z M66.8,953.9h3.6
			c0.8,0,1.4-0.2,1.9-0.4c0.6-0.4,0.8-0.9,0.8-1.6s-0.3-1.3-0.7-1.6c-0.5-0.4-1.1-0.5-2-0.5h-3.6V953.9z"/>
		<path class="st3" d="M89,956.3c-1,0-1.9-0.1-2.5-0.3c-0.6-0.2-1.2-0.6-1.7-1.2c-0.2-0.3-0.4-0.4-0.6-0.4c-0.4,0-1,0.7-1.9,2.2
			l-0.9-0.8c0.8-1.3,1.6-2.2,2.3-2.4v-4.9h-2.3v-1.1h3.3v6c0.1,0.1,0.3,0.2,0.4,0.4c0.4,0.5,0.8,0.8,1.2,1c0.5,0.2,1.2,0.4,2.2,0.4
			c0.8,0,1.9,0,3.2,0c0.7,0,1.5,0,2.3,0c0.8,0,1.4,0,1.8-0.1l-0.3,1.2h-3.6C91,956.3,90,956.3,89,956.3z M85.3,944.7l-0.8,0.8
			c-0.7-0.8-1.6-1.6-2.8-2.5l0.8-0.8C83.6,943,84.5,943.8,85.3,944.7z M90.8,944.9c0.8-0.4,1.6-0.9,2.3-1.5H86v-1h8.7v0.8
			c-1,0.8-2,1.6-3.1,2.2l0.3,0.2H95v7.2c0,0.8-0.4,1.2-1.3,1.2h-1.3l-0.3-1l1.3,0c0.4,0,0.6-0.2,0.6-0.5v-1.2h-2.7v2.8h-1.1v-2.8
			h-2.7v2.8h-1.1v-8.5h4c-0.6-0.4-1.3-0.9-2.1-1.3l0.7-0.7C89.6,944.1,90.3,944.5,90.8,944.9z M90.1,946.6h-2.7v1.4h2.7V946.6z
			 M87.4,950.5h2.7V949h-2.7V950.5z M93.9,946.6h-2.7v1.4h2.7V946.6z M91.2,950.5h2.7V949h-2.7V950.5z"/>
		<path class="st3" d="M105.2,956.3c-1.1,0-2-0.1-2.6-0.3c-0.7-0.2-1.3-0.6-1.8-1.2c-0.2-0.3-0.4-0.4-0.7-0.4c-0.4,0-1,0.7-1.9,2.2
			l-0.9-0.8c0.9-1.4,1.6-2.2,2.3-2.5v-4.8h-2.3v-1.1h3.4v6c0.1,0.1,0.3,0.2,0.4,0.4c0.4,0.4,0.8,0.8,1.3,1c0.5,0.2,1.3,0.3,2.3,0.4
			c0.9,0,2,0,3.3,0c0.7,0,1.4,0,2.1,0c0.7,0,1.3,0,1.7-0.1l-0.3,1.2h-3.4C107.2,956.3,106.3,956.3,105.2,956.3z M101.2,944.7
			l-0.8,0.8c-0.7-0.8-1.6-1.7-2.7-2.6l0.8-0.8C99.5,943,100.4,943.8,101.2,944.7z M105.4,954.2l-0.3-1.1c0.7,0,1.5,0.1,2.1,0.1
			c0.4,0,0.7-0.2,0.7-0.7v-6.8h-6.1v-1.1h6.1V942h1.2v2.6h2.4v1.1h-2.4v7.1c0,0.9-0.5,1.4-1.5,1.4H105.4z M106,950.2l-0.9,0.6
			c-0.6-1-1.3-2-2.3-3.2l0.9-0.6C104.7,948.3,105.5,949.3,106,950.2z"/>
		<path class="st3" d="M113.3,949.7l-0.4-1.2c1.6-1.9,2.7-4.2,3.4-6.7l1.1,0.5c-0.4,1.2-0.8,2.4-1.4,3.5v10.9h-1.1v-9
			C114.4,948.3,113.9,949,113.3,949.7z M122.3,944c-0.2-0.6-0.5-1.2-0.8-1.9l1.1-0.3c0.3,0.7,0.6,1.3,0.8,1.9l-0.6,0.2h5v1.1h-10.4
			V944H122.3z M126.7,956.6h-1.1v-0.9h-5.9v0.9h-1.1V951h8.2V956.6z M126.4,946.4v1h-7.6v-1H126.4z M126.4,948.7v1.1h-7.6v-1.1
			H126.4z M125.6,954.6v-2.5h-5.9v2.5H125.6z"/>
		<path class="st3" d="M137,956.3c-1,0-1.9-0.1-2.5-0.3c-0.6-0.2-1.2-0.6-1.7-1.2c-0.2-0.3-0.4-0.4-0.6-0.4c-0.4,0-1,0.7-1.9,2.2
			l-0.9-0.8c0.8-1.3,1.6-2.2,2.3-2.4v-4.9h-2.3v-1.1h3.3v6c0.1,0.1,0.3,0.2,0.4,0.4c0.4,0.5,0.8,0.8,1.2,1c0.5,0.2,1.2,0.4,2.2,0.4
			c0.8,0,1.9,0,3.2,0c0.7,0,1.5,0,2.3,0c0.8,0,1.4,0,1.8-0.1l-0.3,1.2h-3.6C139,956.3,138,956.3,137,956.3z M133.3,944.7l-0.8,0.8
			c-0.7-0.8-1.6-1.6-2.8-2.5l0.8-0.8C131.6,943,132.5,943.8,133.3,944.7z M138.8,944.9c0.8-0.4,1.6-0.9,2.3-1.5H134v-1h8.7v0.8
			c-1,0.8-2,1.6-3.1,2.2l0.3,0.2h3.2v7.2c0,0.8-0.4,1.2-1.3,1.2h-1.3l-0.3-1l1.3,0c0.4,0,0.6-0.2,0.6-0.5v-1.2h-2.7v2.8h-1.1v-2.8
			h-2.7v2.8h-1.1v-8.5h4c-0.6-0.4-1.3-0.9-2.1-1.3l0.7-0.7C137.6,944.1,138.3,944.5,138.8,944.9z M138.1,946.6h-2.7v1.4h2.7V946.6z
			 M135.4,950.5h2.7V949h-2.7V950.5z M141.9,946.6h-2.7v1.4h2.7V946.6z M139.2,950.5h2.7V949h-2.7V950.5z"/>
		<path class="st3" d="M150.3,942.6v0.9c-0.4,1.5-0.9,3-1.5,4.5c0.9,1.4,1.4,2.7,1.5,3.8c0,0.7-0.2,1.2-0.5,1.6
			c-0.4,0.4-1.2,0.6-2.3,0.6l-0.4-1.2c0.3,0,0.5,0.1,0.6,0.1c0.5,0,0.9-0.1,1.1-0.3c0.2-0.2,0.3-0.4,0.3-0.8c0-1.1-0.5-2.3-1.5-3.6
			c0.7-1.7,1.2-3.2,1.5-4.5h-2.4v13h-1.1v-14.1H150.3z M159.5,949.3v1.1h-2.7v4.3c0,0.4,0.1,0.6,0.5,0.6h0.7c0.2,0,0.4-0.1,0.4-0.2
			c0.2-0.1,0.3-0.8,0.3-2.1l1.1,0.4c-0.1,1.4-0.3,2.3-0.5,2.6c-0.2,0.2-0.6,0.4-1.1,0.4H157c-0.4,0-0.7-0.1-0.9-0.4
			c-0.2-0.3-0.3-0.6-0.3-1v-4.6h-1.5c-0.1,1.7-0.4,2.9-0.8,3.7c-0.5,1-1.4,1.8-2.7,2.4l-0.7-0.9c1.1-0.6,1.9-1.2,2.4-2
			c0.4-0.7,0.7-1.8,0.8-3.2h-2.2v-1.1H159.5z M159.4,946.6h-1.1v-2.2H152v2.2h-1.1v-3.2h3.6c-0.2-0.5-0.4-0.9-0.6-1.3l1.2-0.2
			c0.2,0.4,0.4,1,0.6,1.5h3.7V946.6z M158.2,946.4v1h-6.1v-1H158.2z"/>
		<path class="st3" d="M167.2,942.9c-0.8,1.3-1.5,2.4-2.3,3.3c-0.8,0.9-1.9,1.8-3.2,2.7l-0.6-1c1.1-0.6,2.1-1.4,3-2.4
			c0.8-0.9,1.5-1.9,2.1-3.2L167.2,942.9z M163.5,949.4v-1.1h9.6c0,2-0.1,3.6-0.3,4.9c-0.2,1.2-0.4,2.1-0.8,2.6
			c-0.4,0.5-0.9,0.7-1.7,0.8h-2.9l-0.3-1.1c0.9,0,1.8,0,2.6,0c0.9,0,1.4-0.4,1.7-1.1c0.3-0.8,0.5-2.4,0.5-4.9h-4
			c-0.4,1.7-0.9,3.1-1.6,4.2c-0.8,1.2-2,2.2-3.7,3.1l-0.7-1c1.5-0.8,2.6-1.7,3.3-2.6c0.7-0.9,1.2-2.1,1.5-3.6H163.5z M175.7,947.9
			l-0.8,0.9c-2.5-1.6-4.2-3.7-5.2-6.2l1-0.6C171.7,944.5,173.3,946.5,175.7,947.9z"/>
		<path class="st3" d="M186,946.1v2h4.5v5.4c0,1-0.5,1.5-1.5,1.5h-1.5l-0.3-1.1l1.4,0c0.5,0,0.8-0.2,0.8-0.7v-4.1H186v7.4h-1.1v-7.4
			h-3.4v5.9h-1.1v-6.1c-0.8,0.8-1.7,1.6-2.6,2.3l-0.7-1c2-1.5,3.6-3.2,4.8-5.2h-4.3V944h4.9c0.4-0.7,0.6-1.4,0.9-2.1l1.2,0.1
			c-0.2,0.7-0.5,1.4-0.8,2h7.8v1.1h-8.3c-0.6,1.1-1.2,2-2,3h3.8v-2H186z"/>
		<path class="st3" d="M200.5,948.6v1.1h-2.8v4.2c1.2-0.2,2.3-0.5,3.4-0.8v1.1c-2.3,0.6-4.8,1-7.5,1.4l-0.3-1.1
			c1.1-0.1,2.1-0.3,3.1-0.4v-4.4h-2.8v-1.1H200.5z M201.3,944.8c0-0.9-0.1-1.9-0.1-2.8h1.2c0,1,0,1.9,0.1,2.8h4.9v1.1h-4.9
			c0.2,2.7,0.6,4.9,1.2,6.7c0.7,1.8,1.3,2.7,1.8,2.7c0.3,0,0.7-1,1-2.8l1,0.5c-0.5,2.3-1.1,3.5-2,3.5c-1.4-0.1-2.6-1.9-3.6-5.3
			c-0.4-1.5-0.6-3.3-0.7-5.3h-7.9v-1.1H201.3z M206.4,944.1l-1,0.5c-0.5-0.8-1-1.5-1.5-2.1l1-0.5
			C205.4,942.7,205.9,943.4,206.4,944.1z"/>
		<path class="st3" d="M213.3,949.5c-0.1,0.3-0.2,0.6-0.3,0.9h3.3v0.9c-0.4,1.1-0.9,2-1.8,2.7c0.8,0.4,1.5,0.7,2.2,1.1l-0.6,0.9
			c-0.7-0.4-1.5-0.8-2.5-1.3c-1.1,0.7-2.4,1.3-4,1.8l-0.5-1c1.3-0.4,2.4-0.8,3.4-1.3c-0.7-0.3-1.4-0.6-2.2-0.9
			c0.4-0.7,0.8-1.4,1.1-2h-1.9v-1h2.3c0.1-0.4,0.3-0.7,0.4-1L213.3,949.5z M212.6,945v-3.1h1.1v3.1h2.9v1h-2.9v0.2
			c0.9,0.4,1.8,0.9,2.7,1.5l-0.6,0.9c-0.8-0.6-1.5-1.2-2.1-1.5v2.1h-1.1v-3c-0.5,1.3-1.5,2.4-2.9,3.3l-0.6-0.9
			c1.2-0.7,2.1-1.5,2.6-2.4h-2.3v-1H212.6z M211.8,944.2l-0.8,0.4c-0.3-0.8-0.7-1.5-1.1-2.1l0.9-0.3
			C211.1,942.9,211.5,943.5,211.8,944.2z M215.3,951.4h-2.8c-0.3,0.5-0.5,1.1-0.9,1.5c0.6,0.2,1.2,0.4,1.8,0.7
			C214.3,953,214.9,952.2,215.3,951.4z M216.5,942.6c-0.3,0.7-0.7,1.4-1.2,2.1l-0.8-0.4c0.5-0.7,0.9-1.4,1.2-2L216.5,942.6z
			 M218.2,948.1c-0.3,0.7-0.6,1.4-0.9,2l-0.7-0.9c0.9-1.8,1.6-4.2,1.9-7.3l1.1,0.2c-0.1,0.8-0.2,1.6-0.4,2.3h4.2v1.1h-1
			c-0.1,2.7-0.6,5-1.5,6.9c0.8,1.4,1.8,2.5,3,3.3l-0.6,0.9c-1.1-0.8-2.1-1.9-2.9-3.2c-0.8,1.3-1.8,2.4-3,3.2l-0.6-1
			c1.2-0.9,2.2-2,3-3.3C219.2,951.1,218.7,949.7,218.2,948.1z M218.8,946.3c0.4,1.9,0.9,3.5,1.6,4.8c0.6-1.6,1-3.5,1-5.7H219
			L218.8,946.3z"/>
		<path class="st3" d="M225.7,956.5l-0.2-1.1c0.4,0,0.8,0.1,1.2,0.1c0.4,0,0.6-0.2,0.6-0.7v-3.9c-0.6,0.2-1.3,0.5-1.9,0.7l-0.3-1.1
			c0.7-0.2,1.5-0.4,2.2-0.7v-3.6h-1.9V945h1.9v-3h1.1v3h1.5v1.1h-1.5v3.2c0.5-0.2,1-0.5,1.5-0.7v1.1c-0.5,0.3-1,0.5-1.5,0.7v4.7
			c0,0.9-0.4,1.4-1.3,1.4H225.7z M230,956.6l-0.9-0.8c1.1-2.1,1.7-4.9,1.7-8.2v-5h8.4v3.9h-3v1.9h3.4v1h-3.4v2h2.7v5.2h-1.1v-0.8
			h-4.3v0.8h-1.1v-5.2h2.7v-2h-3.3C231.7,952.1,231,954.5,230,956.6z M231.9,946.5v1.1c0,0.3,0,0.5,0,0.8h3.2v-1.9H231.9z
			 M231.9,943.6v1.8h6.2v-1.8H231.9z M237.9,954.8v-2.4h-4.3v2.4H237.9z"/>
		<path class="st3" d="M249.8,943.3h5.8v1.1h-11.9v3.6c-0.1,3.5-0.6,6.4-1.6,8.5l-0.9-0.8c0.9-1.8,1.3-4.4,1.4-7.6v-4.8h6
			c-0.3-0.5-0.5-0.9-0.8-1.3l1.3-0.2C249.3,942.3,249.6,942.8,249.8,943.3z M249.1,945.2c-0.1,0.4-0.3,0.9-0.4,1.3h6.2v1h-6.6
			c-0.4,1-0.9,1.9-1.4,2.7h3v-1.9h1.2v1.9h3.6v1h-3.6v1.8h4.8v1.1h-4.8v2.5h-1.2v-2.5H244V953h5.8v-1.8h-4.2l-0.2-1
			c0.6-0.8,1.2-1.7,1.7-2.8h-2.4v-1h2.8c0.2-0.5,0.4-1,0.5-1.5L249.1,945.2z"/>
		<path class="st3" d="M258.6,945.1c0,1.6-0.2,3.1-0.5,4.6l-0.9-0.3c0.3-1.4,0.5-2.8,0.6-4.4L258.6,945.1z M260.5,942v14.6h-1.2V942
			H260.5z M262.6,947.4c0.5-1.4,0.9-2.9,0.9-4.5l1,0.1c0,0.7-0.1,1.3-0.2,1.9h2.3v-3h1.2v3h3.5v1.1h-3.5v3.9h3.2v1.1h-3.2v3.9h3.9
			v1.1h-9.7V955h4.6v-3.9H263V950h3.7v-3.9h-2.5c-0.3,1.2-0.7,2.3-1.3,3.2l-0.8-0.8c0.2-0.4,0.3-0.7,0.5-1l-0.8,0.2
			c-0.2-1-0.5-1.9-0.9-2.8l0.8-0.3C262,945.5,262.3,946.4,262.6,947.4z"/>
		<path class="st3" d="M281.2,946.4l-0.9,0.7c-0.2-0.4-0.4-0.7-0.6-1.1c-1.7,0.3-3.8,0.5-6.1,0.6l-0.3-1c0.2-0.1,0.4-0.2,0.5-0.3
			c1-1,1.8-2.2,2.5-3.5l1.1,0.3c-0.7,1.4-1.5,2.5-2.4,3.4c1.3-0.1,2.8-0.2,4.3-0.4c-0.3-0.5-0.7-1.1-1.1-1.6l0.9-0.6
			C279.9,944.4,280.7,945.5,281.2,946.4z M275.3,956.6h-1.1v-9h5.9v7.5c0,0.9-0.4,1.4-1.3,1.4h-1.3l-0.3-1.1l1.2,0
			c0.4,0,0.6-0.2,0.6-0.6v-1.3h-3.7V956.6z M279,948.6h-3.7v1.6h3.7V948.6z M275.3,952.6h3.7v-1.5h-3.7V952.6z M283.1,948.9
			c-1,0-1.5-0.5-1.5-1.6V942h1.1v2.1c1.8-0.3,3.2-0.6,4.3-0.8l0.4,1c-1.3,0.3-2.9,0.6-4.7,0.9v2c0,0.5,0.2,0.8,0.6,0.8h2.1
			c0.3,0,0.5-0.1,0.7-0.3c0.2-0.2,0.3-0.8,0.3-1.8l1.1,0.3c-0.1,1.3-0.3,2.1-0.6,2.4c-0.3,0.2-0.7,0.4-1.2,0.4H283.1z M282.8,954.8
			c0,0.3,0.2,0.5,0.6,0.5h2.2c0.3,0,0.6-0.1,0.7-0.2c0.2-0.2,0.3-0.8,0.4-1.8l1,0.3c-0.1,1.3-0.3,2.1-0.6,2.4
			c-0.3,0.2-0.7,0.4-1.2,0.4h-2.7c-1,0-1.4-0.4-1.4-1.3v-5.6h1.1v2c1.6-0.2,3-0.4,4.3-0.8l0.4,1c-1.4,0.4-3,0.7-4.7,0.8V954.8z"/>
		<path class="st3" d="M298.3,951.5v1.1h-9v-1.1H298.3z M293.2,942l-0.2,2.1h9.7v1.1h-9.8l-0.3,2.6h9c0,4.4-0.3,6.9-0.9,7.6
			c-0.6,0.7-1.9,1-3.8,1c-0.5,0-1,0-1.6-0.1l-0.3-1.1c0.8,0.1,1.3,0.1,1.6,0.1c1.8,0,2.9-0.3,3.2-0.9c0.4-0.7,0.6-2.5,0.6-5.6h-9.1
			l0.8-7L293.2,942z"/>
		<path class="st3" d="M308.6,943.1v-1.2h1.1v1.2h5.5v-1.2h1.1v1.2h2.8v1h-2.8v5.3h3.1v1h-3.3c0.8,1,2,1.7,3.6,2.3l-0.5,1
			c-2-0.8-3.4-1.9-4.2-3.2h-5c-0.8,1.3-2.2,2.4-4,3.3l-0.6-1c1.6-0.6,2.8-1.4,3.5-2.3h-3.3v-1h3.1v-5.3h-2.8v-1H308.6z M313,951v1.3
			h3.2v1H313v1.7h5.5v1.1h-12.2V955h5.6v-1.7h-3.3v-1h3.3V951H313z M315.2,945.3v-1.2h-5.5v1.2H315.2z M315.2,947.3v-1.1h-5.5v1.1
			H315.2z M315.2,949.4v-1.2h-5.5v1.2H315.2z"/>
		<path class="st3" d="M321.4,943.9v-1.1h5.4v1.1h-2.4c-0.2,1.3-0.5,2.5-0.9,3.6h3v8.5h-1v-1h-1.7v1.2h-1v-7
			c-0.3,0.7-0.7,1.3-1.1,1.9l-0.6-1c1.2-1.8,1.9-3.9,2.3-6.2H321.4z M325.4,954.1v-5.5h-1.7v5.5H325.4z M333.9,943.3h1.1v5.2h-3v6
			h2.3v-4.6h1.1v6.7h-1.1v-1.1h-5.6v1.1h-1.1v-6.7h1.1v4.6h2.2v-6h-3v-5.2h1.1v4.2h1.9V942h1.1v5.5h1.9V943.3z"/>
		<path class="st3" d="M345.2,946.4l-0.9,0.7c-0.2-0.4-0.4-0.7-0.6-1.1c-1.7,0.3-3.8,0.5-6.1,0.6l-0.3-1c0.2-0.1,0.4-0.2,0.5-0.3
			c1-1,1.8-2.2,2.5-3.5l1.1,0.3c-0.7,1.4-1.5,2.5-2.4,3.4c1.3-0.1,2.8-0.2,4.3-0.4c-0.3-0.5-0.7-1.1-1.1-1.6l0.9-0.6
			C343.9,944.4,344.7,945.5,345.2,946.4z M339.3,956.6h-1.1v-9h5.9v7.5c0,0.9-0.4,1.4-1.3,1.4h-1.3l-0.3-1.1l1.2,0
			c0.4,0,0.6-0.2,0.6-0.6v-1.3h-3.7V956.6z M343,948.6h-3.7v1.6h3.7V948.6z M339.3,952.6h3.7v-1.5h-3.7V952.6z M347.1,948.9
			c-1,0-1.5-0.5-1.5-1.6V942h1.1v2.1c1.8-0.3,3.2-0.6,4.3-0.8l0.4,1c-1.3,0.3-2.9,0.6-4.7,0.9v2c0,0.5,0.2,0.8,0.6,0.8h2.1
			c0.3,0,0.5-0.1,0.7-0.3c0.2-0.2,0.3-0.8,0.3-1.8l1.1,0.3c-0.1,1.3-0.3,2.1-0.6,2.4c-0.3,0.2-0.7,0.4-1.2,0.4H347.1z M346.8,954.8
			c0,0.3,0.2,0.5,0.6,0.5h2.2c0.3,0,0.6-0.1,0.7-0.2c0.2-0.2,0.3-0.8,0.4-1.8l1,0.3c-0.1,1.3-0.3,2.1-0.6,2.4
			c-0.3,0.2-0.7,0.4-1.2,0.4h-2.7c-1,0-1.4-0.4-1.4-1.3v-5.6h1.1v2c1.6-0.2,3-0.4,4.3-0.8l0.4,1c-1.4,0.4-3,0.7-4.7,0.8V954.8z"/>
		<path class="st3" d="M360.3,942v1.6c0,0.6,0,1.1-0.1,1.6h6.1c-0.1,2.8-0.2,5-0.3,6.7c-0.2,1.7-0.4,2.9-0.8,3.5c-0.4,0.6-1,1-1.8,1
			h-2.1l-0.3-1.1c0.6,0,1.3,0,1.8,0c0.9,0,1.5-0.6,1.8-1.7c0.3-1.2,0.5-3.7,0.6-7.4h-5.1c-0.2,2.3-0.7,4.2-1.4,5.7
			c-1,2-2.5,3.5-4.6,4.6l-0.6-1c2.1-1.1,3.6-2.6,4.4-4.5c0.5-1.3,0.9-2.9,1.1-4.8h-4.7v-1.1h4.8c0-0.5,0-1.1,0.1-1.6V942H360.3z"/>
	</g>
	<g class="st0">
		<path class="st3" d="M54.1,974.9v1.1h-4.3v2.5h3.6v8.6c0,1.1-0.5,1.6-1.4,1.6h-1.6l-0.3-1.1l1.6,0c0.4,0,0.6-0.3,0.6-0.8v-7.2
			h-2.5c0,0.4-0.1,0.9-0.1,1.3c0.7,1.1,1.5,2.4,2.2,3.8l-0.7,1.1c-0.7-1.5-1.2-2.7-1.7-3.6c-0.4,1.9-1.1,3.3-2.1,4.4l-0.8-0.8
			c1.3-1.3,2-3.4,2.2-6.1h-3.4c0,0.5-0.1,1.1-0.2,1.6c0.6,0.8,1.2,1.7,1.9,2.7l-0.7,1c-0.6-1.1-1-2-1.4-2.6c-0.4,1.6-1,2.9-1.9,3.9
			l-0.9-0.8c1.2-1.3,1.9-3.2,2.1-5.7h-2.4v9.1h-1.1v-10.2h3.5v-2.5h-4.3v-1.1H54.1z M48.7,978.6v-2.5h-3.4v2.5H48.7z"/>
		<path class="st3" d="M55.9,976.9v-1.1h4.9v1.1H59v7.2c0.7-0.2,1.3-0.5,2-0.7v1.2c-1.4,0.6-3,1.1-4.9,1.6l-0.3-1.1
			c0.7-0.2,1.4-0.4,2.1-0.5v-7.6H55.9z M66.3,979.8v2.8c-0.1,1.7-0.5,3.1-1.4,4.1c-0.8,0.9-2.2,1.7-4.1,2.2l-0.6-1
			c1.9-0.5,3.2-1.2,3.9-2c0.7-0.9,1-2,1.1-3.4v-2.8H66.3z M70.3,974.9v1.1h-3.8c-0.1,0.6-0.2,1.2-0.3,1.7h3.4v7.5h-1.1v-6.5h-5.1
			v6.5h-1.1v-7.5H65c0.2-0.5,0.3-1.1,0.4-1.7h-3.9v-1.1H70.3z M70.5,988.2l-0.8,0.8c-0.8-0.9-1.9-1.9-3.3-3l0.8-0.7
			C68.5,986.2,69.6,987.2,70.5,988.2z"/>
		<path class="st3" d="M75.1,979.1v7.1c0.5-0.4,1.1-1,1.6-1.6l0.3,1.2c-0.9,0.9-1.9,1.7-3,2.5l-0.4-1c0.2-0.2,0.4-0.4,0.4-0.7v-6.4
			h-2.4v-1.1H75.1z M76.3,976.8l-0.8,0.8c-0.7-0.8-1.6-1.6-2.8-2.5l0.8-0.8C74.7,975.2,75.6,976,76.3,976.8z M85.9,974.9v1.1h-3.8v6
			h4.3v1.1h-4.3v5.7H81v-5.7h-4.2v-1.1H81v-6h-3.8v-1.1H85.9z M79.7,981l-1,0.3c-0.3-1.4-0.8-2.7-1.3-4l1-0.3
			C78.9,978.1,79.4,979.4,79.7,981z M85.5,977.1c-0.3,1.6-0.8,2.9-1.3,4.1l-1-0.3c0.5-1.1,0.9-2.4,1.2-4L85.5,977.1z"/>
		<path class="st3" d="M90.7,980.8l-0.8,0.8c-0.5-0.7-1.3-1.5-2.2-2.3l0.8-0.7C89.3,979.2,90.1,980,90.7,980.8z M90.9,983.2
			c-0.6,2-1.3,3.8-2,5.5l-1.1-0.4c0.8-1.8,1.5-3.6,2.1-5.5L90.9,983.2z M91,976.7l-0.8,0.8c-0.5-0.7-1.3-1.4-2.3-2.1l0.8-0.8
			C89.6,975.2,90.4,976,91,976.7z M94.8,977.1v5.1c0,1.8-0.3,3.3-0.9,4.4c-0.5,1-1.4,1.8-2.6,2.4l-0.6-1c1.2-0.5,2-1.3,2.4-2.2
			c0.4-0.9,0.7-2.1,0.7-3.6v-5.1H94.8z M97,984.8h-1V976h-3.3v8.9h-1V975H97V984.8z M97.7,988.1l-0.8,0.8c-0.6-0.8-1.4-1.7-2.4-2.7
			l0.7-0.7C96.3,986.4,97.1,987.2,97.7,988.1z M99.3,975.6v10h-1v-10H99.3z M98.7,988.8l-0.2-1.1c0.6,0,1.1,0.1,1.6,0.1
			c0.4,0,0.6-0.2,0.6-0.6v-12.8h1.1v13.1c0,0.9-0.4,1.4-1.3,1.4H98.7z"/>
	</g>
	<g class="st0">
		<path class="st2" d="M48.8,1166.4h-2.1c-0.3-1.2-1-1.8-2.2-1.8c-0.9,0-1.5,0.4-2.1,1.3c-0.5,0.8-0.7,1.8-0.7,3v0.2h0.1
			c0.4-0.5,0.8-0.9,1.4-1.2c0.5-0.3,1.1-0.4,1.7-0.4c1.3,0,2.3,0.4,3,1.2c0.8,0.8,1.1,1.9,1.1,3.1c0,1.3-0.5,2.4-1.3,3.2
			c-0.9,0.8-1.9,1.3-3.2,1.3c-1.6,0-2.8-0.6-3.6-1.7c-0.8-1.1-1.2-2.6-1.2-4.6c0-2.1,0.4-3.8,1.3-5.1c0.9-1.3,2.1-1.9,3.5-1.9
			C47.1,1162.9,48.5,1164.1,48.8,1166.4z M42.7,1169.9c-0.5,0.5-0.7,1.1-0.7,2c0,0.8,0.2,1.5,0.7,1.9c0.5,0.5,1.1,0.7,1.8,0.7
			c0.8,0,1.4-0.3,1.8-0.8c0.5-0.5,0.7-1.2,0.7-1.9s-0.2-1.4-0.7-1.9c-0.5-0.5-1.1-0.7-1.9-0.7C43.7,1169.2,43.1,1169.4,42.7,1169.9z
			"/>
		<path class="st2" d="M59.6,1178l-1.4-1.3c1.1-1.6,1.7-3.6,1.7-6v-8.8h10.9v14.1c0,1.2-0.6,1.8-1.8,1.8h-2.3l-0.5-1.8
			c0.8,0.1,1.5,0.1,2.2,0.1c0.4,0,0.5-0.3,0.5-0.7v-3h-7.2C61.4,1174.6,60.7,1176.5,59.6,1178z M68.8,1163.6h-7.1v2.5h7.1V1163.6z
			 M61.7,1170.5h7.1v-2.7h-7.1V1170.5z"/>
	</g>
	<g class="st0">
		<path class="st3" d="M48.6,1196.6v1.1h-4v10.3h-1.3v-10.3h-4v-1.1H48.6z"/>
		<path class="st3" d="M51.6,1196.9c0.2,0.2,0.3,0.4,0.3,0.7c0,0.3-0.1,0.5-0.3,0.7c-0.2,0.2-0.4,0.3-0.7,0.3s-0.5-0.1-0.7-0.3
			c-0.2-0.2-0.3-0.4-0.3-0.7c0-0.3,0.1-0.5,0.3-0.7c0.2-0.2,0.4-0.3,0.7-0.3S51.4,1196.7,51.6,1196.9z M51.6,1199.7v8.3h-1.3v-8.3
			H51.6z"/>
		<path class="st3" d="M58.2,1196.6c1.8,0,3.2,0.5,4.1,1.6c0.8,1,1.3,2.4,1.3,4.1c0,1.8-0.5,3.2-1.4,4.1c-1,1-2.3,1.6-4.1,1.6h-4
			v-11.4H58.2z M55.5,1206.9h2.4c1.5,0,2.6-0.4,3.4-1.2c0.7-0.8,1.1-1.9,1.1-3.4c0-1.5-0.3-2.7-1-3.4c-0.7-0.8-1.8-1.2-3.3-1.2h-2.6
			V1206.9z"/>
		<path class="st3" d="M70.6,1196.6c1.1,0,1.9,0.3,2.5,0.8c0.6,0.5,0.9,1.2,0.9,2.1c0,0.6-0.2,1.2-0.5,1.7c-0.4,0.4-0.8,0.7-1.4,0.9
			c0.8,0.1,1.3,0.4,1.7,0.9c0.4,0.5,0.6,1.1,0.6,1.9c0,1.1-0.4,2-1.2,2.5c-0.7,0.4-1.6,0.7-2.8,0.7h-5.1v-11.4H70.6z M66.8,1201.6
			h3.5c0.8,0,1.4-0.2,1.8-0.5c0.4-0.3,0.6-0.8,0.6-1.5c0-0.6-0.2-1.1-0.6-1.4c-0.4-0.3-1-0.5-1.8-0.5h-3.5V1201.6z M66.8,1206.9h3.6
			c0.8,0,1.4-0.2,1.9-0.4c0.6-0.4,0.8-0.9,0.8-1.6s-0.3-1.3-0.7-1.6c-0.5-0.4-1.1-0.5-2-0.5h-3.6V1206.9z"/>
		<path class="st3" d="M88,1197.2c0.7,0.6,1,1.3,1,2.3c0,1.3-0.6,2.1-1.9,2.6c0.7,0.2,1.2,0.5,1.5,1c0.4,0.4,0.6,1,0.6,1.7
			c0,1-0.4,1.9-1.1,2.5c-0.7,0.7-1.7,1-2.9,1c-1.1,0-2-0.3-2.7-0.8c-0.8-0.7-1.3-1.6-1.4-2.9h1.3c0,0.9,0.3,1.6,0.9,2
			c0.5,0.4,1.1,0.6,1.8,0.6c0.8,0,1.5-0.2,2-0.7c0.4-0.4,0.7-1,0.7-1.7c0-0.7-0.2-1.2-0.7-1.6c-0.4-0.4-1.1-0.6-1.9-0.6h-0.9v-1h0.9
			c0.8,0,1.3-0.2,1.7-0.5c0.4-0.4,0.6-0.8,0.6-1.5c0-0.6-0.2-1.1-0.6-1.5c-0.4-0.4-1-0.6-1.7-0.6c-0.8,0-1.4,0.2-1.8,0.6
			c-0.4,0.4-0.7,1-0.8,1.8h-1.3c0.1-1.1,0.5-2,1.2-2.6c0.7-0.6,1.6-0.9,2.6-0.9S87.4,1196.6,88,1197.2z"/>
		<path class="st3" d="M92.9,1206.4c0.2,0.2,0.3,0.4,0.3,0.7c0,0.3-0.1,0.5-0.3,0.7c-0.2,0.2-0.4,0.3-0.7,0.3
			c-0.3,0-0.5-0.1-0.7-0.3c-0.2-0.2-0.3-0.4-0.3-0.7c0-0.3,0.1-0.5,0.3-0.7c0.2-0.2,0.4-0.3,0.7-0.3
			C92.4,1206.1,92.7,1206.2,92.9,1206.4z"/>
		<path class="st3" d="M102.2,1198.2c0.6,1,0.9,2.4,0.9,4.1c0,1.7-0.3,3.1-0.9,4.1c-0.7,1.2-1.7,1.8-3.1,1.8c-1.4,0-2.4-0.6-3.1-1.8
			c-0.6-1-0.9-2.4-0.9-4.1c0-1.7,0.3-3.1,0.9-4.1c0.7-1.2,1.7-1.8,3.1-1.8C100.4,1196.3,101.5,1196.9,102.2,1198.2z M96.9,1199.1
			c-0.3,0.8-0.5,1.8-0.5,3.2c0,1.3,0.2,2.4,0.5,3.2c0.4,1.1,1.2,1.6,2.2,1.6s1.8-0.6,2.2-1.6c0.3-0.8,0.5-1.8,0.5-3.2
			c0-1.3-0.2-2.4-0.5-3.2c-0.4-1.1-1.2-1.6-2.2-1.6S97.3,1198,96.9,1199.1z"/>
		<path class="st3" d="M117.6,1195c2,2.2,4.4,4,7,5.3l-0.6,1.1c-2.7-1.4-4.9-3.2-6.8-5.4c-1.7,2.1-4,3.9-6.9,5.4l-0.6-1.1
			c2.8-1.4,5.2-3.2,7.1-5.3H117.6z M118.3,1199.2v3.6h4.4v1.1h-4.4v3.9h5.5v1.1h-13.3v-1.1h2.4v-6.3h1.1v6.3h3.1v-8.6H118.3z"/>
		<path class="st3" d="M132.1,1195.1v12.7h2.3v-12.7h1.2v12.7h4.8v1.1h-14.2v-1.1h4.8v-12.7H132.1z M129.7,1205.4l-1.1,0.3
			c-0.6-2.6-1.3-5-2.2-7.4l1-0.3C128.3,1200.1,129.1,1202.6,129.7,1205.4z M139.9,1198.3c-0.6,2.8-1.4,5.2-2.4,7.3l-1-0.4
			c0.9-1.9,1.7-4.3,2.4-7.2L139.9,1198.3z"/>
		<path class="st3" d="M147,1195.1v4.2h0.9v1.1h-3.8v0.8c0,0.5,0,1,0,1.4h3.1v6.8H146v-5.7h-2c-0.2,2.4-0.6,4.2-1.3,5.5l-0.9-0.8
			c0.7-1.5,1.1-4,1.1-7.3v-5.9h1.1v3.9h1.7v-4.2H147z M149.9,1202.4c-0.1,3-0.6,5.3-1.6,7.1l-0.8-0.8c0.8-1.5,1.2-3.6,1.3-6.3v-6.4
			c2.5,0,4.8-0.4,6.8-1l0.6,1c-1.9,0.5-4,0.9-6.3,1v2.5h5.9v1c-0.4,2.2-1.1,4.1-2.1,5.6c0.8,1.1,1.7,1.9,2.9,2.4l-0.6,1
			c-1.2-0.6-2.2-1.5-3-2.5c-0.9,1-1.9,1.9-3.2,2.5l-0.6-1c1.2-0.7,2.2-1.5,3-2.5c-0.9-1.5-1.6-3.3-1.9-5.5h-0.5V1202.4z M153,1205.1
			c0.8-1.3,1.4-2.8,1.6-4.5h-3.2C151.8,1202.4,152.3,1203.9,153,1205.1z"/>
		<path class="st3" d="M172,1197.4c0.8,0.7,1.3,1.6,1.5,2.8h-1.3c-0.2-0.9-0.6-1.5-1.2-2c-0.6-0.5-1.4-0.7-2.4-0.7
			c-1.2,0-2.2,0.4-3,1.3c-0.7,0.9-1.1,2-1.1,3.5c0,1.4,0.4,2.6,1.1,3.4c0.8,0.9,1.9,1.3,3.4,1.3c0.6,0,1.2-0.1,1.8-0.3
			c0.6-0.2,1-0.4,1.4-0.6v-2.9h-3.6v-1.1h4.9v4.7c-0.5,0.4-1.2,0.8-2,1c-0.8,0.3-1.7,0.4-2.7,0.4c-1.8,0-3.2-0.6-4.2-1.7
			c-0.9-1.1-1.4-2.5-1.4-4.2c0-1.7,0.4-3.1,1.4-4.2c1-1.2,2.3-1.8,4-1.8C170,1196.3,171.1,1196.7,172,1197.4z"/>
		<path class="st3" d="M180.5,1196.6l4.5,11.4h-1.4l-1.2-3.2h-5.2l-1.2,3.2h-1.4l4.5-11.4H180.5z M182,1203.7l-2.2-5.7h-0.1
			l-2.2,5.7H182z"/>
		<path class="st3" d="M193.5,1195.4l1.1,0.2l-0.9,3.2h2.8c0.3-1.2,0.6-2.5,0.8-3.9l1.2,0.1c-0.2,1.3-0.5,2.6-0.8,3.8h7.5v1.1h-7.8
			c-0.2,0.6-0.4,1.2-0.6,1.8h6.5v1c-0.4,1.4-1.3,2.6-2.6,3.7c1.3,0.8,2.9,1.5,4.7,2.1l-0.6,1.1c-2-0.8-3.7-1.6-5.1-2.4
			c-1.3,0.9-2.9,1.8-4.9,2.5l-0.6-1.1c1.8-0.7,3.3-1.4,4.5-2.2c-1.2-1-2.1-2-2.7-3.1c-1.2,2.5-2.7,4.5-4.5,6l-0.6-1.1
			c2.3-2,4-4.8,5.2-8.4h-4L193.5,1195.4z M199.7,1205.7c1.2-0.9,2-1.9,2.4-3H197C197.5,1203.8,198.4,1204.8,199.7,1205.7z
			 M204,1197.6l-0.8,0.8c-0.7-0.8-1.6-1.7-2.8-2.7l0.8-0.8C202.3,1195.8,203.2,1196.7,204,1197.6z"/>
		<path class="st3" d="M212.1,1195.1v4.2h0.9v1.1h-3.8v0.8c0,0.5,0,1,0,1.4h3.1v6.8h-1.1v-5.7h-2c-0.2,2.4-0.6,4.2-1.3,5.5l-0.9-0.8
			c0.7-1.5,1.1-4,1.1-7.3v-5.9h1.1v3.9h1.7v-4.2H212.1z M215,1202.4c-0.1,3-0.6,5.3-1.6,7.1l-0.8-0.8c0.8-1.5,1.2-3.6,1.3-6.3v-6.4
			c2.5,0,4.8-0.4,6.8-1l0.6,1c-1.9,0.5-4,0.9-6.3,1v2.5h5.9v1c-0.4,2.2-1.1,4.1-2.1,5.6c0.8,1.1,1.7,1.9,2.9,2.4l-0.6,1
			c-1.2-0.6-2.2-1.5-3-2.5c-0.9,1-1.9,1.9-3.2,2.5l-0.6-1c1.2-0.7,2.2-1.5,3-2.5c-0.9-1.5-1.6-3.3-1.9-5.5H215V1202.4z
			 M218.2,1205.1c0.8-1.3,1.4-2.8,1.6-4.5h-3.2C216.9,1202.4,217.5,1203.9,218.2,1205.1z"/>
	</g>
	<g class="st0">
		<path class="st2" d="M47.9,1260.6c0.8,1.1,1.2,2.6,1.2,4.6c0,2.1-0.5,3.8-1.3,5.1c-0.9,1.3-2.1,1.9-3.5,1.9c-2.5,0-4-1.2-4.3-3.5
			H42c0.3,1.2,1,1.8,2.2,1.8c0.8,0,1.5-0.4,2.1-1.3c0.5-0.8,0.7-1.8,0.7-3v-0.2H47c-0.4,0.5-0.8,0.9-1.4,1.2
			c-0.5,0.2-1.1,0.4-1.7,0.4c-1.3,0-2.3-0.4-3-1.2c-0.8-0.8-1.1-1.8-1.1-3.1c0-1.3,0.4-2.4,1.3-3.2c0.9-0.8,1.9-1.3,3.2-1.3
			C45.8,1258.9,47,1259.5,47.9,1260.6z M42.5,1261.4c-0.5,0.5-0.7,1.2-0.7,1.9c0,0.8,0.2,1.4,0.7,1.9c0.4,0.5,1,0.7,1.8,0.7
			c0.8,0,1.4-0.3,1.8-0.7c0.4-0.5,0.7-1.1,0.7-2s-0.2-1.5-0.7-1.9c-0.5-0.5-1.1-0.7-1.8-0.7C43.6,1260.6,43,1260.9,42.5,1261.4z"/>
		<path class="st2" d="M59.6,1274l-1.4-1.3c1.1-1.6,1.7-3.6,1.7-6v-8.8h10.9v14.1c0,1.2-0.6,1.8-1.8,1.8h-2.3l-0.5-1.8
			c0.8,0.1,1.5,0.1,2.2,0.1c0.4,0,0.5-0.3,0.5-0.7v-3h-7.2C61.4,1270.6,60.7,1272.5,59.6,1274z M68.8,1259.6h-7.1v2.5h7.1V1259.6z
			 M61.7,1266.5h7.1v-2.7h-7.1V1266.5z"/>
	</g>
	<g class="st0">
		<path class="st3" d="M54.2,1297.8v1.2H39.8v-1.2H54.2z"/>
		<path class="st3" d="M56,1299.3l-0.3-1.2c1.7-2,2.9-4.4,3.6-7l1,0.5c-0.4,1.3-0.9,2.6-1.6,3.8v10.5h-1.1v-8.6
			C57.1,1298,56.5,1298.7,56,1299.3z M64.2,1293.9v-2.8h1.1v2.8h4.4v1.1h-3.3c0.7,2.6,2,5,3.9,7.1l-0.8,0.9c-2-2.4-3.3-5-4-8h-0.2
			v6.4h2.5v1.1h-2.5v3.3h-1.1v-3.3h-2.4v-1.1h2.4v-6.4H64c-0.8,3.3-2.2,6.1-4.2,8.2l-0.6-1c1.8-1.9,3.1-4.3,3.8-7.2H60v-1.1H64.2z"
			/>
		<path class="st3" d="M77.6,1291.6c-0.6,1.3-1.3,2.6-2.1,3.8v10.5h-1.2v-9.1c-0.7,0.8-1.5,1.5-2.4,2.2l-0.4-1.2
			c2.3-2,3.9-4.2,4.9-6.7L77.6,1291.6z M80.9,1305.6c-1.1,0-1.7-0.6-1.7-1.7v-4.9c-0.7,0.4-1.4,0.7-2.1,1.1l-0.5-1.1
			c0.9-0.4,1.8-0.8,2.6-1.3v-6.4h1.2v5.7c1.7-1.1,3.2-2.4,4.4-3.8l0.8,0.9c-1.5,1.6-3.2,3-5.2,4.3v5.4c0,0.5,0.3,0.8,0.8,0.8h2.6
			c0.4,0,0.7-0.1,0.9-0.4c0.2-0.3,0.3-1.2,0.4-2.8l1.1,0.4c-0.1,1.8-0.3,3-0.6,3.3c-0.3,0.4-0.8,0.6-1.6,0.6H80.9z"/>
		<path class="st3" d="M91.8,1298.8c-0.1,0.3-0.2,0.6-0.3,0.9h3.3v0.9c-0.4,1.1-0.9,2-1.8,2.7c0.8,0.4,1.5,0.7,2.2,1.1l-0.6,0.9
			c-0.7-0.4-1.5-0.8-2.5-1.3c-1.1,0.7-2.4,1.3-4,1.8l-0.5-1c1.3-0.4,2.4-0.8,3.4-1.3c-0.7-0.3-1.4-0.6-2.2-0.9
			c0.4-0.7,0.8-1.4,1.1-2H88v-1h2.3c0.1-0.4,0.3-0.7,0.4-1L91.8,1298.8z M91.2,1294.3v-3.1h1.1v3.1h2.9v1h-2.9v0.2
			c0.9,0.4,1.8,0.9,2.7,1.5l-0.6,0.9c-0.8-0.6-1.5-1.2-2.1-1.5v2.1h-1.1v-3c-0.5,1.3-1.5,2.4-2.9,3.3l-0.6-0.9
			c1.2-0.7,2.1-1.5,2.6-2.4h-2.3v-1H91.2z M90.3,1293.5l-0.8,0.4c-0.3-0.8-0.7-1.5-1.1-2.1l0.9-0.3
			C89.7,1292.1,90,1292.8,90.3,1293.5z M93.8,1300.7h-2.8c-0.3,0.5-0.5,1.1-0.9,1.5c0.6,0.2,1.2,0.4,1.8,0.7
			C92.8,1302.2,93.4,1301.5,93.8,1300.7z M95,1291.8c-0.3,0.7-0.7,1.4-1.2,2.1l-0.8-0.4c0.5-0.7,0.9-1.4,1.2-2L95,1291.8z
			 M96.8,1297.3c-0.3,0.7-0.6,1.4-0.9,2l-0.7-0.9c0.9-1.8,1.6-4.2,1.9-7.3l1.1,0.2c-0.1,0.8-0.2,1.6-0.4,2.3h4.2v1.1h-1
			c-0.1,2.7-0.6,5-1.5,6.9c0.8,1.4,1.8,2.5,3,3.3l-0.6,0.9c-1.1-0.8-2.1-1.9-2.9-3.2c-0.8,1.3-1.8,2.4-3,3.2l-0.6-1
			c1.2-0.9,2.2-2,3-3.3C97.7,1300.3,97.2,1298.9,96.8,1297.3z M97.3,1295.6c0.4,1.9,0.9,3.5,1.6,4.8c0.6-1.6,1-3.5,1-5.7h-2.4
			L97.3,1295.6z"/>
		<path class="st3" d="M104.3,1305.7l-0.2-1.1c0.4,0,0.8,0.1,1.2,0.1c0.4,0,0.6-0.2,0.6-0.7v-3.9c-0.6,0.2-1.3,0.5-1.9,0.7l-0.3-1.1
			c0.7-0.2,1.5-0.4,2.2-0.7v-3.6h-1.9v-1.1h1.9v-3h1.1v3h1.5v1.1H107v3.2c0.5-0.2,1-0.5,1.5-0.7v1.1c-0.5,0.3-1,0.5-1.5,0.7v4.7
			c0,0.9-0.4,1.4-1.3,1.4H104.3z M108.5,1305.9l-0.9-0.8c1.1-2.1,1.7-4.9,1.7-8.2v-5h8.4v3.9h-3v1.9h3.4v1h-3.4v2h2.7v5.2h-1.1v-0.8
			h-4.3v0.8H111v-5.2h2.7v-2h-3.3C110.2,1301.4,109.6,1303.8,108.5,1305.9z M110.5,1295.7v1.1c0,0.3,0,0.5,0,0.8h3.2v-1.9H110.5z
			 M110.5,1292.9v1.8h6.2v-1.8H110.5z M116.4,1304.1v-2.4h-4.3v2.4H116.4z"/>
		<path class="st3" d="M129.9,1305.8l-0.3-1.2l2.1,0c0.4,0,0.6-0.2,0.6-0.7v-11h-10.5v12.9h-1.2v-14h12.8v12.4c0,1-0.5,1.6-1.4,1.6
			H129.9z M131.1,1294.8v1.1h-8.2v-1.1H131.1z M130.2,1297.6v5.2h-6.4v-5.2H130.2z M129.1,1298.6h-4.2v3.1h4.2V1298.6z"/>
		<path class="st3" d="M143.7,1291.2v1.9h4.9v1.1h-4.9v2.2h6.4v1.1h-6.4v4.8h-1.2v-4.8h-6.7v-1.1h2.4v-4h1.2v4h3v-5.2H143.7z
			 M140.6,1299c-1,1.5-2.1,2.8-3.5,3.9l-0.7-0.9c1.4-1.1,2.5-2.3,3.4-3.7L140.6,1299z M148.8,1299.3c-2,4.4-5.9,6.7-11.6,6.7
			l-0.4-1.1c5.5,0,9.2-2,10.9-6.1L148.8,1299.3z"/>
		<path class="st3" d="M165.5,1291.9v1.1h-6v6h6.6v1.1h-6.6v5.7h-1.2v-5.7h-6.4v-1.1h6.4v-6h-5.8v-1.1H165.5z M156.2,1297.7
			l-1.1,0.5c-0.5-1.4-1.1-2.6-1.7-3.7l1.1-0.5C155.1,1295.2,155.7,1296.4,156.2,1297.7z M164.6,1294.5c-0.5,1.3-1.1,2.5-1.9,3.7
			l-1-0.5c0.8-1.2,1.4-2.5,1.9-3.7L164.6,1294.5z"/>
		<path class="st3" d="M168.3,1296.5c1.4-0.5,3.2-2.3,5.2-5.3l1.2,0.4c-1.4,2-2.9,3.7-4.3,4.9c3.1-0.1,6-0.3,8.7-0.6
			c-0.6-0.9-1.2-1.7-1.9-2.4l1-0.5c1.4,1.6,2.7,3.4,3.8,5.3l-1.1,0.5c-0.4-0.7-0.8-1.3-1.2-1.9c-3.4,0.3-7.1,0.5-11.3,0.7
			L168.3,1296.5z M180.3,1305.9h-1.2v-0.8h-8.4v0.8h-1.2v-6.7h10.7V1305.9z M179.2,1304v-3.7h-8.4v3.7H179.2z"/>
		<path class="st3" d="M198,1292.9v1.1h-4v10.3h-1.3V1294h-4v-1.1H198z"/>
		<path class="st3" d="M201,1293.2c0.2,0.2,0.3,0.4,0.3,0.7c0,0.3-0.1,0.5-0.3,0.7c-0.2,0.2-0.4,0.3-0.7,0.3s-0.5-0.1-0.7-0.3
			c-0.2-0.2-0.3-0.4-0.3-0.7c0-0.3,0.1-0.5,0.3-0.7c0.2-0.2,0.4-0.3,0.7-0.3S200.8,1293,201,1293.2z M200.9,1296v8.3h-1.3v-8.3
			H200.9z"/>
		<path class="st3" d="M207.6,1292.9c1.8,0,3.2,0.5,4.1,1.6c0.8,1,1.3,2.4,1.3,4.1c0,1.8-0.5,3.2-1.4,4.1c-1,1-2.3,1.6-4.1,1.6h-4
			v-11.4H207.6z M204.8,1303.1h2.4c1.5,0,2.6-0.4,3.4-1.2c0.7-0.8,1.1-1.9,1.1-3.4c0-1.5-0.3-2.7-1-3.4c-0.7-0.8-1.8-1.2-3.3-1.2
			h-2.6V1303.1z"/>
		<path class="st3" d="M219.9,1292.9c1.1,0,1.9,0.3,2.5,0.8c0.6,0.5,0.9,1.2,0.9,2.1c0,0.6-0.2,1.2-0.5,1.7
			c-0.4,0.4-0.8,0.7-1.4,0.9c0.8,0.1,1.3,0.4,1.7,0.9c0.4,0.5,0.6,1.1,0.6,1.9c0,1.1-0.4,2-1.2,2.5c-0.7,0.4-1.6,0.7-2.8,0.7h-5.1
			v-11.4H219.9z M216.1,1297.8h3.5c0.8,0,1.4-0.2,1.8-0.5c0.4-0.3,0.6-0.8,0.6-1.5c0-0.6-0.2-1.1-0.6-1.4c-0.4-0.3-1-0.5-1.8-0.5
			h-3.5V1297.8z M216.1,1303.2h3.7c0.8,0,1.4-0.2,1.9-0.4c0.6-0.4,0.8-0.9,0.8-1.6s-0.3-1.3-0.7-1.6c-0.5-0.4-1.1-0.5-2-0.5h-3.7
			V1303.2z"/>
		<path class="st3" d="M235,1292.9c1.8,0,3.2,0.5,4.1,1.6c0.8,1,1.3,2.4,1.3,4.1c0,1.8-0.5,3.2-1.4,4.1c-1,1-2.3,1.6-4.1,1.6h-4
			v-11.4H235z M232.2,1303.1h2.4c1.5,0,2.6-0.4,3.4-1.2c0.7-0.8,1.1-1.9,1.1-3.4c0-1.5-0.3-2.7-1-3.4c-0.7-0.8-1.8-1.2-3.3-1.2h-2.6
			V1303.1z"/>
		<path class="st3" d="M248.3,1296.7c0.5,0.5,0.7,1.3,0.7,2.3v5.3h-1.2v-1.4c-0.3,0.4-0.8,0.8-1.3,1.1c-0.6,0.3-1.3,0.5-2.1,0.5
			c-0.8,0-1.5-0.2-2-0.6c-0.5-0.4-0.8-1-0.8-1.7c0-0.9,0.4-1.6,1.1-2.1c0.7-0.4,1.6-0.7,2.9-0.7l2,0v-0.4c0-1.4-0.7-2.1-2.2-2.1
			c-0.6,0-1.1,0.1-1.5,0.4c-0.4,0.3-0.7,0.7-0.8,1.2l-1.3-0.1c0.2-0.9,0.6-1.5,1.3-1.9c0.6-0.4,1.4-0.6,2.4-0.6
			C246.9,1295.8,247.7,1296.1,248.3,1296.7z M245.8,1300.3c-1.9,0-2.8,0.6-2.8,1.8c0,0.4,0.1,0.7,0.5,0.9c0.3,0.2,0.7,0.4,1.2,0.4
			c0.8,0,1.5-0.3,2.1-0.8c0.6-0.5,0.9-1.1,0.9-1.7v-0.7L245.8,1300.3z"/>
		<path class="st3" d="M253.2,1296h2v1.1h-2v5.3c0,0.3,0,0.5,0.2,0.7c0.1,0.1,0.3,0.2,0.6,0.2h1.1v1.1h-1.2c-0.7,0-1.2-0.2-1.5-0.5
			c-0.3-0.3-0.4-0.8-0.4-1.4v-5.3h-1.7v-1.1h1.7v-2.1l1.3-0.5V1296z"/>
		<path class="st3" d="M262.9,1296.7c0.5,0.5,0.7,1.3,0.7,2.3v5.3h-1.2v-1.4c-0.3,0.4-0.8,0.8-1.3,1.1c-0.6,0.3-1.3,0.5-2.1,0.5
			c-0.8,0-1.5-0.2-2-0.6c-0.5-0.4-0.8-1-0.8-1.7c0-0.9,0.4-1.6,1.1-2.1c0.7-0.4,1.6-0.7,2.9-0.7l2,0v-0.4c0-1.4-0.7-2.1-2.2-2.1
			c-0.6,0-1.1,0.1-1.5,0.4c-0.4,0.3-0.7,0.7-0.8,1.2l-1.3-0.1c0.2-0.9,0.6-1.5,1.3-1.9c0.6-0.4,1.4-0.6,2.4-0.6
			C261.5,1295.8,262.3,1296.1,262.9,1296.7z M260.5,1300.3c-1.9,0-2.8,0.6-2.8,1.8c0,0.4,0.1,0.7,0.5,0.9c0.3,0.2,0.7,0.4,1.2,0.4
			c0.8,0,1.5-0.3,2.1-0.8c0.6-0.5,0.9-1.1,0.9-1.7v-0.7L260.5,1300.3z"/>
		<path class="st3" d="M272.8,1292.9l4.3,9.7h0l4.2-9.7h1.6v11.4h-1.3v-9.1h0l-4,9.1h-1.2l-4-9.1h0v9.1h-1.3v-11.4H272.8z"/>
		<path class="st3" d="M286.8,1293.2c0.2,0.2,0.3,0.4,0.3,0.7c0,0.3-0.1,0.5-0.3,0.7c-0.2,0.2-0.4,0.3-0.7,0.3
			c-0.3,0-0.5-0.1-0.7-0.3c-0.2-0.2-0.3-0.4-0.3-0.7c0-0.3,0.1-0.5,0.3-0.7c0.2-0.2,0.4-0.3,0.7-0.3
			C286.4,1292.9,286.6,1293,286.8,1293.2z M286.8,1296v8.3h-1.3v-8.3H286.8z"/>
		<path class="st3" d="M295.4,1297.4v-1.4h1.3v7.7c0,2.6-1.3,4-3.8,4c-1.1,0-2-0.2-2.6-0.7c-0.6-0.4-1-1.1-1.1-2h1.3
			c0.1,0.6,0.3,1,0.7,1.2c0.4,0.3,0.9,0.4,1.7,0.4c1.7,0,2.5-0.9,2.5-2.8v-1.5c-0.6,1.1-1.5,1.7-2.8,1.7c-1.2,0-2.1-0.4-2.7-1.2
			c-0.7-0.8-1-1.7-1-2.9c0-1.2,0.3-2.2,1-3c0.7-0.8,1.6-1.2,2.7-1.2C293.8,1295.8,294.8,1296.3,295.4,1297.4z M290.8,1297.7
			c-0.4,0.5-0.7,1.3-0.7,2.2c0,0.9,0.2,1.6,0.6,2.1c0.4,0.6,1.1,0.9,2,0.9c0.8,0,1.5-0.3,2-0.9c0.4-0.6,0.7-1.3,0.7-2.2
			c0-0.9-0.2-1.7-0.7-2.2c-0.5-0.6-1.1-0.9-1.9-0.9C291.9,1296.8,291.3,1297.1,290.8,1297.7z"/>
		<path class="st3" d="M303.4,1296v1.3c-0.4-0.1-0.8-0.2-1.2-0.2c-0.6,0-1.2,0.3-1.6,0.8c-0.4,0.5-0.7,1.2-0.7,2v4.4h-1.3v-8.3h1.3
			v1.4c0.2-0.5,0.5-0.9,0.9-1.1c0.4-0.4,0.9-0.5,1.5-0.5C302.7,1295.8,303.1,1295.8,303.4,1296z"/>
		<path class="st3" d="M310.7,1296.7c0.5,0.5,0.7,1.3,0.7,2.3v5.3h-1.2v-1.4c-0.3,0.4-0.8,0.8-1.3,1.1c-0.6,0.3-1.3,0.5-2.1,0.5
			c-0.8,0-1.5-0.2-2-0.6c-0.5-0.4-0.8-1-0.8-1.7c0-0.9,0.4-1.6,1.1-2.1c0.7-0.4,1.6-0.7,2.9-0.7l2,0v-0.4c0-1.4-0.7-2.1-2.2-2.1
			c-0.6,0-1.1,0.1-1.5,0.4c-0.4,0.3-0.7,0.7-0.8,1.2l-1.3-0.1c0.2-0.9,0.6-1.5,1.3-1.9c0.6-0.4,1.4-0.6,2.4-0.6
			C309.3,1295.8,310.1,1296.1,310.7,1296.7z M308.2,1300.3c-1.9,0-2.8,0.6-2.8,1.8c0,0.4,0.1,0.7,0.5,0.9c0.3,0.2,0.7,0.4,1.2,0.4
			c0.8,0,1.5-0.3,2.1-0.8c0.6-0.5,0.9-1.1,0.9-1.7v-0.7L308.2,1300.3z"/>
		<path class="st3" d="M315.6,1296h2v1.1h-2v5.3c0,0.3,0,0.5,0.2,0.7c0.1,0.1,0.3,0.2,0.6,0.2h1.1v1.1h-1.2c-0.7,0-1.2-0.2-1.5-0.5
			c-0.3-0.3-0.4-0.8-0.4-1.4v-5.3h-1.7v-1.1h1.7v-2.1l1.3-0.5V1296z"/>
		<path class="st3" d="M320.8,1293.2c0.2,0.2,0.3,0.4,0.3,0.7c0,0.3-0.1,0.5-0.3,0.7c-0.2,0.2-0.4,0.3-0.7,0.3s-0.5-0.1-0.7-0.3
			c-0.2-0.2-0.3-0.4-0.3-0.7c0-0.3,0.1-0.5,0.3-0.7c0.2-0.2,0.4-0.3,0.7-0.3S320.6,1293,320.8,1293.2z M320.8,1296v8.3h-1.3v-8.3
			H320.8z"/>
		<path class="st3" d="M329.8,1297.1c0.7,0.8,1.1,1.8,1.1,3.1c0,1.2-0.4,2.3-1,3.1c-0.8,0.9-1.7,1.3-3,1.3c-1.2,0-2.2-0.4-3-1.3
			c-0.7-0.8-1.1-1.8-1.1-3.1c0-1.2,0.4-2.3,1.1-3.1c0.7-0.9,1.7-1.3,3-1.3C328.1,1295.8,329.1,1296.2,329.8,1297.1z M324.8,1297.9
			c-0.4,0.6-0.7,1.4-0.7,2.3c0,0.9,0.2,1.7,0.7,2.3c0.5,0.7,1.2,1,2,1c0.9,0,1.6-0.3,2.1-1c0.4-0.6,0.7-1.4,0.7-2.3
			c0-0.9-0.2-1.7-0.7-2.3c-0.5-0.7-1.2-1-2.1-1C326,1296.9,325.3,1297.2,324.8,1297.9z"/>
		<path class="st3" d="M339.5,1299.2v5.1h-1.3v-5c0-1.6-0.7-2.4-2.2-2.4c-0.6,0-1.1,0.2-1.5,0.6c-0.4,0.4-0.7,1-0.7,1.8v5h-1.3v-8.3
			h1.3v1.2c0.3-0.5,0.7-0.8,1.1-1.1c0.4-0.3,0.9-0.4,1.5-0.4C338.5,1295.8,339.5,1296.9,339.5,1299.2z"/>
		<path class="st3" d="M350.6,1292.9v11.4h-1.3v-9.8c-0.7,0.7-1.6,1.2-2.7,1.6v-1.3c0.5-0.1,1.1-0.4,1.6-0.7c0.5-0.4,1-0.7,1.4-1.2
			H350.6z"/>
		<path class="st3" d="M355.1,1302.7c0.2,0.2,0.3,0.4,0.3,0.7c0,0.3-0.1,0.5-0.3,0.7c-0.2,0.2-0.4,0.3-0.7,0.3
			c-0.3,0-0.5-0.1-0.7-0.3c-0.2-0.2-0.3-0.4-0.3-0.7c0-0.3,0.1-0.5,0.3-0.7c0.2-0.2,0.4-0.3,0.7-0.3
			C354.6,1302.4,354.9,1302.5,355.1,1302.7z"/>
		<path class="st3" d="M364.4,1294.4c0.6,1,0.9,2.4,0.9,4.1c0,1.7-0.3,3.1-0.9,4.1c-0.7,1.2-1.7,1.8-3.1,1.8c-1.4,0-2.4-0.6-3.1-1.8
			c-0.6-1-0.9-2.4-0.9-4.1c0-1.7,0.3-3.1,0.9-4.1c0.7-1.2,1.7-1.8,3.1-1.8C362.6,1292.6,363.7,1293.2,364.4,1294.4z M359.1,1295.4
			c-0.3,0.8-0.5,1.8-0.5,3.2c0,1.3,0.2,2.4,0.5,3.2c0.4,1.1,1.2,1.6,2.2,1.6s1.8-0.6,2.2-1.6c0.3-0.8,0.5-1.8,0.5-3.2
			c0-1.3-0.2-2.4-0.5-3.2c-0.4-1.1-1.2-1.6-2.2-1.6S359.5,1294.3,359.1,1295.4z"/>
	</g>
	<g class="st0">
		<path class="st3" d="M48.4,1325.4c0.8,0.7,1.3,1.6,1.5,2.8h-1.3c-0.2-0.9-0.6-1.5-1.2-2c-0.6-0.5-1.4-0.7-2.4-0.7
			c-1.2,0-2.2,0.4-3,1.3c-0.7,0.9-1.1,2-1.1,3.5c0,1.4,0.4,2.6,1.1,3.4c0.8,0.9,1.9,1.3,3.4,1.3c0.6,0,1.2-0.1,1.8-0.3
			c0.6-0.2,1-0.4,1.4-0.6v-2.9h-3.6v-1.1h4.9v4.7c-0.5,0.4-1.2,0.8-2,1c-0.8,0.3-1.7,0.4-2.7,0.4c-1.8,0-3.2-0.6-4.2-1.7
			c-0.9-1.1-1.4-2.5-1.4-4.2c0-1.7,0.4-3.1,1.4-4.2c1-1.2,2.3-1.8,4-1.8C46.5,1324.3,47.6,1324.7,48.4,1325.4z"/>
		<path class="st3" d="M57,1324.6l4.5,11.4h-1.4l-1.2-3.2h-5.2l-1.2,3.2H51l4.5-11.4H57z M58.4,1331.7l-2.2-5.7h-0.1l-2.2,5.7H58.4z
			"/>
		<path class="st3" d="M69.9,1323.4l1.1,0.2l-0.9,3.2H73c0.3-1.2,0.6-2.5,0.8-3.9l1.2,0.1c-0.2,1.3-0.5,2.6-0.8,3.8h7.5v1.1h-7.8
			c-0.2,0.6-0.4,1.2-0.6,1.8h6.5v1c-0.4,1.4-1.3,2.6-2.6,3.7c1.3,0.8,2.9,1.5,4.7,2.1l-0.6,1.1c-2-0.8-3.7-1.6-5.1-2.4
			c-1.3,0.9-2.9,1.8-4.9,2.5l-0.6-1.1c1.8-0.7,3.3-1.4,4.5-2.2c-1.2-1-2.1-2-2.7-3.1c-1.2,2.5-2.7,4.5-4.5,6l-0.6-1.1
			c2.3-2,4-4.8,5.2-8.4h-4L69.9,1323.4z M76.2,1333.7c1.2-0.9,2-1.9,2.4-3h-5.2C74,1331.8,74.9,1332.8,76.2,1333.7z M80.4,1325.6
			l-0.8,0.8c-0.7-0.8-1.6-1.7-2.8-2.7l0.8-0.8C78.7,1323.8,79.7,1324.7,80.4,1325.6z"/>
		<path class="st3" d="M88.6,1323.1v4.2h0.9v1.1h-3.8v0.8c0,0.5,0,1,0,1.4h3.1v6.8h-1.1v-5.7h-2c-0.2,2.4-0.6,4.2-1.3,5.5l-0.9-0.8
			c0.7-1.5,1.1-4,1.1-7.3v-5.9h1.1v3.9h1.7v-4.2H88.6z M91.5,1330.4c-0.1,3-0.6,5.3-1.6,7.1l-0.8-0.8c0.8-1.5,1.2-3.6,1.3-6.3v-6.4
			c2.5,0,4.8-0.4,6.8-1l0.6,1c-1.9,0.5-4,0.9-6.3,1v2.5h5.9v1c-0.4,2.2-1.1,4.1-2.1,5.6c0.8,1.1,1.7,1.9,2.9,2.4l-0.6,1
			c-1.2-0.6-2.2-1.5-3-2.5c-0.9,1-1.9,1.9-3.2,2.5l-0.6-1c1.2-0.7,2.2-1.5,3-2.5c-0.9-1.5-1.6-3.3-1.9-5.5h-0.5V1330.4z
			 M94.6,1333.1c0.8-1.3,1.4-2.8,1.6-4.5h-3.2C93.4,1330.4,93.9,1331.9,94.6,1333.1z"/>
	</g>
	<g class="st0">
		<path class="st1" d="M44.6,1445c5.2-4.3,9.3-7.9,12.4-10.6c3-2.8,5.6-5.7,7.6-8.7s3.1-6,3.1-8.9c0-2.2-0.5-3.9-1.5-5.1
			c-1-1.2-2.5-1.8-4.6-1.8c-2,0-3.6,0.8-4.8,2.3c-1.1,1.5-1.7,3.7-1.7,6.4H42c0.1-4.5,1.1-8.3,2.9-11.4c1.8-3,4.3-5.3,7.3-6.7
			c3-1.4,6.4-2.2,10-2.2c6.3,0,11.1,1.6,14.4,4.9c3.2,3.3,4.8,7.5,4.8,12.7c0,5.7-1.9,11-5.8,15.9c-3.9,4.9-8.9,9.6-14.9,14.3h21.6
			v11.1H42.1V1447C43.9,1445.6,44.8,1444.9,44.6,1445z"/>
		<path class="st1" d="M93.6,1406.3c3.5-5.3,9.3-7.9,17.2-7.9c7.9,0,13.6,2.6,17.2,7.9c3.5,5.3,5.3,12.5,5.3,21.7
			c0,9.3-1.8,16.6-5.3,21.8c-3.5,5.3-9.3,7.9-17.2,7.9c-7.9,0-13.6-2.6-17.2-7.9c-3.5-5.3-5.3-12.6-5.3-21.8
			C88.3,1418.8,90.1,1411.6,93.6,1406.3z M118,1415.6c-1.2-2.9-3.6-4.4-7.3-4.4c-3.7,0-6.1,1.5-7.3,4.4c-1.2,2.9-1.8,7.1-1.8,12.4
			c0,3.6,0.2,6.6,0.6,9c0.4,2.4,1.3,4.3,2.6,5.8c1.3,1.5,3.2,2.2,5.8,2.2s4.5-0.7,5.8-2.2c1.3-1.5,2.2-3.4,2.6-5.8
			c0.4-2.4,0.6-5.4,0.6-9C119.8,1422.6,119.2,1418.5,118,1415.6z"/>
		<path class="st1" d="M139,1412.3v-12.7h22.2v58.4h-14.2v-45.7H139z"/>
		<path class="st1" d="M211.6,1411.5h-25v11c1.1-1.2,2.6-2.1,4.5-2.9c1.9-0.7,4-1.1,6.2-1.1c4,0,7.3,0.9,10,2.7
			c2.6,1.8,4.6,4.2,5.8,7c1.2,2.9,1.8,6,1.8,9.4c0,6.2-1.8,11.2-5.3,14.8c-3.5,3.7-8.5,5.5-14.9,5.5c-4.3,0-8-0.7-11.1-2.2
			c-3.1-1.5-5.6-3.5-7.3-6.1c-1.7-2.6-2.6-5.6-2.8-9H187c0.3,1.7,1.1,3,2.3,4.1c1.2,1.1,2.9,1.6,5,1.6c2.5,0,4.4-0.8,5.6-2.4
			c1.2-1.6,1.8-3.7,1.8-6.4c0-2.6-0.6-4.6-1.9-6c-1.3-1.4-3.1-2.1-5.6-2.1c-1.8,0-3.3,0.4-4.5,1.3c-1.2,0.9-1.9,2-2.3,3.5h-13.2
			v-34.8h37.4V1411.5z"/>
	</g>
	<g class="st0">
		<path class="st2" d="M47.6,1511.1v8.4h1.9v1.7h-1.9v2.8h-2v-2.8h-6.2v-2l6.3-8.1H47.6z M41.1,1519.6h4.5v-5.8h-0.1L41.1,1519.6z"
			/>
		<path class="st2" d="M59.6,1526l-1.4-1.3c1.1-1.6,1.7-3.6,1.7-6v-8.8h10.9v14.1c0,1.2-0.6,1.8-1.8,1.8h-2.3l-0.5-1.8
			c0.8,0.1,1.5,0.1,2.2,0.1c0.4,0,0.5-0.3,0.5-0.7v-3h-7.2C61.4,1522.6,60.7,1524.5,59.6,1526z M68.8,1511.6h-7.1v2.5h7.1V1511.6z
			 M61.7,1518.5h7.1v-2.7h-7.1V1518.5z"/>
	</g>
	<g class="st0">
		<path class="st3" d="M53.5,1543.9v1.1h-6v6h6.6v1.1h-6.6v5.7h-1.2v-5.7h-6.4v-1.1h6.4v-6h-5.8v-1.1H53.5z M44.2,1549.7l-1.1,0.5
			c-0.5-1.4-1.1-2.6-1.7-3.7l1.1-0.5C43.1,1547.2,43.7,1548.4,44.2,1549.7z M52.6,1546.5c-0.5,1.3-1.1,2.5-1.9,3.7l-1-0.5
			c0.8-1.2,1.4-2.5,1.9-3.7L52.6,1546.5z"/>
		<path class="st3" d="M62.1,1554.5l0.2,1.1c-1.7,0.6-3.6,1.2-5.6,1.8l-0.3-1c0.3-0.1,0.4-0.4,0.4-0.7v-3.7h4.1v-1.9H56v-1h6v4h-4.1
			v2.9C59.2,1555.5,60.7,1555,62.1,1554.5z M61.4,1544h1v3.7h-6.2v-3.7h1v2.7h1.6v-3.4h1v3.4h1.6V1544z M63.3,1553.9
			c0.2-1,0.4-2.3,0.4-3.9v-6.2H68v12.2c0,0.3,0.1,0.4,0.4,0.4h0.4c0.2,0,0.3,0,0.4-0.1c0.1-0.1,0.2-0.3,0.2-0.5
			c0-0.4,0.1-1.3,0.1-2.9l0.9,0.3c0,1.2,0,2.1-0.1,2.8c-0.1,0.6-0.2,1-0.4,1.3c-0.2,0.2-0.5,0.3-1,0.3h-0.5c-1,0-1.5-0.5-1.5-1.4
			v-11.3h-2.2v5.2c0,1.7-0.2,3.2-0.4,4.3c-0.3,1.2-0.9,2.4-1.7,3.5l-0.8-0.8C62.5,1556.1,63,1555,63.3,1553.9z"/>
		<path class="st3" d="M72.9,1554.9l-0.8-0.9c0.9-1.1,1.7-2.5,2.3-4.3l1,0.2c-0.1,0.4-0.3,0.8-0.4,1.2h4v-1.3h1.2v1.3h5.3v1h-5.3
			v1.6h4.7v1h-4.7v1.6h6v1.1H72.7v-1.1H79v-1.6h-4.4v-1H79v-1.6h-4.4C74.1,1553.2,73.5,1554.1,72.9,1554.9z M84.5,1543.7v5.7H74.1
			v-5.7H84.5z M83.4,1546.1v-1.4h-8.1v1.4H83.4z M83.4,1547h-8.1v1.4h8.1V1547z"/>
		<path class="st3" d="M88.5,1557.9l-0.9-0.8c1.1-1.9,1.7-4.4,1.7-7.7v-5.5h12.4v1.1H90.5v4.6h11.4v1.1h-5c0.1,1,0.5,1.8,1.1,2.7
			c0.9-0.5,1.7-1.2,2.5-2.2l0.8,0.8c-0.8,0.9-1.7,1.6-2.7,2.2c0.9,1,2.2,1.9,3.8,2.8l-0.8,0.9c-3.5-1.9-5.4-4.3-5.7-7.1h-2.4v5.6
			c1.3-0.3,2.4-0.7,3.4-1.1l0.2,1.1c-1.4,0.5-3,1-4.9,1.4l-0.3-1c0.3-0.1,0.5-0.4,0.5-0.8v-5.2h-1.9
			C90.2,1553.6,89.6,1556,88.5,1557.9z M100.6,1546.7v1.1h-8.7v-1.1H100.6z"/>
		<path class="st3" d="M117.7,1543c-0.6,1.1-1.2,2.2-1.5,3.3c-0.5,1.4-0.7,2.8-0.7,4.2c0,1.4,0.2,2.8,0.7,4.2
			c0.4,1.1,0.9,2.2,1.5,3.3h-1.1c-0.7-1-1.2-2.1-1.6-3.3c-0.5-1.4-0.7-2.8-0.7-4.2c0-1.4,0.2-2.8,0.7-4.2c0.4-1.2,0.9-2.3,1.6-3.3
			H117.7z"/>
		<path class="st3" d="M125.5,1543.3v14.5h-1.2v-2.7c-1.3,0.6-2.7,1.1-4.2,1.5l-0.3-1.1c1.6-0.4,3.1-0.9,4.5-1.5v-5.1h-4.2v-1.1h4.2
			v-4.4H125.5z M129.7,1557.6c-1,0-1.5-0.5-1.5-1.6v-12.8h1.2v5.4c1.4-0.5,2.7-1.2,4-2.1l0.7,0.9c-1.7,1-3.2,1.8-4.7,2.3v6.1
			c0,0.4,0.2,0.7,0.6,0.7h2c0.4,0,0.6-0.1,0.8-0.4c0.1-0.3,0.2-1.2,0.3-2.9l1.1,0.4c-0.1,1.9-0.3,3-0.5,3.4
			c-0.3,0.4-0.7,0.6-1.4,0.6H129.7z"/>
		<path class="st3" d="M140.3,1553.8c-1,1.4-2.3,2.7-3.8,3.7l-0.7-0.9c1.5-1,2.7-2.2,3.7-3.5L140.3,1553.8z M143.5,1544.9h6.6v1.1
			h-14.2v-1.1h6.5c-0.2-0.6-0.5-1.1-0.7-1.6l1.2-0.2C143.1,1543.7,143.3,1544.3,143.5,1544.9z M148.1,1547.6v4.5h-4.5v4.3
			c0,1-0.5,1.4-1.5,1.4h-1.7l-0.3-1.1c0.5,0,1.1,0.1,1.6,0.1c0.5,0,0.7-0.2,0.7-0.7v-4h-4.6v-4.5H148.1z M147,1548.7h-7.9v2.3h7.9
			V1548.7z M150.1,1556.7l-0.8,0.8c-0.9-1.2-2.1-2.4-3.6-3.7l0.8-0.8C147.9,1554.3,149.1,1555.5,150.1,1556.7z"/>
		<path class="st3" d="M153.4,1543c0.7,1,1.2,2.1,1.6,3.3c0.5,1.4,0.7,2.8,0.7,4.2c0,1.4-0.2,2.8-0.7,4.2c-0.4,1.2-1,2.3-1.6,3.3
			h-1.1c0.6-1.1,1.1-2.2,1.5-3.3c0.5-1.4,0.7-2.8,0.7-4.2c0-1.4-0.2-2.8-0.7-4.2c-0.4-1.2-0.9-2.3-1.5-3.3H153.4z"/>
		<path class="st3" d="M170.6,1547.5v-2.4c-0.8,0.1-1.6,0.2-2.4,0.3l-0.2-1.1c2.1-0.2,3.9-0.5,5.5-1l0.4,1.1
			c-0.7,0.2-1.4,0.4-2.2,0.5v2.6h2.2v1.1h-2.2v0.8c0.9,0.7,1.8,1.5,2.8,2.4l-0.7,1c-0.8-1-1.5-1.7-2.1-2.3v7.3h-1.2v-7.5
			c-0.6,1.6-1.5,3-2.6,4.3l-0.5-1.3c1.4-1.4,2.3-3,2.9-4.7H168v-1.1H170.6z M182.4,1553l-1.6,0.3v4.6h-1.2v-4.4l-5,0.8l-0.2-1.1
			l5.2-0.8v-9h1.2v8.9l1.4-0.2L182.4,1553z M178.4,1550.4l-0.8,0.8c-0.7-0.8-1.7-1.7-3-2.6l0.8-0.8
			C176.7,1548.6,177.6,1549.5,178.4,1550.4z M178.9,1546.6l-0.8,0.8c-0.7-0.8-1.7-1.6-2.9-2.5l0.8-0.8
			C177.1,1544.9,178.1,1545.7,178.9,1546.6z"/>
		<path class="st3" d="M184.2,1557.7l-0.2-1.1c0.4,0,0.8,0.1,1.2,0.1c0.4,0,0.7-0.2,0.7-0.7v-3.8c-0.6,0.3-1.3,0.5-2,0.7l-0.3-1.1
			c0.8-0.2,1.5-0.4,2.2-0.7v-3.8h-1.9v-1.1h1.9v-2.9h1.1v2.9h1.7v1.1h-1.7v3.3c0.6-0.3,1.2-0.6,1.7-0.9v1.1
			c-0.6,0.3-1.2,0.6-1.7,0.9v4.6c0,1-0.5,1.4-1.4,1.4H184.2z M193,1545.5v-2.3h1.1v2.3h3.9v1.1h-3.9v2.6h3.2v1
			c-0.6,1.8-1.5,3.3-2.8,4.5c1.1,0.8,2.4,1.5,3.9,2.2l-0.6,1c-1.6-0.7-3-1.5-4-2.4c-1.2,1-2.8,1.8-4.6,2.4l-0.5-1
			c1.7-0.6,3.1-1.3,4.3-2.2c-1.3-1.3-2.2-2.8-2.7-4.4h-0.8v-1.1h3.5v-2.6h-3.8v-1.1H193z M193.8,1554.1c1.1-1.1,1.9-2.3,2.4-3.8
			h-4.8C191.8,1551.7,192.6,1553,193.8,1554.1z"/>
		<path class="st3" d="M204.6,1554.4v3.4h-1.1v-8.4c-0.9,1.1-1.9,2.2-3.1,3.1l-0.8-1c2-1.6,3.6-3.4,4.7-5.5h-4.2v-1.1h4.8
			c0.3-0.6,0.5-1.2,0.7-1.9l1.2,0.1c-0.2,0.6-0.4,1.2-0.6,1.7h8v1.1h-8.4c-0.3,0.6-0.7,1.3-1,1.9h7.4v8.6c0,0.8-0.4,1.2-1.3,1.2
			h-1.8l-0.3-1.1c0.6,0,1.2,0.1,1.7,0.1c0.4,0,0.6-0.2,0.6-0.6v-1.8H204.6z M204.6,1550.7h6.4v-1.7h-6.4V1550.7z M204.6,1551.7v1.7
			h6.4v-1.7H204.6z"/>
		<path class="st3" d="M221.3,1543.8v0.9c-0.5,1.4-1.1,2.9-1.7,4.5c1,1.4,1.6,2.7,1.6,3.8c0,0.7-0.2,1.2-0.5,1.5
			c-0.4,0.4-1.2,0.6-2.4,0.6l-0.4-1.2c0.3,0,0.5,0.1,0.6,0.1c0.6,0,1-0.1,1.2-0.2c0.2-0.1,0.3-0.4,0.3-0.7c0-1.1-0.6-2.3-1.7-3.7
			c0.8-1.7,1.3-3.2,1.8-4.5h-2.6v12.9h-1.1v-14.1H221.3z M223.1,1550.7v5.5c1-0.3,1.9-0.7,2.9-1.1l0.3,1.1c-1.2,0.5-2.6,1-4.3,1.4
			l-0.3-1c0.2-0.1,0.4-0.2,0.4-0.4v-12.4h7v6.9h-3c0.2,0.9,0.5,1.8,1,2.6c0.8-0.4,1.5-1.1,2.2-1.9l0.8,0.8c-0.7,0.9-1.6,1.5-2.5,2
			c0.7,1,1.7,1.9,2.9,2.6l-0.6,1c-2.7-1.7-4.3-4-4.8-7H223.1z M227.9,1544.9h-4.7v1.8h4.7V1544.9z M223.1,1549.7h4.7v-1.8h-4.7
			V1549.7z"/>
		<path class="st3" d="M237.3,1543.8c-1.2,3.4-2.7,5.9-4.7,7.7l-0.9-0.8c2-1.8,3.5-4.3,4.5-7.3L237.3,1543.8z M244.9,1557.4
			l-1.1,0.5c-0.2-0.5-0.5-1.1-0.7-1.5c-2.8,0.4-6,0.8-9.5,1l-0.2-1.1c1.3-0.7,2.9-3.2,4.8-7.6l1.1,0.4c-1.4,3-2.8,5.4-4.1,7.2
			c2.6-0.2,5.1-0.4,7.3-0.8c-0.6-1.2-1.3-2.2-1.9-3.2l1-0.4C243,1553.6,244,1555.4,244.9,1557.4z M246.3,1550.5l-0.8,0.9
			c-2.4-2-4.1-4.6-5-7.7l1-0.5C242.4,1546.2,244,1548.7,246.3,1550.5z"/>
		<path class="st3" d="M258,1547v1h-9.8v-1H258z M257,1557.8l-0.3-1.1l2.2,0c0.5,0,0.7-0.3,0.7-1V1545h-10.9v-1.1h12v12.2
			c0,1.1-0.5,1.7-1.6,1.7H257z M256.4,1550v4.9h-7.1v-4.9H256.4z M255.3,1551.1h-4.8v2.9h4.8V1551.1z"/>
		<path class="st3" d="M276.9,1544.9l-0.7,0.7h2v1.1h-4.9c0.1,2,0.3,3.6,0.6,4.7c0.1,0.4,0.2,0.8,0.3,1.1c0.8-1.3,1.4-2.8,1.9-4.5
			l1,0.4c-0.6,2.1-1.5,3.9-2.5,5.3c0.2,0.5,0.5,1,0.7,1.3c0.5,0.8,1,1.2,1.3,1.2c0.3,0,0.6-0.8,0.8-2.5l1,0.6
			c-0.4,2.1-0.9,3.2-1.6,3.2c-0.7,0-1.4-0.5-2.2-1.4c-0.3-0.4-0.6-0.8-0.8-1.3c-1.1,1.3-2.4,2.3-3.9,3l-0.6-1c1.6-0.7,3-1.8,4.1-3.2
			c-0.2-0.6-0.4-1.2-0.6-1.9c-0.4-1.3-0.6-3-0.7-5h-5.5v2.7h3.9c0,2.7-0.2,4.5-0.4,5.2c-0.2,0.7-0.7,1-1.5,1.1c-0.4,0-0.8,0-1.4-0.1
			l-0.4-1c0.6,0,1.2,0,1.6,0c0.4,0,0.6-0.3,0.7-0.7c0.1-0.5,0.1-1.7,0.2-3.5h-2.8v0.5c-0.1,2.9-0.7,5.2-1.9,6.9l-0.9-0.8
			c1-1.5,1.6-3.5,1.6-6.1v-5.3h6.6c0-0.8,0-1.6,0-2.5h1.2c0,0.9,0,1.7,0,2.5h3c-0.5-0.6-1.1-1.2-1.9-1.8l0.7-0.7
			C275.7,1543.7,276.3,1544.3,276.9,1544.9z"/>
		<path class="st3" d="M287.7,1555.8c1-2.1,1.8-4.8,2.6-8l1.2,0.3c-0.7,2.9-1.5,5.4-2.5,7.7h5.2v1.1h-14.5v-1.1H287.7z
			 M286.5,1545.8c-0.3-0.9-0.5-1.6-0.8-2.4l1.3-0.2c0.3,0.8,0.5,1.6,0.7,2.6h6v1.1h-13.4v-1.1H286.5z M285.6,1555l-1.2,0.3
			c-0.5-2.4-1.1-4.8-1.8-7l1.2-0.4C284.5,1550,285.1,1552.3,285.6,1555z"/>
	</g>
</g>
</svg>
