<svg xmlns="http://www.w3.org/2000/svg" viewBox="0 0 358.64 78.49"><defs><style>.cls-1{fill:#fff;}</style></defs><title>图层 2 (2)</title><g id="图层_2" data-name="图层 2"><g id="图层_1-2" data-name="图层 1"><g id="图层_2-2" data-name="图层 2"><g id="Layer_1" data-name="Layer 1"><path class="cls-1" d="M76.07,48.9H41.91v29H33.74v-29H0v-8H33.74V13H4.43V5.2H71.22V13H41.91V40.89H76.07ZM17.12,16.44c3.16,5.88,6.39,13.46,7.5,18.4L17,37.4a92.93,92.93,0,0,0-7-18.74Zm33,18.83A113.48,113.48,0,0,0,58.44,16.1l8.43,2.3c-3.06,6.65-6.81,14.31-10,19.08Z"/><path class="cls-1" d="M103.76,66.19l22.15-4.77a31.61,31.61,0,0,0,.76,6.65c-23.59,5.62-26.92,6.47-29,7.75A27.88,27.88,0,0,0,95,69.17c1.11-.51,2-1.53,2-4.68V46.68h24.7V38.17H95.5v-7H129V53.75H103.76ZM130.59,25H95.84V4.69h6.38v14h7.5V0h6.73V18.66h7.41v-14h6.73ZM163.9,70c1.11,0,1.37-2.22,1.54-11a20.22,20.22,0,0,0,6,3c-.51,10.39-2.21,14-7,14H160c-5.45,0-6.73-2.3-6.73-9.71V10.82h-9.54v19c0,14.22-1.45,34.84-11,48.21a36.06,36.06,0,0,0-5.88-4.94c8.78-12.35,9.63-30.15,9.63-43.27V4.09h23.77V66.36c0,3.24.17,3.67,1.19,3.67Z"/><path class="cls-1" d="M262.38,68.83v6.82H188.43V68.83h33V61H198.57V54.78H221.4V48.05H201.89a70,70,0,0,1-8.26,8.86,43.43,43.43,0,0,0-6.73-4.86,50.15,50.15,0,0,0,14.91-18.49H197V2.9h56.82V33.56H203.09l6.64,2c-.94,2-2.13,3.92-3.24,5.88H221.4V35.27h8.18V41.4H257v6.65H229.58v6.73h23.77V61H229.58v7.83ZM204.7,15.16h40.9v-6H204.7Zm0,12.19h40.9V21H204.7Z"/><path class="cls-1" d="M354.81,47.11a177.31,177.31,0,0,1-15.76,11.5,45.15,45.15,0,0,0,19.59,10.73,27.82,27.82,0,0,0-5.2,6.9c-17-5.62-27.34-17.54-33.39-34.75h-8.52V66.62l16.36-4.35A51.25,51.25,0,0,0,328,69.6c-19.17,5.71-22.23,6.9-24.11,8.18a30.9,30.9,0,0,0-4.17-6.14,9.33,9.33,0,0,0,3.66-7.58V41.49h-7.67c-.76,12.52-3,26.75-9.11,37a30.83,30.83,0,0,0-7.24-4.26c7.75-13,8.43-31.86,8.43-45.32V3.58h67.3v7.75H296V28.88c0,1.7,0,3.41-.09,5.28h61.17v7.33H327.63a51.74,51.74,0,0,0,7,12.26,98.41,98.41,0,0,0,13.12-11.07Zm-53.08-21v-7.2h48.14v7.24Z"/></g></g></g></g></svg>