<svg xmlns="http://www.w3.org/2000/svg" width="387.944" height="200" viewBox="0 0 387.944 200">
  <g id="组_44" data-name="组 44" transform="translate(-1084.577 -113.659)">
    <g id="undraw_teamwork_hpdk" transform="translate(1084.577 113.659)">
      <path id="路径_1" data-name="路径 1" d="M539.091,679.682H152.177a.515.515,0,1,1,0-1.03H539.091a.515.515,0,1,1,0,1.03Z" transform="translate(-151.662 -479.726)" fill="#3f3d56"/>
      <circle id="椭圆_1" data-name="椭圆 1" cx="2.798" cy="2.798" r="2.798" transform="translate(118.496 19.259)" fill="#f2f2f2"/>
      <circle id="椭圆_2" data-name="椭圆 2" cx="2.798" cy="2.798" r="2.798" transform="translate(107.345 19.259)" fill="#f2f2f2"/>
      <circle id="椭圆_3" data-name="椭圆 3" cx="2.798" cy="2.798" r="2.798" transform="translate(96.195 19.259)" fill="#f2f2f2"/>
      <circle id="椭圆_4" data-name="椭圆 4" cx="2.798" cy="2.798" r="2.798" transform="translate(85.044 19.259)" fill="#f2f2f2"/>
      <circle id="椭圆_5" data-name="椭圆 5" cx="2.798" cy="2.798" r="2.798" transform="translate(118.496 30.94)" fill="#f2f2f2"/>
      <circle id="椭圆_6" data-name="椭圆 6" cx="2.798" cy="2.798" r="2.798" transform="translate(107.345 30.94)" fill="#f2f2f2"/>
      <circle id="椭圆_7" data-name="椭圆 7" cx="2.798" cy="2.798" r="2.798" transform="translate(96.195 30.94)" fill="#f2f2f2"/>
      <circle id="椭圆_8" data-name="椭圆 8" cx="2.798" cy="2.798" r="2.798" transform="translate(85.044 30.94)" fill="#f2f2f2"/>
      <circle id="椭圆_9" data-name="椭圆 9" cx="2.798" cy="2.798" r="2.798" transform="translate(118.496 42.621)" fill="#f2f2f2"/>
      <circle id="椭圆_10" data-name="椭圆 10" cx="2.798" cy="2.798" r="2.798" transform="translate(107.345 42.621)" fill="#f2f2f2"/>
      <circle id="椭圆_11" data-name="椭圆 11" cx="2.798" cy="2.798" r="2.798" transform="translate(96.195 42.621)" fill="#f2f2f2"/>
      <circle id="椭圆_12" data-name="椭圆 12" cx="2.798" cy="2.798" r="2.798" transform="translate(85.044 42.621)" fill="#f2f2f2"/>
      <circle id="椭圆_13" data-name="椭圆 13" cx="2.798" cy="2.798" r="2.798" transform="translate(118.496 54.303)" fill="#f2f2f2"/>
      <circle id="椭圆_14" data-name="椭圆 14" cx="2.798" cy="2.798" r="2.798" transform="translate(107.345 54.303)" fill="#f2f2f2"/>
      <circle id="椭圆_15" data-name="椭圆 15" cx="2.798" cy="2.798" r="2.798" transform="translate(96.195 54.303)" fill="#f2f2f2"/>
      <circle id="椭圆_16" data-name="椭圆 16" cx="2.798" cy="2.798" r="2.798" transform="translate(85.044 54.303)" fill="#f2f2f2"/>
      <circle id="椭圆_17" data-name="椭圆 17" cx="2.798" cy="2.798" r="2.798" transform="translate(118.496 65.984)" fill="#f2f2f2"/>
      <circle id="椭圆_18" data-name="椭圆 18" cx="2.798" cy="2.798" r="2.798" transform="translate(107.345 65.984)" fill="#f2f2f2"/>
      <circle id="椭圆_19" data-name="椭圆 19" cx="2.798" cy="2.798" r="2.798" transform="translate(96.195 65.984)" fill="#f2f2f2"/>
      <circle id="椭圆_20" data-name="椭圆 20" cx="2.798" cy="2.798" r="2.798" transform="translate(85.044 65.984)" fill="#f2f2f2"/>
      <circle id="椭圆_21" data-name="椭圆 21" cx="2.798" cy="2.798" r="2.798" transform="translate(118.496 77.666)" fill="#f2f2f2"/>
      <circle id="椭圆_22" data-name="椭圆 22" cx="2.798" cy="2.798" r="2.798" transform="translate(107.345 77.666)" fill="#f2f2f2"/>
      <circle id="椭圆_23" data-name="椭圆 23" cx="2.798" cy="2.798" r="2.798" transform="translate(96.195 77.666)" fill="#f2f2f2"/>
      <circle id="椭圆_24" data-name="椭圆 24" cx="2.798" cy="2.798" r="2.798" transform="translate(85.044 77.666)" fill="#f2f2f2"/>
      <path id="路径_2" data-name="路径 2" d="M375.19,574.172v.865a5.413,5.413,0,0,0,5.408,5.408h38.938a5.41,5.41,0,0,0,5.408-5.408v-.865a5.369,5.369,0,0,0-1.255-3.461,5.561,5.561,0,0,0-.913-.865s-21.407-.485-21.407-1.082H380.6A5.416,5.416,0,0,0,375.19,574.172Z" transform="translate(-278.482 -417.381)" fill="#ccc"/>
      <rect id="矩形_3099" data-name="矩形 3099" width="5.624" height="36.342" transform="translate(119.087 162.85)" fill="#ccc"/>
      <path id="路径_3" data-name="路径 3" d="M426.987,671.694c0,.608-8.523.235-19.036.235s-19.036.373-19.036-.235,8.523-5.427,19.036-5.427S426.987,671.087,426.987,671.694Z" transform="translate(-286.268 -472.7)" fill="#ccc"/>
      <path id="路径_4" data-name="路径 4" d="M429.345,517.209a4.648,4.648,0,0,0-1.647-6.934l-11.921-40.619L406.7,474.1l14.572,38.529a4.673,4.673,0,0,0,8.073,4.578Z" transform="translate(-296.359 -361.152)" fill="#a0616a"/>
      <path id="路径_5" data-name="路径 5" d="M415.3,463.4l-10.16,2.75a2.084,2.084,0,0,1-2.614-1.768L401.3,453.965a5.788,5.788,0,1,1,11.182-2.992l4.185,9.586A2.084,2.084,0,0,1,415.3,463.4Z" transform="translate(-293.183 -348.116)" fill="#6c63ff"/>
      <path id="路径_6" data-name="路径 6" d="M313.515,432.061h5.3l2.524-13.756h-7.829Z" transform="translate(-177.873 -237.326)" fill="#a0616a"/>
      <path id="路径_7" data-name="路径 7" d="M462.051,664.962H472.5a6.657,6.657,0,0,1,6.657,6.657v.216h-17.1Z" transform="translate(-327.762 -471.959)" fill="#2f2e41"/>
      <path id="路径_8" data-name="路径 8" d="M432.412,586.23q-.093,0-.186-.009l-7.341-.534a1.947,1.947,0,0,1-1.648-2.609l9.824-22.071a1.514,1.514,0,0,0-.085-1.211,1.493,1.493,0,0,0-.957-.761c-4.62-1.208-16.472-4.423-26.732-8.185-4.4-1.612-7.164-3.941-8.228-6.923a9.772,9.772,0,0,1,.762-7.667l.07-.118,9.654.878,10.466.89,22.936,12.3a8.69,8.69,0,0,1,3.815,11.155l-10.574,23.712A1.946,1.946,0,0,1,432.412,586.23Z" transform="translate(-290.614 -398.873)" fill="#2f2e41"/>
      <circle id="椭圆_25" data-name="椭圆 25" cx="10.626" cy="10.626" r="10.626" transform="translate(107.984 73.228)" fill="#a0616a"/>
      <path id="路径_9" data-name="路径 9" d="M306.515,431.061h5.3l2.524-13.756h-7.829Z" transform="translate(-173.902 -236.759)" fill="#a0616a"/>
      <path id="路径_10" data-name="路径 10" d="M455.051,663.962H465.5a6.657,6.657,0,0,1,6.657,6.657v.216h-17.1Z" transform="translate(-323.791 -471.392)" fill="#2f2e41"/>
      <path id="路径_11" data-name="路径 11" d="M425.412,589.23q-.093,0-.186-.009l-7.341-.534a1.947,1.947,0,0,1-1.648-2.609l9.824-22.071a1.513,1.513,0,0,0-.085-1.211,1.493,1.493,0,0,0-.957-.761c-4.62-1.207-16.472-4.423-26.732-8.185-4.4-1.612-7.164-3.941-8.228-6.923a9.771,9.771,0,0,1,.762-7.667l.07-.118,9.654.878,10.466.89,22.936,12.3a8.69,8.69,0,0,1,3.815,11.155l-10.574,23.712A1.946,1.946,0,0,1,425.412,589.23Z" transform="translate(-286.643 -400.575)" fill="#2f2e41"/>
      <path id="路径_12" data-name="路径 12" d="M410.41,446.062l-11.249-3.894s-7.062,5.425-3.669,18.884a33.319,33.319,0,0,1-1.471,20.906,21.533,21.533,0,0,1-1.133,2.393s12.547,15.143,24.228,3.894L412.573,466.4S419.712,451.9,410.41,446.062Z" transform="translate(-288.522 -345.556)" fill="#2f2e41"/>
      <path id="路径_13" data-name="路径 13" d="M406.577,401.132c-1.512-2.264-2.706-5.4-1.041-7.557,1.644-2.126,4.885-1.813,7.4-2.754,3.506-1.31,5.54-5.429,4.905-9.118a10.819,10.819,0,0,0-7.123-8,15.423,15.423,0,0,0-10.96.6,16.737,16.737,0,0,0-9.43,9.551,12.868,12.868,0,0,0,2.461,12.906c3.4,3.582,8.742,4.536,13.681,4.478" transform="translate(-286.648 -306.291)" fill="#3f3d56"/>
      <path id="路径_14" data-name="路径 14" d="M341.563,385.85c-1.906,1.551-4.813.862-6.859-.5s-3.706-3.3-5.919-4.368c-3.9-1.882-8.62-.631-12.418,1.454s-7.164,4.965-11.176,6.6-9.13,1.717-12.168-1.372a11.133,11.133,0,0,0,16.315,13.14c4.4-2.677,6.823-8.291,11.753-9.769,2.728-.818,5.657-.159,8.415.554s5.632,1.484,8.415.877,5.385-3.108,5.031-5.934Z" transform="translate(-231.518 -310.319)" fill="#3f3d56"/>
      <path id="路径_15" data-name="路径 15" d="M484.862,593.9a72.468,72.468,0,0,1,0-22.054,1.861,1.861,0,0,1,1.833-1.56h17.251a1.837,1.837,0,0,1,1.452.7,1.869,1.869,0,0,1,.349,1.6,44.274,44.274,0,0,0,0,20.562,1.868,1.868,0,0,1-.349,1.6,1.837,1.837,0,0,1-1.452.7H486.7A1.861,1.861,0,0,1,484.862,593.9Z" transform="translate(-340.226 -418.247)" fill="#6c63ff"/>
      <path id="路径_16" data-name="路径 16" d="M504.235,590.9h-9.053a1.3,1.3,0,0,1-1.3-1.3v-.507a1.3,1.3,0,0,1,1.3-1.3h9.053a1.3,1.3,0,0,1,1.3,1.3v.507A1.3,1.3,0,0,1,504.235,590.9Z" transform="translate(-345.823 -428.178)" fill="#fff"/>
      <path id="路径_17" data-name="路径 17" d="M504.235,603.242h-9.053a1.3,1.3,0,0,1-1.3-1.3v-.507a1.3,1.3,0,0,1,1.3-1.3h9.053a1.3,1.3,0,0,1,1.3,1.3v.507A1.3,1.3,0,0,1,504.235,603.242Z" transform="translate(-345.823 -435.181)" fill="#fff"/>
      <path id="路径_18" data-name="路径 18" d="M453.577,519.132a4.648,4.648,0,0,0-3.327-6.3l-21.691-36.353-7.679,6.573,23.736,33.667a4.673,4.673,0,0,0,8.961,2.416Z" transform="translate(-304.404 -365.022)" fill="#a0616a"/>
      <path id="路径_19" data-name="路径 19" d="M426.736,471.379l-9.15,5.2a2.084,2.084,0,0,1-2.973-1.058l-3.793-9.784a5.788,5.788,0,0,1,10.08-5.691l6.448,8.236a2.084,2.084,0,0,1-.611,3.1Z" transform="translate(-298.272 -354.03)" fill="#2f2e41"/>
      <path id="路径_20" data-name="路径 20" d="M439.6,519.614H263.942a2.812,2.812,0,1,0,0,5.624h4.975v61.22a2.812,2.812,0,1,0,5.624,0V530.642l31.527,57.143a2.812,2.812,0,1,0,4.871-2.812l-32.957-59.735H428.564v.036l-32.937,59.7a2.812,2.812,0,0,0,4.871,2.812l28.066-50.87v49.542a2.812,2.812,0,0,0,5.624,0V526.721l.818-1.483h4.59a2.812,2.812,0,1,0,0-5.624Z" transform="translate(-213.769 -389.495)" fill="#3f3d56"/>
      <rect id="矩形_3100" data-name="矩形 3100" width="37.208" height="3.029" rx="1.514" transform="translate(117.449 128.388)" fill="#ccc"/>
      <path id="路径_21" data-name="路径 21" d="M504.447,487.438H465.942a2.815,2.815,0,0,1-2.812-2.812v-21.2a2.815,2.815,0,0,1,2.812-2.812h38.505a2.815,2.815,0,0,1,2.812,2.812v21.2A2.815,2.815,0,0,1,504.447,487.438Z" transform="translate(-328.374 -356.022)" fill="#ccc"/>
      <circle id="椭圆_26" data-name="椭圆 26" cx="2.596" cy="2.596" r="2.596" transform="translate(154.224 115.408)" fill="#fff"/>
      <path id="路径_22" data-name="路径 22" d="M626.55,298.048v-75.93a3.258,3.258,0,0,1,3.254-3.254h60.021a3.258,3.258,0,0,1,3.254,3.254v75.93a3.258,3.258,0,0,1-3.254,3.254H629.8a3.258,3.258,0,0,1-3.254-3.254Zm3.254-78.46a2.534,2.534,0,0,0-2.531,2.531v75.93a2.534,2.534,0,0,0,2.531,2.531h60.02a2.534,2.534,0,0,0,2.531-2.531v-75.93a2.534,2.534,0,0,0-2.531-2.531Z" transform="translate(-421.092 -218.864)" fill="#2f2e41"/>
      <path id="路径_23" data-name="路径 23" d="M711.215,276.883V261.293a1.629,1.629,0,0,1,1.627-1.627h13.212a1.629,1.629,0,0,1,1.627,1.627v15.591a1.629,1.629,0,0,1-1.627,1.627H712.842A1.629,1.629,0,0,1,711.215,276.883Z" transform="translate(-469.127 -242.013)" fill="#6c63ff"/>
      <path id="路径_24" data-name="路径 24" d="M651.88,293.6V278.007a1.629,1.629,0,0,1,1.627-1.627h13.212a1.629,1.629,0,0,1,1.627,1.627V293.6a1.629,1.629,0,0,1-1.627,1.627H653.507A1.629,1.629,0,0,1,651.88,293.6Z" transform="translate(-435.462 -251.496)" fill="#fff"/>
      <path id="路径_25" data-name="路径 25" d="M699.515,344.576V328.985a1.629,1.629,0,0,1,1.627-1.627h13.212a1.629,1.629,0,0,1,1.627,1.627v15.591a1.629,1.629,0,0,1-1.627,1.627H701.143A1.629,1.629,0,0,1,699.515,344.576Z" transform="translate(-462.489 -280.419)" fill="#6c63ff"/>
      <circle id="椭圆_27" data-name="椭圆 27" cx="2.798" cy="2.798" r="2.798" transform="translate(334.987 2.316)" fill="#f2f2f2"/>
      <circle id="椭圆_28" data-name="椭圆 28" cx="2.798" cy="2.798" r="2.798" transform="translate(334.987 13.467)" fill="#f2f2f2"/>
      <circle id="椭圆_29" data-name="椭圆 29" cx="2.798" cy="2.798" r="2.798" transform="translate(334.987 24.618)" fill="#f2f2f2"/>
      <circle id="椭圆_30" data-name="椭圆 30" cx="2.798" cy="2.798" r="2.798" transform="translate(334.987 35.768)" fill="#f2f2f2"/>
      <circle id="椭圆_31" data-name="椭圆 31" cx="2.798" cy="2.798" r="2.798" transform="translate(323.306 2.316)" fill="#f2f2f2"/>
      <circle id="椭圆_32" data-name="椭圆 32" cx="2.798" cy="2.798" r="2.798" transform="translate(323.306 13.467)" fill="#f2f2f2"/>
      <circle id="椭圆_33" data-name="椭圆 33" cx="2.798" cy="2.798" r="2.798" transform="translate(323.306 24.618)" fill="#f2f2f2"/>
      <circle id="椭圆_34" data-name="椭圆 34" cx="2.798" cy="2.798" r="2.798" transform="translate(323.306 35.768)" fill="#f2f2f2"/>
      <circle id="椭圆_35" data-name="椭圆 35" cx="2.798" cy="2.798" r="2.798" transform="translate(311.624 2.316)" fill="#f2f2f2"/>
      <circle id="椭圆_36" data-name="椭圆 36" cx="2.798" cy="2.798" r="2.798" transform="translate(311.624 13.467)" fill="#f2f2f2"/>
      <circle id="椭圆_37" data-name="椭圆 37" cx="2.798" cy="2.798" r="2.798" transform="translate(311.624 24.618)" fill="#f2f2f2"/>
      <circle id="椭圆_38" data-name="椭圆 38" cx="2.798" cy="2.798" r="2.798" transform="translate(311.624 35.768)" fill="#f2f2f2"/>
      <circle id="椭圆_39" data-name="椭圆 39" cx="2.798" cy="2.798" r="2.798" transform="translate(299.943 2.316)" fill="#f2f2f2"/>
      <circle id="椭圆_40" data-name="椭圆 40" cx="2.798" cy="2.798" r="2.798" transform="translate(299.943 13.467)" fill="#f2f2f2"/>
      <circle id="椭圆_41" data-name="椭圆 41" cx="2.798" cy="2.798" r="2.798" transform="translate(299.943 24.618)" fill="#f2f2f2"/>
      <circle id="椭圆_42" data-name="椭圆 42" cx="2.798" cy="2.798" r="2.798" transform="translate(299.943 35.768)" fill="#f2f2f2"/>
      <circle id="椭圆_43" data-name="椭圆 43" cx="2.798" cy="2.798" r="2.798" transform="translate(288.261 2.316)" fill="#f2f2f2"/>
      <circle id="椭圆_44" data-name="椭圆 44" cx="2.798" cy="2.798" r="2.798" transform="translate(288.261 13.467)" fill="#f2f2f2"/>
      <circle id="椭圆_45" data-name="椭圆 45" cx="2.798" cy="2.798" r="2.798" transform="translate(288.261 24.618)" fill="#f2f2f2"/>
      <circle id="椭圆_46" data-name="椭圆 46" cx="2.798" cy="2.798" r="2.798" transform="translate(288.261 35.768)" fill="#f2f2f2"/>
      <circle id="椭圆_47" data-name="椭圆 47" cx="2.798" cy="2.798" r="2.798" transform="translate(276.58 2.316)" fill="#f2f2f2"/>
      <circle id="椭圆_48" data-name="椭圆 48" cx="2.798" cy="2.798" r="2.798" transform="translate(276.58 13.467)" fill="#f2f2f2"/>
      <circle id="椭圆_49" data-name="椭圆 49" cx="2.798" cy="2.798" r="2.798" transform="translate(276.58 24.618)" fill="#f2f2f2"/>
      <circle id="椭圆_50" data-name="椭圆 50" cx="2.798" cy="2.798" r="2.798" transform="translate(276.58 35.768)" fill="#f2f2f2"/>
      <path id="路径_26" data-name="路径 26" d="M823.08,414.941a4.76,4.76,0,0,1,3.361-6.258,4.587,4.587,0,0,1,.628-.1l10.514-18.43-2.655-4.561,6.609-5.1,5.056,7.023a4.823,4.823,0,0,1-.113,5.758l-14.435,18.48a4.514,4.514,0,0,1,.134.448,4.76,4.76,0,0,1-4.049,5.836,4.633,4.633,0,0,1-.583.037A4.775,4.775,0,0,1,823.08,414.941Z" transform="translate(-532.43 -310.563)" fill="#ffb8b8"/>
      <path id="路径_27" data-name="路径 27" d="M614.115,424.058h-5.3L606.288,403.6h7.828Z" transform="translate(-343.979 -228.983)" fill="#ffb8b8"/>
      <path id="路径_28" data-name="路径 28" d="M594.917,447.384h10.229v6.441h-16.67A6.441,6.441,0,0,1,594.917,447.384Z" transform="translate(-333.874 -253.825)" fill="#2f2e41"/>
      <path id="路径_29" data-name="路径 29" d="M715.115,424.058h-5.3L707.288,403.6h7.828Z" transform="translate(-401.282 -228.983)" fill="#ffb8b8"/>
      <path id="路径_30" data-name="路径 30" d="M695.917,447.384h10.229v6.441h-16.67a6.441,6.441,0,0,1,6.441-6.441Z" transform="translate(-391.177 -253.825)" fill="#2f2e41"/>
      <path id="路径_31" data-name="路径 31" d="M849.714,369.654l-11.908,4.525L834.9,366.1a4.832,4.832,0,0,1,2.164-5.841h0a4.832,4.832,0,0,1,6.171,1.2Z" transform="translate(-539.136 -298.73)" fill="#6c63ff"/>
      <path id="路径_32" data-name="路径 32" d="M761.808,524.859l-9.987-2.278a2.157,2.157,0,0,1-1.649-2.431c4.008-25.4,7.863-40.275,17.8-59.166.139-.352,1.69-7.5,2.7-12.237a2.151,2.151,0,0,1,1.823-2.174l18.623-2.866a2.409,2.409,0,0,1,.875-.132l.186.035,0,.183c0,.189-.191.218-.262.229l-.248.038a2.892,2.892,0,0,1,.768.522c8.16,9.814,12.4,41.984,17.792,77.524a1.94,1.94,0,0,1-.564,1.578,2.134,2.134,0,0,1-1.531.693l-11.9.29a2.155,2.155,0,0,1-2.178-1.825l-8.014-46.314a1.72,1.72,0,0,0-3.243-.5c-6.466,13.167-12.5,24.555-18.434,47.274a2.143,2.143,0,0,1-2.073,1.612A2.18,2.18,0,0,1,761.808,524.859Z" transform="translate(-491.214 -346.354)" fill="#3f3d56"/>
      <path id="路径_33" data-name="路径 33" d="M797.444,401.387a2.162,2.162,0,0,1-.9-1.535c-1.525-14.238-.463-25.381,3.247-34.064a10.812,10.812,0,0,1,7.168-6.135l9.626-.486.05.024a11.251,11.251,0,0,1,6.152,11.936c-3.1,8.161-5.689,16.658-3.712,23.513a2.216,2.216,0,0,1-.209,1.723,2.113,2.113,0,0,1-1.348,1l-18.335,4.362A2.148,2.148,0,0,1,797.444,401.387Z" transform="translate(-517.155 -298.465)" fill="#6c63ff"/>
      <path id="路径_34" data-name="路径 34" d="M757.461,378.282,739,363.716a4.555,4.555,0,0,1-.448.132,4.771,4.771,0,0,1-3.815-.732,4.759,4.759,0,1,1,7.359-4.99,4.58,4.58,0,0,1,.1.628l18.379,10.6,4.574-2.633,5.067,6.633-7.1,5.062a4.734,4.734,0,0,1-5.65-.138Z" transform="translate(-481.317 -295.793)" fill="#ffb8b8"/>
      <path id="路径_35" data-name="路径 35" d="M810.8,381.648l-10.534-7.164,4.951-7.012a4.832,4.832,0,0,1,6.026-1.575h0a4.832,4.832,0,0,1,2.55,5.747Z" transform="translate(-519.648 -302.017)" fill="#6c63ff"/>
      <circle id="椭圆_51" data-name="椭圆 51" cx="10.626" cy="10.626" r="10.626" transform="translate(285.589 35.854)" fill="#ffb8b8"/>
      <path id="路径_36" data-name="路径 36" d="M812.777,305.444c-2.731,1.869-6.317,3.791-9.107,1.8A5.076,5.076,0,0,1,802,301.392c1.336-3.82,5.005-5.5,8.515-6.79,4.562-1.676,9.529-3.009,14.239-1.809s8.872,5.76,8.022,10.545c-.684,3.848-4.313,7.05-3.8,10.924.519,3.9,4.9,5.951,8.775,6.648s8.2.921,10.985,3.7c3.549,3.547,2.663,9.887-.677,13.633s-8.379,5.443-13.262,6.6c-6.47,1.529-13.468,2.333-19.613-.2s-10.927-9.369-9.147-15.774c.752-2.706,2.523-4.992,4.235-7.218s3.445-4.554,4.1-7.285a7.574,7.574,0,0,0-1.368-6.626,1.92,1.92,0,0,1-.257-2.244Z" transform="translate(-520.457 -260.546)" fill="#3f3d56"/>
    </g>
  </g>
</svg>
