<svg xmlns="http://www.w3.org/2000/svg" width="371.514" height="188.689" viewBox="0 0 371.514 188.689">
  <g id="undraw_User_flow_re_bvfx" transform="translate(0 -0.002)">
    <path id="路径_136" data-name="路径 136" d="M952.187,566.889c-10.814,7.79-24.827,8.181-38.373,7.224-1.891-.133-3.77-.29-5.63-.459-.011,0-.026,0-.037,0-.089-.009-.179-.017-.265-.022l-1.149-.108.09.172.282.532c-.1-.178-.2-.352-.3-.531-.03-.053-.063-.107-.093-.16-3.509-6.106-6.99-12.437-7.877-19.41-.918-7.238,1.661-15.433,8.031-18.99a12.858,12.858,0,0,1,2.638-1.1c.381-.116.767-.21,1.158-.293a13.777,13.777,0,0,1,16.022,17.91c5.4-5.538,4.393-14.521,2.53-22.029s-4.126-15.862-.33-22.606a14.906,14.906,0,0,1,9.986-7.02c.128-.028.255-.055.383-.079a20.107,20.107,0,0,1,14.446,2.531c7.963,5.018,12.053,14.533,13.381,23.853C969.214,541.293,964.481,558.031,952.187,566.889Z" transform="translate(-596.058 -385.795)" fill="#f2f2f2"/>
    <path id="路径_137" data-name="路径 137" d="M961.234,543.455a34.18,34.18,0,0,1-2.359,9.632,29.682,29.682,0,0,1-4.608,7.527,38.028,38.028,0,0,1-14.607,10.532,54.731,54.731,0,0,1-13.308,3.576c-1.891-.133-3.769-.29-5.63-.459-.011,0-.026,0-.037,0-.089-.009-.179-.017-.265-.022l-1.149-.108.09.172.282.532c-.1-.178-.2-.352-.3-.531-.03-.053-.063-.107-.093-.16a29.986,29.986,0,0,0,2.791-39.5c.381-.116.767-.21,1.158-.293a31.622,31.622,0,0,1,2.886,4.78,31,31,0,0,1,2.675,19.284,31.692,31.692,0,0,1-8.03,15.807c.361-.025.726-.055,1.083-.087a55.568,55.568,0,0,0,19.642-5A35.374,35.374,0,0,0,954.7,558.249a31.972,31.972,0,0,0,5.632-17.546,74.053,74.053,0,0,0-2.1-20.047,84.137,84.137,0,0,0-7.07-19.259.605.605,0,0,1,.24-.8.515.515,0,0,1,.383-.079.448.448,0,0,1,.3.253c.387.754.766,1.509,1.131,2.273a85.1,85.1,0,0,1,6.662,19.981A68.509,68.509,0,0,1,961.234,543.455Z" transform="translate(-608.597 -386.403)" fill="#fff"/>
    <path id="路径_138" data-name="路径 138" d="M653.426,626.979c5.524,3.979,12.682,4.179,19.6,3.69.966-.068,1.926-.148,2.876-.235l.019,0c.046,0,.091-.009.135-.011l.587-.055-.046.088-.144.272.155-.271c.015-.027.032-.054.047-.082,1.792-3.119,3.57-6.353,4.024-9.915.469-3.7-.849-7.883-4.1-9.7a6.564,6.564,0,0,0-1.347-.564c-.195-.059-.392-.107-.591-.15a7.038,7.038,0,0,0-8.184,9.149c-2.759-2.829-2.244-7.418-1.292-11.253s2.108-8.1.168-11.547a7.615,7.615,0,0,0-5.1-3.586c-.065-.014-.13-.028-.2-.04a10.271,10.271,0,0,0-7.379,1.293c-4.068,2.563-6.157,7.424-6.835,12.185C644.727,613.9,647.145,622.455,653.426,626.979Z" transform="translate(-441.983 -442.443)" fill="#f2f2f2"/>
    <path id="路径_139" data-name="路径 139" d="M670.024,615.009a17.457,17.457,0,0,0,1.205,4.92,15.157,15.157,0,0,0,2.354,3.845,19.424,19.424,0,0,0,7.461,5.38,27.952,27.952,0,0,0,6.8,1.827c.966-.068,1.926-.148,2.876-.234l.019,0c.046,0,.091-.009.135-.011l.587-.055-.046.088-.144.272.155-.271c.015-.027.032-.054.047-.082a15.317,15.317,0,0,1-1.426-20.18c-.195-.059-.392-.107-.591-.15a16.161,16.161,0,0,0-1.474,2.442,15.833,15.833,0,0,0-1.366,9.851,16.188,16.188,0,0,0,4.1,8.075c-.185-.013-.371-.028-.553-.045a28.385,28.385,0,0,1-10.034-2.556,18.071,18.071,0,0,1-6.77-5.555,16.333,16.333,0,0,1-2.877-8.963,37.829,37.829,0,0,1,1.074-10.24,42.98,42.98,0,0,1,3.612-9.838.309.309,0,0,0-.123-.408.262.262,0,0,0-.2-.04.229.229,0,0,0-.151.129c-.2.385-.391.771-.578,1.161a43.469,43.469,0,0,0-3.4,10.207A35,35,0,0,0,670.024,615.009Z" transform="translate(-456.799 -442.754)" fill="#fff"/>
    <path id="路径_140" data-name="路径 140" d="M189.333,222.062H131.825a6.66,6.66,0,0,0-6.651,6.651v90.37a6.66,6.66,0,0,0,6.651,6.651h57.508a6.66,6.66,0,0,0,6.651-6.651v-90.37A6.66,6.66,0,0,0,189.333,222.062Zm5.868,97.02a5.875,5.875,0,0,1-5.868,5.868H131.825a5.875,5.875,0,0,1-5.868-5.868v-90.37a5.875,5.875,0,0,1,5.868-5.868h57.508a5.875,5.875,0,0,1,5.868,5.868Z" transform="translate(-125.174 -216.887)" fill="#3f3d56"/>
    <path id="路径_141" data-name="路径 141" d="M504.333,325.732H446.825a6.658,6.658,0,0,1-6.651-6.651v-90.37a6.658,6.658,0,0,1,6.651-6.651h57.508a6.658,6.658,0,0,1,6.651,6.651v90.37A6.658,6.658,0,0,1,504.333,325.732ZM446.825,222.844a5.875,5.875,0,0,0-5.868,5.868v90.37a5.875,5.875,0,0,0,5.868,5.868h57.508a5.875,5.875,0,0,0,5.868-5.868v-90.37a5.875,5.875,0,0,0-5.868-5.868Z" transform="translate(-316.943 -216.887)" fill="#3f3d56"/>
    <path id="路径_142" data-name="路径 142" d="M355.429,354.844H331.565a.391.391,0,1,1,0-.782h23.864a.391.391,0,1,1,0,.782Z" transform="translate(-250.585 -297.247)" fill="#3f3d56"/>
    <path id="路径_143" data-name="路径 143" d="M379.566,348.877a.391.391,0,0,1-.237-.7l12.45-9.485a1.174,1.174,0,0,0,0-1.867l-12.45-9.485a.391.391,0,1,1,.474-.622l12.45,9.485a1.956,1.956,0,0,1,0,3.112L379.8,348.8A.389.389,0,0,1,379.566,348.877Z" transform="translate(-279.807 -280.551)" fill="#3f3d56"/>
    <path id="路径_144" data-name="路径 144" d="M669.429,354.844H645.565a.391.391,0,0,1,0-.782h23.864a.391.391,0,0,1,0,.782Z" transform="translate(-441.745 -297.247)" fill="#3f3d56"/>
    <path id="路径_145" data-name="路径 145" d="M693.566,348.877a.391.391,0,0,1-.237-.7l12.45-9.485a1.174,1.174,0,0,0,0-1.867l-12.45-9.485a.391.391,0,1,1,.474-.622l12.45,9.485a1.956,1.956,0,0,1,0,3.112L693.8,348.8A.388.388,0,0,1,693.566,348.877Z" transform="translate(-470.967 -280.551)" fill="#3f3d56"/>
    <path id="路径_146" data-name="路径 146" d="M522.192,284.513H508.5a3.329,3.329,0,0,1-3.325-3.325v-13.3a3.329,3.329,0,0,1,3.325-3.325h13.692a3.329,3.329,0,0,1,3.325,3.325v13.3A3.329,3.329,0,0,1,522.192,284.513Z" transform="translate(-356.514 -242.761)" fill="#6c63ff"/>
    <path id="路径_147" data-name="路径 147" d="M525.344,284.622a.39.39,0,0,1-.277-.115l-18.778-18.778a.391.391,0,0,1,.553-.553l18.778,18.778a.391.391,0,0,1-.277.668Z" transform="translate(-357.123 -243.065)" fill="#fff"/>
    <path id="路径_148" data-name="路径 148" d="M506.566,284.622a.391.391,0,0,1-.277-.668l18.778-18.778a.391.391,0,0,1,.553.553l-18.778,18.778A.39.39,0,0,1,506.566,284.622Z" transform="translate(-357.123 -243.065)" fill="#fff"/>
    <path id="路径_149" data-name="路径 149" d="M515.993,352.842H490.564a4.89,4.89,0,1,1,0-9.78h25.429a4.89,4.89,0,1,1,0,9.78Zm-25.429-9a4.108,4.108,0,0,0,0,8.215h25.429a4.108,4.108,0,0,0,0-8.215Z" transform="translate(-344.643 -290.551)" fill="#3f3d56"/>
    <path id="路径_150" data-name="路径 150" d="M515.993,390.842H490.564a4.89,4.89,0,1,1,0-9.78h25.429a4.89,4.89,0,1,1,0,9.78Zm-25.429-9a4.108,4.108,0,0,0,0,8.215h25.429a4.108,4.108,0,0,0,0-8.215Z" transform="translate(-344.643 -313.685)" fill="#3f3d56"/>
    <path id="路径_151" data-name="路径 151" d="M515.993,428.842H490.564a4.89,4.89,0,1,1,0-9.78h25.429a4.89,4.89,0,1,1,0,9.78Zm-25.429-9a4.108,4.108,0,0,0,0,8.215h25.429a4.108,4.108,0,0,0,0-8.215Z" transform="translate(-344.643 -336.819)" fill="#3f3d56"/>
    <path id="路径_152" data-name="路径 152" d="M809.067,208.93l-56.732,9.416a6.66,6.66,0,0,0-5.472,7.65l14.8,89.15a6.66,6.66,0,0,0,7.65,5.472l56.732-9.416a6.66,6.66,0,0,0,5.472-7.65l-14.8-89.15A6.66,6.66,0,0,0,809.067,208.93Zm21.674,94.75a5.875,5.875,0,0,1-4.828,6.75l-56.732,9.416a5.875,5.875,0,0,1-6.75-4.828l-14.8-89.15a5.875,5.875,0,0,1,4.828-6.75L809.2,209.7a5.875,5.875,0,0,1,6.75,4.828Z" transform="translate(-503.597 -208.839)" fill="#3f3d56"/>
    <path id="路径_153" data-name="路径 153" d="M832.566,287.394l-25.086,4.163a4.89,4.89,0,1,1-1.6-9.648l25.086-4.163a4.89,4.89,0,1,1,1.6,9.648Zm-26.559-4.713a4.108,4.108,0,1,0,1.345,8.1l25.085-4.163a4.108,4.108,0,1,0-1.345-8.1Z" transform="translate(-537.09 -250.747)" fill="#ccc"/>
    <path id="路径_154" data-name="路径 154" d="M840.1,332.774l-25.086,4.163a4.89,4.89,0,0,1-1.6-9.648l25.086-4.163a4.89,4.89,0,0,1,1.6,9.648Zm-26.559-4.713a4.108,4.108,0,1,0,1.345,8.1L839.969,332a4.108,4.108,0,0,0-1.345-8.1Z" transform="translate(-541.675 -278.373)" fill="#ccc"/>
    <path id="路径_155" data-name="路径 155" d="M847.629,378.153l-25.086,4.163a4.89,4.89,0,0,1-1.6-9.648l25.086-4.163a4.89,4.89,0,1,1,1.6,9.648ZM821.07,373.44a4.108,4.108,0,0,0,1.345,8.1l25.086-4.163a4.108,4.108,0,0,0-1.345-8.1Z" transform="translate(-546.26 -305.999)" fill="#ccc"/>
    <path id="路径_156" data-name="路径 156" d="M855.16,423.532,830.075,427.7a4.89,4.89,0,0,1-1.6-9.648l25.086-4.163a4.89,4.89,0,1,1,1.6,9.648ZM828.6,418.819a4.108,4.108,0,1,0,1.345,8.1l25.086-4.163a4.108,4.108,0,0,0-1.345-8.1Z" transform="translate(-550.845 -333.626)" fill="#ccc"/>
    <path id="路径_157" data-name="路径 157" d="M818.555,235.224l-69.082,11.465a.391.391,0,0,1-.128-.772l69.082-11.465a.391.391,0,0,1,.128.772Z" transform="translate(-504.963 -224.427)" fill="#3f3d56"/>
    <circle id="椭圆_61" data-name="椭圆 61" cx="2.738" cy="2.738" r="2.738" transform="translate(249.276 12.174)" fill="#6c63ff"/>
    <path id="路径_158" data-name="路径 158" d="M896.073,218.548l-7.719,1.281a.391.391,0,0,1-.128-.772l7.719-1.281a.391.391,0,1,1,.128.772Z" transform="translate(-589.513 -214.275)" fill="#3f3d56"/>
    <path id="路径_159" data-name="路径 159" d="M897.055,224.467l-7.719,1.281a.391.391,0,0,1-.128-.772l7.719-1.281a.391.391,0,1,1,.128.772Z" transform="translate(-590.111 -217.878)" fill="#3f3d56"/>
    <path id="路径_160" data-name="路径 160" d="M898.038,230.386l-7.719,1.281a.391.391,0,1,1-.128-.772l7.719-1.281a.391.391,0,1,1,.128.772Z" transform="translate(-590.709 -221.482)" fill="#3f3d56"/>
    <path id="路径_161" data-name="路径 161" d="M202.34,315.944H173a3.329,3.329,0,0,1-3.325-3.325V282.887A3.329,3.329,0,0,1,173,279.561H202.34a3.329,3.329,0,0,1,3.325,3.325v29.732a3.329,3.329,0,0,1-3.325,3.325Z" transform="translate(-152.265 -251.892)" fill="#6c63ff"/>
    <path id="路径_162" data-name="路径 162" d="M200.493,413.842H175.064a4.89,4.89,0,0,1,0-9.78h25.429a4.89,4.89,0,1,1,0,9.78Zm-25.429-9a4.108,4.108,0,0,0,0,8.215h25.429a4.108,4.108,0,1,0,0-8.215Z" transform="translate(-152.57 -327.687)" fill="#3f3d56"/>
    <path id="路径_163" data-name="路径 163" d="M205.492,316.271a.39.39,0,0,1-.277-.115l-34.427-34.427a.391.391,0,1,1,.553-.553L205.769,315.6a.391.391,0,0,1-.277.668Z" transform="translate(-152.874 -252.806)" fill="#fff"/>
    <path id="路径_164" data-name="路径 164" d="M171.066,316.271a.391.391,0,0,1-.277-.668l34.427-34.427a.391.391,0,0,1,.553.553l-34.427,34.427A.39.39,0,0,1,171.066,316.271Z" transform="translate(-152.874 -252.806)" fill="#fff"/>
    <path id="路径_165" data-name="路径 165" d="M900.24,428.315a4.2,4.2,0,0,0-3.5-5.41l-20.082-23.466-4.684,4.918,20,22.5a4.225,4.225,0,0,0,8.264,1.458Z" transform="translate(-579.817 -324.872)" fill="#a0616a"/>
    <path id="路径_166" data-name="路径 166" d="M875.73,395.013l-7.178,5.246a1.76,1.76,0,0,1-2.6-.6l-4.125-7.846a4.889,4.889,0,0,1,7.911-5.747l6.2,6.291a1.76,1.76,0,0,1-.215,2.657Z" transform="translate(-573.074 -315.503)" fill="#6c63ff"/>
    <circle id="椭圆_62" data-name="椭圆 62" cx="9.609" cy="9.609" r="9.609" transform="translate(279.196 44.615)" fill="#a0616a"/>
    <path id="路径_167" data-name="路径 167" d="M845.085,410.4a1.779,1.779,0,0,1-.3-.025l-16.859-2.838a1.757,1.757,0,0,1-1.468-1.708c-.051-3.857.237-13.594,4.016-20.686a10.364,10.364,0,0,1,19.246,7.193,153.736,153.736,0,0,0-2.9,16.513,1.759,1.759,0,0,1-1.742,1.551Z" transform="translate(-552.107 -312.828)" fill="#2f2e41"/>
    <path id="路径_168" data-name="路径 168" d="M771.11,372.445a4.109,4.109,0,0,1,.094.642l16.805,9.7,4.085-2.352,4.355,5.7L789.622,391a3.13,3.13,0,0,1-3.755-.091l-17.329-13.671a4.107,4.107,0,1,1,2.572-4.789Z" transform="translate(-513.479 -306.51)" fill="#a0616a"/>
    <path id="路径_169" data-name="路径 169" d="M827.454,391.171a1.759,1.759,0,0,1,.865-1.183l7.712-4.312a4.889,4.889,0,0,1,6,7.724l-6.149,6.385a1.76,1.76,0,0,1-2.662-.146l-5.431-7.039A1.758,1.758,0,0,1,827.454,391.171Z" transform="translate(-552.693 -315.868)" fill="#6c63ff"/>
    <path id="路径_170" data-name="路径 170" d="M672.316,440.9h-4.8l-1.129-18.44,5.926-.06Z" transform="translate(-405.692 -257.152)" fill="#a0616a"/>
    <path id="路径_171" data-name="路径 171" d="M785.772,680.739H770.307v-.2a6.019,6.019,0,0,1,6.019-6.019h9.446Z" transform="translate(-517.924 -492.341)" fill="#2f2e41"/>
    <path id="路径_172" data-name="路径 172" d="M787.523,440.9h-4.8l-2.281-18.5h7.078Z" transform="translate(-475.127 -257.152)" fill="#a0616a"/>
    <path id="路径_173" data-name="路径 173" d="M902.772,680.739H887.307v-.2a6.019,6.019,0,0,1,6.019-6.019h9.446Z" transform="translate(-589.152 -492.341)" fill="#2f2e41"/>
    <path id="路径_174" data-name="路径 174" d="M835.508,527.563a1.769,1.769,0,0,1-1.664-1.179l-15.285-43.67a.978.978,0,0,0-1.706-.264L801.945,502.33a1.381,1.381,0,0,0-.241.522l-4.751,21.2a1.764,1.764,0,0,1-1.638,1.373l-5.69.259a1.74,1.74,0,0,1-1.328-.517,1.763,1.763,0,0,1-.51-1.331l.992-19.346a45.148,45.148,0,0,1,4.735-17.985,101.453,101.453,0,0,0,10.615-39.973l.012-.217L821.65,449.1l2.628,3.639a50.3,50.3,0,0,0,3.8,4.7c3.347,3.629,4.352,8.483,4.605,11.915a99.228,99.228,0,0,0,1.788,12.554l8.682,42.666a1.76,1.76,0,0,1-1.472,2.2l-5.952.776A1.718,1.718,0,0,1,835.508,527.563Z" transform="translate(-528.565 -353.408)" fill="#2f2e41"/>
    <path id="路径_175" data-name="路径 175" d="M887.913,311.739a42.621,42.621,0,0,1-1.684-7.1,4.808,4.808,0,0,1,1.269-3.881c1.912-1.812,5.161-.949,7.161.766,2.89,2.478,4.332,6.286,4.876,10.054s.305,7.6.436,11.4.675,7.717,2.615,10.993,5.539,5.79,9.336,5.512a6.571,6.571,0,0,0,4.113-1.743,4.769,4.769,0,0,0,1.432-4.141,9.294,9.294,0,0,1-1.938,10.916,11.565,11.565,0,0,1-11.152,2.338,15.414,15.414,0,0,1-8.808-7.6,23.347,23.347,0,0,1-2.457-11.55c.076-3.055.6-6.136.079-9.148s-2.4-6.071-5.375-6.781Z" transform="translate(-588.484 -264.184)" fill="#2f2e41"/>
    <path id="路径_176" data-name="路径 176" d="M843.748,323.426a3.8,3.8,0,0,1-4.19,2.451,4.913,4.913,0,0,1-3.708-3.409,7.018,7.018,0,0,1,.548-5.145,8.011,8.011,0,0,1,4.584-4.083,6.578,6.578,0,0,1,5.981.956,2.2,2.2,0,0,1,1.537-1.608,4.2,4.2,0,0,1,2.307.034,9.5,9.5,0,0,1,5.29,3.848,15.466,15.466,0,0,1,2.4,6.18c.59,3.313.373,6.933-1.488,9.737s-5.667,4.46-8.756,3.123a4.08,4.08,0,0,1,.791-2.829,8.63,8.63,0,0,0,1.356-2.666,2.153,2.153,0,0,0-1.136-2.505c-.811-.274-1.675.17-2.529.224a2.771,2.771,0,0,1-2.658-3.993Z" transform="translate(-557.67 -271.911)" fill="#2f2e41"/>
    <path id="路径_177" data-name="路径 177" d="M804.432,689.844H655.38a.391.391,0,1,1,0-.782H804.432a.391.391,0,1,1,0,.782Z" transform="translate(-447.72 -501.192)" fill="#ccc"/>
  </g>
</svg>
